<svg width="252" height="252" viewBox="0 0 252 252" fill="none" xmlns="http://www.w3.org/2000/svg">
<path d="M126 176C153.614 176 176 153.614 176 126C176 98.3858 153.614 76 126 76C98.3858 76 76 98.3858 76 126C76 153.614 98.3858 176 126 176Z" fill="#B4BA42"/>
<path d="M120.93 155.593C123.654 155.931 126.528 154.817 128.623 152.291C132.153 148.037 132.153 141.386 128.621 137.447L110.23 116.98C106.714 113.021 100.982 113.283 97.4566 117.538C93.9271 121.792 93.9269 128.443 97.4583 132.382L115.85 152.85C117.278 154.457 119.071 155.363 120.93 155.593Z" fill="white"/>
<path d="M123.734 155.311C121.006 155.615 118.146 154.464 116.082 151.912C112.605 147.614 112.687 140.963 116.266 137.069L143.688 102.177C147.253 98.2633 152.981 98.5981 156.454 102.897C159.931 107.195 159.849 113.845 156.27 117.739L128.848 152.631C127.4 154.22 125.596 155.104 123.734 155.311Z" fill="white"/>
<path opacity="0.8" d="M252 126C252 142.547 248.741 158.931 242.409 174.218C236.077 189.505 226.796 203.395 215.095 215.095C203.395 226.796 189.505 236.077 174.218 242.409C158.931 248.741 142.547 252 126 252V214.2C137.583 214.2 149.052 211.919 159.753 207.486C170.454 203.054 180.177 196.557 188.367 188.367C196.557 180.177 203.054 170.454 207.486 159.753C211.919 149.052 214.2 137.583 214.2 126H252Z" fill="#DE5F5F"/>
<path opacity="0.8" d="M126 252C109.453 252 93.0689 248.741 77.7819 242.409C62.4949 236.077 48.6047 226.796 36.9045 215.095C25.2044 203.395 15.9233 189.505 9.59118 174.218C3.25908 158.931 -1.44655e-06 142.547 0 126H37.8C37.8 137.583 40.0814 149.052 44.5138 159.753C48.9463 170.454 55.4431 180.177 63.6332 188.367C71.8233 196.557 81.5464 203.054 92.2473 207.486C102.948 211.919 114.417 214.2 126 214.2V252Z" fill="#7A9924"/>
<path opacity="0.8" d="M0 126C2.92143e-06 92.5827 13.275 60.5342 36.9045 36.9046C60.5341 13.275 92.5826 3.14707e-05 126 0L126 37.8C102.608 37.8 80.1739 47.0925 63.6332 63.6332C47.0925 80.1739 37.8 102.608 37.8 126H0Z" fill="#834F45"/>
<path opacity="0.8" d="M126 0C159.417 3.98497e-07 191.466 13.275 215.095 36.9045C238.725 60.5341 252 92.5827 252 126L214.2 126C214.2 102.608 204.908 80.1739 188.367 63.6332C171.826 47.0925 149.392 37.8 126 37.8V0Z" fill="#6F7BBD"/>
</svg>
