<svg fill="none" height="32" viewBox="0 0 32 32" width="32" xmlns="http://www.w3.org/2000/svg" xmlns:xlink="http://www.w3.org/1999/xlink"><clipPath id="a"><path d="m0 0h32v32h-32z"/></clipPath><g clip-path="url(#a)"><path d="m18.7459 6.7466c-.1183 0-.2232-.0768-.259-.18965-.0358-.11284.0057-.23588.1026-.30398l1.4394-1.01336-2.4276 1.4021c-.124.0696-.2809.03157-.3594-.08699-.0783-.11881-.052-.27789.0609-.36488l3.1047-2.33469-3.0674 1.77071c-.1256.0686-.2829.02784-.3595-.09296-.0765-.12105-.0462-.28062.0696-.36488l.4469-.30995c-.1247.04275-.2624-.01044-.3258-.12602-.0636-.11558-.0351-.25999.0678-.34276l1.5398-1.22364c-.0872-.04623-.1426-.13621-.1444-.23513-.0017-.09868.0502-.19065.1357-.24011l2.241-1.29398c.1231-.07059.2799-.0343.3597.08326.0795.11732.0554.2764-.0557.36488l-.8655.69174 2.4777-1.43094c.126-.07109.2855-.03082.3628.09147.0773.12204.0453.2836-.0728.36687l-.3992.27689 1.2088-.6977c.124-.0696.2808-.03157.3594.08699.0783.11881.0519.27789-.0609.36489l-3.1062 2.33319 3.786-2.18605c.126-.07357.2873-.03455.3659.08824.0783.12279.0459.28559-.0736.36886l-1.4362 1.01112.9165-.52892c.1217-.0696.2763-.03505.3569.07978.0805.11459.0604.27192-.0463.36265l-1.5584 1.30765.7546-.43448c.1191-.06785.2697-.03653.3517.07308.0823.10961.0699.26297-.0286.35817l-.7471.71062c.1031.03207.1774.12229.1891.22967.0117.10713-.0412.21127-.1347.26496l-1.4965.86497c-.1191.06885-.2707.03779-.3532-.07233-.0823-.11011-.0694-.26446.03-.35916l.4812-.46057-1.4632.84484c-.1218.06835-.2754.03355-.3554-.08078-.0803-.11434-.0607-.27068.0452-.36165l1.5584-1.30865-3.4822 2.00908c-.0406.02386-.0865.03679-.1335.03753z" fill="#9ed26a"/><path d="m20.3028 6.69899c-.1228 0-.2305-.08252-.2623-.20108-.0318-.11881.0202-.24409.1265-.30548l.2568-.14814c.13-.07506.2963-.03057.3713.09942.0749.13.0304.29628-.0996.37135l-.257.14814c-.0413.02361-.088.03604-.1357.03579z" fill="#eb5463"/><path d="m15.9399 13.0336c-.0858 0-.1666-.0403-.218-.1092-.0512-.0686-.0671-.1573-.0428-.2396l.1293-.4342c-.0686-.0025-.134-.0306-.1829-.0788-.0865-.0862-.1047-.2195-.0445-.3258l.1829-.3259c-.1141.0425-.2423.0037-.3139-.0944-.0719-.0985-.0694-.2324.0059-.3279l.3199-.4046-.1861.1086c-.1191.0716-.273.042-.3567-.0686-.0838-.1109-.0706-.267.0308-.3619l.4121-.39746-.3214.18566c-.1235.0711-.2806.0348-.3604-.083-.0798-.11807-.0549-.2774.0567-.36539l1.5308-1.20052-1.5698.90673c-.1211.07034-.2759.03728-.3575-.07681-.0815-.11408-.0628-.27142.043-.36314l.7549-.65469-.8145.47126c-.1124.06512-.2553.04151-.3408-.05667-.0852-.09793-.0892-.24259-.0094-.34525l.4441-.57168-.5972.34425c-.1002.05792-.2257.04599-.3132-.02957s-.1176-.1981-.0751-.30548l.1889-.47897-.4071.23514c-.0945.05493-.2128.04797-.3-.0179-.0873-.06587-.1265-.17747-.0997-.28335l.039-.15311-.1275.07382c-.0626.03604-.1372.04573-.2068.02659-.0693-.01889-.128-.06487-.163-.12751l-.1889-.32958-.1504.08674c-.0659.03778-.1447.04624-.2172.02337l-1.0696-.34599c-.0892-.00298-.171-.05071-.2172-.12701-.039-.05767-.0525-.129-.0373-.19711.0154-.0681.0582-.12676.1181-.16231l.0385-.02212c.0658-.03828.1449-.04648.2172-.02287l1.0034.32586.2819-.16305c.0624-.03604.1367-.04574.2066-.02709.0696.01864.129.06437.1647.12701l.189.33008.4469-.25825c.0949-.05369.2122-.04648.2997.01839.0873.06587.1263.17747.0994.28336l-.0385.15261.5262-.30348c.0999-.05792.2257-.04599.3132.02957.0875.07532.1176.19785.075.30548l-.1896.47872 1.124-.65147c.1123-.06462.2547-.04076.3397.05692.0853.09744.0898.24185.0105.34425l-.4452.57292 2.0285-1.1707c.121-.06909.2746-.03554.3557.0778.081.1131.0631.26944-.0413.3614l-.7526.65719 2.4811-1.43194c.123-.06959.2791-.03281.3584.08451s.0549.27565-.0557.36414l-2.3277 1.8249c.0293.0174.0547.04051.0751.06785.0825.10962.07.26372-.0289.35892l-.6987.67334c.0821.02933.1452.09669.1693.18045.0241.08401.0062.17449-.0477.24309l-.4924.62265c.0338.0139.0646.034.0905.0599.0867.086.1051.2192.0452.3256l-.3259.5789.0169.0119c.0873.0689.1238.1839.0923.2906l-.2091.7026c.0077.01.0149.0204.0211.0314.0754.1297.0314.2955-.0981.3708l-.144.0838c-.0432.0246-.0924.0368-.1421.0353z" fill="#eb5463"/><path d="m21.9209 31.9677c-.1168 0-.2205-.0748-.2575-.1856-.037-.1109.0012-.2329.0947-.3033l.8182-.6134-1.4356.8279c-.1241.0706-.2816.0333-.3604-.0857-.0791-.1188-.0525-.2784.0606-.3654l2.8599-2.1719-3.5136 2.0312c-.1263.0711-.2861.0303-.3631-.0922-.0768-.1228-.044-.2843.0748-.3671l1.7429-1.1874-2.0693 1.1946c-.1262.0721-.2868.0321-.3644-.091-.0775-.123-.0444-.2851.0751-.3678l3.1149-2.1406-3.5195 2.0319c-.1268.0709-.2871.0294-.3634-.0944-.0766-.1235-.0418-.2856.0783-.3671l2.2047-1.4541-2.4322 1.4041c-.1272.0699-.287.0274-.3626-.0967-.0756-.124-.0403-.2853.0803-.3666l.6775-.4342-.803.463c-.1275.0714-.2886.0289-.3644-.0959s-.0393-.2873.0827-.3676l.3557-.226-.3954.228c-.1273.0711-.2879.0291-.3639-.0952-.0761-.1241-.0405-.2864.0805-.3674l3.0858-2.0091-3.2168 1.8577c-.1272.0681-.2856.0244-.3604-.0991-.0745-.1238-.0392-.2841.0803-.3652l.4111-.2602-.3698.214c-.1275.079-.2951.0395-.3739-.0882-.0788-.1275-.0392-.2951.0883-.3739l4.895-3.2252-4.9606 2.8636c-.1268.0721-.2881.0313-.3649-.0927-.0771-.1241-.0423-.2866.0788-.3681l6.0578-4.0426-6.0432 3.4893c-.1275.074-.2908.0328-.3678-.0927-.0773-.1258-.04-.2899.0837-.3701l5.0336-3.2867-4.8718 2.8122c-.1275.0725-.2895.0308-.3658-.0945-.0766-.125-.0398-.2883.083-.3686l3.7336-2.3968-3.5203 2.0307c-.0841.0537-.1909.0567-.2779.0079-.087-.0484-.1405-.1409-.1392-.2406.0015-.0996.0574-.1906.1456-.2368l13.5019-7.7958c.128-.078.295-.0375.3733.0905.078.128.0375.2953-.0905.3733l-3.7353 2.3974 3.4649-2.0004c.1277-.0785.295-.0388.3736.089.0785.1277.0387.295-.089.3736l-5.0271 3.2816 4.6806-2.7023c.127-.0755.2911-.0355.3691.09s.0415.2903-.0825.3711l-6.0613 4.0468 5.7014-3.2922c.0825-.0509.1859-.0542.2714-.0082s.1399.1342.1429.2312c.003.0969-.0462.1881-.1287.2391l-4.8924 3.2233 4.4422-2.5641c.1275-.0681.2859-.0244.3604.0991.0746.1238.0396.2841-.0803.3652l-.4088.258.0228-.0132c.1275-.0741.2908-.0331.3679.0927.0771.1255.04.2898-.0838.3699l-3.095 2.0128 2.6111-1.5073c.1275-.0713.2886-.0288.3646.096.0758.125.0393.2873-.0827.3678l-.4181.2655c.13-.0495.2761.0074.3388.1315.0626.124.0213.2754-.0955.3507l-.676.4342.2112-.122c.1268-.0711.2871-.0294.3634.0942.0763.1238.0418.2856-.0783.3673l-2.2079 1.4563 1.5888-.9154c.1262-.0723.2868-.0321.3644.0907.0775.1231.0444.2851-.0749.3681l-3.1129 2.1394 2.3971-1.3842c.1263-.0709.2861-.0304.3631.0924.0771.1226.044.2841-.0748.3669l-1.7414 1.1871.9373-.5431c.1241-.0706.2814-.0331.3604.0857.0791.1189.0525.2787-.0606.3657l-2.8599 2.1719 1.6017-.9264c.1243-.0718.2831-.0346.3622.0852.0795.1198.0514.2809-.0634.3672l-1.0589.7943c.1228 0 .2304.0826.2622.2011.0319.1188-.0201.2441-.1265.3055l-3.5332 2.0404c-.041.0241-.088.0365-.1357.0365z" fill="#ae794b"/><path d="m16.0272 13.9194c-.1201 0-.2257-.079-.26-.1938-.0343-.1149.0109-.2389.1114-.3048l1.5572-1.0205-1.207.6964c-.1253.0718-.2846.0333-.3632-.0877-.0783-.1211-.0484-.2824.0681-.3672l4.0876-2.9528-3.5601 2.0541c-.125.0711-.2836.0325-.3619-.088-.0783-.1206-.0492-.2811.0663-.3664l2.8182-2.05207-2.1577 1.24677c-.1241.0701-.2809.0325-.3597-.0858-.079-.1183-.0532-.2776.0592-.3648l1.838-1.39867-.8948.51575c-.1223.07084-.2786.03604-.3591-.08028-.0806-.11608-.0584-.27466.0507-.36439l1.0941-.90077c-.0838-.04871-.1352-.13819-.1352-.23488 0-.09694.0514-.18642.1352-.23489l1.9248-1.11154c.1223-.07084.2787-.03579.3592.08028.0805.11608.0584.27466-.0507.36439l-.4561.37532 1.7565-1.01386c.1238-.06985.2807-.03257.3597.08575.0788.11856.0529.27763-.0594.36513l-1.8381 1.39912 2.9024-1.67452c.1248-.07109.2836-.03256.3619.08799s.049.28111-.0666.36637l-2.8169 2.05158 3.7216-2.14877c.1251-.07158.2844-.03306.3629.08799.0783.12105.0485.28236-.0681.36712l-4.0855 2.9516 4.9232-2.84075c.1272-.07233.2888-.03082.3653.09371.0768.12453.0411.28733-.0807.36836l-1.5567 1.02008 1.8738-1.08147c.0843-.05344.1909-.05667.2779-.00796.0872.04847.1404.14093.1392.24061-.0012.09992-.0572.19089-.1457.23712l-10.1955 5.88458c-.0412.0241-.088.0365-.1357.0365z" fill="#ae794b"/><path d="m10.2399 31.9439c-.1168 0-.2205-.0748-.25752-.1857-.03704-.1108.00124-.2329.09472-.303l.9599-.7325-1.84056 1.0621c-.12577.0713-.28534.0316-.36289-.0902-.0778-.1218-.04648-.2831.07133-.3671l1.02878-.7199-1.47469.8531c-.12502.0716-.28459.033-.36289-.088-.07854-.1211-.04847-.2824.06811-.3671l3.07861-2.2263-3.61351 2.0861c-.12577.0713-.28509.0318-.36289-.09-.07755-.1218-.04623-.2833.07134-.3671l3.31226-2.3203-3.68535 2.1282c-.12676.075-.29006.0353-.36836-.0895-.07829-.1248-.04275-.2891.08004-.3706l2.77588-1.8749-2.99312 1.725c-.12875.0768-.29553.0343-.37209-.0947-.07655-.129-.0343-.2955.0947-.3721l3.9404-2.4033-4.03261 2.3273c-.12875.0768-.29554.0345-.37234-.0942-.0768-.1288-.03455-.2956.0942-.3724l7.45945-4.5983-7.61032 4.3943c-.12826.0698-.28882.0256-.36339-.1002-.07432-.1258-.03604-.2878.08699-.3669l.88511-.5349-.9122.5262c-.1285.0699-.28907.0256-.36339-.1002-.07432-.1257-.03604-.2878.087-.3666l.55428-.335-.55006.3191c-.12825.0741-.29205.0316-.36811-.0952-.07631-.127-.03703-.2915.08849-.3701l11.0856-6.9337-11.23275 6.4841c-.12776.0706-.28857.0271-.36364-.0982-.07531-.1253-.03778-.2873.08451-.3671l9.46928-5.8642-9.56646 5.5222c-.12776.0703-.28858.0271-.36364-.0982s-.03778-.2876.08476-.3671l11.05054-6.9002-11.10125 6.4083c-.128.0693-.28783.0253-.36239-.0997-.07457-.125-.03729-.2866.08451-.3664l7.65603-4.7104-7.63491 4.4097c-.12825.0698-.28882.0256-.36339-.1002-.07431-.1258-.03579-.2878.087-.3669l1.46598-.8861-1.36432.787c-.12801.0703-.28882.0271-.36389-.0982-.07506-.1253-.03778-.2876.08476-.3674l9.58357-5.9579-9.52168 5.4949c-.12676.0735-.28907.033-.36662-.0912-.07755-.1243-.04226-.2876.07929-.3692l6.22037-4.1809-6.18284 3.5705c-.12651.0711-.28658.0298-.36314-.0932-.0768-.1233-.043-.2849.07656-.3671l5.99492-4.0003-5.86791 3.3876c-.12851.0775-.29554.036-.37284-.0925s-.03579-.2953.09271-.3728l.35768-.2242-.16678.0962c-.12702.0698-.28684.0273-.36265-.0967-.07556-.1241-.04002-.2856.08053-.3666l3.52155-2.2674-3.32891 1.9216c-.12677.0681-.2846.0254-.35991-.0972-.07507-.1228-.04151-.2828.07655-.3648l4.98132-3.277-4.75712 2.7458c-.12776.075-.29205.0335-.36911-.093-.07705-.1265-.03852-.2915.08675-.3706l3.00753-1.9335-2.7724 1.6c-.12701.0738-.28981.033-.36711-.092-.07731-.1248-.04126-.2886.08152-.3694l4.75314-3.1449-4.46158 2.5753c-.12676.0698-.28584.0283-.3619-.0947-.07631-.1231-.04275-.2841.07631-.3664l4.24981-2.8119-3.90929 2.2559c-.12751.0691-.28659.0261-.36165-.0977-.07506-.1241-.03977-.2849.08028-.3659l.46754-.2965-.14938.0862c-.12751.0714-.28858.0289-.36439-.0959-.07606-.1248-.03952-.2873.08252-.3676l.3015-.1917c-.128.0318-.26024-.0328-.31368-.1533-.05368-.1203-.01292-.2618.09644-.3353l2.02971-1.3315-1.5823.9131c-.12577.0686-.28336.0274-.35942-.0939-.0763-.1213-.04523-.2811.07109-.3646l2.92501-1.9897-2.44331 1.4118c-.12602.0723-.28633.0328-.36438-.0898-.0778-.1225-.04549-.2846.07332-.3678l2.44605-1.70388-1.76028 1.01458c-.1213.0701-.2759.0361-.35693-.078-.08103-.1144-.06189-.2714.04425-.3627l2.13211-1.83803-.02386.01416c-.08426.05344-.19089.05643-.27789.00796-.08724-.04872-.14043-.14118-.13919-.24085.00125-.09968.05717-.19065.14566-.23688l2.51563-1.45231c.12105-.0686.27441-.03455.35494.07904.08054.11334.06239.26943-.04225.36115l-2.12913 1.83683 4.79684-2.76916c.1256-.06935.2834-.02933.3604.09171.0771.12105.0468.28112-.0693.36563l-2.45101 1.70584 3.31201-1.91115c.1263-.07109.2861-.03032.3631.09222.0771.12278.044.28434-.0748.36711l-2.92722 1.98995 3.52352-2.03344c.127-.07209.2886-.03082.3654.0937.0765.12453.0408.28733-.0808.36836l-2.0287 1.32878 2.3484-1.35736c.1272-.0691.2863-.0261.3616.09768.0751.12403.0398.28485-.0803.36588l-.0972.06238.259-.14988c.1283-.07779.2953-.03678.3731.09122.0778.12826.0368.29529-.0912.37309l-.4775.30299.5707-.32909c.1268-.06985.2858-.02809.3621.0947.0761.12303.0426.2841-.0765.36637l-4.2466 2.8122 4.4524-2.56936c.1268-.07531.2906-.03405.3666.09221.0768.12453.041.28758-.081.36861l-4.7554 3.14924 4.8869-2.82338c.1277-.07481.292-.03355.3691.09296.077.12652.0385.29156-.0868.3706l-3.0092 1.93302 3.0015-1.7324c.127-.0711.2874-.0296.3637.0942.0763.1235.0417.2856-.0786.3671l-4.9768 3.2742 4.9594-2.8636c.1275-.0726.2896-.0308.3661.0945.0764.125.0396.2883-.083.3686l-3.5295 2.2713 3.4122-1.9698c.1285-.0776.2953-.0361.3726.0924.0775.1285.036.2956-.0925.3729l-.3589.2247.1787-.1032c.1268-.0721.2879-.0311.3649.093.0768.1237.042.2863-.0788.3681l-5.9929 4 5.8154-3.3573c.1263-.0698.2851-.0285.3617.0937.0766.1226.0437.2836-.0746.3664l-6.22133 4.181 17.04203-9.83614c.1285-.07705.2953-.03529.3723.09346.0771.1285.0353.29529-.0934.37234l-9.5864 5.95914 9.9589-5.74961c.129-.07631.2956-.03355.3719.09569.0763.12901.0335.29554-.0955.37184l-1.4346.86868 1.502-.86644c.128-.06935.2878-.0256.3624.09942.0748.12503.0375.28684-.0845.36638l-7.6625 4.71364 7.8188-4.516c.128-.07038.2889-.02713.3639.0981.0751.1253.0378.2876-.0847.3674l-11.0514 6.9022 11.1398-6.4327c.1278-.0681.2866-.0241.3609.1002.0744.124.0383.2848-.0822.3651l-9.4658 5.8642 9.3902-5.421c.1275-.0674.2854-.0231.3594.1004.0743.1236.0391.2834-.0803.3644l-11.0866 6.9327 11.0009-6.3528c.1282-.0699.2888-.0256.3634.1002.0743.1257.036.2878-.087.3668l-.5744.3475.4056-.2346c.1283-.0699.2888-.0256.3632.1001.0745.1258.036.2879-.0868.3669l-.8732.5282.6515-.3768c.128-.0694.2881-.0254.3626.0996.0746.1251.0373.2866-.0845.3664l-7.4529 4.5973 7.226-4.1713c.1285-.0733.2923-.0298.3679.0975.0755.1275.035.2918-.091.3696l-13.4362 8.1941c.0738.1236.0383.2831-.0808.3639l-2.7736 1.8736 2.4065-1.3889c.1258-.0711.2851-.0316.3629.0902s.0465.2831-.0714.3671l-3.312 2.3196 2.8005-1.6164c.1248-.0696.2821-.0303.3599.0895s.0492.2794-.0648.3649l-3.0831 2.2328 2.3043-1.3298c.1258-.0714.2851-.0316.3629.0902s.0462.2831-.0713.3669l-1.0268.7191.0984-.0572c.1238-.0716.2821-.0346.3614.0845.0796.1191.053.2794-.0606.3664l-1.6507 1.2606c.0527.0229.0967.0624.1248.1124.0748.1297.0306.2953-.0987.3703l-2.7182 1.5692c-.041.0228-.0872.0345-.1342.0338z" fill="#efc7a4"/><path d="m16.3791 7.11838c-.0681 0-.1337-.02585-.1837-.07233-.0872-.08053-.1121-.20854-.0611-.31592l.38-.79388-1.762 1.01684c-.1191.07307-.2742.04375-.3584-.06786-.084-.11135-.0701-.26844.0325-.36314l.5946-.56845-.8618.49737c-.1217.07108-.2778.03678-.3589-.0788-.081-.11558-.0599-.27391.0485-.36438l.1688-.14068-.0771.04399c-.1173.06686-.2657.03753-.3487-.0691-.0828-.10638-.0751-.2575.0186-.35494l.9453-.96961-1.0859.62487c-.1206.06959-.2742.03678-.3557-.07606-.0816-.1126-.0647-.26894.0392-.36165l.4343-.38974-.568.33009c-.1218.06959-.2764.03504-.3569-.07979s-.0604-.27192.0465-.36265l.1083-.09345-.2642.15211c-.1165.06736-.2649.03928-.3487-.06636-.0838-.10539-.0775-.25626.0147-.35444l.9686-1.03623-1.5952.92313c-.1189.07159-.2727.04201-.3565-.06885-.0837-.1106-.0706-.2667.0306-.36164l.8396-.80806-1.3705.79215c-.1226.07034-.2786.0348-.3587-.08153-.08-.11632-.0576-.27465.052-.36413l.0541-.0435-.0954.05443c-.1196.06562-.2694.03256-.35-.07755-.0805-.11011-.06707-.26272.0319-.35692l.4707-.42677-.3258.1884c-.1141.06562-.25854.04027-.3433-.0604-.08475-.10066-.085-.24731-.00099-.34847l.48869-.58585c-.1211-.00398-.225-.08749-.2546-.20506-.0295-.117319.0222-.240106.1271-.301002l1.0988-.6368013c.1139-.0651218.258-.03927188.3423.0608963.0845.100417.085.246816.0015.34773l-.4126.49587 1.201-.693472c.1196-.065619.2692-.032561.3497.07755.0808.11011.0671.262724-.0315.356926l-.4708.426773.9035-.521224c.1228-.072081.2804-.037035.3611.080284.0808.117318.057.27714-.0544.36612l-.0542.04226.3018-.17424c.119-.071584.2729-.042006.3567.068601.0837.110859.0705.266949-.0309.361899l-.8388.80905 1.2445-.71882c.1163-.06736.2642-.03928.348.06561.0842.10539.0782.25676-.0142.35519l-.9686 1.03648 1.3471-.77823c.1221-.07109.2782-.03679.3592.07879s.0599.27391-.0485.36439l-.1113.09345.1861-.10861c.1206-.0696.2742-.03679.3557.07605.0818.1126.0647.26894-.039.36165l-.4345.38974.5083-.2933c.1178-.06785.2677-.03803.3505.0696.083.10762.0736.26024-.0221.35668l-.9458.96937 1.086-.62512c.122-.07109.2781-.03679.3591.07879.0811.11558.0599.27391-.0484.36438l-.1691.14069.1087-.06189c.119-.07308.2741-.0435.3584.06785.084.11135.0701.26844-.0326.36314l-.594.56746.5619-.32586c.1029-.05841.2317-.04375.3187.03654.0867.08028.1116.20779.0614.31492l-.3768.79364.2714-.1546c.0843-.05344.1909-.05667.2781-.00796.087.04847.1405.14093.139.2406-.0013.09992-.0572.1909-.1454.23713l-1.0241.59106c-.0435.0261-.0929.03928-.1434.03878z" fill="#937661"/><path d="m18.5729 30.2636c-.0947 0-.1825-.0492-.232-.1302l-.287-.4718-.4626.2665c-.0972.0562-.2187.0465-.306-.0236-.0872-.0704-.1223-.1872-.0882-.2938l.0619-.1924-.7201.4153c-.1044.0604-.2361.0445-.3234-.0387-.0872-.0833-.1088-.214-.0534-.3212l.3708-.7178-2.2007 1.2706c-.1205.0696-.2741.0368-.3557-.076-.0815-.1129-.0646-.269.0391-.3617l.6892-.6134-.3992.2296c-.1168.0667-.2647.0378-.3479-.0678-.0833-.1056-.0766-.2563.0156-.3542l1.1869-1.2488c-.0883-.0203-.1606-.0835-.1927-.1682-.0323-.0848-.0198-.1797.0326-.2538l.5103-.7171c-.0167-.0077-.0323-.0174-.0465-.0288-.0875-.0738-.1193-.1946-.0793-.302l.3169-.859c-.0522-.0574-.0773-.1345-.0688-.2118l.1086-1.0034c-.0308-.1106.0174-.2284.1173-.2856l.0261-.0152c.0885-.0517.1986-.0489.2844.0067.086.056.1332.1554.1223.2573l-.0756.7059c.0226.0102.0437.0239.0624.04.0875.0738.1193.1941.0798.3015l-.2024.5468c.1114-.0564.2469-.0295.3281.0652.0816.0947.0878.2326.0154.3343l-.331.4655.1759-.1016c.1169-.0677.2658-.0391.3493.0671.0835.1063.0763.2577-.0169.3554l-1.0112 1.0621 1.0616-.6127c.1193-.0631.267-.0291.3465.08s.0669.2603-.0301.3545l-.6862.6119.7059-.4084c.1046-.0631.2383-.0487.3271.0353.0887.084.1103.217.0529.3249l-.3741.7206.5277-.3048c.0972-.0556.2185-.046.3055.0244.087.0703.122.1867.0882.2933l-.0614.1934.0826-.048c.1277-.0738.2908-.0323.3676.0934l.291.4773c.1201-.0336.2478.0176.3112.125.0751.1297.0306.2958-.0994.3708l-.1732.1c-.041.0241-.088.037-.1357.0372z" fill="#eb5463"/><path d="m12.3211 21.634c-.1059-.0002-.2023-.0618-.2466-.1583-.0442-.0964-.0283-.2098.041-.2903l.386-.4484-.9676.558c-.1188.0706-.2714.0405-.3549-.0696-.0833-.1098-.0709-.2649.0291-.3604l.7829-.7601-.9589.5538c-.1206.0699-.2744.0368-.3562-.076-.0815-.1131-.0641-.2697.0403-.3622l.6902-.6124-.6045.3492c-.1163.0666-.2637.0385-.3472-.0664s-.0781-.255.0127-.3534l1.2132-1.3032-.869.5023c-.1128.0654-.2565.041-.3418-.0579-.0852-.0989-.0877-.2446-.0062-.3467l.7929-.9903c-.1076-.0266-.1881-.1156-.2038-.2252-.0156-.1096.0368-.2177.1325-.2734l.9182-.5299c.1131-.0646.2562-.04.341.0587.085.0989.0877.244.0067.346l-.6632.8284 1.1876-.6853c.1164-.0666.2638-.0383.3473.0664.0835.1049.078.255-.0129.3534l-1.2125 1.3042 1.3576-.7839c.1206-.0699.2747-.0368.3562.076.0815.1131.0641.2697-.0403.3622l-.6907.6134.5508-.3177c.1185-.0703.2714-.0402.3547.0696.0835.1102.0708.2653-.0291.3607l-.784.7601.4397-.254c.1146-.0662.2603-.0401.3448.0618.0845.102.083.2498-.0032.3503l-.5576.6455c.0657.0196.1213.0638.1554.1232.0748.1298.0303.2958-.0994.3709l-.9952.5744c-.0413.0241-.0883.0368-.136.0365z" fill="#937661"/><path d="m19.9228 21.6331c-.1049-.0003-.2001-.0607-.2451-.1554s-.0313-.2065.0348-.2878l.5046-.6174-1.1479.6624c-.1178.0646-.2649.0336-.3464-.0731-.0816-.1068-.0729-.2572.0206-.3537l.9475-.9457-1.129.6514c-.1195.0696-.2724.0378-.3547-.0735-.0822-.1114-.0673-.267.0346-.3607l.9261-.8607-.8031.463c-.1153.0661-.2617.0386-.3455-.0648-.0835-.1034-.08-.2523.0085-.3515l1.1401-1.2634-.6378.3686c-.1158.0666-.263.039-.347-.0649-.0837-.1041-.0795-.2538.0102-.3527l.5826-.6445c-.0377-.0236-.0693-.0562-.0912-.0949-.0745-.1298-.0306-.2953.0989-.3704l.9182-.5299c.1158-.0666.263-.039.3468.0651.084.1044.0792.254-.0107.353l-.2715.2952.6135-.3544c.1158-.0676.2634-.0405.3477.0636.0843.1042.08.2541-.0099.3532l-1.1402 1.2637 1.3942-.8048c.1198-.0696.2727-.0378.3549.0738.0823.1113.0674.2667-.0345.3606l-.9229.8601.8409-.4855c.1178-.0646.2652-.0335.3467.0733.0815.1067.0726.2571-.0209.3535l-.9452.946.6395-.3694c.1136-.0651.2572-.04.342.0597s.0865.2456.004.347l-.6142.7521c.1131.0187.2023.1064.2227.2192.0206.1126-.0318.2262-.131.2836l-.9952.5745c-.0413.0241-.088.0367-.1357.0365z" fill="#937661"/><g fill="#262626"><path d="m23.5541 6.12879c.0482-.04822.0989-.10042.1576-.16281 1.0789-1.29001 1.7473-2.87331 1.9188-4.54634 0-.01417-.0174-.02337-.0457-.02983-.007-.00596-.0087-.01317-.0239-.0169-1.9633-.481205-4.0348-.2329-5.8289.69869-.6114.36165-1.1734.80085-1.6723 1.30641-.1911.18741-.5729.55602-.8856.93085-.4832-1.06681-1.2005-2.01058-2.0985-2.76171-.9542-.791157-2.3812-1.690185-3.6841-1.4513223-1.2908.2371223-2.30739 1.6461923-1.41457 2.8566623.32437.36363.75017.62213 1.22267.74169.9872.43721 1.7868 1.21196 2.2551 2.18481.0428.08202.1499.07705.2292.07705-.0348.10862-.0502.22246-.0452.3363-.9647-.19264-1.9408-.32338-2.9223-.39148-.0584-.00075-.1166.00944-.1715.02983-2.23802-.0087-4.39077.85677-5.99992 2.41199-2.34737 2.24892-2.59394 5.73372-2.49775 8.81582.0435 3.7599 1.00691 7.4522 2.80621 10.754.97732 1.686 2.82335 4.2896 5.12299 4.0751h.03357.0109c.0331-.0032.0651 0 .0987-.0065.9522-.1434 1.8535-.5219 2.6228-1.1011.9482-.6137 2.0448-.9597 3.1735-1.0019 1.0579.0027 2.0966.2821 3.013.8103.6843.5657 1.4869.9706 2.3484 1.1846.0755.0214.1586.0375.2384.0544.0618.0125.12.0321.1831.0418.0107 0 .0217 0 .0326.0032h.0087c.0281.005.0542.0125.0818.0169.0231.0023.0465.0023.0696 0 1.7376.1559 3.2779-1.3645 4.2433-2.622 2.2671-2.9543 3.2352-6.7095 3.6923-10.3389.3286-3.532.4887-8.0085-2.2561-10.6815-1.1208-1.07973-2.5062-1.84478-4.0169-2.21811zm-6.8338 3.1492c-.0664.12552-.13.25154-.1902.3803-.0678.14167-.131.28608-.1911.43421-.1226.2973-.2297.6008-.3209.909-.0169-.0602-.0363-.1188-.0544-.1792-.0239-.0813-.0488-.1628-.0749-.2444-.0256-.0765-.0517-.1518-.0788-.2274-.4344-1.36729-1.2785-2.56832-2.4184-3.43976.819.16007 1.6492.25477 2.4831.28286.9882-.01814 1.9728-.12925 2.9401-.33182-.8726.60971-1.5833 1.42348-2.0692 2.37073zm2.2228-6.1192c1.5908-1.45406 3.8037-2.01555 5.895-1.49606-.1437 1.02803-.4553 2.02548-.9229 2.95235-.1628.40887-.3934.78718-.6825 1.119-.1462.13024-.2396.21724-.3025.2759-.4086-.06363-.822-.08924-1.2353-.07656-.0721-.03828-.1551-.05021-.2352-.0343-1.1135.09594-2.2211.25402-3.317.4735-.1257-.03778-.2386-.10986-.3258-.20804-.0092-.01144-.0152-.02337-.0239-.03455-.0678-.2933-.1454-.58262-.2388-.86572.0944-.80632.8925-1.64395 1.3889-2.10602zm-4.699 2.5124c-.0343-.08376-.1568-.0773-.2291-.0773.346 0-.8976-1.43541-.8971-1.43491-.3363-.29032-.7103-.53365-1.112-.7233-.3582-.11533-.7017-.27242-1.0233-.46803-1.09217-.91394-.4889-2.714983 1.1043-2.414727 2.2301.424037 3.8308 2.619287 4.6078 4.756127.0758.41509.1896.82272.3397 1.21718-.4797.0512-.9626.06164-1.4441.03156-.2026-.01466-.4041-.03479-.605-.05816-.3407-.17548-.6047-.47076-.7412-.82918zm-.1004 23.85021c.3793-.4717.7136-.9781.9985-1.5122.3596-.6197.645-1.2796.8503-1.9661.1899.6671.4548 1.3109.7896 1.9184.269.5296.5871 1.0327.9508 1.5025-1.1891-.212-2.4078-.1924-3.5892.0574zm14.8873-10.4307c-.425 3.3787-2.6849 13.2978-7.2991 12.2111-.043-.0097-.0825-.0261-.1243-.0373-1.8468-.7188-3.3582-2.1013-4.2386-3.8764-.0152-.0321-.0316-.0634-.0467-.096-.0348-.0713-.0657-.1446-.0982-.2172-.4859-1.1168-.7638-2.3128-.82-3.5295 0-.0075-.005-.012-.006-.0194-.0462-.3656-.7765-.2461-.7884.0885-.0805 1.3491-.4118 2.6715-.9773 3.8991-.8749 1.7789-2.4045 3.1499-4.2685 3.8253-.0194 0-.0373.0087-.0542.0109-2.80293.3109-4.79063-3.6337-5.69587-5.7633-1.10409-2.6993-1.7051-5.5781-1.77271-8.4939-.08053-2.6036.02536-5.8684 1.79185-7.94435 1.40682-1.65439 3.83721-2.84721 6.04983-2.59493 2.5157.46704 3.9986 2.48382 4.6038 4.80708.0544.2172.1059.4345.1461.6559.013.0701.0224.1412.0336.2118.0338.2068.0619.4131.0833.6179.0074.0738.0156.1472.0216.2205.0179.2172.0283.431.033.6428 0 .0407.0045.0815.005.1222.0032.4296.7961.3291.7994-.0499.0034-.4007.0295-.8006.078-1.1983 0-.0114.0032-.0234.0045-.0348.3224-2.57852 1.6121-5.12026 4.1673-5.87115 2.5037-.62835 5.3929.82098 6.9084 2.81092 1.9519 2.56663 1.7456 6.57933 1.4642 9.60203z"/><path d="m12.2701 16.3433c-1.3086.09-1.9748 1.5448-2.0725 2.6921-.1026 1.2065.5755 2.6427 1.9547 2.552 1.3253-.0885 2.0123-1.2267 2.0742-2.4555-.0435-1.076-.5799-2.882-1.9564-2.7886zm-.6912 4.4676c-.5652-.6751-.7589-1.5866-.5163-2.4331.1628-.7124.8198-2.1911 1.6484-1.2185.4748.6279.7315 1.3934.7308 2.1806-.0477.9406-.7606 2.5813-1.8629 1.471z"/><path d="m19.873 16.3496c-1.3096.0939-1.9748 1.5363-2.0737 2.6884-.1031 1.206.5747 2.6389 1.9549 2.5439 1.3211-.0912 2.0133-1.2191 2.0752-2.45-.045-1.0757-.5799-2.881-1.9564-2.7823zm-.6922 4.4655c-.5655-.6763-.7594-1.5885-.5175-2.4363.1628-.7129.8192-2.1925 1.6484-1.2184.475.6283.7318 1.3946.7315 2.1823-.0462.9132-.7558 2.5882-1.8624 1.4724z"/><path d="m9.38252 28.8604c-.19661-.1765-.93134.1228-.7325.3015.24061.2212.5093.4104.79862.5625.18766.0592.39197.0306.55606-.0783.1086-.0651.2383-.2063.0738-.2903-.25256-.134-.4867-.3005-.69598-.4954z"/><path d="m5.00062 14.8635c.01342-.4144-.78568-.3048-.79836.0574-.19661 4.4268.89455 8.8155 3.14125 12.6346.18667.308.93557.0072.71957-.349-2.19077-3.7326-3.25434-8.0194-3.06246-12.343z"/><path d="m5.25547 12.6531c.06189-.3236.13323-.645.21401-.9639.04499-.1775-.72479-.0696-.77649.1347-.08153.3192-.15386.6405-.21724.9637-.0348.1901.73846.0651.77972-.1345z"/><path d="m15.6123 16.5668v4.344c0 .3452.7884.1872.7884-.0902v-4.3438c0-.3455-.7884-.1874-.7884.09z"/></g></g></svg>