<svg fill="none" height="32" viewBox="0 0 32 32" width="32" xmlns="http://www.w3.org/2000/svg"><path d="m15.3395 10.2228c-.0619 0-.1232-.0213-.1728-.0634-.0853-.0731-.1163-.1915-.0768-.29763l.2827-.7488-.8971.51733c-.1141.0672-.2613.03893-.3435-.06613-.0816-.104-.0746-.25334.0171-.3488l.3888-.40587-.7536.43467c-.1141.06773-.2619.03893-.3445-.06774-.0816-.10506-.0731-.25546.0208-.34986l1.1888-1.208-1.8566 1.072c-.1205.0704-.2762.03466-.3536-.08054-.0784-.11573-.0549-.272.055-.35893l.8757-.696-1.2827.7408c-.12.0704-.2725.0352-.3514-.07787-.079-.11306-.0592-.26826.0464-.35733l2.3104-1.9456-3.0758 1.77547c-.1237.072-.2816.03253-.3584-.088-.0768-.12107-.0442-.28.0731-.36214l.5189-.35946-.7125.4112c-.1221.072-.2816.03253-.3584-.088-.0768-.12107-.0443-.28.0731-.36214l1.0149-.70346-1.1733.67733c-.12163.0704-.2779.03307-.35523-.08267-.07787-.11733-.05174-.27466.06026-.36l2.72217-2.07573-2.9691 1.71413c-.1216.0704-.27787.03414-.35573-.08373-.07787-.11733-.05067-.2752.06186-.36l2.27787-1.7136-2.35573 1.36c-.12427.072-.28107.03307-.35787-.08693-.07733-.12054-.04587-.27947.07093-.3616l.72747-.51414-.65707.37974c-.12106.07093-.27626.03413-.35466-.0816-.07787-.11627-.05334-.27307.05706-.35947l1.69817-1.3248-1.8011 1.03947c-.12213.07146-.2784.0336-.35573-.0832-.07787-.11787-.05067-.27574.06133-.36054l.66613-.5024-.8224.47467c-.12106.07093-.27786.03413-.3552-.08267-.07786-.1168-.05226-.27413.05974-.35946l.16373-.12534-.4208.24267c-.1136.06667-.2608.03893-.34347-.06613-.0816-.104-.07466-.25334.01707-.3488l.3968-.4144-.9696.56c-.128.0736-.2912.0304-.36427-.0976-.07413-.12747-.0304-.29067.0976-.36427l2.58827-1.494401c.11413-.0672.26133-.038933.34347.066134.0816.103997.07466.253337-.01707.348797l-.39627.41387 2.35257-1.358401c.121-.071466.2773-.0336.3552.082667.0778.116267.0522.274133-.0598.359467l-.1642.125866 1.0149-.586133c.1216-.072.2779-.034133.3557.0832.0779.117867.0507.275733-.0613.360533l-.6688.504531 1.3744-.793064c.1205-.070933.2763-.034133.3547.0816.0778.116267.0533.273067-.0571.359467l-1.6965 1.323197 2.4229-1.398397c.1227-.072.2811-.033067.3579.086933.0773.120534.0458.279464-.071.361604l-.7317.5168 1.0827-.62507c.121-.07147.2778-.03413.3557.08373.0779.11734.0507.2752-.0619.36l-2.2778 1.71307 2.7733-1.60107c.1205-.07146.2773-.0336.3552.08267.0779.11733.0517.27467-.0603.36l-2.7221 2.07573 3.1392-1.81173c.1237-.072.2821-.03307.3584.088.0768.12107.0443.28-.0731.36213l-1.0117.70134.7067-.408c.1221-.07254.2816-.03307.3584.088.0768.12106.0442.28-.0731.36213l-.5205.36053.1173-.0672c.1195-.0704.2725-.03466.3515.07787.0794.11307.0592.26827-.0464.35733l-2.3104 1.9456 1.7925-1.03466c.12-.07147.2757-.03467.3536.08053.0784.11573.0549.272-.0549.35893l-.8742.69494.4352-.25174c.1147-.06666.2624-.03786.3446.06774.0816.10506.073.25546-.0208.34986l-1.1888 1.20854.6698-.38667c.1142-.0672.2608-.0384.3435.06613.0816.104.0747.25334-.0171.3488l-.4064.42454c.0843-.02667.1798-.008.2496.05226.0859.07307.1168.19147.0774.2976l-.3424.90614c.0517.02186.097.05973.1269.112.0736.12746.0299.29066-.0981.3648l-.3494.20163c-.0416.0234-.0874.0352-.1333.0352z" fill="#59d373"/><path d="m12.2312 31.7136c-.0906 0-.1792-.0464-.2293-.1302-.0747-.1253-.0347-.2874.0896-.3637l.2859-.176-.975.5632c-.1253.0736-.2853.0315-.3616-.0923-.0752-.1237-.0373-.2853.0843-.3632l8.2992-5.3018-9.2635 5.3477c-.1269.0731-.2885.0309-.36263-.0949-.07467-.1254-.03414-.2875.09013-.3638l.7301-.4453-1.04583.6037c-.1264.0731-.28747.031-.36214-.0938-.0752-.1248-.03573-.2864.088-.3638l6.23097-3.8688-6.69283 3.8635c-.12587.0741-.28587.032-.3616-.0928-.0752-.1237-.0368-.2853.08533-.3632l10.2789-6.5173-10.89543 6.2901c-.12533.0736-.2864.0325-.36214-.0933-.0752-.1243-.03626-.2859.08694-.3638l9.90563-6.2234-10.37817 5.9914c-.12693.0736-.288.0315-.36213-.0938-.0752-.1248-.0352-.287.08853-.3638l7.67417-4.7466-7.96803 4.6005c-.12747.0736-.28854.0309-.36267-.0949-.07467-.1254-.03413-.288.09067-.3643l2.832-1.7211-2.96107 1.7094c-.12693.073-.288.0314-.36267-.0944-.07466-.1248-.03466-.287.08907-.3638l7.4533-4.5925-7.66396 4.4245c-.12747.0736-.28854.031-.3632-.0949-.07467-.1259-.03307-.288.09173-.3643l1.9296-1.169-1.99627 1.1525c-.12746.0736-.28853.0309-.3632-.0949-.07466-.1259-.03306-.288.09174-.3643l2.28266-1.384-2.3376 1.3493c-.12693.0736-.288.0315-.36266-.0944-.07467-.1258-.03467-.2874.08959-.3637l6.91577-4.2475-7.03096 4.0592c-.12694.0731-.28854.031-.3632-.0954-.07467-.1254-.03307-.288.09173-.3638l1.0288-.6218-1.02507.5914c-.1264.0731-.28746.031-.36213-.0938-.0752-.1243-.03573-.2864.08747-.3638l10.07306-6.2773-10.2176 5.8992c-.12693.0736-.288.0315-.36266-.0944-.07467-.1259-.03467-.2875.0896-.3637l6.51096-3.9958-6.53976 3.775c-.12694.073-.28694.0309-.36214-.0939s-.03573-.2864.088-.3637l9.0512-5.624-9.09973 5.2538c-.12693.0736-.28747.0315-.36213-.0938-.0752-.1243-.03574-.2864.08746-.3638l8.8907-5.5322-8.9019 5.1397c-.12693.0736-.28746.0315-.36213-.0939-.0752-.1248-.03573-.2864.088-.3637l7.98563-4.9605-7.9483 4.5888c-.12746.0736-.28853.0304-.36266-.095-.07467-.1253-.03414-.288.09066-.3637l1.86987-1.1381-1.74293 1.0058c-.12694.0736-.28854.031-.36267-.0949-.07467-.1253-.03413-.288.09067-.3637l1.05973-.6454-.91093.5259c-.12534.0731-.28587.032-.3616-.0928-.0752-.1243-.0368-.2859.08586-.3637l8.2128-5.1878-8.09333 4.6726c-.12693.0736-.288.0314-.36267-.0939-.07466-.1253-.03466-.2869.08907-.3643l3.1872-1.9701-2.9936 1.7285c-.12533.0726-.28533.0326-.36107-.0917-.07573-.1232-.0384-.2848.0832-.3632l5.3744-3.4629-5.15466 2.976c-.12534.072-.28374.032-.35947-.0896-.07627-.1222-.04213-.2822.07733-.3627l6.15147-4.1355-5.8656 3.3862c-.12533.072-.28373.032-.36-.0896-.07627-.1222-.04107-.2827.07787-.3627l5.00213-3.3525-4.59787 2.6549c-.12213.0731-.28106.0331-.35893-.088-.0768-.1211-.04373-.2805.07413-.3621l4.8352-3.3408-4.25386 2.4554c-.12534.072-.2832.032-.35947-.0896-.07627-.1221-.04213-.2816.07733-.3621l2.50773-1.6917-1.83946 1.0618c-.12213.071-.28107.0336-.35733-.0864-.07734-.1194-.04694-.2778.0688-.361l2.5072-1.7952-1.47787.8533c-.12107.0704-.2752.0341-.3536-.08-.0784-.1152-.05547-.2715.05387-.3589l1.63306-1.3083c-.06506-.0176-.1232-.06026-.15947-.1232-.07413-.12746-.03039-.29066.09761-.36426l2.4192-1.3968c.12053-.07094.27466-.03467.35359.08.0784.1152.05547.27146-.05386.35893l-1.2208.9776 3.16267-1.8256c.1216-.07253.27996-.0336.35736.0864.0773.11947.0469.27787-.0688.36107l-2.50883 1.79626 3.74183-2.16c.1243-.07306.2827-.03253.3595.0896.0763.12214.0421.2816-.0773.36214l-2.50883 1.69226 3.33123-1.92266c.1248-.07254.2826-.03254.3589.088.0768.12106.0437.28053-.0741.36213l-4.8331 3.33973 5.8091-3.3536c.1248-.07253.2832-.03253.36.0896.0762.12214.041.28267-.0779.36267l-5.00533 3.35413 5.71523-3.2992c.1248-.0736.2837-.03253.3594.0896.0763.12214.0422.28214-.0773.36267l-6.14826 4.13383 7.87256-4.54503c.1253-.07307.2853-.03253.361.09173.0758.1232.0384.2848-.0832.3632l-5.3749 3.4629 8.8757-5.1237c.1259-.07413.287-.032.3627.09387.0747.12533.0347.28693-.0891.36427l-3.1877 1.97013 4.3547-2.51413c.1264-.07254.2869-.03147.3616.0928.0752.12426.0368.28586-.0859.36373l-8.2133 5.18823 9.4576-5.46023c.1264-.07467.288-.03147.3626.09493.0747.12534.0342.288-.0906.36374l-1.056.64266 1.5386-.888c.1264-.07413.288-.03146.3627.09494.0747.12533.0341.288-.0907.36373l-1.8757 1.14187 2.2965-1.32534c.1259-.0736.287-.03146.3622.09387s.0357.2864-.088.36373l-7.9862 4.9611 8.5723-4.94883c.1264-.07413.2864-.032.3621.09387.0752.12426.0358.2864-.0874.36373l-8.8891 5.53123 9.3936-5.4235c.1259-.0736.2864-.03146.3621.09387.0752.1248.0358.2864-.088.36373l-9.0602 5.6299 9.4608-5.4619c.1258-.0736.2869-.032.3626.0944.0747.12534.0347.28747-.0896.3637l-6.4997 3.9888 6.7227-3.881c.1264-.0736.2864-.0315.3621.0938.0752.1243.0357.2864-.0875.3638l-10.0693 6.2746 10.3381-5.968c.127-.0741.288-.0314.3632.0955.0747.1253.0331.288-.0917.3637l-1.016.6139 1.0283-.5931c.1264-.0741.2874-.032.3626.0944.0747.1254.0347.2875-.0896.3638l-6.9242 4.2528 6.9882-4.0342c.1264-.0746.2875-.0314.3632.095.0747.1258.0331.288-.0917.3642l-2.2853 1.3856 2.24-1.2933c.1264-.0741.288-.0309.3632.0949.0746.1259.033.288-.0918.3643l-1.9328 1.1707 1.8528-1.0694c.1259-.0741.287-.032.3627.0944.0747.1248.0347.287-.0891.3638l-7.4554 4.5946 7.3925-4.2682c.1264-.0742.288-.031.3627.0949.0746.1259.0341.288-.0907.3643l-2.816 1.7114 2.6656-1.5392c.1259-.0741.2875-.032.3621.0939.0752.1248.0352.2869-.0885.3637l-7.6779 4.7488 7.5067-4.3338c.1259-.0726.2869-.032.3621.0933.0752.1243.0363.2859-.0869.3637l-9.9093 6.2262 9.6762-5.5867c.1264-.0731.2864-.032.3616.0928.0752.1237.0368.2853-.0853.3632l-10.2795 6.5179 9.9446-5.7414c.1264-.0741.2864-.032.3621.0939.0752.1248.0357.2864-.088.3637l-6.2251 3.8656 5.8475-3.376c.1259-.0741.288-.0314.3627.095.0746.1253.0341.2874-.0902.3637l-.7392.4507.3515-.2027c.1264-.0725.2859-.0315.3616.0923.0752.1237.0373.2853-.0843.3632l-8.297 5.3002 7.7328-4.464c.1258-.0736.2869-.032.3626.0944.0747.1254.0347.2875-.0896.3638l-.4389.2698c.1157-.0416.2507.0038.3168.1136.0752.1243.0368.2864-.0859.3638l-2.0624 1.2997 1.4907-.8603c.1243-.0736.2827-.0325.3595.0896.0762.1222.0421.2816-.0774.3622l-5.4298 3.6624 4.5338-2.6171c.1248-.072.2827-.0331.359.0885.0768.1216.0432.2811-.0752.3622l-4.4368 3.0394 3.3349-1.9248c.1221-.0714.2789-.033.3568.0848.0773.119.0485.2774-.0656.3611l-3.9184 2.8779 2.2128-1.2779c.1221-.0715.2789-.0331.3568.0853s.0485.2774-.0661.3611l-1.647 1.2c.0539.0213.1008.0603.1323.1147.0741.1274.0304.2906-.0976.3642l-3.3429 1.9302c-.1211.072-.279.033-.3568-.0854-.0779-.1184-.0486-.2773.0661-.361l.8773-.639-2.0688 1.1942c-.1216.072-.2789.0336-.3568-.0848-.0773-.119-.0485-.2774.0656-.3611l3.9179-2.8773-5.1296 2.9616c-.1243.0725-.2827.033-.3589-.0886-.0768-.1216-.0432-.281.0752-.3621l4.4362-3.0395-5.1509 2.9739c-.1253.0725-.2832.032-.3595-.0896-.0762-.1221-.0421-.2816.0774-.3621l5.4309-3.6635-6.8437 3.9509c-.1254.0742-.2859.032-.3616-.0928-.0752-.1242-.0368-.2864.0858-.3637l2.0678-1.3029-4.8811 2.8181c-.0421.0245-.088.0357-.1333.0357z" fill="#b4dda6"/><path d="m15.5937 10.8205c-.0752 0-.1488-.032-.201-.0917-.0838-.0965-.0875-.2384-.0091-.3392l.7237-.9264-.977.5643c-.1163.0688-.2683.0373-.3483-.07363-.0805-.10987-.0651-.26241.0352-.35414l.4645-.424-.1365.0784c-.1173.06934-.2699.03627-.3499-.0752-.0794-.11147-.0624-.26507.0406-.35573l.4186-.36854-.0357.02027c-.1189.0688-.2709.03573-.3504-.0768-.0795-.112-.0608-.26613.0432-.35627l.4453-.384-.024.01334c-.1173.06933-.2688.0368-.3493-.07467-.08-.1104-.0635-.264.0384-.3552l.9787-.87467-.4646.26827c-.12.0704-.2746.0352-.353-.07947-.0784-.11466-.056-.27093.0522-.3584l.6198-.50026-.0822.04746c-.1216.072-.2789.0336-.3568-.0848-.0773-.11893-.0485-.27733.0656-.36106l.4347-.31894c-.0683.00107-.1739-.03733-.2277-.11413-.079-.1136-.0582-.2688.048-.35733l1.8624-1.552-.8992.51893c-.1142.06667-.2619.03787-.344-.06667-.0816-.10506-.0736-.25493.0192-.34986l1.569-1.61334c-.048-.0224-.0901-.05866-.1184-.10826-.0741-.12747-.0304-.29067.0976-.364268l1.1275-.6512c.1141-.0672.2619-.0384.344.066666.0821.105067.0736.254934-.0192.349867l-1.2779 1.314135 1.9264-1.112002c.119-.069866.2731-.0352.352.077862.079.11307.0582.2688-.048.35734l-1.8634 1.55306 1.1813-.6816c.1221-.07093.2789-.0336.3568.0848.0773.11894.0485.27734-.0656.36107l-1.1301.8288c.0368.0192.0698.048.0949.08427.0784.1152.056.27093-.0523.3584l-.7594.6128c.1024-.00907.177.03306.2325.10986.08.1104.0635.264-.0384.3552l-.9803.87574.2368-.13654c.119-.06933.2715-.0352.3504.0768.0795.112.0608.26614-.0432.35627l-.4778.41173c.1056-.02933.2224.00854.289.1008.0795.11147.0624.26507-.0405.35574l-.4331.38133c.1094-.04053.2368-.00533.3083.0928.0805.10987.0651.2624-.0352.35413l-.4645.424.0352-.02026c.1098-.06454.2506-.04054.3344.05546.0837.096.0874.2384.009.3392l-.7237.92587.2848-.16427c.1275-.0752.2912-.03093.3643.0976.0741.12747.0304.29067-.0976.36427l-1.4742.85117c-.0416.0246-.0874.0358-.1333.0358z" fill="#633f45"/><path d="m2.51706 12.5741c-2.859729 7.1888 2.90774 21.5258 12.06774 18.5546 2.5296-1.7408 4.336 2.5472 8.5589-.4533 10.2566-5.8715 9.7632-28.34079-5.5274-22.50026.2842-2.024.9098-4.27893 2.5413-5.61973.872-.74134.4853-2.134402-.672-2.273602-1.2288-.103467-2.0267 1.066132-2.6965 1.931202-2.8091-2.988269-7.84484-2.1221358-10.70244.4032-.1728.15253-.0144.30933.16694.31093 2.38933.03253 2.21813 3.0336 3.7493 4.2464-3.32957.04373-6.29117 2.34293-7.48584 5.40056zm22.09284-4.23629c8.8549 4.57969 4.528 19.36529-3.4192 22.65919-1.5579.5573-3.0331-.2101-4.3878-.8955-2.9829-.2634-4.2224 2.5488-7.6869-.0229-9.551469-5.6539-9.006936-27.63253 5.4667-21.07466-.3963 2.68856 3.2928 2.40476 2.9578-.13867 2.1328-1.1904 4.7968-1.5088 7.0694-.52746zm-6.2486-7.04534c.3462-.466662 1.0139-.719463 1.3707-.12053.5627 1.24747-1.3952 1.88533-1.6848 3.04213-1.3131 1.54614-.8523 5.80743-1.8795 6.19093-2.2746-.90613.68-7.91466 2.1936-9.11253zm-9.15517 3.02187c-.3904-.984-1.16853-1.63947-2.1648-1.8096 2.7088-2.133866 7.00747-2.5247992 9.33707.3616-.9819 1.65227-1.4432 3.50507-1.7157 5.39627-1.0998-.57387-2.3238-.9424-3.567-1.056-.9669-.7664-1.4421-1.76534-1.88957-2.89227z" fill="#262626"/></svg>