<svg fill="none" height="44" viewBox="0 0 44 44" width="44" xmlns="http://www.w3.org/2000/svg"><path d="m10.3123 41.4185c-.0796-.0001-.1569-.0261-.2204-.0741-.0634-.048-.10959-.1153-.13145-.1918-.02185-.0765-.01824-.158.01031-.2323.02854-.0742.08044-.1372.14794-.1794l11.6248-7.2702-13.55129 7.8239c-.08372.0496-.18373.0639-.278.0398-.09427-.0242-.1751-.0848-.22469-.1685-.0496-.0837-.0639-.1837-.03977-.278.02414-.0943.08474-.1751.16847-.2247l2.89958-1.76-3.11225 1.7974c-.08319.0451-.1806.0563-.27186.0313-.09126-.0251-.1693-.0845-.21779-.1657-.04849-.0813-.06369-.1782-.04241-.2704s.07739-.1726.15659-.2244l9.14612-5.6181-9.18132 5.3013c-.08308.0466-.18101.059-.27306.0346-.09206-.0244-.17103-.0836-.22019-.1652-.04917-.0815-.06467-.179-.04324-.2718.02144-.0928.07814-.1736.15809-.2253l15.22102-9.5334-15.28335 8.8235c-.08354.0499-.18347.0646-.27781.0408s-.17537-.0841-.22526-.1677c-.04989-.0835-.06455-.1834-.04075-.2778.02379-.0943.08408-.1753.16762-.2252l12.10585-7.48-12.05965 6.96c-.08341.0454-.18115.0566-.27268.0314-.09152-.0253-.16968-.085-.21804-.1667-.04835-.0817-.06313-.179-.04123-.2714.02191-.0924.07879-.1726.15868-.2239l1.61334-.9754-1.44247.8331c-.08319.0451-.1806.0563-.27186.0313-.09126-.0251-.1693-.0845-.21779-.1657-.04849-.0813-.06369-.1782-.04241-.2704s.07739-.1726.15659-.2244l12.66682-7.8349-12.57295 7.26c-.08319.0451-.1806.0563-.27186.0312-.09126-.025-.1693-.0844-.21779-.1657-.04849-.0812-.06369-.1781-.04241-.2703s.07739-.1726.15659-.2244l10.86212-6.6836-10.72572 6.1966c-.08325.048-.18202.0614-.27505.0374-.09303-.0241-.17289-.0838-.22239-.1661-.0495-.0824-.06468-.1809-.04228-.2744.0224-.0934.08059-.1744.16205-.2253l16.38779-10.2777-16.26532 9.3903c-.08313.0458-.18078.0576-.27241.0329-.09164-.0248-.17011-.0841-.21893-.1654-.04881-.0814-.06417-.1786-.04283-.2711.02133-.0924.0777-.1731.15724-.2248l14.19805-8.822-14.04405 8.1062c-.08331.044-.18032.0541-.27094.0285-.09061-.0257-.16787-.0852-.21577-.1663s-.06276-.1775-.0415-.2693c.02125-.0917.077-.1718.15567-.2235l.36667-.22-.10193.0586c-.08308.0466-.18101.059-.27307.0346s-.17102-.0836-.22019-.1651c-.04916-.0816-.06466-.1791-.04323-.2719.02144-.0928.07813-.1736.15809-.2253l16.48895-10.3473-16.29169 9.4064c-.08329.047-.18162.0595-.27403.035-.09241-.0246-.17158-.0842-.22064-.1663-.04906-.082-.06414-.18-.042-.273.02213-.093.07971-.1737.16047-.2249l12.04569-7.4345-11.78389 6.8031c-.04145.0246-.08734.0407-.13504.0476-.0477.0068-.09628.0042-.14296-.0078-.04668-.0119-.09055-.033-.1291-.0619-.03856-.0289-.07104-.0651-.0956-.1066-.02455-.0414-.0407-.0873-.04753-.135-.00682-.0477-.00418-.0963.00777-.143.02414-.0942.08474-.1751.16846-.2247l5.36067-3.2574-5.06 2.9194c-.08335.0461-.18136.0579-.27328.033-.09193-.0249-.17056-.0846-.21925-.1665-.0487-.0818-.06363-.1794-.04164-.2721.02198-.0926.07916-.1731.15944-.2244l8.97085-5.5-8.65699 5.0006c-.08313.0458-.18078.0576-.27241.0329-.09163-.0248-.17011-.0841-.21892-.1654-.04882-.0814-.06417-.1786-.04284-.2711.02134-.0924.0777-.1731.15724-.2248l13.69642-8.517-13.37229 7.7198c-.08324.0445-.18045.0552-.27137.0298-.09092-.0253-.16855-.0848-.21674-.166-.04819-.0811-.06322-.1777-.04197-.2697.02126-.092.07717-.1722.15608-.224l6.80829-4.1565-6.45409 3.726c-.08325.048-.18202.0614-.27505.0374-.09303-.0241-.17289-.0838-.22239-.1661-.0495-.0824-.06468-.1809-.04228-.2744.0224-.0934.08059-.1744.16206-.2253l13.55715-8.4634-13.18095 7.6098c-.08293.0456-.18028.0573-.27169.0328-.0914-.0245-.16979-.0834-.21876-.1644s-.06473-.1778-.04398-.2701c.02074-.0923.07639-.1731.15529-.2253l13.48009-8.5155-13.06795 7.5453c-.08315.0504-.18294.0658-.27742.0427s-.17591-.0828-.22638-.1659c-.05047-.0832-.06585-.183-.04274-.2774.0231-.0945.08279-.176.16594-.2264l12.32435-7.8636-11.86822 6.8523c-.08335.0461-.18136.0579-.27328.033-.09193-.0249-.17056-.0846-.21925-.1664-.0487-.0819-.06363-.1795-.04164-.2721.02198-.0927.07917-.1732.15944-.2244l.38573-.2362c-.08457.0345-.17896.0361-.26469.0047-.08572-.0315-.15662-.0938-.19881-.1748s-.05264-.1748-.02931-.2631c.02334-.0883.07878-.1647.15548-.2143l9.81415-6.3477-9.29422 5.3665c-.08302.0474-.1813.0606-.27387.0366s-.17211-.0832-.22166-.1649c-.04955-.0818-.06519-.1797-.04358-.2729.0216-.0932.07875-.1742.15924-.2258l5.32034-3.3814-4.80847 2.7757c-.08259.0448-.17924.0562-.27.0318-.09076-.0243-.1687-.0826-.21773-.1628s-.0654-.1761-.04573-.268c.01966-.0919.07385-.1727.15139-.2258l5.0776-3.2729-4.52833 2.6136c-.08253.0455-.1794.0574-.27049.0333-.0911-.024-.16945-.0822-.21878-.1625s-.06587-.1765-.04618-.2686c.01968-.0921.07409-.1732.15192-.2263l4.26433-2.78076-3.66667 2.11566c-.08221.0449-.17849.0566-.26908.0328-.09058-.0239-.16861-.0815-.21805-.1611-.04944-.0795-.06656-.175-.04784-.2668s.07186-.1729.14851-.2268l3.66667-2.4427-3.06534 1.7688c-.08197.0477-.17923.0618-.27136.0393-.09214-.0225-.17197-.0798-.22275-.1599-.05077-.0801-.06854-.1768-.04956-.2697s.07322-.1749.15134-.2286l3.58746-2.48897-2.90326 1.67641c-.08185.04697-.17866.06057-.27028.03798-.09163-.02259-.17101-.07963-.22165-.15927-.05063-.07963-.06861-.17572-.0502-.26828.01842-.09255.0718-.17444.14906-.22863l1.65807-1.15501-.97974.56467c-.08105.04542-.17632.05838-.26656.03626-.09025-.02213-.16872-.07769-.21957-.15545-.05085-.07777-.07028-.17194-.05437-.26348.01592-.09154.06599-.17362.1401-.22966l1.3794-1.0186-.6424.36666c-.07966.04534-.17341.0592-.26278.03884-.08937-.02035-.16787-.07344-.22005-.1488-.05217-.07536-.07422-.16753-.06182-.25834.01241-.09082.05838-.17369.12885-.2323l.94527-.77146-.13347.077c-.07284.04296-.15829.05942-.24188.0466-.08359-.01283-.16017-.05415-.21678-.11698-.05661-.06282-.08977-.14328-.09385-.22775s.02116-.16775.07145-.23574l.92767-1.28333c-.05781-.03202-.10555-.07951-.13787-.13714-.02419-.04173-.03991-.08782-.04625-.13563-.00635-.04782-.0032-.09642.00927-.14301.01246-.0466.034-.09028.06337-.12853.02938-.03826.06601-.07035.10781-.09443l.86533-.49793c.07269-.0419.15755-.05761.24043-.0445.08287.01311.15874.05425.21494.11654.0562.0623.08934.14199.09389.22577.00454.08378-.01979.16658-.06892.23459l-.67321.93427 2.53879-1.46667c.0797-.04533.1734-.05919.2628-.03884.0894.02036.1679.07344.22.1488.0522.07536.0743.16753.0619.25835-.0124.09081-.0584.17369-.1289.23229l-.9467.77367 2.3862-1.37427c.0811-.04645.1769-.06018.2678-.03839s.17.07746.2212.15563c.0512.07818.0707.17296.0543.26497-.0163.09202-.0671.17434-.1421.23012l-1.3772 1.0142 2.8233-1.62653c.0817-.04523.1775-.05759.268-.03457s.1688.07968.2189.15844c.0502.07876.0684.17368.0509.2654-.0174.09173-.0692.17334-.1447.2282l-1.6625 1.15573 3.08-1.77687c.0818-.0457.178-.05836.2688-.03537.0909.02299.1694.07987.2197.15899.0502.07911.0682.17443.0503.26641s-.0703.17362-.1465.22817l-3.5838 2.48527 5.3776-3.1042c.0822-.04489.1785-.05661.2691-.03275.0906.02385.1686.08147.218.16104.0495.07956.0666.17503.0479.26681-.0188.09178-.0719.17292-.1486.22677l-3.6754 2.44713 5.3174-3.069c.0825-.04545.1794-.05739.2705-.03333.0911.02405.1694.08225.2188.16253.0493.08027.0658.17646.0461.2686s-.0741.17317-.1519.22627l-4.2614 2.7808 5.9004-3.4056c.0826-.04483.1793-.05624.27-.03187.0908.02437.1687.08266.2177.16284.0491.08017.0654.17611.0458.268-.0197.0919-.0739.17274-.1514.22583l-5.0644 3.267 6.7415-3.8918c.0829-.04632.1805-.0587.2723-.03452s.1707.08302.22.16415.0652.17822.0444.27085c-.0209.09262-.0768.17356-.1561.22578l-5.3401 3.39094 6.9608-4.01794c.0826-.04619.18-.0586.2716-.03464s.1704.08243.2199.16318.0658.1775.0455.27001c-.0203.0925-.0755.17358-.1542.22625l-9.8084 6.34774 12.0714-6.96667c.0834-.04608.1814-.05792.2733-.03302.092.0249.1706.0846.2193.16645s.0636.17944.0416.27211c-.022.09266-.0791.17314-.1594.22439l-.2816.17234 1.3933-.803c.0829-.04632.1805-.0587.2723-.03452s.1707.08302.22.16415.0652.17822.0444.27085c-.0209.09262-.0768.17356-.1561.22578l-12.3259 7.85617 14.7048-8.48903c.083-.04561.1803-.05738.2717-.03286s.1698.08344.2188.16442c.049.08099.0647.17777.044.27011-.0208.09233-.0764.17307-.1553.22533l-13.4824 8.51693 15.642-9.031c.0833-.05037.1831-.06561.2776-.04237s.1759.08306.2262.1663c.0504.08325.0657.18309.0424.27757-.0232.09448-.083.17586-.1663.22623l-13.5557 8.46197 13.9605-8.06083c.0836-.0497.1836-.06413.2779-.04013.0942.024.1751.08446.2248.16809.0497.08364.0641.18358.0401.27786-.024.09427-.0844.17515-.1681.22484l-6.8141 4.15947 6.7591-3.90207c.0833-.04692.1817-.05946.2741-.03493.0924.02452.1716.08417.2206.16623.0491.08206.0642.18003.042.27304-.0221.09301-.0797.1737-.1605.22486l-13.6957 8.51987 13.7089-7.91487c.0834-.04608.1814-.05792.2733-.03302.092.02491.1706.0846.2193.16645.0487.08186.0636.17944.0416.27211s-.0791.17314-.1594.2244l-8.9775 5.50003 8.8821-5.12823c.0838-.0496.1838-.0639.2781-.03976.0942.02413.1751.08473.2246.16846.0496.08373.0639.18373.0398.278-.0241.09428-.0847.1751-.1685.2247l-5.3533 3.25383 5.2067-3.0067c.0835-.04989.1834-.06455.2778-.04075.0943.02379.1754.08408.2252.16762.0499.08353.0646.18346.0408.27781-.0238.09434-.0841.17537-.1676.22525l-12.0392 7.43307 11.9314-6.89333c.0832-.04801.182-.06141.275-.03732.0931.02408.1729.08373.2224.1661s.0647.18088.0423.27433-.0806.17438-.1621.22536l-16.4934 10.35316 16.4076-9.4739c.0834-.0439.1804-.0541.271-.0284.0906.0256.1679.0852.2158.1663s.0627.1775.0415.2692c-.0213.0918-.077.1718-.1557.2236l-.3667.22.1276-.0734c.0833-.0469.1816-.0594.2741-.0349.0924.0245.1715.0842.2206.1662.0491.0821.0641.1801.042.2731s-.0797.1737-.1605.2248l-14.1959 8.8191 14.0382-8.1026c.0833-.048.1821-.0614.2751-.0373s.1729.0837.2224.1661.0647.1809.0423.2743c-.0224.0935-.0806.1744-.1621.2254l-16.3893 10.2762 16.2177-9.3625c.0831-.0438.1799-.054.2703-.0286.0904.0255.1676.0846.2157.1654.0481.0807.0633.1767.0426.2684-.0207.0916-.0758.1718-.1539.224l-10.8606 6.6799 10.6113-6.127c.0832-.0451.1806-.0563.2719-.0312.0912.025.1693.0844.2178.1657.0485.0812.0637.1781.0424.2703s-.0774.1726-.1566.2244l-12.6786 7.8423 12.416-7.1676c.0835-.0454.1812-.0566.2727-.0313.0915.0252.1697.085.2181.1667.0483.0817.0631.1789.0412.2713s-.0788.1727-.1587.224l-1.6023.968 1.2877-.7429c.0833-.0469.1816-.0595.274-.0349.0925.0245.1716.0841.2207.1662s.0641.18.042.273c-.0221.0931-.0797.1737-.1605.2249l-12.1 7.48 11.7942-6.809c.083-.045.1801-.0562.2712-.0313.091.0248.169.0838.2176.1647.0487.0808.0643.1774.0436.2694-.0207.0921-.0761.1727-.1547.2249l-15.2233 9.5334 14.8925-8.5976c.0832-.0451.1806-.0563.2719-.0313.0913.0251.1693.0844.2178.1657s.0637.1781.0424.2703c-.0213.0923-.0774.1727-.1566.2245l-9.152 5.621 8.7897-5.074c.0415-.0245.0874-.0407.1351-.0475s.0963-.0042.143.0078c.0466.0119.0905.033.1291.0619.0385.0289.071.0651.0955.1065.0246.0415.0408.0874.0476.1351s.0042.0963-.0078.1429c-.0119.0467-.033.0906-.0619.1291-.0289.0386-.0651.0711-.1066.0956l-2.8805 1.7468 2.5014-1.4395c.083-.045.1801-.0562.2712-.0313.091.0248.169.0838.2176.1647.0487.0809.0643.1774.0436.2694-.0207.0921-.0761.1727-.1547.2249l-11.6256 7.2666 11.22-6.4768c.0831-.0474.1813-.0605.2739-.0366.0926.024.1721.0832.2217.165.0495.0818.0652.1797.0436.2728-.0216.0932-.0788.1742-.1593.2258l-12.3933 7.9024 11.946-6.8933c.0831-.0465.181-.0589.273-.0346.0921.0244.1711.0836.2202.1652.0492.0815.0647.179.0433.2718-.0215.0928-.0782.1736-.1581.2253l-7.1742 4.4961 6.7137-3.8757c.0826-.0469.1802-.06.2722-.0364.0921.0236.1714.082.2212.1629.0498.081.0663.1781.0459.2709s-.076.1741-.1551.2267l-10.5189 6.8933 9.9785-5.761c.0822-.0462.1791-.0588.2705-.0353.0913.0235.1701.0812.22.1613s.0669.1763.0477.2686c-.0193.0924-.0734.1738-.1511.2272l-9.0816 6.075 8.4752-4.8928c.0829-.0508.1827-.0665.2772-.0438.0946.0228.1762.0822.2269.1651.0508.083.0665.1827.0438.2773-.0228.0945-.0822.1761-.1651.2269l-4.0664 2.6334 3.4841-2.0115c.0824-.0478.1801-.0616.2724-.0386.0924.023.1722.081.2226.1617.0504.0808.0674.178.0474.271-.02.0931-.0754.1748-.1544.2277l-4.7183 3.1695 4.0927-2.3621c.0817-.0463.1782-.0596.2694-.0369s.1702.0795.2207.1587.0687.1748.0508.2671c-.0179.0922-.0706.1741-.1471.2286l-4.0179 2.7969 3.33-1.9264c.0818-.0457.178-.0584.2689-.0354.0908.023.1694.0799.2196.159s.0682.1744.0503.2664c-.0178.092-.0702.1736-.1464.2282l-1.8517 1.2884 1.1733-.6776c.0815-.046.1774-.0591.2683-.0367.0908.0224.1696.0786.2203.1573.0507.0786.0694.1736.0524.2656-.0171.0919-.0687.1739-.1442.2291l-.9116.6519.22-.1246c.077-.0423.1665-.0556.2524-.0374.0859.0181.1624.0665.2157.1362.0532.0698.0797.1564.0746.244-.0052.0876-.0416.1705-.1027.2336l-1.9162 1.9162.8566-.495c.074-.0428.1607-.0584.2451-.044.0843.0144.1609.0578.2166.1227s.087.1473.0883.2328c.0014.0855-.0271.1688-.0807.2355l-.715.8881c.0318.0271.0588.0593.0799.0953.0241.0418.0397.0879.0459.1356.0062.0478.003.0963-.0095.1428-.0126.0465-.0341.0901-.0635.1283s-.066.0702-.1078.0942l-.8529.4928c-.0741.0432-.161.059-.2456.0447s-.1615-.0578-.2174-.123c-.0558-.0651-.087-.1478-.0881-.2336-.0012-.0858.0278-.1693.0818-.2359l.2933-.3593-1.5752.9071c-.0769.0423-.1664.0555-.2523.0374s-.1624-.0665-.2157-.1363c-.0532-.0697-.0797-.1563-.0746-.2439.0052-.0877.0416-.1705.1026-.2336l1.9148-1.9169-4.3201 2.4933c-.0814.046-.1774.0592-.2682.0368s-.1697-.0787-.2203-.1573c-.0507-.0786-.0695-.1736-.0524-.2656s.0687-.174.1442-.2292l.913-.6526-2.2 1.2679c-.0816.0442-.177.0559-.2669.0325-.0898-.0233-.1675-.0799-.2173-.1582-.0498-.0784-.068-.1727-.051-.264.0171-.0913.0681-.1727.1428-.2278l1.8495-1.287-3.3 1.9067c-.0817.0452-.1775.0576-.268.0346s-.1688-.0797-.2189-.1585c-.0502-.0787-.0684-.1736-.0509-.2654.0174-.0917.0692-.1733.1447-.2282l4.0173-2.7969-5.9144 3.4166c-.0821.0455-.1786.0578-.2695.0342-.091-.0235-.1694-.0811-.2191-.1607-.0498-.0797-.0671-.1754-.0483-.2674.0187-.092.072-.1734.149-.2272l4.719-3.171-6.5678 3.7921c-.0825.0448-.1792.0562-.27.0319-.0907-.0244-.1687-.0827-.2177-.1629-.049-.0801-.0654-.1761-.0457-.268.0196-.0919.0738-.1727.1514-.2258l4.0619-2.6312-5.6415 3.2567c-.0821.0444-.1781.0558-.2683.032-.0902-.0239-.1679-.0813-.2173-.1605s-.0667-.1743-.0484-.2658.0708-.1726.1468-.2268l9.0808-6.0786-11.6072 6.7005c-.0824.0461-.1795.0586-.271.0349s-.1702-.0819-.2199-.1623-.0664-.1768-.0466-.2692c.0197-.0924.0744-.1737.1525-.2268l10.5168-6.8933-13.0218 7.5174c-.083.045-.1801.0562-.2712.0313-.091-.0248-.169-.0838-.2177-.1647-.0486-.0808-.0642-.1774-.0435-.2694.0207-.0921.0761-.1727.1547-.2249l7.1757-4.4976-8.8792 5.126c-.0828.0449-.1797.0562-.2706.0316s-.1688-.0833-.2176-.1638c-.0489-.0805-.0648-.1767-.0447-.2687.0202-.092.075-.1726.153-.2253l12.3933-7.9017-14.7715 8.5287c-.0557.0324-.1189.0496-.1833.0498z" fill="#9b5d49"/><g fill="#6b4540"><path d="m9.96242 4.01232c-.06926.00013-.13713-.01937-.19577-.05622s-.10564-.08955-.13556-.15201c-.02993-.06246-.04155-.13211-.03353-.2009s.03536-.1339.07886-.1878l1.09558-1.35813-3.29192 1.903c-.07963.04458-.17303.05785-.26193.03724-.08891-.02062-.16693-.07365-.21881-.14873-.05189-.07508-.07391-.16681-.06177-.25726.01215-.09045.05759-.17312.12745-.23185l.0484-.04034-.2684.15474c-.07152.04132-.15489.05728-.23662.0453-.08172-.01198-.157-.0512-.21365-.1113-.05673-.06019-.09144-.13779-.09849-.2202-.00706-.08241.01396-.16478.05962-.23374l.89174-1.3508c-.07996-.0303-.14721-.08695-.19067-.1606-.02416-.04177-.03983-.0879-.04613-.13575-.00629-.04784-.00308-.09646.00946-.14306s.03415-.09027.06359-.1285c.02945-.038229.06616-.070271.10801-.094286l.87487-.500867c.07164-.041623.15526-.057759.23724-.045777s.15748.051374.21421.111759c.05673.060384.09133.138199.09817.220767.00685.082567-.01448.165018-.06049.233918l-.73333 1.099996 2.81085-1.620663c.0797-.044579.173-.057858.262-.037241.0889.020617.1669.073648.2188.148727.0518.075079.0739.166809.0617.25726-.0121.090452-.0576.173123-.1274.231857l-.0411.03446 1.1022-.635063c.0741-.042367.1606-.057584.2446-.04303.0841.014553.1605.057966.216.122761s.0866.146916.0881.23222c.0015.085303-.0268.168448-.0801.235116l-1.0956 1.359596 3.3015-1.906663c.0762-.043595.1655-.058387.2518-.041687.0862.0167.1635.063783.2179.132687.0545.068905.0824.155056.0787.242788-.0038.087731-.0388.171218-.0989.235275l-1.0068 1.05894 2.827-1.628003c.0757-.043568.1646-.058629.2505-.042467s.1632.062483.218.130612c.0547.068129.0834.153583.0807.240956s-.0365.170915-.0953.235562l-1.0391 1.13227 2.9443-1.696933c.0761-.043585.1654-.058418.2515-.041806.0862.016611.1635.063566.218.132339s.0825.154805.079.242474c-.0035.08767-.0384.171165-.0982.235326l-1.0113 1.07287 2.8468-1.641203c.0732-.041778.1586-.057049.2417-.043242.0832.013807.1591.055849.2149.119046.0558.063198.0881.14369.0915.227923.0034.084234-.0224.167063-.0729.23454l-1.0927 1.441736 3.4372-1.980003c.0754-.043125.1636-.058075.249-.042186.0854.015888.1624.061583.2173.128942.0548.06736.084.152007.0823.23886-.0018.086852-.0343.170268-.0918.235387l-1.0596 1.1858 3.0301-1.746803c.079-.045391.172-.059747.261-.04027s.1676.071391.2204.145628c.0528.074236.0761.165477.0654.255945-.0108.090468-.0549.173683-.1237.23343l-.4143.35713 1.6507-.951863c.0791-.044832.172-.058702.2607-.038921s.1669.071804.2194.145978.0756.165213.0649.255457c-.0108.090245-.0548.173263-.1233.232949l-.3579.30654 1.5635-.902003c.0747-.042891.1621-.058119.2469-.043013s.1616.059582.2168.125627c.0553.066046.0856.149447.0855.235578 0 .086132-.0304.169496-.0857.235475l-1.0868 1.288466 3.1951-1.842133c.0728-.042227.1578-.058148.2409-.045094.0831.013055.1592.054292.2155.116794.0564.062501.0895.142466.0938.226482.0044.084015-.0203.166971-.0699.234951l-1.0868 1.48793 3.5061-2.021063c.0731-.041839.1585-.057201.2416-.0435.0832.0137.1591.055627.2149.118724.0559.063097.0883.143512.0919.227713.0035.0842-.0221.167047-.0725.234596l-1.0919 1.45127 1.6273-.94014c.0616-.03583.1324-.0529.2037-.0491.0712.0038.1398.02829.1973.07048s.1015.10024.1265.16704.03.13945.0144.20905l-.2303 1.02667.132-.07334c.0417-.02445.0879-.04041.1358-.04697.0479-.00655.0966-.00356.1434.0088.0467.01236.0906.03385.129.06322.0384.02938.0706.06606.0948.10793.0242.04188.0398.08813.0461.13608.0062.04795.0029.09666-.0098.14333s-.0344.09037-.0641.12858c-.0296.03822-.0665.0702-.1085.0941l-.8587.48547c-.0617.03561-.1324.05249-.2035.04858s-.1395-.02843-.1969-.07059c-.0574-.04215-.1013-.1001-.1263-.16677-.025-.06668-.0301-.13919-.0145-.20869l.2295-1.02227-2.4567 1.41974c-.0731.04223-.1587.05791-.242.04438-.0834-.01354-.1596-.05545-.2156-.11866-.0561-.06321-.0886-.14383-.0921-.22824-.0034-.08441.0224-.16743.0731-.23502l1.0919-1.45273-3.4481 1.99027c-.0728.04183-.1577.05744-.2406.04422s-.1587-.05447-.2148-.11686c-.0562-.06239-.0892-.14215-.0936-.22596s.0201-.1666.0694-.23454l1.086-1.4894-3.5053 2.02254c-.0747.04334-.1623.05892-.2474.044s-.1621-.05939-.2176-.12558c-.0555-.06618-.0858-.14982-.0857-.23619.0001-.08636.0308-.1699.0865-.2359l1.0875-1.29067-3.1966 1.84434c-.079.04483-.1719.0587-.2606.03892-.0888-.01978-.167-.07181-.2195-.14598s-.0756-.16521-.0648-.25546c.0108-.09024.0547-.17326.1233-.23295l.3578-.30653-1.5627.902c-.079.04614-.1724.06107-.2619.04186s-.1685-.07117-.2216-.14569c-.0531-.07451-.0764-.16618-.0654-.25702.011-.09083.0556-.17425.125-.23389l.4151-.3586-1.6507.95334c-.0755.04312-.1637.05807-.2491.04218s-.1624-.06158-.2173-.12894c-.0548-.06736-.084-.15201-.0823-.23886.0018-.08685.0343-.17027.0918-.23538l1.0589-1.18507-3.0294 1.74607c-.0732.04178-.1586.05705-.2417.04324-.0832-.01381-.1591-.05585-.2149-.11905-.0558-.06319-.0881-.14369-.0915-.22792s.0224-.16706.0729-.23454l1.0927-1.44173-3.4364 1.98c-.0762.0441-.1657.05933-.2521.04292-.0865-.01641-.1642-.06338-.2189-.13231-.0547-.06894-.0828-.15526-.0791-.24319s.0388-.17161.0991-.23576l1.012-1.07506-2.8483 1.6434c-.0758.04357-.1646.05863-.2505.04246-.0859-.01616-.1632-.06248-.218-.13061s-.0834-.15358-.0807-.24095c.0026-.08738.0364-.17092.0953-.23557l1.0391-1.13373-2.9436 1.6984c-.0762.04411-.1658.0593-.2523.04281-.0865-.0165-.1642-.06359-.2189-.13267-.0546-.06907-.0826-.1555-.0787-.2435.0038-.08799.0392-.17166.0997-.23571l1.0039-1.05967-2.8233 1.62874c-.0554.03354-.1187.05153-.18338.05206z"/><path d="m9.95631 13.5445c-.07544 0-.14904-.0233-.21077-.0667-.06173-.0433-.10857-.1047-.13416-.1757-.02558-.0709-.02864-.1481-.00878-.2208.01986-.0728.06169-.1377.11978-.1858l.14666-.124-1.254.7231c-.07691.0443-.16731.0593-.2544.042-.08709-.0172-.16496-.0655-.21916-.1358s-.08104-.1579-.07554-.2466c.0055-.0886.04296-.1722.10544-.2353l.9328-.9386-2.62167 1.5128c-.07748.046-.16917.0618-.25756.0445-.0884-.0174-.16733-.0666-.22172-.1384-.0544-.0718-.08046-.1612-.07321-.2509.00724-.0898.04729-.1738.11249-.236l.85067-.822-2.07314 1.1975c-.07811.046-.17052.0615-.25937.0434-.08884-.0181-.16783-.0685-.22171-.1414s-.07882-.1633-.07002-.2535c.00881-.0902.05074-.174.1177-.2352l.51847-.4825-.2112.1217c-.07175.0411-.15529.0568-.23705.0444-.08175-.0124-.15693-.052-.21333-.1125-.05639-.0604-.09069-.1382-.09733-.2206-.00663-.0824.01478-.1647.06078-.2334l.473-.7018c-.06191-.0273-.11506-.0712-.15355-.1269-.0385-.0556-.06085-.1208-.06457-.1884s.01133-.1349.04349-.1944c.03215-.0595.08016-.109.13869-.143l.8558-.49057c.07176-.04109.15529-.05672.23705-.04436s.15694.052.21333.11243c.0564.0605.0907.1383.09733.2207.00664.0824-.01478.1647-.06077.2334l-.28234.4187 1.62874-.94087c.07811-.04603.17052-.06149.25937-.04339.08884.0181.16783.06848.22171.14146.05388.0729.07882.1632.07002.2534-.00881.0903-.05074.1741-.1177.2352l-.51847.4833 1.85093-1.06997c.07748-.04498.16873-.06004.25655-.04234s.16612.06693.22012.13841c.05395.0715.07986.1603.07284.2496-.00703.0893-.0465.1729-.11097.2351l-.85067.8243 2.43389-1.40507c.077-.04434.1674-.05927.2544-.04202.0871.01726.165.06553.2192.13589.0542.0703.081.1579.0755.2465s-.0429.1722-.1054.2353l-.9313.9372 2.6231-1.51287c.0795-.04494.1729-.05862.2619-.03834.089.02027.1673.07301.2195.14791.0522.075.0745.1667.0627.2572-.0119.0905-.0571.1734-.1268.2324l-.1467.1232 1.2518-.72237c.079-.04614.1724-.06107.2619-.04186s.1685.07113.2216.14573c.0531.0745.0764.1661.0654.257-.011.0908-.0556.1742-.125.2339l-.4129.3556 1.6471-.9533c.0763-.04361.1657-.05836.252-.04157.0862.01679.1636.064.218.13307.0543.069.0821.1553.0782.2431s-.0392.1712-.0994.2352l-.9996 1.0516 2.8087-1.61847c.0731-.0423.1586-.05806.2419-.04464.0834.01343.1596.05523.2157.11831.0562.0631.0888.1437.0924.2281.0036.0843-.022.1674-.0726.235l-1.0927 1.4557 3.4533-1.99247c.0756-.04309.1641-.05787.2497-.0417.0855.01617.1625.06223.2171.12997.0547.0677.0835.1527.0813.2397s-.0354.1704-.0934.2352l-1.0465 1.1528 2.9766-1.71597c.0734-.0431.1594-.05935.2434-.04598.0841.01338.1608.05556.2171.11935.0561.0645.0879.1465.0899.2319s-.0259.1689-.0789.2359l-1.1 1.3853 3.3492-1.92647c.0791-.04498.1722-.05892.261-.03909.0889.01984.1672.07206.2197.14636.0525.0744.0755.1656.0644.256-.011.0904-.0553.1734-.1242.2329l-.3205.2728 1.5063-.86897c.0773-.04458.1682-.05944.2557-.04179s.1655.06659.2195.13766c.054.0711.0802.1594.0737.2484s-.0452.1726-.1089.2351l-.88.858 2.4933-1.43737c.0752-.04319.1632-.05838.2484-.04287.0853.01551.1623.06071.2174.12754.0551.0669.0847.1512.0836.2378-.001.0867-.0328.1701-.0896.2356l-1.0721 1.2261 3.0939-1.78417c.077-.04227.1665-.05554.2524-.03739.0859.01814.1624.06646.2157.13626.0532.0698.0797.1563.0746.244-.0052.0876-.0416.1705-.1027.2335l-.9181.9174 2.5901-1.49377c.0755-.04311.1639-.058.2493-.04202.0855.01598.1624.0618.2172.12929.0548.0675.0839.1522.082.2391s-.0346.1703-.0923.2354l-1.0546 1.1733 3.0111-1.73507c.0788-.04509.1716-.05933.2603-.03995.0887.01937.1671.07102.22.14482.0528.0738.0764.1647.0661.2549s-.0537.1734-.1218.2335l-.4759.4158 1.4945-.8624c.0735-.0419.1593-.0572.2427-.0431.0834.014.1595.0565.2151.1203.0557.0637.0877.1447.0904.2293.0028.0846-.0238.1675-.0752.2347l-.9812 1.2731.9805-.5662c.0677-.0387.146-.0548.2235-.0459.0776.0089.1502.0422.2075.0952.0572.053.0961.1229.1109.1995s.0048.1559-.0286.2264l-.231.4818c.0699-.0055.1399.0087.2023.0408.0623.0321.1144.081.1504.1411.0241.0417.0397.0878.0459.1356s.003.0963-.0095.1428c-.0126.0465-.0341.0901-.0635.1283-.0294.0381-.066.0702-.1078.0942l-.8492.4898c-.0678.0389-.1462.0551-.2239.0462-.0777-.0088-.1504-.0422-.2078-.0954-.0573-.0531-.0961-.1232-.1108-.1999-.0147-.0768-.0045-.1563.0292-.2268l.2046-.4275-1.5642.899c-.0735.042-.1593.0572-.2427.0431-.0835-.014-.1595-.0565-.2152-.1202-.0556-.0637-.0876-.1448-.0903-.2293-.0028-.0846.0238-.1675.0752-.2348l.9819-1.273-3.1445 1.8142c-.0788.0451-.1716.0594-.2603.04s-.1671-.071-.22-.1448c-.0528-.0739-.0764-.1647-.0661-.2549.0103-.0903.0537-.1735.1218-.2335l.4759-.4151-1.7475 1.0083c-.0755.0431-.1638.058-.2493.0421-.0854-.016-.1624-.0618-.2172-.1293s-.0839-.1523-.082-.2392.0347-.1703.0923-.2353l1.0546-1.1733-3.0067 1.7372c-.0769.0423-.1665.0556-.2523.0374-.0859-.0181-.1625-.0665-.2157-.1362-.0533-.0698-.0797-.1564-.0746-.244s.0416-.1705.1026-.2336l.9189-.9181-2.596 1.4923c-.0751.0432-.1631.0584-.2484.0429s-.1623-.0607-.2174-.1276-.0847-.1511-.0836-.2377c.0011-.0867.0328-.1702.0896-.2356l1.0721-1.2262-3.0925 1.7842c-.0773.0446-.1682.0595-.2556.0418-.0875-.0176-.1656-.0666-.2195-.1376-.054-.0711-.0802-.1594-.0737-.2484.0064-.089.0452-.1726.1088-.2351l.88-.858-2.4933 1.4373c-.0791.045-.1722.059-.261.0391-.0889-.0198-.1672-.072-.2197-.1464-.0525-.0743-.0755-.1656-.0644-.2559.011-.0904.0553-.1734.1242-.233l.3219-.2735-1.5085.8697c-.0738.043-.1603.0588-.2446.0447s-.161-.0571-.2169-.1217-.0875-.1467-.0893-.2321.0262-.1688.0793-.2357l1.1-1.3853-3.3484 1.9301c-.0756.0431-.1641.0579-.2496.0417-.0856-.0161-.1625-.0622-.2172-.1299s-.0835-.1527-.0813-.2397c.0023-.087.0354-.1704.0934-.2353l1.048-1.1535-2.9788 1.7167c-.0731.0419-.1584.0574-.2415.0438-.0832-.0136-.1591-.0554-.2151-.1184-.0559-.063-.0884-.1433-.0921-.2275s.0218-.167.072-.2347l1.0919-1.4556-3.4532 1.9924c-.0763.0436-.1657.0584-.252.0416s-.1636-.064-.218-.133c-.0544-.0691-.0822-.1553-.0783-.2431s.0392-.1713.0995-.2353l.9988-1.0516-2.8087 1.6214c-.079.0454-.1721.0598-.2611.0403s-.1675-.0714-.2203-.1456c-.0528-.0743-.0761-.1655-.0654-.256.0108-.0904.0549-.1737.1237-.2334l.4121-.3557-1.6471.9534c-.0557.0321-.119.0488-.18329.0484z"/><path d="m32.6708 43.6116c-.0747-.0001-.1477-.023-.209-.0656-.0614-.0427-.1083-.1031-.1344-.1731-.0261-.0701-.0301-.1464-.0116-.2188s.0587-.1375.1152-.1864l.4342-.3769-1.6867.9709c-.0749.0424-.1623.057-.2469.0415-.0846-.0156-.1611-.0605-.216-.1267-.0549-.0663-.0847-.1497-.0843-.2358.0004-.086.0311-.1691.0867-.2349l1.0794-1.2576-3.1386 1.812c-.0782.0468-.1709.0628-.2602.045-.0893-.0179-.1687-.0683-.2229-.1415-.0541-.0732-.0791-.1639-.0701-.2545s.0515-.1746.119-.2356l.759-.7099-2.2447 1.2965c-.0728.0415-.1575.0568-.2401.0434-.0827-.0134-.1583-.0546-.2142-.1169-.056-.0623-.0889-.1419-.0934-.2255s.0198-.1662.0688-.2341l1.0861-1.4872-3.4995 2.0203c-.0764.0442-.1661.0593-.2527.0426-.0867-.0166-.1644-.064-.2189-.1333-.0546-.0694-.0823-.156-.0781-.2442.0042-.0881.04-.1717.1009-.2356l.9893-1.0311-2.7764 1.6016c-.0746.0432-.162.0587-.2469.0438s-.1618-.0592-.2173-.1252-.0859-.1495-.0859-.2357c0-.0863.0304-.1697.0859-.2358l1.0883-1.2995-3.2106 1.8524c-.0786.0449-.1711.059-.2595.0398-.0885-.0193-.1667-.0706-.2196-.1441s-.0767-.1639-.067-.2539c.0098-.09.0526-.1732.1201-.2336l.5294-.4671-1.8355 1.0589c-.0789.0446-.1715.0584-.2599.0387-.0885-.0197-.1665-.0714-.219-.1452-.0526-.0738-.076-.1644-.0657-.2544s.0536-.1731.1215-.2331l.4187-.3622-1.6581.9533c-.0795.045-.1729.0586-.2619.0384-.089-.0203-.1673-.0731-.2195-.148-.0521-.0749-.0745-.1666-.0626-.2572.0118-.0905.057-.1734.1268-.2323l.1554-.1291-1.2628.7282c-.0789.0456-.1719.0602-.261.041-.0891-.0193-.1678-.071-.2208-.1451-.0531-.0744-.0765-.1659-.0657-.2567.0109-.0907.0552-.1742.1244-.2339l.4114-.355-1.6449.9534c-.0747.0428-.1622.058-.247.0428-.0849-.0152-.1616-.0598-.2168-.126-.0553-.0661-.0854-.1496-.0852-.2358s.0307-.1695.0863-.2354l1.0824-1.2702-3.16142 1.8238c-.07765.0476-.1702.0645-.25965.0475-.08944-.0169-.16939-.0665-.22427-.1391-.05489-.0727-.08079-.1631-.07267-.2538s.04968-.1751.1166-.2368l.82431-.7898-2.29318 1.32c-.07477.0433-.16244.0588-.24754.0438-.08509-.015-.16215-.0596-.21757-.1259s-.08565-.1501-.08535-.2365.03111-.1699.08699-.2358l1.04573-1.2269-1.30973.7553c-.06199.0357-.13306.0525-.20445.0482-.07139-.0042-.13999-.0292-.19735-.0719s-.10098-.1013-.12549-.1684c-.02451-.0672-.02883-.1401-.01244-.2097l.23173-.982-.121.0697c-.08417.0479-.18385.0605-.2773.0351-.09344-.0254-.17305-.0867-.22147-.1705-.04841-.0839-.06169-.1835-.03694-.2771s.08552-.1736.16905-.2226l.85873-.4928c.06199-.0356.13306-.0524.20445-.0481.07139.0042.13999.0292.19735.0719s.10098.1012.12549.1684.02883.1401.01244.2097l-.23173.9812 2.39578-1.3831c.0748-.0433.1625-.0588.2476-.0438.085.0151.1621.0597.2175.1259.0554.0663.0857.1501.0854.2365s-.0311.1699-.087.2358l-1.04062 1.2313 3.09392-1.7857c.0777-.0475.1702-.0644.2597-.0475.0894.017.1694.0666.2242.1392.0549.0727.0808.1631.0727.2538s-.0497.1751-.1166.2368l-.8279.7891 2.3789-1.3714c.0748-.0428.1623-.058.2471-.0428s.1616.0598.2168.126.0854.1496.0851.2358c-.0002.0862-.0307.1695-.0862.2354l-1.0832 1.2702 3.1622-1.8246c.0789-.0453.172-.0597.261-.0402s.1676.0714.2204.1456.0761.1655.0653.2559c-.0108.0905-.0548.1737-.1236.2335l-.4121.3556 1.647-.9533c.0795-.0449.1729-.0586.2619-.0383.089.0202.1673.073.2195.1479.0522.075.0745.1667.0627.2572-.0119.0905-.0571.1734-.1268.2323l-.1547.1284 1.2613-.7275c.0789-.0445.1715-.0583.2599-.0386.0884.0196.1665.0714.219.1452.0526.0737.076.1644.0657.2544s-.0536.173-.1215.233l-.4202.363 1.6596-.9533c.0786-.0448.1711-.059.2595-.0397.0885.0192.1667.0705.2196.144s.0767.1639.0669.2539-.0525.1732-.12.2336l-.528.4664 1.8333-1.0582c.0747-.0429.162-.0582.2468-.0432s.1615.0593.2169.1253c.0553.0659.0857.1492.0858.2353s-.0301.1694-.0852.2355l-1.0883 1.2995 3.2105-1.8532c.0764-.0436.1659-.0583.2522-.0414s.1637.0642.218.1334c.0544.0691.082.1555.0779.2434-.004.0879-.0395.1713-.1.2352l-.9885 1.031 2.7764-1.6016c.0727-.0414.1574-.0567.2401-.0433.0826.0134.1582.0546.2142.1169.0559.0623.0889.1419.0933.2255.0045.0836-.0198.1662-.0688.2341l-1.086 1.4872 3.4994-2.0204c.0781-.0467.1709-.0627.2602-.0449.0892.0179.1687.0683.2228.1415.0542.0732.0792.1639.0702.2545-.0091.0906-.0515.1746-.119.2356l-.7576.7084 2.2433-1.2951c.0749-.0428.1625-.0578.2474-.0424s.1616.0603.2167.1266c.0551.0664.085.1501.0845.2364s-.0315.1696-.0873.2353l-1.0795 1.2555 3.1423-1.8114c.0789-.0445.1715-.0583.2599-.0386.0885.0197.1665.0714.219.1452.0526.0738.076.1644.0657.2544s-.0536.173-.1214.233l-.4349.3777 1.2239-.7077c.0717-.0415.1554-.0575.2373-.0454.082.0121.1575.0516.2141.112.0567.0605.0912.1384.0979.221s-.0147.165-.0609.2338l-.8917 1.3288c.0859-.0263.1784-.0201.26.0173.0817.0374.1468.1035.183.1857.0361.0822.0409.1748.0133.2602-.0276.0855-.0856.1579-.163.2034l-1.2833.7392c-.0717.0416-.1554.0576-.2373.0455-.082-.0121-.1575-.0516-.2141-.1121-.0567-.0604-.0912-.1383-.0979-.2209s.0148-.165.0609-.2339l.88-1.3148-3.1783 1.8362c-.0552.0331-.1182.0508-.1826.0514z"/><path d="m21.9217 34.0789c-.0755.0002-.1492-.023-.2111-.0663-.0618-.0433-.1088-.1047-.1345-.1757-.0256-.071-.0288-.1482-.0089-.221.0198-.0729.0617-.1378.1198-.186l.1577-.1305-1.2658.7333c-.0787.0443-.171.058-.2591.0384-.0882-.0195-.1661-.0709-.2187-.1444-.0526-.0734-.0763-.1636-.0664-.2534.0098-.0898.0524-.1728.1196-.2331l.4818-.4209-1.76 1.0134c-.0754.0431-.1638.058-.2492.042-.0855-.0159-.1625-.0618-.2172-.1292-.0548-.0675-.0839-.1523-.082-.2392s.0346-.1703.0923-.2353l1.056-1.177-3.0118 1.7336c-.0755.0431-.164.0579-.2494.0419-.0855-.0161-.1625-.0621-.2172-.1297-.0548-.0676-.0837-.1524-.0816-.2394.002-.0869.0349-.1703.0928-.2353l1.0501-1.1616-2.9883 1.7241c-.0728.0418-.1578.0573-.2406.044-.0829-.0134-.1587-.0547-.2148-.1172-.056-.0625-.0889-.1424-.0932-.2262s.0203-.1666.0697-.2345l1.0883-1.4813-3.4914 2.0152c-.0767.0443-.1669.0592-.2539.0421-.087-.017-.1648-.065-.2191-.1351-.0543-.07-.0814-.1573-.0762-.2458.0051-.0885.0421-.1721.1041-.2354l.9467-.9607-2.66052 1.5349c-.07809.0447-.16989.0591-.25794.0406-.08804-.0186-.16618-.0689-.21953-.1414s-.07819-.162-.0698-.2516c.0084-.0896.04945-.173.11534-.2343l.7238-.671-2.17874 1.2577c-.07813.0483-.17156.0656-.2618.0483-.09023-.0173-.1707-.0678-.22547-.1416-.05477-.0737-.07985-.1654-.07028-.2567.00957-.0914.05309-.1759.12195-.2367l.80667-.7678-2.178 1.2562c-.07392.0425-.16032.0579-.24435.0435-.08403-.0143-.16043-.0575-.21607-.1221s-.08704-.1465-.0888-.2317c-.00176-.0853.02623-.1685.07915-.2353l1.02007-1.2833-1.0824.6255c-.06636.0376-.14279.0536-.21865.0457s-.14737-.0392-.20458-.0896c-.05722-.0505-.09728-.1175-.11461-.1918-.01733-.0742-.01107-.1521.01791-.2226l.2596-.5962c-.08543.0192-.1749.0071-.25223-.0339-.07732-.0411-.13741-.1084-.16939-.1899s-.03374-.1718-.00497-.2545.08619-.1523.16185-.1964l.84994-.4891c.06674-.0385.1439-.055.22055-.0472.07664.0079.14887.0397.20642.0909s.09751.1193.1142.1945c.01668.0752.00925.1538-.02124.2245l-.2486.5713 1.79227-1.034c.07391-.0425.16032-.0578.24434-.0435.08403.0144.16044.0575.21608.1221s.08704.1465.0888.2318c.00176.0852-.02623.1684-.07916.2352l-1.02006 1.2833 3.168-1.8289c.07813-.0492.17195-.0671.26275-.0502.0907.017.1718.0675.2269.1416s.0802.1663.0703.2581c-.0098.0918-.054.1765-.1236.2372l-.80669.7685 2.34669-1.3515c.0781-.0454.1702-.0603.2586-.042.0885.0184.167.0687.2206.1414s.0785.1626.0699.2525-.05.1735-.1165.2347l-.7238.671 2.178-1.2569c.0768-.0437.1668-.0583.2534-.041s.1641.0653.2181.1352c.0541.0698.0811.1568.0762.245-.005.0882-.0417.1717-.1033.235l-.9467.9607 2.6554-1.5393c.0728-.0418.1578-.0573.2407-.044.0828.0134.1586.0547.2147.1172s.089.1423.0932.2262c.0043.0838-.0203.1666-.0697.2345l-1.0876 1.4813 3.4914-2.0152c.0756-.0431.164-.0579.2495-.0419.0855.0161.1625.062.2172.1297.0547.0676.0837.1524.0816.2394-.0021.0869-.035.1703-.0929.2353l-1.0508 1.1601 2.989-1.7226c.0755-.0431.1639-.058.2493-.042.0855.016.1624.0618.2172.1293.0548.0674.0839.1522.082.2391s-.0346.1703-.0923.2353l-1.0546 1.1756 3.0118-1.7373c.0788-.0443.1711-.058.2592-.0384.0882.0195.1661.071.2187.1444s.0763.1636.0664.2534c-.0098.0898-.0524.1728-.1197.2331l-.4825.4224 1.76-1.0149c.0795-.045.1729-.0586.2619-.0384.089.0203.1673.0731.2195.148s.0745.1666.0627.2572c-.0119.0905-.0571.1734-.1268.2323l-.1562.1298 1.2635-.7289c.0757-.0431.1643-.0578.2498-.0416.0856.0163.1626.0625.2172.1303.0546.0679.0833.153.0809.24-.0024.0871-.0357.1705-.094.2352l-1.0428 1.1448 2.9598-1.7087c.0736-.0423.1595-.0578.2432-.0438s.16.0566.2158.1206c.0558.0639.0877.1452.0902.23.0026.0849-.0244.1679-.0762.2351l-1.0956 1.4095 3.3806-1.9514c.0734-.0417.1589-.0568.2421-.0427.0831.014.159.0563.2146.1197s.0877.144.0908.2283c.0032.0843-.0229.1671-.0737.2344l-1.0941 1.4286 3.4129-1.9683c.0728-.0418.1577-.0573.2406-.044.0829.0134.1587.0547.2148.1172.056.0625.0889.1423.0932.2262.0043.0838-.0203.1666-.0697.2345l-1.0883 1.482 3.4921-2.0159c.0781-.0447.1699-.0592.258-.0406.088.0186.1661.0689.2195.1414.0533.0725.0782.162.0698.2516s-.0495.173-.1153.2343l-.7077.6534 1.8649-1.0766c.0754-.0436.1639-.0589.2495-.0432.0857.0157.163.0614.2181.1289s.0843.1524.0825.2395c-.0019.0871-.0347.1707-.0925.2358l-.9182 1.0355.5596-.3219c.0417-.0266.0884-.0444.1371-.0524.0488-.008.0988-.0061.1468.0057.048.0117.0932.0331.1327.0628.0396.0296.0728.067.0975.1098.0248.0428.0406.0902.0466.1393.0059.0491.0019.0989-.0119.1464s-.037.0917-.0683.1299c-.0313.0383-.0701.0699-.1139.0928l-2.5138 1.4476c-.0754.0431-.1636.0581-.249.0423-.0853-.0157-.1623-.0613-.2172-.1286-.0549-.0672-.0842-.1517-.0827-.2385.0016-.0868.0339-.1703.0912-.2355l.9167-1.0347-2.7646 1.595c-.0781.0447-.1699.0591-.258.0406-.088-.0186-.1662-.0689-.2195-.1414-.0534-.0725-.0782-.162-.0698-.2516s.0494-.173.1153-.2343l.7077-.6534-2.1479 1.2401c-.0729.0418-.1578.0573-.2407.044-.0829-.0134-.1587-.0547-.2147-.1172-.0561-.0625-.089-.1424-.0933-.2262s.0204-.1666.0698-.2345l1.0875-1.482-3.4928 2.0159c-.0734.0417-.1589.0567-.2421.0427-.0831-.014-.159-.0563-.2146-.1197s-.0877-.144-.0908-.2283c-.0032-.0843.0229-.1671.0737-.2344l1.0942-1.4286-3.4108 1.9683c-.0736.0423-.1595.0578-.2432.0438s-.16-.0566-.2158-.1206c-.0558-.0639-.0877-.1452-.0902-.2301-.0026-.0848.0244-.1679.0762-.235l1.0956-1.4095-3.3814 1.9514c-.0757.0431-.1642.0578-.2498.0415-.0856-.0162-.1626-.0624-.2172-.1303-.0546-.0678-.0833-.1529-.0809-.24.0024-.087.0357-.1704.094-.2351l1.0428-1.1448-2.9605 1.7087c-.0555.0329-.1188.0507-.1833.0513z"/></g><path d="m39.5672 13.2321c.9974-.5551.4826-2.8849-.5294-3.2193-.4024-2.15644-.9963-4.27267-1.7747-6.32355 1.2467-.48033.3828-1.89787-.1166-2.64-1.9118-1.303135-4.8979-.215601-7.1793-.555135-7.2248.0242-14.4577-.038866-21.6803-.000733-1.3288-.1188-3.18927 2.813798-1.53487 3.339598-.77982 2.04731-1.37545 4.16011-1.7798 6.31322-.91446.4225-1.69546 2.7566-.52726 3.2428-.77328 5.7777-.77574 11.6325-.00734 17.4109-1.0714.5221-.4092 2.7984.50747 3.1005.39736 2.1354.97861 4.2325 1.73727 6.2678-1.46154.8573.1892 3.6403 1.61846 3.4826h19.27937c3.2596-.6717 8.9466 1.8927 10.2505-2.2.058-.1276.0892-.2657.0918-.4058.0026-.1402-.0236-.2793-.0768-.409-.0532-.1296-.1325-.247-.2328-.3449-.1003-.0978-.2196-.1741-.3505-.2241.7703-2.03 1.3592-4.1243 1.76-6.2583.8976-.448 1.5803-2.6598.5265-3.1658.7797-5.777.7859-11.6322.0183-17.4108zm-13.6554 17.3162c.3763-5.6725.382-11.3635.0169-17.0368 2.2367.0049 4.4731.0049 6.7093 0 .7488 5.6527.7537 11.3792.0146 17.0332zm-6.7598 0c-.3784-5.6744-.3843-11.3675-.0176-17.0427 1.9066 0 3.8133.0015 5.72.0044.3759 5.6732.3779 11.3649.0058 17.0383zm-7.7822 0c-.7541-5.655-.7675-11.3842-.0396-17.0427h6.7562c-.3764 5.6746-.3803 11.3677-.0117 17.0427zm-6.36603-18.5218c.05818-.4818.15629-.9579.29333-1.4234 9.1843-.0873 18.359.011 27.522-.0293 1.8157.0491 3.6813-.0932 5.4751.0447.5514.099.88 1.958.6468 2.2733-10.9511-.0029-21.9123-.0029-32.88343 0-.63067.0022-1.21734.0763-1.0538-.8653zm8.59463-8.12018h5.6225c-.3968 2.00081-.6828 4.02203-.8565 6.0544h-6.4534c.3908-2.0621.9553-4.08746 1.6874-6.0544zm8.4539 0c.5449 0 1.0912 0 1.6368.00586.4025 1.99821.6914 4.01763.8653 6.04854h-5.1208c.1737-2.03205.4577-4.05316.8506-6.0544zm8.2691.0352c.7467 1.95246 1.3212 3.96655 1.7167 6.0192h-6.3917c-.1739-2.02798-.454-4.04546-.839-6.04414 1.8378.00978 3.6757.01809 5.514.02494zm3.4122 9.57218c1.5898 0 3.1797 0 4.7666-.0081.7503 5.6556.7597 11.3848.0279 17.0427h-4.8239c.7464-5.653.7563-11.379.0294-17.0346zm4.1697-3.55445c-1.5811.0044-3.1629 0-4.7439 0-.3878-2.04836-.9443-4.06113-1.664-6.01773 1.5598 0 3.1196-.0066 4.678-.03667.754 1.96324 1.3324 3.98925 1.7299 6.0544zm-30.6592-7.52107c.14227-.39966.63433-1.0934.60133-1.466665 8.56237-.016133 17.20917.011734 25.80087 0 1.9353-.317533 2.9245.244205 3.2179 2.359865-5.4949.23467-11.0081.0176-16.558.09387-1.4175-.5654-14.2193 1.18947-13.0621-.98707zm0 2.8974c.1584-.49133.319-.96066.51333-1.42926h4.85837c-.7491 1.96406-1.3248 3.98992-1.7204 6.0544-1.60383.0132-3.2267-.07334-4.83197-.011.30627-1.55894.69996-3.09941 1.1792-4.61414zm-1.76 8.17002h4.8165c-.74992 5.6556-.75928 11.3848-.0278 17.0427-1.5899.0088-3.1805-.0132-4.77037 0-.7554-5.6545-.76773-11.3835-.03666-17.0412zm-.46493 17.5458c9.19743-.0271 18.48003.0081 27.70823.0323 1.8898.0403 3.8926-.0294 5.8117-.0323.9863.22.1943 1.8333.11 2.4105-1.7842.1613-3.6769-.058-5.4949.0198-4.43-.0609-9.24.0425-13.7976 0-2.3027-.1254-5.0835.0858-7.549 0-1.92937-.1672-4.17997.1987-6.15997-.0565-.46566-.3725-.9438-2.1853-.62846-2.3738zm19.76773 8.8946c.3856-1.9707.6654-3.9607.8382-5.9613h6.4533c-.3587 2.0369-.9167 4.0336-1.6661 5.9613zm-11.1511 0c-.7308-1.9355-1.2951-3.9298-1.6866-5.9613h6.3976c.1721 1.9996.445 3.9892.8176 5.9613zm6.6492 0c-.3892-1.9703-.6707-3.9604-.8434-5.9613h5.1458c-.1726 1.9998-.4472 3.9895-.8228 5.9613zm-14.1981-5.9613h4.7447c.3835 2.0275.9289 4.021 1.6309 5.9613-1.5657 0-3.1284.0073-4.69333-.0073-.72872-1.9333-1.29151-3.9252-1.68227-5.954zm29.7381 8.8946c-8.9217.0169-17.9058-.0117-26.8495 0-1.03547.44-2.20367-1.6206-1.56933-2.1589 9.65363-.0183 19.39593.0132 29.08403 0 .7795.1327-.2303 2.0511-.6652 2.1589zm.9306-4.1492c-.1312.4078-.2735.8148-.429 1.2159h-4.84c.7096-1.9396 1.2621-3.9331 1.6522-5.9613 1.609-.0073 3.2179.0118 4.8268 0-.3119 1.6037-.7159 3.1881-1.21 4.7454z" fill="#262626"/></svg>