<svg fill="none" height="44" viewBox="0 0 44 44" width="44" xmlns="http://www.w3.org/2000/svg"><path d="m27.7933 43.6113c-.0727 0-.1437-.0216-.204-.0621-.0604-.0404-.1073-.0978-.135-.165s-.0347-.141-.0203-.2122.0496-.1366.1012-.1877l1.7145-1.7028-2.5564 1.4784c-.0802.0469-.1753.0615-.2659.0411-.0906-.0205-.1701-.0747-.2223-.1515-.0523-.0768-.0734-.1706-.0592-.2625.0143-.0918.0629-.1748.136-.2321l1.1352-.9013-.5764.3322c-.0797.0454-.1734.0592-.2628.0389-.0894-.0204-.1679-.0735-.22-.1488-.0522-.0754-.0743-.1676-.0619-.2584s.0584-.1737.1289-.2323l2.0533-1.6793c-.0531-.0228-.1001-.0578-.1371-.1022-.037-.0443-.063-.0968-.0759-.1532-.0128-.0563-.0122-.1149.0019-.1709.014-.0561.0412-.108.0791-.1516l1.4528-1.672-.993.5735c-.0769.0423-.1665.0555-.2523.0374-.0859-.0182-.1624-.0665-.2157-.1363s-.0797-.1563-.0746-.244c.0052-.0876.0416-.1705.1026-.2335l.9453-.9534-.5023.2897c-.0761.0436-.1653.0585-.2514.0419-.0861-.0165-.1634-.0633-.218-.1319-.0545-.0687-.0827-.1546-.0793-.2422s.038-.1711.0977-.2354l1.1902-1.2701-.7429.4282c-.0617.0355-.1324.0522-.2035.0482-.071-.004-.1394-.0286-.1967-.0709-.0573-.0422-.1011-.1002-.126-.1668-.0249-.0667-.0299-.1392-.0143-.2087l.2274-1.0061c-.0648-.0246-.1213-.0671-.1629-.1225-.0417-.0554-.0667-.1215-.0723-.1906s.0085-.1383.0406-.1997c.0322-.0614.081-.1124.141-.1472l.3718-.2141c.062-.0351.1328-.0515.2039-.0475s.1396.0284.1973.0702c.0572.0424.1009.1006.1256.1674.0248.0668.0295.1394.0137.2088l-.1863.8265 2.1553-1.2467c.0761-.0441.1656-.0593.2521-.0429s.1641.0634.2188.1323.0828.1553.0792.2432c-.0037.0879-.0389.1716-.0991.2357l-1.1909 1.2724.7472-.4312c.0769-.0418.1661-.0547.2516-.0365.0855.0183.1617.0665.2148.136s.0796.1556.0748.2429c-.0048.0874-.0407.1701-.1012.2332l-.9452.9534.5023-.289c.0751-.0431.1631-.0583.2484-.0428.0852.0155.1622.0607.2173.1276.0551.0668.0848.1511.0837.2377-.0011.0867-.0328.1701-.0896.2356l-1.4527 1.6713.9929-.5728c.0796-.0445.173-.0578.2619-.0372s.1669.0737.2188.1487c.0519.0751.0739.1668.0618.2573-.0122.0904-.0576.1731-.1274.2318l-1.3486 1.1.9335-.5375c.0801-.0457.1745-.0595.2643-.0387s.1685.0747.2204.1509.0732.1692.0596.2604-.0611.1739-.1329.2317l-1.133.8998.7216-.4158c.077-.0428.1669-.0565.2531-.0384.0863.018.1632.0665.2166.1366s.0798.157.0744.245c-.0055.0879-.0424.171-.1041.2339l-1.7153 1.7035 2.0966-1.2092c.0744-.0431.1615-.0587.2461-.0441.0847.0146.1616.0585.2172.124s.0864.1484.0872.2343c.0007.086-.0288.1694-.0833.2358l-.8668 1.0589 1.5862-.9152c.0694-.0399.15-.056.2295-.0458.0794.0102.1534.0461.2105.1023.057.0565.0939.1301.105.2096s-.0041.1604-.0434.2304l-.429.7575c.0856-.0372.1823-.0403.2703-.0087.0879.0316.1604.0957.2027.179s.0512.1796.0249.2693c-.0263.0896-.0859.1659-.1665.2131l-1.1278.6504c-.0696.0403-.1505.0565-.2302.0463-.0798-.0103-.1539-.0464-.2111-.1029-.0571-.0565-.0942-.1302-.1053-.2098-.0112-.0796.0041-.1607.0435-.2308l.4268-.7538-2.1663 1.251c-.0743.0431-.1614.0587-.2461.0441s-.1615-.0585-.2171-.124c-.0557-.0655-.0865-.1484-.0872-.2343s.0288-.1694.0833-.2358l.8719-1.0611-2.7918 1.6133c-.0562.0329-.1204.0499-.1855.0492z" fill="#e6e6ea"/><path d="m12.1359 43.611c-.0781-.0001-.1541-.0251-.2169-.0715-.0629-.0463-.1093-.1115-.1326-.186-.0232-.0746-.022-.1546.0034-.2284.0254-.0739.0737-.1377.1379-.1821l.9005-.6226-2.1494 1.2393c-.0816.0458-.1777.0587-.2685.036s-.1695-.0792-.22-.1581c-.0504-.0789-.0688-.174-.0513-.266.0174-.092.0694-.1738.1453-.2286l3.2926-2.3152-4.98077 2.8754c-.08222.0469-.17937.0601-.27114.037s-.17104-.0808-.22124-.161c-.0502-.0803-.06743-.1768-.0481-.2694.01933-.0927.07372-.1742.15182-.2277l3.20023-2.1516-3.66663 2.1157c-.0825.049-.18092.0637-.27414.0409-.09322-.0227-.17381-.0811-.22448-.1625-.05068-.0815-.06739-.1796-.04656-.2733s.07755-.1754.15798-.2277l3.46503-2.3093-3.28023 1.8964c-.08261.047-.18023.06-.27228.0364s-.17134-.082-.22116-.1629c-.04983-.0809-.06629-.178-.04592-.2708.02036-.0929.07597-.1741.15509-.2268l2.4222-1.5869-2.03793 1.1733c-.08261.047-.18023.06-.27228.0365-.09205-.0236-.17134-.0821-.22116-.163-.04983-.0809-.06629-.178-.04592-.2708.02036-.0928.07597-.1741.15509-.2267l2.61067-1.7175-2.2264 1.2863c-.08222.0468-.17938.0601-.27114.0369-.09177-.0231-.17105-.0808-.22124-.161-.0502-.0802-.06744-.1768-.04811-.2694s.07373-.1742.15182-.2277l4.7395-3.212-4.35083 2.511c-.08191.0462-.17847.0592-.2697.0363-.09122-.023-.17015-.0801-.22044-.1596-.0503-.0795-.06812-.1753-.04978-.2675.01834-.0923.07144-.174.14832-.2282l5.60263-3.861-5.21103 3.0067c-.08179.0478-.17888.062-.27095.0398s-.17197-.0792-.22297-.159-.06913-.1763-.05061-.2691c.01853-.0929.07228-.175.14999-.2292l6.47897-4.5606-6.08663 3.5127c-.08242.0469-.17978.06-.27167.0366-.09189-.0233-.17115-.0814-.22115-.1619-.05-.0806-.06686-.1774-.04703-.2701s.0748-.1742.15338-.2272l3.5875-2.3877-3.19883 1.8487c-.08222.0449-.1785.0566-.26909.0327-.09058-.0238-.1686-.0814-.21805-.161-.04944-.0796-.06656-.175-.04784-.2668s.07186-.1729.14851-.2268l3.8478-2.5732-3.46133 1.999c-.08192.0445-.17771.0562-.2679.0325-.09018-.0236-.16799-.0806-.21759-.1596-.0496-.0789-.06728-.1738-.04943-.2653s.06988-.1727.14552-.2272l4.91843-3.3455-4.52903 2.6143c-.08247.0443-.17874.0553-.26908.0309-.09035-.0244-.16794-.0824-.21688-.1622s-.06551-.1753-.04633-.2669.07266-.1724.14949-.2258l1.49746-.971-1.11173.641c-.08185.0469-.17865.0605-.27028.0379-.09162-.0225-.17101-.0796-.22164-.1592-.05064-.0797-.06862-.1757-.05021-.2683.01842-.0926.07181-.1744.14906-.2286l6.10137-4.2534-5.71123 3.2942c-.08228.0443-.17837.0555-.26865.0313-.09027-.0241-.16792-.0818-.21707-.1613s-.06609-.1748-.04738-.2663c.01872-.0916.07169-.1725.1481-.2263l2.73606-1.804-2.35106 1.3566c-.08228.0443-.17837.0556-.26865.0314-.09027-.0242-.16792-.0819-.21707-.1614-.04915-.0794-.06609-.1747-.04738-.2662.01872-.0916.07169-.1726.1481-.2264l2.69206-1.7783-2.30706 1.3317c-.08181.0441-.17729.0555-.26716.0319-.08987-.0237-.16742-.0805-.21697-.1591s-.0674-.1731-.04996-.2644c.01745-.0913.0689-.1725.14395-.2273l4.70577-3.2267-4.31563 2.4934c-.0821.0461-.17881.0589-.27009.0357-.09129-.0232-.17013-.0806-.22021-.1604-.05007-.0798-.06752-.1758-.04874-.2681.01879-.0923.07237-.1738.14964-.2276l3.91303-2.6635-3.52363 2.0313c-.08242.0469-.17978.06-.27167.0367-.09189-.0234-.17115-.0815-.22115-.162-.05-.0806-.06686-.1774-.04703-.2701s.0748-.1741.15338-.2272l2.16113-1.4373-1.77393 1.0267c-.0816.0478-.17855.0623-.27059.0404s-.17203-.0786-.22326-.1581c-.05123-.0796-.06973-.1758-.05163-.2687s.07139-.1752.14875-.2296l4.72923-3.3807-4.33323 2.4992c-.08156.0465-.17784.06-.26903.0376-.09118-.0224-.17031-.0788-.22108-.1578s-.06932-.1744-.05181-.2667c.01751-.0922.06974-.1742.14592-.2291l3.68353-2.6158-3.20613 1.8509c-.08096.0479-.17723.0629-.2689.0418s-.17174-.0766-.22363-.1551c-.0519-.0784-.07166-.1738-.05519-.2664.01646-.0926.06789-.1754.14365-.2311l4.1199-3.1042-3.28977 1.8993c-.08191.0462-.17846.0592-.26969.0363s-.17015-.0801-.22044-.1595c-.0503-.0795-.06812-.1753-.04978-.2676.01834-.0922.07144-.1739.14831-.2281l.8272-.5706c-.08191.0226-.16911.016-.2467-.0187-.07758-.0346-.14073-.0951-.17866-.1711-.03792-.0761-.04827-.1629-.02927-.2457.01899-.0828.06616-.1564.13343-.2083l3.50757-2.7258-.88.5133c-.0803.0469-.1753.0616-.2659.0411s-.1701-.0747-.2224-.1515c-.0522-.0768-.0733-.1706-.0591-.2624.0143-.0919.0629-.1748.136-.2322l1.6294-1.2943-.0652.0374c-.0777.0475-.1702.0644-.2597.0475-.0894-.017-.1694-.0666-.2243-.1392-.0548-.0727-.0807-.1631-.0726-.2538s.0496-.1751.1166-.2368l1.4512-1.3933-1.0178.5866c-.0686.0395-.1482.0557-.2267.0462-.0786-.0094-.152-.0441-.2092-.0987-.0573-.0546-.0954-.1263-.1085-.2043-.0132-.0781-.0007-.1583.0354-.2286l.5566-1.07584c-.0654-.00012-.1297-.01704-.1867-.04915-.057-.0321-.1048-.0783-.1389-.13418-.0486-.08422-.0618-.1843-.0366-.27823s.0866-.17402.1708-.22264l.8698-.5016c.0686-.03946.1481-.05567.2267-.0462.0785.00946.1519.04409.2092.09872.0572.05462.0953.1263.1085.20433.0131.07804.0007.15823-.0355.22862l-.5177 1.001 2.5622-1.47914c.0777-.04752.1702-.06445.2597-.0475.0894.01695.1694.06656.2243.1392.0548.07263.0807.16308.0726.25376-.0081.09067-.0496.17508-.1166.23681l-1.4527 1.39484 1.727-.99664c.0801-.04486.174-.05805.2634-.03698.0893.02106.1675.07486.2191.15077s.0728.1684.0595.25921-.0602.17334-.1313.23124l-1.6302 1.2958 1.2195-.704c.0805-.0459.1753-.0597.2655-.0385s.169.0757.2207.1526c.0516.0769.0722.1705.0577.262-.0146.0914-.0632.174-.1362.2311l-3.5068 2.7251 3.1057-1.7923c.0819-.0462.1785-.0592.2697-.0363.0912.023.1701.0801.2204.1596s.0682.1752.0498.2675c-.0183.0923-.0714.1739-.1483.2282l-.7062.4869.5544-.3205c.0809-.0467.1766-.0607.2676-.0393.0909.0215.1702.0769.2217.1549.0514.0779.0712.1726.0553.2647-.016.092-.0665.1745-.1413.2306l-4.1198 3.0976 4.749-2.7419c.0812-.0418.1751-.0517.2632-.0279.0882.0238.1643.0797.2134.1566.0492.0769.0678.1694.0524.2594-.0155.09-.0639.171-.1359.2271l-3.6828 2.6158 4.1257-2.3826c.0816-.0479.1786-.0624.2706-.0404.0921.0219.1721.0786.2233.1581.0512.0796.0697.1758.0516.2687s-.0714.1751-.1487.2296l-4.7264 3.3822 5.1136-2.9517c.0824-.0469.1797-.06.2716-.0366.0919.0233.1712.0814.2212.1619.05.0806.0668.1774.047.2701s-.0748.1741-.1534.2272l-2.1626 1.441 2.2228-1.2833c.0823-.0488.1803-.0635.2733-.0409.093.0225.1734.0805.2242.1616.0508.081.068.1787.0478.2722s-.0762.1754-.1559.2282l-3.9168 2.6657 3.9806-2.2946c.0819-.0456.1783-.0581.2691-.0348.0909.0233.1694.0805.2194.1599.0499.0793.0676.1748.0493.2668s-.0712.1735-.1477.2277l-4.7036 3.2216 4.6581-2.6914c.0828-.0511.1825-.0673.2772-.045.0468.0111.0911.0313.1302.0595.0391.0281.0722.0637.0975.1047.0254.041.0424.0865.0501.1341.0077.0475.006.0961-.0051.143-.011.0469-.0312.0912-.0594.1302-.0282.0391-.0638.0723-.1047.0976l-2.7002 1.7827 2.4934-1.438c.0825-.0479.1805-.0617.273-.0385.0926.0232.1725.0816.2227.1627.0502.0812.0668.1787.0463.2719-.0206.0932-.0766.1747-.1563.2272l-2.7331 1.8018 2.42-1.3985c.0818-.0469.1786-.0606.2702-.038.0917.0226.1711.0797.2217.1593s.0686.1757.0502.2683c-.0184.0925-.0718.1744-.1491.2286l-6.1028 4.2578 5.7149-3.3c.0827-.0462.18-.0586.2716-.0347.0916.024.1704.0825.2199.1632s.0658.1775.0455.27c-.0202.0925-.0755.1736-.1542.2263l-1.485.965 1.1-.6358c.0821-.0461.1788-.0589.2701-.0357s.1701.0806.2202.1604.0675.1758.0487.268c-.0188.0923-.0723.1739-.1496.2277l-4.9214 3.3462 4.5342-2.6172c.0822-.0449.1785-.0566.2691-.0328.0906.0239.1686.0815.218.161.0495.0796.0666.1751.0479.2669-.0187.0917-.0719.1729-.1485.2267l-3.8478 2.5748 3.4642-1.9998c.0824-.0469.1798-.06.2717-.0367.0919.0234.1711.0814.2212.162.05.0806.0668.1773.047.2701-.0198.0927-.0748.1741-.1534.2272l-3.5875 2.3884 3.201-1.848c.0818-.0477.1789-.062.271-.0398s.172.0792.223.159c.0509.0798.0691.1763.0506.2692-.0186.0928-.0723.175-.15.2291l-6.479 4.5606 6.0866-3.5127c.0821-.0486.18-.0634.2727-.041.0928.0223.1732.0799.2242.1606s.0685.178.0489.2714c-.0197.0934-.075.1754-.1542.2287l-5.6026 3.8603 5.211-3.0067c.0821-.045.1782-.0569.2687-.0333.0906.0236.1687.0809.2183.1602.0497.0792.0672.1745.0489.2663-.0183.0917-.0709.173-.1472.2272l-4.7403 3.2127 4.3516-2.5116c.0826-.047.1803-.0601.2723-.0365.0921.0236.1713.082.2212.163.0498.0809.0663.178.0459.2708s-.076.1741-.1551.2267l-2.6107 1.7175 2.2264-1.2855c.0826-.047.1803-.0601.2723-.0365.0921.0236.1713.082.2212.163.0498.0809.0663.178.0459.2708s-.076.1741-.1551.2267l-2.4141 1.584 2.0298-1.1733c.0824-.0469.1798-.06.2717-.0366.0919.0233.1711.0814.2212.1619.05.0806.0668.1774.047.2701s-.0748.1741-.1534.2272l-3.4716 2.31 3.08-1.7783c.0824-.0478.18-.0616.2724-.0386s.1722.081.2226.1617c.0503.0808.0673.178.0474.271-.02.0931-.0754.1748-.1545.2277l-3.2017 2.1524 2.8138-1.6236c.0816-.0448.1771-.0569.2673-.0339.0901.023.1682.0795.2183.1579.05.0784.0684.173.0514.2645-.0171.0915-.0682.173-.1432.2282l-3.2919 2.3151 2.8981-1.6734c.0819-.0463.1785-.0593.2697-.0364.0912.023.1701.0801.2204.1596s.0682.1753.0498.2675c-.0183.0923-.0714.174-.1483.2282l-.9027.6233.5133-.2933c.0802-.0469.1752-.0616.2659-.0411.0906.0205.1701.0746.2223.1515.0523.0768.0734.1706.0591.2624-.0142.0918-.0628.1748-.1359.2322l-2.222 1.7681 1.8106-1.045c.0786-.0454.1712-.06.26-.0411.0887.019.1673.0702.2205.1437.0531.0735.0772.1642.0674.2544s-.0527.1736-.1204.234l-1.2723 1.1279.8426-.4862c.0776-.0467.1697-.0631.2586-.0459.0889.0171.1683.0666.2229.1388.0547.0722.0806.1621.073.2523-.0077.0902-.0485.1744-.1145.2363l-.2933.2794c.0694-.0073.1394.0061.2012.0384.0619.0324.1128.0823.1464.1435.0486.0842.0618.1843.0366.2782-.0252.094-.0866.174-.1708.2227l-2.3592 1.3625c-.0775.0467-.1696.063-.2585.0459-.0889-.0172-.1684-.0666-.223-.1388s-.0806-.1621-.0729-.2523c.0076-.0902.0484-.1744.1144-.2363l.1834-.176-1.3105.7575c-.078.0413-.1682.0532-.2542.0333-.086-.0198-.1619-.07-.2139-.1413-.0519-.0713-.0764-.159-.069-.2469s.0463-.1702.1096-.2318l1.2701-1.1322-2.9854 1.7189c-.0801.0466-.1749.0611-.2653.0406s-.1697-.0744-.2219-.151-.0735-.1701-.0596-.2617c.014-.0916.0621-.1746.1347-.2322l2.222-1.768-4.1089 2.3723c-.0557.0331-.1193.0508-.1841.0513z" fill="#ad2351"/><path d="m13.2851 9.89143c-.074.00008-.1462-.02219-.2073-.06391-.061-.04171-.1081-.10092-.1349-.16984-.0268-.06893-.0321-.14435-.0153-.21636.0168-.07202.0551-.13726.1096-.18716l.3572-.32633-1.4557.8404c-.0798.04577-.174.05985-.2637.03943-.0898-.02042-.1686-.07384-.2207-.14966-.0522-.07582-.074-.16848-.061-.2596s.0598-.17402.1311-.23224l.7956-.6468-.3813.22c-.0788.04566-.1717.06039-.2607.04132s-.1678-.07056-.2209-.14447-.0769-.16495-.0666-.25541c.0102-.09045.0538-.17385.1221-.23397l1.6075-1.4168-1.1814.68126c-.0781.04604-.1705.0615-.2594.0434-.0888-.01811-.1678-.06849-.2217-.14142s-.0788-.16323-.07-.25348c.0088-.09024.0507-.17403.1177-.23516l1.3156-1.2254-.88.50893c-.077.04281-.1669.05644-.2531.03841-.0863-.01803-.1632-.06653-.2166-.1366-.0534-.07008-.0798-.15706-.0744-.24501.0055-.08795.0424-.171.1041-.23393l.2655-.26474c-.0424.00344-.085-.00182-.1252-.01544s-.0772-.03531-.1088-.06376c-.0577-.0457-.1002-.10769-.1222-.17792-.022-.07024-.0223-.14545-.001-.21588l.1746-.5742c-.059-.03217-.1077-.08017-.1408-.1386-.0487-.08412-.062-.18414-.037-.27806s.0863-.17406.1704-.2228l.3667-.2134c.0637-.037.1372-.05392.2107-.04857.0735.00536.1437.03274.2014.07858s.1003.108.1221.17839c.0219.07039.022.14573.0004.2162l-.0997.32706 1.32-.76046c.077-.04281.1669-.05645.2531-.03842.0863.01804.1631.06653.2166.13661.0534.07008.0798.15705.0743.245-.0054.08795-.0424.171-.104.23394l-.1401.14007 1.2555-.72307c.0781-.04604.1705-.0615.2593-.0434.0889.01811.1679.06849.2217.14142.0539.07293.0789.16324.0701.25348-.0088.09025-.0508.17403-.1177.23517l-1.3193 1.22466 1.5642-.90346c.0788-.04566.1717-.06039.2607-.04133.089.01907.1678.07057.2209.14448s.0769.16495.0666.2554c-.0102.09045-.0538.17386-.1221.23398l-1.6075 1.4168 1.1858-.6842c.0799-.04665.1744-.0614.2647-.04128s.1696.07362.2221.14977c.0525.07616.0743.16933.061.26087-.0133.09153-.0607.17465-.1327.23271l-.7957.6468.3843-.22c.078-.0441.1696-.05806.2572-.03925.0877.01882.1654.0691.2185.14135s.0779.16145.0697.25074-.0488.17247-.1142.23382l-.3733.341c.0642-.02423.134-.02994.2013-.01647.0673.01346.1295.04556.1795.09263.05.04708.0857.10724.1032.17364s.0159.13636-.0044.20194l-.2706.86606c.0725.01544.1386.05249.1897.10628.051.05379.0845.12178.0961.19501.0116.07322.0007.14825-.0312.21517s-.0833.12259-.1475.15968l-.5134.29333c-.0638.03696-.1373.0538-.2109.04832-.0736-.00549-.1438-.03305-.2015-.07907-.0576-.04602-.1001-.10837-.1218-.1789-.0216-.07053-.0215-.14595.0004-.21642l.228-.73333-2.0306 1.17333c-.0544.03145-.116.04837-.1789.04914z" fill="#3f3f3f"/><path d="m12.2921 4.74494c-.0747-.00006-.1475-.02291-.2088-.06547-.0613-.04257-.1082-.10284-.1343-.17275-.0262-.06991-.0304-.14613-.012-.21849.0183-.07235.0583-.13739.1145-.18642l1.2342-1.07433-2.0408 1.17846c-.0747.04338-.1622.05903-.2472.04421-.0851-.01483-.1622-.05918-.2177-.12525-.0556-.06606-.086-.14961-.086-.23593s.0304-.16988.0859-.23596l1.2929-1.54-.8675.50087c-.07.04025-.1513.05629-.2313.04563-.08-.01065-.1542-.04741-.2112-.10456-.057-.05716-.0935-.13152-.104-.21156-.0104-.08003.0059-.16127.0463-.23111l.2897-.50087c-.0736-.01365-.1413-.04952-.194-.10279-.0526-.05327-.0877-.12138-.1005-.19518-.0127-.07379-.0026-.14973.029-.2176.0317-.06787.0834-.124417.1482-.16203l.8514-.493534c.0699-.040351.1511-.05651.2312-.045973.08.010538.1543.047184.2114.104256.057.057072.0937.13138.1042.2114.0106.080021-.0056.161283-.046.231184l-.2024.349067 1.4726-.849934c.0746-.043374.1621-.059027.2472-.044203.085.014824.1621.059175.2177.125243.0555.066068.086.149617.086.235937 0 .086321-.0305.169877-.086.235956l-1.2929 1.542201 3.5391-2.0438c.0789-.045971.1722-.060829.2615-.041664s.1682.070973.2213.14528c.0532.074307.0766.165764.0659.256466-.0108.090701-.055.174118-.1241.233918l-1.2357 1.07433 1.2614-.72746c.0731-.04184.1585-.0572.2416-.0435.0832.0137.1591.05562.2149.11872.0559.0631.0883.14351.0919.22771.0035.0842-.0221.16705-.0725.2346l-.8961 1.1924.4202-.24273c.0843-.04863.1845-.06177.2785-.03653s.1741.08678.2227.17109c.0486.08432.0618.18449.0365.27849-.0252.094-.0867.17412-.1711.22275l-1.9756 1.13813c-.0731.04184-.1584.0572-.2416.0435s-.1591-.05563-.2149-.11872c-.0559-.0631-.0883-.14352-.0918-.22772-.0036-.0842.022-.16704.0724-.23459l.8969-1.19094-2.9979 1.72847c-.0554.03332-.1187.05105-.1833.05133z" fill="#4d4d4d"/><path d="m30.0036 34.0752c-.0761-.0001-.1503-.0238-.2123-.0679-.0621-.0442-.1088-.1065-.1338-.1784s-.027-.1498-.0057-.2229c.0213-.073.0648-.1377.1244-.1849l2.5462-2.0167-4.026 2.3283c-.0817.0471-.1783.061-.2699.0387-.0916-.0224-.1711-.0791-.222-.1585-.0509-.0793-.0692-.1752-.0512-.2678.018-.0925.0709-.1746.1478-.2291l2.0189-1.4307-2.7405 1.581c-.0821.0444-.178.0558-.2682.032-.0903-.0239-.168-.0813-.2173-.1605-.0494-.0792-.0667-.1743-.0485-.2658.0183-.0915.0708-.1726.1468-.2268l.5918-.3975-.9577.553c-.0822.0468-.1794.0601-.2712.037-.0917-.0232-.171-.0809-.2212-.1611s-.0674-.1767-.0481-.2694c.0193-.0926.0737-.1742.1518-.2277l1.8781-1.2723-2.2213 1.2855c-.0813.0463-.1771.0597-.268.0376-.0908-.0221-.1698-.0781-.2207-.1565-.051-.0783-.07-.1732-.0534-.2652.0167-.092.0679-.1742.1432-.2297l4.7879-3.4804-5.2741 3.0456c-.0805.0469-.1758.0614-.2666.0405-.0908-.0208-.1703-.0754-.2222-.1527-.052-.0773-.0727-.1714-.0577-.2634.0149-.0919.0642-.1748.138-.2316l4.2724-3.3162-4.5467 2.6254c-.0793.0446-.1723.0581-.261.0379s-.1668-.0726-.219-.1471-.0748-.1658-.0635-.2561.0558-.1731.1248-.2324l3.1321-2.6349-3.0947 1.7864c-.0795.0458-.1732.06-.2627.04s-.1683-.0728-.2208-.148c-.0524-.0752-.0748-.1674-.0627-.2583s.0579-.174.1282-.2328l1.3633-1.1367-1.0172.5867c-.0791.0443-.1718.0577-.2602.0376-.0885-.0201-.1663-.0722-.2186-.1463-.0522-.0741-.0751-.165-.0643-.255s.0546-.1729.1229-.2325l.2809-.2391c-.1021.0016-.2008-.0368-.275-.107-.0564-.057-.0926-.1308-.1031-.2103-.0104-.0794.0054-.1601.0452-.2297l.5969-1.0348c-.0399-.0294-.0731-.0668-.0975-.11-.0486-.0842-.0618-.1843-.0366-.2782.0251-.0939.0866-.174.1708-.2226l.5602-.3234c.0699-.0401.1511-.0559.2309-.0453.0798.0107.1539.0474.2108.1044s.0935.1311.1041.211c.0105.0798-.0055.1609-.0456.2307l-.3755.6498 1.9947-1.1514c.0791-.0443.1718-.0576.2603-.0376.0884.0201.1662.0722.2185.1464.0522.0741.0751.1649.0643.255-.0108.09-.0546.1728-.1229.2324l-.1056.091 1.1916-.6879c.0794-.0448.1727-.0584.2615-.0381.0889.0202.167.0728.2192.1475s.0747.1662.0631.2566-.0564.1733-.1258.2324l-1.3603 1.133 3.0067-1.7351c.0793-.0453.1727-.0594.2619-.0394.0891.0199.1676.0724.2201.1472.0525.0747.0752.1664.0636.257-.0116.0907-.0566.1737-.1262.2329l-3.1342 2.6356 5.6019-3.234c.0805-.0469.1758-.0614.2666-.0406.0908.0209.1703.0755.2222.1528.052.0772.0727.1714.0577.2634-.0149.0919-.0642.1747-.138.2316l-4.2754 3.3139 6.666-3.8485c.0813-.0462.1772-.0597.268-.0376.0909.0221.1698.0781.2208.1565.0509.0784.07.1733.0533.2653s-.0679.1741-.1431.2296l-4.7887 3.4797 5.0175-2.8967c.0822-.0469.1794-.0601.2711-.037.0918.0231.1711.0808.2213.1611.0502.0802.0674.1767.0481.2694-.0194.0926-.0738.1742-.1518.2276l-1.8745 1.2702 1.5334-.8866c.0821-.0444.1781-.0558.2683-.0319.0902.0238.1679.0812.2173.1604s.0667.1743.0484.2658-.0707.1726-.1468.2268l-.594.3989.209-.1202c.0817-.0471.1784-.0609.27-.0386s.171.079.2219.1584c.0509.0793.0692.1752.0512.2678-.0179.0925-.0709.1746-.1478.2291l-2.0152 1.4285 1.4667-.847c.0801-.0456.1744-.0595.2643-.0387.0898.0208.1685.0747.2204.1509s.0732.1692.0596.2604-.0611.1739-.1329.2317l-2.5476 2.0167 1.4461-.8338c.0838-.0439.1813-.0536.2721-.0273.0909.0264.168.0868.2153.1687.0474.0819.0612.1789.0387.2707-.0225.0919-.0796.1715-.1594.2222l-5.7853 3.3389c-.0556.0324-.1189.0493-.1833.0491z" fill="#ad2351"/><path d="m28.372 26.7119c-.0777-.0001-.1534-.0248-.2161-.0706-.0627-.0459-.1092-.1104-.1329-.1844-.0236-.074-.0232-.1536.0013-.2273s.0718-.1377.135-.1828l1.32-.9394-2.6532 1.5319c-.0798.045-.1736.0584-.2628.0377-.0893-.0207-.1676-.074-.2194-.1495-.0519-.0755-.0736-.1677-.0609-.2585.0127-.0907.0589-.1734.1295-.2318l3.5009-2.8358-5.0028 2.8879c-.0813.0467-.1775.0604-.2687.0384-.0912-.0221-.1705-.0783-.2215-.157-.051-.0788-.0699-.1741-.0528-.2663.0171-.0923.069-.1744.1448-.2296l1.3787-.9944-2.0203 1.166c-.0797.047-.1743.0622-.2647.0424s-.17-.073-.2228-.149-.0749-.1692-.0619-.2608.0602-.175.1321-.2332l2.3826-1.9617-1.9441 1.1205c-.0759.0441-.1651.0595-.2514.0433-.0864-.0161-.164-.0627-.2189-.1312-.0548-.0686-.0833-.1546-.0802-.2423.0032-.0877.0377-.1715.0973-.2359l1.4425-1.5649-.7583.44c-.0709.0403-.1533.0559-.2341.0441s-.1554-.0502-.2119-.1091-.0917-.1351-.1-.2163c-.0084-.0812.0106-.1629.054-.2321l.3857-.6013c-.0824-.0288-.1517-.0863-.1951-.1621-.0486-.0842-.0618-.1843-.0366-.2782s.0866-.174.1708-.2226l.85-.4906c.0709-.0404.1533-.056.2341-.0442s.1554.0502.2119.1091c.0565.059.0917.1351.1.2163.0084.0812-.0106.1629-.054.2321l-.2339.3667 1.5246-.88c.0759-.0436.1648-.0586.2507-.0424.086.0163.1633.0627.218.131.0547.0682.0832.1538.0804.2412-.0029.0875-.0369.171-.0959.2356l-1.4425 1.5686 3.6968-2.134c.0797-.0471.1742-.0622.2646-.0425.0904.0198.17.073.2228.149s.075.1692.0619.2608c-.013.0917-.0602.175-.1321.2333l-2.3833 1.9631 4.4403-2.5667c.0814-.0467.1776-.0604.2688-.0383.0912.022.1704.0782.2215.157.051.0787.0699.174.0528.2662-.0172.0923-.069.1745-.1449.2297l-1.3764.9892 2.7866-1.6082c.0799-.0458.174-.0598.2638-.0394.0897.0204.1685.0738.2207.1497.0521.0758.0739.1684.0609.2596-.013.0911-.0598.174-.131.2322l-3.5024 2.8373 5.28-3.05c.0817-.0487.1791-.0637.2717-.0419s.1731.0788.2245.1588c.0514.0801.0697.1769.051.2702s-.073.1756-.1512.2297l-1.32.9386 1.111-.6416c.0789-.046.1721-.0609.2614-.0417s.1683.071.2214.1453.0766.1657.0658.2564-.055.1742-.124.234l-.8133.7091.539-.3109c.0722-.0417.1565-.0575.2389-.0448s.158.053.2144.1144c.0564.0615.0901.1403.0957.2234.0056.0832-.0173.1658-.065.2342l-.5229.751.1885-.1093c.0576-.0333.1231-.0503.1896-.0491.0665.0011.1314.0202.1878.0554.0565.0352.1023.0851.1325.1443.0303.0592.0439.1255.0394.1919l-.0558.8264c.0535.0336.0974.0804.1275.136.0301.0555.0453.1179.0442.181s-.0185.1249-.0505.1794c-.032.0544-.0775.0997-.1322.1314l-.2024.1173c-.0575.0333-.1231.0503-.1896.0491-.0665-.0011-.1314-.0203-.1878-.0554-.0564-.0352-.1022-.0851-.1325-.1443s-.0439-.1255-.0393-.1919l.0403-.5925-1.0193.5867c-.0723.0416-.1565.0574-.2389.0447-.0824-.0126-.158-.053-.2144-.1144s-.0902-.1402-.0957-.2234c-.0056-.0832.0173-.1658.065-.2342l.5236-.7502-2.3768 1.3721c-.0789.0459-.1721.0608-.2614.0416-.0894-.0191-.1683-.0709-.2214-.1453-.0531-.0743-.0766-.1657-.0658-.2564s.055-.1741.124-.2339l.814-.7099-4.5085 2.6019c-.0548.0328-.1173.0505-.1811.0513z" fill="#e6e6ea"/><path d="m12.7981 37.0111c-.0738-.0001-.1458-.0224-.2067-.0641s-.1078-.1007-.1346-.1695-.0322-.144-.0155-.2159.0547-.1371.109-.187l2.3254-2.1362-3.982 2.299c-.0802.0501-.1767.0673-.2692.048-.0926-.0193-.1741-.0736-.2276-.1516-.0534-.078-.0747-.1736-.0594-.2669.0154-.0933.0662-.1771.1418-.2338l3.2766-2.6591-3.2839 1.8979c-.0816.0465-.1778.06-.269.0376-.0912-.0223-.1703-.0788-.22111-.1578-.05077-.079-.06931-.1744-.0518-.2667.01751-.0922.06973-.1742.14591-.2291l1.0171-.7238-.6211.3579c-.0814.0467-.1776.0604-.2687.0383-.0912-.022-.1705-.0782-.22152-.1569-.05102-.0788-.06992-.1741-.0528-.2663.01712-.0923.06895-.1745.14482-.2297l1.4535-1.0494-1.0553.6094c-.0808.0464-.1762.0602-.2669.0387-.0906-.0215-.1697-.0767-.22108-.1543-.05143-.0777-.07138-.172-.0558-.2639.01559-.0918.06554-.1742.13968-.2306l2.511-1.8935-2.1069 1.2166c-.0807.0451-.1754.058-.2652.0362s-.168-.0767-.21908-.1537c-.05105-.077-.07116-.1705-.05629-.2617.01487-.0911.06363-.1734.13647-.2302l2.5843-1.9558-2.1802 1.2577c-.0805.0459-.1753.0597-.2655.0385-.0902-.0211-.169-.0756-.22065-.1525-.05164-.0769-.07226-.1705-.05771-.262.01454-.0915.06318-.1741.13616-.2312l3.0228-2.3423-2.6151 1.51c-.08.0463-.1746.0606-.2648.0401-.0901-.0204-.1692-.0742-.22141-.1505-.0522-.0763-.07365-.1695-.06005-.261.0136-.0914.06125-.1743.13336-.2322l3.5054-2.8204-3.0925 1.7842c-.0794.0456-.173.0597-.2623.0398-.0893-.02-.168-.0727-.22044-.1477-.05248-.075-.07501-.1669-.06317-.2576.01185-.0908.05721-.1738.12721-.2329l2.86-2.3943-2.4413 1.4087c-.0771.0434-.1673.0574-.254.0395-.0866-.0179-.1639-.0665-.2175-.1369-.05355-.0704-.07989-.1578-.07411-.2461s.04329-.1715.10561-.2343l1.551-1.532-1.1103.641c-.072.0415-.156.0573-.2382.0448-.0821-.0125-.1576-.0526-.2141-.1136-.0564-.061-.09042-.1394-.09644-.2223-.00603-.0829.0163-.1654.06331-.234l.54703-.7942c-.07.0067-.1405-.0068-.2031-.0391-.0625-.0322-.1145-.0818-.1496-.1428-.0487-.0841-.062-.1841-.0369-.278.025-.0939.0863-.1741.1704-.2228l1.2151-.7011c.0721-.0418.1563-.0578.2387-.0453.0824.0124.1581.0526.2146.1138.0566.0612.0905.1399.0964.223.0058.0831-.0168.1658-.0642.2343l-.5038.7333 2.178-1.2584c.0772-.0439.1677-.0583.2548-.0406.087.0178.1647.0666.2184.1373.0538.0708.0801.1586.074.2472-.0061.0887-.0442.1721-.1072.2347l-1.5525 1.532 3.6175-2.0893c.0796-.0465.1737-.0614.2637-.0417s.1693.0726.2221.1481.0752.1682.0628.2595c-.0125.0913-.0588.1746-.1298.2332l-2.86 2.3966 3.5566-2.0534c.08-.046.1743-.0602.2643-.0397.0899.0204.1688.074.221.1501.0522.076.0738.169.0605.2602-.0133.0913-.0605.1742-.1322.2322l-3.5024 2.819 3.1732-1.8334c.0804-.0459.1753-.0596.2655-.0385.0901.0212.169.0757.2206.1526.0517.0769.0723.1705.0577.262-.0145.0915-.0631.1741-.1361.2311l-3.0257 2.3408 2.618-1.5106c.0807-.045.1754-.058.2651-.0362.0898.0218.1681.0767.2191.1537.0511.077.0712.1705.0563.2617-.0148.0912-.0636.1734-.1365.2302l-2.5813 1.9536 2.1773-1.257c.0808-.0463.1762-.0601.2668-.0386.0907.0215.1697.0767.2212.1543.0514.0777.0713.172.0557.2638-.0155.0919-.0655.1743-.1397.2307l-2.5138 1.8949 2.1098-1.2173c.0813-.0467.1775-.0605.2687-.0384s.1705.0783.2215.157.0699.174.0528.2663c-.0171.0922-.069.1744-.1448.2296l-1.4491 1.0465 1.0509-.6065c.0814-.045.1768-.0574.267-.0346.0902.0227.1683.0789.2187.1571.0503.0782.069.1726.0524.2641-.0167.0915-.0675.1732-.1421.2287l-1.0216.7282.6256-.3616c.0799-.0469.1747-.0618.2652-.0417.0905.0202.17.0739.2225.1503.0526.0764.0742.1698.0606.2616-.0137.0917-.0615.1748-.134.2326l-3.2743 2.6576 2.86-1.6514c.078-.0441.1696-.0581.2572-.0393.0877.0189.1654.0691.2185.1414.0531.0722.0779.1614.0697.2507s-.0488.1725-.1142.2338l-2.3262 2.1362 1.895-1.0941c.0738-.0425.16-.0581.244-.0439.084.0141.1605.057.2163.1214.0557.0644.0874.1462.0894.2313.0021.0852-.0256.1684-.0782.2353l-.9944 1.2672.5067-.2933c.0418-.0265.0884-.0443.1372-.0524.0488-.008.0987-.0061.1468.0057.048.0118.0932.0331.1327.0628.0396.0297.0727.067.0975.1099.0247.0428.0406.0901.0465.1392.006.0491.002.0989-.0118.1464s-.037.0917-.0683.13-.0701.0698-.1139.0927l-2.1487 1.2438c-.0737.0426-.1599.0582-.2439.0442-.084-.0141-.1605-.0569-.2163-.1211-.0559-.0643-.0876-.146-.0898-.2311s.0253-.1684.0778-.2354l.9936-1.2672-3.1379 1.8106c-.055.033-.1177.0507-.1819.0513z" fill="#e6e6ea"/><g fill="#262626"><path d="m28.069 33.8334c-.198 2.1186.4092 4.5467-.2596 6.5216-1.8685.1239-2.8541 2.7558-.5969 3.1621 2.1501-.2009 4.939.7187 6.7181-.7267 1.0266-1.3384-.3946-2.244-1.54-2.6078-.8067-1.9066-.0998-4.356-.3271-6.4438 1.7417-.5459 3.2209-1.715 4.1545-3.2834s1.256-3.4261.9055-5.2174c-.3901-1.8971.341-5.6796-2.6576-5.0563-2.6356.6365-10.7067-1.661-11.0257 1.6713-1.0178 4.5246-.8536 10.6736 4.6288 11.9804zm3.3301 6.7416c.3821.3204.924.2933 1.32.58.5089.3667.7656 1.6552-.0491 1.8458-1.6933-.3938-5.1964 1.0876-5.7354-1.1242-.0049-.2781.099-.5472.2895-.7499s.4526-.323.7305-.3354c2.3247-1.0729.7334-4.675 1.1734-6.7621.6229.0675 1.252.054 1.8714-.0403.264 2.1186-.5661 4.6904.3997 6.5861zm-6.8523-19.0447c-.3732-1.4351 7.326-.3146 8.7898-.6497 2.9106-.7774 2.3173 1.9858 2.659 3.9556-4.0854-1.0729-7.9522 2.9428-11.8954.2361.0998-1.1865.2464-2.3679.4466-3.542zm-.5074 4.4c4.0333 2.5718 7.9669-1.9067 12.0266-.2897 1.5239 9.8993-13.0394 10.1486-12.0266.2868z"/><path d="m6.80235 41.9391c.81987 3.1585 8.17525.9475 10.89075 1.5745 1.7197.2347 3.74-.5192 3.3733-2.5857v-19.4275c-.66-9.6712-5.6334-3.5831-4.4-16.95834 1.2335-.59473.66-2.42.6688-3.52-.8015-1.141801-2.6011-.384268-3.8023-.594001-.9761.064533-2.2829-.293334-2.9282.654871-.1298 1.02666-.63728 3.09026.5977 3.55886-.1269 2.86.2588 5.80581-.1592 8.61671-.7289.9936-1.96311 1.6419-2.58058 2.7698-3.59627 7.8606-.90127 17.4372-1.66027 25.9108zm5.46185-36.86831v-.36666h3.3382v4.4616h-3.2824c-.0147-1.36987-.0558-2.739-.0558-4.09494zm-.6688-3.96c.0206-.02301.0395-.04752.0565-.07333 3.0404.28453 5.5535-1.370601 4.5665 3.05947-3.0529-.32414-5.4384 1.43953-4.623-2.98907zm-3.73118 39.36311c1.1-8.4186-2.83873-19.0336 2.88278-26.0377 1.7035-1.0047 1.6294-2.7691 1.5744-4.53494h3.281c.077 1.58324-.4628 3.44664 1.1462 4.42644 6.3125 6.754 2.758 14.1731 3.2552 27.3372.0492 1.3141-7.0319.7553-9.3082 1.3552-1.90958.294-3.24131-.4188-2.83138-2.5462z"/><path d="m11.3974 36.9158c2.178-.2677 6.7965 1.152 6.7342-2.2734-.5757-3.388 1.2965-10.535-.9959-12.76-5.6004-.4128-8.19498-1.0398-7.40005 5.7134.56465 2.4699-1.518 8.7406 1.66175 9.32zm.2992-14.663c2.0783 0 5.9884-.8954 5.3717 2.3936-.4987 2.5248 1.1425 10.8005-.8969 11.7656-2.3899-.0088-6.1219.9166-5.3731-2.7691.495-2.4713-1.13451-10.4449.8983-11.3901z"/></g></svg>