<svg fill="none" height="44" viewBox="0 0 44 44" width="44" xmlns="http://www.w3.org/2000/svg"><path d="m22.0086 43.6114c-.077 0-.152-.0242-.2144-.0692s-.1091-.1085-.1335-.1815c-.0243-.073-.0251-.1519-.0021-.2253.0229-.0735.0684-.1379.13-.184l.3373-.2545-1.4989.8631c-.0796.0452-.1732.0589-.2624.0386-.0891-.0203-.1675-.0732-.2197-.1484-.0522-.0751-.0744-.167-.0623-.2577.0122-.0907.0578-.1735.1278-.2323l1.9067-1.5738-3.2897 1.8994c-.0805.0469-.1758.0614-.2666.0405-.0908-.0208-.1703-.0754-.2222-.1527-.052-.0773-.0727-.1714-.0577-.2634.0149-.0919.0642-.1747.138-.2316l1.0267-.7964-1.2738.7333c-.0789.0452-.1718.0595-.2607.0401s-.1673-.0712-.2202-.1452c-.0528-.0741-.0762-.1651-.0657-.2554.0105-.0904.0543-.1736.1227-.2335l1.0597-.9196-1.0267.5911c-.0725.0416-.1572.0572-.2398.0442-.0826-.0131-.1583-.054-.2145-.116s-.0894-.1413-.0943-.2249c-.0049-.0835.019-.1662.0675-.2343l.8001-1.1117-.7935.4576c-.0581.0344-.1248.0517-.1924.05-.0675-.0017-.1332-.0223-.1896-.0595-.0566-.0366-.1019-.088-.1312-.1487-.0292-.0607-.0412-.1282-.0346-.1953l.069-.6944c-.0751-.0118-.1446-.0465-.1991-.0995-.0544-.053-.0911-.1216-.1049-.1963-.0137-.0748-.0039-.1519.028-.2208.032-.0689.0846-.1262.1506-.164l.3666-.2119c.0587-.0333.1253-.05.1928-.0483.0674.0017.1331.0217.19.0578.0566.0368.1019.0884.131.1492s.0409.1284.034.1955l-.0586.594 1.6507-.9533c.0726-.0417.1572-.0573.2398-.0442.0827.013.1583.054.2145.116.0562.0619.0895.1413.0943.2248.0049.0835-.0189.1662-.0675.2343l-.7994 1.1117 2.8549-1.6478c.079-.0461.1724-.061.2619-.0418s.1685.0712.2216.1457.0764.1662.0654.257-.0556.1742-.125.2339l-1.0582.9181 2.6282-1.5173c.0805-.0469.1758-.0614.2666-.0405.0908.0208.1703.0754.2223.1527s.0726.1715.0577.2634c-.015.092-.0643.1748-.1381.2316l-1.0267.795 2.4369-1.4066c.0797-.047.1743-.0621.2647-.0424.0904.0198.17.073.2228.149s.0749.1692.0619.2608-.0602.175-.1321.2332l-1.9067 1.5745 2.86-1.65c.0808-.0453.1757-.0584.2658-.0366.09.0218.1685.0769.2195.1542.0511.0772.0711.171.0559.2624-.0153.0913-.0645.1736-.1379.2301l-.6028.4547c.0614-.0009.1222.0128.1773.04.055.0271.1029.067.1395.1162.0527.0751.0753.1673.0633.2582-.0119.091-.0575.1742-.1278.2331l-.5691.4774c.0681.0213.1286.0619.1739.117.0454.0551.0737.1222.0815.1931.0077.0709-.0053.1425-.0376.2061-.0324.0636-.0825.1164-.1444.1519l-2.8175 1.6287c-.0793.0446-.1723.0582-.2611.038-.0887-.0202-.1667-.0726-.2189-.1472-.0522-.0745-.0749-.1657-.0635-.256.0113-.0903.0558-.1731.1248-.2324l.0469-.0396-1.1044.6372c-.0554.0332-.1187.051-.1833.0514z" fill="#d1cfdb"/><path d="m17.2517 34.8334c-.0784 0-.1547-.0251-.2178-.0716s-.1096-.112-.1327-.1869-.0217-.1552.0042-.2292c.0259-.0739.0747-.1377.1395-.1819l5.3064-3.6226-5.8982 3.4041c-.0822.0477-.1797.0616-.2719.0389-.0922-.0228-.172-.0804-.2226-.1608-.0505-.0804-.0679-.1773-.0485-.2703.0195-.093.0743-.1748.1528-.2282l7.359-5.0182-8.1942 4.7307c-.0828.0482-.1811.062-.2739.0386-.0929-.0233-.1729-.0821-.223-.1637-.05-.0816-.0662-.1795-.0451-.2729.0212-.0934.0781-.1747.1584-.2268l6.3536-4.1264-6.3198 3.649c-.0834.0502-.1832.0652-.2776.0418-.0945-.0235-.1757-.0834-.2259-.1668-.0501-.0833-.0652-.1832-.0417-.2776.0234-.0944.0834-.1756.1668-.2258l2.5138-1.5789-2.167 1.2511c-.0822.0443-.1783.0555-.2686.0314-.0903-.0242-.1679-.0819-.2171-.1614-.0491-.0795-.0661-.1747-.0474-.2663.0188-.0916.0717-.1725.1481-.2263l9.7328-6.4189-9.5164 5.4949c-.0828.0481-.1811.062-.2739.0386-.0929-.0234-.1729-.0822-.223-.1638-.05-.0816-.0662-.1795-.0451-.2729.0212-.0933.0781-.1747.1584-.2267l8.9584-5.8264-8.8469 5.1055c-.0834.05-.1833.0648-.2777.0411-.0943-.0236-.1754-.0838-.2254-.1672-.05-.0835-.0647-.1833-.0411-.2777.0237-.0943.0838-.1754.1673-.2254l2.0423-1.2709-1.8876 1.0934c-.0828.0482-.1811.062-.2739.0386-.0928-.0233-.1728-.0821-.2229-.1637s-.0663-.1795-.0451-.2729c.0211-.0934.078-.1747.1584-.2268l9.2598-6.0045-9.3082 5.3731c-.0827.0462-.18.0586-.2717.0347-.0916-.024-.1704-.0824-.2198-.1632-.0495-.0807-.0658-.1775-.0456-.27.0203-.0925.0756-.1736.1543-.2263l9.3324-6.039-9.4725 5.467c-.0827.0455-.1798.0574-.2711.0331-.0912-.0243-.1695-.0829-.2187-.1635-.0491-.0806-.0653-.1771-.0451-.2693s.0752-.1731.1536-.2258l8.5954-5.5176-8.7795 5.0688c-.0833.048-.182.0614-.2751.0373-.093-.0241-.1728-.0837-.2223-.1661-.0495-.0823-.0647-.1808-.0423-.2743s.0806-.1744.162-.2254l3.8757-2.42-3.96 2.2866c-.0833.0502-.1832.0652-.2776.0417-.0944-.0234-.1757-.0834-.2258-.1668-.0502-.0833-.0652-.1832-.0418-.2776.0235-.0944.0835-.1756.1668-.2258l5.1385-3.2223-5.2976 3.0573c-.0828.0449-.1797.0562-.2706.0316-.0909-.0247-.1688-.0833-.2176-.1638-.0489-.0805-.0649-.1767-.0447-.2687s.075-.1727.153-.2254l7.92-5.0424-8.1811 4.7227c-.0832.0451-.1806.0563-.2718.0313-.0913-.0251-.1693-.0845-.2178-.1657-.0485-.0813-.0637-.1782-.0424-.2704s.0774-.1726.1566-.2244l1.6206-1.0017-1.6463.9533c-.0831.0458-.1808.0576-.2724.0328-.0917-.0247-.1701-.084-.2189-.1654-.0489-.0814-.0642-.1785-.0429-.271.0214-.0925.0777-.1731.1573-.2249l4.0421-2.5212-4.0671 2.3467c-.0829.0508-.1826.0665-.27719.0437-.09455-.0227-.17618-.0821-.22695-.1651-.05076-.0829-.06649-.1826-.04373-.2772.02276-.0945.08215-.1762.1651-.2269l9.47397-6.1138-9.5803 5.5308c-.08271.0495-.18161.0645-.27527.0416-.09366-.0228-.17456-.0816-.22518-.1637-.05062-.082-.06688-.1807-.04528-.2747.02161-.0939.07935-.1756.16073-.2273l10.5732-6.9337-10.59374 6.1168c-.08281.0471-.18072.0602-.27299.0364s-.17164-.0826-.22131-.164c-.04967-.0813-.06573-.1787-.04478-.2717s.07727-.1741.15702-.2263l8.2302-5.3071-8.06667 4.6581c-.0824.0449-.17886.0564-.26952.0323s-.16863-.0821-.21786-.1619c-.04923-.0799-.06598-.1756-.0468-.2674s.07283-.1728.14991-.2263l9.10144-5.98326-8.81617 5.08936c-.08281.0471-.18072.0602-.27299.0364s-.17165-.0826-.22131-.164c-.04967-.0813-.06573-.1787-.04478-.2717s.07726-.1741.15701-.2263l6.34704-4.09709-5.90484 3.40849c-.08228.0462-.17917.0588-.27053.0353-.09137-.0234-.17017-.0812-.22003-.1613-.04985-.0801-.06693-.1763-.04768-.2686.01925-.0924.07334-.1737.15104-.2272l7.81954-5.23456-7.1588 4.13456c-.08282.0471-.18073.0602-.27299.0364-.09227-.0238-.17165-.0826-.22132-.164-.04967-.0813-.06573-.1787-.04478-.2717s.07727-.1741.15702-.2263l3.18487-2.05916-2.4376 1.40656c-.08235.0454-.17901.0575-.27001.0337-.09099-.0238-.16936-.08166-.2189-.16161-.04953-.07996-.06645-.17589-.04725-.26797s.07306-.17325.15042-.22674l3.56474-2.36427-2.5667 1.47987c-.0819.04625-.1784.05925-.2697.03631-.09119-.02294-.17011-.08006-.22041-.15955-.05029-.07949-.06811-.17528-.04977-.26754s.07144-.17394.14831-.22816l3.18487-2.19853-1.7123.9878c-.0805.04592-.1753.05968-.2655.03852-.0902-.02115-.169-.07566-.2207-.15257-.0516-.0769-.0722-.1705-.0577-.26198.0145-.09149.0632-.17408.1361-.23117l2.5506-1.97193c-.0896-.02635-.1654-.0866-.2112-.16794-.0485-.08406-.0616-.18389-.0366-.27764.025-.09374.0861-.17375.17-.22249l3.74-2.15967c.0806-.04727.1762-.062.2673-.04118s.1707.07562.2228.15321c.052.07759.0725.17212.0572.26428s-.0652.17501-.1395.23163l-1.8678 1.44393 4.9001-2.828466c.082-.0477.1792-.061784.2714-.039296.0921.022489.1719.0798.2227.159901s.0685.176759.0496.269679c-.019.09292-.0733.174872-.1514.228652l-3.1797 2.1934 4.9053-2.832136c.0825-.047864.1805-.06166.273-.038458.0926.023202.1725.081573.2227.162717.0502.081143.0668.178665.0463.271853-.0206.093188-.0766.174694-.1563.227224l-3.564 2.36426 4.7975-2.77053c.0829-.050762.1826-.066493.2772-.043733.0945.022761.1762.082149.2269.1651.0508.082951.0665.18267.0438.277223-.0228.09455-.0822.17618-.1651.22694l-3.1834 2.05554 4.0912-2.36207c.0821-.044391.1781-.055806.2683-.031917.0902.023887.1679.081277.2173.160487.0494.0792.0667.17424.0484.26577-.0183.09152-.0708.17263-.1468.22679l-7.8188 5.2404 9.0662-5.23453c.0411-.02513.0867-.04193.1343-.04944.0476-.0075.0961-.00556.1429.00571.0469.01127.091.03165.1299.05998.039.02832.072.06404.0971.10512.0251.04107.0419.08669.0494.13426.0075.04756.0056.09614-.0057.14296-.0112.04681-.0316.09095-.0599.12989-.0284.03894-.0641.07192-.1052.09705l-6.3506 4.10667 7.1353-4.11987c.0827-.04953.1816-.06449.2753-.04165.0936.02285.1745.08166.2251.16371.0507.08205.0669.18074.0453.27469-.0216.09396-.0793.17562-.1607.22732l-9.0985 5.97227 9.9734-5.75814c.0825-.04371.1786-.05429.2686-.02958.0901.02472.1673.08286.216.16258.0486.07971.065.17498.0458.26638-.0192.09139-.0725.17202-.1491.22542l-8.2287 5.3064 8.8432-5.104c.0825-.04613.1796-.05863.2711-.03491.0914.02372.1702.08185.2199.16224.0496.0804.0663.17687.0466.26928s-.0744.17363-.1526.22673l-10.5754 6.93442 11.234-6.48709c.0826-.04619.18-.0586.2716-.03465.0916.02396.1704.08244.2199.16319.0494.08074.0658.1775.0455.27-.0203.09251-.0755.17359-.1542.22626l-9.4784 6.12189 9.8978-5.72002c.0833-.04801.1821-.06141.2751-.03732.093.02408.1729.08373.2224.1661s.0647.18088.0423.27433-.0806.17438-.1621.22535l-4.0267 2.51094 4.1418-2.39067c.0832-.04511.1806-.05631.2719-.03125.0913.02505.1693.08442.2178.16569.0485.08126.0637.17813.0424.27034s-.0774.17263-.1566.22442l-1.6353 1.01127 1.6507-.95334c.0831-.05047.1829-.06584.2774-.04274.0945.02311.1759.0828.2264.16594.0505.08315.0658.18294.0427.27742s-.0828.17591-.1659.22638l-7.92 5.04096 8.0337-4.63836c.0832-.048.182-.0614.275-.03732.0931.02409.1729.08373.2224.1661s.0647.18089.0423.27434-.0806.17437-.1621.22535l-5.1333 3.21929 5.0967-2.94136c.0829-.04372.1794-.05404.2697-.02883.0902.02522.1674.08404.2157.1644.0482.08036.0639.17614.0437.26767-.0202.09154-.0746.17187-.1522.22452l-3.8823 2.42 3.7694-2.1663c.0829-.0486.1817-.0627.275-.0392.0932.0235.1735.0827.2235.1649.0501.0821.0658.1806.0439.2743-.022.0936-.0798.1749-.1611.2263l-8.5991 5.5176 8.4825-4.8972c.0829-.0508.1827-.0665.2772-.0438.0946.0228.1762.0822.227.1651.0507.083.0665.1827.0437.2773-.0228.0945-.0821.1761-.1651.2269l-9.3309 6.039 9.0984-5.2529c.0411-.0251.0867-.042.1343-.0495.0476-.0076.0962-.0057.1431.0056.0468.0112.091.0315.13.0599.039.0283.072.064.0972.105.0252.0411.042.0867.0495.1343.0076.0476.0057.0962-.0055.1431-.0113.0468-.0316.091-.0599.13s-.0641.072-.1051.0972l-9.251 6.0001 8.8638-5.1172c.083-.0443.1799-.0551.2707-.0299.0907.0251.1683.0842.2166.165.0484.0808.0638.1771.0431.2689-.0207.0919-.0759.1722-.1542.2245l-2.0365 1.2679 1.5591-.9005c.0826-.0462.18-.0586.2716-.0347.0916.024.1704.0825.2199.1632.0494.0808.0657.1775.0455.27-.0203.0925-.0755.1736-.1542.2263l-8.9636 5.83 8.2361-4.7557c.0826-.0479.1805-.0616.2731-.0384.0925.0232.1724.0815.2226.1627.0502.0811.0668.1786.0463.2718s-.0766.1747-.1563.2272l-9.732 6.416 8.566-4.9456c.083-.045.1801-.0562.2712-.0314.091.0249.169.0839.2177.1648.0486.0808.0642.1773.0435.2694s-.0761.1727-.1547.2249l-2.5263 1.5869 1.364-.7876c.0827-.0481.181-.0619.2739-.0385.0928.0233.1728.0821.2229.1637s.0663.1795.0451.2729c-.0212.0933-.078.1747-.1584.2267l-6.3565 4.1287 4.5466-2.6268c.0819-.0445.1777-.0561.2679-.0325s.168.0807.2176.1596.0673.1738.0494.2653c-.0178.0915-.0698.1728-.1455.2273l-7.356 5.0196 5.8175-3.3579c.0822-.0477.1796-.0616.2718-.0389.0923.0228.1721.0804.2226.1609.0506.0804.068.1773.0485.2702-.0194.093-.0742.1748-.1528.2282l-5.3027 3.6205 4.2885-2.4758c.0823-.0461.1792-.0587.2706-.0352.0913.0234.1701.0812.22.1613.0498.0801.0669.1763.0477.2686-.0193.0924-.0734.1737-.1511.2272l-1.9066 1.2826 1.2298-.7099c.0818-.0469.1786-.0605.2702-.0379.0917.0225.1711.0796.2217.1592.0506.0797.0686.1758.0502.2683-.0184.0926-.0718.1745-.1491.2286l-1.7988 1.2533 1.2004-.693c.0807-.0456.1755-.059.2656-.0375.0901.0214.1688.0762.2201.1533.0514.0771.0717.1708.0568.2622s-.0638.1738-.1369.2307l-1.9111 1.4549 1.3933-.8023c.0804-.0465.1755-.0608.266-.04.0905.0209.1698.0753.2217.1523.052.077.0728.1708.0582.2626-.0146.0917-.0634.1745-.1367.2316l-.5463.4246.1005-.0572c.0761-.0436.1654-.0584.2515-.0418.0862.0166.1635.0636.218.1323.0545.0688.0825.1549.079.2425-.0036.0877-.0384.1712-.0983.2353l-2.0716 2.2074c.0058.0693-.0082.1389-.0404.2006-.0322.0616-.0813.1129-.1415.1477l-.3615.2083c-.0762.0436-.1654.0584-.2516.0418-.0861-.0166-.1635-.0636-.218-.1324-.0545-.0687-.0825-.1548-.0789-.2424.0035-.0877.0383-.1712.0982-.2354l.8331-.888-2.5344 1.4608c-.0804.0456-.175.0592-.265.0381-.0899-.0212-.1686-.0755-.2202-.1522-.0516-.0766-.0724-.1699-.0582-.2612.0143-.0913.0624-.1739.1349-.2312l.5463-.4253-1.7944 1.0354c-.0807.0457-.1756.0591-.2657.0376s-.1687-.0763-.22-.1534c-.0514-.0771-.0717-.1707-.0568-.2622.0149-.0914.0638-.1738.1369-.2306l1.9067-1.4535-3.5794 2.0665c-.0819.0487-.1795.0635-.2722.0415-.0927-.0221-.1731-.0794-.2243-.1597-.0511-.0804-.069-.1775-.0499-.2708.0192-.0933.0739-.1755.1526-.2292l1.793-1.2525-3.2472 1.8751c-.0823.0462-.1792.0588-.2705.0353-.0914-.0234-.1702-.0812-.2201-.1613-.0498-.0801-.0669-.1763-.0476-.2686.0192-.0924.0733-.1737.151-.2272l1.9147-1.2856-3.311 1.9111c-.0551.0324-.1179.0496-.1818.0499z" fill="#f4bf39"/><path d="m18.9412 39.9447c-.078-.0001-.1538-.0252-.2166-.0714s-.1092-.1112-.1325-.1856c-.0232-.0744-.0222-.1543.0029-.2281.0252-.0737.0733-.1376.1372-.1822l1.1865-.825-2.4999 1.441c-.0815.0473-.178.0613-.2696.0393s-.1712-.0784-.2223-.1575-.0698-.1749-.0522-.2674c.0175-.0926.0701-.1748.1466-.2297l2.1194-1.5216-3.0551 1.7636c-.0816.0466-.1779.06-.269.0377-.0912-.0224-.1703-.0789-.2211-.1579-.0508-.0789-.0693-.1744-.0518-.2666.0175-.0923.0697-.1743.1459-.2292l1.3706-.976-1.4205.8213c-.078.0424-.1687.055-.2553.0356-.0867-.0195-.1633-.0697-.2157-.1413-.0524-.0717-.077-.1599-.0693-.2484.0077-.0884.0473-.1711.1113-.2326l2.6019-2.343-2.2073 1.2738c-.077.0423-.1665.0556-.2524.0374-.0859-.0181-.1624-.0665-.2157-.1362-.0532-.0698-.0797-.1564-.0745-.244.0051-.0876.0415-.1705.1026-.2336l1.0472-1.0479-.605.3498c-.0686.0409-.1486.0584-.2279.0497-.0793-.0086-.1537-.0429-.2117-.0977-.0581-.0547-.0967-.1269-.11-.2056s-.0006-.1596.0362-.2304l.3667-.7187c-.0805-.0002-.1586-.027-.2224-.0761s-.1096-.1178-.1305-.1955c-.0208-.0778-.0155-.1602.0151-.2346s.0849-.1367.1545-.1772l.8514-.4914c.0685-.0409.1485-.0583.2278-.0497.0793.0087.1537.043.2118.0977.058.0548.0966.127.1099.2057.0134.0787.0006.1595-.0362.2303l-.3263.6388 1.944-1.1242c.077-.0423.1665-.0556.2524-.0374.0859.0181.1624.0665.2156.1362.0533.0698.0798.1564.0746.244-.0051.0876-.0415.1705-.1026.2336l-1.0479 1.0472 2.8138-1.6236c.078-.0424.1687-.055.2554-.0356.0866.0195.1632.0697.2156.1413.0524.0717.077.1599.0693.2484-.0077.0884-.0473.1711-.1113.2325l-2.6026 2.3467 5.0813-2.9333c.0815-.0465.1778-.06.269-.0376.0912.0223.1703.0788.2211.1578.0507.079.0693.1744.0518.2667-.0175.0922-.0698.1742-.1459.2291l-1.3728.9753 2.7602-1.5913c.0815-.0473.1781-.0613.2696-.0393.0916.022.1712.0784.2223.1575s.0698.1749.0523.2674c-.0176.0926-.0701.1748-.1467.2296l-2.1186 1.5217 3.7019-2.1369c.0816-.0443.177-.0559.2668-.0325.0899.0233.1675.0798.2173.1582s.068.1727.051.264c-.0171.0912-.0681.1726-.1428.2277l-1.1836.8236 1.9309-1.1147c.0805-.0447.175-.0575.2646-.0357.0895.0218.1676.0765.2187.1532.051.0768.0713.1699.0567.2609-.0145.0911-.0628.1733-.1352.2303l-2.6312 1.9983 2.3466-1.3523c.0802-.045.1744-.0584.2639-.0373s.1678.0751.2194.1512c.0516.0762.0727.1689.0591.2599s-.0608.1735-.1324.2312l-1.3809 1.0912.9709-.5595c.0781-.0441.1696-.058.2573-.0392s.1654.0691.2185.1413c.0531.0723.0779.1615.0697.2508-.0082.0892-.0489.1724-.1143.2338l-.9181.8418.4869-.2808c.0728-.0419.1577-.0575.2406-.0442.0828.0132.1587.0544.2148.1168s.0892.1422.0936.226-.0201.1666-.0694.2345l-.4884.671c.0788.0042.1542.0336.2149.084s.1036.119.1222.1957.012.1573-.0189.2299-.0843.1333-.1524.1731l-1.2137.7011c-.0727.0415-.1574.0569-.24.0437-.0827-.0133-.1583-.0545-.2143-.1167-.056-.0621-.0891-.1416-.0937-.2252s.0195-.1662.0684-.2342l.4048-.5551-1.8927 1.0875c-.0781.0441-.1696.0581-.2573.0393-.0877-.0189-.1654-.0691-.2185-.1414-.0531-.0722-.0779-.1614-.0697-.2507s.0489-.1725.1143-.2339l.9188-.8426-2.4742 1.4293c-.0802.046-.1748.0599-.2649.0391-.09-.0208-.1689-.0748-.2208-.1513s-.073-.1697-.0591-.2611.0618-.1741.1341-.2317l1.3809-1.0883-2.9334 1.6933c-.0806.0456-.1755.059-.2656.0376-.0901-.0215-.1687-.0763-.2201-.1534-.0513-.0771-.0716-.1708-.0568-.2622.0149-.0914.0638-.1738.137-.2307l2.6312-2.002-4.5247 2.6107c-.0555.033-.1187.0507-.1833.0513z" fill="#e0dfe5"/><g fill="#262626"><path d="m29.8982 30.5513c-.0733-6.2832 6.1336-10.3657 5.8381-16.6658-.0154-15.57669-22.6938-18.41249-26.94489-3.6087-2.30854 6.38 2.43169 11.3769 4.67209 16.8667 1.045 2.0731-.2457 5.2917 1.98 6.6095-1.0069.8067-1.1228 6.2333.924 6.0639.6438 1.7681 1.2525 4.0334 3.5933 3.7004 3.4657.1174 6.9439.531 7.6267-3.795 2.046-.0542 2.0386-5.1978 1.0222-6.0976 1.1543-.66 1.2592-1.8715 1.2885-3.0734zm-4.213 11.4348c-.7333 1.9067-3.4027.7216-4.9867 1.0304-2.0533.4312-2.5813-1.6544-3.1438-3.1614 3.003-.0514 5.9906-.0044 8.9922-.0198-.2882.7179-.5713 1.4351-.8617 2.1508zm1.6727-2.6216c-2.6774-.6894-12.3141 1.955-11.4268-2.2961h12.1382c-.0404.6512.2478 2.1839-.7114 2.2961zm.7114-4.3267v1.2232h-12.1382c-.0168-.7128.025-1.6427-.0044-2.2961.0066-.0058.0286-.0058.0389-.0095 2.1575.9621 12.3075-1.2349 12.1037 1.0861zm-.9475-1.6705c-19.15026.8514-7.0525-1.3626-16.6349-14.1644-3.69529-7.6794 1.8509-17.54202 10.4397-18.06856 12.6346-.841131 17.6917 14.63216 9.6023 23.20416-2.0123 2.3195-.6982 8.9782-3.4071 9.0324z"/><path d="m26.6495 9.56095c-2.4875 3.19735-4.9744 6.39495-7.4609 9.59275-.7429-.5493-2.0358-2.7867-2.8204-1.4483l2.2814 2.2821c2.8372-.9783 5.5322-6.8435 7.9801-9.2077.4906-.6373 1.8187-2.01525.0198-1.21885z"/></g></svg>