<svg fill="none" height="44" viewBox="0 0 44 44" width="44" xmlns="http://www.w3.org/2000/svg" xmlns:xlink="http://www.w3.org/1999/xlink"><clipPath id="a"><path d="m0 0h44v44h-44z"/></clipPath><g clip-path="url(#a)"><g fill="#8ba820"><path d="m28.7364 23.4066c-.0714.0001-.1412-.0207-.201-.0598-.0597-.039-.1067-.0947-.1353-.1601s-.0375-.1377-.0255-.208c.0119-.0704.0441-.1358.0926-.1881l.1247-.1342-.3872.22c-.0762.0436-.1656.0584-.2518.0417s-.1635-.0638-.218-.1327c-.0544-.0689-.0823-.1551-.0786-.2428s.0388-.1712.0989-.2353l.2647-.2801-.3439.1987c-.0755.0436-.1641.0589-.2498.0431s-.163-.0616-.218-.1292c-.0551-.0677-.0842-.1527-.0822-.2398.0021-.0872.035-.1708.0931-.2358l.4767-.5346-.5398.3117c-.0715.041-.1547.0568-.2363.0447-.0815-.012-.1566-.0512-.2132-.1112-.0565-.0601-.0912-.1374-.0984-.2195-.0072-.0822.0135-.1643.0588-.2332l.9262-1.4007-1.1689.6739c-.0722.0414-.1562.057-.2384.0443-.0822-.0128-.1576-.053-.2139-.1143-.0563-.0612-.0901-.1397-.0958-.2227-.0058-.0829.0168-.1654.0641-.2338l.9533-1.3691-1.1037.6365c-.0756.0431-.1641.0579-.2496.0417s-.1625-.0622-.2172-.13c-.0547-.0677-.0835-.1527-.0812-.2397.0022-.087.0353-.1704.0934-.2352l.5551-.6101-.4987.2867c-.0732.0418-.1586.057-.2417.0432-.0832-.0138-.1591-.0558-.2149-.119-.0557-.0632-.0881-.1437-.0914-.2279-.0034-.0843.0223-.1671.0728-.2346l.9658-1.276-.9834.5669c-.0775.0467-.1696.063-.2585.0459-.0889-.0172-.1684-.0666-.223-.1388s-.0806-.1621-.0729-.2523c.0076-.0902.0484-.1744.1144-.2363l.1357-.1313c-.0771.0317-.1627.0362-.2427.0127-.08-.0234-.1496-.0735-.1973-.1418-.0478-.0683-.0708-.1509-.0653-.2341.0054-.0831.0391-.162.0954-.2235l.66-.7142-.5134.297c-.0731.0422-.1586.0579-.242.0443-.0834-.0135-.1596-.0554-.2156-.1186-.0561-.0632-.0886-.1438-.092-.2283-.0035-.0844.0223-.1674.073-.235l1.1462-1.5216-1.0619.6123c-.0775.0459-.1692.0618-.2576.0444-.0884-.0173-.1673-.0666-.2217-.1384s-.0804-.1611-.0732-.2509c.0073-.0898.0473-.1738.1125-.2359l.3153-.3058-.0733.0418c-.0741.0427-.1609.0582-.2452.0437-.0844-.0144-.161-.058-.2166-.123s-.0868-.1475-.088-.233c-.0012-.0856.0275-.1689.0812-.2355l1.1557-1.4249-.9702.5588c-.0776.0438-.1686.0577-.2558.0392-.0872-.0184-.1647-.068-.218-.1394-.0532-.0715-.0787-.1599-.0715-.2487.0071-.0889.0464-.1721.1105-.2341l.3109-.2933-.0161.0095c-.0418.0266-.0884.0444-.1372.0524s-.0987.0061-.1468-.0057c-.048-.0117-.0932-.0331-.1327-.0628-.0396-.0296-.0727-.067-.0975-.1098-.0247-.0428-.0406-.0902-.0465-.1393-.006-.0491-.002-.0989.0118-.1464s.037-.0917.0683-.12995c.0314-.03828.0701-.06983.1139-.09275l2.7089-1.5642c.0782-.04833.1716-.06557.2618-.0483.0903.01727.1707.06778.2255.14155.0548.07376.0799.1654.0703.25677-.0096.09138-.0531.17583-.122.23665l-.3124.29333c.0745-.04083.1609-.05454.2444-.03877.0834.01577.1588.06004.2133.12523.0544.0652.0846.14728.0852.23222.0007.08495-.0282.16749-.0816.23352l-1.1543 1.4241.9248-.5331c.0775-.0459.1691-.0618.2575-.0444.0884.0173.1674.0666.2218.1384.0543.0718.0804.1611.0732.2509-.0073.0898-.0473.1737-.1125.2359l-.3168.308.0542-.0315c.0732-.0419.1585-.0572.2417-.0435.0831.0137.159.0556.2149.1187s.0883.1435.0918.2277-.022.167-.0724.2346l-1.1484 1.5217 1.0266-.594c.0758-.0431.1644-.0578.2501-.0414.0856.0163.1626.0626.2171.1306.0546.068.0831.1532.0806.2403-.0026.0871-.0361.1705-.0946.2351l-.66.715.4936-.2845c.0775-.0467.1696-.0631.2585-.0459.0889.0171.1684.0666.223.1388s.0806.1621.0729.2523c-.0076.0902-.0484.1744-.1144.2363l-.1394.135c.0743-.028.1556-.031.2318-.0088.0761.0222.143.0685.1906.132.0476.0634.0734.1406.0734.22 0 .0793-.0258.1565-.0734.22l-.9665 1.2774.9665-.5573c.0757-.0431.1642-.0579.2497-.0417s.1625.0622.2172.13c.0546.0677.0834.1527.0812.2397s-.0353.1704-.0934.2352l-.5537.6087.4855-.2794c.0721-.0415.1561-.0572.2383-.0446.0822.0127.1576.0528.214.1139.0563.0612.0902.1396.0961.2226.0059.0829-.0165.1654-.0637.2339l-.9533 1.3713 1.0956-.6329c.0715-.041.1547-.0568.2363-.0447.0816.012.1567.0512.2132.1112.0566.0601.0912.1374.0984.2195.0072.0822-.0135.1643-.0588.2332l-.9262 1.4007 1.1734-.6747c.0755-.0436.164-.0588.2497-.043.0858.0158.1631.0616.2181.1292s.0841.1527.0821.2398c-.002.0872-.035.1707-.0931.2358l-.4752.5331.5449-.3146c.0762-.0436.1656-.0584.2518-.0417s.1635.0638.218.1327c.0544.0689.0823.1551.0786.2428s-.0388.1712-.0989.2353l-.2647.2801.3175-.1833c.076-.0436.1651-.0585.2512-.0421.086.0164.1634.0631.218.1317.0545.0685.0828.1543.0796.2418-.0032.0876-.0376.1711-.097.2354l-.124.1342.179-.1026c.0838-.0439.1813-.0536.2721-.0273.0908.0264.1679.0868.2153.1687.0473.0818.0612.1788.0387.2707s-.0797.1715-.1595.2222l-2.288 1.32c-.0558.0328-.1193.0503-.184.0506z"/><path d="m22.6218 6.54767c-.0779.00015-.1538-.0245-.2167-.07036-.0629-.04587-.1096-.11058-.1333-.18476-.0237-.07417-.0232-.15397.0015-.22782s.0723-.13792.1358-.18293l1.7534-1.24667c-.0493-.02681-.0917-.06457-.1241-.11037-.0324-.04581-.0539-.09843-.0627-.15383-.0089-.05539-.0049-.11208.0116-.16569.0165-.05362.0451-.10274.0835-.14358l2.2968-2.43613c-.0386-.04008-.0676-.08844-.0848-.1414-.0171-.05296-.022-.10913-.0142-.16426.0077-.05513.028-.10776.0591-.15391.0312-.04614.0724-.08459.1206-.11243l1.0553-.608666c.0762-.043594.1655-.058387.2517-.041687.0863.0167.1636.063783.218.132688.0545.068905.0824.155055.0787.242787-.0038.087732-.0388.171218-.0989.235278l-1.6317 1.73067 2.7075-1.56347c.0816-.04652.1779-.05998.269-.03762.0912.02237.1704.07886.2211.15784.0508.07897.0693.17441.0518.26665s-.0697.17425-.1459.22913l-.2413.17233.0088-.00513c.0838-.04384.1813-.0536.2722-.02725.0908.02635.1679.08678.2153.16865.0473.08188.0611.17888.0386.27073-.0225.09186-.0796.17147-.1594.2222l-6.7525 3.89914c-.056.03292-.1199.05015-.1848.04987z"/><path d="m13.8283 23.6455c-.0713-.0001-.141-.0209-.2007-.06-.0596-.0391-.1065-.0948-.135-.1602-.0285-.0653-.0373-.1376-.0253-.2079.0119-.0703.0441-.1356.0926-.1879l1.199-1.2928-1.4667.844c-.0793.0454-.1727.0594-.2618.0395-.0892-.0199-.1677-.0724-.2202-.1472s-.0752-.1664-.0636-.2571c.0116-.0906.0566-.1736.1262-.2328l1.0934-.9211-.5134.2933c-.0798.0458-.174.0599-.2637.0395s-.1685-.0739-.2207-.1497-.0739-.1685-.0609-.2596c.0129-.0911.0597-.174.131-.2322l1.3486-1.0934-.3865.22c-.0807.0453-.1757.0584-.2657.0366-.0901-.0218-.1685-.0769-.2196-.1542s-.071-.171-.0558-.2624.0644-.1736.1378-.2302l.7143-.5368c-.0741-.0029-.1456-.0282-.205-.0726s-.1039-.1057-.1278-.1759c-.0238-.0702-.0258-.146-.0056-.2174.0201-.0713.0614-.1349.1184-.1823l3.1628-2.6356-1.6133.9291c-.0802.0459-.1748.0599-.2648.0391-.0901-.0208-.1689-.0748-.2209-.1513-.0519-.0765-.073-.1697-.0591-.2611s.0618-.1741.1341-.2317l3.5699-2.8182-1.76 1.0171c-.0816.0459-.1777.0588-.2685.0361s-.1695-.0793-.22-.1581c-.0504-.0789-.0688-.1741-.0513-.266.0174-.092.0694-.1738.1453-.2287l2.2953-1.6214-.6857.3953c-.0813.0474-.1777.0617-.2693.04s-.1713-.0778-.2227-.1567-.0704-.1745-.0532-.267c.0172-.0926.0693-.175.1456-.2301l4.0773-2.97003-1.7879 1.03107c-.0815.0448-.1771.0569-.2672.03387-.0902-.02304-.1682-.07949-.2183-.15793-.0501-.07843-.0685-.17297-.0514-.26446.017-.09149.0682-.17307.1431-.22822l2.3702-1.66393-2.1744 1.25473c-.0731.0423-.1585.05807-.2419.04464-.0834-.01342-.1596-.05522-.2157-.11833s-.0887-.14366-.0923-.22804c-.0036-.08437.022-.16741.0725-.23507l.7048-.94233-.9798.56613c-.0716.04126-.1551.05711-.2368.04497-.0818-.01214-.1571-.05155-.2136-.11184-.0566-.06029-.0911-.13792-.098-.22029s.0143-.16466.06-.23351l.726-1.0868-1.24.71574c-.0716.04134-.155.05729-.2368.04527-.0818-.01203-.1571-.05133-.2137-.11153-.0566-.06019-.0913-.13776-.0983-.22011s.014-.16465.0596-.23357l.7055-1.0626-.6769.39087c-.0671.03876-.1448.05523-.2219.04705s-.1497-.04059-.2072-.09258c-.0575-.05198-.0971-.12087-.113-.19675s-.0074-.15486.0244-.22559l.6321-1.40873c-.0089-.01139-.017-.0234-.0242-.03593-.0464-.08505-.0572-.18501-.0301-.27803.027-.09303.0898-.17156.1746-.21844l.2794-.16133c.0672-.03876.1449-.05523.222-.04705s.1496.04059.2071.09258c.0576.05198.0971.12087.113.19675.016.07588.0074.15486-.0244.22558l-.4062.9042 1.0486-.605c.0716-.04132.1549-.05728.2366-.0453.0818.01198.1571.0512.2137.1113.0567.06019.0914.1378.0985.2202.007.08241-.014.16478-.0596.23374l-.7062 1.06333 1.2466-.72087c.0717-.04125.1551-.0571.2369-.04496s.157.05155.2136.11184c.0565.06028.0911.13791.0979.22029.0069.08237-.0142.16466-.06.2335l-.726 1.0868 1.166-.6732c.0732-.04224.1587-.05791.2421-.04438s.1595.05545.2156.11866c.056.0632.0886.14383.092.22824.0035.08441-.0223.16743-.073.23501l-.7047.9416 7.7953-4.50046c.0817-.04637.1781-.05959.2693-.03694.0912.02266.1703.07946.2208.15869s.0687.17483.0508.26707c-.0179.09225-.0706.17409-.1471.22864l-2.3753 1.66834.6036-.34834c.0813-.04743.1777-.06177.2693-.04006s.1713.07782.2227.1567c.0514.07889.0704.1745.0532.26705s-.0693.17494-.1456.23011l-4.0751 2.96927 1.6522-.95333c.0817-.04709.1783-.06092.2699-.03861.0916.0223.1711.07903.222.1584.0508.07937.0692.17528.0512.26782-.018.09253-.0709.17459-.1478.22912l-2.882 2.03573c.0732.00637.1428.0346.1998.08103.057.04644.0988.10893.1198.17934.021.0705.0204.1456-.0018.2157s-.065.1319-.1228.1773l-3.5713 2.8182.9306-.536c.0794-.0448.1726-.0584.2615-.0382.0889.0203.167.0729.2192.1476s.0747.1662.0631.2566-.0564.1732-.1258.2324l-3.1614 2.6326.9827-.5668c.0807-.0445.1752-.0569.2647-.0348s.1674.0771.2182.154c.0507.077.0707.1702.0558.2612-.0149.0909-.0635.173-.1361.2297l-.9358.7033c.0686.0132.132.0458.1827.0939s.0866.1097.1035.1775.014.139-.0082.2053c-.0223.0662-.063.1247-.1174.1686l-1.353 1.1015.0785-.0455c.0795-.0472.1738-.0626.2641-.0432.0904.0193.1701.0721.2232.1478.0531.0756.0757.1685.0632.26-.0124.0916-.0589.1751-.1303.2338l-1.0934.9137c.0768-.0378.1645-.0475.2477-.0275.0833.02.1569.0686.2081.1372.0513.0686.0768.153.0723.2386-.0045.0855-.0388.1667-.0969.2296l-1.1983 1.2936.0492-.0286c.0417-.0265.0884-.0443.1372-.0524.0488-.008.0987-.0061.1467.0057s.0932.0331.1328.0628c.0395.0297.0727.067.0974.1098.0248.0429.0406.0902.0466.1393.0059.0491.0019.0989-.0119.1464s-.037.0917-.0683.13-.07.0698-.1139.0927l-2.1538 1.2467c-.0556.0325-.1189.0495-.1833.0491z"/></g><path d="m31.3868 43.5922c-.0789-.0001-.1557-.0256-.2189-.0728-.0633-.0471-.1096-.1134-.1322-.189-.0225-.0756-.0201-.1565.0069-.2306.0271-.0741.0773-.1375.1433-.1808l.0733-.0477-1.1418.66c-.0815.0454-.1772.058-.2677.0353s-.1689-.0791-.2193-.1576-.0689-.1733-.0519-.265c.017-.0918.0684-.1735.1436-.2287l6.2238-4.3875-8.0542 4.6456c-.0826.047-.1802.0601-.2722.0365-.0921-.0236-.1714-.0821-.2212-.163s-.0663-.178-.0459-.2708c.0203-.0928.076-.1741.1551-.2267l4.4733-2.929-5.4201 3.1321c-.0832.0504-.183.0656-.2775.0424-.0945-.0233-.1759-.0831-.2263-.1663-.0503-.0833-.0656-.1831-.0423-.2776.0232-.0945.083-.1759.1663-.2262l1.7064-1.0802-2.2601 1.3046c-.0826.0448-.1792.0562-.27.0318-.0908-.0243-.1687-.0826-.2177-.1628s-.0654-.1761-.0458-.268c.0197-.0919.0739-.1727.1514-.2258l5.6284-3.6454-6.3573 3.6703c-.0828.051-.1825.0669-.2772.0444-.0946-.0226-.1764-.0818-.2273-.1647-.051-.0828-.0669-.1825-.0444-.2771.0226-.0947.0818-.1764.1646-.2274l7.579-4.9471-8.313 4.7997c-.0832.0458-.1808.0576-.2724.0328-.0917-.0247-.1701-.084-.219-.1654-.0488-.0814-.0641-.1785-.0428-.271s.0777-.1731.1572-.2249l2.0592-1.2862-2.3569 1.3596c-.0827.0455-.1798.0573-.271.033-.0913-.0243-.1696-.0828-.2188-.1635-.0491-.0806-.0653-.177-.0451-.2693.0202-.0922.0752-.1731.1536-.2258l7.2952-4.6933-7.4324 4.2915c-.0825.0454-.1794.0574-.2705.0333s-.1694-.0823-.2187-.1625c-.0494-.0803-.0659-.1765-.0462-.2686.0197-.0922.0741-.1732.1519-.2263l9.1953-6.0133-8.8125 5.082c-.0825.0461-.1796.0586-.271.0349-.0915-.0237-.1703-.0819-.2199-.1623-.0497-.0804-.0664-.1768-.0467-.2692.0198-.0925.0744-.1737.1526-.2268l9.2642-6.1086-8.8807 5.1267c-.0826.0448-.1792.0562-.27.0319-.0907-.0244-.1687-.0827-.2177-.1629-.049-.0801-.0654-.1761-.0457-.268.0196-.0919.0738-.1727.1514-.2258l6.633-4.2863-6.251 3.6087c-.0825.0455-.1794.0574-.2705.0333-.0911-.024-.1694-.0822-.2187-.1625-.0494-.0803-.0659-.1765-.0462-.2686s.0741-.1732.1519-.2263l7.1478-4.6816-6.7687 3.908c-.0826.0462-.18.0586-.2716.0346-.0916-.0239-.1704-.0824-.2199-.1632-.0494-.0807-.0657-.1775-.0455-.27.0203-.0925.0755-.1736.1542-.2262l5.6394-3.6667-5.2573 3.0353c-.0825.0454-.1794.0574-.2705.0333s-.1694-.0823-.2188-.1625c-.0493-.0803-.0658-.1765-.0461-.2686.0196-.0922.074-.1732.1519-.2263l5.2514-3.4364-4.8657 2.8094c-.0828.0471-.1807.0602-.273.0364-.0922-.0238-.1716-.0826-.2213-.1639-.0497-.0814-.0657-.1788-.0448-.2718.021-.0929.0773-.1741.157-.2262l3.0984-2.0057-2.7134 1.5679c-.0827.0455-.1798.0573-.271.033s-.1696-.0828-.2187-.1635c-.0492-.0806-.0653-.177-.0451-.2693.0202-.0922.0752-.1731.1535-.2258l1.1851-.7619-.8067.4642c-.082.0477-.1792.0618-.2714.0393-.0921-.0225-.1719-.0798-.2227-.1599s-.0685-.1768-.0496-.2697c.019-.0929.0733-.1749.1514-.2286l3.8324-2.6474-3.4416 1.9866c-.0807.047-.1763.0614-.2673.0402-.091-.0211-.1705-.0762-.2223-.154-.0517-.0777-.0719-.1723-.0562-.2644.0156-.0922.0658-.1748.1403-.2312l1.8033-1.3684-1.3992.8067c-.0774.0452-.1687.0606-.2566.0431-.088-.0175-.1664-.0666-.2206-.1381-.0542-.0714-.0803-.1602-.0735-.2496.0069-.0894.0462-.1731.1107-.2355l2.0841-2.0225-1.6449.9533c-.0721.0421-.1565.0583-.2391.0459-.0827-.0124-.1586-.0526-.2152-.114-.0566-.0615-.0906-.1404-.0963-.2237-.0056-.0834.0174-.1662.0652-.2347l.668-.9607-.1833.1056c-.0417.0266-.0884.0444-.1372.0524s-.0987.0061-.1467-.0057c-.0481-.0117-.0932-.0331-.1328-.0628-.0395-.0296-.0727-.067-.0974-.1098-.0248-.0428-.0406-.0902-.0466-.1393s-.0019-.0989.0119-.1464c.0137-.0475.037-.0917.0683-.13.0313-.0382.07-.0698.1138-.0927l1.6031-.9262c.0722-.0417.1564-.0576.2388-.0451.0824.0126.1581.0529.2145.1142.0565.0613.0903.14.0961.2232.0057.0831-.0171.1658-.0647.2342l-.668.9607 2.7852-1.6089c.0774-.0453.1687-.0606.2566-.0431s.1664.0666.2206.138c.0541.0714.0803.1602.0734.2496-.0068.0894-.0462.1732-.1106.2355l-2.0827 2.0226 3.8779-2.2389c.0807-.047.1764-.0614.2674-.0402.091.0211.1704.0762.2222.154s.0719.1724.0563.2645c-.0157.0921-.0659.1747-.1404.2311l-1.8047 1.3677 6.2582-3.611c.0818-.0446.1775-.0565.2676-.0331.0902.0233.1681.08.2179.1587.0499.0787.0679.1734.0505.2649-.0175.0915-.0691.1729-.1444.2277l-3.8353 2.6496 6.2018-3.5802c.0827-.0455.1798-.0573.2711-.033.0912.0243.1695.0828.2187.1635.0491.0806.0653.177.0451.2693-.0202.0922-.0752.1731-.1536.2258l-1.1828.7612 1.9338-1.1169c.0829-.0508.1826-.0665.2772-.0437.0945.0227.1762.0821.2269.1651.0508.0829.0665.1826.0438.2772-.0228.0945-.0822.1762-.1651.2269l-3.0998 2.0057 3.7649-2.1729c.0826-.0469.1802-.06.2723-.0364.092.0236.1713.082.2212.1629.0498.081.0662.1781.0459.2709-.0204.0928-.076.1741-.1551.2267l-5.2514 3.4335 5.8879-3.3968c.0827-.0462.18-.0586.2716-.0347.0916.024.1704.0825.2199.1632s.0658.1775.0455.27c-.0202.0925-.0755.1736-.1542.2263l-5.6423 3.6666 6.1204-3.5332c.0826-.0454.1794-.0574.2705-.0333s.1695.0823.2188.1625c.0493.0803.0659.1765.0462.2686-.0197.0922-.0741.1732-.1519.2263l-7.15 4.6809 7.5753-4.3736c.083-.0508.1827-.0665.2772-.0438.0946.0228.1762.0822.227.1651.0507.083.0665.1827.0437.2773-.0228.0945-.0821.1761-.1651.2269l-6.6396 4.2907 6.8933-3.9798c.0826-.0478.1806-.0616.2731-.0384.0926.0232.1724.0815.2227.1627.0502.0811.0668.1787.0462.2718-.0205.0932-.0766.1747-.1562.2273l-9.2606 6.1079 9.5106-5.4912c.0824-.0448.1789-.0564.2696-.0323.0906.0241.1686.0821.2178.162.0493.0798.066.1755.0468.2673-.0192.0919-.0728.1729-.1499.2263l-9.1975 6.0207 9.2899-5.3629c.083-.0486.1817-.0627.275-.0392s.1736.0827.2236.1649c.05.0821.0657.1806.0438.2743-.0219.0936-.0798.1749-.1611.2263l-7.2974 4.6933 7.2146-4.1653c.0832-.048.182-.0614.275-.0373.0931.0241.1729.0837.2224.1661.0495.0823.0647.1809.0423.2743-.0224.0935-.0806.1744-.1621.2254l-2.0533 1.2862 1.8209-1.0516c.0828-.0509.1825-.0669.2772-.0443.0946.0225.1764.0817.2273.1646.051.0828.0669.1826.0444.2772-.0226.0946-.0818.1764-.1647.2273l-7.5819 4.9449 7.3033-4.2167c.0826-.0448.1792-.0562.27-.0318.0907.0243.1687.0826.2177.1628s.0654.1761.0457.268c-.0196.0919-.0738.1727-.1514.2258l-5.6276 3.641 5.2111-3.0066c.0833-.0504.1831-.0657.2776-.0424.0945.0232.1758.0831.2262.1663s.0656.1831.0424.2776c-.0233.0944-.0831.1758-.1663.2262l-1.716 1.0861 1.2158-.7018c.0828-.0496.1816-.0645.2753-.0417.0937.0229.1746.0817.2252.1637.0506.0821.0669.1808.0453.2747-.0216.094-.0794.1756-.1608.2273l-4.4711 2.9253 3.7767-2.1802c.0816-.0459.1777-.0588.2685-.0361s.1695.0793.2199.1582c.0505.0788.0689.174.0514.266-.0175.0919-.0694.1738-.1453.2286l-6.2231 4.3883 5.0087-2.8923c.0826-.0469.1802-.06.2723-.0364.092.0236.1713.082.2211.1629.0499.081.0663.1781.046.2709-.0204.0928-.076.1741-.1551.2267l-.9094.5984c.0744.0036.146.0298.2051.075.0592.0453.1032.1075.1261.1783.0229.0709.0237.1471.0023.2184s-.0641.1345-.1223.181l-2.7199 2.175c.0782.0056.1526.036.2122.0869.0596.051.1014.1196.1191.196s.0105.1564-.0206.2284-.0845.1321-.1523.1715l-3.6667 2.1171c-.08.0454-.1741.0591-.2637.0384-.0897-.0208-.1682-.0745-.2201-.1505s-.0733-.1687-.06-.2597.0603-.1738.1317-.2317l2.3958-1.9155-5.6467 3.2589c-.0543.0317-.116.0486-.1789.0492z" fill="#ce3e3e"/><path d="m13.8979 43.5897c-.0779-.0001-.1537-.025-.2165-.0711-.0628-.046-.1093-.1109-.1327-.1852-.0235-.0742-.0227-.154.0023-.2278.0249-.0738.0727-.1377.1364-.1825l3.8288-2.6789-5.5873 3.2267c-.0824.0469-.1798.06-.2717.0366-.0919-.0233-.1711-.0814-.2211-.1619-.05-.0806-.0669-.1774-.0471-.2701.0199-.0927.0748-.1742.1534-.2272l3.6667-2.4347-4.8143 2.7794c-.0825.0461-.1796.0586-.2711.0349s-.17024-.0819-.21989-.1623c-.04966-.0804-.06636-.1768-.04662-.2692.01974-.0925.0744-.1737.15261-.2268l4.4-2.8812-5.34898 3.088c-.08287.0464-.18047.0587-.27228.0345-.0918-.0241-.17065-.083-.21996-.1641-.0493-.0811-.06522-.1782-.0444-.2709.02082-.0926.07676-.1735.15604-.2257l2.29978-1.4667-2.89818 1.6735c-.08275.0481-.18105.0619-.27389.0386-.09283-.0234-.17284-.0822-.22292-.1638s-.06627-.1795-.0451-.2729c.02116-.0933.07801-.1747.15838-.2267l5.94151-3.8581-6.70271 3.8698c-.08261.047-.18022.06-.27227.0364s-.17134-.082-.22117-.1629c-.04982-.0809-.06629-.178-.04592-.2708.02037-.0929.07597-.1741.15509-.2268l7.75358-5.0724-8.50671 4.9133c-.08256.0395-.17689.0466-.26446.0201-.08757-.0266-.16205-.0849-.20882-.1635-.04677-.0787-.06244-.172-.04393-.2616.0185-.0896.06985-.169.14394-.2227l2.6488-1.6603-2.96413 1.7065c-.08293.0456-.18027.0573-.27168.0328s-.1698-.0834-.21877-.1644-.06473-.1778-.04398-.2701.07639-.1731.1553-.2253l4.31346-2.7207-4.6288 2.6723c-.08324.0502-.18304.0654-.27746.0421-.09441-.0233-.17569-.0832-.22597-.1664-.05027-.0833-.06542-.1831-.04211-.2775s.08317-.1757.16641-.226l5.4098-3.4261-5.70753 3.2934c-.08293.0456-.18028.0574-.27169.0328-.0914-.0245-.16979-.0834-.21876-.1644s-.06473-.1777-.04398-.2701c.02074-.0923.07639-.1731.15529-.2253l4.88987-3.0844-5.08787 2.9385c-.08313.0457-.18078.0575-.27241.0328s-.17011-.084-.21892-.1654c-.04882-.0814-.06417-.1786-.04284-.271.02134-.0925.0777-.1731.15724-.2249l3.1372-1.9609-3.22667 1.8626c-.04107.0252-.08669.042-.13426.0495-.04756.0075-.09614.0055-.14296-.0057-.09454-.0228-.17618-.0822-.22694-.1651-.05076-.083-.0665-.1827-.04374-.2773.02277-.0945.08215-.1761.1651-.2269l8.33948-5.3951-8.53968 4.9302c-.08241.0468-.17978.06-.27166.0366-.09189-.0234-.17115-.0814-.22115-.162-.05001-.0805-.06686-.1773-.04703-.27.01983-.0928.0748-.1742.15338-.2272l9.87724-6.5443-10.03784 5.7933c-.04093.0254-.08646.0425-.13398.0503-.04753.0077-.09612.0061-.143-.0049-.04689-.011-.09114-.0311-.13025-.0592s-.0723-.0637-.09767-.1046c-.02538-.0409-.04244-.0865-.05023-.134-.00778-.0475-.00612-.0961.00488-.143.01099-.0469.03112-.0911.05922-.1302s.06363-.0723.10456-.0977l8.93421-5.929-8.92394 5.159c-.08255.0479-.18051.0617-.273072.0385-.09256-.0232-.172429-.0816-.222642-.1628-.050213-.0811-.066816-.1786-.04628-.2718.020535-.0932.07659-.1747.156258-.2272l6.866936-4.5592-6.679936 3.853c-.082282.0461-.179175.0587-.270537.0353-.091361-.0235-.170162-.0813-.22002-.1614-.049859-.0801-.066938-.1763-.047689-.2686s.073347-.1737.151046-.2272l4.749066-3.1709-4.407332 2.5439c-.082036.045-.178159.0569-.268691.0333s-.168626-.0809-.218293-.1602c-.049668-.0792-.067153-.1745-.048875-.2663.018278-.0917.070935-.173.147192-.2272l4.099329-2.7779-3.63 2.0944c-.082028.0469-.178997.0603-.270678.0375-.091682-.0229-.170999-.0803-.221409-.1602s-.068022-.1762-.049163-.2688.072733-.1743.150388-.2281l3.514132-2.4127-2.8908 1.6691c-.08105.0454-.17633.0583-.266569.0362-.090241-.0221-.168716-.0777-.219566-.1554-.050849-.0778-.07028-.172-.054365-.2635s.065989-.1736.140101-.2297l4.257729-3.1232-3.28313 1.8934c-.08109.0465-.17686.0602-.26774.0384s-.17001-.0774-.22122-.1556c-.05122-.0782-.07064-.173-.05432-.265s.06717-.1743.14215-.2301l2.28066-1.6793-1.01273.5866c-.07987.0467-.17442.0614-.2647.0413s-.16962-.0736-.22212-.1498c-.0525-.0761-.07427-.1693-.06097-.2608.01331-.0916.06072-.1747.13272-.2327l1.77027-1.441c-.06355-.0329-.11587-.084-.15033-.1467-.04862-.0842-.0618-.1843-.03663-.2782.02517-.094.08661-.174.17083-.2227l2.80426-1.6184c.07985-.0458.17399-.0599.26373-.0395.08975.0204.16853.0739.22071.1497.05217.0758.07393.1685.06094.2596-.01298.0911-.05976.174-.13104.2322l-.95114.7766 2.7588-1.592c.0811-.0465.17687-.0602.26775-.0384s.17001.0774.22122.1556.07064.173.05431.265c-.01632.092-.06716.1743-.14214.2301l-2.27994 1.6779 3.36158-1.9412c.0812-.0469.1773-.0609.2685-.0391.0912.0217.1707.0776.2219.1561.0513.0785.0706.1737.0538.266-.0167.0922-.0682.1746-.1438.2301l-4.25624 3.1247 5.23304-3.0213c.0819-.0451.1779-.0572.2684-.0339s.1686.0803.2185.1593.0678.1741.0499.2658c-.0178.0917-.07.1732-.1459.2277l-3.51634 2.4142 4.31424-2.4934c.0822-.0468.1793-.0601.2711-.037.0918.0232.171.0809.2212.1611s.0675.1767.0481.2694c-.0193.0926-.0737.1742-.1518.2277l-4.09638 2.7756 5.30568-3.0631c.0824-.0469.1798-.06.2717-.0366.0918.0233.1711.0814.2211.1619.05.0806.0669.1774.047.2701-.0198.0927-.0748.1741-.1533.2272l-4.7506 3.1731 7.1053-4.0971c.0825-.0479.1805-.0617.2731-.0385.0925.0232.1724.0816.2226.1628.0502.0811.0668.1786.0463.2718-.0206.0932-.0766.1747-.1563.2272l-6.8706 4.5614 8.9562-5.1715c.0824-.0455.179-.0575.27-.0337s.1694.0816.2189.1616c.0496.0799.0665.1759.0473.2679-.0192.0921-.0731.1733-.1504.2268l-8.924 5.9224 10.1934-5.885c.0825-.0479.1805-.0617.273-.0385.0926.0232.1725.0816.2227.1628.0502.0811.0668.1786.0463.2718-.0206.0932-.0766.1747-.1563.2272l-9.878 6.5421 10.7426-6.2018c.0828-.0471.1807-.0602.273-.0364s.1716.0826.2213.1639.0657.1788.0448.2718c-.021.0929-.0773.1741-.157.2262l-8.3461 5.3996 8.7839-5.071c.0832-.048.182-.0614.275-.0374.093.0241.1729.0838.2224.1661.0495.0824.0647.1809.0423.2744-.0224.0934-.0806.1743-.1621.2253l-3.1438 1.9646 3.2377-1.8663c.0831-.0466.181-.059.2731-.0346.092.0244.171.0836.2201.1652.0492.0815.0647.179.0433.2718-.0215.0928-.0782.1736-.1581.2253l-4.8811 3.08 4.9383-2.8512c.0832-.0503.1831-.0656.2776-.0423.0944.0232.1758.083.2262.1663.0504.0832.0656.183.0424.2775-.0233.0945-.0831.1759-.1663.2263l-5.4098 3.4261 5.3907-3.1115c.0828-.0443.1795-.0551.2701-.0302s.1681.0837.2166.1641c.0486.0804.0644.1764.0442.2681-.0201.0918-.0747.1723-.1525.225l-4.3091 2.7177 4.1896-2.42c.0833-.0502.1832-.0652.2776-.0418.0467.0117.0907.0324.1295.061.0387.0286.0714.0646.0963.1058.0248.0413.0413.087.0485.1347.0071.0476.0048.0962-.0068.1429-.0116.0468-.0323.0908-.0609.1295-.0286.0388-.0646.0715-.1058.0964l-2.6576 1.6654 2.4405-1.4088c.0825-.0454.1794-.0574.2705-.0333.0911.024.1694.0822.2188.1625.0493.0803.0658.1765.0461.2686-.0196.0922-.074.1732-.1519.2263l-7.755 5.071 7.4874-4.3223c.0826-.0462.18-.0586.2716-.0346.0916.0239.1704.0824.2199.1632.0494.0807.0657.1775.0455.27-.0203.0925-.0755.1736-.1542.2262l-5.94 3.8552 5.5198-3.1871c.0831-.0505.1829-.0659.2774-.0427.0945.0231.1759.0827.2264.1659.0504.0831.0658.1829.0427.2774s-.0828.1759-.1659.2264l-2.3071 1.4667 1.7915-1.034c.0826-.047.1802-.0601.2723-.0365.092.0236.1713.0821.2212.163.0498.0809.0663.178.0459.2708s-.076.1741-.1551.2267l-4.4 2.8842 3.7055-2.1391c.0824-.0455.179-.0575.27-.0337s.1694.0816.2189.1616c.0496.0799.0665.1759.0473.2679-.0192.0921-.0731.1733-.1504.2268l-3.6667 2.4339 2.7537-1.5898c.0815-.0448.1771-.0569.2672-.0339.0902.023.1682.0795.2183.1579s.0685.173.0514.2645c-.017.0915-.0682.173-.1431.2282l-3.8273 2.6781 2.4061-1.3889c.0812-.0462.1771-.0597.2679-.0376.0909.0221.1698.0781.2208.1565.0509.0784.07.1733.0533.2653s-.0679.1741-.1431.2296l-1.8722 1.3625c.0637.0003.1262.0174.1812.0496s.1005.0783.1319.1338c.0485.084.0616.1839.0366.2776s-.0862.1737-.17.2225l-5.4626 3.1533c-.0813.0463-.1772.0597-.268.0376-.0909-.0221-.1698-.0781-.2208-.1565-.0509-.0784-.07-.1733-.0533-.2652.0167-.092.0679-.1742.1431-.2297l1.4858-1.0809-3.6667 2.1186c-.0553.0329-.1183.0503-.1826.0506z" fill="#f45151"/><path d="m15.9953 6.89399c-.07-.00011-.1384-.02024-.1973-.058s-.1058-.09158-.1351-.15511-.0398-.13411-.0303-.20342c.0096-.06931.0387-.13445.084-.18773l.9182-1.078-2.4772 1.43c-.0781.0435-.1693.057-.2566.03797s-.1647-.0693-.2176-.14134c-.0528-.07204-.0776-.16091-.0695-.24991.008-.08899.0483-.17199.1132-.23339l1.5187-1.38087-2.3254 1.3398c-.0796.04534-.1734.05919-.2627.03884-.0894-.02035-.1679-.07344-.2201-.1488s-.0742-.16753-.0618-.25834c.0124-.09082.0584-.17369.1288-.2323l1.2526-1.02666-1.6134.9328c-.0807.04697-.1764.06135-.2673.0402-.091-.02115-.1705-.07623-.2223-.15401-.0517-.07777-.0719-.17237-.0562-.26447.0156-.09211.0658-.17478.1403-.23112l.2369-.17967-.3667.21047c-.0793.04591-.1728.06049-.2623.04088-.0895-.01962-.1684-.072-.2211-.14686-.0528-.07485-.0757-.16675-.0641-.25762.0116-.09086.0567-.1741.1266-.23334l1.1542-.9834-1.4886.85874c-.0731.04376-.1592.06039-.2433.04698s-.1607-.05601-.2165-.12032c-.056-.06412-.088-.14573-.0904-.23083s.0249-.16838.0772-.23557l.8902-1.1418-1.4307.8228c-.04171.02446-.08785.04042-.13576.04697s-.09665.00356-.1434-.0088-.09059-.03384-.129-.06322c-.03841-.02937-.07064-.06605-.09482-.10793-.02417-.04188-.03983-.08812-.04606-.13607-.00624-.04796-.00292-.09667.00975-.14334.01267-.04666.03444-.09036.06407-.12858s.06652-.07019.10856-.09409l3.05796-1.765138c.0737-.042244.1597-.057627.2434-.043522.0837.014104.16.05682.2157.120861.0557.06404.0875.145435.0899.230299.0024.08486-.0247.16793-.0767.23503l-.8895 1.14253 3.3352-1.925731c.0791-.045727.1725-.060227.2618-.040656.0894.01957.1681.071799.2209.146443s.0758.166317.0645.257043c-.0113.090725-.0561.173961-.1256.233371l-1.1542.9834 1.9066-1.100001c.0808-.046977.1764-.061358.2674-.040208s.1705.076239.2223.154009c.0517.07778.0718.17237.0562.26448-.0156.0921-.0658.17477-.1403.23112l-.2369.17967.4649-.2684c.0798-.04732.1746-.06263.2652-.04284.0907.01978.1704.07318.2233.14944.0528.07626.0747.16971.0614.26152-.0133.0918-.061.17514-.1333.23321l-1.254 1.02667 1.4006-.80814c.0781-.0435.1693-.057.2567-.03797.0873.01903.1646.06929.2175.14134.0528.07204.0776.16091.0695.24991-.008.08899-.0483.17199-.1132.23339l-1.5173 1.38453 1.3728-.79053c.0749-.04329.1626-.05874.2477-.04362.0852.01512.1622.05984.2176.12625.0553.06641.0854.15025.085.23671-.0005.08645-.0315.16997-.0875.23579l-.9424 1.10514c.0858-.02252.1769-.01316.2563.02634.0795.03949.1419.10645.1757.18845.0339.082.0368.17349.0084.25751-.0285.08402-.0865.15488-.1632.19943l-1.7248.99587c-.0559.03126-.1192.04696-.1833.04546z" fill="#9cc824"/><path d="m35.8232 20.2351c-1.5343-.0357-3.0449.3835-4.3414 1.2049-3.2442-3.7561-4.6596-8.7604-5.1648-13.60992.0176-1.6962 1.9154-2.6136 2.6678-4.04653 1.4865-1.43147 1.0817-3.28387-1.1469-3.275803-2.5527.599133-3.4562 3.911603-5.5081 5.461863-.9976-1.22237-2.2251-2.23736-3.6131-2.9876-1.1103-4.11473-8.547-2.533663-9.56852.3784 2.45592 1.48794 4.57302 4.81434 7.91122 3.05067 1.0412.65608 1.9158 1.54501 2.5549 2.59673-3.0493 3.68159-5.4156 7.87869-6.9872 12.39329-9.14759-5.4296-15.63026 8.6526-10.79392 15.6743 3.81333 7.1727 14.33302 8.7656 20.10722 3.1372 15.546 12.914 32.4728-14.0815 13.8828-19.9775zm-21.3928-14.09755c-1.8385-.48914-2.5623-2.5168-4.2966-3.16874-.15989-.11953.1466-.29773.2552-.3828 2.8299-3.299996 10.12-.78686 6.366 3.43567-.3509.20113-.7444.31646-1.1484.33659-.404.02014-.807-.05549-1.1762-.22072zm3.4796-.29334c.5107-.482.8276-1.13401.891-1.83333 4.7557 4.6002 3.3396 2.83507 7.9354-2.134.0613-.196.1774-.37039.3345-.50259s.3488-.2167.5524-.24353.4106.00514.5966.09212c.1861.08699.3433.22536.4533.3988.5712 1.90667-1.98 3.5552-2.9693 5.027-1.342 4.66182 1.804 11.45542 4.829 15.22982-.7015.2905-1.4651.399-2.2198.3154-2.64-3.5765-4.0407-7.92-4.6985-12.27968-.0586-.39307-.8983-.01687-1.0266.13488-3.0971 3.5577-5.5092 7.6576-7.1148 12.0927-.6602-.0112-1.3141-.1301-1.936-.352 1.5484-4.6482 3.9619-8.9617 7.1133-12.71305-.0227-1.30754-1.7101-2.46914-2.7405-3.234zm.7891 15.83999c-.7342.0746-1.4627.1971-2.1809.3667 1.4156-3.9724 3.5131-7.6675 6.1981-10.9194.6063 3.8662 2.0281 7.5591 4.1712 10.8336-1.5819-.3858-3.2506-.1748-4.6867.5925-1.0548-.6313-2.2732-.9355-3.501-.8741zm-14.94239 16.3761c-5.60853-5.8454-.92253-21.2234 8.28669-15.9317 3.5882 2.0651 8.4942-1.4952 11.1598 2.6906 8.2068 12.3743-10.6736 25.2392-19.44649 13.2411zm30.75529 4.334c-2.0558.6333-4.2441.702-6.3356.1988-2.0914-.5032-4.009-1.5597-5.5518-3.0588 4.3062-4.1756 5.0182-12.6214.1328-16.5939 4.683-1.4117 5.7742 1.3706 11.3857-1.9932 11.8023-.0887 10.604 19.0593.3689 21.4493z" fill="#262626"/></g></svg>