<svg fill="none" height="32" viewBox="0 0 32 32" width="32" xmlns="http://www.w3.org/2000/svg"><g fill="#e1d3ec"><path d="m25.8208 23.1722c-.0567 0-.1119-.0181-.1577-.0517-.0457-.0336-.0795-.0809-.0966-.135-.017-.0541-.0163-.1123.002-.166s.0533-.1002.0998-.1326l.32-.2246-.9413.5435c-.0594.0342-.1297.0443-.1963.0281s-.1244-.0575-.1614-.1152-.0504-.1275-.0373-.1948.0516-.127.1075-.1666l1.8005-1.2774-2.441 1.4096c-.0297.0186-.0628.0311-.0973.0369-.0346.0058-.0699.0047-.104-.0032-.0689-.0159-.1287-.0585-.1662-.1185-.0375-.0599-.0496-.1324-.0337-.2013s.0585-.1287.1185-.1661l1.0293-.6934-1.4021.8134c-.0609.0318-.1318.0389-.1979.0198-.066-.0192-.1221-.0631-.1566-.1227-.0344-.0595-.0445-.1301-.0281-.1969s.0579-.1247.1159-.1616l8.1142-4.6848c.0597-.0331.1299-.042.196-.0249.0662.0172.1232.059.1594.1169.0361.058.0487.1276.0351.1945s-.0524.1261-.1084.1653l-1.0304.6933.7205-.416c.0593-.033.129-.0422.1948-.0257.0658.0166.1228.0575.1594.1147.0367.0571.0502.126.0378.1927s-.0498.1262-.1045.1663l-1.8 1.2747 1.3184-.7611c.0595-.0342.1299-.0441.1966-.0276.0666.0164.1244.0579.1612.1158s.0499.1278.0365.1951-.0522.1269-.1084.1663l-.5211.3643c.0494-.0068.0997.0007.145.0216.0452.0209.0836.0543.1105.0962.0374.0569.0515.126.0396.193s-.0489.127-.1036.1676l-.7467.5546c.0626.0205.1154.0634.1483.1206.0352.0612.0447.1338.0264.202s-.0629.1263-.124.1617l-3.1814 1.8373c-.0588.0328-.1279.0421-.1934.026-.0654-.0161-.1223-.0564-.1593-.1127-.0369-.0563-.0512-.1246-.0399-.191.0113-.0665.0474-.1261.1009-.1671l.1275-.0949-1.0496.6059c-.0405.0236-.0865.0359-.1334.0357z"/><path d="m13.1249 9.63138c-.0543-.00003-.1074-.01667-.152-.0477-.0447-.03103-.0788-.07495-.0977-.1259-.019-.05094-.022-.10646-.0085-.15913.0135-.05266.0427-.09995.0838-.13554l2.0464-1.77013c-.0616.03143-.1331.03766-.1993.01737-.0661-.02028-.1218-.0655-.1553-.12608-.0334-.06059-.042-.1318-.0239-.19859.0181-.0668.0615-.12395.1209-.15937l2.4224-1.3984c.0575-.03301.1251-.04345.1899-.02928.0647.01416.1218.05192.1603.10591.0384.05399.0553.12034.0475.18614-.0079.06579-.0399.12631-.09.16977l-2.0464 1.76906 4.504-2.6c.0304-.01929.0643-.03225.0998-.03808.0355-.00584.0718-.00444.1068.00412.0349.00855.0677.02409.0965.04567.0288.02157.0529.04875.0709.07989.018.03113.0295.06559.0338.10129.0044.0357.0014.07192-.0086.10646s-.0269.06669-.0497.09453-.0509.05079-.0828.06746l-6.9333 4.00426c-.0411.02396-.0879.03648-.1355.03627z"/><path d="m17.2885 26.9094c-.056 0-.1105-.0176-.1559-.0503-.0454-.0328-.0794-.0789-.0971-.132s-.0182-.1104-.0015-.1639c.0166-.0534.0497-.1002.0945-.1338l2.1963-1.64-3.399 1.9621c-.0604.0339-.1316.0429-.1986.0252-.0669-.0177-.1243-.0608-.1601-.1201s-.047-.1302-.0314-.1977c.0155-.0675.0568-.1263.1149-.1639l3.4134-2.1435-4.0571 2.3424c-.0602.0343-.1314.0438-.1985.0265s-.1249-.0601-.161-.1192c-.0361-.0592-.0478-.13-.0326-.1976.0153-.0676.0562-.1267.1142-.1646l7.447-4.8208-8.2432 4.7595c-.0602.0326-.1307.0408-.1968.0229s-.1228-.0605-.1583-.1191c-.0355-.0585-.0471-.1285-.0325-.1954.0147-.0669.0545-.1256.1113-.1639l6.3243-4.0181-6.8155 3.936c-.0605.0333-.1315.0418-.1981.0238-.0667-.0179-.1237-.0611-.1592-.1202-.0355-.0592-.0467-.1299-.0312-.1972.0155-.0672.0565-.1258.1144-.1635l2.8229-1.7493-3.04 1.7562c-.0605.0369-.1332.0482-.2021.0314-.0689-.0167-.1283-.0602-.1651-.1207-.0369-.0605-.0481-.1332-.0314-.2021.0168-.0689.0602-.1282.1207-.1651l5.9734-3.7723-6.2459 3.6048c-.0603.037-.1329.0484-.2016.0318-.0688-.0165-.1282-.0597-.1651-.12-.0369-.0604-.0483-.1329-.0318-.2016.0166-.0688.0598-.1282.1201-.1651l8.0731-5.2155-10.46297 6.0406c-.0604.0368-.13296.0482-.20172.0315-.06877-.0166-.1281-.0599-.16495-.1203-.03684-.0604-.04819-.133-.03154-.2018.01666-.0687.05994-.128.12034-.1649l9.15844-5.8875-10.3531 5.9771c-.0603.0318-.13048.0393-.19614.021-.06565-.0184-.12179-.0611-.15688-.1196-.0351-.0584-.04648-.1281-.0318-.1947.01467-.0665.05428-.1249.11068-.1632l5.99304-3.7382-6.48424 3.744c-.06047.0367-.13304.0479-.20175.0311-.06872-.0168-.12794-.0602-.16465-.1207-.0367-.0604-.04788-.133-.03108-.2017s.06021-.128.12068-.1647l9.46344-6.0234-9.95624 5.7488c-.06082.0361-.13351.0466-.20207.0292-.06856-.0175-.12739-.0615-.16353-.1223s-.04664-.1335-.02918-.2021c.01745-.0685.06143-.1274.12225-.1635l2.90613-1.7797-2.99413 1.7285c-.06031.0332-.13111.0417-.19759.0239s-.12348-.0607-.1591-.1196c-.03561-.0589-.04708-.1293-.03199-.1964.01509-.0672.05556-.1259.11295-.1639l9.0517-5.7141-9.1733 5.2954c-.06069.0364-.13332.0472-.20194.0299-.06861-.0172-.12758-.0609-.16393-.1216s-.04711-.1333-.02991-.2019c.01721-.0686.06096-.1276.12164-.164l6.83944-4.2576-7.71197 4.4534c-.06061.0367-.13332.0478-.20213.0309-.06882-.0169-.1281-.0604-.1648-.1211-.03671-.0606-.04783-.1333-.03093-.2021s.06045-.1281.12106-.1648l7.92637-4.9461-9.00904 5.2026c-.06075.0363-.1334.0468-.20196.0295-.06856-.0174-.12743-.0612-.16364-.122-.03621-.0607-.0468-.1334-.02945-.202.01735-.0685.06123-.1274.12199-.1636l6.1824-3.8101-6.71254 3.8746c-.0605.0328-.13134.041-.19771.0228-.06637-.0183-.12313-.0614-.15839-.1205-.03527-.0591-.04632-.1296-.03085-.1966.01548-.0671.05628-.1256.11389-.1633l6.5376-4.032-6.8928 3.9798c-.06066.033-.13175.0411-.19831.0228-.06656-.0184-.12341-.0618-.15858-.1213-.03517-.0594-.04592-.1301-.02998-.1973.01593-.0672.0573-.1256.1154-.1629l.5152-.312-.60053.3461c-.06055.0324-.13124.0402-.19737.0217-.06612-.0184-.12258-.0617-.15763-.1207s-.045977-.1293-.03052-.1962c.01546-.0669.05612-.1252.11352-.1629l3.09333-1.8859-3.14293 1.8134c-.0603.0318-.130483.0393-.196138.0209-.065655-.0183-.121795-.0611-.156887-.1195-.035092-.0585-.046471-.1281-.031799-.1947.014671-.0666.054279-.125.110687-.1633l8.421337-5.2602-8.446937 4.8773c-.060546.0349-.132379.0447-.200039.0272-.06766-.0176-.125739-.0609-.161738-.1209-.036-.0599-.047042-.1315-.03075-.1995.016291-.0679.058614-.1268.11786-.1639l8.237334-5.1669-8.046934 4.6464c-.060165.0331-.130776.0417-.197128.024-.066352-.0176-.123331-.0602-.159072-.1188-.035741-.0587-.047489-.1288-.032798-.1959s.054689-.1259.111665-.1642l2.337067-1.4976-1.9296 1.1141c-.056155.032-.122008.0425-.185318.0295-.063309-.0129-.119769-.0484-.158883-.0998-.039114-.0515-.058221-.1153-.05377-.1798.004452-.0645.032158-.1251.077971-.1707l1.17333-1.1563c-.05499.0121-.1124.0061-.16376-.0169-.05137-.0231-.09398-.062-.12157-.1111-.03515-.0612-.04455-.1339-.02616-.2021.0184-.0682.0631-.1263.12429-.1616l1.6976-.9808c.05616-.032.12201-.0425.18532-.0295.06331.0129.11977.0484.15888.0998.03912.0515.05822.1154.05377.1798-.00445.0645-.03215.1251-.07797.1707l-1.1392 1.12 10.12484-5.84426c.0601-.03309.1307-.04169.1971-.02402.0663.01766.1233.06025.1591.11888.0357.05863.0475.12878.0328.19586-.0147.06707-.0547.12589-.1117.16421l-2.3403 1.49973 10.6667-6.15893c.0604-.03269.131-.04085.1972-.02278.0662.01806.1229.06097.1583.11978.0354.05882.0467.12902.0317.19598-.0151.06697-.0554.12555-.1125.16356l-8.2331 5.16479 9.1376-5.27573c.0605-.0333.1315-.04185.1981-.02387.0667.01798.1237.0611.1592.1203.0355.05919.0467.12985.0312.1971-.0155.06726-.0565.12588-.1144.16354l-8.4266 5.26296 9.12-5.26616c.0606-.03351.1319-.04213.1987-.02401.0669.01811.1241.06152.1595.12105s.0462.1305.0303.1979c-.016.06739-.0576.12592-.116.16319l-3.0821 1.87947 3.4005-1.9632c.0606-.03194.1311-.03935.197-.02068.0659.01866.1221.06197.157.12094.0348.05898.0456.12909.0302.19582-.0155.06672-.056.12494-.1133.16259l-.529.32.7322-.4224c.0606-.03413.1321-.04325.1993-.02541s.1248.06122.1605.1209c.0357.05967.0466.13093.0305.19857-.0161.06765-.0579.12633-.1167.16354l-6.5333 4.02879 6.8448-3.95146c.0606-.03413.1321-.04324.1993-.02541.0672.01784.1248.06122.1605.1209.0356.05968.0466.13093.0305.19858-.0161.06764-.058.12632-.1167.16353l-6.1813 3.81176 6.4149-3.70403c.0605-.03491.1324-.04465.2-.02714.0677.01752.1258.0609.1618.1208.036.05991.047.13155.0307.19952-.0163.06796-.0586.12682-.1178.16389l-7.9296 4.94826 8.1546-4.70773c.0605-.0333.1315-.04185.1982-.02387.0666.01798.1237.0611.1592.1203.0355.05919.0466.12985.0311.1971-.0155.06726-.0565.12588-.1143.16354l-6.8395 4.25756 6.9531-4.01383c.0603-.03316.1311-.04172.1976-.02389.0664.01783.1234.06068.1591.11958.0356.0589.047.12928.0319.19644-.015.06715-.0555.12587-.1129.16387l-9.0517 5.71463 9.1429-5.28c.0608-.0346.1327-.044.2003-.0261s.1254.0617.1611.1218c.0357.0602.0463.1319.0296.1998-.0168.0679-.0595.1265-.119.1632l-2.8987 1.7781 2.8016-1.6202c.0602-.0327.1307-.0409.1968-.023s.1228.0606.1583.1191c.0355.0586.0471.1286.0325.1954-.0147.0669-.0545.1256-.1113.1639l-9.4667 6.0267 9.3744-5.4117c.0603-.0318.1305-.0393.1962-.021.0656.0183.1218.0611.1569.1196.035.0584.0464.1281.0318.1946-.0147.0666-.0543.125-.1107.1633l-5.991 3.7365 6.447-3.7221c.0603-.0354.1321-.0456.2-.0285.0678.0171.1262.0601.1626.1199.0363.0597.0478.1314.0318.1995-.0159.0681-.058.1272-.1171.1646l-9.16 5.8885 10.0267-5.7883c.0603-.0369.1328-.0483.2016-.0318.0687.0166.1281.0598.165.1201s.0484.1329.0318.2016c-.0165.0688-.0597.1282-.12.1651l-8.072 5.2144 8.64-4.9872c.0603-.0332.1311-.0418.1976-.0239.0664.0178.1234.0607.1591.1196.0356.0589.047.1292.0319.1964-.015.0672-.0555.1259-.1129.1639l-5.9771 3.7717 6.2443-3.6043c.0604-.0322.1309-.04.1969-.0217.0659.0183.1224.0612.1575.12.0352.0587.0464.1288.0314.1956-.0151.0668-.0552.1252-.1122.1632l-2.8197 1.7493 2.8933-1.6704c.0605-.0367.133-.0478.2018-.031.0687.0168.1279.0602.1646.1206.0367.0605.0479.1331.0311.2018s-.0602.1279-.1207.1646l-6.3253 4.0182 6.4096-3.6992c.06-.0326.1303-.0409.1963-.0232s.1227.0601.1584.1184c.0356.0583.0475.1281.0332.1949-.0143.0669-.0537.1257-.1101.1643l-7.4448 4.8181 7.431-4.2901c.0606-.0365.1332-.0474.2019-.0304.034.0085.066.0235.0941.0443.0282.0208.052.047.0701.077s.03.0633.0353.0979c.0052.0347.0035.07-.0049.104-.0085.034-.0235.066-.0444.0942-.0208.0282-.0469.052-.0769.07l-8.2134 5.1563c.0091.0104.0177.0212.0256.0325.0375.0569.0517.1259.0399.1929s-.0487.127-.1033.1677l-2.1942 1.6384 1.2646-.7302c.0583-.0328.1268-.0424.1919-.0271s.122.0546.1596.11c.0375.0554.0528.1228.0429.189-.0098.0661-.0442.1261-.0963.1681l-1.2053.9488c.0406.0234.0744.0571.0979.0977s.0358.0866.0358.1335-.0123.093-.0358.1336-.0573.0743-.0979.0976l-2.2251 1.2864c-.0583.0335-.1271.0436-.1926.0285-.0655-.0152-.1229-.0545-.1606-.1101-.0378-.0556-.0531-.1234-.043-.1899.0101-.0664.0449-.1266.0975-.1685l.4774-.3733-1.9654 1.1344c-.0406.0229-.0867.0345-.1333.0336z"/><path d="m4.86199 14.0156c-.0572.0001-.11292-.0181-.15895-.0521-.04602-.034-.0799-.0818-.09664-.1365s-.01545-.1134.00369-.1673c.01913-.0539.05509-.1002.10257-.1321l.34186-.2293c-.06085.0151-.1251.0083-.18146-.0192-.05635-.0275-.10121-.074-.12668-.1313s-.02993-.1218-.01259-.182c.01734-.0603.05537-.1125.1074-.1475l.81493-.5755-.19306.1109c-.05747.0336-.1254.0444-.19046.0305-.06507-.014-.12255-.0518-.16118-.106-.03862-.0542-.05558-.1208-.04756-.1869.00803-.0661.04046-.1267.09093-.1701l1.33333-1.1563c-.05577-.0063-.10811-.0301-.14957-.068-.04146-.0378-.06991-.0878-.08132-.1427-.01141-.055-.00518-.1122.0178-.1634.02297-.0512.06153-.0938.11016-.1219l2.03627-1.17331c.05739-.0329.12496-.04329.18958-.02916.06462.01412.12169.05177.16011.10561.03843.05385.05547.12006.04781.18576-.00766.06571-.03946.12622-.08924.16979l-1.12426.97551 2.82664-1.63151c.0594-.03425.1297-.0443.1963-.02808s.1245.05748.1614.1152c.037.05773.0504.12748.0373.19478s-.0516.12698-.1075.16664l-.81601.57653 1.48001-.85333c.0599-.03472.1309-.04478.1981-.02806.0672.01671.1252.0589.1619.11763.0366.05874.049.12941.0344.1971-.0145.06768-.0548.12706-.1123.16559l-.1866.12534.5904-.3408c.0303-.01779.0639-.0294.0987-.03416.0348-.00477.0703-.00259.1043.0064.034.00898.0659.02461.0938.04597s.0514.04804.069.0785c.0175.03045.0289.06409.0335.09896.0045.03488.0021.0703-.0071.10424s-.0251.06572-.0466.09352c-.0216.02779-.0484.05105-.079.06843l-7.34131 4.23791c-.04026.0236-.08613.0359-.1328.0357z"/></g><path d="m5.08697 21.4105c.77493 2.8704 3.92693 3.9899 6.50243 2.8267 3.2 4.16 9.9328 3.0464 11.8229-1.7227 7.3611 3.5003 12.2987-8.0197 4.1467-10.3013-.3824-7.75204-11.5446-9.57871-14.8326-2.78404-3.39303-1.56747-7.6325.49067-8.23623 4.25384-6.0368-.0357-5.428801 8.863.5968 7.7275zm-.50027-7.3024c.14987.0197.60267-.0363.6256-.2491.21707-3.5536 4.3136-5.82077 7.36-3.8469.1251.0406.2599.0401.3847-.0014.1247-.04159.2329-.12202.3086-.22954.6687-1.56129 1.885-2.82429 3.4201-3.55119 1.535-.7269 3.2828-.86755 4.9143-.39548 3.2166.85334 4.7547 3.90774 5.368 6.74131 7.432 1.7627 3.5238 13.2955-3.4 9.335-.1861-.1174-.6704-.0427-.7466.2-1.2438 4.8629-7.9584 5.8282-10.6534 1.6533-2.7733.9888-5.45116.5333-6.35783-2.72-.03467-.1488-.3472-.0939-.43253-.0688-5.066137 1.4576-6.147737-7.3323-.79094-6.8672z" fill="#262626"/></svg>