<svg fill="none" height="24" viewBox="0 0 24 24" width="24" xmlns="http://www.w3.org/2000/svg" xmlns:xlink="http://www.w3.org/1999/xlink"><clipPath id="a"><path d="m0 0h24v24h-24z"/></clipPath><g clip-path="url(#a)"><g fill="#dd9a52"><path d="m11.5375 13.0722c-.044 0-.0868-.0146-.1217-.0414-.035-.0268-.0601-.0643-.0715-.1069-.0114-.0425-.0084-.0876.0084-.1283.0169-.0406.0467-.0746.0848-.0966l1.2996-.7504c.0457-.0239.0989-.0293.1484-.0149.0496.0144.0917.0473.1175.092s.0334.0976.0211.1477-.0435.0935-.087.1212l-1.2996.7504c-.0303.0177-.0648.027-.1.0272z"/><path d="m10.1044 14.4746c-.0382 0-.0756-.0109-.10776-.0315-.03218-.0205-.05781-.0499-.07383-.0845-.01603-.0347-.0218-.0732-.01663-.1111.00518-.0378.02108-.0734.04583-.1025l.10599-.1244-.41959.24c-.04445.0258-.09711.0335-.14706.0215s-.09337-.0428-.12125-.086c-.02788-.0431-.03808-.0954-.02849-.1458.00959-.0505.03824-.0954.08-.1253l.0648-.0464-.3704.2136c-.02276.0145-.04822.0242-.07483.0286-.02662.0044-.05385.0033-.08005-.0031s-.05083-.0181-.07241-.0343c-.02158-.0161-.03966-.0365-.05316-.0599-.0135-.0233-.02213-.0492-.02538-.0759-.00326-.0268-.00106-.054.00646-.0799.00751-.0259.02019-.05.03727-.0709s.0382-.0381.0621-.0506l3.84639-2.2212c.0445-.0257.0971-.0334.1471-.0214.0499.012.0933.0428.1212.0859.0279.0432.0381.0954.0285.1459s-.0382.0953-.08.1252l-1.84 1.3232c.0161.0347.022.0734.0168.1113s-.0211.0736-.046.1027l-.3656.4308c.024.021.0427.0473.0544.0769.0118.0296.0163.0616.0132.0933-.0031.0316-.0137.0621-.031.0889-.0172.0268-.0406.049-.0682.0649l-.508.2932c-.0302.0185-.0649.0285-.1004.0288z"/><path d="m6.94401 1.03226c-.04403 0-.08682-.01453-.12175-.041332-.03492-.026801-.06003-.064378-.07143-.106903-.01139-.042525-.00844-.087622.00841-.128296.01685-.040675.04664-.074654.08477-.096669l.718-.4148c.02275-.013339.04792-.022046.07405-.025619.02614-.003574.05272-.001942.07822.004799.0255.006742.04941.018461.07037.034483.02095.016022.03852.03603.05171.058872s.02173.048067.02513.074223.00159.052726-.00532.078181c-.00691.025454-.01879.049291-.03495.070136-.01616.020846-.03628.038289-.05921.051325l-.72.4148c-.02977.01732-.06356.02656-.098.0268z"/><path d="m7.53796 14.9837c-.04307.0001-.085-.0138-.11957-.0395-.03456-.0256-.05991-.0618-.07227-.1031-.01236-.0412-.01107-.0854.00368-.1258.01474-.0405.04216-.0751.07816-.0988l.834-.5472-1.062.6116c-.04484.0245-.09736.0309-.14677.0179s-.09197-.0444-.11894-.0878-.0363-.0955-.02609-.1456c.01021-.05.03919-.0943.081-.1237l1.88-1.2536-2.0972 1.2128c-.02232.014-.04717.0233-.07312.0277-.02595.0043-.0525.0034-.07813-.0025s-.04984-.0169-.07124-.0322c-.02141-.0153-.03959-.0346-.05351-.057-.01392-.0223-.0233-.0471-.02762-.0731-.00432-.0259-.00348-.0525.00246-.0781s.01688-.0499.03218-.0713c.01529-.0214.03466-.0395.05698-.0535l2.6-1.7552-3.8052 2.1968c-.0453.0277-.09972.0362-.15129.0237s-.09607-.045-.12371-.0903c-.02763-.0453-.03614-.0997-.02365-.1513.01249-.0515.04495-.096.09025-.1237l1.7568-1.128-2.1904 1.2644c-.04494.0245-.09756.0308-.14701.0176-.04945-.0131-.09198-.0447-.11883-.0883-.02685-.0435-.03599-.0957-.02553-.1458.01047-.0501.03973-.0943.08177-.1235l4.1876-2.7432-4.2796 2.4708c-.04509.0252-.09818.032-.14815.0189-.04997-.013-.09295-.0449-.11994-.089-.02698-.044-.03588-.0968-.02483-.1473.01105-.0504.0412-.0946.08412-.1234l3.582-2.3232-3.76 2.1708c-.04495.0256-.09806.0328-.14818.02-.05012-.0127-.09335-.0444-.12063-.0883-.02727-.044-.03647-.0968-.02565-.1473.01082-.0506.0408-.095.08366-.124l4.7096-3.13036-5.7684 3.32876c-.04514.0263-.09876.0338-.14939.0211-.05064-.0128-.09428-.0448-.1216-.0893s-.03614-.0979-.0246-.1489c.01155-.0509.04255-.0953.08639-.1237l5.2876-3.43996-5.372 3.10076c-.04517.0257-.09857.0329-.1489.0199s-.09363-.0451-.12072-.0894c-.02709-.0444-.03585-.0975-.02442-.1482.01142-.0508.04214-.095.08564-.1235l5.0352-3.26036-4.888 2.82196c-.0454.0275-.09984.0357-.15134.023s-.09583-.0454-.12326-.0908c-.02742-.0454-.03568-.0998-.02297-.1513.01272-.0515.04537-.0958.09077-.1233l2.5812-1.62996-2.7708 1.59996c-.04511.0271-.09905.0352-.15014.0228-.05109-.0125-.09522-.0446-.12283-.0893-.02761-.0448-.03648-.0986-.0247-.1499.01179-.0512.04329-.0958.08767-.124l5.234-3.44276-5.8368 3.36956c-.04543.0256-.09907.0325-.14947.0191-.050405-.0134-.09359-.0459-.120352-.0907-.026761-.0447-.034982-.0982-.02291-.1489s.043482-.0948.087534-.1227l.596798-.36916-.5576.31996c-.045231.0249-.09833.0313-.148189.018-.049859-.0134-.092615-.0456-.119326-.0897-.026711-.0442-.035307-.097-.023991-.1474.011316-.0503.041669-.09436.084708-.12286l3.261998-2.0572-2.8056 1.62c-.04511.02701-.09905.03518-.15014.02272s-.09522-.04454-.12283-.0893c-.027608-.04475-.03648-.09858-.024695-.14983s.043285-.09579.087665-.12399l4.8084-3.152-4.67 2.6948c-.0454.02742-.09984.03568-.15134.02297-.051497-.01272-.095834-.04537-.123258-.09077-.027423-.04541-.035686-.09985-.022971-.15135.012715-.05149.045366-.09583.090771-.12325l1.297598-.8172-1.401598.8088c-.045141.02625-.098758.0338-.149395.02105-.050636-.01276-.094276-.04481-.121594-.08932-.027319-.0445-.036148-.09792-.024602-.14885.011546-.05092.042551-.09531.086391-.12368l3.924798-2.5632-4.087598 2.36c-.044846.02448-.097363.03087-.146773.01786s-.091967-.04444-.118936-.08784c-.02697-.04339-.036308-.09547-.026097-.14553.010211-.05007.039195-.09432.081006-.12369l4.810798-3.2044-3.7384 2.16c-.04461.02493-.09708.03183-.14662.01929-.04955-.01254-.09242-.04357-.1198-.08672-.02739-.04315-.03721-.09515-.02746-.14532.00974-.05016.03833-.0947.07988-.12445l3.4324-2.3868-3.4304 1.9804c-.04471.02486-.09725.03165-.14682.01896-.04956-.01269-.092375-.0439-.119634-.08719-.027258-.0433-.036888-.0954-.026907-.14558.00998-.05018.038812-.09462.080563-.12419l2.709198-1.8516-2.6076 1.5052c-.04464.02562-.097446.03304-.147423.02072s-.093279-.04344-.120897-.08688c-.027619-.04343-.037426-.09585-.027383-.14633.010044-.05049.039165-.09515.081305-.12471l1.495998-1.04c-.03478-.00004-.06894-.00915-.09913-.02642-.03018-.01727-.05534-.04212-.07299-.07209-.01765-.02996-.02718-.06402-.02765-.09879s.00814-.06907.02497-.0995l.2676-.4824c-.0379.00431-.07622-.00284-.11001-.02052-.0338-.01768-.06152-.04509-.07959-.07868-.02652-.04594-.0337-.10053-.01998-.15176.01373-.05124.04725-.09492.09318-.12144l.5236-.2996c.03784-.02184.08178-.03069.12512-.0252s.08369.02501.11488.0556c.03129.03067.05164.07076.05793.11412.00628.04336-.00184.08758-.02313.12588l-.2508.4496 3.16-1.8256c.04475-.02723.09839-.03582.1494-.02392s.09531.04334.12339.08755c.02809.04422.0377.09769.02678.14892-.01092.05122-.0415.09612-.08517.12505l-1.23.854 3.0176-1.742003c.04486-.027393.0987-.036028.14987-.024037.05117.011992.09557.043646.12359.088115.02801.04447.0374.098181.02612.149517-.01127.051336-.0423.09617-.08638.124805l-2.7088 1.851203 3.0096-1.737603c.04462-.02493.09708-.031834.14663-.019296.04954.012539.09241.043569.1198.086719.02738.04315.03721.09515.02746.14532s-.03833.0947-.07989.12446l-3.434 2.3868 5.00764-2.892003c.045-.026729.0986-.034754.1495-.022353.0508.0124.0948.044239.1224.088683.0277.044444.0368.097951.0254.149043-.0113.05109-.0423.09569-.0861.12423l-4.81244 3.2056 5.00004-2.8864c.045-.02562.0983-.03274.1485-.01987s.0934.04473.1206.08887.0362.0971.0251.14773-.0415.09496-.0846.12367l-3.92684 2.564 4.05604-2.342c.0454-.02743.0998-.03569.1513-.02297.0515.01271.0958.04536.1233.09077.0274.0454.0356.09984.0229.15134s-.0453.09583-.0907.12326l-1.29684.8168 1.79084-1.0336c.0449-.02446.0975-.03076.147-.01761.0494.01316.092.04477.1188.08833.0269.04356.036.09575.0255.14584-.0104.05009-.0397.09427-.0817.12344l-4.80764 3.1528 5.51204-3.1812c.0452-.02488.0983-.0313.1482-.01792.0498.01337.0926.04551.1193.08968s.0353.09696.024.14733c-.0113.05036-.0417.0944-.0847.12291l-3.26204 2.0592 3.12324-1.8044c.0453-.0242.0981-.03004.1476-.01632s.0918.04595.1182.09001.0348.09658.0235.14668-.0414.09393-.0841.12243l-.5932.3684.418-.24c.0449-.02516.0979-.03199.1478-.01905s.0929.04465.12.0885c.027.04385.0361.09647.0254.14688-.0108.0504-.0406.09471-.0832.12367l-5.23684 3.4424 5.54924-3.2036c.0452-.02488.0983-.0313.1482-.01792.0498.01337.0926.04551.1193.08968s.0353.09696.024.14733c-.0113.05036-.0417.0944-.0847.12291l-2.582 1.6308 2.9416-1.698c.045-.02446.0977-.03068.1472-.01738.0495.01329.0921.04508.1188.08881.0267.04374.0357.09606.0249.14619-.0107.05012-.0402.09422-.0825.12318l-5.03244 3.2592 5.09084-2.9392c.0449-.02415.0975-.03017.1467-.01685.0493.01332.0916.04498.1183.08849.0267.04352.0358.0956.0253.14556-.0105.04997-.0396.09404-.0815.1232l-5.28724 3.44 4.76364-2.7492c.0449-.0248.0976-.03139.1472-.0184.0497.01298.0924.04454.1194.08815.0271.04362.0363.09594.0258.14617-.0105.05022-.0398.0945-.082.12368l-4.71284 3.1328 4.91804-2.84c.0451-.0252.0981-.03197.1481-.0189s.093.04496.12.08901c.0269.04404.0358.09682.0248.14728-.0111.05045-.0412.09468-.0841.12341l-3.5772 2.32 3.772-2.1776c.045-.02562.0983-.03274.1485-.01987s.0934.04473.1206.08887.0362.0971.0251.14773-.0415.09496-.0846.12367l-4.1884 2.74556 3.3636-1.94156c.0452-.02653.0991-.03421.15-.02139.0508.01282.0946.04512.1219.08992.0273.04481.0359.09854.0239.14962-.0119.05108-.0435.09541-.0878.12345l-1.7552 1.1268 1.3944-.8044c.0447-.02453.0971-.03103.1465-.01817.0494.01287.092.04412.1191.08736.0271.04325.0366.09521.0266.14526-.0099.05004-.0386.09439-.0802.12395l-2.6 1.75636 2.5944-1.49756c.0448-.02516.0977-.03206.1475-.01925.0499.0128.0928.04432.12.08799.0272.04368.0366.09616.0261.14653s-.0401.09475-.0824.12393l-1.88 1.25156 1.7124-.9868c.0449-.0244.0975-.0307.147-.0176.0494.0132.092.0448.1188.0884.0269.0435.036.0957.0255.1458-.0104.0501-.0397.0943-.0817.1234l-5.88004 3.86c-.0146.049-.04737.0905-.0916.116l-.718.4148c-.03092.0181-.06619.0274-.102.0268z"/><path d="m4.20001 2.2163c-.03789.00003-.075-.01071-.10703-.03096-.03202-.02025-.05763-.04918-.07385-.08342s-.02238-.07239-.01776-.10999c.00462-.03761.01982-.07313.04384-.10243l.4192-.5104c-.02095-.01597-.03849-.03596-.0516-.0588-.02652-.04594-.03371-.10053-.01998-.15176s.04725-.09492.09318-.12144l.5084-.2936c.04055-.02349.08807-.031993.13425-.024026s.0881.031899.11844.067618c.03033.035719.04716.080958.04755.12782.00039.046863-.01569.092368-.04544.128588l-.1972.24.576-.3336c.04591-.026103.10029-.032987.15125-.01915.05097.013838.0944.047274.12081.09301.0264.04574.03365.10006.02015.15112s-.04665.09471-.09221.12142l-1.5268.88c-.03035.01909-.06535.02946-.1012.03z"/></g><path d="m7.40406 12.5817c-.04271-.0001-.08428-.0138-.11862-.0392-.03433-.0254-.05964-.0611-.0722-.102-.01256-.0408-.01173-.0845.00238-.1249.01411-.0403.04076-.075.07604-.0991l.2152-.1464-.7032.4056c-.04492.0248-.09764.0314-.14728.0184-.04963-.013-.09238-.0445-.1194-.0881-.02702-.0437-.03624-.096-.02577-.1462s.03985-.0945.08205-.1237l.054-.036-.404.2332c-.04448.0254-.09701.0327-.14674.0205-.04974-.0122-.0929-.043-.1206-.0861-.02769-.043-.0378-.0951-.02825-.1454s.03804-.095.07959-.125l2.816-2.00478-3.4348 1.98318c-.04492.0261-.0982.0336-.14859.0211-.05038-.0126-.09391-.0442-.12139-.0883-.02748-.044-.03675-.097-.02586-.1478.0109-.0508.0411-.0953.08424-.1242l2.2664-1.5272-2.6148 1.5096c-.04458.0253-.09717.0325-.14691.0202-.04975-.0124-.09285-.0434-.12041-.0866s-.03748-.0954-.0277-.1457c.00977-.0503.03848-.0949.08022-.1247l3.72-2.60838-4.132 2.38518c-.04503.0261-.09846.0336-.14895.021-.05049-.0127-.09405-.0445-.12144-.0888-.02739-.0442-.03644-.0974-.02524-.1482.0112-.0509.04177-.0953.08523-.124l2.32-1.53318-2.4816 1.43318c-.04485.0256-.09784.0328-.1479.0202-.05005-.0126-.09329-.0441-.12067-.0879-.02738-.0437-.03679-.0964-.02624-.1469.01054-.0505.04021-.095.08281-.1242l3.2184-2.17278-3.366 1.94278c-.0452.0253-.09844.032-.14852.0188-.05008-.0131-.09308-.0452-.11998-.08949-.02689-.04426-.03557-.09721-.02422-.14774.01136-.05052.04187-.09467.08512-.12315l.4444-.2836-.4236.2444c-.04526.02652-.09913.0342-.15.02138s-.09466-.04511-.12195-.08992c-.02728-.04481-.03587-.09854-.0239-.14962.01196-.05108.04351-.09541.08785-.12344l.6112-.3908-.5576.32c-.04499.02516-.09795.03198-.14784.01904-.0499-.01294-.09287-.04464-.11995-.0885-.02709-.04385-.0362-.09647-.02543-.14687.01077-.05041.04058-.09471.08322-.12367l2.08-1.3732-2.0164 1.164c-.04492.02603-.0982.03358-.14859.02104-.05038-.01254-.09391-.04418-.12139-.08823s-.03675-.09706-.02586-.14782c.0109-.05076.0411-.0953.08424-.12419l2.3052-1.5416-2.1732 1.2576c-.04475.02722-.09839.03581-.1494.02391s-.09531-.04333-.12339-.08755-.0377-.09768-.02678-.14891.0415-.09613.08517-.12505l2.7484-1.9032-2.52 1.454c-.04475.02557-.09764.03289-.14765.02042-.05-.01247-.09327-.04376-.12076-.08736-.0275-.04359-.03711-.09611-.02682-.14662.01029-.0505.03967-.09508.08203-.12444l1.7852-1.2244-1.442.8332c-.04461.02605-.09757.03384-.14779.02172s-.09381-.0432-.12162-.08673c-.02782-.04354-.03771-.09615-.0276-.14681.0101-.05066.03942-.09545.08181-.12498l1.4284-1.0052-.92.5308c-.04286.02438-.09321.03207-.14139.0216s-.0908-.03838-.11966-.07835c-.02887-.03998-.04195-.08921-.03674-.13824.00522-.04903.02836-.0944.06499-.12741l1.382-1.2304c-.04624.02234-.0993.02604-.14819.01034-.04889-.01571-.08987-.04962-.11444-.09471-.02458-.04508-.03087-.0979-.01757-.1475s.04516-.09218.089-.11893l1.686-.9732c.04251-.02227.09161-.02851.13834-.01759.04672.01092.08797.03828.1162.07709s.04157.08647.03758.13429c-.004.04782-.02505.09262-.05932.12621l-1.382 1.232 3.07-1.7724c.04461-.02606.09757-.03385.14779-.02173s.0938.0432.12162.08674c.02781.04353.03771.09614.0276.1468-.0101.05067-.03942.09546-.08181.12499l-1.4252 1.0036 2.06-1.1896c.04478-.02654.09814-.03457.14875-.0224.05061.01218.09447.04361.12228.08761s.03736.09711.02664.14805c-.01072.05093-.04088.09568-.08407.12474l-1.7884 1.2268 2.2696-1.3104c.04471-.02602.09776-.0337.14802-.02144.05025.01227.0938.04353.12149.08722.0277.04369.03739.09642.02704.1471s-.03994.09538-.08255.12472l-2.7464 1.9024 3.21844-1.8584c.045-.02673.0986-.03476.1495-.02236.0508.0124.0948.04424.1224.08869.0277.04444.0368.09795.0254.14904-.0113.05109-.0423.09569-.0861.12423l-2.30564 1.5412 2.59564-1.498c.0449-.02517.0979-.03199.1478-.01905s.0929.04465.12.0885c.027.04385.0361.09647.0254.14688-.0108.0504-.0406.09471-.0832.12367l-2.08004 1.3724 2.27324-1.3128c.0452-.02653.0991-.03421.15-.02139.0508.01282.0946.04512.1219.08992.0273.04481.0359.09854.0239.14962-.0119.05108-.0435.09541-.0878.12345l-.6124.392.6844-.3948c.0451-.02448.098-.03064.1475-.01721.0496.01342.0921.04541.1188.08932.0266.04392.0353.0964.0243.14656-.011.05017-.0409.09419-.0834.12293l-.4468.2852.48-.276c.0448-.0266.0983-.0346.1491-.0223.0507.0123.0945.04392.1223.08813.0277.0442.037.09749.026.14849-.011.05099-.0415.09566-.085.12448l-3.21804 2.1728 3.31684-1.9148c.0449-.02517.0979-.03199.1478-.01905s.0929.04465.12.0885c.027.04385.0361.09647.0254.14688-.0108.0504-.0406.09471-.0832.12367l-2.32004 1.5328 2.30804-1.332c.0445-.02444.0966-.03105.1457-.01848.0492.01256.0918.04336.1191.08614s.0374.09435.0281.14425c-.0093.04991-.0373.09441-.0781.12449l-3.72004 2.608 3.67204-2.12c.0449-.02604.0982-.03358.1485-.02105.0504.01254.094.04418.1214.08823.0275.04405.0368.09706.0259.14782s-.0411.0953-.0842.1242l-2.268 1.5276 2.0848-1.2036c.0444-.02538.097-.03272.1467-.02052s.0929.04301.1206.08609.0378.09513.0282.14545c-.0095.05031-.038.09504-.0795.12498l-2.81724 2.006 2.49524-1.44c.045-.02611.0984-.03364.1489-.02098s.0941.04449.1214.08875c.0274.04426.0365.09746.0253.14829s-.0418.09529-.0852.12394l-.2864.1896c.0443-.00471.0888.0055.1267.02901.0378.02351.0667.05897.0821.10077s.0164.08754.0028.12997c-.0135.04243-.0409.07911-.0776.10425l-.4128.28c.0355-.00464.0717.00081.1043.01573.0326.01493.0603.03872.0801.06867.0286.04107.0408.09138.0341.141s-.0317.09494-.0701.127l-1.14.94838c.0362-.0009.072.0078.1036.0254.0317.0176.058.0434.0764.0746.0264.0459.0336.1003.0199.1515-.0136.0511-.047.0947-.0927.1213l-1.81964 1.0508c-.04332.0248-.09435.0326-.14308.0217-.04872-.0109-.09161-.0396-.12024-.0805-.02862-.0409-.04091-.0911-.03445-.1406s.03121-.0948.06937-.127l1.0336-.8616-2.4228 1.4c-.03001.017-.06393.0258-.0984.0256z" fill="#f9c65f"/><path d="m16.7116 23.7766c-.0425 0-.0838-.0135-.1181-.0386-.0342-.025-.0596-.0603-.0725-.1008-.0129-.0404-.0125-.0839.0009-.1241.0135-.0403.0395-.0752.0741-.0997l3.0464-2.1532-4.0188 2.32c-.0451.0252-.0982.032-.1482.0189-.0499-.0131-.0929-.045-.1199-.089-.027-.0441-.0359-.0968-.0248-.1473.011-.0505.0412-.0947.0841-.1234l1.3852-.8968-1.8168 1.0488c-.0447.0243-.097.0306-.1461.0177-.0492-.0129-.0917-.044-.1187-.087-.0271-.0431-.0367-.0948-.027-.1448.0097-.0499.0381-.0942.0794-.1239l4.2292-2.8776-4.9032 2.83c-.0449.026-.0982.0336-.1486.021-.0504-.0125-.0939-.0441-.1214-.0882-.0275-.044-.0367-.0971-.0259-.1478.0109-.0508.0411-.0953.0843-.1242l4.76-3.206-5.3136 3.0676c-.0453.0249-.0984.0313-.1482.0179-.0499-.0134-.0926-.0455-.1193-.0897s-.0353-.0969-.024-.1473.0416-.0944.0847-.1229l1.8644-1.1788-2.0728 1.1964c-.044.0252-.0958.0328-.1452.0213-.0493-.0116-.0924-.0414-.1206-.0835s-.0393-.0933-.0312-.1433.0349-.0951.075-.1261l.7792-.6-.9652.5568c-.0418.0241-.0908.0323-.1381.0231-.0474-.0092-.0898-.0351-.1195-.0731s-.0446-.0854-.0422-.1335c.0025-.0482.0223-.0938.0558-.1285l.7416-.766-.96.5548c-.0404.0231-.0877.0313-.1335.0233-.0459-.008-.0875-.0317-.1178-.0671-.0302-.0354-.0471-.0802-.0479-.1268-.0007-.0466.0149-.0919.044-.1282l.4464-.552-.5712.3296c-.0408.0234-.0884.0317-.1347.0234-.0462-.0082-.0881-.0325-.1183-.0685-.0301-.036-.0466-.0815-.0466-.1285s.0166-.0924.0468-.1284l.1404-.1664-.1256.0724c-.0347.02-.0746.0291-.1145.0262s-.078-.0177-.1095-.0425c-.0314-.0248-.0546-.0585-.0667-.0967-.012-.0381-.0124-.0791-.0009-.1174l.152-.5108-.1712.0988c-.0314.0181-.067.0273-.1032.0268-.0362-.0006-.0716-.011-.1023-.0301-.0308-.0191-.0558-.0462-.0723-.0783-.0166-.0322-.0241-.0683-.0218-.1044l.022-.3352c-.0456.0049-.0914-.0059-.13-.0307-.0385-.0248-.0673-.0621-.0816-.1056-.0144-.0435-.0133-.0906.0029-.1334.0162-.0429.0467-.0788.0863-.1019l.2448-.1416c.0313-.0181.067-.0274.1032-.0268s.0715.011.1023.0301c.0307.0191.0557.0461.0723.0783s.0241.0683.0218.1044l-.0204.3152.282-.1628c.0346-.02.0744-.0291.1143-.0262s.078.0177.1093.0425c.0314.0247.0547.0583.0668.0964s.0125.079.0012.1173l-.152.5108.68-.3924c.0407-.0234.0884-.0317.1347-.0235.0462.0083.0881.0325.1182.0685.0302.0361.0467.0816.0467.1285-.0001.047-.0166.0925-.0468.1285l-.1396.1664.5152-.2976c.0404-.0231.0876-.0314.1335-.0234s.0875.0318.1177.0672c.0303.0354.0472.0802.0479.1268.0007.0465-.0148.0919-.0439.1282l-.4464.552 1.2648-.7304c.0417-.0241.0908-.0323.1381-.0231.0473.0091.0897.0351.1194.0731s.0447.0854.0422.1335c-.0025.0482-.0223.0938-.0557.1285l-.7424.7664 2.344-1.3528c.0439-.0247.0955-.032.1446-.0202.049.0117.0918.0415.1198.0834s.0391.0928.0312.1426c-.008.0497-.0344.0947-.074.1258l-.7788.6 8.0484-4.6468c.0453-.0259.0989-.0331.1494-.02s.0938.0454.1209.09c.027.0446.0355.098.0237.1488-.0117.0508-.0429.095-.0868.1232l-1.8584 1.1752 1.7228-.9944c.0448-.0248.0974-.0315.147-.0187.0496.0129.0924.0442.1195.0877.0272.0434.0366.0956.0264.1458-.0103.0502-.0394.0946-.0813.124l-4.76 3.2072 4.5784-2.6436c.0448-.0252.0975-.0322.1473-.0195.0498.0126.0928.044.1201.0875s.0368.0959.0266.1462-.0395.0948-.0816.1242l-4.2288 2.8772 3.908-2.256c.045-.0245.0978-.0307.1473-.0174s.092.0451.1187.0888c.0268.0438.0357.0961.025.1462-.0108.0501-.0403.0942-.0826.1232l-1.3832.8964 1.0192-.5884c.0445-.0257.0973-.0332.1472-.0211.05.0122.0933.0431.1211.0864.0277.0433.0377.0956.0279.1461s-.0387.0952-.0806.125l-3.0452 2.1524 2.3768-1.3724c.0439-.0252.0958-.0328.1451-.0213s.0925.0414.1206.0835c.0282.0421.0394.0933.0313.1433-.0082.05-.035.0951-.075.1261l-2.0464 1.5736.8304-.48c.0459-.0261.1003-.033.1512-.0192.051.0139.0944.0473.1208.093.0264.0458.0337.1001.0202.1512-.0135.051-.0467.0947-.0922.1214l-3.4524 1.9944c-.044.0252-.0958.0328-.1452.0213-.0493-.0116-.0924-.0414-.1206-.0835s-.0393-.0933-.0312-.1433.0349-.0951.075-.1261l2.046-1.5732-3.5304 2.04c-.0311.0175-.0664.0262-.102.0252z" fill="#254b68"/><path d="m18.6168 17.9698c-.0418-.0005-.0823-.0141-.116-.0388s-.0588-.0594-.0717-.0991c-.013-.0397-.0132-.0825-.0006-.1223.0125-.0399.0373-.0748.0707-.0998l1.4052-1.0232-.5044.2892c-.0435.0244-.0945.0317-.1431.0204-.0486-.0112-.0912-.0403-.1195-.0813-.0283-.0411-.0402-.0913-.0335-.1407.0068-.0494.0318-.0945.0701-.1264l1.5284-1.2436-.9156.528c-.0426.0244-.0927.0322-.1407.0221s-.0906-.0376-.1197-.0771-.0427-.0884-.0381-.1372c.0046-.0489.027-.0944.0629-.1278l1.3352-1.2324-.934.5392c-.0435.0252-.0948.0331-.1438.0221-.049-.0109-.0921-.0399-.1208-.0812-.0286-.0413-.0406-.0918-.0337-.1416.0069-.0497.0323-.095.0711-.1269l.32-.2616-.08.0464c-.0429.0241-.0933.0316-.1414.0209-.0481-.0106-.0905-.0387-.1192-.0787-.0287-.0401-.0416-.0893-.0363-.1383.0054-.0489.0286-.0942.0653-.1271l.3232-.2832-.1268.0728c-.0403.0233-.0875.0319-.1334.0241-.046-.0077-.0878-.0313-.1182-.0665-.0304-.0353-.0475-.0802-.0484-.1268-.0009-.0465.0145-.092.0436-.1284l.64-.8068-.54.3116c-.0379.0219-.0819.0307-.1253.0252-.0434-.0056-.0838-.0252-.115-.0559-.0312-.0306-.0514-.0707-.0577-.114-.0062-.0433.0019-.0875.0232-.1257l.3912-.7012-.3772.2176c-.0347.02-.0745.0291-.1145.0262-.0399-.0029-.078-.0177-.1094-.0425s-.0547-.0585-.0667-.0967c-.0121-.0381-.0124-.0791-.001-.1174l.1408-.4716-.1556.09c-.0306.0176-.0653.0269-.1006.0268s-.07-.0096-.1004-.0274c-.0305-.0178-.0557-.0434-.0731-.0742-.0174-.0307-.0263-.0655-.0259-.1008l.0028-.2236c-.047.0136-.0974.0095-.1417-.0116-.0442-.0211-.0791-.0577-.0981-.1028-.0191-.0451-.0209-.0957-.0051-.1421.0157-.0463.0479-.0853.0905-.1095l.2588-.1492c.0306-.0177.0654-.0269.1007-.0268.0354.0001.07.0096.1005.0275s.0557.0435.0731.0743c.0173.0308.0262.0656.0257.101l-.0028.216.2872-.1656c.0347-.0202.0746-.0294.1146-.0266.04.0029.0782.0177.1097.0425.0315.0249.0548.0586.0669.0968.012.0383.0123.0793.0008.1177l-.1416.472.5692-.3284c.0379-.0219.0819-.0307.1253-.0252s.0838.0251.115.0558.0514.0708.0577.1141c.0062.0433-.0019.0874-.0232.1257l-.3924.6996.824-.4756c.0403-.0232.0875-.0316.1333-.0237.0458.0078.0875.0313.1178.0666.0304.0352.0475.0799.0485.1264.0009.0465-.0143.0918-.0432.1283l-.64.8072.9812-.5668c.0429-.0242.0933-.0316.1414-.021.0481.0107.0906.0387.1192.0788.0287.04.0416.0893.0363.1382-.0054.049-.0286.0943-.0653.1272l-.3248.2844.4228-.2436c.0435-.0247.0946-.0323.1433-.0212.0488.0111.0916.0401.1201.0812.0284.0411.0405.0913.0337.1409-.0068.0495-.0319.0947-.0703.1267l-.3172.2608.3792-.2188c.0426-.0244.0927-.0323.1407-.0221.048.0101.0906.0375.1197.0771.0291.0395.0427.0883.0381.1372s-.027.0944-.0629.1278l-1.336 1.2344 1.5296-.8828c.0435-.0244.0945-.0317.1431-.0205.0486.0113.0912.0403.1195.0814s.0403.0912.0335.1406-.0318.0945-.0701.1265l-1.5276 1.2444 1.612-.9308c.0443-.0252.0966-.0326.1462-.0205.0495.0121.0926.0426.1204.0853.0278.0428.0382.0946.0291.1447-.0091.0502-.0371.095-.0781.1253l-1.4072 1.0252 1.3936-.8048c.0228-.0145.0482-.0242.0748-.0286.0267-.0044.0539-.0033.0801.0031s.0508.0181.0724.0343c.0216.0161.0397.0365.0532.0599.0135.0233.0221.0492.0253.076.0033.0267.0011.0539-.0064.0798s-.0202.05-.0373.0709-.0382.0381-.0621.0506l-4.6668 2.6924c-.0303.0178-.0648.0272-.1.0272z" fill="#254b68"/><path d="m21.812 8.54697c-.0392-.00007-.0775-.01167-.1102-.03336-.0327-.02168-.0583-.05249-.0736-.08859s-.0196-.0759-.0125-.11446c.0072-.03855.0255-.07416.0527-.10239l.7792-.8072-1.0116.584c-.0414.02377-.0899.03196-.1368.02309s-.089-.0342-.1189-.07143c-.0298-.03723-.0454-.0839-.0438-.13159.0015-.04769.0201-.09326.0523-.12847l.7704-.84-.9696.56c-.0426.02592-.0934.03498-.1423.0254-.049-.00959-.0926-.03711-.1223-.07718s-.0434-.0898-.0383-.13942.0285-.09556.0657-.1288l.6576-.62-.788.4552c-.0381.02195-.0823.03075-.1259.02505-.0435-.0057-.084-.02558-.1151-.05658-.0312-.03099-.0512-.07138-.0571-.11491-.0059-.04354.0027-.0878.0245-.12596l.08-.1436c-.0429-.00257-.0837-.01885-.1166-.04645s-.056-.06504-.066-.1068c-.0099-.04175-.0062-.0856.0107-.12507.0169-.03946.046-.07245.0831-.09408l.5-.2888c.0379-.02174.0819-.03045.1252-.02482.0434.00564.0837.02531.1148.05602.0308.03101.0507.07126.0564.11461.0058.04335-.0028.08739-.0244.12539l-.05.0876 1.6312-.9416c.0426-.02591.0934-.03497.1423-.02539.049.00958.0926.03711.1223.07718s.0433.08979.0383.13941c-.0051.04963-.0285.09556-.0657.1288l-.658.6196.614-.354c.0413-.0235.0897-.0315.1364-.02258s.0887.03418.1184.07126c.0298.03708.0454.08354.044.13107-.0014.04752-.0197.09299-.0516.12825l-.7704.84 1.116-.6444c.0418-.02411.0909-.03231.1382-.02308.0474.00923.0898.03527.1195.07332.0296.03805.0446.08554.042.13372s-.0225.09379-.0561.12844l-1.0252 1.0608c.0317.01741.0578.04331.0756.0748.0264.04585.0336.10031.0199.15144-.0136.05114-.047.09478-.0927.12136l-.788.4592c-.0304.01748-.065.02646-.1.026z" fill="#c3dadc"/><path d="m21.2112 5.63014c-.0393-.00009-.0778-.01178-.1105-.03361-.0328-.02183-.0583-.05284-.0735-.08913-.0152-.0363-.0194-.07627-.012-.11492.0074-.03864.0261-.07424.0536-.10234l.5416-.5504-.2992.1724c-.0422.02467-.092.03303-.14.02349-.0479-.00955-.0907-.03633-.1203-.07529-.0295-.03896-.0438-.08739-.04-.13615.0037-.04876.0252-.09445.0603-.12845l.4024-.3912-.1632.09359c-.0426.02439-.0927.03227-.1407.02213s-.0906-.03758-.1197-.07711c-.0291-.03952-.0427-.08837-.0381-.13724s.027-.09434.0629-.12777l.1796-.1656c-.0404.00906-.0826.00534-.1209-.01063-.0382-.01597-.0705-.04341-.0924-.07853-.022-.03512-.0325-.0762-.0301-.11755s.0176-.08094.0434-.1133l.52-.63999-.4144.2416c-.0387.0224-.0838.03117-.1281.02492-.0443-.00626-.0852-.02718-.1162-.05943-.031-.03224-.0503-.07395-.0548-.11845-.0045-.04451.006-.08924.0299-.12704l.48-.76281-.7272.4196c-.0387.02184-.0836.03017-.1275.02367-.044-.0065-.0845-.02745-.1153-.05956-.0307-.0321-.0498-.07352-.0544-.11773-.0046-.0442.0057-.08867.0292-.12638l.4068-.6296-1.0452.6032c-.0426.02592-.0934.03498-.1423.0254-.049-.00958-.0926-.03711-.1223-.07718s-.0433-.0898-.0383-.13942c.0051-.04962.0285-.09555.0657-.1288l.0924-.0868-.6992.4036c-.041.02355-.089.03181-.1356.02329-.0465-.00851-.0885-.03323-.1185-.06977-.03-.03655-.0461-.08255-.0454-.12984.0006-.04729.0181-.09281.0491-.12848l.5424-.6152-1.5852.9132c-.0419.02306-.0908.0303-.1376.0204-.0469-.00989-.0886-.03627-.1177-.07432-.029-.03806-.0435-.08528-.0407-.13308.0029-.04779.0227-.093.056-.1274l.494-.4948-.8068.46561c-.0375.0215-.081.03027-.1239.02499-.0429-.00529-.083-.02434-.1141-.0543-.0312-.02996-.0518-.06922-.0588-.11189-.007-.04268 0-.08647.02-.12481l.32-.612395-.0648.0372c-.0457.02391-.0989.029236-.1484.014863-.0496-.014372-.0916-.047331-.1174-.091991-.0259-.04466-.0334-.097568-.0211-.147671.0122-.050104.0434-.093527.0869-.121201l.6636-.3824c.0375-.021507.081-.030276.1239-.024993s.083.024333.1142.054295c.0311.029962.0518.069223.0588.111896.0069.042674-.0001.086462-.0201.124802l-.32.612395 1.5224-.878395c.042-.023057.0908-.030295.1377-.020399.0468.009896.0885.036269.1176.074327s.0435.085275.0407.133072-.0227.093001-.056.1274l-.4932.493595 1.32-.762395c.0411-.023798.0893-.032219.136-.023759.0467.008459.0888.033249.1189.069939s.0462.082888.0454.130339c-.0009.04745-.0185.093061-.0499.128681l-.5408.617195 1.1352-.655195c.0426-.025917.0934-.034973.1423-.025393.049.009581.0926.037107.1223.077178s.0434.089795.0383.139416c-.0051.049622-.0285.095559-.0657.128799l-.092.0868.2768-.16c.0387-.021839.0836-.030166.1276-.023666.0439.006499.0845.027455.1152.059558s.0499.073526.0544.117729c.0046.044204-.0057.088674-.0292.126374l-.4072.6284.7076-.4084c.0387-.0224.0838-.03117.1281-.02492.0443.00626.0852.02718.1162.05943.0311.03224.0503.07395.0549.11845.0045.04451-.0061.08924-.03.12704l-.48.7632.6672-.3848c.0405-.02327.0879-.03162.1339-.02361.0461.00801.0878.03187.1181.06746s.0471.08065.0476.12737-.0153.09214-.0448.12838l-.52.64001.52-.29921c.0426-.02438.0927-.03226.1407-.02212s.0907.03758.1198.07711c.0291.03952.0426.08837.038.13724s-.0269.09435-.0629.12777l-.15.13881c.0422-.02468.092-.03304.14-.0235.0479.00955.0907.03633.1203.07529.0295.03896.0438.08739.0401.13615-.0038.04876-.0252.09445-.0604.12846l-.4.3904.1872-.10761c.0419-.02385.0909-.03179.1382-.02235.0472.00943.0895.03561.119.07372.0295.0381.0442.08557.0415.13368-.0027.0481-.0227.09361-.0563.12816l-.548.5504.3028-.1748c.0459-.02611.1003-.03299.1513-.01915.0509.01383.0944.04727.1208.09301.0264.04573.0336.10006.0201.15112s-.0466.0947-.0922.12141l-1.5804.91241c-.0305.01705-.065.02561-.1.0248z" fill="#c3dadc"/><path d="m2.99996 18.1928c-.0439-.0002-.08652-.0148-.12131-.0415-.03478-.0268-.05979-.0643-.07116-.1067-.01138-.0424-.00848-.0874.00823-.128s.04631-.0745.08424-.0966l.5724-.3304c.04571-.0239.09889-.0293.14843-.0149s.09162.0473.11743.092c.02582.0447.03338.0976.02111.1477-.01228.0501-.04343.0935-.08697.1212l-.5724.3304c-.03036.0176-.06487.0269-.1.0268z" fill="#c3dadc"/><path d="m4.54239 23.7881c-.03745 0-.07416-.0105-.10594-.0303-.03179-.0198-.05737-.0481-.07383-.0818-.01647-.0336-.02316-.0712-.01931-.1085.00385-.0372.01808-.0726.04108-.1022l.598-.7712-1.536.8864c-.04113.0235-.08928.0317-.13587.023-.04658-.0087-.08857-.0336-.1185-.0703-.02992-.0368-.04582-.0829-.04488-.1303.00095-.0474.01869-.0929.05005-.1284l.4168-.4672-.806.4652c-.03872.0224-.08383.0312-.12812.0249-.04429-.0062-.08521-.0272-.11621-.0594-.031-.0323-.0503-.074-.05481-.1185s.00603-.0892.02994-.127l.408-.648-.7468.4316c-.04098.0235-.08897.0318-.13548.0234-.0465-.0085-.08851-.0331-.11856-.0696-.03006-.0365-.04622-.0824-.04563-.1297s.01791-.0928.04887-.1285l.2532-.29-.3308.1912c-.04102.0238-.08917.0322-.13584.0238-.04668-.0084-.08885-.0331-.11899-.0697-.03013-.0366-.04627-.0828-.04553-.1302.00073-.0474.0183-.093.04956-.1287l.32-.366-.3408.1948c-.04134.0238-.0898.032-.13666.0232-.04686-.0089-.08903-.0341-.1189-.0713s-.04549-.0838-.04403-.1314c.00146-.0477.0199-.0932.05199-.1285l.4108-.4484-.3552.2044c-.04191.0228-.09058.0298-.13723.0199-.04665-.01-.0882-.0363-.11717-.0742-.02896-.0379-.04343-.0849-.04079-.1325s.02221-.0927.05519-.1272l.4148-.4164-.2608.1504c-.04154.0238-.09022.0319-.13721.0228-.047-.0091-.08918-.0347-.1189-.0722s-.045-.0844-.04308-.1323c.00193-.0478.02095-.0933.05359-.1283l.6288-.666-.3952.2276c-.04182.0238-.09084.0318-.13806.0224-.04721-.0094-.08945-.0355-.11897-.0735-.02952-.0381-.04433-.0855-.04172-.1335.00262-.0481.02248-.0936.05595-.1282l.56-.5736-.32.1852c-.04236.0259-.09284.0351-.14163.0259s-.09239-.0363-.12233-.0759-.044067-.089-.03964-.1384c.00443-.0495.0271-.0955.0636-.1292l.9412-.8976-.7056.4076c-.04128.023-.08936.0306-.13572.0215-.04637-.009-.08803-.0342-.1176-.0711-.02956-.0368-.04513-.083-.04394-.1302.0012-.0472.01907-.0925.05046-.1278l.8-.8616-1.2084.6952c-.043088.0247-.093851.0326-.142398.022-.048546-.0107-.091398-.039-.120208-.0795-.028809-.0405-.041511-.0902-.035631-.1396.00588-.0493.02992-.0947.067437-.1273l.454-.3928-.28.16c-.041496.0238-.090135.0319-.1371.0229-.046965-.0091-.089146-.0346-.118895-.072-.02975-.0375-.0451-.0843-.043266-.1321s.020729-.0934.053261-.1284l1.04-1.1136c-.00787-.0094-.01496-.0195-.0212-.03-.02652-.0459-.03371-.1005-.01998-.1518.01373-.0512.04725-.0949.09318-.1214l.528-.3052c.04154-.0241.09035-.0324.13751-.0234.04716.0089.08953.0345.11937.0721s.04516.0847.04316.1327c-.00199.048-.02118.0936-.05404.1286l-.656.7052.9368-.54c.04303-.0243.09353-.0318.14177-.0211s.09079.039.11946.0792c.02868.0403.04143.0897.03581.1388s-.02922.0944-.06624.1271l-.4524.3916.532-.3072c.04146-.0241.09018-.0324.13728-.0236.04711.0089.08946.0344.11936.0718.0299.0375.04536.0844.04355.1323s-.02075.0936-.05339.1287l-.8.8616 1.0032-.5792c.04236-.0259.09284-.0352.14163-.0259.04879.0092.09239.0363.12233.0759s.04407.089.03964.1384c-.00443.0495-.0271.0955-.0636.1292l-.94.8976.1384-.08c.04182-.0238.09084-.0318.13806-.0224.04721.0094.08945.0355.11897.0735s.04433.0854.04172.1335c-.00262.0481-.02248.0936-.05595.1282l-.56.5732.32-.1832c.04158-.0238.09031-.0319.13733-.0227.04702.0091.08921.0347.1189.0723s.04491.0846.04288.1325c-.00202.0478-.02115.0933-.05391.1283l-.6328.6668.3832-.2212c.04191-.0228.09058-.0298.13723-.0199.04665.01.0882.0363.11717.0742s.04343.0849.04079.1325-.02221.0927-.05519.1272l-.4132.4164.1732-.0996c.04138-.024.09001-.0325.13706-.0237s.0894.0341.11936.0714.04554.0842.04393.132c-.00162.0478-.02034.0935-.05275.1287l-.4116.4492.256-.1476c.04098-.0236.08897-.0319.13548-.0234.0465.0085.08851.0331.11856.0696.03006.0365.04623.0824.04563.1297-.00059.0473-.01791.0928-.04887.1285l-.32.366.3316-.1912c.04102-.0238.08917-.0323.13584-.0239.04668.0084.08885.0332.11899.0698.03013.0366.04627.0828.04554.1302-.00074.0474-.01831.093-.04957.1287l-.254.2892.4052-.234c.03872-.0224.08383-.0312.12812-.0249.04429.0062.08521.0271.11621.0594.031.0322.0503.0739.05481.1184.00451.0446-.00603.0893-.02994.1271l-.408.648 1.1844-.682c.04113-.0235.08928-.0317.13587-.023.04658.0086.08857.0336.1185.0703.02992.0368.04582.0829.04488.1303-.00095.0474-.01869.0929-.05005.1284l-.4172.4676 1.3412-.7736c.04013-.0233.08712-.0319.13291-.0244.04579.0076.08753.0308.11808.0657.03054.035.04798.0794.04933.1258.00136.0464-.01347.0918-.04192.1285l-.5976.7708 1.4976-.8664c.039-.0224.08441-.031.12889-.0244.04449.0065.08546.0279.1163.0607.03084.0327.04975.0749.05367.1197s-.00738.0896-.03206.1272l-.44.6672.4296-.248c.02275-.0134.04792-.0221.07405-.0256.02614-.0036.05272-.002.07822.0048.0255.0067.04941.0184.07037.0345.02095.016.03852.036.05171.0588.01319.0229.02173.0481.02513.0742.0034.0262.00159.0528-.00532.0782-.00691.0255-.01879.0493-.03495.0702-.01616.0208-.03628.0383-.05921.0513l-1.1624.6712c-.03897.0226-.08442.0314-.12899.0249s-.08566-.0278-.11661-.0605c-.03094-.0328-.04987-.0752-.05372-.1201-.00385-.045.00761-.0899.03252-.1275l.44-.6676-1.6472.9508c-.03021.0181-.06476.0278-.1.028z" fill="#c3dadc"/><path d="m8.55998 12.4646c4.93882-.8 5.56002-8.16522.6956-9.59442-8.182-2.127199-9.2112015 10.77442-.6956 9.59442zm-4.8124-7.31362c2.24-3.9876 8.48922-1.9268 8.36002 2.5008-.538 7.90802-11.902421 4.31362-8.36002-2.5008z" fill="#262626"/><path d="m19.802 10.8331c-2.5148-.93121-.3348 1.3868-.3316 2.4488.7348 3.4368-2.4104 6.898-5.92 6.3108-.8936.1252-3.66159-2.1764-2.8432.0548 6.0584 11.1512 20.278-2.5416 9.0948-8.8144zm-2.0944 12.528c-2.9176.28-5.4428-1.4536-6.5712-4.176 4.9572 3.3444 11.5116-3.064 8.1224-8.0664 6.0136 2.1688 4.8844 11.7276-1.5512 12.2424z" fill="#262626"/><path d="m.280012 8.05821c1.109998.9352.4916 1.168.3444 2.26439.0692.44.719998.566 1.045598.7516.7832.4492-.0876 1.7828 1.0624 1.8756 1.9708-.264.8868 2.3164 3.1736 1.1536.232-.08.2336-.104.4092.064.9308 1.1036 1.686.7768 2.5708-.1392 1.08.704 2.26399.3264 2.36679-1.028.8-.0672 2.0252.04 1.8952-1.1264-.3224-1.2104 1.5312-.8892 1.404-1.94239-1.1904-1.9756 1.6604-1.72-.102-3.3152-.666-.6696.7112-1.6736-.28-2.1768-2.034-.5288.1164-2.4256-2.4144-2.2292-1.1556-.5088-.468-2.039998-2.42159-1.1248-1.1108.226-.8648-1.995598-3.0168.0852-1.1572-.670798-2.1284-.348798-2.4344 1.0224-3.322798.0144-.5296 1.6884-2.966398 2.4328-.6328.44.0112 1.1048.0644 1.6636-.046.6764-1.2752 1.0248-.7008 1.7688zm.871998-1.2252c.2768-.3128.474-.5132.3396-.9512-1.084798-2.3604 1.5636-.5168 1.1568-3.4064 1.3044-.078 1.706.0364 2.214-1.3164.1268-.154.1628-.0888.3696-.0172.5268.24 1.1548.3664 1.6316-.0512.2756-.131998.5424-.759998.84-.423198 1.2516 1.639998 1.9788-.1876 2.61759.603198.6128 2.0076 1.67.5116 2.2216 1.6352-.3392 2.1632 1.9816 1.0996 1.2648 2.8324-.6728.954 1.0208 1.3732.5828 2.2432-.7064.56-.9416 1.1624-.4616 1.9808.188 1.38159-1.6652.22599-1.3956 2.76639-.2916.096-.7328-.0028-1.0448.0696-1.0184-.0348-.8432 1.688-1.56559 1.248-1.5512-.808-1.8244.8424-2.41.5064-1.28-1.5968-1.96.1404-2.64-.626-.4988-2.128-2.2268-.284-2.2476-2.1-.0256-.4284-.02-.7376-.438-.9572-1.152-.378-1.118-.8084-.6568-1.81679.0752-.926-1.5155979-1.2728-.3784-2.2196z" fill="#262626"/><path d="m23.0123 2.82467c-.028-2.959999-7.4064-3.745599-6.3704-1.1028 2.348 1.6748 4.57-1.7543987 4.2656 4.0992-1.68.24-.12 1.7816.4092 2.456.8636 1.352 3.87-2.6124 1.7736-2.4656-.0364-.9924.092-2.0072-.078-2.9868zm.2212 3.876c-.376.2684-.9408 1.8044-1.382 1.3372-.2996-.572-1.2956-1.1976-1.08-1.8536.2-.0508.6456.0924.72-.2152-.0272-.886.0564-1.7828-.0164-2.6648-.2352-2.771599-4.87-.2992-4.2932-2.489599 4.242-1.1356 5.738 1.137199 5.3252 5.214399.1188.352 1.102-.0032.7264.6716z" fill="#262626"/><path d="m.41804 18.0728c.157901.0564.326355.077.4932.0604-.0344 1.8912-.2712 4.2844 1.7836 5.2316 1.0936.4704 5.5956 1.0532 4.61-1.1548-.362-.458-1.0756-.3388-1.5912-.3388-2.8168.48-2.7176-1.6672-2.6232-3.7556 1.6744-.2192.1012-1.7048-.4024-2.376-.8756-1.0748-2.04 1.0024-2.4592 1.5552-.048576.0603-.082625.1309-.09951.2065-.016884.0755-.016151.154.002142.2292.018294.0752.053657.1452.10335.2046.049694.0593.112385.1065.183218.1377zm1.0692-1.7672c.10469-.1777.22995-.3424.3732-.4908.0836-.0644-.0268-.152.1688-.0028.44878.5346.86819 1.0931 1.2564 1.6732.208.6604-.6192.1828-.7748.5928-.2528 3.3708.17 4.3784 3.76 4.0512.12082.0188.23524.0667.33335.1397.0981.073.17693.1688.22964.2791.05272.1104.07775.2319.0729.3541-.00484.1221-.0394.2413-.10069.3471-.374.4464-1.0708.132-1.5848.2208-3.32.4264-4.0748-2.938-3.728-5.5488-1.4696003-.0568-.5-.9392-.006-1.6156z" fill="#262626"/></g></svg>