<svg fill="none" height="44" viewBox="0 0 44 44" width="44" xmlns="http://www.w3.org/2000/svg" xmlns:xlink="http://www.w3.org/1999/xlink"><clipPath id="a"><path d="m0 0h44v44h-44z"/></clipPath><g clip-path="url(#a)"><path d="m21.2792 39.4772c-.0757.0001-.1495-.0233-.2114-.0668-.0618-.0436-.1087-.1052-.1342-.1765-.0254-.0712-.0282-.1486-.008-.2215.0203-.0729.0626-.1377.1211-.1857l.7172-.5866-.8587.495c-.0802.0459-.1748.0599-.2648.0391-.0901-.0208-.1689-.0749-.2209-.1513-.0519-.0765-.073-.1698-.0591-.2611.0139-.0914.0618-.1742.1341-.2317l3.0008-2.365-3.4019 1.9639c-.0816.0478-.1785.0623-.2706.0404-.092-.0219-.172-.0786-.2232-.1581-.0513-.0796-.0698-.1759-.0517-.2687.0181-.0929.0714-.1752.1488-.2297l3.652-2.6069-3.993 2.3077c-.0824.0478-.1801.0616-.2724.0386-.0924-.023-.1722-.081-.2226-.1617-.0504-.0808-.0674-.178-.0474-.271.02-.0931.0754-.1747.1544-.2277l2.9898-1.9991-3.2164 1.8568c-.082.0469-.179.0603-.2706.0375-.0917-.0229-.171-.0803-.2215-.1602-.0504-.0799-.068-.1762-.0491-.2688.0188-.0926.0727-.1743.1504-.2282l7.2519-4.9492-7.7455 4.4733c-.0822.0461-.1791.0588-.2705.0353s-.1702-.0812-.22-.1613c-.0499-.0801-.067-.1763-.0477-.2686.0192-.0924.0733-.1738.151-.2272l9.0714-6.0391-9.5898 5.5367c-.0829.0437-.1794.0541-.2697.0288-.0903-.0252-.1675-.084-.2157-.1643-.0483-.0804-.0639-.1762-.0438-.2677.0202-.0916.0747-.1719.1522-.2245l3.0617-1.9133-3.2267 1.8649c-.0826.0448-.1792.0562-.27.0318-.0907-.0243-.1687-.0826-.2177-.1628s-.0654-.1761-.0457-.268c.0196-.0919.0738-.1727.1514-.2258l11.6123-7.502-12.1323 7.0055c-.0833.0502-.1832.0652-.2776.0418-.0944-.0235-.1756-.0835-.2258-.1668-.0502-.0834-.0652-.1832-.0417-.2776.0234-.0944.0834-.1757.1667-.2258l9.5891-6.0038-9.9337 5.7346c-.0833.0469-.1817.0595-.2741.035-.0924-.0246-.1715-.0842-.2206-.1663-.0491-.082-.0641-.18-.042-.273s.0797-.1737.1605-.2249l7.6054-4.6977-7.8599 4.5393c-.0832.048-.182.0614-.275.0373-.0931-.024-.1729-.0837-.2224-.1661-.0495-.0823-.0647-.1808-.0423-.2743s.0806-.1744.162-.2253l10.3202-6.449-10.681 6.1651c-.0833.0502-.1832.0652-.2776.0418-.0944-.0235-.1756-.0834-.2258-.1668-.0502-.0833-.0652-.1832-.0417-.2776.0234-.0944.0834-.1756.1667-.2258l10.4302-6.534-10.8005 6.2333c-.083.045-.1801.0562-.2712.0313-.091-.0248-.169-.0838-.2176-.1647-.0487-.0808-.0643-.1774-.0436-.2694.0207-.0921.0761-.1727.1547-.2249l9.0024-5.6357-9.3294 5.3863c-.0411.0252-.0867.042-.1343.0495s-.0961.0056-.1429-.0057c-.0469-.0113-.091-.0317-.1299-.06-.039-.0283-.072-.064-.0971-.1051s-.0419-.0867-.0494-.1343c-.0075-.0475-.0056-.0961.0057-.1429.0112-.0469.0316-.091.06-.1299.0283-.039.064-.072.1051-.0971l11.6952-7.5533-12.2166 7.0569c-.0833.048-.182.0614-.2751.0373-.093-.0241-.1729-.0838-.2224-.1661-.0495-.0824-.0647-.1809-.0423-.2744.0224-.0934.0806-.1743.1621-.2253l5.2338-3.2685-5.4553 3.1497c-.0829.0449-.1801.0562-.2711.0313-.0911-.0248-.169-.0838-.21769-.1647-.04866-.0809-.06426-.1774-.04355-.2695.02071-.092.07614-.1726.15474-.2248l3.6666-2.2895-3.84703 2.2235c-.04121.0248-.08693.0414-.13454.0486-.0476.0072-.09617.005-.14292-.0065-.04675-.0116-.09076-.0322-.12953-.0608-.03878-.0285-.07155-.0644-.09644-.1056-.02489-.0413-.04143-.087-.04865-.1346-.00723-.0476-.00501-.0962.00654-.1429.01154-.0468.03217-.0908.06073-.1295.02855-.0388.06446-.0716.10568-.0965l4.99916-3.1614-5.24116 3.0257c-.08313.0458-.18078.0576-.27241.0329-.09164-.0247-.17011-.084-.21893-.1654s-.06417-.1786-.04283-.2711c.02133-.0924.0777-.173.15724-.2248l1.49749-.935-1.62363.9372c-.08275.0481-.18105.062-.27389.0386-.09283-.0234-.17284-.0822-.22292-.1638s-.06627-.1795-.0451-.2729c.02116-.0933.07801-.1747.15838-.2267l5.98106-3.8772-6.29346 3.633c-.08261.0469-.18023.06-.27227.0364-.09205-.0236-.17135-.082-.22117-.1629s-.06629-.178-.04592-.2709c.02036-.0928.07597-.1741.15509-.2267l5.39143-3.5273-5.70016 3.2934c-.08293.0456-.18028.0574-.27168.0328-.09141-.0245-.1698-.0834-.21877-.1644s-.06473-.1777-.04398-.2701c.02074-.0923.07639-.1731.1553-.2253l.76853-.4884-.88.5074c-.08197.0477-.17923.0618-.27137.0393-.09213-.0224-.17196-.0798-.22274-.1599-.05077-.0801-.06854-.1767-.04956-.2696.01898-.093.07322-.1749.15134-.2287l6.12189-4.2533-6.58609 3.806c-.08237.0521-.18207.0694-.27717.048s-.17781-.0797-.22993-.162c-.05213-.0824-.0694-.1821-.04801-.2772.02138-.0951.07967-.1778.16204-.23l4.00987-2.7382-4.31714 2.4933c-.0816.0479-.17855.0624-.27059.0405-.09203-.022-.17203-.0786-.22326-.1582-.05123-.0795-.06973-.1758-.05163-.2687.0181-.0928.0714-.1751.14875-.2296l4.09273-2.9216-4.46526 2.5791c-.08222.0449-.1785.0567-.26909.0328-.09058-.0239-.1686-.0815-.21805-.161-.04944-.0796-.06656-.1751-.04784-.2669.01872-.0917.07186-.1729.14851-.2267l.03447-.0235-.1144.066c-.08013.0466-.17492.0611-.2653.0406-.09039-.0205-.16967-.0744-.22189-.151-.05222-.0765-.07351-.17-.05958-.2617.01392-.0916.06202-.1746.13463-.2322l3.43127-2.7294-3.8962 2.2476c-.0795.0458-.17325.06-.26275.04s-.16826-.0728-.22073-.148-.07486-.1674-.06274-.2583c.01213-.0909.05787-.1739.12822-.2328l2.37453-1.98-2.75146 1.5891c-.07668.0438-.16654.0583-.25311.0411-.08656-.0172-.164-.0651-.21812-.1348-.05411-.0697-.08127-.1566-.07648-.2447.0048-.0881.04122-.1716.10257-.235l1.77394-1.8143-2.22054 1.2811c-.07286.041-.15752.0558-.23996.042-.08243-.0137-.15769-.0552-.21331-.1176s-.088263-.1419-.092517-.2254c-.004254-.0834.020137-.1658.069127-.2336l.8866-1.1894-.996604.5749c-.041605.029-.088781.0491-.138543.059-.049762.0098-.101028.0093-.150556-.0017-.049527-.011-.09624-.0321-.137182-.0621-.040942-.0299-.075224-.0681-.100677-.1119-.025453-.0439-.041524-.0926-.047196-.143s-.000822-.1015.014244-.1499c.015065-.0484.040018-.0932.073281-.1315s.074111-.0693.119962-.091l2.538801-1.4667c.07302-.0419.15827-.0575.2414-.044.08314.0135.1591.0552.21511.1181.05602.0629.08867.1431.09247.2273.00381.0841-.02147.167-.07158.2347l-.88953 1.1887 2.992-1.7248c.07668-.0442.16679-.0592.25367-.0422.08689.017.16468.0649.21903.1348.05434.0699.08156.157.07662.2454-.00493.0884-.04168.1721-.10346.2355l-1.77393 1.812 4.136-2.3877c.07941-.0455.17298-.0597.26231-.0397s.16796.0726.22043.1476c.05248.075.07501.1669.06317.2577-.01185.0908-.05721.1738-.12718.2328l-2.37526 1.98 4.46819-2.5762c.0801-.0466.1749-.0611.2653-.0406s.1697.0745.2219.151c.0522.0766.0735.1701.0596.2617s-.0621.1746-.1347.2322l-3.43049 2.7287 5.77499-3.333c.0822-.0449.1785-.0566.2691-.0327.0906.0238.1686.0814.218.161.0495.0796.0666.175.0479.2668s-.0719.1729-.1485.2268l-.0294.0198 1.1147-.6417c.0816-.0479.1786-.0624.2706-.0404.092.0219.172.0786.2233.1581.0512.0796.0697.1758.0516.2687s-.0714.1751-.1488.2296l-4.0971 2.9245 6.1314-3.5405c.082-.0456.1783-.058.2692-.0347.0908.0232.1693.0804.2193.1598s.0676.1749.0493.2669-.0711.1735-.1477.2277l-4.0047 2.736 5.8131-3.3557c.0818-.0457.178-.0583.2689-.0354.0908.023.1694.0799.2196.159s.0682.1745.0503.2664c-.0178.092-.0702.1737-.1464.2282l-6.1204 4.2533 8.4318-4.8715c.0828-.0437.179-.0541.2692-.0292.0901.025.1674.0835.2158.1635s.0645.1756.0448.267c-.0197.0915-.0736.172-.1506.225l-.7722.4906 1.933-1.1169c.0824-.0448.1789-.0564.2696-.0323.0906.0242.1686.0821.2178.162.0492.0798.066.1755.0468.2674-.0192.0918-.0728.1728-.1499.2262l-5.3885 3.5252 7.1866-4.1492c.0827-.0462.18-.0586.2717-.0347.0916.024.1704.0825.2198.1632.0495.0808.0658.1775.0456.27-.0203.0925-.0756.1736-.1543.2263l-5.9825 3.8786 7.8012-4.5034c.0829-.0437.1794-.0541.2697-.0288.0903.0252.1675.084.2157.1643.0483.0804.0639.1762.0437.2677-.0201.0916-.0746.1719-.1522.2245l-1.4989.9365 2.7133-1.5642c.0829-.0443.1796-.0551.2701-.0302.0906.025.1682.0837.2167.1641s.0644.1764.0442.2682c-.0202.0917-.0748.1722-.1526.2249l-5.0123 3.1672 6.5721-3.7942c.083-.045.1801-.0562.2712-.0314.0911.0249.169.0839.2177.1648.0486.0808.0642.1773.0435.2694s-.0761.1727-.1547.2249l-3.6608 2.2836 5.0446-2.9121c.0829-.0437.1794-.054.2697-.0288s.1675.0841.2157.1644c.0483.0804.0639.1762.0437.2677-.0201.0915-.0746.1719-.1522.2245l-5.2279 3.2604 6.7467-3.894c.0826-.0448.1792-.0563.27-.0319.0907.0244.1687.0827.2177.1629.049.0801.0654.1761.0457.268-.0196.0919-.0738.1727-.1514.2258l-11.7003 7.5533 14.1658-8.1759c.083-.045.1801-.0562.2712-.0314.091.0249.169.0839.2176.1648.0487.0808.0643.1773.0436.2694s-.0761.1727-.1547.2249l-8.9907 5.632 10.8416-6.2605c.083-.0449.1801-.0561.2712-.0313.091.0249.169.0839.2176.1647.0487.0809.0643.1774.0436.2695s-.0761.1726-.1547.2249l-10.4244 6.531 11.19-6.4599c.083-.0449.1801-.0562.2711-.0313.0911.0248.1691.0838.2177.1647.0487.0809.0643.1774.0436.2695-.0208.092-.0762.1726-.1548.2248l-10.3304 6.4526 11.0242-6.3624c.0413-.0247.0872-.041.1348-.048.0477-.007.0963-.0045.143.0073s.0906.0326.1293.0614c.0386.0288.0712.0649.0959.1062.0247.0414.0411.0872.048.1349.007.0476.0046.0962-.0072.1429s-.0327.0907-.0614.1293c-.0288.0387-.0649.0713-.1062.096l-7.5996 4.6933 6.3067-3.6417c.0833-.0502.1832-.0652.2776-.0418.0944.0235.1757.0835.2258.1668.0502.0834.0652.1832.0418.2776-.0235.0944-.0835.1757-.1668.2258l-9.5825 6.0002 7.2278-4.172c.0828-.0471.1807-.0601.273-.0363.0922.0238.1716.0826.2213.1639.0496.0813.0657.1788.0448.2717-.021.093-.0773.1741-.1571.2263l-11.6233 7.502 8.778-5.0681c.083-.0449.1801-.0562.2712-.0313.091.0248.169.0838.2176.1647.0487.0809.0643.1774.0436.2695-.0207.092-.0761.1726-.1547.2248l-3.0639 1.914 1.1946-.69c.0825-.049.1809-.0637.2741-.041.0933.0227.1739.0811.2245.1626.0507.0815.0674.1796.0466.2732-.0208.0937-.0776.1755-.158.2278l-9.0706 6.0368 6.2033-3.5816c.082-.0469.179-.0603.2707-.0375.0916.0229.171.0803.2214.1602s.068.1762.0491.2688c-.0188.0926-.0727.1743-.1504.2281l-7.2475 4.9478 4.4367-2.5622c.0825-.049.1809-.0637.2741-.041s.1738.0811.2245.1626.0674.1796.0466.2732c-.0209.0937-.0776.1755-.158.2278l-2.9847 1.9954.9137-.5273c.0816-.0479.1786-.0624.2706-.0404.0921.0219.1721.0786.2233.1581.0512.0796.0697.1758.0516.2687s-.0714.1751-.1487.2296l-3.655 2.6085 1.2357-.7121c.0802-.0451.1744-.0584.2639-.0373s.1678.0751.2194.1512c.0516.0762.0727.1689.0591.2599-.0136.0909-.0609.1735-.1325.2312l-3.0022 2.3665.3718-.2149c.0798-.0464.1741-.061.2642-.0409.09.0201.1692.0734.2217.1493.0525.076.0744.1689.0614.2602-.013.0914-.06.1745-.1315.2327l-1.5774 1.2885c.0579.0321.1058.0796.1386.1371.0486.0843.0618.1843.0366.2783-.0252.0939-.0866.174-.1708.2226l-2.6958 1.5569c-.055.032-.1174.0489-.1811.0491z" fill="#9dd6df"/><path d="m1.84547 13.5719c-.07794.0001-.15387-.0247-.21678-.0707-.0629-.046-.10951-.1109-.13305-.1852s-.02279-.1542.00213-.228c.02493-.0739.07274-.1378.1365-.1827l5.819-4.0993-4.57967 2.6437c-.08131.0474-.17774.0617-.26934.04-.09159-.0217-.17132-.0778-.22269-.1567-.05136-.0789-.07042-.1745-.05323-.267.0172-.0926.06933-.175.1456-.2301l3.64833-2.65764c-.08036.03448-.17039.0391-.25386.01304-.08346-.02606-.15487-.08109-.20133-.15517-.04647-.07407-.06493-.16231-.05206-.2488s.05623-.16553.12225-.22287l2.6752-2.35106c-.03559-.08252-.03965-.17522-.01139-.26053.02825-.0853.08685-.15726.16466-.20221l1.1198-.6446c.07873-.04495.17134-.05914.25992-.03982.08854.01931.16684.07077.21974.14443.0529.07365.0766.16429.0666.2544-.0101.09011-.0531.17331-.1209.23353l-1.10956.97313 2.71336-1.56713c.0812-.04623.1771-.05967.2679-.03757.0909.0221.1698.07807.2208.15646.0509.07839.07.17329.0533.26528s-.0679.17413-.1431.22963l-3.62926 2.64 5.64666-3.25234c.0816-.04585.1777-.05875.2685-.03605s.1695.07928.22.15814c.0504.07885.0688.17402.0513.26599-.0174.09197-.0694.17378-.1453.22866l-5.82043 4.0986 8.17083-4.71534c.0824-.04426.1787-.05531.2691-.03089.0903.02442.1679.08247.2168.16225.049.07977.0655.17525.0464.26685-.0192.09161-.0727.17241-.1495.22586l-1.9639 1.276 3.3-1.90153c.0822-.04551.1786-.05775.2696-.03421.0909.02354.1693.08107.2191.16072.0497.07966.067.17537.0483.2674-.0188.09203-.0721.17336-.1491.22722l-4.1396 2.78153 5.8916-3.4012c.0822-.04686.1793-.06011.2711-.03699.0918.02313.1711.08083.2213.16106.0502.08022.0674.17675.0481.26939-.0194.09264-.0738.17422-.1519.22768l-4.1169 2.7654 5.8667-3.38654c.0819-.04559.1783-.05803.2691-.03476.0909.02327.1694.08048.2194.15985.0499.07938.0676.17489.0493.26689-.0183.09199-.0712.17348-.1477.22769l-4.7755 3.256 6.7137-3.87567c.0821-.04617.1788-.05897.2701-.03576s.1701.08066.2202.16043c.0501.07978.0675.17576.0487.26805-.0187.0923-.0723.17382-.1496.22768l-4.5877 3.113 6.4687-3.7334c.0813-.04322.1759-.05427.265-.03096.089.02331.1661.07928.2158.15679s.0684.17088.0524.26156c-.0159.09068-.0655.17203-.1387.22788l-5.7332 4.02673 8.0432-4.642c.0821-.04617.1788-.05897.2701-.03576s.1702.08066.2202.16043c.0501.07978.0676.17576.0488.26805-.0188.0923-.0724.17382-.1497.22768l-4.4176 2.98687 6.2495-3.60727c.0825-.04545.1794-.05739.2705-.03333.0911.02405.1694.08225.2188.16253.0493.08027.0658.17646.0462.2686-.0197.09214-.0741.17317-.152.22627l-2.1208 1.3816 3.4746-2.00567c.0821-.0455.1786-.05775.2695-.03421.091.02354.1694.08107.2191.16073.0498.07966.0671.17537.0483.2674-.0187.09203-.0721.17336-.149.22722l-4.2834 2.8886 4.8767-2.81527c.0819-.04559.1783-.05803.2691-.03476.0909.02327.1694.08047.2194.15985.0499.07938.0676.17489.0493.26688-.0183.092-.0712.17348-.1477.2277l-3.9402 2.70013 4.3545-2.51387c.0821-.04617.1788-.05897.2701-.03576s.1702.08066.2202.16043c.0501.07978.0676.17576.0488.26805-.0188.0923-.0724.17382-.1497.22768l-2.2733 1.54 2.5667-1.4806c.0811-.0458.1767-.05898.2672-.03686.0905.02211.1693.07787.2201.15594.0509.07807.0702.17259.0539.26435-.0163.09175-.0669.17386-.1416.22964l-3.4972 2.55273 3.9673-2.29093c.0808-.04534.1757-.05842.2658-.03661.09.02181.1684.07688.2195.15416s.0711.17103.0558.26241c-.0152.09137-.0644.17361-.1378.23017l-2.7602 2.07607 3.1966-1.8458c.0802-.04595.1747-.05991.2648-.03911.09.02081.1689.07486.2208.15133s.073.16972.0591.26109-.0618.17412-.1341.23169l-2.1736 1.71237 2.5865-1.4931c.0792-.04499.1722-.05893.2611-.03909.0888.01983.1671.07201.2196.14638s.0755.16562.0645.25599c-.0111.09036-.0554.17339-.1243.23292l-1.691 1.4454 2.1002-1.2122c.0765-.04364.1661-.05832.2525-.04136.0863.01696.1637.06443.218.13374.0543.0693.0818.15582.0776.24374-.0043.08788-.04.17138-.1007.23518l-1.29 1.3412 1.7468-1.0083c.0721-.0419.1562-.058.2386-.0456.0824.0123.1582.0523.2148.1135.0566.0611.0907.1397.0967.2228.0059.0831-.0166.1658-.0639.2344l-.6651.9665 1.0589-.6109c.068-.0392.1467-.0556.2246-.0468.078.0088.1511.0424.2085.0959.0574.0534.0962.1238.1107.2009.0144.0771.0038.1568-.0304.2274l-.1687.3462.3029-.1753c.0459-.0265.097-.0428.1498-.0476.0528-.0049.106.0018.156.0195s.0956.046.1335.083c.038.037.0675.0818.0865.1314l.1466.3872c.0856-.0191.1751-.007.2524.0342.0774.0412.1374.1088.1692.1904.0319.0817.0334.172.0043.2547-.029.0827-.0867.1523-.1626.1961l-.2743.1576c-.0459.0267-.0971.043-.15.048-.0529.0049-.1062-.0017-.1563-.0194-.05-.0178-.0957-.0461-.1337-.0832s-.0675-.082-.0865-.1316l-.1423-.3704-.9665.5574c-.0679.0392-.1467.0556-.2246.0468-.0779-.0089-.151-.0424-.2085-.0959-.0574-.0534-.0962-.1238-.1106-.2009-.0145-.0771-.0038-.1568.0304-.2274l.1686-.3454-1.4285.8242c-.072.0415-.156.0573-.2382.0448s-.1577-.0525-.2141-.1135c-.0564-.0611-.0904-.1395-.0965-.2224-.006-.0829.0163-.1654.0633-.2339l.6652-.9666-2.585 1.4931c-.0765.0436-.1661.0583-.2524.0414-.0864-.017-.1638-.0645-.2181-.1338s-.0818-.1558-.0775-.2437c.0042-.088.0399-.1714.1006-.2352l1.2907-1.3412-3.3169 1.914c-.079.0441-.1716.0575-.2599.0374-.0883-.02-.166-.072-.2183-.1459-.0522-.0739-.0753-.1646-.0647-.2545.0105-.0899.054-.1727.122-.2325l1.6867-1.4439-3.5362 2.0416c-.0801.0451-.1743.0584-.2638.0373-.0896-.0211-.1679-.0751-.2195-.1512-.0516-.0762-.0727-.1689-.0591-.2599s.0609-.1735.1325-.2312l2.1751-1.7146-4.0202 2.321c-.0808.0463-.1762.0601-.2668.0387-.0907-.0215-.1697-.0767-.2211-.1544-.0515-.0776-.0714-.1719-.0558-.2638.0155-.0918.0655-.1743.1397-.2306l2.7595-2.0746-4.6537 2.6862c-.0812.0458-.1767.059-.2673.0369-.0905-.0222-.1692-.0779-.2201-.156s-.0702-.1726-.0539-.2643c.0163-.0918.0669-.1739.1416-.2297l3.4951-2.552-5.4861 3.1666c-.0822.0468-.1794.0601-.2711.037-.0918-.0232-.1711-.0809-.2213-.1611s-.0674-.1768-.0481-.2694.0737-.1742.1518-.2277l2.277-1.54-3.7502 2.1648c-.082.0456-.1783.0581-.2692.0348s-.1694-.0805-.2193-.1599c-.05-.0793-.0677-.1748-.0494-.2668s.0712-.1735.1477-.2277l3.9439-2.698-5.753 3.3206c-.0823.0477-.18.0615-.2724.0385-.0924-.0229-.1722-.0809-.2226-.1617-.0503-.0808-.0673-.1779-.0474-.271.02-.0931.0754-.1747.1545-.2277l4.2841-2.8886-6.0867 3.5119c-.0827.0482-.181.062-.2739.0386-.0928-.0234-.1728-.0821-.2229-.1637s-.0662-.1795-.0451-.2729c.0212-.0934.078-.1748.1584-.2268l2.1237-1.3838-3.4745 2.0064c-.0822.0469-.1794.0601-.2711.037-.0918-.0231-.1711-.0808-.2213-.161-.0502-.0803-.0674-.1768-.0481-.2694.0193-.0927.0737-.1742.1518-.2277l4.4169-2.992-6.2561 3.6117c-.0817.0463-.1781.0596-.2693.0369s-.1702-.0795-.2207-.1587c-.0506-.0792-.0688-.1748-.0508-.2671.0179-.0922.0705-.1741.147-.2286l5.7332-4.02087-8.0476 4.64277c-.0823.0487-.1803.0634-.2733.0408-.093-.0225-.1734-.0805-.2242-.1615-.0508-.0811-.068-.1788-.0478-.2723.0203-.0935.0762-.1753.1559-.2282l4.587-3.11224-6.4694 3.73484c-.0821.0462-.1788.059-.2701.0358s-.17015-.0807-.22022-.1604c-.05007-.0798-.06753-.1758-.04874-.2681.01878-.0923.07236-.1738.14963-.2277l4.77253-3.2545-6.7144 3.8771c-.08235.0478-.18003.0616-.2724.0386s-.17218-.081-.22256-.1617c-.05038-.0808-.06738-.178-.0474-.271.01997-.0931.07535-.1748.15443-.2277l4.11473-2.7647-5.86666 3.388c-.08236.0477-.18004.0616-.27241.0386-.09236-.023-.17217-.081-.22255-.1618-.05038-.0807-.06738-.1779-.04741-.271.01997-.093.07535-.1747.15443-.2277l4.13967-2.7793-5.89967 3.4019c-.08246.0443-.17873.0553-.26908.0309s-.16794-.0824-.21687-.1622c-.04894-.0798-.06552-.1753-.04634-.2669s.07266-.1724.14949-.2258l1.9646-1.2782-3.3 1.9066c-.05537.0308-.11778.0467-.18113.0462z" fill="#b4efff"/><g fill="#262626"><path d="m42.1567 11.2315c-2.3041-2.29602-4.5995-4.61995-6.9095-6.90355-8.1598-.79347-16.6554-.0264-24.9245-.28527-4.00254 1.2144-6.48341 6.07122-9.809072 8.66282-.9306 1.8202 1.922802 3.3 2.683272 4.8122 5.8388 7.2512 11.5427 14.638 17.5267 21.7697 2.2733 2.1487 3.8551-2.3613 5.3298-3.6014 5.745-7.2131 11.6336-14.3147 17.3485-21.549 1.0655-1.1418-.4752-2.1391-1.2452-2.9055zm-39.38587.3557c2.2814-2.22712 4.5628-4.63539 6.80167-6.81999 7.9002-.03886 15.8239 0 23.7321-.01246 3.5992 1.20486 5.9518 5.68995 9.0457 8.07915h-40.8694c.39338-.4518.82495-.8689 1.28993-1.2467zm35.00937 8.1767c-5.2067 6.4636-10.4486 12.9895-15.6391 19.426-7.0679-8.3028-13.87174-17.0742-20.74234-25.6227h41.23824c-1.3354 2.2286-3.3227 4.0744-4.8568 6.1967z"/><path d="m9.21208 9.8381c.77147.297 4.62002-3.81333 2.09142-2.60553-.4202.73406-2.63042 1.93526-2.09142 2.60553z"/><path d="m10.0642 17.4576c-3.15846-.7554 5.0475 7.7462 5.5374 9.0845 3.1592.7553-5.0461-7.7462-5.5374-9.0845z"/></g></g></svg>