<svg fill="none" height="32" viewBox="0 0 32 32" width="32" xmlns="http://www.w3.org/2000/svg"><path d="m10.8137 27.9839c-.0556 0-.1098-.0173-.1551-.0496s-.0793-.078-.0973-.1306c-.0181-.0526-.0192-.1095-.0033-.1628s.0481-.1003.092-.1344l.3451-.2666-1.2267.7098c-.05538.0317-.12029.0425-.18295.0305-.06266-.0121-.11891-.0463-.15853-.0963-.03963-.05-.06001-.1126-.05743-.1763.00257-.0638.02792-.1245.07144-.1712l1.24107-1.3157-2.99787 1.7258c-.05823.0327-.12658.0423-.19154.0269-.06497-.0153-.12182-.0544-.15934-.1096s-.05297-.1225-.0433-.1885c.00967-.0661.04375-.1261.09552-.1682l.4912-.3899-1.43734.8293c-.05527.0317-.12006.0426-.18265.0306-.06258-.0119-.11882-.0459-.15852-.0957-.03971-.0498-.06026-.1122-.05795-.1759.00232-.0637.02736-.1244.07059-.1712l1.24373-1.3366-3.0224 1.7488c-.05808.034-.12685.0447-.1925.0301-.06566-.0147-.12336-.0536-.16155-.109-.03818-.0553-.05402-.1231-.04434-.1897.00968-.0665.04416-.127.09653-.1692l.66773-.5446-1.20693.6934c-.05794.033-.12612.043-.19112.0282-.06499-.0148-.12209-.0534-.16003-.1082-.03795-.0548-.05399-.1218-.04496-.1879.00902-.066.04245-.1263.09371-.1689l.33706-.2763-.46186.2667c-.05539.0317-.1203.0425-.18296.0304-.06265-.0121-.1189-.0462-.15853-.0963-.03962-.05-.06-.1125-.05743-.1763s.02792-.1245.07145-.1712l.5472-.5866-.45973.2666c-.04481.0259-.09616.0381-.14781.0353-.05164-.0028-.10135-.0206-.14306-.0512-.04172-.0306-.07364-.0726-.09188-.121s-.02201-.1011-.01085-.1516l.1568-.7051c-.05712-.0216-.10487-.0625-.13494-.1157-.03523-.0611-.0448-.1337-.02661-.2019s.06267-.1264.12368-.1618l.26667-.1542c.04481-.026.09623-.0383.14797-.0356.05174.0028.10156.0205.14337.0511s.07379.0728.09205.1213c.01825.0484.02199.1012.01074.1518l-.128.5739 1.496-.8598c.05532-.0313.12001-.0419.18241-.0297.06241.0122.11841.0462.15792.096s.05993.1121.05757.1756c-.00236.0636-.02734.1242-.07043.1709l-.54827.5867 1.73067-.999c.05793-.0329.12612-.043.19111-.0282.065.0148.12209.0534.16004.1082.03794.0548.05398.1219.04496.1879-.00903.0661-.04246.1263-.09371.1689l-.33654.2758 1.2368-.7136c.05795-.0335.12637-.044.19167-.0293.06531.0146.12273.0532.16087.1082.03818.0552.05417.1227.04478.1891-.00939.0665-.04347.1269-.09545.1693l-.66613.544 1.7008-.9819c.05527-.0316.12007-.0425.18265-.0305.06258.0119.11881.0459.15852.0957s.06026.1122.05795.1759c-.00232.0637-.02736.1244-.07059.1712l-1.24373 1.3333 3.03253-1.7509c.0583-.0332.1269-.0433.1922-.0281.0654.0151.1226.0543.1603.1097.0378.0554.0532.123.0434.1894-.0099.0663-.0444.1265-.0967.1685l-.4928.3914 1.44-.8314c.0554-.0317.1203-.0425.183-.0304.0626.0121.1189.0462.1585.0962s.06.1126.0574.1764c-.0026.0637-.0279.1245-.0714.1711l-1.2411 1.3152 2.9968-1.7301c.0584-.0332.1273-.0431.1927-.0277s.1226.0549.1601.1106c.0376.0558.0527.1236.0423.19-.0103.0664-.0453.1265-.098.1681l-.3478.271 1.2342-.7126c.0559-.0322.1216-.0431.185-.0305.0633.0125.12.0476.1594.0988.0394.0511.0589.1148.0549.1793-.004.0644-.0312.1252-.0767.1711l-1.2138 1.2192 2.84-1.6389c.058-.0326.126-.0423.1908-.0273s.1216.0537.1593.1085c.0378.0548.0537.1216.0446.1875-.009.0659-.0423.126-.0934.1686l-.6459.5248 1.6683-.9632c.0555-.0317.1205-.0424.1833-.0302.0627.0122.119.0465.1585.0967.0396.0502.0598.113.0569.1768-.0028.0639-.0285.1246-.0723.1711l-1.2416 1.3035 2.9749-1.7173c.0575-.0342.1257-.0455.1911-.0317.0655.0137.1233.0516.1622.106.0388.0544.0558.1214.0476.1877-.0083.0664-.0411.1272-.0921.1705l-.9466.8192 2.1722-1.2544c.0566-.0352.1242-.048.1897-.0359.0655.0122.1241.0484.1642.1016.0401.0531.0589.1194.0526.1857s-.0371.1279-.0865.1726l-1.1578 1.1018 2.6442-1.5269c.0556-.0325.1212-.0438.1844-.0317.0633.012.1201.0465.1599.0972.0398.0506.0599.114.0566.1783-.0032.0644-.0297.1253-.0745.1717l-1.2432 1.2981 2.9702-1.7147c.0556-.0321.1209-.043.184-.0309.063.0122.1195.0468.1592.0973.0396.0505.0597.1137.0565.1778s-.0294.125-.0739.1713l-1.2442 1.3029 2.9786-1.72c.0568-.0312.123-.0407.1862-.0267s.1192.0506.1575.1028c.0383.0523.0562.1167.0505.1812s-.0347.1247-.0816.1694l-1.0779.9792 1.9077-1.1008c.0557-.0317.1209-.0424.1838-.03.0628.0124.1191.047.1586.0975.0394.0505.0593.1135.0561.1775s-.0294.1247-.0737.171l-.9477.9813.5867-.3402c.0303-.0193.0643-.0323.0997-.0381.0355-.0058.0718-.0044.1068.0041.0349.0086.0677.0241.0965.0457s.0529.0487.0709.0799c.018.0311.0295.0656.0338.1013.0044.0357.0015.0719-.0086.1064-.01.0346-.0269.0667-.0497.0946-.0227.0278-.0509.0507-.0828.0674l-2.2282 1.2869c-.0557.0318-.1209.0425-.1838.0301-.0628-.0124-.1191-.0471-.1586-.0976-.0394-.0505-.0593-.1135-.0561-.1775s.0294-.1247.0737-.171l.9461-.9802-2.4192 1.3962c-.0567.0313-.1229.0408-.1862.0268-.0632-.014-.1192-.0506-.1575-.1028-.0382-.0523-.0562-.1167-.0505-.1812.0058-.0645.0348-.1247.0817-.1694l1.0778-.9792-2.4373 1.4058c-.0556.0322-.1208.0432-.1838.031-.063-.0121-.1196-.0465-.1592-.097-.0397-.0504-.0598-.1134-.0568-.1775.0031-.0641.0291-.125.0734-.1714l1.2475-1.3019-2.9798 1.7168c-.0554.0318-.1204.0425-.1831.0304-.0627-.0122-.1189-.0464-.1585-.0965s-.0599-.1128-.0572-.1766.0282-.1245.0719-.1711l1.2427-1.2982-2.9664 1.712c-.0569.0358-.1251.0489-.1911.0366-.066-.0124-.125-.0492-.165-.103-.0401-.0539-.0584-.121-.0512-.1877.0072-.0668.0393-.1284.0899-.1725l1.1579-1.1014-2.6421 1.528c-.0574.0329-.125.0433-.1896.0292s-.1217-.0518-.1601-.1056c-.0385-.0538-.0555-.1201-.0478-.1858.0076-.0657.0394-.1262.0892-.1698l.9467-.8208-2.1712 1.2528c-.0555.0321-.1207.0432-.1837.0311s-.1195-.0464-.1592-.0967c-.0397-.0504-.0599-.1133-.057-.1774.0029-.064.0288-.1248.0729-.1714l1.2416-1.3013-2.9728 1.7157c-.0579.0326-.126.0423-.1908.0273s-.1216-.0537-.1593-.1085c-.0378-.0547-.0537-.1216-.0446-.1875.009-.0659.0423-.126.0934-.1686l.6469-.5253-1.6682.96c-.056.0322-.1217.0431-.1851.0305-.0633-.0125-.1199-.0476-.1593-.0988-.0395-.0511-.059-.1148-.055-.1793.004-.0644.0313-.1252.0767-.1711l1.2144-1.2197-2.8389 1.641c-.0403.0242-.0864.0371-.1334.0374z" fill="#a4bfc1"/><path d="m2.24006 23.7334c-.05809 0-.11459-.0189-.16093-.0539-.04634-.0351-.07997-.0843-.09578-.1402-.01582-.0559-.01295-.1154.00817-.1695.02111-.0541.05932-.0999.10881-.1303l5.6048-3.448-5.95573 3.4379c-.06076.0362-.13341.0468-.20197.0294-.06856-.0173-.12742-.0612-.16363-.1219-.03622-.0608-.04681-.1334-.02946-.202.01736-.0686.06124-.1274.12199-.1636l6.6272-4.0955-6.35413 3.6709c-.06076.0362-.13341.0468-.20197.0295-.06856-.0174-.12742-.0613-.16363-.122-.03622-.0608-.04681-.1334-.02946-.202.01736-.0685.06124-.1274.12199-.1636l5.8784-3.6347-5.58933 3.2267c-.06027.0337-.13126.0427-.19803.0251s-.12411-.0604-.15997-.1194-.04743-.1296-.03229-.197c.01514-.0673.05583-.1262.11349-.1642l9.2848-5.8981-8.904 5.1397c-.06054.0367-.13316.0477-.20187.0308-.06872-.0169-.1279-.0604-.16453-.1209-.03664-.0605-.04772-.1332-.03082-.2019s.06041-.1279.12095-.1645l7.6336-4.8293-7.16693 4.1376c-.06076.0362-.13341.0468-.20197.0294-.06856-.0173-.12742-.0612-.16363-.122-.03622-.0607-.04681-.1334-.02946-.2019.01736-.0686.06124-.1275.12199-.1637l2.312-1.4272-1.83733 1.0603c-.06039.0345-.13186.0441-.19918.0266-.06733-.0174-.12518-.0605-.16121-.12-.03604-.0594-.04741-.1306-.0317-.1984.01572-.0677.05728-.1267.11582-.1642l5.70667-3.624-5.06294 2.9221c-.06018.0372-.13268.049-.20155.0327-.06886-.0162-.12845-.0592-.16565-.1193-.0372-.0602-.04897-.1327-.03271-.2016.01625-.0689.05919-.1284.11938-.1656l6.72693-4.432-5.76106 3.3237c-.06003.0331-.13047.0417-.19673.0242-.06625-.0175-.12323-.0598-.15911-.1182-.03588-.0583-.04791-.1283-.03359-.1953s.05389-.126.11049-.1646l3.72107-2.424-2.66667 1.5392c-.05962.032-.12916.0401-.19453.0227-.06538-.0174-.1217-.059-.15757-.1163-.03586-.0574-.04859-.1262-.0356-.1926s.05073-.1254.10557-.165l2.94293-1.9856-1.44426.8358c-.05935.0348-.12986.0453-.1968.0294-.06693-.016-.12511-.0572-.16237-.115-.03726-.0579-.05071-.1279-.03755-.1954.01317-.0676.05193-.1274.10818-.167l2.04374-1.4592c-.04041-.0235-.07396-.0571-.09728-.0976-.02331-.0405-.03559-.0864-.03559-.1331s.01228-.0926.03559-.1331c.02332-.0405.05687-.0741.09728-.0976l3.3824-1.95251c.0593-.03482.1299-.04536.1968-.02941s.1251.05716.1624.11501c.0372.05785.0507.12786.0375.1954s-.0519.12738-.1082.167l-.91037.65014 3.27257-1.89067c.0596-.03196.1291-.04007.1945-.02268.0654.01738.1217.05897.1576.11632.0358.05736.0486.1262.0356.19259s-.0508.12536-.1056.16497l-2.9435 1.98667 4.6507-2.68534c.06-.03305.1305-.04174.1967-.02424.0663.01749.1233.05982.1591.1182.0359.05838.0479.12834.0336.19535s-.0539.12594-.1105.16456l-3.72 2.42454 4.9867-2.88001c.06-.03355.1306-.04264.1971-.02539s.1238.05952.16.118c.0361.05847.0482.12862.0339.19583-.0144.06721-.0542.12628-.111.1649l-6.7269 4.43577 8.1322-4.69337c.0604-.03451.1319-.04406.1992-.02663.0673.01744.1252.06049.1612.11997.0361.05948.0474.13069.0317.19844s-.0573.12667-.1158.16422l-5.7035 3.62027 6.624-3.82401c.0606-.03413.1321-.04324.1993-.02541.0672.01784.1248.06122.1605.1209s.0466.13093.0305.19858c-.0161.06764-.0579.12632-.1167.16353l-2.3162 1.42987 2.8533-1.64747c.0604-.0345.1319-.04406.1992-.02662s.1251.06049.1612.11997c.036.05948.0474.13069.0317.19844-.0157.06774-.0573.12667-.1158.16421l-7.6352 4.83201 8.457-4.88214c.0603-.03369.1313-.04269.1981-.0251.0667.01758.1241.06038.1599.11938.0359.059.0475.12961.0323.19698-.0151.06736-.0558.12623-.1135.16421l-9.2832 5.89657 10.1046-5.83364c.0607-.03621.1334-.0468.2019-.02945.0686.01735.1275.06123.1637.12198.0362.06076.0468.1334.0294.20197-.0173.06856-.0612.12742-.122.16363l-5.8746 3.63041 6.3541-3.66881c.0607-.03628.1334-.04694.202-.02964.0687.01731.1276.06116.1639.12191.0362.06075.0469.13343.0296.20204-.0173.06862-.0611.12754-.1219.16383l-6.6379 4.10137 7.0886-4.09231c.0607-.03621.1334-.0468.2019-.02945.0686.01736.1275.06123.1637.12199.0362.06075.0468.1334.0294.20197-.0173.0686-.0612.1274-.122.1636l-5.6048 3.448 5.9654-3.4437c.0602-.0326.1306-.0409.1967-.023.0661.018.1228.0606.1583.1191.0355.0586.0472.1286.0325.1955s-.0545.1255-.1113.1639l-9.8576 6.2634 10.4262-6.0181c.0603-.0327.131-.0409.1972-.0228s.1229.061.1583.1198.0467.129.0316.196c-.015.0669-.0553.1255-.1125.1635l-7.0485 4.4134 7.4-4.2726c.03-.018.0633-.03.0979-.0352.0347-.0052.07-.0036.104.0049.034.0084.066.0235.0942.0443s.052.0469.07.077c.0181.03.0301.0632.0353.0979.0052.0346.0035.07-.0049.104-.0085.034-.0235.066-.0443.0941-.0208.0282-.047.052-.077.0701l-5.9819 3.7456 6.2555-3.6112c.0606-.0335.1319-.0421.1988-.024.0668.0181.124.0615.1594.121.0354.0596.0463.1305.0303.1979s-.0576.126-.116.1632l-.1546.0944.2378-.137c.0601-.0322.1303-.0402.1961-.0222.0658.0179.1222.0604.1576.1186.0354.0583.0472.1279.0329.1946-.0143.0666-.0536.1253-.1098.1639l-6.9941 4.48 7.2779-4.2016c.06-.0331.1304-.0417.1967-.0243.0662.0175.1232.0599.1591.1183.0359.0583.0479.1283.0336.1953s-.0539.1259-.1105.1646l-7.1925 4.7034 7.4752-4.3157c.0602-.0326.1306-.0409.1967-.0229.0661.0179.1228.0605.1583.119.0355.0586.0472.1286.0325.1955s-.0545.1255-.1113.1639l-3.6416 2.312 3.7248-2.1504c.03-.0182.0632-.0303.0978-.0356.0346-.0054.07-.0038.104.0045s.0661.0232.0943.0439c.0283.0208.0522.0468.0703.0768.0182.0299.0303.0631.0356.0977.0054.0347.0038.07-.0045.104s-.0232.0661-.044.0943c-.0207.0283-.0467.0522-.0767.0704l-2.9824 1.8981 3.0198-1.7435c.0596-.0331.1296-.0422.1957-.0253.0661.017.1232.0586.1595.1163.0364.0577.0492.1272.0359.1941s-.0517.1262-.1074.1656l-5.7067 3.8933 5.8496-3.3754c.0604-.0345.1319-.0441.1992-.0267.0673.0175.1252.0605.1612.12.0361.0595.0474.1307.0317.1984-.0157.0678-.0573.1267-.1158.1643l-.4128.2629.3355-.1941c.0602-.0337.1312-.0427.198-.0251.0668.0175.1241.0603.16.1193.0358.059.0474.1297.0323.197-.0152.0674-.0559.1262-.1135.1642l-.0854.0534c.06-.0293.1287-.035.1927-.0161s.1186.0612.1529.1184c.0344.0572.046.1252.0327.1906-.0133.0653-.0507.1233-.1047.1625l-3.9173 2.8422 3.9056-2.2544c.0593-.0339.1293-.0437.1957-.0274.0663.0163.1238.0574.1607.1148.037.0574.0505.1268.0377.1939-.0127.0671-.0507.1267-.1061.1667l-2.1979 1.561 2.0731-1.1968c.0595-.0341.1299-.044.1966-.0276.0666.0164.1243.0579.1612.1158.0368.0579.0499.1278.0365.1951-.0134.0674-.0522.1269-.1084.1663l-.6934.48.4987-.2874c.0587-.0339.128-.0442.194-.0288.0659.0154.1236.0553.1612.1116.0376.0564.0523.1249.0413.1917-.0111.0669-.0472.127-.101.1681l-1.1574.8854.9382-.5414c.0552-.032.1201-.0432.1829-.0315.0627.0118.1192.0457.1591.0955.0399.0499.0606.1124.0583.1762s-.0274.1247-.0707.1716l-1.2059 1.3002.9179-.5296c.0504-.0291.109-.0409.1668-.0336s.1116.0334.1532.0742c.0416.0409.0686.0944.0769.1522s-.0026.1168-.0311.1678l-.32.5722c.0627-.0241.1322-.0237.1946.0012.0624.0248.1131.0723.142.1329.0289.0607.0338.13.0139.1941-.02.0641-.0635.1183-.1217.1518l-.7973.4603c-.0505.0289-.1091.0405-.1668.0331-.0578-.0075-.1115-.0337-.1529-.0745-.0415-.0409-.0685-.0942-.0768-.1518s.0024-.1164.0306-.1673l.3163-.567-1.6085.9286c-.0553.0316-.12.0425-.1825.0306-.0626-.0118-.1188-.0457-.1586-.0954-.0397-.0498-.0604-.1121-.0582-.1757.0022-.0637.0271-.1244.0702-.1713l1.2059-1.3018-2.9702 1.7146c-.0586.0339-.128.0442-.1939.0288-.066-.0154-.1236-.0553-.1613-.1116-.0376-.0564-.0523-.1249-.0412-.1917.0111-.0669.0472-.127.101-.1681l1.1552-.8838-2.2992 1.3275c-.0596.0342-.13.0441-.1966.0276-.0666-.0164-.1244-.0579-.1612-.1158s-.0499-.1278-.0365-.1951.0522-.1269.1084-.1663l.6933-.4837-1.616.9333c-.0593.0338-.1293.0436-.1956.0274-.0663-.0163-.1239-.0574-.1608-.1148-.0369-.0575-.0504-.1269-.0377-.194s.0507-.1267.1061-.1666l2.1984-1.5616-3.4832 2.0107c-.0592.0339-.1291.0439-.1954.0279-.0663-.0161-.124-.0569-.1611-.1142s-.0508-.1266-.0384-.1937c.0125-.0671.0502-.1268.1053-.167l3.9206-2.8373-5.6912 3.2853c-.0602.0331-.1308.0417-.1972.0241-.0663-.0177-.1233-.0603-.159-.1189-.0358-.0587-.0475-.1288-.0328-.1959s.0547-.1259.1116-.1642l.079-.0507-.8774.5062c-.0602.0326-.1306.0408-.1967.0229s-.1228-.0605-.1583-.1191c-.0355-.0585-.0472-.1285-.0325-.1954s.0545-.1256.1113-.1639l.4144-.264-1.2475.72c-.0598.0347-.1306.0448-.1977.0283-.0671-.0166-.1251-.0585-.1619-.117s-.0494-.1289-.0353-.1966c.0142-.0676.054-.1271.1112-.1659l5.7061-3.8933-7.528 4.3456c-.0605.0367-.133.0478-.2018.031-.0687-.0168-.1279-.0602-.1646-.1206-.0367-.0605-.0479-.1331-.0311-.2018s.0602-.1279.1207-.1646l2.9803-1.8971-4.0779 2.3541c-.0604.0345-.1319.0441-.1992.0267-.0673-.0175-.1252-.0605-.1612-.12s-.0474-.1307-.0317-.1985c.0157-.0677.0573-.1266.1158-.1642l3.6406-2.3109-4.7936 2.7675c-.0299.0183-.063.0306-.0976.0361-.0346.0056-.0699.0042-.104-.0039s-.0662-.0229-.0946-.0434-.0524-.0465-.0708-.0763c-.0183-.0298-.0306-.063-.0361-.0976-.0056-.0346-.0043-.0699.0039-.104.0081-.0341.0228-.0662.0434-.0946.0205-.0283.0465-.0524.0763-.0707l7.1909-4.7014-8.9333 5.1574c-.0604.0353-.1322.0456-.2.0285s-.1262-.0602-.1626-.1199c-.0364-.0598-.0478-.1314-.0319-.1995.016-.0681.058-.1272.1172-.1646l6.9925-4.48-8.55147 4.9365c-.03012.0179-.06346.0297-.09814.0347-.03467.005-.06999.0032-.10394-.0055-.03394-.0086-.06586-.0239-.09392-.0448-.02805-.021-.05171-.0473-.0696-.0774-.0179-.0302-.02968-.0635-.03469-.0982-.00501-.0346-.00314-.07.0055-.1039.00865-.034.02389-.0659.04487-.0939.02097-.0281.04727-.0517.07739-.0696l.1552-.0944-.96.5536c-.06062.0365-.13324.0474-.2019.0303-.06867-.017-.12774-.0607-.16424-.1213-.03649-.0606-.04741-.1332-.03036-.2019.01705-.0686.06068-.1277.1213-.1642l5.9904-3.7483-7.28427 4.2059c-.06061.0365-.13324.0474-.2019.0304-.06866-.0171-.12774-.0607-.16423-.1213-.0365-.0607-.04742-.1333-.03037-.2019.01706-.0687.06069-.1278.1213-.1643l7.04637-4.4112-8.4357 4.8694c-.06047.0367-.13305.0478-.20176.031s-.12794-.0602-.16464-.1206c-.03671-.0605-.04789-.1331-.03109-.2018.01681-.0687.06022-.1279.12069-.1646l9.8592-6.2646-11.64214 6.7216c-.04027.0237-.0861.0362-.1328.0363z" fill="#d1e6ea"/><path d="m14.4097 25.8508c-.056 0-.1106-.0176-.156-.0504-.0454-.0327-.0793-.0789-.097-.132s-.0183-.1104-.0016-.1638.0498-.1003.0946-.1338l.089-.0678-.8853.511c-.0556.0321-.1209.0431-.184.0309-.063-.0122-.1196-.0467-.1592-.0973-.0396-.0505-.0597-.1136-.0565-.1778.0032-.0641.0294-.125.0738-.1713l1.2267-1.2768-2.9333 1.6923c-.0578.0331-.1258.0434-.1908.0288-.065-.0145-.1222-.0528-.1603-.1073-.0382-.0546-.0546-.1214-.046-.1874s.0416-.1264.0925-.1693l.7968-.6667-1.9077 1.1013c-.05539.0317-.1203.0425-.18296.0304-.06266-.012-.11891-.0462-.15853-.0962-.03963-.05-.06-.1126-.05743-.1764.00257-.0637.02792-.1244.07145-.1711l1.23737-1.3168-2.99737 1.7301c-.05681.033-.12379.0439-.18811.0305-.06431-.0133-.12144-.0499-.16043-.1028s-.05709-.1183-.05084-.1836c.00625-.0654.03641-.1262.08471-.1707l1.0976-1.0134-2.49653 1.44c-.05814.0335-.12676.0438-.19217.029-.06542-.0149-.12282-.0539-.16078-.1092-.03795-.0553-.05366-.1229-.044-.1893.00967-.0664.044-.1267.09615-.1689l.5744-.4618-1.55947.9002c-.058.0332-.12632.0433-.19145.0285s-.12233-.0536-.16027-.1085c-.03794-.055-.05387-.1222-.04464-.1884.00923-.0661.04295-.1264.09449-.1689l.64-.5195-1.65866.9568c-.05727.0327-.12462.043-.18904.029-.06443-.0141-.12137-.0515-.15982-.105-.03845-.0536-.05569-.1195-.04839-.1851.0073-.0655.03862-.126.08791-.1698l.9728-.8533-2.06826 1.1936c-.05677.0316-.12314.0414-.18663.0276-.0635-.0139-.11975-.0504-.1582-.1028-.03844-.0524-.05643-.117-.05059-.1818.00585-.0647.03513-.125.08235-.1697l.9648-.8784-1.4656.8453c-.05448.0315-.11833.0427-.18027.0316-.06193-.0111-.11796-.0437-.15817-.092-.04021-.0484-.062024-.1095-.061578-.1724s.023118-.1236.064018-.1714l.77013-.9014-.966398.5584c-.047214.0271-.101564.039-.155757.0342-.054193-.0047-.105636-.0259-.147428-.0607-.041792-.0349-.071933-.0817-.086378-.1341-.014446-.0524-.012504-.1081.005563-.1594l.2352-.6496c-.061696.0296-.132379.0342-.197437.0131-.065057-.0211-.119514-.0664-.152113-.1265s-.040846-.1305-.023038-.1965c.017808-.0661.060311-.1228.118721-.1583l.619205-.3574c.04721-.027.10156-.0389.15575-.0342.05419.0048.10564.026.14743.0608s.07193.0816.08638.1341c.01444.0524.0125.108-.00556.1593l-.23467.6486 1.68107-.9691c.05442-.0312.11808-.0421.17979-.031s.11753.0437.15764.0918c.04012.0482.06196.109.0617.1717-.00027.0628-.02262.1234-.06313.1712l-.77067.9014 2.2608-1.3051c.05676-.0316.12313-.0415.18663-.0276.06349.0138.11975.0504.15819.1028.03845.0524.05644.117.05059.1817s-.03513.1251-.08234.1698l-.96534.8784 2.26294-1.3051c.05726-.0327.12461-.043.18903-.029.06443.0141.12137.0515.15982.1051.03845.0535.05569.1195.04839.185-.00729.0655-.03862.126-.08791.1698l-.97333.8534 2.22666-1.2843c.05799-.0326.12604-.0423.19082-.0273.06478.0151.12161.0537.15934.1085s.05364.1216.04461.1875-.04236.126-.09343.1686l-.64.5195 1.66026-.9568c.05814-.0335.12675-.0438.19217-.0289.06541.0148.12282.0538.16077.1091.03796.0553.05367.1229.044.1893-.00966.0664-.04399.1267-.09614.1689l-.5744.4619 1.55951-.9003c.0568-.033.1237-.0439.1881-.0305.0643.0133.1214.05.1604.1028.039.0529.0571.1183.0508.1837-.0062.0654-.0364.1261-.0847.1707l-1.09757 1.0133 2.49547-1.44c.0554-.0321.1205-.0432.1833-.0312.0629.0119.1194.0461.1592.0962s.0602.1129.0575.1769c-.0026.0639-.0282.1248-.072.1714l-1.2347 1.3158 2.9974-1.7302c.0577-.0337.126-.0444.1914-.0301.0653.0143.1229.0527.1612.1074.0384.0548.0548.122.046.1883s-.0422.1268-.0936.1696l-.7968.6667 1.9078-1.1008c.0556-.0317.1207-.0424.1835-.0301.0629.0124.1191.0469.1586.0973s.0595.1133.0564.1772c-.0031.064-.0291.1247-.0732.1711l-1.2267 1.2768 2.9334-1.6923c.0587-.0334.1279-.0433.1936-.0277s.123.0556.1604.1119.052.1246.0409.1913c-.011.0666-.047.1265-.1005.1677l-.0891.0677.8853-.5109c.0564-.034.1234-.0459.1881-.0334.0646.0125.1224.0484.1621.101.0398.0525.0587.1178.0531.1834s-.0353.1269-.0833.1719l-1.1637 1.12 2.6757-1.5466c.0576-.0324.1252-.0421.1896-.0275s.1211.0527.1591.1067c.038.0541.0545.1203.0465.1858-.0081.0656-.0402.1258-.0901.1691l-.8288.6992 1.9595-1.1296c.0557-.0318.1211-.0424.184-.0299.063.0125.1193.0474.1587.0981.0393.0507.0591.1139.0556.1779-.0035.0641-.03.1248-.0746.171l-1.2176 1.2426 2.8763-1.6597c.0568-.0325.1235-.043.1876-.0295.064.0135.1208.0501.1596.1028s.0569.1178.0508.183-.036.1258-.0839.1704l-1.0944 1.0101 2.4891-1.4368c.0581-.033.1266-.043.1918-.0279s.1223.0541.1601.1094c.0377.0553.0533.1227.0436.1889s-.0439.1264-.0958.1685l-.5333.4267 1.4986-.8656c.0568-.034.1243-.0457.1892-.0327s.1227.0497.1621.1029.0576.1192.051.1851-.0374.127-.0865.1714l-1.12 1.0485 2.5536-1.4752c.0567-.0308.1227-.04.1857-.0259.063.0142.1187.0507.1568.1028s.056.1163.0504.1806-.0344.1244-.0809.1692l-1.0406.937 2.3659-1.3637c.0579-.033.1261-.0431.1911-.0283.065.0149.1221.0535.16.1083.038.0548.054.1218.045.1879-.009.066-.0425.1263-.0937.1689l-.6933.5685 1.2085-.697c.0544-.0315.1181-.0428.18-.0319s.1179.0434.1583.0916c.0403.0482.0622.1091.062.1719-.0002.0629-.0226.1236-.0632.1716l-.9744 1.1498.3477-.2005c.0609-.0319.1318-.039.1979-.0198.0661.0191.1222.0631.1566.1226.0344.0596.0445.1301.0281.1969s-.0579.1247-.1159.1616l-1.6747.967c-.0544.0315-.1181.0427-.18.0318s-.118-.0433-.1583-.0916c-.0403-.0482-.0623-.1091-.062-.1719.0002-.0629.0226-.1236.0632-.1715l.9744-1.1499-2.7034 1.5573c-.058.033-.1262.0431-.1912.0283s-.122-.0534-.16-.1082c-.0379-.0549-.054-.1219-.0449-.1879.009-.0661.0424-.1263.0937-.169l.6933-.5664-1.7408 1.0032c-.0567.0309-.1227.04-.1857.0259s-.1188-.0507-.1569-.1028-.056-.1163-.0504-.1806c.0057-.0643.0344-.1244.081-.1691l1.0411-.9376-2.367 1.3642c-.0568.034-.1242.0457-.1892.0327-.0649-.013-.1227-.0496-.1621-.1029-.0394-.0532-.0575-.1192-.051-.1851.0066-.0659.0375-.1269.0866-.1713l1.12-1.0486-2.5541 1.4752c-.0582.0331-.1267.043-.1919.0279s-.1223-.0541-.16-.1094c-.0378-.0552-.0533-.1227-.0437-.1889.0097-.0662.0439-.1263.0958-.1685l.5334-.4267-1.4987.8656c-.0568.0325-.1236.043-.1876.0295s-.1209-.0501-.1597-.1028-.0568-.1178-.0507-.183c.0061-.0651.0359-.1258.0839-.1703l1.0944-1.0102-2.4891 1.4368c-.0558.0318-.1211.0424-.1841.0299-.0629-.0125-.1193-.0473-.1586-.098-.0394-.0507-.0591-.1139-.0556-.178.0034-.0641.0299-.1248.0746-.1709l1.2176-1.2427-2.8763 1.6597c-.0576.0323-.1252.0421-.1896.0275s-.1211-.0527-.1591-.1067c-.0379-.0541-.0545-.1203-.0465-.1859.0081-.0655.0402-.1258.0901-.169l.8288-.6992-1.9637 1.1333c-.0564.034-.1234.0459-.1881.0334-.0646-.0125-.1224-.0484-.1621-.1009s-.0586-.1179-.0531-.1835c.0056-.0656.0353-.1269.0833-.1719l1.1632-1.12-2.6752 1.5467c-.0403.0224-.0857.0339-.1317.0336z" fill="#bad3d6"/><path d="m15.4014 7.59954c-.0519.00004-.1027-.01506-.1462-.04347-.0434-.0284-.0776-.06887-.0984-.11643s-.0272-.10016-.0185-.15133c.0086-.05118.0321-.09871.0673-.13677l.8139-.8784-1.2059.69334c-.0559.03074-.121.04039-.1835.02719-.0624-.01319-.1181-.04835-.1568-.0991-.0388-.05074-.058-.1137-.0543-.17743.0038-.06373.0302-.124.0746-.16986l.7595-.75627-.6933.40107c-.0543.03121-.1178.04234-.1795.03142-.0616-.01091-.1175-.04317-.1577-.09112-.0403-.04795-.0624-.10854-.0624-.17114-.0001-.06261.0218-.12325.062-.1713l.5013-.59733c-.0578-.00189-.1135-.02255-.1586-.05887s-.0771-.08632-.0913-.14246c-.0141-.05613-.0096-.11535.0128-.1687.0225-.05335.0617-.09794.1118-.12704l1.0933-.63146c.0543-.03122.1178-.04235.1795-.03143.0616.01091.1175.04317.1577.09112.0403.04795.0624.10854.0624.17115.0001.06261-.0218.12324-.062.17129l-.4267.50827 1.1392-.6576c.056-.03075.1211-.0404.1836-.0272.0624.01319.1181.04836.1568.0991.0388.05074.058.1137.0543.17743-.0038.06373-.0302.124-.0747.16987l-.7605.75733.9787-.56427c.0553-.03244.1204-.04387.1834-.03221.0631.01165.1198.04563.1598.0957.04.05006.0607.11287.0582.17693-.0025.06405-.028.12506-.0718.17185l-.8144.8784.64-.3696c.0303-.01929.0643-.03225.0998-.03809.0355-.00583.0718-.00443.1067.00412.0349.00856.0678.02409.0965.04567.0288.02158.0529.04875.0709.07989s.0295.0656.0339.1013c.0043.0357.0014.07191-.0087.10645-.01.03454-.0269.0667-.0496.09454-.0228.02784-.051.05078-.0828.06745l-2.1681 1.25227c-.0401.02349-.0857.03582-.1322.03573z" fill="#bad3d6"/><g fill="#262626"><path d="m31.3403 22.7569c-.1806-.0446-.3669-.0616-.5526-.0507.4528-7.8133-5.7674-15.12744-13.6773-15.47837.285-.1594.5166-.39931.6658-.6897.1493-.2904.2096-.61837.1734-.94287s-.1673-.63111-.3769-.88146c-.2096-.25034-.4884-.4333-.8015-.52597-1.7744-.6176-3.84 1.6976-2.1136 3.06666-7.69228.63894-13.916812 7.70451-13.44801 15.47361-2.2496.2101-.490668 3.1952 1.06667 3.0587.05333 3.7866 5.43413 1.7264 7.86184 2.2245h14.0907c1.9669-.1141 5.6299.7605 5.4933-2.2656 1.2075-.0448 3.0779-2.152 1.6182-2.9888zm-16.2598-16.06881c-.1305-.17941-.2202-.38517-.2629-.60289-.0426-.21771-.0372-.44212.0159-.65752.0532-.2154.1527-.41658.2918-.58947.139-.1729.3141-.31332.5131-.41145 1.2923-.54133 2.1899 1.96427.944 2.77333-.5685 0-1.1691.05334-1.5019-.512zm-4.3072 2.05494c9.1856-3.93174 19.9467 4.01867 19.2315 13.90617h-28.00855c-.24266-5.9024 3.17014-11.7467 8.77705-13.90617zm16.9958 18.71307h-21.53871c-1.31093.0373-3.2496.2667-3.16267-1.5787h25.86938c-.0262.7627-.207 1.527-1.168 1.5787zm3.192-3.2309c-.0971.2972-.2746.5618-.5129.7643s-.528.335-.837.3829c-7.848-.1435-15.7419 0-23.60481-.0496-1.52427-.2134-3.52.6005-4.66027-.6896-.19893-.2955-.892799-1.608-.10667-1.5467 9.68165.2821 19.68005.1803 29.40055.0352.5712.0251.4677.7493.3211 1.1035z"/><path d="m6.23999 14.9141c1.79787-2.7642 5.90241-4.737 9.04801-4.8949.84-.04212 0-.39252 0-.39252-3.5435-.3056-7.62667 2.30562-9.75307 5.32582-.1616.2294.58773.1264.70506-.0384z"/></g></svg>