<svg fill="none" height="24" viewBox="0 0 24 24" width="24" xmlns="http://www.w3.org/2000/svg"><path d="m11.686 23c-.0515-.0001-.1016-.0149-.1431-.0422-.0416-.0274-.0724-.0659-.0882-.11-.0157-.0442-.0155-.0917.0006-.1358.0161-.044.0473-.0823.0891-.1094l3.6819-2.3768-4.9128 2.5558c-.0545.0285-.1192.0368-.1804.0232s-.1142-.0481-.14775-.0962c-.03357-.0481-.0451-.106-.03219-.1616s.04924-.1046.10144-.1365l4.2075-2.5913-5.05147 2.6264c-.05481.0268-.11896.0336-.1792.019-.06024-.0145-.11196-.0494-.1445-.0973-.03254-.048-.0434-.1054-.03035-.1603.01305-.055.04902-.1034.10048-.1351l2.64524-1.5435-3.09155 1.6084c-.05494.0268-.11924.0336-.17956.0189s-.11205-.0498-.14446-.098c-.03241-.0481-.04302-.1057-.02963-.1607.01338-.055.04974-.1033.10154-.1348l1.4971-.8557-1.7862.9303c-.05526.0287-.12081.0367-.18255.0223-.06175-.0144-.11475-.0501-.1476-.0993-.03285-.0493-.04293-.1082-.02806-.1641.01486-.0559.05349-.1043.10755-.1348l.83421-.4719-1.04544.5408c-.05525.0287-.1208.0367-.18255.0223-.06174-.0144-.11474-.0501-.14759-.0994-.03286-.0492-.04293-.1081-.02807-.164.01487-.0559.05349-.1043.10756-.1348l.7213-.4071-.88921.4628c-.05508.0269-.11954.0336-.17997.0187-.06043-.0148-.11217-.0501-.14446-.0985-.0323-.0484-.04265-.1061-.02891-.1612.01375-.055.05052-.1032.10269-.1345l.66581-.375-.79771.4149c-.055.0277-.11978.0351-.18071.0207-.06093-.0145-.11326-.0497-.14599-.0982-.03272-.0485-.04328-.1066-.02946-.162s.05094-.1038.10356-.135l3.5325-2.0291-3.73497 1.9448c-.05483.0281-.11961.0359-.1807.0218-.0611-.0141-.11372-.049-.14679-.0974s-.04399-.1065-.03048-.162c.01352-.0555.05042-.1041.10294-.1356l5.86236-3.4602-6.12421 3.1865c-.05504.0273-.11965.0343-.18031.0196-.06067-.0146-.11269-.0499-.14519-.0983s-.04296-.1063-.0292-.1616c.01377-.0552.05071-.1035.10307-.1347l2.63794-1.497-2.69731 1.4036c-.05497.0281-.11995.036-.18118.0217-.06124-.0142-.11392-.0494-.14689-.098-.03296-.0487-.04362-.107-.02972-.1626.01391-.0556.05128-.1041.10421-.1353l5.41309-3.1611-5.51919 2.8703c-.05518.0303-.12144.0395-.18419.0257-.06275-.0137-.11686-.0494-.15042-.0992-.03356-.0497-.04382-.1094-.02854-.1659.01529-.0566.05488-.1054.11007-.1356l4.21583-2.4255-4.21827 2.193c-.05511.0266-.11944.033-.17966.0179-.06021-.015-.1117-.0504-.14379-.0987s-.04233-.1059-.0286-.1608c.01374-.0549.05039-.103.10237-.1343l.18641-.1048-.08274.0439c-.05479.0286-.1198.0369-.18123.023s-.11444-.0488-.14777-.0973c-.03332-.0486-.04434-.1069-.03071-.1626.01363-.0558.05083-.1045.1037-.1359l6.20643-3.6892-6.15289 3.2019c-.05404.0222-.11522.0258-.17203.0102-.0568-.0157-.1053-.0495-.13636-.0951s-.04253-.0999-.03225-.1526c.01028-.0528.04159-.1003.08804-.1336l4.42901-2.5751-4.26207 2.2189c-.0551.0284-.12032.0363-.18176.0219-.06144-.0143-.11423-.0497-.14712-.0986-.03288-.049-.04326-.1075-.02892-.1632s.05227-.1042.10569-.1351l2.28751-1.3022-2.04903 1.0658c-.0549.0272-.11934.0343-.17989.0198-.06055-.0146-.11255-.0496-.14516-.0978-.03262-.0482-.04334-.1059-.02993-.1611.0134-.0551.0499-.1035.1019-.135l3.08084-1.7777-2.77811 1.4474c-.05482.0268-.11896.0336-.1792.0191-.06024-.0146-.11196-.0495-.1445-.0974-.03254-.048-.04341-.1054-.03036-.1603.01305-.055.04902-.1034.10049-.1351l3.49307-2.0352-3.11491 1.6203c-.05448.0265-.11815.0333-.17803.0191-.05988-.0143-.11146-.0487-.14423-.096-.03276-.0474-.04425-.1043-.03212-.159s.04696-.1032.0974-.1356l4.89819-2.9629-4.34188 2.2589c-.0551.0284-.12033.0362-.18177.0219-.06144-.0144-.11423-.0498-.14711-.0987-.03289-.0489-.04327-.1075-.02893-.1632s.05227-.1042.1057-.135l.81376-.4667-.28666.1491c-.05506.0304-.12124.0398-.18399.0262s-.11693-.0492-.15062-.0988-.04413-.1092-.02903-.1658c.01511-.0565.05452-.1054.10958-.1357l1.68205-.9816-.99677.5184c-.05483.0281-.11962.0359-.18071.0218s-.11372-.0491-.14678-.0975c-.03307-.0484-.044-.1064-.03048-.162.01351-.0555.05042-.1041.10293-.1356l1.82466-1.08071-.9447.49171c-.05505.0303-.12123.0398-.18398.0261-.06275-.0136-.11693-.0491-.15063-.0987-.03369-.0496-.04413-.1093-.02902-.1658.0151-.0566.05452-.1054.10957-.13576l.79625-.4658c-.05127-.0021-.1005-.01875-.14064-.04757s-.06914-.06834-.08285-.11292c-.01372-.04457-.01144-.09191.00649-.13524.01794-.04334.05062-.08046.09338-.10604l1.04301-.62635c-.04263.00162-.085-.00669-.12302-.02413s-.07042-.04342-.09405-.07543c-.03405-.04705-.04677-.10407-.03554-.15932.01122-.05525.04555-.10451.09589-.13762l2.05973-1.35707-.45556.23685c-.05348.02827-.11692.03708-.17736.02463-.06045-.01245-.11334-.04523-.14788-.09163-.03454-.04641-.04812-.10295-.03796-.15807.01015-.05513.04327-.10468.0926-.13854l1.21675-.84653c-.05384.01265-.11087.00828-.16158-.01238s-.09203-.05635-.11708-.10113c-.02504-.04479-.0323-.09595-.02056-.14497s.04177-.09294.08508-.12443l.71054-.51493c-.0475-.01189-.0898-.0367-.1211-.07105-.037-.03954-.0572-.08956-.0572-.14124s.0202-.1017.0572-.14123l.9607-1.01671c-.0459.0039-.0921-.00405-.1332-.02291s-.0755-.04787-.099-.08363c-.0235-.03577-.0352-.07682-.0339-.11837.0014-.04156.0159-.0819.0417-.11633l.3792-.50572c-.0239-.01702-.0439-.03802-.0589-.06185-.0161-.02493-.0265-.05247-.0308-.08106-.0042-.02858-.0022-.05763.006-.0855.0083-.02786.0225-.05399.042-.07689.0194-.0229.0437-.04212.0714-.05656l.4434-.23027c.0476-.02458.103-.03393.1573-.02653.0542.00739.1041.0311.1416.06726.0374.03617.0602.08268.0646.13198.0044.04929-.0098.09848-.0404.13958l-.1815.243.165-.08773c.0497-.02589.1079-.03513.1644-.02608.0565.00904.1076.03578.1443.0755.0368.03973.0568.08987.0565.14158s-.0209.10166-.0581.14103l-.9184.97197.9622-.5009c.0531-.02768.1159-.03626.1757-.02402s.1123.0444.147.09004c.0346.04564.0489.10139.0398.15609-.009.05469-.0406.10429-.0885.13887l-.3407.24475.2974-.15439c.0535-.02828.1169-.03709.1774-.02464.0604.01246.1133.04523.1478.09164.0346.04641.0482.10295.038.15807s-.0433.10468-.0926.13854l-1.1657.81056 1.2124-.63073c.0539-.0274.1173-.03528.1774-.02205s.1123.04658.1461.09327c.0338.0467.0465.10323.0357.15811s-.0444.10399-.0939.13735l-2.0612 1.3597 2.1819-1.13513c.0547-.02804.1193-.03589.1803-.02191.061.01397.1136.0487.1468.09688.0331.04818.0443.10607.0312.16152-.0132.05546-.0497.10416-.1018.13589l-.6984.41976.7368-.38379c.0551-.03042.1213-.03988.1841-.02631s.117.04907.1508.09868c.0337.04962.0442.10928.0292.16587-.0151.0566-.0545.10548-.1095.1359l-.1825.10658.2126-.11053c.0549-.02963.1206-.03857.1827-.02491.0622.01366.1159.04884.1495.09791.0336.04908.0444.1081.03.1643-.0143.05619-.0526.10504-.1066.13596l-1.8242 1.08031 1.9351-1.00882c.0549-.02762.1195-.03505.1803-.02072s.1131.04931.1459.0976c.0329.0483.0437.10617.0302.1615-.0134.05533-.0501.10382-.1023.13532l-1.6835.98294 1.792-.9325c.0552-.03018.1214-.03938.1841-.02556.0628.01382.1168.04952.1503.09925s.0437.10942.0284.16593c-.0154.05651-.055.10521-.1102.1354l-.8196.46975.899-.46756c.0547-.02931.12-.03811.1819-.02451s.1154.04851.149.09724c.0336.04874.0447.10741.0309.16343s-.0515.10493-.1049.13622l-4.8904 2.96329 5.2014-2.70801c.0273-.01504.0576-.02508.0892-.02957.0315-.00449.0638-.00333.0948.00341.0311.00674.0604.01893.0862.03587.0259.01695.0478.03831.0645.06288.0166.02456.0278.05185.0328.0803.0049.02845.0037.0575-.0038.08551-.0075.028-.021.0544-.0398.07769s-.0425.04301-.0698.05805l-3.495 2.03823 3.6853-1.92025c.0551-.02908.1206-.0375.1825-.02344.0619.01405.1152.04946.1484.0986.0332.04913.0436.10805.0291.16406-.0146.05601-.053.10462-.1069.13536l-3.076 1.77421 3.24-1.68561c.0274-.01489.0577-.02478.0893-.0291s.0638-.00299.0949.00391c.031.0069.0602.01925.0859.03632.0258.01708.0475.03856.064.06321.0166.02466.0275.052.0323.08047.0048.02848.0033.05752-.0043.08548-.0077.02797-.0214.05429-.0403.07748-.019.02319-.0428.04279-.0702.05768l-2.286 1.30096 2.4014-1.24964c.0551-.02908.1206-.03751.1825-.02345s.1152.04947.1484.0986c.0332.04914.0436.10806.0291.16406-.0146.05601-.053.10463-.1069.13537l-4.4344 2.57646 4.6237-2.4054c.0547-.0276.1192-.03508.1799-.02089s.113.04896.1459.09704c.033.04809.0441.10579.031.16106s-.0494.10385-.1013.13561l-6.203 3.68828 6.4654-3.3641c.0274-.0148.0578-.0246.0894-.0289.0316-.0042.0638-.0027.0948.0043s.0602.0194.0859.0366c.0256.0171.0473.0387.0637.0634.0165.0247.0273.0521.032.0806s.0031.0575-.0047.0855c-.0078.0279-.0216.0542-.0406.0773-.019.0232-.043.0427-.0704.0575l-.1922.1074.1947-.1017c.055-.0277.1197-.0351.1807-.0207.0609.0145.1132.0497.1459.0982.0328.0485.0433.1066.0295.162s-.0509.1038-.1036.1351l-4.2099 2.4224 4.2888-2.2316c.0551-.0279.1201-.0353.1812-.0207s.1135.05.1462.0988c.0326.0487.0429.107.0287.1625-.0143.0555-.0519.1039-.105.1348l-5.4126 3.158 5.4998-2.8602c.0549-.0265.1191-.0329.1792-.018s.1116.05.1438.0981.0427.1055.0293.1604c-.0133.0549-.0496.103-.1012.1345l-2.637 1.4962 2.5976-1.3514c.0549-.0296.1205-.0386.1827-.0249.0621.0136.1158.0488.1494.0979s.0444.1081.0301.1643c-.0144.0562-.0527.105-.1067.1359l-5.8648 3.462 5.8585-3.0483c.0551-.0302.1214-.0394.1841-.0256s.1167.0495.1502.0992c.0335.0498.0437.1095.0284.166s-.055.1052-.1101.1354l-3.5311 2.0281 3.4118-1.775c.0551-.0269.1196-.0336.18-.0188.0604.0149.1122.0502.1445.0985.0322.0484.0426.1061.0289.1612-.0138.0551-.0506.1033-.1027.1345l-.6668.3746.494-.2566c.0551-.0269.1195-.0336.18-.0187.0604.0148.1121.0501.1444.0985.0323.0483.0427.1061.0289.1611-.0137.0551-.0505.1033-.1027.1345l-.7266.4102.5261-.2737c.0552-.0279.1202-.0353.1813-.0207s.1135.05.1461.0988c.0326.0487.0429.107.0287.1625s-.0519.1039-.1049.1348l-.8274.468.5991-.3114c.0549-.0268.1192-.0336.1796-.0189.0603.0147.112.0498.1444.098.0324.0481.043.1057.0297.1607-.0134.055-.0498.1033-.1016.1348l-1.4937.8557 1.2333-.6417c.0549-.0276.1195-.035.1803-.0207s.1131.0493.1459.0976c.0329.0483.0437.1062.0302.1615-.0134.0553-.0501.1038-.1023.1353l-2.6467 1.5444 2.3079-1.201c.0546-.0285.1192-.0368.1805-.0232.0612.0136.1141.0481.1477.0962s.0451.106.0322.1616c-.0129.0557-.0493.1046-.1014.1365l-4.2081 2.5931 3.6819-1.9154c.0541-.0276.1178-.0354.1781-.022.0602.0134.1125.047.1462.0941.0336.047.0461.1038.0347.1588-.0113.055-.0455.1041-.0957.1371l-3.6814 2.3764 2.8229-1.4676c.054-.028.1178-.0362.1784-.023.0605.0132.1131.0468.147.0939.0338.0471.0464.1041.035.1593s-.0458.1043-.0961.1373l-1.7298 1.1295.5558-.2886c.0277-.0159.0587-.0266.0911-.0314s.0655-.0036.0974.0034c.0319.0071.0618.0198.0881.0376.0263.0177.0483.0401.0647.0657s.0269.0539.0309.0833c.0039.0294.0013.0591-.0079.0875-.0091.0284-.0246.0549-.0453.0778-.0208.0229-.0465.0418-.0756.0555l-4.6227 2.4044c-.054.028-.1179.0362-.1784.023s-.1131-.0468-.147-.0939c-.0338-.0471-.0464-.1041-.035-.1593s.0458-.1043.0961-.1373l1.7288-1.129-3.0531 1.5882c-.0369.0194-.0789.0296-.1217.0294z" fill="#00bbea"/><g fill="#262626"><path d="m4.00818 15.3051c.223 10.6752 15.63622 10.5139 15.99412.0206.0957-5.94393-5.5802-9.72915-7.7174-14.69971-.9814-.143561-1.1106.96282-1.4006 1.6208-2.0429 4.50303-7.11539 7.63649-6.87612 13.05831zm5.2596-9.10368c1.16332-1.54256 2.08082-3.25591 2.72002-5.07919 1.6715 5.2261 7.6379 8.42225 7.3216 14.38957-.7657 4.193-2.9698 6.0703-5.1428 6.913-6.41004 2.4864-14.991637-6.5938-4.89882-16.22338z"/><path d="m10.3522 21.0936c.2928.1526.8049-.2824.3948-.4876-.81621-.3328-1.55435-.8315-2.16772-1.4645-.61336-.6329-1.08857-1.3864-1.39551-2.2126-.03731-.073-.10027-.1295-.17677-.1588-.07649-.0294-.16113-.0294-.23764-.0001-.79437 1.3677 2.21563 3.8503 3.58284 4.3236z"/></g></svg>