<svg fill="none" height="32" viewBox="0 0 32 32" width="32" xmlns="http://www.w3.org/2000/svg" xmlns:xlink="http://www.w3.org/1999/xlink"><clipPath id="a"><path d="m0 0h32v32h-32z"/></clipPath><g clip-path="url(#a)"><path d="m15.8935 31.7149c-.0575 0-.1134-.0185-.1595-.0529s-.0798-.0827-.0962-.1378-.0145-.1141.0054-.168c.0198-.054.0566-.1001.1047-.1314l5.8934-3.8352-7.2566 4.1898c-.0602.035-.1317.0451-.1992.0281s-.1257-.0598-.1621-.1191-.0482-.1306-.0328-.1985.0567-.1271.1152-.1649l7.888-5.12-9.1995 5.3126c-.0603.0353-.1321.0456-.2.0285-.0678-.0171-.1262-.0602-.1626-.1199-.0363-.0598-.0478-.1314-.0318-.1995.0159-.0681.058-.1272.1171-.1646l8.9157-5.7232-10.0448 5.7995c-.0608.0361-.1335.0466-.202.0291-.0686-.0174-.1274-.0614-.1636-.1222-.0361-.0608-.0466-.1335-.0292-.2021.0175-.0685.0615-.1274.1223-.1635l2.4725-1.5136-2.9546 1.7067c-.0608.0362-.1334.0468-.202.0294-.0686-.0173-.1274-.0612-.1636-.122-.0363-.0607-.0468-.1334-.0295-.2019.0174-.0686.0612-.1275.122-.1637l5.1733-3.1882-5.71997 3.3008c-.06058.0341-.1321.0432-.1993.0254-.06721-.0179-.12479-.0613-.16047-.1209-.03568-.0597-.04664-.131-.03055-.1986.0161-.0677.05798-.1263.11672-.1635l6.55357-4.0491-7.11197 4.1045c-.06058.0342-.1321.0433-.1993.0254-.06721-.0178-.12479-.0612-.16047-.1209-.03568-.0596-.04664-.1309-.03055-.1985.0161-.0677.05798-.1264.11672-.1636l7.13227-4.401-7.64907 4.416c-.06051.0328-.13135.0409-.19772.0227s-.12312-.0614-.15839-.1205-.04632-.1296-.03085-.1966c.01548-.0671.05629-.1256.11389-.1632l7.44264-4.5867-7.91411 4.5701c-.06089.036-.13359.0464-.20211.0288-.06851-.0177-.12722-.0618-.16322-.1226-.036-.0609-.04633-.1336-.02873-.2022.0176-.0685.0617-.1272.1226-.1632l.9984-.6026-1.22667.7077c-.06075.0362-.1334.0468-.20197.0294-.06856-.0173-.12742-.0612-.16363-.1219-.03621-.0608-.04681-.1334-.02945-.202.01735-.0686.06123-.1274.12198-.1636l9.25121-5.7174-9.70294 5.6c-.06062.0335-.1319.0421-.19876.024-.06685-.0181-.12404-.0615-.15945-.121s-.04627-.1305-.03028-.1979.05757-.1259.11596-.1632l7.08477-4.3344-7.40104 4.2752c-.06075.0346-.13267.044-.20027.0261s-.12546-.0616-.16113-.1218c-.03566-.0601-.04628-.1319-.02956-.1998s.05944-.1265.11896-.1632l6.68004-4.0762-6.94671 4.0101c-.06066.033-.13174.0412-.19831.0228-.06656-.0184-.1234-.0618-.15857-.1213-.03517-.0594-.04592-.1301-.02999-.1973s.0573-.1256.11541-.1629l3.51466-2.1264-3.68 2.1238c-.06044.0318-.1308.0392-.19656.0207-.06577-.0185-.12192-.0615-.15688-.1202s-.04605-.1286-.031-.1952c.01506-.0667.05511-.125.11191-.1629l9.73544-5.992-10.02397 5.7872c-.06066.0329-.13175.0411-.19831.0228-.06656-.0184-.12341-.0619-.15858-.1213s-.04592-.1302-.02999-.1973c.01594-.0672.0573-.1256.11541-.1629l4.2784-2.5909-4.4016 2.5413c-.06079.0338-.1324.0426-.19955.0244-.06716-.0182-.12454-.0619-.15989-.1219-.03536-.0599-.04589-.1313-.02936-.1988.01654-.0676.05883-.1261.11787-.1629l4.71306-2.8549-4.82026 2.7824c-.06058.0341-.1321.0432-.1993.0254-.06721-.0179-.12479-.0613-.16047-.1209-.03568-.0597-.04664-.131-.03055-.1986.0161-.0677.05798-.1263.11672-.1635l11.50617-7.1232-11.73711 6.776c-.0605.0328-.13135.0409-.19771.0227-.06637-.0182-.12313-.0614-.1584-.1205-.03526-.0591-.04632-.1296-.03084-.1966.01548-.0671.05628-.1256.11389-.1632l10.02877-6.1707-10.17171 5.8736c-.06031.0294-.12952.0351-.1938.0157-.06428-.0193-.11891-.0622-.15298-.12s-.04507-.1264-.03081-.192c.01425-.0656.05272-.1234.10773-.1618l8.59677-5.263-8.67357 5.0059c-.06049.0315-.13073.0386-.19629.0199-.06556-.0188-.12146-.0619-.15622-.1205-.03476-.0587-.04572-.1284-.03065-.1949s.05504-.1247.11169-.1626l6.17067-3.7526-6.1744 3.5643c-.06051.0328-.13135.0409-.19772.0227s-.12312-.0614-.15839-.1205-.04632-.1295-.03085-.1966c.01548-.0671.05629-.1255.11389-.1632l9.35684-5.7499-9.37551 5.4128c-.06062.0335-.1319.0421-.19875.024-.06686-.0181-.12404-.0615-.15946-.121-.03541-.0595-.04627-.1305-.03028-.1979s.05758-.1259.11596-.1632l8.17813-5.0096-8.14133 4.7003c-.06035.0326-.13099.0408-.19721.0227-.066219-.018-.122921-.0609-.158307-.1197-.035385-.0589-.046729-.1291-.03167-.196.015059-.067.055361-.1256.112519-.1636l11.913608-7.4325-11.89121 6.8656c-.03008.0179-.063398.0297-.098051.0348s-.069962.0032-.103911-.0054c-.03395-.0086-.065874-.0237-.09395-.0447-.028077-.0209-.051756-.0472-.069686-.0772-.036211-.0608-.046805-.1334-.029452-.202.017354-.0686.061233-.1274.121985-.1636l7.563205-4.6368-7.434138 4.2917c-.06058.0341-.132094.0432-.199299.0254s-.124785-.0612-.160466-.1209c-.035682-.0597-.046643-.1309-.030547-.1986.016095-.0676.057975-.1263.116712-.1635l10.169108-6.3189-10.006441 5.7781c-.060753.0363-.13343.0469-.202043.0296s-.127543-.0611-.163824-.1219c-.036282-.0607-.046944-.1334-.02964-.202.017303-.0686.061154-.1276.121907-.1638l7.580271-4.6699-7.360005 4.2475c-.060658.0329-.131747.0411-.198308.0228-.066562-.0184-.123407-.0619-.158575-.1213-.035169-.0594-.045918-.1302-.029988-.1973.015931-.0672.057301-.1256.115404-.1629l1.299202-.7872-1.035201.5973c-.060659.033-.131747.0412-.198309.0228-.066562-.0183-.123407-.0618-.158575-.1212-.035169-.0594-.045918-.1302-.029987-.1974s.0573-.1255.115404-.1628l.505066-.3056-.213333.1226c-.061106.0359-.133981.0461-.202594.0283-.068614-.0178-.127345-.0621-.163273-.1232s-.04611-.134-.028306-.2026c.017803-.0686.062134-.1274.12324-.1633l.693338-.4208-.373338.2134c-.060545.0323-.131237.0401-.197362.0216-.066124-.0184-.122586-.0617-.157633-.1207s-.045979-.1293-.030519-.1962c.015459-.0669.056118-.1252.113514-.1629l1.035738-.6298-.681072.3925c-.060502.0328-.131347.0409-.197716.0227s-.123123-.0614-.158391-.1205c-.035269-.0591-.04632-.1295-.030843-.1966.015476-.0671.056282-.1255.113884-.1632l3.817068-2.3467-3.396801 1.9654c-.060421.0338-.131642.0428-.198594.0251s-.124382-.0608-.160137-.1201c-.035756-.0593-.047031-.1302-.031442-.1977.01559-.0675.056822-.1263.114972-.1639l6.692272-4.19838-6.15787 3.55518c-.06023.0343-.13144.0438-.19854.0265-.067104-.0173-.124832-.0601-.160955-.1192-.036123-.0592-.047804-.1301-.032567-.1977s.056193-.1266.114194-.1645l8.340268-5.39361-7.56693 4.37011c-.06008.0342-.13108.0437-.19802.0265-.06695-.0172-.12461-.0596-.16085-.1185-.03623-.0588-.04821-.1294-.0334-.197.01481-.0675.05525-.1266.1128-.1648l6.79893-4.43205-5.82613 3.36214c-.06019.035-.13168.04507-.19919.02806-.06752-.017-.12571-.05974-.16213-.11908-.03643-.05934-.0482-.13056-.0328-.19847.01539-.0679.05673-.12709.11519-.16491l4.54346-2.96694-3.40213 1.96427c-.06035.03537-.13217.04561-.2.02851-.06782-.01709-.12622-.06015-.1626-.11989-.03637-.05975-.04782-.13139-.03187-.19949.01595-.06811.05801-.12722.11714-.1646l.99146-.6336c-.04652.00189-.09276-.00809-.13437-.02899s-.07722-.05203-.10349-.09047c-.03743-.05685-.05171-.12585-.03991-.19288s.04878-.12701.10337-.16766l2.7536-2.05333c-.05798-.00181-.11379-.02248-.15897-.05887-.04517-.03639-.07725-.08653-.09136-.14279-.01412-.05627-.00949-.11561.01316-.16901.02265-.05341.06211-.09797.11237-.12693l3.51574-2.02987c.05887-.03321.12807-.04287.19377-.027.0656.01586.1228.05605.16.11246s.0516.12482.0402.19143c-.0113.0666-.0475.12642-.1012.16738l-2.47677 1.84747 5.66027-3.267736c.0603-.035365.1322-.045604.2-.02851.0678.017093.1262.060152.1626.119894s.0478.131386.0319.199489c-.016.068104-.0581.127215-.1172.164593l-.4586.29333 1.5568-.898663c.0601-.035001.1316-.045074.1992-.028067.0675.017007.1257.059746.1621.119083s.0482.130567.0328.198468c-.0154.067902-.0568.12709-.1152.164916l-4.5381 2.963203 5.961-3.44107c.0602-.035.1317-.045073.1992-.028066s.1257.059745.1621.119082c.0365.059337.0482.130567.0328.198468-.0153.067902-.0567.12709-.1151.164916l-6.8043 4.4352 8.1867-4.7264c.0601-.033592.1309-.042621.1975-.025196s.1239.059952.1599.118677c.036.058726.0479.129094.0331.19637-.0147.067275-.0549.126241-.1121.164549l-8.3371 5.39147 9.5867-5.534936c.0604-.033854.1316-.042873.1986-.025149.0669.017725.1243.060802.1601.120117.0357.059315.047.130218.0314.197698s-.0568.12625-.1149.16387l-6.7024 4.20533 7.5157-4.3392c.0606-.03351.1319-.04213.1987-.02402.0669.01812.1241.06153.1595.12106s.0463.1305.0303.1979c-.016.06739-.0576.12592-.116.16319l-3.8037 2.3392 4.3333-2.50133c.0606-.03236.1313-.04012.1974-.02167s.1226.06169.1576.12072c.0351.05903.046.1293.0305.19619-.0154.06688-.0561.12523-.1135.16289l-1.032.62827 1.4038-.81067c.0609-.03599.1336-.04633.2021-.02873.0685.01761.1272.06171.1632.1226s.0463.13359.0287.20211c-.0176.06851-.0617.12723-.1226.16322l-.6933.4224 1.0251-.59253c.0301-.01782.0635-.02954.0982-.03447.0346-.00492.0699-.00298.1039.00574.0339.00872.0658.02403.0938.04507.028.02103.0516.04738.0694.07753s.0295.06352.0345.09819c.0049.03468.0029.06999-.0058.10391-.0087.03393-.024.0658-.045.09381-.0211.02801-.0474.0516-.0776.06942l-.5088.30827.8006-.46507c.0606-.03299.1317-.04116.1983-.0228.0665.01836.1234.06182.1585.12124.0352.05942.046.13017.03.19735-.0159.06719-.0573.12557-.1154.16288l-1.3018.78933 1.5909-.9184c.0605-.03281.1313-.04095.1977-.02273s.1231.0614.1584.1205.0463.12955.0308.19662c-.0154.06706-.0562.12554-.1138.16321l-7.5734 4.664 8.0336-4.6368c.0606-.03413.1321-.04325.1993-.02541s.1248.06122.1605.1209.0466.13093.0305.19858c-.0161.06764-.0579.12632-.1167.16353l-10.1776 6.32533 10.7067-6.18133c.0604-.03185.1308-.03929.1966-.02079.0657.01851.1219.06155.1568.12025.035.0587.0461.12857.031.19521-.015.06664-.0551.12496-.1119.16293l-7.56 4.63573 7.911-4.56746c.0604-.0333.1314-.04186.1981-.02388.0666.01798.1237.06111.1592.1203s.0467.12985.0311.19711c-.0155.06726-.0565.12588-.1143.16353l-11.9109 7.42985 12.3994-7.15785c.0606-.03351.1319-.04212.1988-.02401.0668.01811.124.06152.1594.12105s.0463.1305.0303.1979c-.016.06739-.0576.12592-.1159.1632l-8.192 5.01601 8.4634-4.88588c.0606-.03351.1319-.04213.1988-.02402.0668.01812.124.06153.1594.12106s.0463.1305.0303.1979c-.016.06739-.0576.12592-.1159.16319l-9.3462 5.74455 9.6176-5.55255c.0606-.03235.1313-.04012.1974-.02167s.1226.06169.1576.12072c.0351.05903.046.1293.0305.19619-.0154.06689-.0561.12523-.1135.1629l-6.1701 3.75201 6.3216-3.64908c.0606-.03351.1319-.04213.1987-.02401.0669.01811.1241.06152.1595.12105s.0463.1305.0303.1979c-.016.06739-.0576.12592-.116.16319l-8.601 5.26505 8.7754-5.06665c.0605-.0328.1314-.04095.1977-.02273.0664.01823.1232.0614.1584.12051.0353.0591.0464.12955.0309.19661s-.0563.12554-.1139.16321l-10.0267 6.16695 10.2-5.88481c.0605-.0333.1315-.04186.1981-.02388.0667.01798.1238.06111.1593.1203s.0466.12985.0311.19711-.0565.12588-.1143.16353l-11.5147 7.12695 11.6859-6.74668c.0606-.03299.1317-.04116.1983-.0228.0665.01836.1234.06182.1585.12124.0352.05942.046.13017.03.19735-.0159.06719-.0573.12557-.1154.16288l-4.7098 2.85391 4.7109-2.72005c.0608-.03386.1324-.04262.1995-.02441.0672.01821.1246.06194.1599.12187.0354.05992.0459.13129.0294.19888s-.0588.12601-.1179.16291l-4.2666 2.5824 4.2394-2.4448c.0605-.0319.1308-.0393.1966-.0208s.1219.0615.1569.1202c.0349.0587.046.1286.031.1952-.0151.0667-.0551.125-.1119.163l-9.7254 5.9845 9.7451-5.6261c.0606-.032.1311-.0394.197-.0207.0659.0186.1221.0619.157.1209.0348.059.0456.1291.0301.1958-.0154.0668-.056.125-.1132.1626l-3.5434 2.1446 3.4544-1.9947c.0608-.0362.1335-.0467.202-.0292.0686.0175.1274.0614.1636.1223.0361.0608.0466.1335.0291.202-.0174.0686-.0614.1274-.1222.1636l-6.6715 4.0714 6.5856-3.8005c.0606-.0335.1319-.0421.1988-.024.0668.0181.124.0615.1594.121.0354.0596.0463.1305.0303.1979s-.0576.1259-.1159.1632l-7.0795 4.3307 6.9611-4.0187c.0605-.0341.1321-.0432.1993-.0254.0672.0179.1247.0612.1604.1209s.0467.1309.0306.1986c-.0161.0676-.058.1263-.1167.1635l-9.2555 5.7179 9.1109-5.2597c.0607-.033.1318-.0412.1983-.0228.0666.0183.1234.0618.1586.1212s.0459.1302.03.1973c-.0159.0672-.0573.1256-.1154.1629l-1 .6043.7835-.4523c.03-.0179.0634-.0297.098-.0348.0347-.005.07-.0032.1039.0054.034.0086.0659.0238.094.0447.028.0209.0517.0472.0697.0773.0179.03.0297.0634.0348.098.005.0347.0032.07-.0054.1039-.0086.034-.0238.0659-.0447.094-.0209.028-.0472.0517-.0773.0697l-7.4378 4.5845 7.2053-4.16c.0606-.0341.1321-.0433.1993-.0254.0672.0178.1248.0612.1605.1209.0356.0597.0466.1309.0305.1986-.0161.0676-.058.1263-.1167.1635l-7.1365 4.4021 6.8533-3.9568c.0606-.0341.1321-.0432.1993-.0254.0672.0179.1248.0612.1605.1209.0356.0597.0466.1309.0305.1986-.0161.0676-.058.1263-.1167.1635l-6.552 4.048 6.2112-3.5856c.0606-.0341.1321-.0432.1993-.0254.0672.0179.1248.0612.1605.1209.0356.0597.0466.1309.0305.1986-.0161.0676-.058.1263-.1167.1635l-5.1733 3.1883 4.7818-2.76c.0606-.0324.1313-.0401.1974-.0217.0661.0185.1226.0617.1576.1207.0351.0591.046.1293.0305.1962-.0154.0669-.0561.1253-.1135.1629l-2.4688 1.512 2.0502-1.1834c.0604-.0369.1329-.0482.2017-.0316.0687.0167.1281.06.1649.1204.0369.0604.0482.1329.0316.2017-.0167.0687-.06.1281-.1204.1649l-8.9152 5.7238 8.2699-4.7744c.0601-.0336.1309-.0427.1975-.0252.0667.0174.124.0599.1599.1186.036.0588.0479.1291.0332.1964-.0148.0673-.055.1262-.1122.1646l-7.8859 5.1173 7.0427-4.0661c.0602-.035.1317-.0451.1992-.0281s.1257.0597.1621.1191c.0364.0593.0482.1305.0328.1984s-.0567.1271-.1152.165l-5.8938 3.8352 4.8757-2.8144c.0598-.0341.1304-.0438.1972-.0269.0667.0168.1244.0587.1609.1171.0365.0583.049.1285.035.1959-.0141.0674-.0536.1267-.1104.1656l-5.1851 3.5136 3.6651-2.1163c.0586-.0332.1276-.0429.1931-.0273.0656.0156.1228.0555.1601.1116.0374.056.0521.1241.0413.1906s-.0464.1265-.0996.1678l-3.0299 2.3072c.0625-.0183.1296-.0131.1885.0146.059.0278.1057.0762.1315.136.0257.0599.0286.1271.0082.1889-.0204.0619-.0628.1141-.1191.1469l-3.5157 2.0309c-.0587.0332-.1277.043-.1932.0273-.0655-.0156-.1227-.0554-.1601-.1115-.0373-.0561-.0521-.1242-.0413-.1907s.0464-.1264.0996-.1677l2.9824-2.2726-6.464 3.7334c-.0598.034-.1304.0437-.1972.0269-.0667-.0169-.1244-.0588-.1609-.1172-.0365-.0583-.049-.1285-.035-.1959.0141-.0674.0537-.1267.1105-.1656l5.1856-3.5157-7.1195 4.112c-.0408.0233-.0869.0354-.1339.0352z" fill="#f2d86f"/><path d="m9.1462 17.8197c-.05531-.0002-.10921-.0175-.15422-.0496-.04501-.0322-.07892-.0775-.09703-.1298-.0181-.0522-.01951-.1088-.00402-.1619s.0471-.1001.09047-.1344l1.2512-.9878-1.9856 1.1462c-.0592.0327-.12862.0417-.1942.0251-.06558-.0165-.12243-.0573-.15903-.1142-.03661-.0569-.05023-.1255-.03812-.1921.01211-.0665.04905-.126.10335-.1663l.608-.4331-.93547.5403c-.0591.0336-.12882.0434-.19488.0273-.06607-.0161-.12351-.0568-.16056-.1138s-.05093-.126-.03879-.1929.04937-.1266.1041-.167l1.51146-1.0949-1.8048 1.0416c-.05832.0334-.12711.0435-.1926.0284s-.12285-.0544-.1606-.1101c-.03775-.0556-.05311-.1234-.043-.1898.01012-.0665.04495-.1267.09754-.1685l2.88533-2.2699-3.2 1.8485c-.05913.0345-.12927.045-.19588.0292-.06662-.0158-.12461-.0566-.16196-.114-.03736-.0574-.05122-.1269-.03871-.1942.0125-.0673.05041-.1272.10588-.1674l1.88854-1.3765-1.88267 1.0864c-.05861.0325-.12732.0418-.19245.026-.06514-.0159-.12192-.0557-.15904-.1115s-.05186-.1235-.04128-.1897.0457-.126.09837-.1675l2.15627-1.6442-1.99147 1.1493c-.05878.0337-.12817.0437-.19408.0281-.06592-.0156-.12342-.0558-.16082-.1122-.0374-.0565-.05191-.1251-.04058-.1919.01134-.0668.04767-.1268.10161-.1677l1.29174-.9739-.89334.5157c-.05576.0318-.12112.0424-.18407.0299s-.11928-.0473-.15864-.098c-.03935-.0507-.0591-.1139-.05562-.178.00349-.0641.02998-.1248.0746-.1709l1.30027-1.327-.01067.0059c-.03035.0193-.06429.0322-.09978.0381-.03549.0058-.07179.0044-.10672-.0041-.03494-.0086-.06778-.0241-.09655-.0457s-.05288-.0488-.07088-.0799-.02952-.0656-.03385-.1013c-.00434-.0357-.00141-.0719.00861-.1064.01002-.0346.02693-.0667.0497-.0946.02277-.0278.05093-.0508.0828-.0674l1.69867-.9808c.05576-.0318.12112-.0424.18407-.0299.06296.0125.11928.0473.15864.098s.0591.1139.05562.178c-.00349.0641-.02997.1248-.0746.1709l-1.30293 1.3248 2.97387-1.7168c.0587-.0329.1278-.0425.1933-.0266s.1225.0559.1597.1121c.0371.0562.0516.1244.0406.1909-.0111.0664-.0469.1262-.1003.1674l-1.2901.9728 1.8304-1.0566c.0586-.0331.1276-.0429.1932-.0273.0655.0156.1227.0555.16.1116.0374.056.0521.1241.0413.1906s-.0464.1265-.0996.1678l-2.15944 1.6469 2.61334-1.5088c.0591-.0345.1293-.0449.1959-.0291s.1246.0566.1619.114c.0374.0573.0513.1269.0387.1942-.0125.0673-.0504.1272-.1058.1673l-1.888 1.376 2.0901-1.2058c.0583-.0335.1271-.0436.1926-.0285.0655.0152.1228.0545.1606.1101s.0531.1234.043.1899c-.0101.0664-.045.1266-.0975.1685l-2.8832 2.2682 3.0245-1.7466c.0591-.0329.1284-.0421.194-.0258s.1226.0569.1594.1137c.0368.0567.0506.1252.0388.1918-.0118.0665-.0485.1261-.1026.1667l-1.5125 1.0981 1.3594-.7851c.0593-.0338.1294-.0436.1957-.0273.0663.0162.1239.0573.1608.1148.0369.0574.0504.1268.0376.1939-.0127.0671-.0507.1267-.1061.1666l-.6037.4304.3045-.176c.0583-.0328.1268-.0425.1919-.0271.0651.0153.1221.0546.1596.11.0376.0553.0529.1228.043.189-.0099.0661-.0443.1261-.0963.1681l-1.2523.9883.6821-.3936c.0575-.033.1252-.0435.1899-.0293s.1219.0519.1603.1059.0553.1204.0475.1862c-.0079.0658-.0399.1263-.0899.1697l-.8304.719c.0432.0214.0797.0542.1058.0948.026.0406.0405.0876.042.1358s-.0101.0959-.0336.1381c-.0235.0421-.058.077-.0998.1011l-1.6976.9808c-.0575.033-.1252.0435-.1899.0293s-.1219-.0519-.1603-.1059-.0553-.1203-.0475-.1861c.0079-.0658.0399-.1264.0899-.1698l.3568-.3088-1.44957.8379c-.04045.0236-.08649.0359-.13333.0357z" fill="#fff"/><path d="m22.3465 17.8489c-.055.0001-.1087-.0169-.1537-.0486s-.0791-.0765-.0976-.1283-.0206-.1081-.0058-.1611c.0147-.053.0455-.1002.0881-.135l1.1904-.976-2.079 1.2005c-.0582.033-.1266.043-.1918.0279s-.1223-.0542-.1601-.1094c-.0377-.0553-.0533-.1227-.0436-.1889.0096-.0662.0438-.1264.0958-.1685l2.1627-1.727-2.8411 1.6406c-.0591.0341-.1289.0443-.1953.0284-.0663-.0158-.1241-.0564-.1614-.1135s-.0513-.1263-.0391-.1934c.0122-.0672.0496-.127.1046-.1674l1.7824-1.3061-2.08 1.201c-.0593.0339-.1294.0437-.1957.0274s-.1238-.0574-.1608-.1148c-.0369-.0574-.0504-.1268-.0376-.1939.0127-.0671.0507-.1268.1061-.1667l1.3867-.9845-1.5019.8672c-.0587.0334-.1279.0433-.1936.0277-.0657-.0157-.1231-.0556-.1605-.1119-.0373-.0563-.052-.1246-.0409-.1913.0111-.0666.047-.1265.1006-.1677l2.4453-1.848-2.5066 1.448c-.0583.0337-.127.0441-.1926.0292s-.1231-.054-.1611-.1095c-.0379-.0555-.0535-.1233-.0436-.1898s.0445-.1268.097-.1688l2.5989-2.08-2.4389 1.408c-.0579.0334-.1262.0438-.1914.0292-.0653-.0145-.1226-.0531-.1608-.1079-.0382-.0549-.0543-.1221-.0453-.1883s.0426-.1266.094-.1693l1.8976-1.5792-1.3536.7813c-.0567.0305-.1225.0394-.1853.0251-.0627-.0143-.1182-.0508-.1562-.1028-.0379-.052-.0558-.116-.0503-.1801.0056-.0641.0341-.1241.0804-.1688l.9269-.831c-.0494-.0155-.0932-.0451-.1261-.0851-.0328-.04-.0533-.0887-.059-.1401-.0056-.0515.0038-.1035.0272-.1497.0234-.0461.0597-.0845.1046-.1104l1.6986-.9808c.0567-.0304.1225-.0393.1853-.025.0628.0142.1182.0508.1562.1027.0379.052.0558.116.0503.1801s-.034.1241-.0803.1689l-.6224.5552 1.8389-1.06137c.0579-.0334.1262-.04384.1914-.02927.0653.01458.1226.05311.1608.10794.0382.0549.0543.1221.0453.1883s-.0426.1266-.094.1693l-1.8971 1.5787 2.7856-1.6086c.0582-.0336.127-.0441.1926-.0292.0655.0149.1231.054.161.1095.038.0555.0536.1233.0437.1898s-.0445.1268-.097.1689l-2.6 2.08 3.1904-1.8416c.0587-.0335.1279-.0433.1936-.0277s.1231.0556.1604.1119c.0374.0562.052.1246.041.1912-.0111.0667-.0471.1266-.1006.1678l-2.4437 1.8469 2.7002-1.5589c.0594-.0343.1297-.0443.1963-.0281s.1244.0575.1614.1152.0504.1275.0373.1948-.0516.1269-.1075.1666l-1.3867.9851 1.3899-.8c.059-.0342.1289-.0443.1953-.0285.0663.0158.1241.0564.1614.1135.0372.0572.0512.1264.0391.1935-.0122.0671-.0496.127-.1046.1673l-1.7851 1.304 1.6736-.9658c.0582-.0325.1264-.042.1912-.0267s.1216.0543.1591.1093c.0375.0551.0531.1221.0436.1881-.0094.0659-.0432.1259-.0947.1682l-2.16 1.7253 1.8272-1.0554c.058-.0336.1264-.0441.1918-.0295s.1228.0532.161.1083c.0382.055.0542.1224.045.1887s-.0431.1267-.0948.1693l-1.1899.9765.4752-.2747c.0303-.0193.0643-.0322.0998-.0381.0355-.0058.0718-.0044.1067.0042.0349.0085.0678.0241.0965.0456.0288.0216.0529.0488.0709.0799.018.0312.0295.0656.0339.1013.0043.0357.0014.0719-.0086.1065-.0101.0345-.027.0667-.0497.0945-.0228.0278-.051.0508-.0828.0675l-3.2976 1.905c-.0406.0234-.0866.0356-.1334.0352z" fill="#fff"/><path d="m9.54663 15.7136c-.05312-.0001-.10499-.016-.14897-.0458-.04399-.0298-.07808-.072-.0979-.1213-.01983-.0493-.02448-.1033-.01338-.1553.01111-.0519.03747-.0994.07571-.1362l.06614-.0646-.4832.2795c-.05545.0325-.12076.0438-.18392.032-.06315-.0119-.1199-.0461-.15982-.0965-.03991-.0503-.06029-.1134-.0574-.1776s.02886-.1252.07314-.1718l.86613-.9189-1.1632.6704c-.05609.0315-.12169.0417-.1847.0287-.06302-.013-.11919-.0484-.15818-.0996-.03898-.0512-.05813-.1147-.05393-.179.00421-.0642.03149-.1247.07681-.1704l.66133-.6528-.5072.2928c-.05532.0317-.12018.0425-.1828.0305s-.11886-.046-.15852-.096c-.03967-.0499-.06014-.1124-.05769-.1761.00244-.0637.02764-.1244.07101-.1712l.40854-.4384c-.04721-.0177-.08842-.0485-.11886-.0887-.03043-.0402-.04884-.0882-.05308-.1385-.00424-.0502.00585-.1006.02911-.1454.02326-.0447.05873-.082.10229-.1074l1.09334-.6314c.05533-.0317.12018-.0425.1828-.0305s.11886.046.15853.096c.03966.0499.06013.1124.05768.1761-.00244.0637-.02764.1244-.07101.1712l-.18294.1968.76321-.4406c.0561-.0315.1217-.0417.1847-.0287.063.0131.1192.0484.1582.0996s.0581.1148.0539.179-.0315.1247-.0768.1704l-.66134.6517.93284-.5381c.0554-.0321.1205-.0431.1835-.0311.0629.012.1194.0462.1591.0965.0398.0502.0601.113.0573.177s-.0285.1249-.0725.1715l-.8661.9189.8-.4624c.0564-.034.1234-.0459.1881-.0334.0646.0125.1224.0484.1621.101.0397.0525.0586.1178.053.1834-.0055.0657-.0352.1269-.0832.1719l-.3024.2918c.0507.0138.0963.0424.1308.082.0346.0397.0566.0887.0634.1408.0068.0522-.002.1052-.0253.1524-.0232.0472-.0599.0864-.1054.1128l-1.45124.8394c-.04027.0224-.08566.034-.13173.0336z" fill="#2f2f9b"/><path d="m21.9805 15.6616c-.0526 0-.1041-.0156-.1479-.0448s-.0779-.0707-.0982-.1193c-.0202-.0485-.0257-.102-.0155-.1537.0101-.0517.0352-.0992.0723-.1366l.5333-.5333-.9211.5333c-.0547.0318-.1188.0431-.1811.0319-.0622-.0113-.1184-.0442-.1586-.0931-.0402-.0488-.0617-.1103-.0607-.1735.0009-.0633.0244-.1241.066-.1717l1.0203-1.1674-1.1291.6464c-.0537.0309-.1165.0421-.1776.0318-.0611-.0104-.1166-.0417-.1572-.0886-.0405-.0469-.0634-.1064-.0648-.1684-.0014-.0619.0189-.1224.0572-.1711l.5504-.6933c-.0614.0096-.1242-.0026-.1776-.0344s-.094-.0812-.1148-.1398c-.0209-.0586-.0205-.1226.0008-.1809.0214-.0584.0625-.1075.1162-.1388l1.0933-.6315c.0537-.0309.1165-.0421.1776-.0318.0611.0104.1167.0417.1572.0886s.0635.1064.0648.1684c.0014.062-.0188.1225-.0572.1711l-.52.6597 1.3024-.7514c.0546-.0311.1185-.0419.1803-.0305s.1176.0443.1575.0929c.0399.0485.0614.1096.0607.1724-.0007.0629-.0236.1234-.0646.171l-1.0203 1.168 1.2672-.7312c.0559-.0303.1208-.0397.183-.0264.0622.0132.1176.0483.1562.0988s.0579.1132.0544.1767-.0296.1237-.0736.1696l-.5333.5333.2165-.1253c.0612-.0348.1337-.044.2017-.0255.0679.0184.1258.063.161.124.0353.061.0449.1334.0269.2015s-.0622.1263-.1229.1619l-1.9478 1.1269c-.0405.0231-.0866.0349-.1333.0341z" fill="#2f2f9b"/><g fill="#262626"><path d="m21.4207 1.18431c-25.95999-7.03947-29.19092 33.48689-2.3269 30.22669 15.4058-2.8048 17.2085-25.14989 2.3269-30.22669zm9.6565 14.85279c-2.0101 25.8016-39.32849 15.1333-28.05062-7.83679 7.50452-13.18133 28.29382-7.18347 28.05062 7.83679z"/><path d="m10.3632 12.1568c-3.14666-.8918-3.83359 4.0533-.38879 3.4506 1.79569-.2581 2.23249-2.9125.38879-3.4506zm.1856 2.6384c-.1312.1936-.3168.3441-.5333.4325.0485-.0165-.08429.0229-.07202.0197l-.02347.0075c-1.54667.2133-2.1408-2.2875-.66187-2.7653 1.16906-.2075 2.00156 1.3786 1.29066 2.3056z"/><path d="m13.7214 13.8229c-.3285-6.67736-10.82663-3.7798-7.6853 2.1125 1.97067 3.4016 7.7248 1.8187 7.6853-2.1125zm-2.9376 3.36c-5.28316 1.7066-6.17703-7.68002-.6026-6.7419 3.2501.6293 3.7509 5.5893.6026 6.7429z"/><path d="m23.1556 12.0923c-3.1242-1.0667-3.7658 4.201-.3962 3.6266 1.8538-.2698 2.2357-3.0192.3962-3.6266zm.2256 2.5797c-1.3488 1.7563-3.3274-1.4075-1.3392-2.0699 1.1152-.3221 2.0022 1.1638 1.3392 2.0699z"/><path d="m23.8787 10.1213c-6.5413-1.98614-7.7104 8.6277-.7568 7.6395 3.9317-.5755 4.6251-6.392.7568-7.6395zm-.2981 7.0528c-5.2838 1.7125-6.167-7.65654-.5974-6.72 3.2491.6192 3.7467 5.5717.5974 6.72z"/><path d="m6.78319 8.22039c1.89973-.168 4.07201.34294 5.84371-.21066.3334-.4352-7.42931-.41974-5.84371.21066z"/><path d="m19.4814 8.14934c1.6934-.2528 4.8251.50667 5.839-.29813-1.6928.25227-4.8251-.5072-5.839.29813z"/><path d="m20.3044 22.1271c-.9307.2352-10.1936-.5914-8.6075.5462.9312-.2352 10.1941.5914 8.6075-.5462z"/></g></g></svg>