<svg fill="none" height="32" viewBox="0 0 32 32" width="32" xmlns="http://www.w3.org/2000/svg" xmlns:xlink="http://www.w3.org/1999/xlink"><clipPath id="a"><path d="m0 0h32v32h-32z"/></clipPath><g clip-path="url(#a)"><g fill="#a3d34f"><path d="m16.5723 13.3346c-.0875 0-.1733-.0432-.224-.1222-.0773-.12-.0469-.2784.0683-.3616l3.6602-2.6298-5.1573 2.977c-.1253.0731-.2848.0326-.3611-.0912-.0757-.1232-.0389-.2842.0822-.3632l1.696-1.1024-2.3179 1.3382c-.1243.073-.2827.0325-.3595-.0891-.0762-.1221-.0421-.2821.0768-.3627l5.1718-3.49544-6.0315 3.48214c-.1275.0736-.2912.0299-.3643-.0976-.0741-.1275-.0304-.2907.0976-.3643l12.5643-7.25438c.1248-.072.2827-.032.3595.08907.0762.12213.0421.28213-.0768.36267l-5.1744 3.49706 4.5344-2.6176c.1253-.07253.2848-.032.3605.0912.0763.1232.0395.28427-.0816.3632l-1.6981 1.10347 1.0528-.60747c.1221-.07253.28-.03306.3573.08587.0773.12.0469.2784-.0683.3616l-3.6613 2.63041 2.4533-1.41548c.1211-.07093.2763-.03413.3547.0816.0779.11627.0533.27307-.0571.35947l-1.905 1.48481c.072.0149.1376.0592.177.128.0742.1275.0304.2907-.0976.3643l-2.7578 1.592c-.1211.0709-.2763.0341-.3547-.0816-.0779-.1163-.0533-.2731.0571-.3595l1.5221-1.1867-3.7648 2.1728c-.0416.0246-.088.0358-.1333.0358z"/><path d="m9.77653 14.9314c-.0832 0-.16587-.0395-.21707-.112-.07946-.112-.06133-.2667.04267-.3563l.67257-.5813-1.00217.5781c-.12533.0731-.2848.0326-.36053-.0912-.07574-.1237-.03947-.2837.08106-.3632l8.11734-5.2901-8.424 4.8629c-.12534.072-.28427.0331-.36054-.0906-.07573-.1222-.04-.2832.08-.3627l4.77224-3.14933-3.79357 2.18983c-.12587.0731-.28427.0326-.36107-.0917-.07573-.1232-.0384-.2843.08267-.3632l1.14877-.744-.0453.0261c-.1216.0715-.2784.0342-.35574-.0837-.07786-.1179-.05066-.2757.06187-.36l2.49387-1.87413c-.0843-.00694-.1643-.05387-.2096-.13227-.0741-.12747-.0304-.29067.0976-.36427l3.3504-1.9344c.1211-.072.2779-.03466.3557.08374.0779.11786.0507.27573-.0618.36l-2.1803 1.6384 5.3088-3.06507c.1259-.07307.2848-.03253.3611.09173.0757.1232.0384.28427-.0827.3632l-1.1456.74187 2.4421-1.41013c.1243-.0736.2838-.03307.3606.09066.0757.12214.04.2832-.08.36267l-4.7755 3.15147 9.24-5.3344c.1253-.07307.2853-.03254.3605.0912.0758.1232.0395.28373-.081.3632l-12.8486 8.37383c.0416.103.0144.2251-.073.3003l-.9888.8549c.065.0176.1237.0603.1605.1238.0741.1274.0304.2906-.0976.3642l-1.91307 1.1046c-.0416.0245-.08747.0357-.13333.0357z"/><path d="m13.216 6.05193c-.0917 0-.1819-.048-.2309-.13334-.0742-.12746-.0304-.29066.0976-.36426l8.289-4.786134c.1222-.070934.2784-.033067.3563.084266.0779.118934.0496.276798-.0645.361068l-1.5376 1.136 2.3344-1.3472c.1226-.072534.281-.033068.3578.08693.0774.12.0459.27894-.0704.3616l-.2912.20587.8235-.4752c.12-.07093.2763-.03467.3541.08107.0784.11626.0544.27306-.056.35946l-1.3184 1.03574 2.1579-1.24534c.1211-.07093.2773-.03413.3552.08267s.0523.27413-.0597.35947l-.952.7296 1.6821-.97067c.1189-.06933.272-.0352.3509.0768.0795.11253.0603.26667-.0442.3568l-1.6534 1.41813 1.3366-.7712c.1264-.07466.2912-.0304.3642.0976.0742.12747.0304.29067-.0976.36427l-3.8192 2.20533c-.1184.06934-.2714.03574-.3509-.0768-.0795-.11253-.0603-.26666.0443-.3568l1.6538-1.41866-2.7413 1.5824c-.1211.07093-.2773.03413-.3552-.08267s-.0523-.27413.0597-.35947l.9526-.73013-1.8512 1.06827c-.1211.0704-.2763.03413-.3542-.08107-.0784-.11627-.0544-.27307.056-.35947l1.3179-1.0352-2.5915 1.496c-.1221.07254-.281.03307-.3578-.08693-.0774-.12-.0459-.27893.0704-.3616l.289-.2048-1.4197.81973c-.1211.072-.2779.03414-.3563-.08426-.0778-.11894-.0496-.2768.0646-.36107l1.5376-1.136-4.199 2.424c-.0421.02453-.088.03573-.1333.03573z"/><path d="m8.90554 8.00444c-.08907 0-.176-.0448-.22667-.12533-.07626-.12213-.04106-.28267.07787-.36267l3.94716-2.6464-3.57116 2.06187c-.1248.07253-.28427.032-.36053-.09067-.07574-.12213-.04-.2832.08-.36266l1.83149-1.20854-1.36643.7888c-.1216.07147-.27733.0336-.35573-.0832-.07787-.11733-.0512-.2752.06133-.36l3.38183-2.5648-2.3978 1.38454c-.12109.07093-.27683.03413-.35523-.08214-.07786-.11733-.05226-.27466.0592-.36l1.32003-1.01386c-.047-.0224-.088-.05867-.1158-.1072-.0741-.12747-.0304-.29067.0976-.36427l2.5515-1.47307c.1211-.07093.2768-.03466.3552.08214.0779.11733.0523.27466-.0592.36l-.6192.47573 2.5824-1.490133c.1205-.071467.2773-.034133.3557.0832.0779.117333.0512.2752-.0613.36l-3.3803 2.563203 5.44-3.14027c.1248-.073066.2838-.032.3606.090667.0757.122133.04.2832-.08.362666l-1.831 1.207997 2.712-1.565863c.1248-.073067.2832-.032533.36.0896.0763.122133.0411.282667-.0778.362667l-3.9494 2.647466 5.0086-2.8912c.1269-.074666.2906-.030933.3642.0976.0742.127467.0304.29067-.0976.36427l-11.90716 6.87466c-.04213.02454-.088.03574-.13333.03574z"/></g><g fill="#fcc1a7"><path d="m5.12536 29.5998c-.08854 0-.1744-.0443-.2256-.1238-.07627-.121-.04374-.2805.07413-.3621l3.0608-2.12-3.08747 1.7824c-.12533.072-.28373.0325-.36-.0901-.07626-.1227-.04106-.2827.0784-.3627l1.4448-.9632-1.384.7989c-.12586.0736-.28426.032-.36053-.0906-.07573-.1227-.04-.2832.08-.3632l.64907-.4272-.69014.3984c-.12426.0725-.28106.033-.35893-.088-.0768-.1211-.04373-.2806.07413-.3622l2.73174-1.8885-2.8928 1.6699c-.1248.072-.28427.032-.36053-.0907-.07574-.1227-.04001-.2832.07999-.3632l.6864-.4523-.72906.4208c-.1216.072-.2784.0336-.35627-.0842-.07786-.1179-.0496-.2768.064-.3606l3.63787-2.6976-3.92907 2.2683c-.12213.0715-.28.0331-.35733-.0859-.07734-.1189-.04747-.2778.06827-.361l2.10559-1.519-2.2576 1.3035c-.1216.072-.27893.0341-.35679-.0853-.07787-.119-.04854-.2774.06613-.3611l1.87146-1.3653-2.01333 1.1626c-.12426.0726-.28213.0331-.35893-.088-.0768-.1216-.04373-.281.07413-.3626l.512-.3526-.5504.3179c-.12106.072-.27893.0336-.3568-.0848-.07733-.1189-.04853-.2773.0656-.3611l1.9952-1.4624-2.1488 1.2406c-.12266.0714-.28053.033-.35786-.0864-.076805-.12-.0464-.2784.06986-.3616l1.49707-1.0667-1.57173.9072c-.121605.072-.278405.0341-.356805-.0848-.077333-.1184-.048533-.2768.065067-.3605l2.137598-1.5734-2.124798 1.2267c-.121067.0709-.276267.0341-.354134-.0811-.0784-.1162-.053866-.273.056-.3594l2.752532-2.1574-2.541332 1.4672c-.122133.0715-.28.0331-.3568-.0853-.077866-.1189-.048-.2779.066667-.3611l1.035735-.753-.745602.4304c-.119466.0704-.2736.0346-.352533-.0784-.0784-.1142-.057067-.2694.0496-.3579l1.067735-.8805-.764802.441c-.1168.0694-.269333.0368-.349333-.0752-.08-.1109-.062933-.2645.038933-.3552l1.445332-1.2805-1.134932.6555c-.117333.0698-.269866.0368-.349866-.0758-.08-.1114-.061867-.2656.041066-.3557l1.263472-1.1061-.954672.5509c-.12.0704-.274133.0352-.353066-.0795-.0784-.1152-.056-.2709.052266-.3584l.565867-.4565-.264533.1525c-.115734.0688-.267734.0368-.348267-.0736-.080533-.1093-.065067-.2624.0352-.3541l1.300805-1.1888-.988272.5701c-.1184.0699-.270933.0363-.351466-.0773-.078934-.1131-.0592-.2677.045866-.3568l.771202-.6555-.465602.2688c-.117333.0694-.269866.0368-.349866-.0757-.08-.1115-.061867-.2656.041066-.3557l.878402-.7691-.569602.3285c-.115733.0672-.263466.0379-.344533-.0688-.0816-.1061-.072-.256.023467-.3509l1.351468-1.3467-1.030402.5947c-.114133.0667-.260266.0389-.342933-.0661-.082133-.104-.0752-.2528.016-.3483l1.146135-1.2021-.819735.4736c-.107733.0629-.245867.041-.330667-.0512-.084266-.0928-.0928-.232-.019733-.3344l.610667-.8587c-.119467.0496-.265067.0048-.333334-.11306-.074133-.12747-.0304-.29067.0976-.36427l1.026132-.59253c.10827-.06347.24587-.04107.33067.0512.08427.0928.0928.232.01973.3344l-.608.85546 1.368-.78986c.1136-.06667.26027-.03894.34294.06613.08213.104.07519.2528-.01601.34827l-1.14719 1.20316 1.18986-.6869c.11467-.0677.26347-.0384.34454.0688.0816.1061.07199.256-.02347.3509l-1.35093 1.3456 1.15893-.6688c.11786-.0682.2704-.0362.34987.0758.07999.1114.06186.2656-.04107.3557l-.8784.7691.66613-.3846c.11787-.0693.27093-.0368.35147.0774.07893.113.0592.2677-.04587.3568l-.77226.6554.55733-.3216c.1168-.0682.26826-.0362.34827.0736.08053.1094.06506.2624-.03521.3542l-1.30026 1.1882 1.10293-.6368c.12-.0704.27413-.0352.35307.0795.0784.1152.056.2709-.05227.3584l-.568.4587.34933-.2016c.11787-.0688.2704-.0363.34987.0757.08.1115.06187.2656-.04107.3557l-1.26293 1.1056 1.06293-.6133c.11787-.0683.26934-.0363.34934.0752.08.1109.06293.2645-.03894.3552l-1.44479 1.2795 1.25119-.7222c.11894-.0704.27361-.0346.35254.0784.0784.1142.05707.2694-.0496.3579l-1.0688.8816 2.36586-1.3659c.12214-.072.28001-.033.3568.0854.07787.1189.048.2778-.06666.361l-1.0352.7531 1.41813-.8187c.12053-.0709.27627-.0336.35413.0811.0784.1163.05387.2731-.056.3595l-2.752 2.1568 3.0128-1.7398c.12214-.0709.27894-.0336.3568.0848.07734.1184.04854.2768-.06506.3606l-2.13867 1.5744 2.24853-1.2982c.1216-.072.28-.0336.35787.0864.0768.12.0464.2784-.06987.3616l-1.49813 1.0672 1.55413-.897c.12214-.0715.27947-.0331.3568.0848.07734.1189.04854.2773-.0656.361l-1.9936 1.4608 2.09174-1.2074c.12533-.0715.28266-.0326.35893.088.0768.1216.04373.281-.07413.3626l-.512.3526.56053-.3232c.12213-.0715.27947-.0336.3568.0853.07787.1189.04853.2773-.06613.3611l-1.872 1.3653 2.49973-1.4427c.12213-.072.27894-.0336.35733.0859.07734.1195.04747.2779-.06826.3611l-2.10774 1.52 3.39738-1.9611c.1221-.0709.2784-.0331.3562.0843.0779.1184.0496.2768-.064.3605l-3.63678 2.6971 4.51308-2.6059c.1243-.0731.2837-.0325.3605.0907.0758.1226.04.2832-.08.3632l-.688.4533.7563-.4363c.1248-.072.2816-.0325.3589.088.0768.1211.0438.2806-.0741.3622l-2.73068 1.888 2.89228-1.6699c.1259-.0731.2837-.032.3605.0907.0758.1226.04.2832-.08.3632l-.6528.4293.6944-.4005c.1243-.0736.2832-.0331.36.0901.0763.1221.0411.2827-.0784.3627l-1.4448.9632 1.5222-.8784c.1253-.0715.2816-.0326.3589.088.0763.121.0437.2805-.0741.3621l-3.0598 2.1189 3.0832-1.7797c.1248-.0725.2832-.0325.3595.0891s.0427.2816-.0763.3621l-1.3941.9477 1.1291-.6517c.1242-.072.2805-.0331.3584.0875.0768.1205.0448.2794-.072.3616l-1.1552.8112.8709-.5024c.12-.0715.2757-.0347.3536.0805.0784.1157.0549.272-.0549.3589l-1.6038 1.2742 1.3083-.7552c.1152-.0667.2624-.0384.3445.0677.0816.1056.0726.2555-.0213.3504l-1.1328 1.1483.8133-.4699c.1094-.0635.248-.0416.3323.0533.0837.0939.0907.2336.0155.336l-.3179.432c.1205-.0517.2683-.008.3365.1115.0742.1275.0304.2907-.0976.3643l-1.0736.6197c-.1088.0645-.248.0416-.3322-.0533-.0838-.0939-.0907-.2336-.0155-.336l.3152-.4283-1.4203.8197c-.1141.0678-.2618.0384-.3445-.0677-.0816-.1056-.0725-.2555.0213-.3504l1.1334-1.1488-2.72058 1.5701c-.12106.0704-.27573.0342-.3536-.0805-.0784-.1157-.05493-.272.05494-.3589l1.60164-1.272-2.97018 1.7146c-.12266.072-.28106.0331-.3584-.0874-.0768-.1206-.0448-.2795.072-.3616l1.16-.8144-2.192 1.2656c-.12426.073-.28266.033-.35946-.0891-.07627-.1216-.04267-.2816.07626-.3621l1.3888-.9446-2.42186 1.3979c-.0416.0245-.088.0357-.13334.0357z"/><path d="m18.3386 29.5994c-.0906 0-.1786-.0464-.2288-.1291-.0752-.1248-.0357-.2864.0875-.3637l.2336-.1462-.1483.0854c-.1248.073-.2837.032-.3605-.0907-.0757-.1227-.04-.2837.0805-.3632l5.5675-3.6571-5.288 3.0528c-.1253.0726-.2837.0326-.36-.0901s-.0411-.2827.0784-.3627l6.3952-4.2618-6.1141 3.5296c-.1254.0725-.2838.0325-.36-.0902-.0763-.1221-.0411-.2821.0778-.3626l6.5446-4.3739-6.2624 3.6155c-.1259.0741-.2854.032-.3616-.0923-.0752-.1237-.0374-.2853.0842-.3632l3.3078-2.1136-3.031 1.7493c-.121.0704-.2762.0336-.3541-.081-.0784-.1163-.0539-.2731.056-.3595l1.8128-1.4203-1.0309.5947c-.1142.0667-.2614.0389-.3435-.0661-.0816-.1046-.0747-.2539.0176-.3494l1.2939-1.3466c-.055-.0214-.1024-.0603-.1339-.1152-.0741-.1275-.0304-.2907.0976-.3643l1.1483-.6629c.1141-.0667.2613-.039.3434.0661.0816.1045.0747.2539-.0176.3493l-1.0448 1.088 2.6731-1.5434c.1211-.071.2763-.0342.3541.081.0784.1163.0539.2731-.056.3595l-1.8117 1.4197 10.0304-5.7909c.1269-.0731.2859-.0315.3616.0923.0752.1237.0373.2853-.0843.3632l-3.3077 2.1136 3.0309-1.7494c.1243-.073.2832-.033.36.0902.0763.1221.0411.2821-.0778.3626l-6.5467 4.376 6.2651-3.617c.1242-.0731.2832-.0331.36.0901.0762.1221.041.2827-.0784.3627l-6.392 4.2597 6.1109-3.528c.1253-.0731.2837-.0315.3605.0907.0758.1226.04.2837-.0805.3632l-5.5728 3.6608 5.2757-3.0454c.1264-.0741.2864-.0314.3622.0934.0752.1248.0357.2864-.0875.3637l-.3728.2336c.1141-.0368.2416.0064.3077.1115.0768.1216.0432.281-.0746.3621l-5.2246 3.5835 3.9344-2.2715c.1243-.0736.2832-.0325.36.0901.0763.1222.0411.2832-.0789.3632l-1.4987.9947.4118-.2373c.121-.072.2773-.0336.3552.0826.0778.1174.0517.2747-.0603.36l-2.5776 1.9664 1.1013-.6357c.1179-.0688.2704-.0363.3499.0757.08.1115.0619.2656-.0411.3563l-1.1786 1.0299c.0666-.0032.1381.0245.1904.0746.0853.0822.1061.2112.0512.3168l-.2736.5179c.0693.016.1322.0597.1706.1264.0736.1275.0299.2907-.0981.3648l-.544.3136c-.1029.0587-.2325.0437-.3184-.0389-.0853-.0822-.1061-.2112-.0512-.3168l.2101-.3979-1.3088.7557c-.1168.0694-.2698.0368-.3498-.0757-.08-.1115-.0619-.2656.041-.3563l1.0502-.9173-2.3424 1.352c-.1216.0709-.2779.0336-.3552-.0827-.0779-.1173-.0518-.2746.0602-.36l2.5798-1.9674-4.1808 2.4133c-.1254.072-.2838.0325-.36-.0901-.0763-.1227-.0411-.2832.0789-.3632l1.4981-.9942-2.5114 1.4496c-.1238.0731-.2816.0331-.359-.0885-.0768-.1216-.0432-.2811.0747-.3621l5.2256-3.584-6.9947 4.0378c-.0421.0246-.088.0358-.1333.0358z"/><path d="m23.8811 20.3537c-.0843 0-.1675-.0405-.2192-.1147-.0784-.1141-.0571-.2693.0496-.3578l1.3322-1.1003-.256.1477c-.113.0667-.2592.0384-.3418-.064-.0822-.1029-.0774-.2512.0122-.3472l.9147-.9904c-.0581-.0202-.1093-.0602-.1429-.1184-.0742-.1274-.0304-.2906.0976-.3642l1.089-.6294c.1131-.0666.2592-.0384.3419.064.0821.103.0773.2512-.0123.3472l-.7034.7622 1.4981-.8646c.1189-.0698.2731-.0346.3525.0784.0784.1142.0571.2694-.0496.3579l-1.3322 1.0997 4.8064-2.7744c.1274-.0741.2912-.0309.3642.0976.0742.1275.0304.2907-.0976.3643l-7.569 4.3701c-.0416.0246-.088.0358-.1334.0358z"/><path d="m27.8874 17.2278c-.0853 0-.1691-.0411-.2208-.1168-.0779-.1157-.0544-.2725.0555-.3595l.6997-.5536-.304.1755c-.1195.0699-.2736.0357-.3525-.0784-.0784-.1141-.0571-.2693.0496-.3579l1.0112-.8352-.5984.3451c-.1163.0688-.2667.0373-.3478-.0725-.0805-.1094-.0661-.2619.0331-.3542l1.6101-1.4901-1.1472.6624c-.1173.0693-.2693.0368-.3498-.0752-.0795-.1115-.0624-.2651.0405-.3557l1.2-1.0571-.7669.4427c-.1158.0666-.2646.0373-.3456-.0699-.0811-.1067-.0699-.2576.0261-.3515l1.4597-1.4282-.9888.5706c-.1157.0678-.2661.0374-.3461-.0709-.0811-.1077-.0688-.2587.0283-.352l.7669-.736-.3349.1931c-.111.065-.2539.04-.3371-.0582-.0832-.0992-.0837-.2426-.0021-.3424l.4554-.55143c-.0816-.00853-.1589-.05493-.2032-.13173-.0741-.12747-.0304-.29067.0976-.36427l1.0299-.59466c.1099-.06507.2533-.04.3371.05813.0832.0992.0837.24267.0021.3424l-.3643.44.9584-.55307c.1158-.06826.2656-.03733.3462.0704.081.10827.0688.2592-.0283.35254l-.7669.73649.9157-.52849c.1147-.06774.264-.0384.3456.06986.0811.10667.0699.25763-.0261.35143l-1.4598 1.4283 1.2539-.7232c.1184-.0693.2693-.0363.3499.0752.0794.1115.0624.2651-.0406.3557l-1.1984 1.0555.8891-.5131c.1173-.0682.2672-.0368.3477.0726.0806.1093.0662.2618-.033.3541l-1.6112 1.4907 1.2965-.7478c.1195-.0698.2736-.0357.3525.0784.0784.1142.0571.2694-.0496.3579l-1.0112.8357.7083-.409c.12-.071.2752-.0347.3541.0805.0779.1157.0544.2725-.0554.3595l-.6987.5525.3995-.2309c.1274-.0747.2912-.0304.3642.0976.0742.1274.0304.2906-.0976.3642l-3.5632 2.0571c-.0416.0245-.088.0357-.1333.0357z"/></g><path d="m23.2864 31.717c-.0869 0-.1723-.0426-.2235-.121-.0773-.119-.0485-.2774.0656-.3611l.399-.2928-1.2795.7387c-.12.0704-.2736.0346-.3525-.079-.079-.1136-.0571-.2698.0501-.3578l1.3445-1.1024-2.6672 1.5397c-.1226.0715-.28.0331-.3568-.0853-.0778-.119-.048-.2779.0667-.3611l.2795-.2037-1.1264.6501c-.1211.0715-.2763.0341-.3547-.0816-.0779-.1168-.0533-.2736.0576-.3595l1.0128-.7882-2.0859 1.2042c-.1194.0699-.2725.0352-.3514-.0778-.0795-.1136-.0587-.2683.0469-.3574l1.4117-1.1856-1.4736.8507c-.1125.0661-.2565.04-.3397-.0619-.0827-.1008-.08-.2469.0064-.345l1.0149-1.1515-.6816.3931c-.1034.0602-.233.0437-.3189-.039-.0859-.0832-.1056-.2122-.0496-.3178l.2453-.4576c-.0853-.0059-.1669-.0528-.2128-.1328-.0741-.1275-.0304-.2907.0976-.3643l.6192-.3573c.1035-.0603.2336-.0438.319.0389.0858.0832.1056.2123.0496.3179l-.2048.3824 1.28-.7392c.1125-.0662.2565-.04.3397.0618.0827.1008.08.247-.0064.3451l-1.0149 1.1515 2.7002-1.559c.1195-.0704.2726-.0352.3515.0779.0795.1136.0592.2683-.0469.3573l-1.4123 1.1862 2.808-1.6208c.1211-.0715.2763-.0342.3547.0816.0778.1162.0533.2736-.0576.3594l-1.0134.7888 2.1302-1.2298c.1221-.0726.2794-.0331.3568.0853.0778.1189.048.2779-.0667.3611l-.2795.2037 1.1264-.6501c.1195-.0704.2736-.0352.3526.0789.0789.1141.057.2699-.0502.3579l-1.344 1.1018 2.6662-1.5392c.1221-.0709.2794-.0336.3568.0848.0773.1184.0485.2774-.0656.3611l-.399.2928.7168-.4133c.1195-.071.2752-.0347.3536.0805s.0555.2715-.0544.3584l-.7824.624.5227-.3013c.1168-.0678.2683-.0374.3477.073.0806.1094.0662.2614-.0336.3536l-.4944.4566.1803-.104c.1067-.0635.2432-.0427.328.049.0848.0907.096.2278.0267.3307l-.2582.3835c.103-.0128.2107.0341.2662.1312.0741.1274.0304.2906-.0976.3642l-.8747.5051c-.1072.0624-.2437.0421-.328-.0491-.0848-.0906-.096-.2277-.0267-.3306l.2331-.3462-1.2571.7259c-.1162.0693-.2672.0373-.3477-.0731-.0805-.1093-.0661-.2613.0336-.3536l.4949-.4565-1.5306.8832c-.1211.0704-.2752.0341-.3536-.0805-.0784-.1147-.0555-.2715.0544-.3584l.7818-.624-1.841 1.0629c-.0416.0245-.0886.0357-.1339.0357z" fill="#26619b"/><path d="m5.66243 31.7172c-.08693 0-.17173-.0426-.22293-.1205-.07787-.1184-.0496-.2768.064-.3605l.53867-.3995-1.46294.8443c-.12.0704-.27413.0352-.35306-.0795-.0784-.1141-.056-.2704.05173-.3579l1.304-1.0613-1.6992.9808c-.11413.0672-.26293.0379-.34453-.0683-.0816-.1061-.072-.2565.02293-.3509l1.21653-1.216-.89493.5168c-.10027.0571-.224.0448-.30987-.0309-.08586-.0763-.1136-.1984-.06933-.3035l.344-.8123c-.11253.0315-.23893-.0165-.30027-.1237-.07413-.1275-.0304-.2907.0976-.3643l.6192-.3573c.0992-.0571.22347-.0448.30987.0309.08587.0763.1136.1984.06933.3035l-.33813.7984 1.9632-1.1328c.1152-.0672.26293-.0379.34453.0683.0816.1061.072.2565-.02293.3509l-1.21653 1.216 2.83306-1.6352c.12-.0704.27414-.0352.35307.0795.0784.1141.056.2704-.05173.3578l-1.30454 1.0614 2.59734-1.4992c.12213-.071.27843-.0331.35623.0842.0779.1184.0496.2768-.064.3606l-.53863.3994 1.46293-.8442c.1179-.0683.2688-.0368.3493.0746.08.1104.0635.264-.0384.3552l-1.61917 1.4475 3.25227-1.8773c.12-.0715.2757-.0347.3536.0805.0784.1157.0549.2725-.0549.3589l-1.1483.9099 2.0176-1.1648c.1184-.0693.2704-.0363.3504.0757.0795.112.0613.2662-.0421.3563l-1.3472 1.1733 1.161-.6698c.1136-.0667.2587-.039.3419.064.0821.1029.0773.2506-.0123.3472l-.6997.7589.3707-.2139c.104-.0613.2368-.0437.3226.0432.0854.0864.1014.2192.0395.3232l-.2.3382c.0709.0154.1349.0592.1739.1269.0736.1275.0298.2907-.0982.3648l-.6186.3568c-.1051.0592-.2374.0427-.3227-.0437s-.1013-.2192-.0395-.3232l.127-.2144-1.0075.5813c-.1131.0667-.2592.0389-.3419-.064-.0826-.1029-.0773-.2507.0123-.3472l.7003-.7595-2.0288 1.1707c-.1184.0693-.2704.0363-.3504-.0763-.0795-.1114-.0614-.2656.0421-.3557l1.3461-1.1723-2.77917 1.6043c-.12053.0704-.27573.0341-.3536-.0805-.0784-.1158-.05493-.2726.05494-.359l1.14933-.9109-2.33973 1.3504c-.1168.0693-.26827.0373-.34934-.0747-.08-.1104-.06346-.264.0384-.3552l1.6192-1.448-3.2528 1.8779c-.0416.0245-.08746.0357-.1328.0357z" fill="#26619b"/><path d="m10.0229 10.379c-.64315 1.0613-2.63568 2.6709-1.43622 3.88 2.05602 2.0096 3.08482.0842 4.12162-1.6731 3.0448 1.3803 6.7024.5637 9.2875-1.4555 2.8906-2.25863 4.0751-5.8565 3.9823-9.4309-3.8768-.828802-8.0698-2.106136-12.008-.717869-3.3871.927469-5.84528 4.091199-5.45755 7.653329.01013.21174.61173-.00106.68853-.06826 3.08482-2.77227 7.28372-4.16587 11.40742-3.4496-4.0096.4032-7.9754 2.12106-10.5856 5.2619zm7.6224-5.76644c-3.0848.2288-5.9637 1.424-8.37062 3.3296.00747-8.117329 9.64262-7.9093291 15.33762-6.07466.8032-.03307.5984.74613.5808 1.28906-.1552 3.1136-1.4859 6.22667-4.0518 8.09334-2.4005 1.7563-5.5461 2.224-8.2186.808-.1675-.0885-.559.0325-.6672.1787-.9835.9552-1.2293 3.513-2.86135 1.7984-.8832-.6438-.2016-1.5067.25227-2.2091 2.55098-4.13227 7.32318-6.33227 12.08208-6.4544 1.9921-.64694-3.5584-.9328-4.0832-.75894z" fill="#262626"/><path d="m28.6619 9.49314c-.9728 2.11146-.6491 4.73976-1.12 7.02666-2.8469-1.0165-2.9227 3.2816-4.8181 4.0496-4.3414-.5488-5.3883 4.1611-4.9782 7.5685-.8576.3696-.4762 1.5408-.5344 2.2811-.2778 2.1499 2.6726 1.0416 3.9558 1.2965 2.1744-.0021 4.3493.0032 6.5226-.0021 1.4171-.1589.863-1.8171.9659-2.7952-.0037-.6875-.4203-.8496-.9205-.8885 1.4053-2.5846 4.1834-4.823 4.1189-7.943-.0011-3.2058.0011-6.4277-.0011-9.6256-.1024-1.64476-2.1477-2.1349-3.1909-.96796zm-.8821 21.72376c-3.1574-.0048-6.3307.0069-9.4795 0-.6773-.4422-.1595-1.6544-.312-2.375.0016-.328-.0389-.3269.2523-.3269 3.1056.0069 6.2288-.0096 9.3253 0 .4384.1051.3115.7285.3115 1.0741 0 .1227.1109 1.5846-.0976 1.6272zm3.2954-10.2619c-.4517 2.6859-2.8016 4.7173-4.081 7.0619-2.8251.0042-5.6496-.0059-8.4742-.0022-.1162-2.3642-.1792-4.6074 1.5856-6.4165.9126-1.1584 2.5552-.0864 3.64-.9493 1.2987-.9094 1.6224-4.9264 3.752-3.4016 1.2907 1.76-1.7109 4.8565-2.2565 6.7472.7531 1.2784 2.6192-4.2864 3.1947-4.944.352-.7046.3397-1.4528-.1862-2.0624.5504-1.3542-.0986-9.07203 2.375-7.3803 1.1472 3.4523.1381 7.6539.4506 11.3472z" fill="#262626"/><path d="m.147184 16.0479c-.544 6.2235.792 7.1877 4.065066 12.0907-1.06827.0794-.93013 1.2794-.86507 2.0432-.00373.56-.13546 1.3173.58827 1.4298 1.85227.0342 3.71627 0 5.57227.0118 1.77228-.3398 5.96958 1.1845 5.27898-1.9142.008-.5152.201-1.4858-.5334-1.5898.1782-2.7195.0496-5.999-2.6746-7.4278-1.08-.3258-2.60752.368-3.18778-.9482-.87627-1.464-1.69227-4.168-3.9024-3.1147-.53014-2.3733-.0752-5.2283-1.2416-7.35093-4.241069-2.0944-2.911469 4.48963-3.099736 6.77013zm4.981336 12.0171c-.01654.001-.03467-.0006-.05067.0021-.21173.0347-.02293-.0571.05067-.0021zm7.95628 3.2442c-2.8416 0-5.68375 0-8.52535 0-.8016-.1765-.38507-2.2341-.38827-2.8912 3.16214.1606 6.36692-.0085 9.54672.048.6736.6299.1258 2.0288.2997 2.8486-.3115-.0064-.6213.0016-.9328-.0059zm-11.55522-21.96903c2.3264-.5952 1.6448 6.18503 2.21707 7.76323-1.30613 2.0138 1.2656 4.2112 1.84587 6.1584.1408.2805.28106.561.42133.8416.15093.3013.90933.0656.7728-.207-.57973-2.0528-3.53653-4.7941-2.26613-6.8085 1.74933-1.1339 2.49653 2.2053 3.27946 3.1856.73867 1.1888 2.24592.4549 3.33872.8325 2.3706 1.5648 2.5157 4.3771 2.3418 6.9616-2.7813-.0016-5.56265.0038-8.34345-.0021-1.47733-2.6533-4.411199-4.9973-4.217066-8.2576.363196-2.5883-.808-8.7477.610136-10.46667z" fill="#262626"/></g></svg>