<svg fill="none" height="44" viewBox="0 0 44 44" width="44" xmlns="http://www.w3.org/2000/svg" xmlns:xlink="http://www.w3.org/1999/xlink"><clipPath id="a"><path d="m0 0h44v44h-44z"/></clipPath><g clip-path="url(#a)"><g fill="#cbdee7"><path d="m27.1883 27.2495c-.0688-.0002-.1362-.0197-.1944-.0564-.0582-.0366-.1049-.0889-.1348-.1509-.03-.0619-.0418-.1311-.0343-.1994.0075-.0684.0341-.1333.0768-.1873l1.1968-1.5092-2.42 1.397c-.0748.0433-.1625.0588-.2476.0438s-.1621-.0596-.2175-.1259c-.0555-.0663-.0857-.15-.0854-.2365.0003-.0864.0311-.1699.087-.2358l1.4366-1.6955-2.7493 1.587c-.0417.0265-.0884.0443-.1372.0523-.0488.0081-.0987.0061-.1467-.0056-.048-.0118-.0932-.0332-.1328-.0628-.0395-.0297-.0727-.0671-.0974-.1099-.0248-.0428-.0406-.0902-.0466-.1393-.0059-.049-.0019-.0988.0119-.1463s.037-.0917.0683-.13.0701-.0698.1139-.0928l4.5745-2.64c.0748-.0433.1624-.0588.2475-.0438s.1622.0596.2176.1259.0857.1501.0854.2365-.0311.1699-.087.2358l-1.4366 1.6955 2.2623-1.3075c.0739-.0425.1603-.0579.2444-.0435.084.0143.1604.0575.216.1221.0557.0646.0871.1465.0888.2317.0018.0853-.0262.1684-.0791.2353l-1.1961 1.5084 1.6705-.9614c.0418-.0265.0884-.0443.1372-.0523.0488-.0081.0988-.0061.1468.0056.048.0118.0932.0332.1327.0628.0396.0297.0727.0671.0975.1099.0247.0428.0406.0902.0465.1393.006.049.002.0988-.0118.1463s-.037.0917-.0683.13-.0701.0698-.1139.0928l-3.3389 1.925c-.0555.0325-.1189.0495-.1833.0491z"/><path d="m33.4188 21.8772c-.0703 0-.139-.0203-.1981-.0582-.0591-.038-.106-.0922-.1352-.1561-.0292-.0638-.0395-.1348-.0295-.2043.0099-.0695.0396-.1347.0856-.1879l.9687-1.119-2.6884 1.5554c-.0769.0449-.1676.0602-.255.0432s-.1657-.0653-.2201-.1358-.0813-.1585-.0757-.2474c.0057-.0889.0435-.1727.1064-.2357l1.5693-1.5818-3.5024 2.0181c-.0838.0439-.1813.0536-.2721.0273-.0908-.0264-.1679-.0868-.2153-.1687-.0473-.0819-.0612-.1789-.0387-.2707.0225-.0919.0797-.1715.1595-.2222l5.8769-3.3931c.0769-.045.1676-.0603.255-.0433s.1657.0653.2201.1358c.0545.0706.0814.1585.0757.2474-.0056.0889-.0435.1727-.1064.2357l-1.5701 1.5818 2.2-1.2686c.0751-.0433.163-.0585.2482-.0431.0853.0154.1623.0605.2175.1273.0551.0667.0849.1508.0839.2374-.0009.0866-.0324.1701-.089.2357l-1.4762 1.7072c.0289.0252.0537.0549.0733.088.0486.0842.0618.1843.0366.2782-.0251.0939-.0866.174-.1708.2227l-.9445.5456c-.0573.0335-.1228.0505-.1892.0491z"/><path d="m33.4096 15.7087c-.0807 0-.1591-.0266-.2232-.0758-.064-.0491-.11-.118-.1309-.1959-.0209-.078-.0155-.1607.0154-.2352.0309-.0746.0855-.1369.1554-.1773l6.4401-3.718c.0759-.0435.1648-.0586.2508-.0423.0859.0163.1632.0627.2179.131.0547.0682.0833.1538.0804.2412-.0028.0874-.0368.171-.0959.2355l-1.1066 1.2034c.0797.0027.1563.0312.2183.0813s.106.119.1253.1963c.0193.0774.0129.1589-.0182.2323-.0312.0733-.0854.1345-.1545.1743l-1.7549 1.0135c-.0759.0441-.1652.0594-.2515.0433-.0863-.0162-.1639-.0627-.2188-.1313-.0549-.0685-.0833-.1545-.0802-.2422.0032-.0878.0377-.1715.0973-.2359l.982-1.067-4.3641 2.5197c-.0561.0321-.1195.049-.1841.0491z"/><path d="m7.1506 34.9075c-.07978.0001-.15741-.0258-.22112-.0738s-.11002-.1155-.13192-.1922c-.02189-.0767-.01817-.1585.0106-.2329.02878-.0744.08103-.1374.14884-.1794l7.2908-4.5195-7.5834 4.378c-.08325.048-.18202.0614-.27506.0373-.09303-.0241-.17289-.0837-.22239-.1661s-.06468-.1809-.04228-.2743c.0224-.0935.0806-.1744.16206-.2254l8.08647-5.038-8.2412 4.7564c-.08297.0432-.17931.0531-.26931.0276s-.16685-.0844-.21482-.1647c-.04798-.0803-.06345-.1759-.04325-.2673.0202-.0913.07455-.1715.15191-.2241l6.00087-3.7158-6.10427 3.5244c-.08313.0458-.18078.0576-.27242.0329-.09163-.0247-.1701-.084-.21892-.1654-.04881-.0814-.06417-.1786-.04283-.2711.02133-.0924.0777-.173.15724-.2248l15.9801-9.9396-15.82977 9.138c-.08346.0448-.18098.0554-.27215.0299-.09117-.0256-.16891-.0854-.21695-.167s-.06266-.1786-.0408-.2707c.02186-.0922.07852-.1723.1581-.2236l.39233-.2361c-.08531.0332-.17995.0333-.26531.0002s-.15527-.0968-.19599-.1788c-.04071-.082-.04929-.1763-.02404-.2642.02524-.088.08249-.1634.16048-.2113l3.33446-2.0123-2.86366 1.6537c-.08335.0461-.18136.0579-.27329.033s-.17056-.0846-.21925-.1664c-.04869-.0819-.06362-.1795-.04164-.2722.02199-.0926.07917-.1731.15944-.2244l10.34004-6.3066-9.80177 5.6598c-.08313.0458-.18078.0576-.27242.0329-.09163-.0247-.1701-.084-.21892-.1654-.04881-.0814-.06417-.1786-.04283-.2711.02133-.0924.0777-.173.15724-.2248l17.7973-11.066-17.11237 9.8802c-.04151.0244-.08742.0405-.13513.0472s-.09627.004-.14292-.0081c-.0942-.0243-.17488-.0851-.22428-.1689s-.06348-.1839-.03914-.2781.08511-.1749.16894-.2243l2.42513-1.4593-1.83333 1.0567c-.08358.0466-.18205.0587-.27439.0336-.09233-.025-.17123-.0852-.21985-.1675-.04861-.0824-.0631-.1806-.04036-.2735s.0809-.1733.16206-.224l2.81527-1.6932-2.17507 1.2547c-.08319.0451-.1806.0563-.27186.0313-.09125-.0251-.16929-.0845-.21778-.1657-.0485-.0813-.06369-.1782-.04241-.2704s.07738-.1726.15659-.2244l14.0015-8.6064-13.13764 7.5834c-.08357.0466-.18204.0586-.27438.0336-.09234-.0251-.17123-.0852-.21985-.1676-.04861-.0824-.0631-.1805-.04036-.2734.02273-.093.08089-.1733.16206-.224l.70987-.4275c-.08486.0364-.18034.0395-.26738.0086-.08703-.0309-.1592-.0934-.20209-.1752s-.05333-.1768-.02924-.266c.02409-.0891.08093-.1659.15917-.215l12.42044-7.7-11.30577 6.5267c-.08353.0498-.18343.0644-.2777.0405-.09428-.0239-.17521-.0842-.225-.1677-.04979-.0836-.06436-.1834-.0405-.2777s.0842-.1752.16773-.225l6.74664-4.1485-5.6305 3.2509c-.08354.0499-.18347.0645-.27781.0407s-.17537-.0841-.22526-.1676-.06455-.1835-.04076-.2778c.0238-.0943.08409-.1754.16763-.2253l5.0072-3.0902-3.751 2.1655c-.08344.05-.18332.0648-.27766.0411-.09434-.0236-.17543-.0838-.22541-.1672-.04998-.0835-.06478-.1833-.04112-.2777.02365-.0943.08382-.1754.16725-.2254l3.31244-2.0533-1.87 1.0787c-.0822.0443-.1783.0555-.2686.0314-.0903-.0242-.1679-.0819-.2171-.1614-.0491-.0795-.0661-.1747-.0474-.2663.0188-.0915.0717-.1725.1481-.2263l7.348-4.85319-4.6662 2.69349c-.0818.0458-.178.0584-.2688.0354s-.1694-.0799-.2196-.159-.0682-.1744-.0504-.2664c.0179-.092.0703-.1736.1465-.2282l3.8969-2.70522c-.0804-.02916-.1478-.08612-.1899-.1606-.0485-.08406-.0616-.1839-.0366-.27764s.0862-.17375.1701-.22249l6.0177-3.4782c.082-.0477.1792-.06179.2714-.0393.0921.02249.1719.0798.2227.1599s.0685.17676.0496.26968c-.019.09292-.0733.17487-.1514.22865l-2.5916 1.79813 7.6062-4.39047c.0825-.04786.1805-.06165.273-.03845.0926.0232.1725.08157.2227.16271.0502.08115.0668.17867.0463.27186-.0206.09319-.0766.1747-.1563.22722l-7.3473 4.85027 11.2743-6.50761c.0831-.04578.1808-.05755.2724-.03282.0916.02472.1701.08401.2189.16541.0489.08139.0642.17854.0429.27102-.0214.09248-.0777.17308-.1573.22486l-3.3058 2.05333 5.3394-3.079995c.0833-.046927.1816-.059463.274-.034937.0924.024527.1716.084172.2206.166232.0491.08206.0642.18003.042.27304-.0221.09301-.0797.1737-.1604.22486l-5.0248 3.09687 6.9505-4.012065c.0414-.024654.0872-.040919.1348-.047867.0477-.006949.0962-.004444.1429.007371s.0906.032708.1292.061487.0711.06488.0958.106242.0409.087175.0479.134823c.0069.047649.0044.096199-.0074.142879s-.0327.09057-.0615.12918-.0649.07116-.1062.09582l-6.7306 4.13893 8.5639-4.944132c.083-.044355.18-.055067.2707-.029917.0907.025151.1683.084236.2167.165017.0483.080781.0637.177068.043.268913-.0206.091849-.0759.172209-.1542.224449l-12.4329 7.71101 14.5882-8.420872c.0835-.046558.182-.058605.2743-.03357.0924.025035.1713.085168.2199.167567.0486.082398.0631.180535.0404.273465-.0228.092931-.0809.17329-.1621.22394l-.5867.35053 1.3046-.751665c.0832-.045111.1806-.056309.2719-.031254.0913.025056.1693.084425.2178.16569.0485.081266.0637.178134.0424.270349-.0213.09221-.0774.17262-.1566.22441l-14.0067 8.61081 13.6188-7.86281c.0834-.04471.1809-.0554.2721-.02983s.1689.08541.217.16699c.048.08159.0626.1786.0408.27073-.0219.09212-.0786.17222-.1581.22351l-2.7962 1.68667 2.134-1.23127c.0835-.04655.182-.0586.2743-.03356.0924.02503.1713.08516.2199.16756s.0631.18054.0404.27347c-.0228.09293-.0809.17329-.1621.22394l-2.4369 1.46666 1.7542-1.01566c.0831-.04579.1807-.05756.2724-.03283.0916.02472.1701.08401.2189.16541.0488.08139.0642.17854.0428.27102-.0213.09248-.0777.17308-.1572.22486l-17.8046 11.06819 16.7985-9.69539c.0833-.04608.1813-.05792.2732-.03302.092.0249.1706.0846.2193.16645s.0636.17944.0416.27211c-.0219.09267-.0791.17314-.1594.2244l-10.34 6.30665 9.4512-5.45599c.0832-.04277.1796-.05211.2695-.0261s.1665.0854.214.166c.0475.08061.0624.17633.0416.26757-.0207.09124-.0756.17109-.1533.2232l-3.3352 2.01082 2.5227-1.45715c.0838-.04941.1838-.06348.278-.03914s.1749.08511.2243.16894c.0494.08382.0635.18384.0391.27805-.0243.0942-.0851.17488-.1689.22428l-.7253.4356c.0854-.02484.1768-.01784.2574.01971.0805.03751.1447.10311.1806.18441s.041.1729.0144.2577-.0831.157-.159.2033l-15.9867 9.9433 7.4705-4.3128c.0832-.0451.1806-.0563.2718-.0312.0913.025.1693.0844.2178.1657.0485.0812.0637.1781.0424.2703s-.0774.1726-.1566.2244l-5.9979 3.7129 6.3675-3.6762c.0835-.0501.1834-.065.2778-.0414s.1756.0837.2257.1672c.05.0834.0649.1833.0413.2777-.0235.0945-.0837.1756-.1671.2257l-8.0777 5.0336 8.9914-5.1905c.0832-.0458.1808-.0576.2724-.0329.0917.0248.1702.0841.219.1655s.0641.1785.0428.271-.0777.1731-.1572.2248l-7.2916 4.521.5405-.3116c.0823-.0461.1792-.0588.2705-.0353.0914.0235.1702.0812.2201.1613.0498.0801.0669.1763.0476.2686-.0192.0924-.0733.1738-.151.2272l-8.4971 5.6826 3.1122-1.7966c.0816-.0479.1786-.0624.2706-.0405.0921.022.1721.0786.2233.1582.0512.0795.0697.1758.0516.2687-.0181.0928-.0714.1751-.1487.2296l-3.5501 2.5366 3.8324-2.2125c.0788-.0456.1717-.0604.2607-.0413s.1677.0706.2209.1445c.0531.0739.0769.1649.0666.2554-.0102.0904-.0538.1738-.1221.2339l-2.5117 2.222 2.8842-1.6646c.0417-.0266.0884-.0444.1372-.0524s.0987-.0061.1467.0057c.0481.0117.0932.0331.1328.0628.0396.0296.0727.067.0975.1098.0247.0428.0405.0902.0465.1393s.0019.0989-.0118.1464c-.0138.0475-.0371.0917-.0684.13-.0313.0382-.07.0698-.1138.0927l-6.042 3.4892c-.0787.0457-.1717.0604-.2607.0413-.089-.019-.1677-.0705-.2209-.1444-.0531-.074-.0769-.165-.0666-.2554.0103-.0905.0538-.1739.1222-.234l2.5124-2.2213-7.2248 4.169c-.0815.046-.1774.0592-.2683.0368-.0908-.0224-.1696-.0787-.2203-.1573s-.0694-.1736-.0523-.2656c.017-.092.0686-.174.1441-.2292l3.5501-2.5366-6.1827 3.5684c-.0825.0491-.181.0638-.2742.041-.0932-.0227-.17378-.0811-.22446-.1626-.05067-.0814-.06739-.1795-.04656-.2732.02084-.0937.07755-.1754.15802-.2278l8.4934-5.6811-11.1635 6.446c-.05553.0321-.11849.049-.1826.0491z"/></g><path d="m1.63918 43.4919c-.07113.0001-.14075-.0205-.20038-.0593s-.10669-.0941-.13545-.1591c-.02876-.0651-.03797-.1371-.02652-.2073s.04307-.1356.09101-.1881l1.0824-1.1887-1.4476.8352c-.078005.0424-.168741.055-.255363.0356-.086621-.0195-.163245-.0697-.215648-.1413-.052403-.0717-.077026-.1599-.069299-.2484.007726-.0884.047278-.1711.111315-.2325l1.632395-1.4704-.99146.572c-.07942.0455-.17298.0597-.26231.0397-.089328-.0199-.167958-.0726-.220436-.1476s-.075008-.1669-.063164-.2577c.011845-.0907.057208-.1738.127175-.2328l1.531195-1.2818-.5456.3153c-.07856.0447-.17088.0588-.25921.0396-.08834-.0192-.16646-.0704-.21938-.1436-.05292-.0733-.0769-.1636-.06734-.2535s.05198-.1731.11913-.2336l2.7038-2.4046-1.3728.792c-.08088.0457-.17609.059-.26638.0372-.09029-.0219-.16894-.0771-.22006-.1547-.05112-.0775-.07089-.1716-.05533-.2632s.06531-.1738.13917-.2301l.71207-.5317c-.0716-.0085-.13911-.0379-.19409-.0845-.05498-.0467-.09499-.1085-.11502-.1777-.02004-.0693-.01921-.1429.00238-.2117s.06298-.1297.119-.1751l2.2902-1.8553-.9482.5485c-.08127.0462-.17712.0597-.26797.0376-.09084-.0221-.16981-.0781-.22076-.1565s-.07003-.1733-.05334-.2653.06789-.1741.14313-.2296l.8294-.6028c-.05246-.007-.10276-.0254-.14736-.0539s-.08241-.0664-.11077-.1111c-.051-.079-.0697-.1746-.05223-.267s.06977-.1745.1461-.2295l.8646-.6211c-.07057-.0123-.136-.0449-.18823-.0939-.05222-.049-.08894-.1123-.10563-.1819-.0167-.0697-.01262-.1427.01171-.2101.02434-.0673.06786-.1261.12521-.169l2.24327-1.6749-.71793.4136c-.08089.0457-.17609.0589-.26639.0371-.09029-.0218-.16894-.0771-.22006-.1546-.05111-.0776-.07089-.1716-.05532-.2632.01556-.0916.0653-.1739.13917-.2302l4.29442-3.2208-2.16922 1.2511c-.08149.0472-.17803.0613-.26961.0393-.09159-.022-.17118-.0784-.2223-.1576-.05111-.0791-.06981-.1748-.05223-.2674.01758-.0925.0701-.1747.14667-.2296l5.60929-4.0333-2.9495 1.7021c-.081.046-.1765.0595-.267.0377-.0906-.0218-.1695-.0773-.2206-.1552-.0512-.0778-.0708-.1722-.0549-.264.016-.0918.0662-.1741.1406-.2301l3.7232-2.7566-.5192.2992c-.0802.0445-.1743.0573-.2635.0359s-.1672-.0755-.2185-.1515c-.0513-.0761-.0722-.1687-.0586-.2594s.0608-.1731.1321-.2308l3.1064-2.4266c-.0429-.0836-.0521-.1805-.0257-.2708.0265-.0902.0866-.1668.168-.2139l1.8553-1.0707c.0802-.0445.1742-.0573.2635-.0359.0892.0214.1672.0754.2185.1515s.0722.1686.0586.2594c-.0136.0907-.0608.1731-.1321.2308l-.9255.723 1.5583-.899c.081-.0461.1765-.0596.2671-.0378s.1694.0773.2206.1552c.0512.0778.0708.1722.0548.264-.0159.0918-.0662.1741-.1406.2302l-3.7261 2.758 3.732-2.153c.0815-.0473.178-.0614.2696-.0394.0916.0221.1712.0785.2223.1576s.0698.1749.0522.2674-.0701.1748-.1467.2296l-5.6136 4.0334 1.1-.6329c.0809-.0467.1766-.0608.2675-.0393.091.0215.1703.0769.2217.1548.0515.078.0713.1727.0553.2647-.0159.0921-.0665.1746-.1412.2307l-4.2929 3.2193.8147-.4701c.0809-.0447.1756-.0573.2653-.0352.0898.0221.1678.0773.2186.1545s.0706.1707.0554.2619c-.0152.0911-.0643.1732-.1374.2297l-2.2455 1.6764.1393-.0799c.0815-.0461.1774-.0592.2683-.0368.0908.0224.1696.0786.2203.1573.0507.0786.0694.1736.0524.2656-.0171.092-.0687.1739-.1442.2291l-1.12129.8067c.06499.02.12319.0578.16799.109.0448.0513.0745.114.0857.1811.0111.0671.0034.1361-.0223.199-.0258.063-.0686.1176-.1236.1577l-1.03839.7553c.08689.0207.16297.073.2134.1467.0521.0763.07349.1694.05989.2608-.0136.0913-.06117.1742-.13322.232l-2.28654 1.8524.62554-.3608c.08088-.0457.17609-.059.26638-.0371.0903.0218.16895.077.22006.1546.05112.0776.07089.1716.05533.2632s-.0653.1738-.13917.2302l-.847.6328c.06648.0139.12778.046.17709.0927s.08468.1062.10217.1718.01641.1348-.00311.1999c-.01953.065-.05674.1234-.10748.1685l-2.70454 2.4053 1.08973-.6292c.07953-.0465.17366-.0614.26367-.0417.09.0197.16928.0726.22207.1481.05278.0756.0752.1682.06278.2595-.01241.0913-.05875.1746-.12978.2333l-1.52974 1.2796.35274-.2031c.07801-.0424.16874-.055.25537-.0356.08662.0195.16324.0697.21564.1413.05241.0717.07703.1599.0693.2484-.00772.0884-.04728.1711-.11131.2326l-1.6324 1.4666.4664-.2684c.07571-.0435.16449-.0587.25035-.0426s.16316.0623.21799.1303c.05482.068.08357.1533.08107.2406-.00251.0874-.03611.1709-.09475.2357l-1.0824 1.1953c.08452-.0426.18223-.0509.27271-.0231s.16671.0894.21275.1721.05832.18.03426.2716c-.02405.0915-.08257.1702-.16332.2196l-2.02913 1.1733c-.05575.032-.11906.0485-.18333.0477z" fill="#a6bac2"/><path d="m34.3199 15.5659c6.5267-.4737 6.6345-4.8979 8.231-10.1816.5507-1.77246 2.1266-4.3098-.1064-5.069529-18.3333-1.056-37.36402 11.282329-37.59429 30.946629-1.1286 2.8945-6.43866 10.0782-3.34766 12.3068 3.28533.9218 3.5684-6.5266 5.45453-8.5961 5.24842-.3007 14.32122-1.0692 17.78332-5.2265.3307-1.3038-1.012-1.4835-1.1983-2.6092-.371-2.2381 3.039.44 4.1742.4158 2.89-.6211 4.6434-2.8952 1.2987-4.6654-1.5591-2.3863 4.334-.2552 5.2206-1.2394 1.3339-.8389 2.4772-2.6869 1.3801-3.9321-.4216-.4789-1.471-.3153-1.9389-.7333-1.3706-1.2232-.3021-.957.6431-1.4161zm-30.99869 26.4711c-5.4494 3.9351 1.32-9.3243 2.20734-10.6098 3.10725-5.3638 7.20985-10.0852 12.08755-13.9106 1.0853-.7407 2.549.723 1.4336 1.6397-7.4008 5.8938-12.87679 13.8598-15.72849 22.8807zm28.72539-25.0734c.44.88 1.2467.451 1.8546 1.0311.2068.198.9409.1525 1.0736.3909.4473.8066-.6637 2.4471-1.4579 2.7272-1.372.4833-3.3234-.7333-4.7072-.2588-2.6026.8697-.7392 2.5329.6556 3.4327.833 6.1028-8.0667-2.4105-6.8934 2.8952 5.2617 4.6992-12.3053 7.0796-15.17189 6.9483 2.97849-5.522 7.05389-10.3772 11.97609-14.2677.383-.3086.6399-.7467.7223-1.2316s-.0154-.9833-.275-1.4011c-3.2501-3.4298-12.29725 9.8766-14.17679 12.6867.81107-14.6527 12.43729-25.67986 26.73069-27.8036 13.431-2.799863 11.2501-.7832 6.856 10.1347-.7407 3.3733-7.9391 1.0266-7.1867 4.716z" fill="#262626"/></g></svg>