<svg fill="none" height="44" viewBox="0 0 44 44" width="44" xmlns="http://www.w3.org/2000/svg"><path d="m15.7932 43.6118c-.0777.0001-.1535-.0246-.2163-.0703-.0628-.0458-.1095-.1104-.1332-.1844-.0238-.074-.0234-.1537.0011-.2274.0245-.0738.0717-.1379.135-.1831l1.5693-1.1234-2.64 1.5224c-.0703.0406-.1521.0567-.2327.0458-.0805-.0109-.1551-.0482-.212-.1061-.057-.0579-.0932-.1331-.1028-.2138s.0078-.1623.0496-.2319l.5309-.88-.3175.1826c-.0838.0438-.1813.0536-.2721.0272-.0908-.0263-.168-.0868-.2153-.1686-.0473-.0819-.0612-.1789-.0387-.2708.0225-.0918.0796-.1714.1594-.2222l1.5452-.8917c.0701-.0413.152-.0579.2326-.047s.1552.0487.2118.1071c.0571.0579.0933.1331.103.2138s-.0077.1624-.0495.2321l-.5309.88 7.9031-4.5621c.0815-.046.1774-.0592.2682-.0368.0909.0225.1697.0787.2204.1573.0507.0787.0694.1737.0523.2657-.017.0919-.0686.1739-.1442.2291l-1.5678 1.1227 1.4072-.8125c.0781-.0429.1691-.056.256-.0368.087.0193.164.0695.2166.1414.0526.0718.0773.1604.0694.2491s-.0477.1715-.1122.233l-2.5029 2.2836 3.0433-1.7556c.0757-.0431.1642-.0579.2497-.0417.0855.0161.1625.0622.2172.1299s.0835.1527.0812.2397c-.0022.087-.0353.1704-.0934.2353l-1.551 1.7086 2.9275-1.6866c.0735-.042.1592-.0572.2427-.0432.0834.0141.1594.0566.2151.1203s.0876.1448.0904.2293c.0028.0846-.0238.1675-.0752.2348l-1.0758 1.3933 2.4427-1.4102c.0758-.0412.1637-.0544.2482-.0372.0846.0171.1604.0636.2141.1311.0536.0675.0818.1518.0795.2381-.0023.0862-.035.1689-.0923.2334l-.4891.517 1.1506-.6637c.0714-.0411.1547-.057.2362-.045.0816.0119.1568.051.2134.1109s.0914.1372.0987.2193-.0133.1643-.0584.2333l-.4122.6263.5134-.297c.0417-.0266.0884-.0444.1372-.0524s.0987-.0061.1467.0057c.0481.0117.0932.0331.1328.0628.0395.0296.0727.067.0974.1098.0248.0428.0406.0902.0466.1393.0059.0491.0019.0989-.0119.1464-.0137.0475-.037.0917-.0683.1299-.0313.0383-.07.0699-.1139.0928l-1.8516 1.0699c-.0712.0422-.1548.0588-.2367.0469s-.1573-.0515-.2136-.1121c-.0566-.0601-.0914-.1375-.0986-.2198-.0072-.0822.0136-.1645.059-.2334l.4121-.6263-1.98 1.1447c-.0762.0436-.1655.0584-.2517.0417s-.1636-.0638-.218-.1327-.0823-.155-.0786-.2428c.0037-.0877.0388-.1712.0988-.2352l.4891-.5134-1.8868 1.0824c-.0735.042-.1593.0572-.2427.0431-.0834-.014-.1595-.0565-.2151-.1202-.0557-.0637-.0877-.1448-.0904-.2293-.0028-.0846.0238-.1676.0752-.2348l1.0765-1.3933-3.3484 1.9345c-.0756.0431-.1641.0579-.2496.0417-.0856-.0161-.1625-.0622-.2172-.1299-.0547-.0678-.0835-.1527-.0813-.2397.0023-.087.0354-.1704.0934-.2353l1.5518-1.7086-3.9366 2.2733c-.078.0435-.1693.057-.2566.038-.0873-.0191-.1646-.0693-.2175-.1414-.0528-.072-.0776-.1609-.0695-.2499.008-.089.0483-.172.1132-.2334l2.5021-2.2836-4.9735 2.8688c-.0554.0332-.1187.0509-.1833.0514z" fill="#eaeaea"/><path d="m20.3134 39.0252c-.0725 0-.1435-.0216-.2038-.0619s-.1073-.0977-.135-.1647c-.0277-.0671-.0349-.1408-.0207-.212.0143-.0711.0493-.1364.1006-.1877l1.155-1.1543-.4715.2721c-.0775.046-.1692.0618-.2576.0444-.0884-.0173-.1673-.0666-.2217-.1384s-.0804-.1611-.0732-.2509c.0073-.0898.0473-.1737.1125-.2359l.7414-.7091-.3007.173c-.0762.0436-.1655.0584-.2517.0417s-.1636-.0637-.218-.1327c-.0545-.0689-.0823-.155-.0786-.2427.0037-.0878.0388-.1713.0988-.2353l1.1733-1.2401-.7208.4151c-.0781.0447-.1699.0591-.258.0405-.088-.0185-.1661-.0689-.2195-.1413-.0533-.0725-.0782-.162-.0698-.2516s.0495-.173.1153-.2343l.4598-.4239-.0278.0154c-.078.0419-.1685.0541-.2548.0345-.0863-.0197-.1626-.0699-.2147-.1414-.0522-.0714-.0768-.1594-.0692-.2476.0076-.0881.0468-.1706.1104-.2321l.3359-.3014c-.0786.0198-.1615.013-.2358-.0193-.0744-.0323-.1359-.0883-.175-.1592-.0391-.071-.0536-.1529-.0413-.233.0124-.0801.0509-.1538.1096-.2097l.8573-.811-.4224.2434c-.0791.0449-.172.0587-.2607.039-.0887-.0198-.1669-.0718-.2194-.146-.0526-.0742-.0757-.1652-.0649-.2555.0108-.0902.0548-.1732.1233-.2329l.7605-.6527-.407.2347c-.0753.0431-.1634.0582-.2488.0425-.0853-.0157-.1623-.0611-.2173-.1283-.0549-.0671-.0843-.1515-.0829-.2383.0014-.0867.0335-.1702.0906-.2355l1.2298-1.3933-1.1212.6475c-.0731.0419-.1584.0574-.2415.0438-.0832-.0136-.1591-.0554-.2151-.1184-.0559-.063-.0884-.1433-.0921-.2275s.0218-.167.072-.2347l.2515-.3358-.1569.0902c-.0462.0272-.0979.0438-.1513.0485s-.1072-.0026-.1574-.0214c-.0506-.0183-.0965-.0475-.1345-.0855s-.0672-.0839-.0855-.1345l-.22-.6028c-.0701.0054-.1403-.0087-.2029-.0408-.0625-.0321-.1149-.0809-.1513-.1411-.0486-.0842-.0618-.1843-.0367-.2782.0252-.0939.0867-.174.1709-.2226l.2442-.1408c.0463-.0273.0981-.0438.1516-.0485.0536-.0047.1075.0026.1578.0213.0506.0183.0965.0475.1345.0856.0381.038.0672.0839.0855.1344l.2054.5728 1.328-.7722c.0731-.0419.1584-.0574.2416-.0438.0831.0136.159.0554.215.1184.0559.063.0885.1434.0921.2275.0037.0842-.0217.1671-.072.2347l-.2515.3351 1.5121-.8719c.0753-.0432.1634-.0582.2487-.0425.0854.0157.1624.0611.2173.1282.055.0671.0844.1516.083.2383-.0014.0868-.0335.1702-.0907.2355l-1.2298 1.3933 1.8847-1.0882c.0792-.0457.1726-.0602.2619-.0407.0893.0196.1681.0718.2209.1465.0527.0746.0757.1663.0644.257s-.056.174-.1255.2334l-.8998.7722c.0758-.0067.1518.0103.2175.0488.0657.0384.1178.0964.1491.1658s.0402.1468.0255.2215-.0523.1429-.1076.1953l-.8587.8096.1987-.1144c.078-.0419.1685-.0541.2548-.0344.0863.0196.1625.0698.2147.1413s.0768.1594.0692.2476-.0468.1706-.1104.2321l-.3447.3088c.0789-.0186.1617-.0106.2355.0228.0738.0335.1344.0904.1725.1619.038.0716.0513.1537.0377.2336s-.0532.153-.1128.2079l-.4598.4239.0279-.0154c.0761-.0431.1652-.0575.251-.0407.0859.0168.1629.0637.2172.1324.0542.0686.0822.1543.0788.2417-.0034.0875-.038.1708-.0975.2349l-1.1733 1.2408.7209-.4158c.0775-.0459.1691-.0617.2575-.0444s.1674.0666.2218.1384.0804.1611.0732.2509c-.0073.0898-.0473.1738-.1125.2359l-.7334.7121.2992-.1723c.077-.0423.1665-.0556.2524-.0374.0859.0181.1624.0665.2157.1362.0532.0698.0797.1564.0746.244-.0052.0876-.0416.1705-.1027.2336l-1.1564 1.1586.7135-.4121c.0842-.0478.1839-.0605.2773-.0351s.1731.0867.2215.1705c.0484.0839.0617.1835.0369.2771-.0247.0936-.0855.1736-.169.2226l-3.1306 1.8069c-.0558.0329-.1194.0501-.1841.0499z" fill="#eaeaea"/><path d="m21.8337 28.206c-.079.0001-.1559-.0253-.2193-.0724-.0633-.0471-.1098-.1134-.1325-.189-.0226-.0757-.0203-.1566.0068-.2308.027-.0742.0773-.1376.1433-.181l1.0692-.7032-2.1267 1.2261c-.0826.0512-.1823.0676-.277.0453-.0946-.0222-.1766-.0811-.2279-.1637-.0512-.0827-.0675-.1823-.0453-.277s.0811-.1767.1638-.2279l3.4466-2.28-4.5364 2.6195c-.0828.0471-.1807.0602-.273.0364-.0922-.0238-.1716-.0826-.2213-.1639-.0497-.0814-.0657-.1788-.0448-.2718.021-.0929.0773-.1741.1571-.2262l2.4588-1.5826-3.2156 1.8568c-.0825.0462-.1796.0587-.2711.0349-.0915-.0237-.1702-.0818-.2199-.1622s-.0664-.1769-.0466-.2693c.0197-.0924.0744-.1736.1526-.2267l6.3066-4.1609-7.2768 4.2042c-.0826.0478-.1806.0616-.2731.0384-.0926-.0232-.1724-.0816-.2227-.1627-.0502-.0811-.0668-.1787-.0462-.2719.0205-.0931.0765-.1746.1562-.2272l7.6736-5.06-8.5653 4.9442c-.0833.048-.182.0614-.2751.0373-.093-.0241-.1729-.0837-.2224-.1661s-.0646-.1809-.0422-.2744c.0224-.0934.0806-.1743.162-.2253l2.189-1.3721-2.5446 1.4711c-.0826.0437-.1787.0543-.2687.0296-.0901-.0247-.1673-.0829-.216-.1626-.0486-.0797-.065-.175-.0458-.2664s.0725-.172.1491-.2254l7.26-4.6765-7.8144 4.5078c-.0827.0455-.1798.0574-.271.0331-.0913-.0243-.1696-.0829-.2188-.1635-.0491-.0806-.0653-.1771-.0451-.2693s.0752-.1731.1536-.2258l6.9887-4.4667-7.3979 4.2702c-.041.0252-.0866.0421-.1342.0497-.0475.0076-.0961.0058-.143-.0054-.0468-.0111-.091-.0314-.13-.0597-.0391-.0282-.0721-.0639-.0973-.1049-.0253-.041-.0422-.0866-.0498-.1342-.0076-.0475-.0058-.0961.0054-.143.0112-.0468.0314-.091.0597-.13.0282-.039.0639-.0721.1049-.0973l9.8414-6.435-10.3305 5.9642c-.0831.0465-.181.0589-.2731.0345-.092-.0243-.171-.0836-.2202-.1651-.0491-.0816-.0646-.1791-.0432-.2718.0214-.0928.0781-.1736.1581-.2254l4.2929-2.7001-4.4154 2.5483c-.0828.0472-.1807.0602-.273.0364-.0922-.0238-.1716-.0826-.2213-.1639s-.0657-.1788-.0448-.2717c.021-.093.0773-.1742.1571-.2263l5.9224-3.8016-6.0442 3.4892c-.0825.0461-.1796.0586-.271.0349-.0915-.0237-.1703-.0818-.2199-.1622-.0497-.0804-.0664-.1769-.0467-.2693.0198-.0924.0744-.1736.1526-.2267l6.7812-4.4734-6.8809 3.974c-.0831.0465-.181.0589-.2731.0345-.092-.0243-.171-.0836-.2202-.1651-.04913-.0816-.06464-.1791-.0432-.2718.02144-.0928.0781-.1736.1581-.2254l.1232-.0777c-.0832.0418-.1791.0504-.26833.0241-.08926-.0263-.16518-.0856-.21236-.1658-.04719-.0802-.06212-.1753-.04177-.2661.02036-.0908.07447-.1705.15138-.2229l5.30198-3.5772-5.20665 3.0067c-.08253.0454-.17939.0574-.27049.0333-.0911-.024-.16945-.0822-.21878-.1625s-.06587-.1765-.04618-.2686c.01968-.0921.07409-.1732.15192-.2263l1.08168-.704-.83601.4826c-.08156.0465-.17785.0599-.26903.0376-.09118-.0224-.17032-.0789-.22109-.1579-.05077-.0789-.06931-.1744-.0518-.2666s.06974-.1743.14592-.2291l4.09201-2.9106-3.78695 2.186c-.08166.0471-.17833.0609-.26992.0386s-.17108-.079-.22194-.1584c-.05087-.0793-.06922-.1752-.05123-.2678.01799-.0925.07093-.1746.14783-.2291l2.12671-1.5077-1.71605.9914c-.08166.0471-.17833.0609-.26992.0386s-.17108-.079-.22194-.1584c-.05087-.0793-.06922-.1752-.05123-.2678.01799-.0925.07093-.1746.14783-.2291l.51333-.3615-.06527.0374c-.08099.046-.17647.0595-.26704.0377s-.16945-.0773-.22061-.1551c-.05116-.0779-.07076-.1723-.05483-.2641s.06621-.1741.14062-.2301l.3762-.2802c-.08043.0172-.16429.0069-.23812-.0294-.07383-.0362-.13334-.0962-.16896-.1703s-.04529-.1581-.02746-.2384c.01784-.0803.06215-.1522.1258-.2043l.52365-.4268c-.08898-.0087-.17164-.0497-.23251-.1151-.05648-.061-.09058-.1393-.09671-.2222-.00613-.0828.01608-.1653.06297-.2339l.84705-1.2408c-.0113-.0136-.0214-.028-.0301-.0433-.0247-.04156-.041-.0876-.0478-.13547-.0069-.04787-.0042-.09662.0079-.14344.012-.04683.0332-.09081.0624-.1294.0291-.0386.0656-.07105.1073-.09549l.5133-.29334c.072-.04188.1562-.05797.2386-.04564.0824.01234.1581.05237.2148.1135.0566.06114.0907.13973.0966.22284.006.0831-.0165.16576-.0638.23437l-.44.64167 2.024-1.16674c.0797-.04477.1733-.05814.2624-.03748s.1672.07385.2191.14915c.0519.07529.0737.16725.0613.25784s-.0582.17327-.1284.23183l-.187.15253 1.3068-.75387c.0809-.04507.1759-.05783.2659-.03571.09.02213.1682.07749.219.15497.0509.07747.0705.17132.0549.26265-.0156.09134-.0651.1734-.1387.22969l-.2523.18774 1.386-.80007c.0817-.04709.1784-.06092.2699-.03861.0916.0223.1711.07903.222.1584s.0692.17528.0512.26782c-.018.09253-.0709.17459-.1478.22912l-.5133.36664 1.6991-.98264c.0817-.04709.1783-.06092.2699-.03861s.1711.07904.222.1584c.0508.07937.0692.17528.0512.26782s-.071.17459-.1478.22913l-2.1267 1.507 3.6813-2.12667c.0816-.04652.1779-.05999.269-.03762.0912.02237.1704.07886.2211.15783.0508.07898.0693.17442.0518.26666s-.0697.17425-.1459.22913l-4.0927 2.90697 6.1101-3.52004c.0825-.04426.1788-.05531.2691-.03089s.1679.08247.2169.16225c.0489.07977.0655.17525.0463.26685-.0192.09161-.0727.17241-.1495.22586l-1.0706.69667 2.2894-1.32c.0821-.04498.1782-.05689.2687-.03331.0905.02359.1686.08089.2183.16017s.0672.17454.0489.2663c-.0183.09175-.071.17304-.1472.22723l-5.3101 3.58381 7.2835-4.2042c.0829-.04561.1803-.05738.2717-.03286s.1698.08343.2187.16442c.049.08098.0648.17777.044.2701-.0207.09234-.0764.17308-.1553.22534l-.11.07333 1.2086-.6974c.0822-.04431.1783-.05553.2686-.03138.0903.02416.1679.08188.2171.16136.0491.07948.0661.17473.0473.26629-.0187.09156-.0716.17252-.148.22633l-6.7834 4.47337 8.8272-5.09597c.0828-.04714.1807-.06019.2729-.03638.0923.0238.1717.08259.2214.16391.0496.08132.0657.17878.0447.27174-.0209.09296-.0772.17411-.157.22626l-5.9194 3.79944 7.667-4.4257c.0828-.04428.1795-.05507.2701-.03016.0905.02492.1681.08365.2166.16408.0485.08042.0644.17641.0442.26815-.0202.09175-.0748.17226-.1525.22493l-4.2827 2.6943 5.0167-2.89597c.0826-.04697.1802-.06002.2723-.03642.092.02359.1713.08201.2212.16292.0498.08092.0662.17802.0459.27087-.0204.0928-.076.1741-.1551.2267l-9.8472 6.4313 10.0327-5.7933c.0829-.0463.1805-.0587.2723-.0345s.1707.083.22.1641c.0493.0812.0652.1782.0444.2709-.0209.0926-.0768.1735-.1561.2258l-6.9806 4.4623 6.7467-3.8962c.0827-.0455.1798-.0573.271-.033.0913.0243.1696.0828.2188.1634.0491.0806.0653.1771.0451.2693-.0202.0923-.0752.1731-.1536.2258l-7.26 4.6765 6.9799-4.0333c.0831-.0466.181-.059.2731-.0346.092.0244.171.0836.2201.1651.0492.0816.0647.1791.0433.2719-.0215.0928-.0782.1736-.1581.2253l-2.1868 1.3809 1.8546-1.0707c.0825-.0461.1796-.0586.271-.0349.0915.0237.1703.0818.2199.1622.0497.0804.0664.1769.0467.2693-.0198.0924-.0744.1736-.1526.2267l-7.6729 5.06 7.2329-4.1748c.0823-.0443.1784-.0556.2686-.0314.0903.0241.1679.0819.2171.1613.0491.0795.0661.1748.0474.2663-.0187.0916-.0717.1725-.1481.2264l-6.3125 4.1638 5.7024-3.2919c.0828-.0471.1807-.0602.2729-.0364.0923.0238.1717.0826.2214.1639.0496.0813.0657.1788.0447.2718-.0209.0929-.0772.1741-.157.2262l-2.453 1.5789 1.7688-1.0215c.0826-.0479.1805-.0617.2731-.0385.0925.0232.1724.0816.2226.1627.0502.0812.0668.1787.0463.2719s-.0766.1747-.1562.2272l-3.4511 2.2836 2.5278-1.4586c.0825-.0461.1796-.0586.271-.0349.0915.0237.1703.0818.2199.1622.0497.0804.0664.1769.0467.2693-.0198.0924-.0744.1736-.1526.2267l-1.0597.6982.0125-.0074c.0804-.0459.1753-.0597.2655-.0385s.169.0757.2206.1526c.0517.0769.0723.1705.0578.262-.0146.0914-.0632.174-.1362.2311l-3.2692 2.5227.8338-.4803c.0838-.0439.1813-.0536.2721-.0273.0909.0264.168.0868.2153.1687.0474.0818.0612.1788.0387.2707s-.0796.1715-.1594.2222l-5.5733 3.2179c-.0805.0459-.1754.0596-.2655.0385-.0902-.0212-.1691-.0757-.2207-.1526s-.0723-.1705-.0577-.262c.0145-.0915.0632-.174.1361-.2311l3.2663-2.522-6.0808 3.5098c-.0561.0309-.1193.0465-.1833.0454z" fill="#e75e6d"/><path d="m16.4502 15.7333c-.0785.0001-.155-.025-.2181-.0717-.0632-.0466-.1098-.1122-.1328-.1873-.0231-.075-.0215-.1555.0046-.2295.0261-.0741.0752-.1378.1402-.1818l7.4126-5.0094-9.2305 5.3291c-.0829.0508-.1827.0665-.2772.0438-.0946-.0228-.1762-.0822-.227-.1651-.0507-.083-.0665-.1827-.0437-.2773.0228-.0945.0822-.1761.1651-.2269l5.8344-3.7803-6.82 3.9365c-.0825.0479-.1805.0616-.2731.0384-.0925-.0232-.1724-.0815-.2226-.1627-.0502-.0811-.0668-.1786-.0463-.2718.0206-.0932.0766-.1747.1563-.2272l8.3974-5.54038-9.3522 5.40318c-.0832.0505-.183.0659-.2774.0428-.0945-.0231-.176-.0828-.2264-.166-.0505-.0831-.0659-.1829-.0428-.2774s.0828-.1759.166-.2264l5.4362-3.4642-5.8924 3.4012c-.0822.0443-.1783.0555-.2686.0313-.0903-.0241-.1679-.0818-.2171-.1613-.0491-.0795-.0661-.1748-.0474-.2663.0188-.0916.0717-.1725.1481-.2263l8.613-5.69511-9.14023 5.28001c-.08209.0462-.1788.059-.27009.0358-.09128-.0233-.17013-.0807-.2202-.1605s-.06752-.1757-.04874-.268c.01879-.0923.07237-.1739.14963-.2277l8.28663-5.61221-7.6567 4.41761c-.0829.0508-.1827.0665-.27721.0437-.09455-.0227-.17619-.0821-.22695-.1651-.05076-.0829-.06649-.1826-.04373-.2772.02276-.0945.08215-.1762.1651-.22694l2.45009-1.58254-1.8473 1.06627c-.0826.04696-.1802.06002-.2723.03642-.092-.0236-.17131-.08201-.22113-.16293-.04982-.08091-.06629-.17801-.04592-.27083.02036-.09282.07597-.17411.15505-.22673l1.7476-1.14473-1.1.63507c-.0824.04772-.1801.06156-.2724.03857-.0924-.02298-.1722-.08098-.2226-.16174s-.0674-.17795-.0474-.27101c.02-.09307.0754-.17472.1544-.22769l1.9426-1.30607-1.2254.7062c-.08.04543-.1741.05912-.2637.03836-.0897-.02076-.1682-.07446-.2201-.15044-.0519-.07597-.0733-.16868-.06-.25971.0133-.09104.0603-.17376.1317-.23174l3.7649-3.00667-2.6913 1.55687c-.0796.04592-.1735.06029-.2632.04024-.0897-.02004-.1686-.07302-.221-.14846-.0525-.07543-.0748-.16782-.0623-.25887.0124-.09105.0585-.17413.1292-.23278l1.4491-1.19826-.4444.25666c-.0745.04252-.1616.05754-.2461.04245-.0845-.01508-.161-.05932-.2162-.12501s-.0857-.14867-.086-.23448c-.0004-.08581.0294-.16903.0841-.23516l.9416-1.133c-.067-.02237-.126-.06359-.1701-.11872s-.0714-.12181-.0785-.19205.0062-.14104.0383-.2039.0817-.1151.1428-.15046l1.2592-.728201c.0745-.042956.1618-.058326.2466-.043418.0847.014907.1615.059141.2169.124961s.0859.149033.0862.235076c.0002.086042-.0298.169434-.0848.235581l-.7121.853601 2.4413-1.405801c.0796-.045135.1731-.058896.2623-.038581.0892.020316.1676.073239.2198.14838s.0744.167073.0622.257745c-.0121.090672-.0577.173536-.1278.232327l-1.4432 1.19606 3.1108-1.795931c.08-.045428.1742-.059119.2638-.038358.0897.020762.1682.074458.2201.150435s.0733.168682.06.25972c-.0133.091037-.0603.173753-.1317.231734l-3.765 3.00667 6.2554-3.610201c.0821-.045505.1786-.05775.2695-.03421.091.02354.1694.081071.2191.160728.0498.079658.0671.175369.0483.267397-.0187.092029-.0721.173356-.149.227216l-1.9419 1.3068 3.3426-1.927931c.0826-.046964.1802-.060023.2722-.036423.0921.023599.1714.082012.2212.162928.0498.080917.0663.178016.0459.270834-.0203.092818-.0759.174102-.1551.226732l-1.749 1.14106 3.0617-1.765131c.0826-.04483.1793-.056237.27-.031866.0908.024372.1687.082661.2177.162835.0491.080173.0654.17611.0458.268005-.0197.091896-.0739.172737-.1514.225827l-2.4406 1.5752 3.8134-2.200001c.0821-.046168.1788-.058975.2701-.035764.0912.02321.1701.080658.2202.160432.05.079775.0675.175758.0487.268052-.0188.092295-.0724.173821-.1496.227681l-8.2867 5.61293 10.7969-6.233331c.0823-.045459.179-.057535.27-.033732.091.023804.1693.081665.2189.161621.0495.079956.0664.175891.0472.267967-.0192.092077-.073.173255-.1504.226745l-8.6181 5.6936 9.864-5.69507c.0832-.05047.183-.065843.2775-.04274.0944.02311.1759.0828.2263.16594.0505.08315.0659.18294.0428.27742s-.0828.17591-.166.22638l-5.4318 3.46134 5.5125-3.18194c.0823-.04431.1784-.05553.2687-.03137.0902.02416.1679.08187.217.16136.0492.07948.0661.17473.0474.26629-.0187.09155-.0717.17251-.1481.22632l-8.3981 5.5418 8.533-4.92653c.0829-.04714.1808-.06019.273-.03638.0923.0238.1717.08259.2213.16391.0497.08132.0658.17878.0448.27174-.0209.09296-.0772.17411-.157.22626l-5.8344 3.78034 5.8461-3.37334c.0823-.04686.1794-.06011.2712-.03699.0918.02313.171.08083.2212.16106.0502.08022.0675.17675.0481.26939-.0193.09264-.0737.17422-.1518.22768l-7.414 5.00866 7.469-4.312c.0826-.04786.1805-.06166.2731-.03846.0925.02321.1724.08158.2226.16272s.0668.17867.0463.27186c-.0205.09318-.0766.17469-.1563.22722l-4.0216 2.6576 3.9402-2.27334c.0804-.04477.1746-.05773.264-.0363s.1675.07568.2189.15199c.0513.07632.072.16913.0581.26003-.0139.09091-.0614.17326-.1332.23075l-2.2103 1.72113 2.1017-1.21293c.0723-.04157.1566-.05726.239-.04449.0824.01278.158.05327.2143.11478s.09.14038.0954.22358c.0055.08321-.0176.1658-.0654.23413l-.7509 1.06847.5617-.32414c.0603-.03468.1293-.05148.1988-.04843.0696.00305.1368.02583.1938.06566.0571.03984.1016.09509.1285.15931.0268.06421.0348.13474.023.20333l-.0667.38867c.0667.02256.1255.06385.1694.11895s.071.12167.078.19179c.007.07-.0063.1407-.0383.2034s-.0815.1149-.1424.1503l-.3505.2031c-.0603.0347-.1293.0515-.1988.0484-.0695-.003-.1368-.0258-.1938-.0656-.0571-.0399-.1016-.0951-.1285-.1593-.0268-.0643-.0348-.1348-.023-.2034l.0359-.23318-1.32.76198c-.0723.0419-.1567.0579-.2394.0453-.0826-.0126-.1584-.0531-.2149-.1147s-.0902-.1407-.0956-.2241.0178-.1662.0659-.2345l.7509-1.06851-5.2631 3.04191c-.0803.0456-.175.0592-.2649.038-.09-.0211-.1686-.0754-.2202-.1521-.0517-.0766-.0724-.1699-.0582-.2612s.0624-.1739.1348-.2312l2.211-1.72041-9.8655 5.69291c-.0823.0443-.1784.0555-.2686.0313-.0903-.0241-.168-.0818-.2171-.1613-.0492-.0795-.0661-.1748-.0474-.2663.0187-.0916.0717-.1725.1481-.2263l4.0216-2.6584-5.9173 3.4166c-.0554.0332-.1187.0509-.1833.0514z" fill="#eaeaea"/><path d="m32.8356 3.96428c-.5133-1.74167-1.3933-4.0633992-3.6329-3.607266-4.9735.0088-9.9506-.009533-14.9233-.000733-1.4865.073333-2.0248 1.131529-2.541 2.346669-4.18003 8.64815-4.36556 22.26325 6.8244 25.08365 2.2572 2.9627 1.3031 7.0158 1.3706 10.4823-.7077 3.0506-5.7794 1.2393-6.5318 4.1008.019 1.3566 1.6529 1.1374 2.5754 1.1374 4.6083-.2714 9.4872.55 13.9744-.3242 2.4464-2.6708-3.2457-2.6979-4.6735-3.5251-1.8157-1.056-1.2804-3.8815-1.2804-5.6415 0-2.2176-.1621-4.4132 1.2555-6.2414 10.4243-2.6958 11.5038-15.3091 7.5826-23.81062zm-20.68.3322c.3418-.91887.8507-3.047 1.98-3.1878 4.3458-.0088 8.7047.00587 13.0534 0 5.0387-1.10439928 5.1428 5.5 6.2054 8.96282-7.7828-.025-16.4523 10.0151-23.1 1.8758.3175-2.61491.9435-5.18308 1.8649-7.65082zm10.78 28.50172c-.1987 5.6987-.5866 7.3876 5.6232 8.5375.7605.1415 1.4513 1.2342.5926 1.6866-3.9138.0294-7.8907-.0205-11.8272 0-.7532 0-2.475.3513-2.8021-.5932-.5075-1.4667 2.9047-1.84 3.8067-2.0431 4.2446-.5236 3.0844-9.559 1.7534-12.2892 1.3423.2045 2.7095.1822 4.0444-.066-1.0091 1.4168-1.191 3.0206-1.191 4.7674zm9.3508-11.4547c-6.174 11.8338-24.32983 4.6662-22.124-8.0366 7.4067 6.6734 15.4448-2.673 23.3244-2.7588.6784 3.6931.6578 7.4397-1.2004 10.7954z" fill="#262626"/></svg>