<svg fill="none" height="32" viewBox="0 0 32 32" width="32" xmlns="http://www.w3.org/2000/svg"><path d="m11.4862 31.7164c-.0566.0001-.1117-.0178-.1574-.0511s-.0796-.0803-.0969-.1341c-.0172-.0538-.017-.1118.0008-.1654.0178-.0537.0522-.1003.0983-.1331l1.1413-.8171-1.92 1.1072c-.0512.0296-.1107.0413-.1693.0334-.0585-.008-.1128-.0351-.1542-.0773-.0414-.0421-.0677-.0967-.0747-.1554s.0057-.118.0361-.1687l.3861-.64-.2309.1328c-.061.0319-.1319.039-.198.0198-.066-.0191-.1221-.0631-.15653-.1226-.03442-.0596-.0445-.1301-.02813-.1969.01636-.0668.05786-.1247.11596-.1616l1.1237-.6486c.051-.03.1106-.0421.1692-.0341.0586.0079.1129.0353.154.0779.0415.0421.0679.0967.0749.1554.0071.0587-.0056.1181-.0359.1688l-.3862.64 5.7478-3.3178c.0592-.0335.129-.0431.195-.0268.0661.0163.1234.0572.1603.1144.0368.0572.0505.1263.038.1932-.0124.0669-.0499.1265-.1048.1666l-1.1403.8166 1.0235-.591c.0567-.0312.1229-.0407.1862-.0267.0632.014.1192.0505.1575.1028.0382.0522.0562.1166.0505.1812-.0058.0645-.0348.1247-.0817.1694l-1.8202 1.6608 2.2133-1.2768c.055-.0313.1193-.0421.1815-.0303.0622.0117.1182.0452.158.0945.0398.0492.0607.111.0591.1743s-.0257.1239-.0679.1711l-1.128 1.2427 2.129-1.2267c.0535-.0305.1158-.0416.1765-.0314.0607.0103.116.0412.1565.0875.0405.0464.0637.1053.0657.1668s-.0173.1218-.0547.1707l-.7824 1.0133 1.7766-1.0256c.0551-.0299.119-.0395.1805-.027.0615.0124.1166.0462.1556.0953.0391.0491.0596.1104.0579.1732-.0017.0627-.0255.1228-.0671.1697l-.3557.376.8368-.4826c.0519-.03.1124-.0415.1717-.0328.0594.0087.114.0371.1552.0807s.0665.0998.0718.1595-.0097.1195-.0425.1696l-.2997.4555.3733-.216c.0304-.0193.0643-.0322.0998-.0381.0355-.0058.0718-.0044.1067.0041.035.0086.0678.0241.0966.0457.0287.0216.0529.0488.0709.0799s.0295.0656.0338.1013.0014.0719-.0086.1064c-.01.0346-.0269.0667-.0497.0946-.0228.0278-.0509.0508-.0828.0674l-1.3467.7782c-.0518.0307-.1125.0427-.1721.0341-.0596-.0087-.1144-.0375-.1553-.0816-.0413-.0437-.0665-.1-.0717-.1598-.0053-.0598.0098-.1196.0429-.1698l.2997-.4555-1.44.8326c-.0554.0317-.1204.0424-.1831.0303-.0627-.0122-.119-.0464-.1586-.0965-.0395-.0501-.0598-.1128-.0571-.1766s.0282-.1245.0719-.1711l.3557-.3733-1.3723.7872c-.0534.0305-.1158.0416-.1765.0313-.0607-.0102-.1159-.0411-.1564-.0874-.0405-.0464-.0638-.1053-.0658-.1668s.0173-.1218.0547-.1707l.783-1.0134-2.4352 1.407c-.055.0313-.1194.0421-.1816.0303s-.1182-.0453-.158-.0945c-.0397-.0493-.0607-.1111-.059-.1744.0016-.0632.0257-.1239.0679-.171l1.1285-1.2427-2.8629 1.6533c-.0568.0317-.1231.0415-.1866.0277-.0635-.0139-.1198-.0504-.1582-.1028-.0385-.0524-.0565-.1171-.0506-.1818.0058-.0647.0351-.1251.0823-.1697l1.8198-1.6608-3.6171 2.0864c-.0403.0241-.0864.037-.1333.0373z" fill="#eaeaea"/><path d="m14.7733 28.3825c-.0528 0-.1043-.0157-.1482-.045-.0439-.0294-.078-.0711-.0982-.1198-.0201-.0488-.0254-.1024-.015-.1542.0103-.0517.0358-.0992.0731-.1365l.84-.8395-.3429.1979c-.0564.0334-.123.0449-.1873.0323s-.1217-.0484-.1613-.1006c-.0395-.0523-.0585-.1172-.0532-.1825s.0344-.1264.0818-.1716l.5392-.5157-.2187.1258c-.0554.0318-.1204.0425-.1831.0304-.0627-.0122-.1189-.0464-.1585-.0965s-.0599-.1128-.0572-.1766.0282-.1245.0719-.1711l.8533-.9019-.5242.3019c-.0568.0325-.1236.043-.1876.0295-.0641-.0135-.1209-.0501-.1597-.1028s-.0569-.1179-.0507-.183c.0061-.0652.0359-.1258.0838-.1704l.3344-.3083-.0202.0112c-.0568.0305-.1226.0394-.1853.0251-.0628-.0143-.1183-.0508-.1562-.1028-.038-.052-.0558-.1159-.0503-.1801.0055-.0641.034-.1241.0803-.1688l.2443-.2192c-.0572.0144-.1175.0095-.1715-.014-.0541-.0235-.0988-.0642-.1273-.1158-.0284-.0516-.039-.1112-.03-.1695.009-.0582.037-.1118.0797-.1525l.6235-.5898-.3072.177c-.0575.0327-.1251.0427-.1896.0284-.0645-.0144-.1214-.0523-.1596-.1062-.0382-.054-.055-.1202-.0471-.1858.0078-.0656.0398-.126.0896-.1694l.5531-.4747-.296.1707c-.0548.0314-.1189.0423-.1809.0309-.0621-.0114-.1181-.0445-.1581-.0933s-.0613-.1102-.0603-.1733.0244-.1238.0659-.1713l.8944-1.0133-.8154.4709c-.0532.0305-.1152.0418-.1757.0319s-.1157-.0403-.1564-.0861c-.0406-.0459-.0643-.1043-.067-.1655-.0026-.0612.0159-.1215.0524-.1707l.1829-.2442-.1141.0656c-.0336.0198-.0712.0318-.11.0352-.0389.0035-.078-.0018-.1145-.0155-.0368-.0133-.0702-.0345-.0978-.0622-.0277-.0276-.0489-.061-.0622-.0978l-.16-.4384c-.051.004-.1021-.0063-.1476-.0297-.0454-.0233-.0835-.0588-.11-.1026-.0354-.0612-.045-.134-.0267-.2023s.063-.1266.1243-.1619l.1776-.1024c.0337-.0198.0713-.0319.1103-.0353.0389-.0034.0781.0019.1147.0155.0368.0134.0702.0346.0978.0622.0277.0277.0489.0611.0622.0978l.1494.4166.9658-.5616c.0532-.0305.1152-.0417.1757-.0318.0605.0098.1157.0402.1564.0861.0406.0458.0643.1042.067.1654.0026.0612-.0159.1215-.0524.1707l-.1829.2437 1.0997-.6341c.0547-.0314.1188-.0424.1809-.0309.062.0114.118.0444.158.0932.04.0489.0614.1103.0604.1734-.0011.063-.0244.1237-.066.1712l-.8944 1.0133 1.3707-.7914c.0576-.0333.1255-.0438.1905-.0296.0649.0142.1222.0522.1606.1065s.0551.121.0469.187c-.0082.0659-.0408.1265-.0913.1697l-.6544.5616c.0551-.0049.1104.0075.1582.0355.0478.0279.0857.0701.1084.1205.0228.0505.0292.1068.0185.1611-.0107.0544-.038.104-.0782.1421l-.6245.5888.1445-.0832c.0567-.0305.1225-.0393.1853-.0251.0627.0143.1182.0508.1562.1028.0379.052.0558.116.0503.1801s-.0341.1241-.0803.1688l-.2507.2246c.0573-.0136.1176-.0077.1712.0166.0537.0243.0978.0657.1255.1177.0277.0521.0373.1118.0274.1699-.0098.0581-.0387.1113-.082.1512l-.3344.3083.0203-.0112c.0554-.0313.1201-.0418.1826-.0296.0624.0122.1184.0464.1579.0963s.0598.1122.0573.1758-.0276.1242-.0709.1708l-.8533.9024.5243-.3024c.0563-.0334.123-.0449.1873-.0323s.1217.0485.1612.1007c.0396.0522.0585.1172.0533.1825-.0053.0653-.0344.1263-.0818.1715l-.5334.5179.2176-.1253c.056-.0308.1211-.0404.1836-.0272.0624.0132.1181.0483.1568.0991.0387.0507.058.1137.0543.1774-.0038.0637-.0303.124-.0747.1699l-.841.8426.5189-.2997c.0612-.0348.1337-.044.2017-.0255.0679.0184.1258.063.161.124s.0449.1334.0269.2015-.0622.1263-.1229.1619l-2.2768 1.3141c-.0406.0239-.0868.0365-.1339.0363z" fill="#eaeaea"/><path d="m15.8794 20.5138c-.0575.0001-.1134-.0184-.1595-.0526-.046-.0343-.0798-.0825-.0963-.1375s-.0148-.1139.0049-.1678c.0196-.054.0562-.1002.1042-.1317l.7776-.5114-1.5467.8917c-.0601.0373-.1325.0491-.2014.033-.0689-.0162-.1285-.059-.1658-.1191-.0372-.0602-.0491-.1326-.0329-.2015.0161-.0688.059-.1285.1191-.1657l2.5066-1.6582-3.2992 1.9051c-.0602.0343-.1314.0438-.1985.0265-.0671-.0174-.1248-.0601-.161-.1193-.0361-.0591-.0478-.13-.0325-.1976.0152-.0676.0562-.1266.1142-.1645l1.7882-1.151-2.3386 1.3504c-.06.0336-.1306.0427-.1971.0254-.0666-.0172-.1239-.0595-.16-.118-.0361-.0584-.0482-.1286-.0339-.1958.0144-.0672.0541-.1263.111-.1649l4.5866-3.0261-5.2922 3.0576c-.0601.0348-.1313.0448-.1986.0279-.0673-.0168-.1254-.0593-.1619-.1183-.0366-.059-.0486-.1299-.0337-.1977s.0557-.1271.1136-.1653l5.5808-3.68-6.2293 3.5958c-.0605.0349-.1324.0446-.2.0271-.0677-.0175-.1258-.0609-.1618-.1208s-.047-.1315-.0307-.1995.0586-.1268.1178-.1639l1.592-.9979-1.8506 1.0699c-.06.0318-.1299.0395-.1954.0215s-.1217-.0603-.1571-.1182c-.0354-.058-.0473-.1273-.0333-.1938.0139-.0664.0527-.1251.1084-.1639l5.28-3.4011-5.68316 3.2784c-.06016.0331-.13077.0417-.19713.0241-.06635-.0177-.12333-.0603-.15907-.1189-.03574-.0587-.04749-.1288-.0328-.1959s.05469-.1259.11167-.1642l5.08269-3.2485-5.38029 3.1056c-.02984.0183-.063.0306-.09758.0361-.03459.0056-.06993.0042-.104-.0039-.03408-.0081-.06622-.0228-.09459-.0434-.02837-.0205-.05242-.0465-.07077-.0763s-.03064-.063-.03617-.0976c-.00554-.0346-.00421-.0699.00391-.104.00813-.0341.02288-.0662.04342-.0946.02054-.0283.04648-.0524.07631-.0707l7.15736-4.68-7.51309 4.3376c-.06042.0338-.13164.0428-.1986.0251-.06695-.0177-.12438-.0608-.16013-.1201-.03576-.0593-.04703-.1302-.03144-.1977s.05682-.1262.11497-.1639l3.12209-1.9637-3.21116 1.8533c-.06023.0343-.13143.0438-.19854.0265-.0671-.0173-.12483-.0601-.16095-.1192-.03612-.0592-.04781-.13-.03257-.1976.01524-.0677.05619-.1267.1142-.1646l4.30722-2.7648-4.39576 2.5376c-.05998.0335-.1306.0426-.19712.0254-.06652-.0173-.12382-.0595-.15993-.118-.03612-.0585-.04826-.1286-.03391-.1958.01436-.0673.05411-.1263.11096-.1649l4.93176-3.2534-5.00429 2.8902c-.06042.0338-.13164.0428-.1986.0251-.06695-.0177-.12438-.0608-.16013-.1201-.03576-.0593-.04703-.1302-.03144-.1977s.05682-.1262.11497-.1639l.0896-.0565c-.06047.0304-.13023.0367-.19514.0175-.06492-.0191-.12013-.0622-.15445-.1205-.03432-.0584-.04517-.1276-.03037-.1936s.05416-.124.11009-.1621l3.85596-2.6016-3.78662 2.1867c-.06003.0331-.13048.0417-.19673.0242s-.12323-.0598-.15911-.1182c-.03588-.0583-.04791-.1283-.03359-.1953s.05389-.1259.11049-.1646l.78667-.512-.608.351c-.05931.0338-.12934.0436-.19566.0273-.06631-.0162-.12386-.0573-.16079-.1148-.03692-.0574-.0504-.1268-.03767-.1939s.05072-.1267.10612-.1666l2.976-2.11684-2.75414 1.58984c-.05939.0343-.12969.0443-.1963.0281-.06662-.0162-.12442-.0575-.16142-.1152-.03699-.0577-.05033-.1275-.03725-.1948s.05158-.1269.10751-.1666l1.54667-1.0965-1.24801.721c-.05939.0343-.12969.0443-.1963.0281-.06662-.0162-.12442-.0575-.16142-.1152-.03699-.0577-.05033-.1275-.03725-.1948s.05158-.1269.10751-.1666l.37333-.2629-.04747.0272c-.0589.0335-.12834.0433-.19421.0274s-.12323-.0562-.16044-.11282c-.03721-.05663-.05146-.12529-.03988-.19205.01159-.06675.04816-.12659.10227-.16737l.2736-.20373c-.05849.01249-.11948.00496-.17318-.02139-.05369-.02634-.09697-.06998-.12288-.12388-.0259-.05391-.03294-.11496-.01997-.17335.01298-.05838.0452-.11071.0915-.14858l.38079-.3104c-.06467-.00638-.12479-.03615-.16906-.08373-.04108-.04433-.06587-.1013-.07033-.16158-.00446-.06027.01169-.12026.04579-.17016l.616-.9024c-.00818-.00983-.0155-.02036-.02186-.03146-.01798-.03023-.0298-.06371-.03478-.09852-.00498-.03482-.00303-.07027.00574-.10432.00877-.03406.0242-.06604.04538-.09411.02119-.02807.04772-.05168.07806-.06945l.37333-.21334c.05239-.03045.11358-.04216.17351-.03319s.11502.03809.15619.08255.06597.10162.07032.16206c.00434.06044-.01203.12056-.04642.17045l-.32.46667 1.472-.84854c.05798-.03256.12604-.04228.19082-.02725.06478.01502.12161.05371.15934.10847.0377.05475.0536.12164.0446.18752s-.0423.12601-.09342.1686l-.13601.11093.95043-.54827c.0588-.03278.1279-.04206.1934-.02597.0654.01609.1223.05636.1593.11271.0369.05634.0512.12459.0399.19102s-.0474.12611-.1009.16704l-.1835.13654 1.008-.58187c.0594-.03425.1297-.0443.1963-.02808.0667.01622.1245.05748.1615.1152s.0503.12748.0372.19478-.0516.12697-.1075.16663l-.3733.26667 1.2357-.71467c.0594-.03424.1297-.0443.1963-.02808.0666.01623.1244.05748.1614.11521.037.05772.0504.12747.0373.19477s-.0516.12698-.1075.16664l-1.5467 1.096 2.6773-1.54667c.0594-.03383.1294-.04362.1957-.02736.0663.01627.1239.05735.1608.11479s.0504.12685.0377.19393c-.0128.06709-.0508.12673-.1062.16664l-2.9765 2.11413 4.4437-2.56c.06-.03219.13-.04022.1957-.02246s.1222.05997.1578.11799.0476.12746.0337.19408c-.014.06662-.0529.12539-.1088.16426l-.7786.50667 1.665-.96c.0597-.03271.1296-.04137.1955-.02422.0658.01715.1226.05882.1587.11648s.0489.12694.0356.19367-.0516.12585-.1071.16527l-3.8619 2.6064 5.2971-3.0576c.0603-.03317.1311-.04173.1976-.0239.0665.01784.1235.06068.1591.11958s.0471.12929.032.19644-.0556.12587-.113.16388l-.08.05333.879-.5072c.0598-.03223.1297-.04039.1954-.02282.0656.01757.1221.05955.1578.11735.0358.05781.0481.12708.0345.19367s-.0522.12546-.1077.1646l-4.9334 3.25337 6.4198-3.70617c.0602-.03428.1314-.04377.1985-.02646s.1248.06007.161.11921c.0361.05914.0478.13003.0325.19763-.0152.06761-.0562.12663-.1142.16455l-4.305 2.7632 5.576-3.21866c.0602-.0322.1305-.04005.1964-.02193s.1223.06083.1576.11932c.0353.0585.0468.1283.0321.19503-.0146.06672-.0544.12528-.1109.16358l-3.1147 1.95946 3.6485-2.10613c.0601-.03415.1311-.04365.1981-.02649.0669.01716.1246.05965.1608.11849.0362.05885.0482.12947.0334.19697-.0148.06751-.0552.12663-.1128.1649l-7.1616 4.6773 7.2965-4.2133c.0603-.03369.1313-.04269.1981-.02511.0667.01759.1241.06038.1599.11939.0359.059.0475.12961.0323.19698-.0151.06736-.0558.12622-.1135.1642l-5.0768 3.24534 4.9067-2.8336c.0602-.03309.1308-.0417.1971-.02403.0664.01767.1234.06025.1591.11888s.0475.12879.0328.19586c-.0147.06708-.0547.1259-.1117.16422l-5.28 3.40107 5.0763-2.93334c.0604-.03385.1317-.04287.1986-.02514.067.01772.1244.0608.1601.12011.0358.05932.0471.13022.0315.19767-.0156.0675-.0568.1263-.115.1639l-1.5904 1.0043 1.3488-.7787c.06-.0336.1306-.0426.1971-.0254.0666.0173.1238.0595.16.118.0361.0585.0482.1286.0339.1958-.0144.0672-.0541.1263-.111.1649l-5.5803 3.68 5.2603-3.0362c.0598-.0323.1297-.0404.1954-.0229.0656.0176.1221.0596.1579.1174.0357.0578.048.1271.0344.1937s-.0521.1254-.1077.1646l-4.5909 3.0282 4.1472-2.3941c.0602-.0343.1314-.0438.1985-.0265.0671.0174.1248.0601.161.1192.0361.0592.0478.1301.0325.1977-.0152.0676-.0562.1266-.1142.1645l-1.784 1.1483 1.2864-.7429c.0601-.0348.1313-.0449.1986-.028.0674.0169.1254.0593.162.1183.0365.059.0486.13.0336.1977-.0149.0678-.0557.1271-.1136.1653l-2.5099 1.6608 1.8384-1.0608c.06-.0336.1306-.0426.1971-.0254.0666.0173.1238.0595.16.118.0361.0585.0482.1286.0339.1958-.0144.0672-.0541.1263-.111.1649l-.7707.5078.0091-.0054c.0585-.0334.1275-.0434.1931-.028s.1229.055.1605.111c.0375.0559.0525.124.0419.1905-.0105.0665-.0459.1266-.099.1681l-2.3776 1.8347.6064-.3493c.061-.0319.1319-.039.1979-.0199.0661.0192.1222.0632.1566.1227s.0445.1301.0282.1969c-.0164.0668-.0579.1247-.116.1616l-4.0533 2.3403c-.0585.0334-.1275.0434-.1931.028s-.1229-.055-.1605-.111c-.0375-.0559-.0525-.124-.042-.1905.0106-.0665.046-.1266.099-.1681l2.3755-1.8342-4.4224 2.5526c-.0408.0224-.0868.0338-.1333.033z" fill="#f3c2c7"/><path d="m11.9641 11.4434c-.0571.0001-.1128-.0181-.1587-.052s-.0798-.0817-.0966-.1363c-.0168-.0545-.0156-.1131.0034-.1669.019-.0539.0547-.1002.102-.1322l5.3909-3.64323-6.713 3.87573c-.0604.0369-.1329.0484-.2017.0318-.0687-.0165-.1281-.0597-.165-.1201-.0369-.0603-.0484-.1328-.0318-.2016.0165-.0687.0597-.1281.1201-.165l4.2432-2.74937-4.96005 2.86297c-.06003.0348-.13128.0448-.19859.0279-.06732-.0168-.1254-.0593-.16192-.1183s-.0486-.1299-.03366-.1977c.01493-.0678.0557-.1271.11364-.1653l6.10718-4.0293-6.80158 3.9296c-.06047.0367-.13304.0479-.20176.0311-.06871-.0168-.12793-.0602-.16464-.1207s-.04789-.133-.03108-.2018c.0168-.06867.06021-.12789.12068-.1646l3.95358-2.51947-4.28531 2.4736c-.05984.03223-.12973.04039-.19538.02282-.06566-.01757-.12212-.05955-.15787-.11735-.03574-.05781-.04807-.12708-.03446-.19367.01362-.06658.05214-.12546.10771-.1646l6.26401-4.14186-6.64748 3.84c-.0597.03357-.13004.04289-.19643.02601s-.12373-.05866-.16015-.11668c-.03641-.05802-.0491-.12783-.03544-.19495s.05263-.12641.10882-.16558l6.02668-4.0816-5.56855 3.2128c-.06032.03691-.13285.04836-.20161.0318-.06876-.01655-.12813-.05974-.16505-.12007s-.04836-.13285-.03181-.20161c.01655-.06877.05975-.12814.12007-.16506l1.78187-1.15093-1.34347.77547c-.06008.03415-.13107.04365-.19801.02649-.06695-.01717-.12462-.05965-.16085-.1185-.03624-.05885-.04821-.12946-.0334-.19697.01481-.0675.05525-.12662.1128-.16489l1.27093-.83253-.8.46186c-.05989.03472-.13094.04478-.19811.02806-.06718-.01672-.12522-.0589-.16186-.11763-.03664-.05874-.049-.12942-.03448-.1971.01453-.06768.0548-.12707.11232-.16559l1.4128-.94987-.8912.5136c-.05819.03304-.12667.04299-.19185.0279-.06518-.0151-.12231-.05416-.16004-.10941-.03774-.05526-.05332-.12268-.04366-.18889.00967-.06621.04386-.12636.09581-.16853l2.73815-2.18667-1.95735 1.13227c-.05788.0334-.1262.04384-.19142.02927-.06522-.01458-.1226-.05311-.16076-.10798-.03816-.05486-.05433-.12205-.04531-.18827s.04258-.12664.09403-.16929l1.05386-.87147-.3232.18667c-.05421.03092-.11755.04184-.17899.03087s-.11708-.04314-.15724-.09092c-.04016-.04777-.0623-.10812-.06254-.17053-.00025-.06241.0214-.12293.06117-.17102l.6848-.824c-.04869-.01627-.09166-.04625-.12373-.08634-.03208-.0401-.05189-.08859-.05707-.13968-.00519-.05108.00449-.10257.02786-.148284.02337-.045716.05944-.083714.10388-.10943l.91571-.5296c.0542-.031241.1177-.042418.1794-.031576.0616.010841.1174.043012.1577.090881s.0625.108387.0627.170963c.0002.062577-.0216.123226-.0616.171332l-.51791.620804 1.77551-1.022404c.0578-.032825.1259-.042833.1907-.028058.0649.014775.1219.053264.1599.107912.0379.054649.0541.121508.0452.187451-.0088.065944-.0419.126208-.0929.168962l-1.0496.869867 2.2624-1.306134c.0582-.033038.1267-.042995.1918-.027896.0652.015099.1223.054151.1601.109407.0377.055256.0533.122678.0436.188887-.0096.066209-.0438.126366-.0958.168535l-2.7381 2.186671 4.5493-2.625604c.0598-.033094.1299-.042.1961-.02488.0661.017121.1231.058961.1593.116894.0362.057932.0488.12754.0351.19447-.0136.06693-.0524.126079-.1083.16525l-1.4123.9504 2.4309-1.402134c.0601-.034155.1311-.043652.198-.026489.067.017163.1246.059645.1609.118493.0362.058849.0482.129466.0334.19697s-.0553.126621-.1128.164893l-1.272.829867 2.2267-1.283734c.06-.032604.1303-.040899.1963-.023174.066.017724.1227.060116.1584.118424.0356.058308.0475.128081.0332.194914s-.0537.125624-.1101.164236l-1.7749 1.145604 2.7733-1.600004c.0597-.033577.1301-.04289.1965-.02601.0663.016881.1237.05866.1601.116678s.0491.127824.0354.194947c-.0136.067124-.0526.126416-.1088.165585l-6.0266 4.082134 7.8522-4.533334c.0599-.03306.1302-.041843.1964-.024532.0662.017312.1232.059393.1592.117543.036.058149.0483.12792.0344.194885-.014.066965-.0532.126002-.1094.164904l-6.2678 4.140804 7.1739-4.14187c.0605-.036706.133-.047888.2017-.031084.0688.016803.128.060214.1647.120684.0367.060469.0479.133043.0311.20176-.0168.06871-.0602.12793-.1207.16464l-3.9504 2.51733 4.0091-2.31413c.0598-.03223.1297-.04039.1953-.02282.0657.01757.1222.05955.1579.11735.0357.05781.0481.12708.0345.19367-.0137.06659-.0522.12546-.1077.1646l-6.1078 4.0304 6.2059-3.58293c.0602-.03429.1314-.04378.1985-.02646.0671.01731.1249.06007.161.11921s.0478.13002.0325.19763c-.0152.0676-.0561.12662-.1141.16455l-4.2432 2.74933 4.2517-2.45333c.0598-.03408.1304-.04372.1972-.0269.0667.01682.1244.05879.1609.11713.0365.05835.049.12855.035.19592-.0141.06738-.0537.12671-.1104.16558l-5.392 3.64267 5.432-3.136c.06-.03481.1312-.04484.1985-.02797.0674.01687.1255.05933.162.11834s.0486.12994.0336.19771c-.0149.06777-.0557.12706-.1136.16525l-2.9248 1.9328 2.8656-1.65333c.0584-.03256.1269-.04199.192-.0264.065.01558.1218.05504.1591.11054s.0524.123.0423.18911-.0447.12601-.0969.16782l-1.6074 1.25173 1.5285-.88213c.0526-.03024.1139-.04165.1738-.03236.0599.0093.1149.03874.1558.08348.041.04473.0655.10209.0694.1626.004.06052-.0128.12058-.0475.17028l-.5462.77706.4086-.23573c.0438-.02523.094-.03744.1445-.03522.0506.00222.0995.01878.141.04775s.0739.06916.0934.11586.0253.09799.0168.14788l-.0485.28266c.0485.01641.0912.04645.1232.08652.0319.04007.0515.08848.0567.13945.0051.05097-.0046.10233-.0279.14794-.0233.04562-.0592.08356-.1035.10929l-.2549.14774c-.0439.02522-.0941.03744-.1446.03522-.0506-.00222-.0995-.01878-.141-.04776-.0415-.02897-.0739-.06915-.0934-.11585-.0195-.04671-.0253-.098-.0168-.14788l.0262-.1696-.96.55413c-.0526.03051-.114.04214-.1741.03297-.0601-.00918-.1153-.03861-.1564-.08342-.041-.04481-.0656-.10231-.0695-.16297s.013-.12085.048-.17058l.5461-.77706-3.8277 2.21226c-.0585.03318-.1273.04307-.1927.0277-.0654-.01538-.1226-.05489-.1602-.11063-.0375-.05574-.0526-.1236-.0423-.19s.0454-.12645.0981-.16813l1.608-1.2512-7.1749 4.14023c-.0599.0323-.1298.0404-.1954.0229-.0657-.0176-.1221-.0596-.1579-.1174-.0357-.0578-.0481-.1271-.0344-.1937.0136-.0666.0521-.1254.1077-.1646l2.9248-1.9333-4.3035 2.4848c-.0403.0241-.0864.037-.1333.0373z" fill="#eaeaea"/><path d="m23.8806 2.88453c-.3734-1.26666-1.0134-2.9551963-2.6422-2.623463-3.617.0064-7.2368-.006933-10.8533-.000533-1.08108.053333-1.47255.822936-1.84801 1.706666-3.04 6.2896-3.17494 16.1915 4.96321 18.2427 1.6416 2.1546.9477 5.1024.9968 7.6234-.5147 2.2187-4.2032.9014-4.75041 2.9824.01386.9867 1.20211.8272 1.87311.8272 3.3514-.1973 6.8997.4 10.1632-.2357 1.7792-1.9424-2.3606-1.9621-3.399-2.5637-1.3205-.768-.9312-2.823-.9312-4.103 0-1.6128-.1178-3.2096.9131-4.5392 7.5813-1.9605 8.3664-11.13383 5.5147-17.31677zm-15.04005.2416c.24854-.66826.61867-2.215996 1.44005-2.318396 3.1605-.0064 6.3306.004266 9.4933 0 3.6645-.80320031 3.7403 3.999996 4.5131 6.518396-5.6603-.01813-11.9654 7.28377-16.80005 1.36427.23087-1.90179.68613-3.76955 1.35627-5.56427zm7.84005 20.72857c-.1446 4.1445-.4267 5.3728 4.0896 6.209.553.103 1.0554.8976.4309 1.2267-2.8464.0213-5.7387-.0149-8.6016 0-.5477 0-1.8.2555-2.0379-.4315-.369-1.0666 2.1126-1.3381 2.7686-1.4858 3.0869-.3808 2.2432-6.952 1.2752-8.9376.9762.1487 1.9704.1324 2.9413-.048-.7339 1.0304-.8661 2.1968-.8661 3.4672zm6.8005-8.3307c-4.4901 8.6064-17.69441 3.3936-16.09015-5.8448 5.38665 4.8533 11.23255-1.944 16.96325-2.0064.4933 2.6859.4784 5.4107-.8731 7.8512z" fill="#262626"/></svg>