<svg fill="none" height="44" viewBox="0 0 44 44" width="44" xmlns="http://www.w3.org/2000/svg"><path d="m22.2433 43.6134c-.1115 0-.2208-.0506-.2919-.1452-.1115-.1474-.0961-.3549.0367-.484l.5654-.55-1.958 1.1301c-.157.0924-.3608.0528-.4745-.0939-.1122-.1459-.099-.3527.0315-.4825l1.3171-1.3164-3.2699 1.8876c-.1672.099-.3828.0462-.4899-.1158-.1071-.1621-.0682-.3806.0887-.4965l.2215-.1643-.6512.3762c-.1401.0807-.3175.0609-.4363-.0513-.1174-.1115-.1474-.2882-.0741-.4327l.4686-.9181-.1144.066c-.1738.1012-.3989.0418-.5009-.1342-.1019-.176-.0418-.3997.1342-.5009l1.188-.6871c.1408-.0807.3183-.0609.4356.0513.1181.1115.1482.2882.0748.4327l-.4693.9189 5.1942-2.9986c.1679-.0976.3828-.0455.4899.1158.107.1628.0682.3806-.0888.4965l-.2251.1665.0741-.0426c.1576-.0924.3622-.052.4737.0939.1122.1459.099.3527-.0315.4825l-1.3178 1.3171 2.0892-1.2063c.1577-.0939.363-.0521.4752.096.1115.1474.0961.355-.0366.484l-.5654.55 1.474-.8499c.1525-.0902.3505-.0543.4649.0821.1137.1364.1137.3352-.0015.4716l-.605.7172.9182-.5302c.1503-.0873.341-.0565.4568.0733.1152.1291.1247.3219.0213.462l-.2757.374c.0931.0235.1767.0829.2288.1723.1019.1753.0418.3997-.1342.5009l-1.0949.6321c-.1496.088-.3403.0572-.4569-.0733-.1151-.1291-.1246-.3219-.0212-.462l.1239-.1679-1.2181.7025c-.1532.0895-.3505.055-.4649-.0821-.1137-.1364-.1137-.3352.0015-.4716l.605-.7164-2.2008 1.2694c-.0572.0337-.1202.0491-.1833.0491z" fill="#bacecd"/><path d="m20.5043 39.8704c-.1071 0-.2127-.0469-.2845-.1357-.1137-.1393-.1086-.341.0109-.4752l1.4242-1.5994-.9159.5295c-.157.0917-.3579.0521-.4731-.0917-.1122-.1437-.1019-.349.0257-.4803l1.0677-1.1044-.6211.3586c-.1577.0931-.3608.0528-.4737-.0939-.1122-.1459-.099-.352.0315-.4825l.9211-.9211-.4781.2758c-.1526.0887-.3491.0557-.4628-.0792-.1144-.135-.1166-.3322-.0051-.4694l1.3009-1.5994-.8338.4811c-.1261.0741-.2875.0645-.4048-.0249-.1173-.0888-.1701-.2398-.1342-.3821l.2083-.8213c-.0697-.0301-.1306-.0822-.1709-.1526-.1012-.1752-.0411-.3996.1349-.5016l.3718-.2141c.1284-.0726.2875-.0638.4048.0257.1174.0887.1702.2398.1342.382l-.1576.619 1.8069-1.0428c.1518-.0902.3476-.0558.4627.0792.1144.1349.1167.3322.0052.4693l-1.3017 1.6001 1.1638-.6717c.1584-.0924.3623-.0513.4738.0939.1122.1459.099.352-.0316.4825l-.9196.9196.4767-.275c.1569-.0924.3586-.0528.473.0917.1122.1437.1019.349-.0257.4803l-1.0677 1.1044.6211-.3586c.154-.0909.3535-.0543.4679.0858.1137.1393.1085.341-.011.4752l-1.4249 1.5994.968-.5588c.1745-.1019.3997-.0425.5009.1342.1019.1753.0418.3997-.1342.5009l-2.9407 1.6976c-.0572.0338-.1203.0499-.1833.0499z" fill="#bacecd"/><path d="m15.8584 6.08789c-.1262 0-.2501-.066-.3176-.18333-.1019-.17527-.0418-.39967.1342-.50087l1.4447-.83453c.1745-.10193.3997-.0418.5009.1342.1019.17527.0418.39967-.1342.50087l-1.4447.83453c-.0579.03373-.121.04913-.1833.04913z" fill="#e5283f"/><path d="m21.8264 32.6061c-.1232 0-.2435-.0624-.3124-.1746-.1042-.1686-.0543-.3901.1114-.4986l1.3626-.8925-2.4545 1.4168c-.1701.1005-.3879.0455-.4935-.1217s-.0594-.3865.1034-.498l6.6161-4.5364-8.2229 4.7476c-.1723.1005-.3908.044-.4957-.1246-.1041-.1687-.055-.3902.1107-.4994l6.0002-3.938-7.0386 4.0634c-.173.1012-.3923.044-.4964-.1269-.1042-.1694-.0521-.3916.1151-.4994l4.9141-3.1497-5.6335 3.2524c-.1716.099-.3909.0447-.4957-.1247-.1042-.1679-.055-.3894.11-.4987l9.1454-6.0382-10.1112 5.8373c-.1716.1005-.3924.0447-.4965-.1261-.1041-.1694-.0528-.3916.1137-.4994l8.1979-5.291-8.8543 5.112c-.173.0998-.3916.0448-.495-.1239-.1048-.1679-.0564-.3894.1086-.4994l9.6807-6.4255-10.3877 5.9972c-.1723.0998-.3901.0448-.495-.1232-.1048-.1679-.0564-.3886.1071-.4986l8.5507-5.7244-9.0831 5.2433c-.1709.0997-.3887.0455-.4943-.1225-.1048-.1679-.0579-.3879.1056-.4986l7.4133-5.0182-7.7895 4.4975c-.173.0997-.3908.044-.4957-.1247-.1041-.1686-.055-.3894.11-.4994l4.2189-2.7786-4.3238 2.4963c-.1708.1005-.38864.0447-.49424-.1225-.10487-.1679-.05794-.3879.1056-.4986l4.35744-2.9473-4.41538 2.5491c-.17233.0997-.39013.0447-.495-.124-.10486-.1686-.05646-.3886.1078-.4986l2.10468-1.4036-2.02108 1.1667c-.17013.099-.38573.0455-.4928-.1203-.1056-.1657-.0616-.3842.099-.4972l2.97958-2.0929-2.86811 1.6559c-.16793.0975-.38207.0469-.48913-.1144-.10707-.1614-.06967-.3792.08506-.4958l2.89518-2.1816-2.70524 1.562c-.1628.096-.37327.0491-.48254-.1056-.10926-.1548-.08286-.3674.06087-.4906l2.31951-1.9866-1.99684 1.152c-.15987.0939-.3652.0521-.47667-.0982-.11073-.1482-.09387-.3572.04107-.4848l1.056-1.0032-.62627.3616c-.13787.0792-.31313.0616-.4312-.047-.11807-.1078-.1518-.2801-.08433-.4246l.41873-.8983c-.13787.0183-.28967-.0477-.3652-.1804-.10193-.1753-.0418-.3997.1342-.5009l.8514-.4913c.1386-.0792.31313-.0609.4312.0469.11811.1078.15181.2802.08431.4246l-.39818.8536 2.29678-1.3258c.1592-.0939.3652-.0514.4767.0982.1107.1482.0939.3572-.0411.4848l-1.0567 1.0039 2.7493-1.5869c.1642-.0954.374-.0484.4825.1056.1093.1547.0829.3674-.0609.4906l-2.3188 1.9858 4.4726-2.582c.1665-.099.3821-.0462.4892.1144.107.162.0696.3791-.0851.4957l-2.8967 2.1824 4.8378-2.7925c.1709-.099.3865-.0455.4928.1202.1056.1658.0616.3843-.099.4972l-2.9788 2.0915 4.6919-2.7082c.1709-.1012.3894-.0455.495.1239.1049.168.0565.3887-.1078.4987l-2.1061 1.4043 3.5112-2.0269c.1716-.0983.3894-.0447.4942.1225.1049.1679.058.3879-.1056.4986l-4.3552 2.9458 6.1783-3.5662c.1723-.0997.3909-.044.4957.1247.1042.1687.055.3894-.11.4994l-4.2188 2.7779 5.893-3.402c.1716-.0982.3894-.0454.4943.1225s.0579.3879-.1056.4987l-7.414 5.0182 9.7673-5.6386c.1708-.1012.3894-.0448.495.1232.1048.1679.0564.3886-.1071.4986l-8.5492 5.7237 10.9897-6.3448c.1716-.1012.3909-.0455.495.1239.1049.168.0565.3894-.1085.4994l-9.6815 6.4262 11.4914-6.6344c.1723-.0998.3923-.0448.4964.1261.1042.1694.0528.3916-.1136.4994l-8.1972 5.2903 7.8811-4.5496c.1709-.1005.3901-.0455.4957.1246.1042.168.055.3894-.11.4987l-9.1432 6.0368 8.7443-5.0483c.1738-.1004.3931-.0432.4965.1269.1041.1694.052.3916-.1152.4994l-4.914 3.1497 4.4352-2.5601c.1723-.1005.3908-.044.4957.1247.1041.1686.055.3901-.1107.4994l-6.0024 3.9394 5.3402-3.0829c.1716-.099.3886-.0455.4935.1217.1056.1672.0594.3865-.1034.498l-6.6154 4.5349 5.5873-3.2252c.1723-.1005.3916-.044.4957.1254s.0543.3901-.1115.4987l-1.3647.8939.3344-.1929c.1716-.1004.3894-.0447.4943.1232.1048.168.0579.388-.1064.4987l-1.2716.8551c.143-.0228.2904.0337.3733.1591.1071.1628.0682.3799-.0873.4957l-2.1816 1.6273c.0513.0308.096.0748.1276.1305.1019.1753.0418.3997-.1342.5009l-3.74 2.1589c-.1672.099-.3828.0462-.4899-.1151-.1071-.1628-.0682-.3799.0873-.4957l.8822-.6578-3.4672 2.0012c-.1724.0998-.3902.0448-.4943-.1232-.1049-.1679-.0579-.3879.1063-.4986l1.0091-.6784-2.42 1.3963c-.0579.0337-.121.0491-.1833.0491z" fill="#dceaea"/><path d="m22.1939 29.6706c-.1181 0-.234-.0572-.3051-.1635-.1071-.1606-.0719-.3769.0814-.4943l4.1375-3.1746-6.141 3.545c-.1664.0975-.3806.0469-.4876-.113-.1071-.1598-.0726-.3762.0792-.4942l3.9072-3.0265-5.2954 3.0573c-.1672.0975-.3821.0469-.4892-.1152-.107-.162-.0696-.3791.0858-.4957l2.7735-2.0775-3.586 2.0694c-.1672.0976-.3821.0455-.4891-.1151-.1071-.1628-.0697-.3799.0858-.4957l1.9096-1.4278-2.4384 1.408c-.1657.0968-.3791.0476-.4869-.1108-.1071-.1598-.0748-.3747.0763-.4942l1.7409-1.3765-2.1846 1.2621c-.1613.096-.3718.0498-.4818-.1049-.1093-.154-.0843-.3659.0587-.4899l1.4615-1.2679-1.815 1.0472c-.1555.0909-.3557.0535-.4693-.088-.1137-.1408-.1071-.3439.0154-.4767l1.1-1.1997-1.3765.7942c-.1452.0851-.33.0587-.4466-.0631-.1173-.121-.1371-.3058-.0469-.4488l.4605-.7348-.5243.3022c-.1078.0623-.2406.0645-.3506.0095-.1107-.0572-.1855-.1665-.198-.2904l-.0542-.5361c-.1203-.0058-.2347-.0711-.2992-.1826-.1012-.1752-.0411-.3996.1349-.5016l.2955-.1701c.1071-.0616.2391-.0645.3513-.0088.11.0572.1848.1665.1973.2904l.0476.4723 1.309-.7554c.1445-.0858.3286-.0594.4474.0631.1166.121.1364.3058.0462.4488l-.4606.7348 2.1663-1.2503c.1555-.0917.3557-.0536.4693.088.1137.1408.1071.3439-.0154.4766l-1.1 1.1998 3.0646-1.7688c.1628-.0954.3726-.0492.4818.1048.1093.154.0844.366-.0586.4899l-1.4601 1.2672 3.2296-1.8649c.165-.0975.3784-.0476.4869.1108.1071.1591.0748.3747-.0762.4942l-1.7439 1.3787 3.4408-1.9866c.1665-.099.3813-.0462.4899.1151.107.1628.0689.3799-.0866.4958l-1.9096 1.4263 3.5362-2.0409c.1657-.0982.382-.0469.4891.1152.1071.162.0697.3791-.0858.4957l-2.772 2.0768 4.6611-2.6913c.1657-.0976.3806-.047.4876.1129.1071.1599.0726.3762-.0792.4943l-3.9079 3.0272 6.303-3.6388c.1665-.0976.3806-.0477.4884.1136.1071.1606.0719.377-.0814.4943l-4.136 3.1739 3.7239-2.1502c.1679-.099.3842-.0462.492.1188.1056.165.0638.3828-.096.4972l-1.2988.9262c.0924.0235.1753.0829.2266.1716.102.1753.0418.3997-.1342.5009l-5.4589 3.1519c-.1679.0975-.385.0462-.4921-.1188-.1056-.165-.0638-.3828.0961-.4972l.4092-.2912-1.9441 1.122c-.0572.0338-.121.0492-.1833.0492z" fill="#e5283f"/><path d="m16.4451 12.0448c-.1078 0-.2141-.0477-.286-.1371-.1129-.1408-.107-.344.0154-.4774l1.576-1.72264-3.1468 1.81724c-.1664.0975-.3806.0476-.4876-.113-.1071-.1606-.0726-.3769.0799-.4942l1.0017-.773-1.6023.9248c-.1628.0953-.3747.0491-.4833-.1071-.1085-.1555-.0814-.3681.0638-.4906l2.7757-2.3452-3.4782 2.0079c-.1533.0894-.3505.055-.4649-.0822-.1144-.1371-.1137-.33584.0022-.47224l1.4006-1.6522-1.4644.8448c-.154.08947-.352.05427-.4664-.0836-.1144-.13786-.1115-.33806.0058-.47373l.6674-.77073c-.1115-.0132-.2156-.07627-.2758-.18114-.1019-.17526-.0418-.39966.1342-.50086l1.518-.8756c.154-.0902.3513-.05427.4664.0836.1137.13786.1115.33806-.0058.47373l-.5229.60353 1.4058-.81106c.1533-.0902.3505-.05427.4649.08213s.1137.33587-.0022.47227l-1.4006 1.6522 5.211-3.00887c.1621-.09607.374-.04913.4833.10707.1085.15546.0814.36813-.0638.4906l-2.7757 2.34446 2.7948-1.6126c.1664-.09753.3806-.04693.4876.11294.1071.15986.0726.37693-.0799.49426l-1.0003.77147.4488-.25887c.1562-.09093.3557-.0528.4694.08727.1129.1408.107.34393-.0154.4774l-1.6398 1.79227c.1416-.0213.2875.0484.3623.1804.1019.1753.0418.3997-.1342.5009l-1.8561 1.0721c-.0572.0337-.1202.0491-.1833.0491z" fill="#e5283f"/><path d="m14.815 11.6989c2.8783 1.2533 5.0482-1.70644 5.5-4.26651.4348-3.05873-3.9857-3.7444-5.1612-1.2892-5.0351-1.10733-5.0659 4.99621-.3388 5.55571zm-2.2015-4.60091c1.1799-1.99393 2.3621.9724 3.3777-.34393 1.2834-4.59287 5.8139.95333 1.0648 4.73514-2.1904-.0499-5.9253-1.70061-4.4425-4.39121z" fill="#262626"/><path d="m28.5704 7.75807c-.1122 0-.2236-.05206-.2948-.14886-.11-.1496-.0916-.3586.0455-.4862l1.2987-1.21-2.9773 1.71893c-.1628.09607-.374.0484-.4833-.10633-.1085-.15547-.0814-.36887.0631-.49134l2.1384-1.80986-2.563 1.47986c-.1599.0946-.3674.05134-.4781-.10046-.1108-.15034-.091-.36007.0462-.4862l2.2352-2.06067-2.5579 1.47693c-.1643.0968-.3747.04767-.4833-.10706-.1092-.15547-.0814-.36887.0638-.49134l.3975-.3344-.3249.18774c-.1562.0902-.3542.05353-.4678-.0858-.1137-.13934-.1086-.34174.011-.4752l1.5202-1.69914-1.3472.77807c-.1532.0902-.3512.05427-.4664-.0836-.1136-.13787-.1114-.33807.0059-.47373l.6585-.76047c-.1026-.01833-.1972-.07993-.253-.17747-.1019-.17526-.0418-.39966.1342-.50086l1.4682-.847002c.1532-.0902.3512-.054267.4664.0836.1136.137866.1114.338066-.0059.473732l-.4855.56027 1.4432-.833069c.1548-.090934.3535-.054267.4679.0858.1137.139333.1085.341729-.011.475199l-1.5209 1.69987 1.9374-1.1176c.1643-.09607.3748-.0484.4833.10706.1093.15547.0814.36887-.0638.49134l-.396.33293 1.8209-1.0516c.1606-.09387.3681-.05133.4781.10047.1107.15033.0909.36006-.0462.4862l-2.2359 2.0614 3.2457-1.87367c.1643-.09533.3747-.04767.4833.10633.1085.15547.0814.36887-.0631.49134l-2.1377 1.80913 2.2228-1.28333c.1598-.09314.3666-.0506.4781.099.11.15033.0917.35933-.0455.48693l-1.2994 1.21147.4876-.2816c.1746-.10267.3997-.04254.5009.1342.1019.17526.0418.39966-.1342.50086l-3.2758 1.89054c-.0572.03373-.1203.04913-.1833.04913z" fill="#e5283f"/><g fill="#262626"><path d="m25.7365 7.35299c1.5854 1.58766 4.8539.0132 6.2839-1.29947 2.1157-2.112-.5661-5.4626-3.0881-4.05607-3.4063-4.77913-7.7982 1.5158-3.1958 5.35554zm.2808-6.20547c2.3203-.482533 1.4711 2.9018 2.9642 1.78347 3.748-1.962404 3.9563 4.51586-1.9008 4.29586-1.5877-1.2496-3.8082-4.972-1.0634-6.07933z"/><path d="m35.6985 20.0429c-.0425-1.4044.8206-4.3392-1.372-4.2827-8.3659.0462-16.7699-.1078-25.11816.0623-1.22613.3755-.94526 1.727-.94526 2.7192-.28674 6.8266 4.90962 13.1648 11.73922 13.948-.3828 2.4582.836 5.8058-.6072 7.821-1.3017.2281-3.8354.6703-2.8424 2.5806 2.376 1.5393 5.9539.2728 8.7384.6542 1.3024.209 3.0587-1.0091 2.1105-2.3936-.8932-1.199-3.3132-.1533-3.4027-2.1648-.0968-2.1685-.0139-4.359-.0036-6.5326 6.1438-.9819 11.2141-6.0148 11.7032-12.4116zm-26.35156-.5075c-.58666-4.7425 1.32656-2.5681 4.88766-3.0272 6.6645.0103 13.3562-.0139 20.0075 0 3.5655 17.7041-23.2914 21.5395-24.89516 3.0272zm13.67736 20.2371c.5024 1.6214 2.7845.679 3.4922 1.9822 1.2752 2.1516-7.469 1.1366-8.6651 1.0684-2.0695-2.6238 3.6007-1.2701 3.2127-3.9277.0286-2.0988.0059-4.1991.0022-6.2979.6204.058 1.2496.0514 1.8693-.0117.0733 2.3877-.1489 4.8239.0895 7.1867z"/><path d="m32.1077 22.6374c.0095-.0235-.011-.0396-.044-.0521-6.5362.1504-13.83-.6233-20.1799.2912 3.2531 9.0024 17.006 8.5492 20.2239-.2391zm-19.0088.3043h17.9146c-2.9062 8.1928-14.8463 7.912-17.9146 0z"/></g></svg>