<svg fill="none" height="44" viewBox="0 0 44 44" width="44" xmlns="http://www.w3.org/2000/svg"><path d="m15.7667 7.66341c-.0737.00006-.1457-.02208-.2066-.06352s-.1079-.10026-.1349-.1688-.0327-.14362-.0164-.21546c.0163-.07183.0539-.1371.1078-.18728l.7986-.74434-1.7681 1.02227c-.0799.04603-.1743.06023-.2642.03979-.09-.02045-.1689-.07405-.2211-.1501-.0522-.07606-.0738-.169-.0605-.26027.0133-.09128.0605-.1742.1322-.23222l.9006-.726-1.5312.88367c-.0801.04567-.1745.0595-.2643.03871-.0899-.02079-.1686-.07466-.2205-.15088s-.0731-.16919-.0595-.26039c.0135-.0912.061-.17393.1329-.23171l1.3816-1.1-1.9331 1.11833c-.0811.04766-.1775.06229-.2691.04089s-.1715-.07721-.2232-.15587c-.0516-.07867-.071-.17416-.0542-.26674.0169-.09257.0686-.17514.1446-.23061l.5134-.3806-.8023.46273c-.079.04614-.1724.06108-.2619.04187s-.1685-.07118-.2216-.14569-.0764-.16619-.0654-.25702.0556-.17426.125-.23389l2.2734-1.96973-2.8182 1.62506c-.0781.04294-.1691.056-.256.03675-.087-.01924-.164-.06948-.2166-.14133s-.0773-.16039-.0694-.24911c.0079-.08871.0478-.17152.1122-.23297l1.4748-1.33687-1.793 1.03253c-.0701.04015-.15138.05607-.23137.0453s-.15419-.04763-.21109-.10487c-.05691-.05724-.09334-.13166-.10364-.21171s.0061-.16127.04665-.23105l.60425-1.034-.83671.4818c-.06211.03583-.13337.05267-.20494.04842-.07158-.00424-.14034-.02938-.19778-.07231-.05744-.04292-.10103-.10174-.12539-.16918-.02435-.06744-.02839-.14055-.01163-.21026l.12614-.51774c-.08594.03663-.18262.03907-.2703.00683s-.15975-.09673-.20149-.18031c-.04174-.08357-.05001-.17993-.02311-.26939.02689-.08947.08692-.16529.16783-.21199l.70107-.404804c.06216-.035919.13351-.052797.20518-.048538.07167.00426.14052.029467.198.072497.05747.043029.10105.101985.12533.169555.02427.06757.02817.14078.01122.21055l-.1254.51334 1.29798-.74507c.07-.03992.1511-.055705.2309-.04491.0798.0108.1539.04758.2107.10466.0568.05707.0933.13127.1037.21113.0105.07987-.0057.16095-.0459.23072l-.605 1.03473 3.5648-2.059197c.078-.042933.169-.055996.2559-.036751.087.019244.164.069482.2166.141331s.0773.160398.0694.249111c-.0078.088713-.0477.171526-.1122.232976l-1.4733 1.3376 3.1534-1.818667c.079-.046946.1728-.062497.2627-.043571.09.018926.1695.070948.2229.14576s.0768.166956.0655.258178c-.0113.09122-.0565.17487-.1265.23437l-2.2734 1.96973 3.0852-1.78053c.0811-.04766.1774-.06229.2691-.04089.0916.0214.1715.07721.2231.15587s.071.17416.0542.26674c-.0168.09257-.0686.17514-.1446.23061l-.5133.3806.616-.35493c.0801-.04658.1749-.06108.2653-.0406s.1697.07443.2219.151c.0522.07656.0735.17006.0596.26169-.014.09162-.0621.17458-.1347.23217l-1.3801 1.1 1.3515-.77953c.0799-.04519.1739-.05877.2633-.03804.0895.02073.1679.07426.2197.15.0519.07575.0735.16819.0605.25908-.013.09088-.0596.17358-.1306.23176l-.902.72673.4664-.2684c.0781-.04603.1705-.06149.2594-.04339.0888.0181.1678.06848.2217.14141.0538.07293.0788.16324.07.25349-.0088.09024-.0508.17402-.1177.23516l-.8023.73993c.0845-.04261.1822-.0509.2727-.02311.0905.02777.1667.08947.2128.17216.046.0827.0583.18.0342.27154-.024.09154-.0825.17023-.1633.21961l-2.7793 1.60527c-.0562.03293-.1204.04992-.1855.04913z" fill="#4ec760"/><path d="m21.4223 4.17493c-.0742-.00001-.1467-.02253-.2078-.06458s-.108-.10165-.1346-.17093c-.0265-.06929-.0314-.14499-.014-.21711s.0562-.13727.1114-.18685l.5581-.4994c-.0608.0073-.1224-.00122-.179-.02473-.0565-.02351-.106-.06122-.1437-.10947-.0548-.06792-.0835-.15316-.0811-.2404s.0359-.17075.0943-.23553l.5134-.56687c-.0668-.03153-.1223-.0827-.1592-.14666-.0486-.08422-.0618-.1843-.0366-.27823s.0866-.17402.1708-.22264l1.3259-.767067c.0756-.043576.1643-.058738.2502-.04276.0858.015979.1631.062049.218.129926.0548.067878.0837.15311.0814.240371-.0024.08726-.0358.170823-.0942.23566l-.1635.18114.7758-.447337c.078-.041847.1685-.054075.2548-.034428s.1626.069844.2148.141327c.0521.071483.0767.159428.0691.247608s-.0468.17064-.1104.23216l-.44.39527.5786-.33c.0417-.02446.0879-.04042.1358-.04697s.0966-.00356.1434.0088c.0467.01236.0906.03384.129.06322.0384.02937.0706.06605.0948.10793.0242.04187.0398.08812.046.13607.0063.04796.003.09667-.0097.14333-.0127.04667-.0344.09037-.0641.12859-.0296.03821-.0665.07019-.1085.09409l-3.6359 2.09734c-.0556.03254-.1189.04952-.1833.04913z" fill="#7f4842"/><path d="m22.4123 11.6138c-.0642.0001-.1272-.0166-.1828-.0485-.0557-.0319-.102-.0778-.1343-.1331-.0324-.0554-.0496-.1183-.0501-.1824s.0159-.1272.0474-.183l.6109-1.08171-1.9155 1.10591c-.076.044-.1653.0594-.2517.0431-.0863-.0162-.164-.0629-.2188-.1316s-.0831-.1548-.0798-.2426.038-.1715.0979-.2358l1.6786-1.79741-1.1264.649c-.0781.0435-.1693.057-.2567.03797-.0873-.01903-.1646-.06929-.2175-.14134-.0528-.07204-.0776-.16091-.0695-.24991.008-.08899.0483-.17199.1132-.23339l1.0817-.99367-.572.33c-.0781.0441-.1696.05806-.2573.03925-.0877-.01882-.1654-.0691-.2185-.14135s-.0779-.16145-.0697-.25074.0489-.17247.1143-.23382l1.4388-1.32-1.7747 1.02666c-.0791.0443-.1719.0577-.2603.03762s-.1663-.07221-.2185-.14633c-.0523-.07412-.0752-.16497-.0643-.255.0108-.09003.0546-.17286.1229-.23248l2.1208-1.80914-2.8087 1.62067c-.0708.04103-.1533.05718-.2344.04588-.081-.01129-.156-.04939-.2129-.10821-.057-.05906-.0925-.13553-.1009-.21716s.0109-.16371.0547-.23311l.4473-.70914-1.0728.61894c-.0726.04128-.157.05657-.2394.04336-.0825-.01322-.1579-.05416-.2139-.11605-.056-.0619-.0892-.14104-.0941-.22436s.0187-.16583.067-.23389l.1342-.18773-.5654.32633c-.0764.0443-.1663.05949-.2531.04278-.0868-.0167-.1646-.06419-.2191-.13371l-.6556-.83527-.4012.23174c-.0417.02653-.0884.04434-.1372.05237-.0488.00802-.0987.0061-.1467-.00567-.048-.01176-.0932-.03312-.1328-.06279-.0395-.02967-.0727-.06704-.0974-.10985-.0248-.04282-.0406-.09019-.0466-.13928-.0059-.0491-.0019-.09888.0119-.14638.0137-.04749.037-.09171.0683-.12999.0313-.03827.07-.06982.1139-.09275l.6768-.3916c.0764-.04409.1661-.05916.2527-.04246.0867.0167.1643.06406.2189.1334l.6563.83746 1.7695-1.02153c.0726-.04159.1573-.05709.2399-.04392.0827.01317.1583.0542.2144.1163.0561.06209.0893.1415.094.22505.0048.08355-.0192.1662-.0679.23424l-.135.18773.88-.506c.071-.04107.1537-.05715.2349-.04569.0812.01147.1562.04983.2131.10894.0568.05912.0922.13558.1004.21717.0083.08159-.011.1636-.0548.23292l-.4466.70913 5.038-2.90914c.0791-.04498.1722-.05892.261-.03908.0889.01983.1672.072.2197.14638.0525.07437.0755.16562.0644.25598-.011.09037-.0553.1734-.1242.23292l-2.123 1.80034 1.1557-.66734c.0781-.04409.1696-.05805.2573-.03924.0877.01882.1654.0691.2185.14135s.0779.16145.0697.25074-.0489.17247-.1143.23382l-1.4395 1.32.5632-.32487c.0781-.04409.1696-.05805.2573-.03924.0876.01882.1654.0691.2185.14135s.0779.16145.0696.25074c-.0082.08929-.0488.17247-.1142.23382l-1.0809.9944.36-.20827c.0761-.04408.1655-.05936.2519-.04303.0864.01632.1641.06315.2189.13196.0547.06881.0829.155.0794.24287s-.0384.17155-.0984.2358l-1.6786 1.80107.9577-.5522c.0696-.04011.1505-.05623.2302-.04587.0797.01035.1538.04661.2109.10319.0571.05659.094.13036.1051.20997.011.07961-.0044.16065-.0439.23064l-.6086 1.08315c.0829-.0364.1764-.0412.2626-.0133.0862.0278.1592.0863.2052.1644.0487.0841.062.1841.037.278-.0251.0939-.0864.1741-.1704.2228l-1.1294.6527c-.0566.0327-.1209.0496-.1862.0491z" fill="#7f4842"/><path d="m26.3723 37.674c-.0741 0-.1465-.0225-.2075-.0644-.0611-.042-.108-.1014-.1346-.1706s-.0316-.1447-.0144-.2168.0558-.1372.1108-.1869l2.5615-2.3166-3.8368 2.2147c-.0811.0476-.1774.0623-.2691.0409-.0916-.0214-.1715-.0772-.2231-.1559s-.071-.1742-.0542-.2667c.0168-.0926.0686-.1752.1446-.2307l1.4615-1.0809-1.8077 1.0435c-.0818.047-.1786.0606-.2702.038-.0917-.0226-.1711-.0796-.2217-.1592-.0506-.0797-.0686-.1758-.0502-.2683.0184-.0926.0718-.1745.1491-.2287l.1195-.0836-.1885.1086c-.0802.0445-.1742.0573-.2634.0359-.0893-.0214-.1672-.0754-.2185-.1515s-.0722-.1686-.0586-.2594c.0136-.0907.0607-.1731.1321-.2308l2.7324-2.1347-2.838 1.6375c-.0806.0454-.1752.0586-.2651.0371-.0898-.0214-.1683-.0761-.2196-.1529-.0514-.0768-.0718-.1702-.0573-.2614.0146-.0912.063-.1736.1357-.2307l2.0313-1.5561-1.8062 1.0428c-.0803.0462-.1751.0603-.2654.0395-.0902-.0208-.1693-.075-.2212-.1518-.0519-.0767-.0729-.1702-.0587-.2618.0143-.0915.0626-.1743.1354-.2317l1.4747-1.1557-.9342.5397c-.0772.0434-.1674.0574-.254.0395s-.1639-.0665-.2175-.1369-.0799-.1578-.0741-.2461c.0057-.0883.0432-.1715.1056-.2343l1.3251-1.3068c-.0807 0-.1592-.0267-.2232-.0758s-.1101-.118-.131-.196c-.0208-.078-.0154-.1606.0155-.2352.0308-.0746.0855-.1369.1554-.1772l2.1523-1.2467c.0771-.0434.1673-.0574.254-.0395.0866.0179.1639.0666.2175.137s.0799.1578.0741.2461c-.0058.0882-.0433.1715-.1056.2343l-1.1909 1.1733 2.9626-1.7101c.0803-.0463.1751-.0604.2654-.0396.0903.0209.1693.0751.2213.1518.0519.0767.0729.1703.0586.2618-.0142.0916-.0626.1744-.1353.2317l-1.4762 1.1557 2.189-1.2628c.0805-.0453.1751-.0585.265-.037.0899.0214.1683.076.2197.1529.0513.0768.0717.1701.0572.2614-.0145.0912-.063.1736-.1357.2307l-2.0313 1.5561 2.4999-1.441c.0803-.0445.1743-.0574.2635-.036s.1672.0755.2185.1516.0722.1686.0586.2594c-.0136.0907-.0607.1731-.1321.2307l-2.7309 2.1348 3.0242-1.7461c.0819-.047.1787-.0606.2703-.038s.171.0797.2217.1593c.0506.0796.0686.1757.0502.2683-.0185.0925-.0718.1744-.1491.2286l-.1173.0814.0117-.0066c.0811-.0476.1775-.0623.2691-.0409s.1715.0772.2231.1559c.0517.0787.0711.1742.0543.2667-.0169.0926-.0686.1752-.1446.2306l-1.4645 1.0817 1.2423-.7179c.078-.0424.1687-.055.2553-.0356.0867.0195.1633.0697.2157.1413.0524.0717.077.1599.0693.2484-.0077.0884-.0473.1711-.1113.2325l-2.563 2.3181 1.8832-1.0875c.0793-.047.1735-.0623.2636-.0429.0902.0193.1697.0719.2228.1473s.0759.168.0637.2594c-.0121.0915-.0583.1749-.1292.2338l-.8609.7282c.0682.0307.1252.082.1628.1467.0486.0842.0618.1843.0366.2782-.0252.094-.0866.174-.1708.2227l-2.5418 1.4666c-.0793.0461-.1731.0608-.2627.0412-.0896-.0197-.1687-.0722-.2214-.1473-.0528-.0751-.0755-.1672-.0637-.2582.0119-.091.0574-.1743.1276-.2333l.1922-.1614-1.32.7634c-.0552.0357-.1192.0555-.1848.0572z" fill="#3c16af"/><path d="m24.1844 43.6103c-.0747.0001-.1477-.0226-.2091-.0652-.0614-.0425-.1084-.1027-.1346-.1727-.0263-.0699-.0305-.1462-.0122-.2186.0183-.0725.0583-.1376.1146-.1866l1.4799-1.287-2.695 1.5554c-.0791.0448-.172.0587-.2607.0389s-.1669-.0718-.2194-.146-.0757-.1652-.0649-.2554c.0108-.0903.0548-.1733.1233-.233l2.9201-2.5073-3.8529 2.225c-.0813.0474-.1777.0618-.2693.04-.0916-.0217-.1714-.0778-.2227-.1567-.0514-.0788-.0704-.1745-.0532-.267.0171-.0926.0693-.175.1455-.2301l1.408-1.0267-1.6133.9328c-.0811.0458-.1767.059-.2672.0369-.0906-.0221-.1693-.0779-.2202-.156-.0509-.078-.0701-.1726-.0538-.2643.0163-.0918.0669-.1739.1415-.2297l1.5767-1.1528-1.6192.9343c-.0809.0457-.1761.059-.2664.0371-.0903-.0218-.1689-.077-.22-.1546s-.0709-.1716-.0554-.2632c.0156-.0916.0653-.1738.1392-.2302l1.7695-1.32-1.6324.9424c-.0813.045-.1768.0573-.267.0346-.0901-.0227-.1683-.0789-.2186-.1571-.0504-.0782-.0691-.1726-.0525-.2641.0167-.0915.0675-.1732.1421-.2287l.253-.1804c-.0815.0195-.1674.0105-.2431-.0256s-.1368-.0971-.173-.1727c-.0362-.0757-.0453-.1615-.0259-.2431s.0662-.1541.1326-.2054l1.111-.8675-.484.2794c-.0781.0441-.1696.058-.2573.0392s-.1654-.0691-.2185-.1413c-.0531-.0723-.0779-.1615-.0697-.2508s.0489-.1724.1143-.2338l1.1-1.0105c-.0822-.0286-.1512-.0859-.1944-.1614-.0486-.0842-.0618-.1843-.0366-.2782s.0866-.174.1708-.2226l2.1524-1.2467c.0781-.0441.1696-.0581.2572-.0392.0877.0188.1654.0691.2186.1413.0531.0723.0778.1615.0696.2508-.0082.0892-.0488.1724-.1142.2338l-.66.6079 2.1325-1.2305c.0804-.0466.1755-.0609.266-.0401.0905.0209.1698.0753.2217.1523.052.077.0728.1708.0582.2626-.0146.0917-.0634.1745-.1367.2316l-1.1095.8661 1.8428-1.0641c.0816-.0465.1779-.0599.2691-.0376.0912.0224.1703.0789.2211.1579.0507.0789.0693.1744.0518.2666-.0175.0923-.0698.1743-.146.2291l-.1268.0902.4326-.2493c.0809-.0457.1761-.0589.2664-.0371s.169.077.2201.1546.0709.1716.0553.2632c-.0155.0916-.0653.1739-.1392.2302l-1.7695 1.32 2.0863-1.2042c.0812-.0458.1768-.0589.2673-.0368s.1692.0779.2201.1559c.0509.0781.0702.1726.0539.2644-.0163.0917-.0669.1738-.1416.2296l-1.5789 1.1572 1.6728-.9658c.0813-.0474.1777-.0618.2693-.0401.0916.0218.1713.0779.2227.1567.0514.0789.0704.1745.0532.2671-.0172.0925-.0693.1749-.1456.2301l-1.4072 1.0267 1.32-.762c.079-.0448.1719-.0587.2606-.0389.0888.0198.167.0718.2195.146s.0756.1652.0648.2555c-.0108.0902-.0547.1732-.1233.2329l-2.9194 2.5058 2.5762-1.4872c.079-.0452.1719-.0595.2607-.0401.0889.0194.1673.0712.2202.1452.0528.0741.0762.1651.0657.2554-.0105.0904-.0542.1736-.1227.2335l-1.4806 1.2877.5192-.2992c.0838-.0438.1813-.0536.2721-.0272.0909.0263.168.0868.2153.1686.0473.0819.0612.1789.0387.2708-.0225.0918-.0796.1714-.1594.2222l-3.8134 2.2c-.0548.0308-.1167.0469-.1796.0469z" fill="#511bd3"/><path d="m20.0876 42.7537c-.0733.0001-.145-.0217-.2058-.0627s-.1079-.0994-.1353-.1674c-.0273-.0681-.0336-.1428-.018-.2145.0156-.0716.0523-.137.1054-.1876l.9834-.9408-2.6217 1.5143c-.0795.0465-.1736.0614-.2636.0417s-.1693-.0726-.2221-.1481-.0752-.1682-.0628-.2595.0588-.1746.1298-.2332l2.1699-1.8136-3.1306 1.8114c-.0798.0466-.1744.0614-.2647.0412-.0902-.0201-.1696-.0736-.2221-.1497-.0525-.0762-.0743-.1694-.061-.2609s.0608-.1747.1328-.2327l2.9458-2.4046-3.5494 2.0533c-.082.0527-.1817.0707-.277.0499s-.1785-.0785-.2312-.1606-.0706-.1817-.0499-.277c.0208-.0953.0786-.1785.1607-.2312l1.1572-.8331-1.2254.7077c-.0818.0464-.1782.0596-.2694.0369-.0912-.0226-.1702-.0794-.2207-.1587-.0505-.0792-.0687-.1748-.0508-.267.0179-.0923.0706-.1741.1471-.2287l.2933-.2031-.1789.1019c-.0794.0448-.1726.0584-.2615.0382-.0889-.0203-.167-.0729-.2192-.1476s-.0747-.1662-.0631-.2566.0564-.1732.1258-.2324l2.8768-2.3965-2.6246 1.5143c-.0805.0453-.1751.0586-.265.0371s-.1683-.0761-.2197-.1529c-.0513-.0768-.0717-.1702-.0572-.2614.0145-.0913.063-.1736.1357-.2307l.8066-.6167-.1899.1085c-.0781.0447-.1699.0591-.2579.0406-.0881-.0186-.1662-.0689-.2196-.1414-.0533-.0725-.0782-.162-.0698-.2516s.0495-.173.1154-.2343l1.1139-1.0266c-.0666-.0228-.1253-.0642-.169-.1194-.0438-.0552-.0707-.1218-.0775-.1918-.0069-.0701.0065-.1407.0387-.2033.0321-.0626.0816-.1147.1425-.1499l2.1524-1.2467c.0781-.0447.1699-.0592.2579-.0406s.1662.0689.2195.1414c.0534.0725.0782.162.0698.2516s-.0494.173-.1153.2343l-.6981.6431 2.175-1.2555c.0805-.0453.1752-.0585.2651-.0371.0898.0215.1683.0761.2196.1529.0514.0769.0718.1702.0573.2615-.0146.0912-.063.1736-.1357.2307l-.8067.616 1.4667-.847c.0795-.0458.1732-.06.2627-.04s.1683.0728.2208.148c.0524.0752.0748.1674.0627.2583s-.0579.174-.1282.2328l-2.8776 2.3973 3.6571-2.1113c.0818-.0464.1782-.0596.2694-.0369.0912.0226.1702.0794.2207.1586.0505.0793.0687.1749.0508.2671-.0179.0923-.0706.1741-.1471.2287l-.2889.2031.3791-.22c.0814-.0471.1778-.0611.2693-.0391.0914.0219.1709.0782.2221.1572s.07.1748.0525.2673c-.0174.0926-.0699.1749-.1464.2299l-1.1565.8316 1.1668-.674c.0798-.0466.1744-.0614.2647-.0412.0902.0201.1696.0736.2221.1497.0525.0762.0743.1694.061.2609-.0134.0915-.0608.1746-.1328.2327l-2.9465 2.4009 2.8475-1.6382c.0794-.0456.173-.0597.2623-.0398.0894.02.168.0727.2205.1477s.075.1669.0631.2576c-.0118.0908-.0572.1738-.1271.2329l-2.17 1.8142 1.5928-.9196c.0777-.0475.1702-.0644.2597-.0475.0894.017.1694.0666.2243.1392.0548.0727.0807.1631.0726.2538s-.0497.1751-.1166.2368l-1.2298 1.1733c.075.0117.1445.0464.1989.0992.0544.0529.0911.1213.1051.1958.0139.0746.0043.1517-.0274.2206s-.084.1263-.1497.1642l-2.1516 1.2467c-.0567.0324-.121.0489-.1863.0477z" fill="#681ff4"/><path d="m21.2535 39.1429c-.0761.0001-.1503-.0235-.2123-.0675-.0621-.044-.1089-.1062-.134-.178-.0252-.0718-.0274-.1496-.0063-.2227.021-.0731.0643-.1378.1238-.1852l1.342-1.0743-2.1839 1.2598c-.0799.0452-.1739.0588-.2633.0381-.0894-.0208-.1678-.0743-.2197-.15-.0519-.0758-.0735-.1682-.0605-.2591s.0596-.1736.1306-.2318l2.5066-2.0137-3.1761 1.8333c-.0815.0466-.1778.06-.269.0376-.0912-.0223-.1703-.0788-.2211-.1578s-.0693-.1744-.0518-.2666c.0175-.0923.0697-.1743.1459-.2292l.6813-.484-.8118.4686c-.0818.0464-.1782.0596-.2694.037-.0912-.0227-.1702-.0795-.2207-.1587s-.0687-.1748-.0508-.2671c.0179-.0922.0706-.1741.1471-.2286l.3828-.2692-.3667.212c-.0798.0457-.174.0598-.2637.0394-.0898-.0204-.1685-.0738-.2207-.1497-.0522-.0758-.074-.1684-.061-.2596.013-.0911.0598-.174.1311-.2322l3.0066-2.4486-2.959 1.7087c-.08.0463-.1745.0606-.2647.0401-.0902-.0204-.1693-.0742-.2215-.1505s-.0736-.1695-.06-.261c.0136-.0914.0612-.1744.1334-.2322l2.0166-1.6199-1.54.8888c-.0765.0437-.1662.0583-.2526.0413-.0864-.0171-.1638-.0647-.2181-.1341-.0542-.0695-.0816-.1561-.0772-.2441.0045-.088.0404-.1715.1013-.2351l1.4784-1.5275c-.0859.0237-.1776.0153-.2578-.0237s-.1435-.1059-.1779-.1882c-.0345-.0823-.0377-.1743-.0092-.2588s.0868-.1557.1641-.2003l2.1523-1.2467c.0765-.0442.1665-.0592.2532-.0424.0868.0168.1645.0644.219.1341.0544.0696.0819.1565.0773.2448-.0045.0882-.0408.1719-.1022.2355l-1.4505 1.5019 3.4085-1.9676c.08-.0452.1739-.0587.2633-.038.0895.0207.1679.0743.2198.15.0518.0757.0734.1682.0604.2591-.013.0908-.0596.1736-.1306.2317l-2.0145 1.6192 2.7867-1.6133c.0799-.0458.174-.0599.2637-.0394.0898.0204.1686.0738.2207.1496.0522.0758.074.1685.061.2596s-.0598.174-.1311.2323l-3.0066 2.4478 3.5786-2.0592c.0818-.0463.1782-.0596.2694-.0369s.1702.0795.2207.1587c.0506.0792.0687.1748.0508.2671-.0179.0922-.0705.174-.1471.2286l-.3938.2713.3872-.22c.0816-.0465.1779-.06.2691-.0376s.1703.0789.2211.1578c.0507.079.0693.1745.0518.2667s-.0698.1743-.146.2291l-.6798.4826.5669-.3264c.0799-.0452.1739-.0587.2633-.038s.1679.0743.2197.15c.0519.0757.0735.1682.0605.2591-.013.0908-.0596.1736-.1306.2317l-2.5058 2.0123 2.233-1.2885c.0801-.0475.1754-.0628.2664-.0427.091.0202.1709.0742.2235.1512.0526.0769.0739.171.0596.2631-.0144.0921-.0632.1753-.1367.2327l-1.3405 1.0721.6666-.3842c.0786-.0447.1709-.0588.2592-.0396.0884.0192.1665.0703.2194.1436s.0769.1635.0674.2534c-.0096.0899-.052.1731-.1192.2336l-1.012.9006c.0639.0332.1168.0841.1525.1466.0487.0842.0618.1843.0367.2783-.0252.0939-.0866.174-.1709.2226l-2.1516 1.2467c-.0779.0408-.1679.0522-.2536.0322-.0856-.02-.1613-.0702-.213-.1413-.0518-.0712-.0762-.1586-.0689-.2462.0073-.0877.0459-.1698.1087-.2314l.4034-.3593-1.7439.9966c-.0557.0321-.119.0491-.1833.0491z" fill="#681ff4"/><path d="m16.6217 37.7322c-.0754-.0001-.149-.0233-.2108-.0667-.0617-.0434-.1085-.1047-.1341-.1757-.0256-.0709-.0287-.1481-.0088-.2209.0199-.0727.0617-.1376.1198-.1857l1.2422-1.0304-2.2623 1.3061c-.0798.045-.1736.0584-.2628.0377-.0893-.0207-.1675-.074-.2194-.1495-.0519-.0756-.0736-.1678-.0609-.2585s.0589-.1734.1295-.2318l2.3525-1.9015-3.0968 1.7879c-.0808.0469-.1764.0613-.2674.0402-.091-.0212-.1705-.0763-.2223-.1541-.0517-.0777-.0718-.1723-.0562-.2644s.0658-.1748.1403-.2311l2.1722-1.6486-2.5073 1.4454c-.0805.0453-.1752.0586-.265.0371-.0899-.0215-.1683-.0761-.2197-.1529-.0513-.0768-.0718-.1702-.0572-.2614.0145-.0913.063-.1737.1356-.2307l2.4765-1.8986-2.596 1.4989c-.08.0454-.1742.0591-.2638.0384-.0896-.0208-.1682-.0745-.22-.1505-.0519-.0759-.0733-.1686-.0601-.2597.0133-.091.0603-.1737.1318-.2317l2.7045-2.1655-2.5491 1.474c-.0808.0463-.1762.0601-.2668.0386-.0907-.0215-.1697-.0767-.2211-.1543-.0515-.0777-.0714-.172-.0558-.2639.0156-.0918.0655-.1742.1397-.2306l.9445-.7098-.4693.2706c-.0764.0441-.1661.0592-.2528.0425-.0866-.0166-.1643-.064-.2189-.1333-.0545-.0694-.0822-.156-.078-.2442.0042-.0881.04-.1717.1009-.2356l1.5077-1.5722c-.0847.0253-.1757.0191-.2562-.0173-.0805-.0365-.1452-.1008-.182-.1811-.0369-.0804-.0435-.1713-.0186-.2561.0249-.0849.0795-.1578.1539-.2055l2.1524-1.2467c.0764-.0442.1661-.0593.2527-.0426.0867.0167.1644.064.2189.1334.0546.0693.0823.156.0781.2441s-.04.1718-.1009.2356l-1.4924 1.5562 3.4841-2.0108c.0809-.0467.1765-.0608.2674-.0394s.1702.0766.2217.1545c.0514.0779.0712.1725.0552.2645-.0159.092-.0663.1744-.141.2305l-.9379.7055 1.4828-.8566c.08-.0463.1746-.0606.2648-.0402.0901.0205.1692.0743.2214.1506s.0737.1695.0601.261c-.0136.0914-.0613.1743-.1334.2322l-2.7053 2.1662 3.2846-1.8964c.0805-.0453.1752-.0585.2651-.0371.0898.0215.1683.0761.2196.1529s.0718.1702.0572.2615c-.0145.0912-.063.1736-.1356.2307l-2.4868 1.9008 2.6804-1.5466c.0807-.047.1764-.0614.2674-.0403.091.0212.1705.0763.2222.1541.0518.0777.0719.1723.0563.2644-.0157.0921-.0659.1748-.1404.2312l-2.1663 1.6463 2.0988-1.2115c.0799-.0458.174-.0598.2638-.0394.0897.0204.1685.0738.2207.1496.0522.0759.0739.1685.0609.2596-.013.0912-.0597.1741-.131.2323l-2.3504 1.9015 1.9712-1.1381c.0795-.045.1729-.0586.2619-.0384.0891.0203.1673.0731.2195.148s.0746.1666.0627.2572c-.0119.0905-.0571.1734-.1268.2323l-1.2467 1.0311.3953-.2281c.0417-.0265.0884-.0443.1372-.0523.0488-.0081.0987-.0061.1468.0056.048.0118.0931.0331.1327.0628s.0727.067.0975.1099c.0247.0428.0405.0901.0465.1392s.0019.0989-.0118.1464c-.0138.0475-.0371.0917-.0684.13s-.07.0698-.1138.0928l-4.1514 2.3972c-.0546.0319-.1165.0488-.1797.0492z" fill="#3c16af"/><path d="m30.3541 20.0196c-.0715.0001-.1415-.0208-.2013-.06-.0598-.0393-.1068-.0952-.1353-.1608-.0284-.0656-.0371-.1381-.0248-.2086.0122-.0705.0448-.1358.0938-.188l1.5935-1.6977-3.6667 2.1186c-.0791.0443-.1718.0577-.2602.0376-.0885-.0201-.1663-.0722-.2186-.1463-.0522-.0741-.0751-.165-.0643-.255s.0546-.1729.1229-.2325l2.7053-2.2939-3.6388 2.0966c-.0806.0457-.1755.0591-.2656.0376s-.1687-.0763-.2201-.1534-.0716-.1707-.0568-.2622c.0149-.0914.0638-.1738.137-.2306l2.3158-1.7747-2.6664 1.54c-.0815.0454-.1772.058-.2677.0353s-.1689-.0791-.2193-.1576-.0689-.1733-.0519-.265c.0171-.0917.0684-.1735.1437-.2287l.7692-.5463-.7714.4444c-.0796.0399-.1709.0495-.2571.0271-.0861-.0225-.1611-.0755-.211-.1492s-.0713-.1631-.0602-.2514.0539-.1695.1205-.2286l2.4978-1.9441-2.412 1.3934c-.081.0471-.177.0614-.2683.04-.0912-.0214-.1708-.077-.2223-.1553-.0516-.0783-.0712-.1734-.0548-.2657s.0675-.1748.1428-.2306l1.0839-.8067-.7055.407c-.0806.0466-.176.0608-.2667.0396s-.1699-.0761-.2216-.1535c-.0517-.0775-.072-.1717-.0568-.2636.0153-.0919.0649-.1745.1389-.2312l.6189-.473c-.0802.0336-.1696.0376-.2524.0113-.0829-.0263-.1537-.0811-.1998-.1548-.0462-.0736-.0647-.1612-.0522-.2472.0124-.086.055-.1648.1201-.2223l1.004-.891c-.0585-.0302-.1077-.0756-.1426-.1313-.0349-.0558-.0542-.12-.0557-.1857-.0016-.0658.0145-.1308.0467-.1882.0322-.0573.0792-.105.1362-.138l2.1523-1.2466c.0786-.0447.1709-.0588.2592-.0396.0884.0192.1665.0703.2194.1436s.0769.1636.0673.2534c-.0095.0899-.0519.1731-.1191.2336l-.3769.3352 1.705-.9842c.0806-.0465.176-.0607.2667-.0395.0907.0211.1699.076.2216.1535.0518.0775.072.1717.0568.2636-.0153.0919-.0649.1745-.1389.2311l-.6028.4605 1.279-.7377c.081-.046.1764-.0595.267-.0377s.1695.0773.2206.1551c.0512.0779.0708.1723.0549.2641-.016.0918-.0663.1741-.1407.2301l-1.0853.8067 1.5488-.894c.0805-.0468.1758-.0614.2666-.0405.0908.0208.1702.0754.2222.1527s.0727.1715.0577.2634c-.0149.092-.0643.1748-.138.2316l-2.4934 1.9426 2.9268-1.6866c.0815-.0454.1772-.058.2677-.0353s.1689.0791.2193.1576.0689.1733.0519.265c-.0171.0917-.0684.1735-.1437.2287l-.7729.5492.8008-.462c.0807-.0465.176-.0607.2667-.0395.0907.0211.17.076.2217.1535s.072.1717.0567.2636c-.0152.0919-.0649.1745-.1388.2311l-2.3181 1.7739 2.2667-1.3082c.0793-.0459.1729-.0605.2623-.0409.0895.0196.1684.072.2212.1469.0528.0748.0756.1667.0641.2576-.0116.0908-.0568.1741-.1266.2333l-2.706 2.2902 2.2938-1.3244c.0761-.0431.1651-.0576.2509-.0408.0858.0167.1628.0635.2171.132s.0824.1541.0792.2415c-.0033.0873-.0376.1706-.0969.2349l-1.5913 1.6977h.0036c.0418-.0265.0884-.0444.1372-.0524s.0987-.0061.1468.0057c.048.0117.0932.0331.1327.0628.0396.0296.0727.067.0975.1098.0247.0428.0406.0902.0465.1393.006.0491.002.0989-.0118.1464s-.037.0917-.0683.13c-.0313.0382-.0701.0698-.1139.0927l-2.1516 1.2467c-.0564.0305-.12.0454-.1841.0432z" fill="#681ff4"/><path d="m21.4704 20.1091c-.0741 0-.1464-.0225-.2075-.0644-.061-.042-.108-.1015-.1346-.1706-.0266-.0692-.0316-.1448-.0144-.2168.0172-.0721.0559-.1372.1108-.1869l2.343-2.1193-3.6498 2.1068c-.0816.0471-.1783.0609-.2699.0386s-.1711-.079-.2219-.1584c-.0509-.0793-.0692-.1752-.0512-.2678.0179-.0925.0709-.1746.1478-.2291l.0982-.0689-.3542.2038c-.0816.0459-.1776.0588-.2684.0361-.0909-.0227-.1696-.0793-.22-.1582-.0505-.0788-.0688-.174-.0514-.266.0175-.0919.0695-.1737.1453-.2286l.4019-.2838-.5508.3175c-.0797.0456-.1736.0595-.2632.0391-.0896-.0203-.1682-.0736-.2204-.1492-.0521-.0756-.074-.168-.0613-.2589.0126-.091.059-.1739.1299-.2323l3.2589-2.662-3.5141 2.0299c-.0812.0452-.1766.0578-.2668.0354-.0902-.0225-.1685-.0783-.2191-.1563s-.0697-.1722-.0534-.2638c.0163-.0915.0667-.1734.1411-.2291l.9768-.7055-.7847.4525c-.0799.0466-.1744.0614-.2647.0412-.0903-.0201-.1696-.0736-.2221-.1497-.0525-.0762-.0743-.1694-.061-.2609s.0607-.1747.1327-.2327l2.1934-1.7776-1.7438 1.0061c-.0764.0447-.1664.0603-.2533.0438-.087-.0165-.1651-.0638-.2198-.1333-.0548-.0696-.0826-.1565-.0783-.2449.0044-.0884.0405-.1723.1018-.2361l1.54-1.6221c-.0857.037-.1824.0399-.2702.008-.0879-.0318-.1602-.096-.2024-.1794-.0421-.0834-.0508-.1797-.0243-.2693s.0862-.1657.1669-.2127l2.1524-1.2467c.0763-.0441.1659-.0593.2525-.0427s.1643.0638.2189.133.0824.1558.0784.2438c-.004.0881-.0396.1717-.1003.2357l-1.54 1.6177 3.5655-2.0584c.08-.048.1752-.0637.2663-.0439.0912.0198.1713.0736.2242.1504s.0745.1709.0605.2631-.0626.1755-.136.2332l-2.189 1.7805 2.9869-1.7241c.0814-.0467.1776-.0604.2688-.0383.0912.022.1704.0782.2214.157.0511.0787.07.174.0528.2662-.0171.0923-.0689.1745-.1448.2297l-.9731.7032 1.2232-.7062c.0797-.0455.1737-.0595.2632-.0391.0896.0204.1682.0736.2204.1492s.0741.168.0614.259-.0591.1738-.13.2323l-3.2604 2.6627 3.5816-2.0673c.0817-.0471.1784-.0609.27-.0386s.171.079.2219.1584.0692.1753.0512.2678c-.018.0926-.0709.1746-.1478.2292l-.4026.2845.2427-.1401c.0817-.0471.1784-.0609.27-.0386s.171.079.2219.1584.0692.1753.0512.2678c-.018.0926-.0709.1746-.1478.2292l-.2141.1518c.0792-.0199.1629-.0128.2376.0203.0747.033.1363.0901.1749.1622.0386.072.052.1549.0381.2354s-.0543.1541-.1148.2091l-2.3459 2.12 1.5745-.9071c.0842-.0479.1838-.0605.2773-.0351.0934.0254.173.0867.2214.1705.0485.0839.0617.1835.037.2771-.0248.0936-.0855.1736-.1691.2226l-4.5606 2.6319c-.0556.0325-.1189.0495-.1833.0491z" fill="#511bd3"/><path d="m14.6821 20.1439c-.0757.0002-.1496-.0231-.2116-.0665-.062-.0435-.109-.1052-.1346-.1765-.0255-.0712-.0284-.1487-.0082-.2217.0203-.0729.0626-.1378.1212-.1858l.8001-.6556-1.7842 1.0303c-.0789.0453-.1718.0596-.2607.0401-.0888-.0194-.1673-.0711-.2201-.1452-.0529-.074-.0763-.1651-.0658-.2554.0106-.0903.0543-.1736.1227-.2335l2.8241-2.4574-3.8573 2.2264c-.0806.0463-.1757.0602-.2661.0391-.0905-.0212-.1695-.0759-.2212-.1531-.0516-.0772-.0721-.1711-.0572-.2627.0149-.0917.064-.1743.1375-.2312l2.3657-1.8172-2.7265 1.5745c-.0805.0459-.1754.0597-.2655.0385-.0902-.0212-.1691-.0757-.2207-.1526s-.0723-.1705-.0577-.262c.0145-.0914.0632-.174.1361-.2311l2.684-2.0864-2.8094 1.6222c-.0811.0464-.1768.0602-.2677.0384s-.17-.0775-.2212-.1557c-.0513-.0781-.0707-.1729-.0544-.2649.0164-.0921.0672-.1744.1422-.2302l1.3933-1.0266-1.2026.6944c-.0793.0459-.1729.0605-.2623.0409-.0895-.0196-.1684-.072-.2212-.1468-.05277-.0749-.07563-.1668-.06406-.2577.01157-.0908.05676-.1741.12656-.2333l2.4332-2.0702-1.8868 1.0883c-.0773.0446-.1683.0594-.2557.0418-.0875-.0177-.1655-.0666-.2195-.1377s-.0802-.1594-.0737-.2484c.0064-.089.0452-.1726.1089-.2351l1.2921-1.2628c-.0789-.0042-.1543-.0337-.2151-.0843-.0607-.0505-.1035-.1193-.122-.1961-.0184-.0769-.0116-.1576.0195-.2302.0312-.0726.0849-.1332.1533-.1728l2.1524-1.2467c.0773-.0446.1682-.0594.2556-.0418.0875.0177.1656.0666.2195.1377.054.071.0802.1593.0737.2483-.0064.089-.0452.1726-.1088.2351l-1.1228 1.1 2.849-1.6441c.0792-.045.1722-.0589.2611-.0391.0888.0198.1671.072.2196.1464.0526.0744.0755.1656.0645.256-.0111.0904-.0554.1734-.1242.2329l-2.4332 2.0702 3.4371-1.98c.0811-.0464.1769-.0602.2677-.0384.0909.0218.17.0775.2213.1556.0512.0782.0706.173.0543.265-.0164.092-.0672.1743-.1422.2301l-1.3977 1.0267 1.7123-.9878c.0804-.0456.175-.0592.2649-.0381.09.0212.1687.0755.2203.1521.0516.0767.0724.17.0582.2613-.0143.0913-.0624.1739-.1349.2312l-2.6811 2.0819 2.9334-1.6933c.0805-.0462.1756-.0601.266-.039.0905.0212.1695.0759.2212.1531.0516.0771.0721.171.0572.2627s-.064.1743-.1374.2312l-2.3687 1.8186 2.3173-1.3368c.0788-.0444.1713-.0582.2596-.0385.0883.0196.1662.0711.2188.1447s.0761.1641.066.254c-.01.0899-.053.1729-.1205.233l-2.8219 2.4567 2.3863-1.3765c.0796-.0453.1734-.0592.2628-.0388.0893.0204.1678.0734.22.1488s.0742.1675.0618.2583c-.0124.0909-.0583.1737-.1288.2323l-.8499.696c.079-.0234.1635-.0194.24.0112s.1405.086.1816.1574c.0484.0842.0615.1841.0363.2778-.0252.0938-.0865.1737-.1705.2224l-3.7612 2.1714c-.0556.0327-.1189.0501-.1834.0506z" fill="#681ff4"/><path d="m32.3651 25.9301c-.0719 0-.1422-.0211-.2021-.0607-.06-.0396-.107-.096-.1352-.1621s-.0364-.139-.0235-.2097.0463-.136.096-.1879l1.6867-1.7461-3.6469 2.1032c-.0807.046-.1758.0596-.2662.0381-.0903-.0215-.1692-.0765-.2206-.1538-.0513-.0774-.0715-.1714-.0562-.263.0152-.0916.0646-.1741.1382-.2307l1.2467-.9438-1.7952 1.0399c-.081.0454-.1763.0584-.2666.0363-.0902-.0222-.1687-.0777-.2195-.1555-.0509-.0778-.0703-.1719-.0544-.2635.0159-.0915.066-.1736.1401-.2296l1.3537-1.001-1.6756.968c-.081.046-.1765.0595-.2671.0377-.0905-.0218-.1694-.0773-.2206-.1551-.0511-.0779-.0707-.1723-.0548-.2641s.0662-.1741.1406-.2301l1.9257-1.4322-2.1134 1.2224c-.0812.0458-.1767.059-.2673.0369-.0905-.0221-.1692-.0779-.2201-.1559-.0509-.0781-.0701-.1726-.0539-.2644.0163-.0917.067-.1739.1416-.2296l1.5327-1.1213-1.4924.8543c-.0814.0445-.1767.0563-.2665.0333-.0899-.023-.1677-.0793-.2177-.1574-.0501-.0782-.0686-.1723-.052-.2636.0167-.0913.0673-.1728.1417-.2283l.2112-.1466c-.0816.0375-.1742.0437-.2601.0175-.0859-.0263-.1592-.0832-.206-.1599s-.0637-.1679-.0477-.2563.064-.1678.1347-.2232l1.6272-1.2635-1.1733.6768c-.076.0431-.165.0576-.2508.0409s-.1628-.0636-.2171-.132c-.0544-.0685-.0824-.1542-.0792-.2415.0032-.0874.0376-.1707.0968-.235l1.5914-1.6969h-.0044c-.0418.0265-.0884.0443-.1372.0524-.0488.008-.0987.0061-.1468-.0057-.048-.0118-.0931-.0331-.1327-.0628s-.0727-.067-.0975-.1098c-.0247-.0429-.0406-.0902-.0465-.1393-.006-.0491-.002-.0989.0118-.1464s.037-.0917.0684-.13c.0313-.0383.07-.0698.1138-.0927l2.1523-1.2467c.0761-.0436.1653-.0585.2514-.0419.0861.0165.1634.0633.218.132.0545.0686.0827.1545.0793.2421s-.038.1711-.0977.2354l-1.5935 1.7035 3.6667-2.1178c.0803-.0448.1745-.0578.264-.0363.0894.0214.1675.0756.2188.152.0513.0763.0721.1691.0582.26-.014.0909-.0615.1733-.1333.2307l-1.6265 1.2636 2.2733-1.3112c.0816-.0459.1777-.0588.2685-.0361s.1695.0793.22.1582c.0504.0788.0688.174.0513.2659-.0174.092-.0694.1738-.1453.2287l-.1972.1401.4055-.234c.0811-.0448.1762-.0573.2661-.0348.09.0224.1681.0781.2186.1558.0506.0776.0698.1716.0539.2629s-.0658.1732-.1397.2292l-1.5312 1.1213 1.7065-.9849c.081-.0471.177-.0615.2683-.04.0913.0214.1708.077.2224.1553.0515.0783.0711.1734.0547.2657-.0163.0923-.0674.1748-.1428.2306l-1.925 1.4322 1.9485-1.1249c.081-.0455.1763-.0584.2666-.0363.0902.0221.1687.0777.2195.1555.0509.0777.0703.1719.0544.2634-.0159.0916-.066.1737-.1401.2297l-1.3538.9959 1.1484-.66c.0808-.046.1759-.0596.2663-.0381.0903.0215.1692.0765.2206.1538.0513.0774.0715.1714.0562.263-.0152.0916-.0646.1741-.1383.2307l-1.2466.9452.8066-.4656c.0765-.0437.1661-.0583.2525-.0414.0863.017.1637.0644.218.1337.0543.0694.0818.1559.0776.2438-.0043.0879-.04.1714-.1007.2351l-1.6867 1.7461.2141-.1232c.0842-.0479.1839-.0605.2773-.0351.0935.0254.1731.0867.2215.1705.0484.0839.0617.1835.037.2771-.0248.0936-.0856.1736-.1691.2226l-2.4669 1.4241c-.055.031-.1173.047-.1804.0462z" fill="#3c16af"/><path d="m26.6872 25.8865c-.0732.0001-.1448-.0217-.2056-.0626-.0607-.0409-.1078-.0991-.1352-.167-.0274-.068-.0338-.1426-.0184-.2142s.0519-.137.1048-.1876l1.0061-.9651-2.6576 1.5341c-.0791.0464-.1727.0614-.2623.0421-.0896-.0192-.1688-.0714-.2219-.1461s-.0763-.1666-.065-.2576c.0113-.0909.0563-.1744.1261-.2338l2.4882-2.1472-3.5523 2.0533c-.081.046-.1765.0595-.267.0377-.0906-.0218-.1695-.0772-.2207-.1551-.0511-.0779-.0707-.1723-.0548-.2641s.0662-.174.1406-.2301l1.5884-1.1799-1.9301 1.1146c-.0804.0476-.176.0627-.2671.0422-.0912-.0204-.1711-.075-.2234-.1524-.0524-.0774-.0732-.1719-.0582-.2641s.0646-.1753.1388-.2321l2.8145-2.2081-3.08 1.7761c-.0806.0463-.1757.0602-.2661.0391-.0904-.0212-.1695-.0759-.2211-.1531-.0517-.0772-.0722-.1711-.0573-.2628.0149-.0916.0641-.1742.1375-.2311l2.3753-1.8282-2.3056 1.331c-.0795.0455-.173.0597-.2623.0397-.0894-.02-.168-.0726-.2205-.1476s-.075-.1669-.0631-.2577c.0118-.0907.0572-.1738.1271-.2328l2.5828-2.1714-2.1545 1.2467c-.0763.0436-.1657.0583-.252.0415s-.1636-.064-.218-.133-.0821-.1553-.0783-.2431c.0039-.0878.0392-.1713.0995-.2352l1.5444-1.628c-.0856.0374-.1823.0408-.2703.0093-.088-.0314-.1607-.0953-.2032-.1785s-.0517-.1795-.0255-.2693c.0261-.0897.0855-.1661.1661-.2135l2.1523-1.2466c.0762-.0436.1656-.0584.2518-.0417s.1635.0638.218.1327c.0544.0689.0823.155.0786.2428-.0037.0877-.0388.1712-.0989.2352l-1.54 1.6244 3.5736-2.0629c.0794-.0455.1729-.0597.2623-.0397.0893.02.1679.0726.2204.1476s.075.1669.0632.2577c-.0119.0907-.0572.1738-.1272.2328l-2.5821 2.1707 3.4936-2.0167c.0805-.0453.1752-.0586.2651-.0371.0898.0215.1683.0761.2196.1529.0514.0768.0718.1702.0573.2614-.0146.0913-.063.1737-.1357.2307l-2.3775 1.8334 2.753-1.5892c.0803-.0462.1751-.0603.2653-.0395.0903.0208.1694.075.2213.1518.0519.0767.0729.1702.0587.2618-.0143.0915-.0626.1743-.1354.2317l-2.8138 2.208 2.9671-1.7123c.0809-.0451.1759-.0578.2659-.0357s.1682.0775.219.155c.0509.0774.0705.1713.0549.2626-.0155.0913-.0651.1734-.1387.2297l-1.5877 1.1792 1.4044-.8103c.079-.0462.1724-.0611.2618-.0419.0895.0192.1686.0712.2217.1457s.0764.1662.0654.257c-.0111.0908-.0557.1743-.1251.2339l-2.4882 2.1472 1.9177-1.1073c.0776-.0467.1697-.0631.2586-.0459.0889.0171.1683.0666.2229.1388.0547.0722.0806.162.073.2522-.0077.0903-.0485.1744-.1145.2364l-1.2386 1.1858c.0755.0107.1459.0447.2012.0973.0553.0525.0928.121.1073.1959.0146.0749.0054.1525-.0263.2219-.0316.0694-.0841.1273-.1502.1654l-2.1516 1.2467c-.0569.0316-.1212.0473-.1863.0455z" fill="#681ff4"/><path d="m18.1967 26.0045c-.0732-.0002-.1447-.0222-.2053-.0633-.0605-.0412-.1074-.0995-.1346-.1675-.0271-.068-.0333-.1426-.0176-.2141.0156-.0715.0522-.1368.1053-.1873l2.277-2.1662-3.8251 2.2073c-.0808.0453-.1757.0584-.2658.0366-.09-.0218-.1684-.0769-.2195-.1542-.0511-.0772-.0711-.171-.0558-.2624.0152-.0913.0644-.1736.1378-.2301l1.6272-1.2291-2.0885 1.2063c-.0801.0457-.1745.0595-.2643.0387-.0898-.0207-.1685-.0746-.2204-.1508s-.0732-.1692-.0596-.2604.061-.174.1329-.2317l2.871-2.277-3.2575 1.881c-.0804.0465-.1754.0608-.2659.04-.0906-.0208-.1698-.0753-.2218-.1523-.0519-.077-.0727-.1708-.0581-.2625.0145-.0918.0634-.1746.1366-.2317l2.6701-2.0812-2.717 1.5671c-.0799.0461-.1743.0603-.2642.0398-.09-.0204-.1689-.074-.2211-.1501-.0522-.076-.0738-.169-.0605-.2602.0133-.0913.0605-.1742.1322-.2323l2.4889-2.0005-2.2 1.2709c-.0799.0452-.1738.0587-.2633.038-.0894-.0207-.1678-.0743-.2197-.15s-.0734-.1682-.0605-.2591c.013-.0908.0596-.1736.1307-.2317l1.32-1.0568-.6285.3623c-.0786.0442-.1708.0578-.2589.0383-.088-.0195-.1658-.0708-.2184-.144-.0527-.0732-.0765-.1633-.0669-.253s.0519-.1726.1189-.2331l.979-.8624c-.0565-.0316-.1036-.0777-.1365-.1334-.033-.0558-.0505-.1192-.051-.184-.0004-.0647.0163-.1284.0484-.1846.0322-.0562.0786-.1028.1347-.1353l2.1523-1.2466c.0786-.0442.1708-.0578.2588-.0383.0881.0195.1659.0707.2185.144.0527.0732.0765.1633.0669.2529-.0096.0897-.0519.1727-.1189.2332l-.2992.264 1.587-.9152c.0799-.0452.1738-.0588.2633-.0381.0894.0208.1678.0743.2197.15.0519.0758.0734.1682.0604.2591-.0129.0909-.0596.1736-.1306.2318l-1.3148 1.0545 2.1662-1.2467c.0801-.0463.1746-.0606.2648-.0401.0901.0204.1692.0742.2214.1505s.0737.1695.0601.261c-.0136.0914-.0613.1744-.1334.2322l-2.4838 1.9961 3.1658-1.8275c.0804-.0465.1754-.0608.266-.04.0905.0208.1697.0753.2217.1523.0519.077.0727.1708.0582.2626-.0146.0917-.0634.1745-.1367.2316l-2.673 2.0834 3.0067-1.7336c.08-.0449.174-.0581.2633-.037.0894.0211.1675.0749.2191.1508s.0729.1684.0596.2592-.0602.1733-.1314.2313l-2.8688 2.2733 2.926-1.6867c.0808-.0453.1758-.0584.2658-.0366s.1685.0769.2196.1542c.051.0773.071.171.0558.2624s-.0645.1736-.1378.2302l-1.631 1.2312 1.3398-.7729c.0777-.0449.1692-.0598.2571-.0418.0879.0181.1662.0677.22.1395.0538.0719.0793.161.0718.2504s-.0475.173-.1125.2349l-2.2734 2.1648 1.3266-.7656c.0838-.0438.1813-.0536.2721-.0272.0909.0263.168.0867.2153.1686.0474.0819.0612.1789.0387.2707-.0225.0919-.0796.1715-.1594.2222l-3.9974 2.3086c-.058.0332-.1239.0499-.1907.0484z" fill="#3c16af"/><path d="m13.4876 25.8864c-.0726.0001-.1437-.0213-.2041-.0616s-.1075-.0976-.1353-.1647-.0351-.1409-.0209-.2121.0493-.1366.1007-.1879l1.2606-1.2599-3.08 1.7791c-.08.0454-.1742.0591-.2638.0384-.0896-.0208-.1682-.0745-.2201-.1505-.0518-.0759-.0733-.1686-.06-.2597.0133-.091.0603-.1737.1317-.2317l1.7974-1.4352-2.5725 1.4858c-.0811.0464-.1768.0602-.26773.0384-.09088-.0218-.17001-.0775-.22122-.1557-.05121-.0781-.07064-.1729-.05432-.2649.01633-.0921.06717-.1744.14215-.2302l1.43442-1.0611-1.78788 1.0318c-.07973.0448-.17331.0582-.26238.0375s-.16721-.0739-.21909-.1492c-.05188-.0752-.07376-.1672-.06134-.2578s.05824-.1733.12847-.2318l3.19952-2.6019-3.56325 2.0577c-.07944.0464-.17337.0611-.26319.0415-.08982-.0197-.16896-.0725-.22174-.1477-.05278-.0753-.07535-.1677-.06322-.2589.01212-.0911.05805-.1744.12868-.2333l3.24862-2.7184-3.22662 1.8619c-.07961.0468-.17395.0618-.26415.0421-.0902-.0198-.16964-.0728-.22243-.1486s-.07505-.1686-.06234-.2601c.01272-.0915.05947-.1748.13092-.2333l2.21462-1.8333-1.68075.9702c-.07712.0434-.16732.0574-.25397.0395-.08664-.0179-.16389-.0666-.21749-.137s-.07994-.1578-.07415-.246c.00578-.0883.04329-.1716.10561-.2344l1.33173-1.32h-.00513c-.08071 0-.15917-.0266-.2232-.0757-.06404-.0492-.11007-.1181-.13096-.196-.02089-.078-.01547-.1607.01541-.2352.03089-.0746.08552-.1369.15542-.1773l2.15228-1.2466c.0772-.0434.1674-.0574.254-.0395.0867.0179.1639.0666.2175.1369.0536.0704.0799.1578.0742.2461-.0058.0883-.0433.1715-.1057.2343l-1.2019 1.1895 2.9817-1.7211c.0795-.045.1729-.0586.2619-.0384.0891.0203.1673.0731.2195.148s.0746.1666.0627.2572c-.0119.0905-.0571.1733-.1268.2323l-2.2139 1.8333 3.1188-1.8003c.0796-.0474.1741-.063.2647-.0436s.1704.0724.2235.1482c.0531.0759.0756.1691.0628.2608-.0127.0917-.0597.1752-.1315.2337l-3.2472 2.7178 3.8933-2.2484c.0798-.0458.174-.0599.2637-.0395.0898.0205.1685.0739.2207.1497s.0739.1685.061.2596c-.013.0911-.0598.174-.1311.2322l-3.2003 2.6026 3.3902-1.9572c.0812-.0477.1775-.0623.2692-.0409.0916.0214.1715.0772.2231.1559.0516.0786.071.1741.0542.2667s-.0686.1751-.1446.2306l-1.4344 1.0611 1.2041-.6952c.0801-.0454.1742-.0591.2638-.0383.0897.0207.1682.0744.2201.1504s.0733.1687.06.2597c-.0133.0911-.0603.1738-.1317.2318l-1.7974 1.4351 1.2745-.7333c.0769-.0423.1665-.0556.2524-.0374.0859.0181.1624.0665.2156.1362.0533.0698.0798.1564.0746.244-.0051.0876-.0415.1705-.1026.2336l-1.3552 1.364c.068-.0033.1355.012.1954.0442.06.0321.11.08.1449.1384.0486.0842.0618.1843.0366.2782s-.0866.174-.1708.2226l-2.1516 1.2467c-.0571.0318-.1217.0475-.187.0455z" fill="#511bd3"/><path d="m28.5055 32.5302c-.0773.001-.153-.0226-.2161-.0672-.0632-.0447-.1106-.1082-.1355-.1814s-.026-.1524-.0031-.2263c.0228-.0739.0684-.1387.1303-.1851l.8521-.66-1.5458.8918c-.0796.0451-.1732.0588-.2624.0385s-.1675-.0732-.2197-.1483c-.0522-.0752-.0744-.1671-.0623-.2578.0122-.0907.0577-.1735.1278-.2323l2.7398-2.2572-3.4958 2.0247c-.0805.0459-.1753.0597-.2655.0385-.0902-.0211-.169-.0756-.2207-.1525-.0516-.0769-.0722-.1705-.0577-.262.0146-.0915.0632-.1741.1361-.2312l2.5403-1.9616-2.6759 1.5444c-.0809.0456-.1761.0589-.2664.0371s-.169-.0771-.2201-.1547c-.0511-.0775-.0709-.1716-.0553-.2632.0156-.0915.0653-.1738.1392-.2301l1.8054-1.3471-1.4036.8066c-.0795.0457-.1732.06-.2627.04s-.1683-.0728-.2207-.1481c-.0525-.0752-.0749-.1673-.0628-.2582s.0579-.174.1282-.2328l2.4545-2.0533-2.0379 1.1733c-.0805.045-.1749.0581-.2645.0367-.0897-.0215-.1679-.0759-.2193-.1525-.0513-.0765-.0719-.1696-.0577-.2607.0143-.0911.0623-.1734.1345-.2307l.4312-.3329-.025.0132c-.0763.0436-.1657.0583-.252.0415-.0862-.0168-.1636-.064-.218-.133-.0543-.069-.0821-.1553-.0782-.2431s.0392-.1713.0994-.2352l.8896-.9358c-.0826.0358-.1755.04-.261.0117-.0854-.0282-.1575-.087-.2025-.1649-.0486-.0843-.0618-.1843-.0366-.2783.0251-.0939.0866-.174.1708-.2226l2.1501-1.2415c.0763-.0442.166-.0593.2526-.0427.0865.0165.1643.0638.2188.133.0546.0692.0825.1557.0785.2438-.0041.088-.0397.1717-.1003.2357l-.8844.9306 2.5608-1.4667c.0804-.045.1748-.0581.2645-.0367.0896.0215.1679.0759.2192.1525.0513.0765.0719.1696.0577.2607-.0142.091-.0622.1734-.1344.2307l-.4298.3322.9827-.5669c.0794-.0455.173-.0597.2623-.0397s.168.0726.2204.1476c.0525.075.0751.1669.0632.2577-.0118.0908-.0572.1738-.1272.2328l-2.4544 2.0534 3.1335-1.8092c.0809-.0457.1761-.0589.2664-.0371s.1689.0771.22.1546c.0512.0776.0709.1717.0554.2632-.0156.0916-.0653.1739-.1392.2302l-1.8025 1.3449 2.0042-1.1564c.0804-.0451.1748-.0582.2645-.0367.0896.0214.1679.0759.2192.1524.0513.0766.0719.1697.0577.2607-.0142.0911-.0622.1735-.1344.2308l-2.5432 1.9638 2.5901-1.4945c.0796-.0451.1731-.0589.2623-.0386s.1676.0732.2198.1484c.0522.0751.0744.1671.0622.2577-.0121.0907-.0577.1736-.1278.2324l-2.7397 2.2572 2.4647-1.4227c.0805-.0459.1753-.0597.2655-.0385.0902.0211.169.0756.2207.1525.0516.0769.0722.1705.0577.262s-.0632.1741-.1361.2312l-.8529.66.2141-.1232c.0781-.0429.1691-.056.256-.0368.087.0193.164.0695.2166.1414.0526.0718.0773.1604.0694.2491s-.0478.1715-.1122.233l-1.067.9665c.063.0263.1174.0697.1571.1253s.063.1211.0675.1893c.0044.0681-.0103.1362-.0425.1964-.0322.0603-.0805.1103-.1396.1446l-2.1531 1.2467c-.078.0429-.169.0559-.2559.0367-.087-.0192-.164-.0695-.2166-.1413-.0526-.0719-.0773-.1604-.0694-.2491.0078-.0888.0477-.1716.1122-.233l.5639-.5133-1.98 1.1432c-.0563.0299-.1196.0444-.1833.0418z" fill="#681ff4"/><path d="m22.1776 32.6029c-.076 0-.1502-.0236-.2123-.0676-.062-.0439-.1088-.1061-.134-.1779-.0251-.0718-.0273-.1496-.0062-.2227.021-.0731.0643-.1378.1237-.1852l.2772-.22-1.1784.679c-.0794.0448-.1726.0584-.2615.0382-.0889-.0203-.167-.0729-.2192-.1476s-.0747-.1662-.0631-.2566.0564-.1732.1258-.2324l2.2161-1.848-3.1533 1.8209c-.0805.0469-.1758.0614-.2666.0406s-.1703-.0755-.2222-.1527c-.052-.0773-.0727-.1715-.0577-.2635.0149-.0919.0642-.1747.138-.2316l2.3401-1.8143-2.8043 1.6185c-.0818.047-.1786.0606-.2703.038-.0916-.0226-.171-.0796-.2216-.1593-.0506-.0796-.0686-.1757-.0502-.2683.0184-.0925.0718-.1744.149-.2286l.187-.1298-.0733.0425c-.0812.047-.1773.0612-.2685.0395-.0913-.0217-.1707-.0776-.2221-.1561s-.0706-.1738-.0539-.2662c.0168-.0923.0684-.1748.1441-.2302l1.4461-1.0612-1.0486.605c-.0813.0463-.1771.0597-.268.0376-.0908-.0221-.1698-.0781-.2207-.1565-.051-.0783-.0701-.1732-.0534-.2652s.0679-.1742.1431-.2297l.5618-.407-.1636.0939c-.0781.0454-.1702.0603-.2586.042-.0884-.0184-.167-.0687-.2206-.1414s-.0785-.1626-.0699-.2526c.0086-.0899.0501-.1734.1165-.2347l2.3114-2.1596-1.8802 1.0882c-.0767.0437-.1666.0583-.2531.0411-.0866-.0172-.164-.0651-.2181-.1348-.0542-.0697-.0813-.1566-.0765-.2447s.0412-.1716.1025-.235l.8111-.8302c-.0851.0166-.1733.0025-.2489-.0397-.0757-.0423-.1339-.11-.1644-.1911-.0305-.0812-.0313-.1705-.0022-.2521.0291-.0817.0861-.1504.161-.1939l2.1502-1.2416c.0767-.0442.1668-.0592.2537-.0422.0868.017.1646.0649.219.1348.0543.0699.0815.1571.0766.2455s-.0417.172-.1035.2354l-.7612.7759 2.3467-1.3538c.0781-.046.1705-.0615.2594-.0434.0888.0181.1678.0685.2217.1415.0539.0729.0788.1632.07.2534-.0088.0903-.0507.1741-.1177.2352l-2.3129 2.1597 3.4716-2.005c.0812-.0462.1771-.0596.2679-.0375.0909.0221.1699.078.2208.1564.051.0784.07.1733.0534.2653-.0167.092-.0679.1741-.1432.2296l-.5639.41.7912-.4569c.0812-.0469.1773-.0609.2686-.0392.0912.0218.1706.0777.2219.1562.0512.0785.0705.1737.0537.266-.0167.0922-.0682.1746-.1437.2301l-1.4462 1.0596 1.5928-.9225c.0819-.047.1787-.0606.2703-.038s.171.0797.2216.1593c.0507.0796.0687.1757.0502.2683-.0184.0925-.0718.1744-.149.2286l-.1863.1305.1173-.0674c.0805-.0459.1754-.0597.2655-.0385.0902.0211.1691.0756.2207.1525s.0723.1705.0577.262c-.0145.0915-.0632.1741-.1361.2312l-2.3372 1.8128 2.192-1.2621c.0795-.0465.1736-.0614.2636-.0417s.1693.0726.2221.1481.0752.1682.0628.2595-.0588.1746-.1298.2332l-2.2161 1.8473 1.6647-.9614c.0801-.0466.1749-.0611.2652-.0406.0904.0205.1697.0744.2219.151.0523.0766.0735.1701.0596.2617s-.062.1746-.1346.2322l-.7033.5624c.0746.0123.1436.0472.1975.1001.054.053.0903.1213.1039.1956.0137.0743.004.1511-.0276.2197-.0317.0686-.0837.1258-.1491.1637l-3.52 2.0313c-.0556.0325-.1189.0495-.1834.0492z" fill="#511bd3"/><path d="m14.7442 32.6076c-.0744 0-.147-.0226-.2083-.0648-.0612-.0423-.1081-.1021-.1346-.1717-.0264-.0695-.031-.1455-.0133-.2177.0178-.0723.0571-.1374.1128-.1868l1.5737-1.3999-2.8871 1.6661c-.0792.0443-.1719.0577-.2603.0377-.0885-.0201-.1663-.0723-.2185-.1464-.0523-.0741-.0752-.1649-.0644-.255.0108-.09.0546-.1728.123-.2325l2.8299-2.4016-3.7268 2.1516c-.0798.0455-.1737.0595-.2633.0391-.0895-.0204-.1681-.0736-.2203-.1492s-.0741-.168-.0614-.259.0591-.1738.1299-.2323l3.1871-2.5989-3.6344 2.1003c-.0815.0472-.178.0613-.2696.0393s-.1712-.0785-.2223-.1576-.0698-.1748-.0522-.2674c.0175-.0925.0701-.1747.1466-.2296l1.0318-.7407-.9724.5618c-.0816.0471-.1783.0609-.2699.0386s-.1711-.0791-.2219-.1584c-.0509-.0794-.0693-.1753-.0513-.2678.018-.0926.071-.1746.1479-.2292l.3666-.2581-.1364.0777c-.0789.046-.1721.0609-.2615.0417-.0893-.0192-.1682-.071-.2213-.1453-.05313-.0743-.0766-.1657-.06583-.2564s.05503-.1742.12403-.234l2.599-2.2689-2.0409 1.1777c-.0776.0467-.1697.0631-.2586.0459-.0889-.0171-.1683-.0666-.2229-.1388-.0547-.0722-.0806-.162-.073-.2522.0077-.0903.0485-.1744.1145-.2364l1.2503-1.2049c-.0763-.0093-.1477-.0423-.2042-.0945-.0565-.0521-.0952-.1206-.1106-.196-.0154-.0753-.0067-.1535.0248-.2236.0314-.0702.0842-.1286.1507-.1671l2.1523-1.2467c.0776-.0467.1697-.063.2586-.0459.0889.0172.1683.0666.2229.1388.0547.0722.0807.1621.073.2523s-.0484.1744-.1145.2363l-1.0325.9944 2.6994-1.559c.0789-.0468.1725-.0622.2623-.0434.0898.0189.1692.0708.2227.1454.0534.0746.0769.1665.0658.2576-.011.0911-.0558.1747-.1255.2344l-2.5982 2.2689 3.6982-2.1355c.0817-.0471.1784-.0609.2699-.0386.0916.0223.1711.0791.222.1584.0509.0794.0692.1753.0512.2678-.018.0926-.0709.1746-.1478.2292l-.3667.2603.5764-.3329c.0815-.0473.1781-.0613.2696-.0393.0916.022.1712.0784.2223.1575s.0698.1749.0523.2674c-.0176.0926-.0701.1748-.1467.2296l-1.0377.7444 1.1609-.6696c.0797-.0455.1737-.0595.2632-.0391.0896.0204.1682.0737.2204.1492.0522.0756.0741.168.0614.259s-.0591.1739-.1299.2323l-3.1856 2.5982 3.3-1.9067c.0792-.0459.1728-.0605.2623-.0409.0894.0196.1683.072.2211.1469.0528.0748.0756.1667.0641.2576-.0116.0909-.0568.1741-.1266.2333l-2.8299 2.401 2.4794-1.4308c.0786-.0455.1714-.0602.2603-.0411.0889.019.1675.0703.2207.144.0531.0738.077.1646.067.2549-.01.0904-.0532.1738-.1212.234l-1.573 1.4014.5588-.3219c.0417-.0265.0884-.0443.1372-.0524.0488-.008.0987-.0061.1467.0057s.0932.0331.1328.0628c.0395.0297.0727.067.0974.1098.0248.0429.0406.0902.0466.1393.0059.0491.0019.0989-.0119.1464s-.037.0917-.0683.13-.0701.0698-.1139.0927l-3.6666 2.1179c-.0569.0335-.1218.0508-.1878.0499z" fill="#681ff4"/><path d="m7.55335 21.7974c.08443.8346.3995 1.6291.90993 2.2947s1.19607 1.176 1.98012 1.4739c-.3259.5219-.54207 1.1048-.63531 1.713s-.06159 1.229.09301 1.8246c.1546.5955.4289 1.1534.8062 1.6394.3773.4861.8497.8902 1.3883 1.1876-.2539.9824-.1748 2.0213.2249 2.9539.3997.9327 1.0974 1.7064 1.9839 2.2-1.0772 3.7517 3.0668 6.8237 6.4952 5.28 3.41 3.2083 9.6176-.3461 8.1121-4.9324 1.0961-.4115 2.0059-1.2064 2.5607-2.2374.5549-1.031.7172-2.2282.457-3.3697.5335-.3105 1.0002-.7237 1.3731-1.2158.3728-.492.6444-1.053.7991-1.6507.1546-.5976.1893-1.22.1019-1.8312-.0874-.6111-.295-1.1988-.6109-1.7292 3.5412-1.386 3.8595-6.7305.2933-8.2823 2.1333-4.9448-4.7461-8.6687-8.1481-4.8568-.4578-.5102-1.0326-.9017-1.6749-1.1411-.0543-3.12327 1.1264-6.072 1.7109-9.03393-1.3633-3.50754-4.8738-1.204137-4.9471 1.837-.4089-.13978-.8323-.23277-1.2621-.2772-.66-4.598004-5.621-2.57694-8.7002-2.54027-.7466-.0682-2.13185-.4686-2.53738.49647.88 3.69013 6.63888 7.9244 10.16108 4.85833 2.3973.91153 1.5745 2.80793 1.54 4.8305-.58.249-1.1116.598-1.5708 1.031-3.2619-3.8969-10.57541.1467-8.3373 4.9962-.82459.4075-1.50912 1.0514-1.96625 1.8496-.45714.7981-.66616 1.7144-.6004 2.6318zm4.08765 8.5104c-4.38611-8.682 10.1838-8.4114 6.1534.0733-1.3596 2.2865-4.7315 1.9969-6.1534-.0733zm9.0566-12.1602c.6958.5894 1.1794 1.3904 1.377 2.2806.1976.8901.0982 1.8205-.2828 2.6489-1.306.079-2.5328.6528-3.4306 1.6045-.4648-.4999-1.0374-.8876-1.6742-1.1337.5494-.8604.7869-1.8832.6728-2.8976s-.573-1.959-1.2998-2.6757c.6805-.4949 1.5075-.7469 2.3484-.7155.8408.0314 1.6468.3443 2.2885.8885zm6.9337-.3124c.8382.5651 1.4477 1.4103 1.7193 2.384.2716.9738.1875 2.0124-.2372 2.9298-1.2691.0909-2.4615.6409-3.3543 1.5473-.7637-.8551-1.8045-1.4134-2.9392-1.5767.3123-.6911.4521-1.4477.4074-2.2048s-.2726-1.4921-.6641-2.1416c.5494-.7942 1.3907-1.3386 2.3402-1.5143.9495-.1758 1.9307.0314 2.7279.5763zm-2.3877 18.9574c-.0713.0321-.1322.0834-.1758.1482-.0437.0647-.0684.1404-.0714.2185-1.4454 2.0739-4.4 1.7461-5.8791-.0917.8328-.3933 1.5306-1.0242 2.0054-1.8133.4749-.7891.7056-1.7011.6632-2.6211 1.0721.0376 2.1289-.2631 3.0206-.8595.5857.6873.9425 1.54 1.0208 2.4396.0784.8996-.1257 1.8012-.5837 2.5793zm-5.6467-9.0684c-.0154-.813-.2489-1.607-.6761-2.299.3629-.4851.8365-.8765 1.3814-1.1414.545-.2648 1.1453-.3956 1.751-.3812.6058.0143 1.1992.1734 1.731.4637.5318.2904.9864.7038 1.3259 1.2056 2.9605 4.1243-3.2641 8.8946-6.226 4.5679.4567-.7237.7037-1.5599.7135-2.4156zm-6.5435 4.5819c.898.2537 1.8473.2646 2.751.0315.9036-.233 1.7292-.7017 2.3926-1.3581.6533.7453 1.5203 1.2714 2.483 1.507.6703 6.27-8.2866 5.8058-7.6266-.1804zm5.2631 9.8604c-.9851-.2968-1.8336-.932-2.396-1.7935-.5623-.8616-.8022-1.894-.6774-2.9152.9472.2717 1.9517.2717 2.8989 0 .5755.6558 1.3176 1.1439 2.1478 1.4125.8302.2687 1.7176.3079 2.5682.1135-.1093.6522-.3704 1.2694-.7623 1.802-.3918.5326-.9034.9656-1.4934 1.2641-.7251.3041-1.5336.3453-2.2858.1166zm8.1737.033c-.7027.5054-1.5587.7519-2.4226.6977-.8638-.0543-1.6823-.406-2.3162-.9954.5827-.3465 1.0808-.8185 1.4583-1.3815.3775-.5631.6249-1.2032.7241-1.8738.6051-.2552 1.1557-.6238 1.6222-1.0861.7441.2249 1.5295.2791 2.2975.1584.2546.7972.2605 1.653.017 2.4536s-.7249 1.5082-1.3803 2.0286zm3.3074-6.2524c-.474.4596-1.0626.7836-1.7044.9384s-1.3134.1346-1.9447-.0584c.5885-.8652.8523-1.9105.745-2.9513-.1074-1.0409-.579-2.0103-1.3317-2.7372.022-.0227.0462-.0418.0682-.0652.6718.6862 1.5261 1.1656 2.4619 1.3813.9357.2158 1.9137.1588 2.8181-.164.1286.6542.0944 1.33-.0996 1.9678-.194.6379-.5418 1.2182-1.0128 1.6901zm1.5348-4.5562c-.8387.4776-1.8268.621-2.7667.4016-.9399-.2195-1.7623-.7856-2.3028-1.5852.4384-.7316.6687-1.5691.6661-2.422-.0025-.853-.2379-1.689-.6808-2.418 3.8185-4.9471 10.1024 2.9003 5.0842 6.0251zm3.6432-11.8741c.4574.9573.5424 2.0505.2385 3.067-.3038 1.0165-.9749 1.8837-1.8826 2.433-.3832-.5068-.8645-.9311-1.4152-1.2479-.5507-.3167-1.1595-.5193-1.7902-.5957.4116-.8691.5432-1.8446.3766-2.7917s-.6231-1.8191-1.3065-2.4957c1.958-1.5884 4.7799-.4649 5.7794 1.6324zm-3.7356-7.579c.7812.5037 1.3746 1.2508 1.6885 2.1257s.3308 1.8288.0481 2.7143c-.7141-.1658-1.4544-.1849-2.176-.0562-.7217.1287-1.4097.4025-2.0224.8049-.606-.4642-1.3165-.7726-2.0694-.8983.1907-.617.247-1.2678.165-1.9084-.0819-.6406-.3003-1.2561-.6402-1.8052.5461-.7788 1.3727-1.3156 2.3063-1.4977.9335-.1822 1.9013.0045 2.7001.5209zm-14.2589-4.9823c-3.1636.58667-6.7327-2.71333-7.60835-5.522 3.06095.72233 7.94645-2.3936 9.07135 2.10027-4.4374-.08727-4.9185 1.1594-.5427 2.59453-.2387.34314-.5537.62628-.9203.8272zm4.3003.6644c-1.1272-1.7468-3.4218-2.5344-5.3211-3.19587 4.1558-.99806 5.2991 2.5388 6.7173-2.99273.7224-.7986 1.8759-.0374 2.0218.8624-.5984 2.79473-1.6998 5.6078-1.683 8.5661-.6353-.086-1.2808-.0587-1.9066.0806-.0418-1.09263.2911-2.24543.1716-3.3205zm-1.0414 3.9475c.2846.0976.7583-.0469.839-.3124.6524-.1125 1.3232-.0422 1.9382.2032.9977.3723 1.8246 1.0971 2.3245 2.0374.4999.9404.6382 2.0312.3888 3.0666-1.3687.0364-2.6717.5943-3.6425 1.5598-.6919-.8086-1.6481-1.3457-2.6986-1.5158.1843-.6247.233-1.2815.1428-1.9266-.0902-.645-.3171-1.2633-.6657-1.8134.3533-.5316.823-.9758 1.3735-1.2988zm-8.8271 1.4902c2.3291-4.05243 8.14-.5603 6.9901 3.4716-1.05.0239-2.0699.3554-2.9333.9533-.6312-.4218-1.3505-.6939-2.1028-.7956-.7524-.1017-1.518-.0302-2.2385.2089-.2506-.6186-.3553-1.2867-.3059-1.9523.0493-.6657.2513-1.311.5904-1.8859zm1.2738 4.067c.6672.1108 1.2993.376 1.8459.7744.5465.3984.9924.919 1.3021 1.5203s.4745 1.2667.4814 1.943-.1443 1.3449-.4416 1.9524c-.9-.1684-1.828-.106-2.6973.1814s-1.6517.7904-2.274 1.462c-3.69305-1.7116-2.59671-8.3116 1.7835-7.8335z" fill="#262626"/></svg>