<svg width="32" height="32" viewBox="0 0 32 32" fill="none" xmlns="http://www.w3.org/2000/svg">
<g clip-path="url(#clip0_2357_2040)">
<path d="M16.5723 13.3346C16.4848 13.3346 16.399 13.2914 16.3483 13.2124C16.271 13.0924 16.3014 12.934 16.4166 12.8508L20.0768 10.221L14.9195 13.198C14.7942 13.2711 14.6347 13.2306 14.5584 13.1068C14.4827 12.9836 14.5195 12.8226 14.6406 12.7436L16.3366 11.6412L14.0187 12.9794C13.8944 13.0524 13.736 13.0119 13.6592 12.8903C13.583 12.7682 13.6171 12.6082 13.736 12.5276L18.9078 9.03216L12.8763 12.5143C12.7488 12.5879 12.5851 12.5442 12.512 12.4167C12.4379 12.2892 12.4816 12.126 12.6096 12.0524L25.1739 4.79802C25.2987 4.72602 25.4566 4.76602 25.5334 4.88709C25.6096 5.00922 25.5755 5.16922 25.4566 5.24976L20.2822 8.74682L24.8166 6.12922C24.9419 6.05669 25.1014 6.09722 25.1771 6.22042C25.2534 6.34362 25.2166 6.50469 25.0955 6.58362L23.3974 7.68709L24.4502 7.07962C24.5723 7.00709 24.7302 7.04656 24.8075 7.16549C24.8848 7.28549 24.8544 7.44389 24.7392 7.52709L21.0779 10.1575L23.5312 8.74202C23.6523 8.67109 23.8075 8.70789 23.8859 8.82362C23.9638 8.93989 23.9392 9.09669 23.8288 9.18309L21.9238 10.6679C21.9958 10.6828 22.0614 10.7271 22.1008 10.7959C22.175 10.9234 22.1312 11.0866 22.0032 11.1602L19.2454 12.7522C19.1243 12.8231 18.9691 12.7863 18.8907 12.6706C18.8128 12.5543 18.8374 12.3975 18.9478 12.3111L20.4699 11.1244L16.7051 13.2972C16.6635 13.3218 16.6171 13.333 16.5718 13.333L16.5723 13.3346Z" fill="#A3D34F"/>
<path d="M9.77653 14.9314C9.69333 14.9314 9.61066 14.8919 9.55946 14.8194C9.48 14.7074 9.49813 14.5527 9.60213 14.4631L10.2747 13.8818L9.27253 14.4599C9.1472 14.533 8.98773 14.4925 8.912 14.3687C8.83626 14.245 8.87253 14.085 8.99306 14.0055L17.1104 8.7154L8.6864 13.5783C8.56106 13.6503 8.40213 13.6114 8.32586 13.4877C8.25013 13.3655 8.28586 13.2045 8.40586 13.125L13.1781 9.97567L9.38453 12.1655C9.25866 12.2386 9.10026 12.1981 9.02346 12.0738C8.94773 11.9506 8.98506 11.7895 9.10613 11.7106L10.2549 10.9666L10.2096 10.9927C10.088 11.0642 9.9312 11.0269 9.85386 10.909C9.776 10.7911 9.8032 10.6333 9.91573 10.549L12.4096 8.67487C12.3253 8.66793 12.2453 8.621 12.2 8.5426C12.1259 8.41513 12.1696 8.25193 12.2976 8.17833L15.648 6.24393C15.7691 6.17193 15.9259 6.20927 16.0037 6.32767C16.0816 6.44553 16.0544 6.6034 15.9419 6.68767L13.7616 8.32607L19.0704 5.261C19.1963 5.18793 19.3552 5.22847 19.4315 5.35273C19.5072 5.47593 19.4699 5.637 19.3488 5.71593L18.2032 6.4578L20.6453 5.04767C20.7696 4.97407 20.9291 5.0146 21.0059 5.13833C21.0816 5.26047 21.0459 5.42153 20.9259 5.501L16.1504 8.65247L25.3904 3.31807C25.5157 3.245 25.6757 3.28553 25.7509 3.40927C25.8267 3.53247 25.7904 3.693 25.6699 3.77247L12.8213 12.1463C12.8629 12.2493 12.8357 12.3714 12.7483 12.4466L11.7595 13.3015C11.8245 13.3191 11.8832 13.3618 11.92 13.4253C11.9941 13.5527 11.9504 13.7159 11.8224 13.7895L9.90933 14.8941C9.86773 14.9186 9.82186 14.9298 9.776 14.9298L9.77653 14.9314Z" fill="#A3D34F"/>
<path d="M13.216 6.05193C13.1243 6.05193 13.0341 6.00393 12.9851 5.91859C12.9109 5.79113 12.9547 5.62793 13.0827 5.55433L21.3717 0.768196C21.4939 0.697262 21.6501 0.735129 21.728 0.852462C21.8059 0.971396 21.7776 1.12926 21.6635 1.21353L20.1259 2.34953L22.4603 1.00233C22.5829 0.929796 22.7413 0.969262 22.8181 1.08926C22.8955 1.20926 22.864 1.3682 22.7477 1.45086L22.4565 1.65673L23.28 1.18153C23.4 1.1106 23.5563 1.14686 23.6341 1.2626C23.7125 1.37886 23.6885 1.53566 23.5781 1.62206L22.2597 2.6578L24.4176 1.41246C24.5387 1.34153 24.6949 1.37833 24.7728 1.49513C24.8507 1.61193 24.8251 1.76926 24.7131 1.8546L23.7611 2.5842L25.4432 1.61353C25.5621 1.5442 25.7152 1.57833 25.7941 1.69033C25.8736 1.80286 25.8544 1.957 25.7499 2.04713L24.0965 3.46526L25.4331 2.69406C25.5595 2.6194 25.7243 2.66366 25.7973 2.79166C25.8715 2.91913 25.8277 3.08233 25.6997 3.15593L21.8805 5.36126C21.7621 5.4306 21.6091 5.397 21.5296 5.28446C21.4501 5.17193 21.4693 5.0178 21.5739 4.92766L23.2277 3.509L20.4864 5.0914C20.3653 5.16233 20.2091 5.12553 20.1312 5.00873C20.0533 4.89193 20.0789 4.7346 20.1909 4.64926L21.1435 3.91913L19.2923 4.9874C19.1712 5.0578 19.016 5.02153 18.9381 4.90633C18.8597 4.79006 18.8837 4.63326 18.9941 4.54686L20.312 3.51166L17.7205 5.00766C17.5984 5.0802 17.4395 5.04073 17.3627 4.92073C17.2853 4.80073 17.3168 4.6418 17.4331 4.55913L17.7221 4.35433L16.3024 5.17406C16.1813 5.24606 16.0245 5.2082 15.9461 5.0898C15.8683 4.97086 15.8965 4.813 16.0107 4.72873L17.5483 3.59273L13.3493 6.01673C13.3072 6.04126 13.2613 6.05246 13.216 6.05246V6.05193Z" fill="#A3D34F"/>
<path d="M8.90554 8.00444C8.81647 8.00444 8.72954 7.95964 8.67887 7.87911C8.60261 7.75698 8.63781 7.59644 8.75674 7.51644L12.7039 4.87004L9.13274 6.93191C9.00794 7.00444 8.84847 6.96391 8.77221 6.84124C8.69647 6.71911 8.73221 6.55804 8.85221 6.47858L10.6837 5.27004L9.31727 6.05884C9.19567 6.13031 9.03994 6.09244 8.96154 5.97564C8.88367 5.85831 8.91034 5.70044 9.02287 5.61564L12.4047 3.05084L10.0069 4.43538C9.88581 4.50631 9.73007 4.46951 9.65167 4.35324C9.57381 4.23591 9.59941 4.07858 9.71087 3.99324L11.0309 2.97938C10.9839 2.95698 10.9429 2.92071 10.9151 2.87218C10.841 2.74471 10.8847 2.58151 11.0127 2.50791L13.5642 1.03484C13.6853 0.96391 13.841 1.00018 13.9194 1.11698C13.9973 1.23431 13.9717 1.39164 13.8602 1.47698L13.241 1.95271L15.8234 0.462577C15.9439 0.39111 16.1007 0.428444 16.1791 0.545777C16.257 0.66311 16.2303 0.820977 16.1178 0.905777L12.7375 3.46898L18.1775 0.32871C18.3023 0.255644 18.4613 0.29671 18.5381 0.419377C18.6138 0.54151 18.5781 0.702577 18.4581 0.782043L16.6271 1.99004L19.3391 0.424177C19.4639 0.35111 19.6223 0.391644 19.6991 0.513777C19.7754 0.63591 19.7402 0.796444 19.6213 0.876444L15.6719 3.52391L20.6805 0.63271C20.8074 0.558044 20.9711 0.601777 21.0447 0.73031C21.1189 0.857777 21.0751 1.02098 20.9471 1.09458L9.03994 7.96924C8.99781 7.99378 8.95194 8.00498 8.90661 8.00498L8.90554 8.00444Z" fill="#A3D34F"/>
<path d="M5.12536 29.5998C5.03682 29.5998 4.95096 29.5555 4.89976 29.476C4.82349 29.355 4.85602 29.1955 4.97389 29.1139L8.03469 26.9939L4.94722 28.7763C4.82189 28.8483 4.66349 28.8088 4.58722 28.6862C4.51096 28.5635 4.54616 28.4035 4.66562 28.3235L6.11042 27.3603L4.72642 28.1592C4.60056 28.2328 4.44216 28.1912 4.36589 28.0686C4.29016 27.9459 4.32589 27.7854 4.44589 27.7054L5.09496 27.2782L4.40482 27.6766C4.28056 27.7491 4.12376 27.7096 4.04589 27.5886C3.96909 27.4675 4.00216 27.308 4.12002 27.2264L6.85176 25.3379L3.95896 27.0078C3.83416 27.0798 3.67469 27.0398 3.59843 26.9171C3.52269 26.7944 3.55842 26.6339 3.67842 26.5539L4.36482 26.1016L3.63576 26.5224C3.51416 26.5944 3.35736 26.556 3.27949 26.4382C3.20163 26.3203 3.22989 26.1614 3.34349 26.0776L6.98136 23.38L3.05229 25.6483C2.93016 25.7198 2.77229 25.6814 2.69496 25.5624C2.61762 25.4435 2.64749 25.2846 2.76323 25.2014L4.86882 23.6824L2.61122 24.9859C2.48962 25.0579 2.33229 25.02 2.25443 24.9006C2.17656 24.7816 2.20589 24.6232 2.32056 24.5395L4.19202 23.1742L2.17869 24.3368C2.05443 24.4094 1.89656 24.3699 1.81976 24.2488C1.74296 24.1272 1.77603 23.9678 1.89389 23.8862L2.40589 23.5336L1.85549 23.8515C1.73443 23.9235 1.57656 23.8851 1.49869 23.7667C1.42136 23.6478 1.45016 23.4894 1.56429 23.4056L3.55949 21.9432L1.41069 23.1838C1.28803 23.2552 1.13016 23.2168 1.05283 23.0974C0.976025 22.9774 1.00643 22.819 1.12269 22.7358L2.61976 21.6691L1.04803 22.5763C0.926425 22.6483 0.769625 22.6104 0.691225 22.4915C0.613892 22.3731 0.642692 22.2147 0.756292 22.131L2.89389 20.5576L0.769092 21.7843C0.648025 21.8552 0.492825 21.8184 0.414958 21.7032C0.336558 21.587 0.361092 21.4302 0.470958 21.3438L3.22349 19.1864L0.682158 20.6536C0.560025 20.7251 0.402158 20.6867 0.325358 20.5683C0.247492 20.4494 0.277358 20.2904 0.392025 20.2072L1.42776 19.4542L0.682158 19.8846C0.562692 19.955 0.408558 19.9192 0.329625 19.8062C0.251225 19.692 0.272558 19.5368 0.379225 19.4483L1.44696 18.5678L0.682158 19.0088C0.565358 19.0782 0.412825 19.0456 0.332825 18.9336C0.252825 18.8227 0.269892 18.6691 0.371758 18.5784L1.81709 17.2979L0.682158 17.9534C0.564825 18.0232 0.412292 17.9902 0.332292 17.8776C0.252292 17.7662 0.270425 17.612 0.373358 17.5219L1.63683 16.4158L0.682158 16.9667C0.562158 17.0371 0.408025 17.0019 0.329092 16.8872C0.250692 16.772 0.273092 16.6163 0.381358 16.5288L0.947225 16.0723L0.682692 16.2248C0.566958 16.2936 0.414958 16.2616 0.334425 16.1512C0.253892 16.0419 0.269358 15.8888 0.369625 15.7971L1.67043 14.6083L0.682158 15.1784C0.563758 15.2483 0.411225 15.2147 0.330692 15.1011C0.251758 14.988 0.271492 14.8334 0.376558 14.7443L1.14776 14.0888L0.682158 14.3576C0.564825 14.427 0.412292 14.3944 0.332292 14.2819C0.252292 14.1704 0.270425 14.0163 0.373358 13.9262L1.25176 13.1571L0.682158 13.4856C0.566425 13.5528 0.418692 13.5235 0.337625 13.4168C0.256025 13.3107 0.265625 13.1608 0.361092 13.0659L1.71256 11.7192L0.682158 12.3139C0.568025 12.3806 0.421892 12.3528 0.339225 12.2478C0.257092 12.1438 0.264025 11.995 0.355225 11.8995L1.50136 10.6974L0.681625 11.171C0.573892 11.2339 0.435758 11.212 0.350958 11.1198C0.266692 11.027 0.258158 10.8878 0.331225 10.7854L0.941892 9.9267C0.822425 9.9763 0.676825 9.9315 0.608558 9.81364C0.534425 9.68617 0.578158 9.52297 0.706158 9.44937L1.73229 8.85684C1.84056 8.79337 1.97816 8.81577 2.06296 8.90804C2.14723 9.00084 2.15576 9.14004 2.08269 9.24244L1.47469 10.0979L2.84269 9.30804C2.95629 9.24137 3.10296 9.2691 3.18563 9.37417C3.26776 9.47817 3.26082 9.62697 3.16962 9.72244L2.02243 10.9256L3.21229 10.2387C3.32696 10.171 3.47576 10.2003 3.55683 10.3075C3.63843 10.4136 3.62882 10.5635 3.53336 10.6584L2.18243 12.004L3.34136 11.3352C3.45922 11.267 3.61176 11.299 3.69123 11.411C3.77122 11.5224 3.75309 11.6766 3.65016 11.7667L2.77176 12.5358L3.43789 12.1512C3.55576 12.0819 3.70882 12.1144 3.78936 12.2286C3.86829 12.3416 3.84856 12.4963 3.74349 12.5854L2.97123 13.2408L3.52856 12.9192C3.64536 12.851 3.79682 12.883 3.87683 12.9928C3.95736 13.1022 3.94189 13.2552 3.84162 13.347L2.54136 14.5352L3.64429 13.8984C3.76429 13.828 3.91842 13.8632 3.99736 13.9779C4.07576 14.0931 4.05336 14.2488 3.94509 14.3363L3.37709 14.795L3.72642 14.5934C3.84429 14.5246 3.99682 14.5571 4.07629 14.6691C4.15629 14.7806 4.13816 14.9347 4.03522 15.0248L2.77229 16.1304L3.83522 15.5171C3.95309 15.4488 4.10456 15.4808 4.18456 15.5923C4.26456 15.7032 4.24749 15.8568 4.14562 15.9475L2.70083 17.227L3.95202 16.5048C4.07096 16.4344 4.22563 16.4702 4.30456 16.5832C4.38296 16.6974 4.36163 16.8526 4.25496 16.9411L3.18616 17.8227L5.55202 16.4568C5.67416 16.3848 5.83203 16.4238 5.90882 16.5422C5.98669 16.6611 5.95682 16.82 5.84216 16.9032L4.80696 17.6563L6.22509 16.8376C6.34562 16.7667 6.50136 16.804 6.57922 16.9187C6.65762 17.035 6.63309 17.1918 6.52322 17.2782L3.77122 19.435L6.78402 17.6952C6.90616 17.6243 7.06296 17.6616 7.14082 17.78C7.21816 17.8984 7.18936 18.0568 7.07576 18.1406L4.93709 19.715L7.18562 18.4168C7.30722 18.3448 7.46562 18.3832 7.54349 18.5032C7.62029 18.6232 7.58989 18.7816 7.47362 18.8648L5.97549 19.932L7.52962 19.035C7.65176 18.9635 7.80909 19.0019 7.88642 19.1198C7.96376 19.2387 7.93496 19.3971 7.82082 19.4808L5.82722 20.9416L7.91896 19.7342C8.04429 19.6627 8.20162 19.7016 8.27789 19.8222C8.35469 19.9438 8.32162 20.1032 8.20376 20.1848L7.69176 20.5374L8.25229 20.2142C8.37442 20.1427 8.53176 20.1806 8.60909 20.2995C8.68696 20.4184 8.65762 20.5768 8.54296 20.6606L6.67096 22.0259L9.17069 20.5832C9.29282 20.5112 9.44963 20.5496 9.52802 20.6691C9.60536 20.7886 9.57549 20.947 9.45976 21.0302L7.35202 22.5502L10.7494 20.5891C10.8715 20.5182 11.0278 20.556 11.1056 20.6734C11.1835 20.7918 11.1552 20.9502 11.0416 21.0339L7.40482 23.731L11.9179 21.1251C12.0422 21.052 12.2016 21.0926 12.2784 21.2158C12.3542 21.3384 12.3184 21.499 12.1984 21.579L11.5104 22.0323L12.2667 21.596C12.3915 21.524 12.5483 21.5635 12.6256 21.684C12.7024 21.8051 12.6694 21.9646 12.5515 22.0462L9.82082 23.9342L12.7131 22.2643C12.839 22.1912 12.9968 22.2323 13.0736 22.355C13.1494 22.4776 13.1136 22.6382 12.9936 22.7182L12.3408 23.1475L13.0352 22.747C13.1595 22.6734 13.3184 22.7139 13.3952 22.8371C13.4715 22.9592 13.4363 23.1198 13.3168 23.1998L11.872 24.163L13.3942 23.2846C13.5195 23.2131 13.6758 23.252 13.7531 23.3726C13.8294 23.4936 13.7968 23.6531 13.679 23.7347L10.6192 25.8536L13.7024 24.0739C13.8272 24.0014 13.9856 24.0414 14.0619 24.163C14.1382 24.2846 14.1046 24.4446 13.9856 24.5251L12.5915 25.4728L13.7206 24.8211C13.8448 24.7491 14.0011 24.788 14.079 24.9086C14.1558 25.0291 14.1238 25.188 14.007 25.2702L12.8518 26.0814L13.7227 25.579C13.8427 25.5075 13.9984 25.5443 14.0763 25.6595C14.1547 25.7752 14.1312 25.9315 14.0214 26.0184L12.4176 27.2926L13.7259 26.5374C13.8411 26.4707 13.9883 26.499 14.0704 26.6051C14.152 26.7107 14.143 26.8606 14.0491 26.9555L12.9163 28.1038L13.7296 27.6339C13.839 27.5704 13.9776 27.5923 14.0619 27.6872C14.1456 27.7811 14.1526 27.9208 14.0774 28.0232L13.7595 28.4552C13.88 28.4035 14.0278 28.4472 14.096 28.5667C14.1702 28.6942 14.1264 28.8574 13.9984 28.931L12.9248 29.5507C12.816 29.6152 12.6768 29.5923 12.5926 29.4974C12.5088 29.4035 12.5019 29.2638 12.5771 29.1614L12.8923 28.7331L11.472 29.5528C11.3579 29.6206 11.2102 29.5912 11.1275 29.4851C11.0459 29.3795 11.055 29.2296 11.1488 29.1347L12.2822 27.9859L9.56162 29.556C9.44056 29.6264 9.28589 29.5902 9.20802 29.4755C9.12962 29.3598 9.15309 29.2035 9.26296 29.1166L10.8646 27.8446L7.89442 29.5592C7.77176 29.6312 7.61336 29.5923 7.53602 29.4718C7.45922 29.3512 7.49122 29.1923 7.60802 29.1102L8.76802 28.2958L6.57602 29.5614C6.45176 29.6344 6.29336 29.5944 6.21656 29.4723C6.14029 29.3507 6.17389 29.1907 6.29282 29.1102L7.68162 28.1656L5.25976 29.5635C5.21816 29.588 5.17176 29.5992 5.12642 29.5992L5.12536 29.5998Z" fill="#FCC1A7"/>
<path d="M18.3386 29.5994C18.248 29.5994 18.16 29.553 18.1098 29.4703C18.0346 29.3455 18.0741 29.1839 18.1973 29.1066L18.4309 28.9604L18.2826 29.0458C18.1578 29.1188 17.9989 29.0778 17.9221 28.9551C17.8464 28.8324 17.8821 28.6714 18.0026 28.5919L23.5701 24.9348L18.2821 27.9876C18.1568 28.0602 17.9984 28.0202 17.9221 27.8975C17.8458 27.7748 17.881 27.6148 18.0005 27.5348L24.3957 23.273L18.2816 26.8026C18.1562 26.8751 17.9978 26.8351 17.9216 26.7124C17.8453 26.5903 17.8805 26.4303 17.9994 26.3498L24.544 21.9759L18.2816 25.5914C18.1557 25.6655 17.9962 25.6234 17.92 25.4991C17.8448 25.3754 17.8826 25.2138 18.0042 25.1359L21.312 23.0223L18.281 24.7716C18.16 24.842 18.0048 24.8052 17.9269 24.6906C17.8485 24.5743 17.873 24.4175 17.9829 24.3311L19.7957 22.9108L18.7648 23.5055C18.6506 23.5722 18.5034 23.5444 18.4213 23.4394C18.3397 23.3348 18.3466 23.1855 18.4389 23.09L19.7328 21.7434C19.6778 21.722 19.6304 21.6831 19.5989 21.6282C19.5248 21.5007 19.5685 21.3375 19.6965 21.2639L20.8448 20.601C20.9589 20.5343 21.1061 20.562 21.1882 20.6671C21.2698 20.7716 21.2629 20.921 21.1706 21.0164L20.1258 22.1044L22.7989 20.561C22.92 20.49 23.0752 20.5268 23.153 20.642C23.2314 20.7583 23.2069 20.9151 23.097 21.0015L21.2853 22.4212L31.3157 16.6303C31.4426 16.5572 31.6016 16.5988 31.6773 16.7226C31.7525 16.8463 31.7146 17.0079 31.593 17.0858L28.2853 19.1994L31.3162 17.45C31.4405 17.377 31.5994 17.417 31.6762 17.5402C31.7525 17.6623 31.7173 17.8223 31.5984 17.9028L25.0517 22.2788L31.3168 18.6618C31.441 18.5887 31.6 18.6287 31.6768 18.7519C31.753 18.874 31.7178 19.0346 31.5984 19.1146L25.2064 23.3743L31.3173 19.8463C31.4426 19.7732 31.601 19.8148 31.6778 19.937C31.7536 20.0596 31.7178 20.2207 31.5973 20.3002L26.0245 23.961L31.3002 20.9156C31.4266 20.8415 31.5866 20.8842 31.6624 21.009C31.7376 21.1338 31.6981 21.2954 31.5749 21.3727L31.2021 21.6063C31.3162 21.5695 31.4437 21.6127 31.5098 21.7178C31.5866 21.8394 31.553 21.9988 31.4352 22.0799L26.2106 25.6634L30.145 23.3919C30.2693 23.3183 30.4282 23.3594 30.505 23.482C30.5813 23.6042 30.5461 23.7652 30.4261 23.8452L28.9274 24.8399L29.3392 24.6026C29.4602 24.5306 29.6165 24.569 29.6944 24.6852C29.7722 24.8026 29.7461 24.9599 29.6341 25.0452L27.0565 27.0116L28.1578 26.3759C28.2757 26.3071 28.4282 26.3396 28.5077 26.4516C28.5877 26.5631 28.5696 26.7172 28.4666 26.8079L27.288 27.8378C27.3546 27.8346 27.4261 27.8623 27.4784 27.9124C27.5637 27.9946 27.5845 28.1236 27.5296 28.2292L27.256 28.7471C27.3253 28.7631 27.3882 28.8068 27.4266 28.8735C27.5002 29.001 27.4565 29.1642 27.3285 29.2383L26.7845 29.5519C26.6816 29.6106 26.552 29.5956 26.4661 29.513C26.3808 29.4308 26.36 29.3018 26.4149 29.1962L26.625 28.7983L25.3162 29.554C25.1994 29.6234 25.0464 29.5908 24.9664 29.4783C24.8864 29.3668 24.9045 29.2127 25.0074 29.122L26.0576 28.2047L23.7152 29.5567C23.5936 29.6276 23.4373 29.5903 23.36 29.474C23.2821 29.3567 23.3082 29.1994 23.4202 29.114L26 27.1466L21.8192 29.5599C21.6938 29.6319 21.5354 29.5924 21.4592 29.4698C21.3829 29.3471 21.4181 29.1866 21.5381 29.1066L23.0362 28.1124L20.5248 29.562C20.401 29.6351 20.2432 29.5951 20.1658 29.4735C20.089 29.3519 20.1226 29.1924 20.2405 29.1114L25.4661 25.5274L18.4714 29.5652C18.4293 29.5898 18.3834 29.601 18.3381 29.601L18.3386 29.5994Z" fill="#FCC1A7"/>
<path d="M23.8811 20.3537C23.7968 20.3537 23.7136 20.3132 23.6619 20.239C23.5835 20.1249 23.6048 19.9697 23.7115 19.8812L25.0437 18.7809L24.7877 18.9286C24.6747 18.9953 24.5285 18.967 24.4459 18.8646C24.3637 18.7617 24.3685 18.6134 24.4581 18.5174L25.3728 17.527C25.3147 17.5068 25.2635 17.4668 25.2299 17.4086C25.1557 17.2812 25.1995 17.118 25.3275 17.0444L26.4165 16.415C26.5296 16.3484 26.6757 16.3766 26.7584 16.479C26.8405 16.582 26.8357 16.7302 26.7461 16.8262L26.0427 17.5884L27.5408 16.7238C27.6597 16.654 27.8139 16.6892 27.8933 16.8022C27.9717 16.9164 27.9504 17.0716 27.8437 17.1601L26.5115 18.2598L31.3179 15.4854C31.4453 15.4113 31.6091 15.4545 31.6821 15.583C31.7563 15.7105 31.7125 15.8737 31.5845 15.9473L24.0155 20.3174C23.9739 20.342 23.9275 20.3532 23.8821 20.3532L23.8811 20.3537Z" fill="#FCC1A7"/>
<path d="M27.8874 17.2278C27.8021 17.2278 27.7183 17.1867 27.6666 17.111C27.5887 16.9953 27.6122 16.8385 27.7221 16.7515L28.4218 16.1979L28.1178 16.3734C27.9983 16.4433 27.8442 16.4091 27.7653 16.295C27.6869 16.1809 27.7082 16.0257 27.8149 15.9371L28.8261 15.1019L28.2277 15.447C28.1114 15.5158 27.961 15.4843 27.8799 15.3745C27.7994 15.2651 27.8138 15.1126 27.913 15.0203L29.5231 13.5302L28.3759 14.1926C28.2586 14.2619 28.1066 14.2294 28.0261 14.1174C27.9466 14.0059 27.9637 13.8523 28.0666 13.7617L29.2666 12.7046L28.4997 13.1473C28.3839 13.2139 28.2351 13.1846 28.1541 13.0774C28.073 12.9707 28.0842 12.8198 28.1802 12.7259L29.6399 11.2977L28.6511 11.8683C28.5354 11.9361 28.385 11.9057 28.305 11.7974C28.2239 11.6897 28.2362 11.5387 28.3333 11.4454L29.1002 10.7094L28.7653 10.9025C28.6543 10.9675 28.5114 10.9425 28.4282 10.8443C28.345 10.7451 28.3445 10.6017 28.4261 10.5019L28.8815 9.95047C28.7999 9.94194 28.7226 9.89554 28.6783 9.81874C28.6042 9.69127 28.6479 9.52807 28.7759 9.45447L29.8058 8.85981C29.9157 8.79474 30.0591 8.81981 30.1429 8.91794C30.2261 9.01714 30.2266 9.16061 30.145 9.26034L29.7807 9.70034L30.7391 9.14727C30.8549 9.07901 31.0047 9.10994 31.0853 9.21767C31.1663 9.32594 31.1541 9.47687 31.057 9.57021L30.2901 10.3067L31.2058 9.77821C31.3205 9.71047 31.4698 9.73981 31.5514 9.84807C31.6325 9.95474 31.6213 10.1057 31.5253 10.1995L30.0655 11.6278L31.3194 10.9046C31.4378 10.8353 31.5887 10.8683 31.6693 10.9798C31.7487 11.0913 31.7317 11.2449 31.6287 11.3355L30.4303 12.391L31.3194 11.8779C31.4367 11.8097 31.5866 11.8411 31.6671 11.9505C31.7477 12.0598 31.7333 12.2123 31.6341 12.3046L30.0229 13.7953L31.3194 13.0475C31.4389 12.9777 31.593 13.0118 31.6719 13.1259C31.7503 13.2401 31.729 13.3953 31.6223 13.4838L30.6111 14.3195L31.3194 13.9105C31.4394 13.8395 31.5946 13.8758 31.6735 13.991C31.7514 14.1067 31.7279 14.2635 31.6181 14.3505L30.9194 14.903L31.3189 14.6721C31.4463 14.5974 31.6101 14.6417 31.6831 14.7697C31.7573 14.8971 31.7135 15.0603 31.5855 15.1339L28.0223 17.191C27.9807 17.2155 27.9343 17.2267 27.889 17.2267L27.8874 17.2278Z" fill="#FCC1A7"/>
<path d="M23.2864 31.717C23.1995 31.717 23.1141 31.6744 23.0629 31.596C22.9856 31.477 23.0144 31.3186 23.1285 31.2349L23.5275 30.9421L22.248 31.6808C22.128 31.7512 21.9744 31.7154 21.8955 31.6018C21.8165 31.4882 21.8384 31.332 21.9456 31.244L23.2901 30.1416L20.6229 31.6813C20.5003 31.7528 20.3429 31.7144 20.2661 31.596C20.1883 31.477 20.2181 31.3181 20.3328 31.2349L20.6123 31.0312L19.4859 31.6813C19.3648 31.7528 19.2096 31.7154 19.1312 31.5997C19.0533 31.4829 19.0779 31.3261 19.1888 31.2402L20.2016 30.452L18.1157 31.6562C17.9963 31.7261 17.8432 31.6914 17.7643 31.5784C17.6848 31.4648 17.7056 31.3101 17.8112 31.221L19.2229 30.0354L17.7493 30.8861C17.6368 30.9522 17.4928 30.9261 17.4096 30.8242C17.3269 30.7234 17.3296 30.5773 17.416 30.4792L18.4309 29.3277L17.7493 29.7208C17.6459 29.781 17.5163 29.7645 17.4304 29.6818C17.3445 29.5986 17.3248 29.4696 17.3808 29.364L17.6261 28.9064C17.5408 28.9005 17.4592 28.8536 17.4133 28.7736C17.3392 28.6461 17.3829 28.4829 17.5109 28.4093L18.1301 28.052C18.2336 27.9917 18.3637 28.0082 18.4491 28.0909C18.5349 28.1741 18.5547 28.3032 18.4987 28.4088L18.2939 28.7912L19.5739 28.052C19.6864 27.9858 19.8304 28.012 19.9136 28.1138C19.9963 28.2146 19.9936 28.3608 19.9072 28.4589L18.8923 29.6104L21.5925 28.0514C21.712 27.981 21.8651 28.0162 21.944 28.1293C22.0235 28.2429 22.0032 28.3976 21.8971 28.4866L20.4848 29.6728L23.2928 28.052C23.4139 27.9805 23.5691 28.0178 23.6475 28.1336C23.7253 28.2498 23.7008 28.4072 23.5899 28.493L22.5765 29.2818L24.7067 28.052C24.8288 27.9794 24.9861 28.0189 25.0635 28.1373C25.1413 28.2562 25.1115 28.4152 24.9968 28.4984L24.7173 28.7021L25.8437 28.052C25.9632 27.9816 26.1173 28.0168 26.1963 28.1309C26.2752 28.245 26.2533 28.4008 26.1461 28.4888L24.8021 29.5906L27.4683 28.0514C27.5904 27.9805 27.7477 28.0178 27.8251 28.1362C27.9024 28.2546 27.8736 28.4136 27.7595 28.4973L27.3605 28.7901L28.0773 28.3768C28.1968 28.3058 28.3525 28.3421 28.4309 28.4573C28.5093 28.5725 28.4864 28.7288 28.3765 28.8157L27.5941 29.4397L28.1168 29.1384C28.2336 29.0706 28.3851 29.101 28.4645 29.2114C28.5451 29.3208 28.5307 29.4728 28.4309 29.565L27.9365 30.0216L28.1168 29.9176C28.2235 29.8541 28.36 29.8749 28.4448 29.9666C28.5296 30.0573 28.5408 30.1944 28.4715 30.2973L28.2133 30.6808C28.3163 30.668 28.424 30.7149 28.4795 30.812C28.5536 30.9394 28.5099 31.1026 28.3819 31.1762L27.5072 31.6813C27.4 31.7437 27.2635 31.7234 27.1792 31.6322C27.0944 31.5416 27.0832 31.4045 27.1525 31.3016L27.3856 30.9554L26.1285 31.6813C26.0123 31.7506 25.8613 31.7186 25.7808 31.6082C25.7003 31.4989 25.7147 31.3469 25.8144 31.2546L26.3093 30.7981L24.7787 31.6813C24.6576 31.7517 24.5035 31.7154 24.4251 31.6008C24.3467 31.4861 24.3696 31.3293 24.4795 31.2424L25.2613 30.6184L23.4203 31.6813C23.3787 31.7058 23.3317 31.717 23.2864 31.717Z" fill="#26619B"/>
<path d="M5.66243 31.7172C5.5755 31.7172 5.4907 31.6746 5.4395 31.5967C5.36163 31.4783 5.3899 31.3199 5.5035 31.2362L6.04217 30.8367L4.57923 31.681C4.45923 31.7514 4.3051 31.7162 4.22617 31.6015C4.14777 31.4874 4.17017 31.3311 4.2779 31.2436L5.5819 30.1823L3.8827 31.1631C3.76857 31.2303 3.61977 31.201 3.53817 31.0948C3.45657 30.9887 3.46617 30.8383 3.5611 30.7439L4.77763 29.5279L3.8827 30.0447C3.78243 30.1018 3.6587 30.0895 3.57283 30.0138C3.48697 29.9375 3.45923 29.8154 3.5035 29.7103L3.8475 28.898C3.73497 28.9295 3.60857 28.8815 3.54723 28.7743C3.4731 28.6468 3.51683 28.4836 3.64483 28.41L4.26403 28.0527C4.36323 27.9956 4.4875 28.0079 4.5739 28.0836C4.65977 28.1599 4.6875 28.282 4.64323 28.3871L4.3051 29.1855L6.2683 28.0527C6.3835 27.9855 6.53123 28.0148 6.61283 28.121C6.69443 28.2271 6.68483 28.3775 6.5899 28.4719L5.37337 29.6879L8.20643 28.0527C8.32643 27.9823 8.48057 28.0175 8.5595 28.1322C8.6379 28.2463 8.6155 28.4026 8.50777 28.49L7.20323 29.5514L9.80057 28.0522C9.9227 27.9812 10.079 28.0191 10.1568 28.1364C10.2347 28.2548 10.2064 28.4132 10.0928 28.497L9.55417 28.8964L11.0171 28.0522C11.135 27.9839 11.2859 28.0154 11.3664 28.1268C11.4464 28.2372 11.4299 28.3908 11.328 28.482L9.70883 29.9295L12.9611 28.0522C13.0811 27.9807 13.2368 28.0175 13.3147 28.1327C13.3931 28.2484 13.3696 28.4052 13.2598 28.4916L12.1115 29.4015L14.1291 28.2367C14.2475 28.1674 14.3995 28.2004 14.4795 28.3124C14.559 28.4244 14.5408 28.5786 14.4374 28.6687L13.0902 29.842L14.2512 29.1722C14.3648 29.1055 14.5099 29.1332 14.5931 29.2362C14.6752 29.3391 14.6704 29.4868 14.5808 29.5834L13.8811 30.3423L14.2518 30.1284C14.3558 30.0671 14.4886 30.0847 14.5744 30.1716C14.6598 30.258 14.6758 30.3908 14.6139 30.4948L14.4139 30.833C14.4848 30.8484 14.5488 30.8922 14.5878 30.9599C14.6614 31.0874 14.6176 31.2506 14.4896 31.3247L13.871 31.6815C13.7659 31.7407 13.6336 31.7242 13.5483 31.6378C13.463 31.5514 13.447 31.4186 13.5088 31.3146L13.6358 31.1002L12.6283 31.6815C12.5152 31.7482 12.3691 31.7204 12.2864 31.6175C12.2038 31.5146 12.2091 31.3668 12.2987 31.2703L12.999 30.5108L10.9702 31.6815C10.8518 31.7508 10.6998 31.7178 10.6198 31.6052C10.5403 31.4938 10.5584 31.3396 10.6619 31.2495L12.008 30.0772L9.22883 31.6815C9.1083 31.7519 8.9531 31.7156 8.87523 31.601C8.79683 31.4852 8.8203 31.3284 8.93017 31.242L10.0795 30.3311L7.73977 31.6815C7.62297 31.7508 7.4715 31.7188 7.39043 31.6068C7.31043 31.4964 7.32697 31.3428 7.42883 31.2516L9.04803 29.8036L5.79523 31.6815C5.75363 31.706 5.70777 31.7172 5.66243 31.7172Z" fill="#26619B"/>
<path d="M10.0229 10.379C9.37975 11.4403 7.38722 13.0499 8.58668 14.259C10.6427 16.2686 11.6715 14.3432 12.7083 12.5859C15.7531 13.9662 19.4107 13.1496 21.9958 11.1304C24.8864 8.87177 26.0709 5.2739 25.9781 1.6995C22.1013 0.870698 17.9083 -0.406636 13.9701 0.981631C10.583 1.9091 8.12482 5.07283 8.51255 8.63496C8.52268 8.8467 9.12428 8.6339 9.20108 8.5667C12.2859 5.79443 16.4848 4.40083 20.6085 5.1171C16.5989 5.5203 12.6331 7.23816 10.0229 10.379ZM17.6453 4.61256C14.5605 4.84136 11.6816 6.03656 9.27468 7.94216C9.28215 -0.175169 18.9173 0.0328309 24.6123 1.8675C25.4155 1.83443 25.2107 2.61363 25.1931 3.15656C25.0379 6.27016 23.7072 9.38323 21.1413 11.2499C18.7408 13.0062 15.5952 13.4739 12.9227 12.0579C12.7552 11.9694 12.3637 12.0904 12.2555 12.2366C11.272 13.1918 11.0262 15.7496 9.39415 14.035C8.51095 13.3912 9.19255 12.5283 9.64642 11.8259C12.1974 7.69363 16.9696 5.49363 21.7285 5.3715C23.7206 4.72456 18.1701 4.4387 17.6453 4.61256Z" fill="#262626"/>
<path d="M28.6619 9.49314C27.6891 11.6046 28.0128 14.2329 27.5419 16.5198C24.695 15.5033 24.6192 19.8014 22.7238 20.5694C18.3824 20.0206 17.3355 24.7305 17.7456 28.1379C16.888 28.5075 17.2694 29.6787 17.2112 30.419C16.9334 32.5689 19.8838 31.4606 21.167 31.7155C23.3414 31.7134 25.5163 31.7187 27.6896 31.7134C29.1067 31.5545 28.5526 29.8963 28.6555 28.9182C28.6518 28.2307 28.2352 28.0686 27.735 28.0297C29.1403 25.4451 31.9184 23.2067 31.8539 20.0867C31.8528 16.8809 31.855 13.659 31.8528 10.4611C31.7504 8.81634 29.7051 8.3262 28.6619 9.49314ZM27.7798 31.2169C24.6224 31.2121 21.4491 31.2238 18.3003 31.2169C17.623 30.7747 18.1408 29.5625 17.9883 28.8419C17.9899 28.5139 17.9494 28.515 18.2406 28.515C21.3462 28.5219 24.4694 28.5054 27.5659 28.515C28.0043 28.6201 27.8774 29.2435 27.8774 29.5891C27.8774 29.7118 27.9883 31.1737 27.7798 31.2163V31.2169ZM31.0752 20.955C30.6235 23.6409 28.2736 25.6723 26.9942 28.0169C24.1691 28.0211 21.3446 28.011 18.52 28.0147C18.4038 25.6505 18.3408 23.4073 20.1056 21.5982C21.0182 20.4398 22.6608 21.5118 23.7456 20.6489C25.0443 19.7395 25.368 15.7225 27.4976 17.2473C28.7883 19.0073 25.7867 22.1038 25.2411 23.9945C25.9942 25.2729 27.8603 19.7081 28.4358 19.0505C28.7878 18.3459 28.7755 17.5977 28.2496 16.9881C28.8 15.6339 28.151 7.91607 30.6246 9.6078C31.7718 13.0601 30.7627 17.2617 31.0752 20.955Z" fill="#262626"/>
<path d="M0.147184 16.0479C-0.396816 22.2714 0.939184 23.2356 4.21225 28.1386C3.14398 28.218 3.28212 29.418 3.34718 30.1818C3.34345 30.7418 3.21172 31.4991 3.93545 31.6116C5.78772 31.6458 7.65172 31.6116 9.50772 31.6234C11.28 31.2836 15.4773 32.8079 14.7867 29.7092C14.7947 29.194 14.9877 28.2234 14.2533 28.1194C14.4315 25.3999 14.3029 22.1204 11.5787 20.6916C10.4987 20.3658 8.97118 21.0596 8.39092 19.7434C7.51465 18.2794 6.69865 15.5754 4.48852 16.6287C3.95838 14.2554 4.41332 11.4004 3.24692 9.27777C-0.994149 7.18337 0.335451 13.7674 0.147184 16.0479ZM5.12852 28.065C5.11198 28.066 5.09385 28.0644 5.07785 28.0671C4.86612 28.1018 5.05492 28.01 5.12852 28.065ZM13.0848 31.3092C10.2432 31.3092 7.40105 31.3092 4.55945 31.3092C3.75785 31.1327 4.17438 29.0751 4.17118 28.418C7.33332 28.5786 10.5381 28.4095 13.7179 28.466C14.3915 29.0959 13.8437 30.4948 14.0176 31.3146C13.7061 31.3082 13.3963 31.3162 13.0848 31.3087V31.3092ZM1.52958 9.34017C3.85598 8.74497 3.17438 15.5252 3.74665 17.1034C2.44052 19.1172 5.01225 21.3146 5.59252 23.2618C5.73332 23.5423 5.87358 23.8228 6.01385 24.1034C6.16478 24.4047 6.92318 24.169 6.78665 23.8964C6.20692 21.8436 3.25012 19.1023 4.52052 17.0879C6.26985 15.954 7.01705 19.2932 7.79998 20.2735C8.53865 21.4623 10.0459 20.7284 11.1387 21.106C13.5093 22.6708 13.6544 25.4831 13.4805 28.0676C10.6992 28.066 7.91785 28.0714 5.13705 28.0655C3.65972 25.4122 0.725851 23.0682 0.919984 19.8079C1.28318 17.2196 0.111984 11.0602 1.53012 9.34123L1.52958 9.34017Z" fill="#262626"/>
</g>
<defs>
<clipPath id="clip0_2357_2040">
<rect width="32" height="32" fill="white"/>
</clipPath>
</defs>
</svg>
