<svg fill="none" height="26" viewBox="0 0 26 26" width="26" xmlns="http://www.w3.org/2000/svg"><path d="m12 12 .0547-.0267c.1709-.0854.3628-.12.5529-.0998.19.0203.3703.0946.5194.2141s.2609.2793.322.4604c.0612.1811.0691.3759.023.5613l-.944 3.7814c-.0465.1855-.0387.3805.0223.5618s.1727.3413.3219.4611c.1492.1197.3296.1941.5198.2144s.3822-.0144.5533-.1l.0547-.028m11-5c0 1.5759-.3104 3.1363-.9134 4.5922-.6031 1.4559-1.487 2.7788-2.6013 3.8931s-2.4372 1.9982-3.8931 2.6013c-1.4559.603-3.0163.9134-4.5922.9134s-3.13629-.3104-4.5922-.9134c-1.45591-.6031-2.77878-1.487-3.89308-2.6013s-1.99822-2.4372-2.60127-3.8931c-.60306-1.4559-.91345-3.0163-.91345-4.5922 0-3.1826 1.26428-6.23484 3.51472-8.48528s5.30268-3.51472 8.48528-3.51472 6.2348 1.26428 8.4853 3.51472c2.2504 2.25044 3.5147 5.30268 3.5147 8.48528zm-12-5h.0107v.01067h-.0107z" stroke="#634463" stroke-linecap="round" stroke-linejoin="round" stroke-width="2"/></svg>