<svg fill="none" height="44" viewBox="0 0 44 44" width="44" xmlns="http://www.w3.org/2000/svg" xmlns:xlink="http://www.w3.org/1999/xlink"><clipPath id="a"><path d="m0 0h44v44h-44z"/></clipPath><g clip-path="url(#a)"><path d="m14.0749 43.5605c-.077 0-.152-.0242-.2144-.0692-.0625-.045-.1092-.1085-.1335-.1815s-.0251-.1518-.0021-.2253c.0229-.0734.0684-.1378.13-.184l.5925-.4561-1.2467.7179c-.0805.0463-.1756.0602-.2661.0391-.0904-.0212-.1694-.0759-.2211-.1531s-.0721-.1711-.0572-.2628c.0149-.0916.064-.1742.1374-.2311l3.3734-2.5879-4.0634 2.3466c-.0816.0466-.1779.06-.2691.0377-.0911-.0224-.1703-.0789-.221-.1579-.0508-.079-.0694-.1744-.0519-.2666.0176-.0923.0698-.1743.146-.2292l4.3266-3.08-4.573 2.64c-.0818.0464-.1782.0596-.2694.037-.0912-.0227-.1702-.0795-.2207-.1587s-.0687-.1748-.0508-.2671c.0179-.0922.0706-.1741.1471-.2286l6.556-4.6076-6.9388 4.0084c-.0825.0462-.1796.0587-.2711.035-.0915-.0238-.1702-.0819-.2199-.1623-.0496-.0804-.0663-.1769-.0466-.2693s.0744-.1736.1526-.2267l5.467-3.6073-6.0757 3.5076c-.08235.0454-.17901.0575-.27001.0337-.09099-.0238-.16936-.0817-.2189-.1616-.04953-.08-.06645-.1759-.04725-.268s.07306-.1732.15042-.2267l8.53604-5.6511-9.47617 5.4692c-.0833.0469-.18163.0595-.27404.0349-.0924-.0245-.17158-.0841-.22064-.1662s-.06413-.18-.042-.273.07972-.1737.16048-.2249l1.07947-.671-1.38087.7964c-.08314.0458-.18078.0576-.27242.0328-.09163-.0247-.1701-.084-.21892-.1654s-.06417-.1785-.04283-.271c.02133-.0925.0777-.1731.15724-.2249l2.2-1.3698-2.48894 1.4366c-.08298.0449-.18011.0561-.27116.0313s-.16902-.0838-.21767-.1647c-.04866-.0809-.06425-.1774-.04355-.2695.02071-.0921.07612-.1726.15472-.2249l4.6772-2.9333-5.00427 2.8886c-.08313.0458-.18079.0576-.27242.0328-.09163-.0247-.1701-.084-.21892-.1654s-.06417-.1785-.04283-.271c.02133-.0925.0777-.1731.15724-.2249l2.02106-1.251-2.20733 1.2738c-.0833.0469-.18163.0594-.27404.0349-.0924-.0245-.17158-.0842-.22064-.1662-.04906-.0821-.06413-.1801-.042-.2731s.07972-.1737.16048-.2248l2.2154-1.3662-2.36647 1.364c-.08314.0504-.18293.0658-.27741.0427s-.17592-.0828-.22639-.1659c-.05047-.0832-.06584-.183-.04274-.2774.02311-.0945.0828-.176.16594-.2264l9.59564-6.1248-9.9513 5.7449c-.08287.0463-.18048.0587-.27229.0345-.0918-.0242-.17065-.083-.21996-.1641-.0493-.0812-.06522-.1783-.0444-.2709.02083-.0926.07676-.1735.15605-.2258l10.5901-6.7796-10.91057 6.2986c-.08273.0455-.17982.0573-.27105.033-.09124-.0243-.16958-.0828-.21873-.1635-.04914-.0806-.06529-.177-.04509-.2693.0202-.0922.07519-.1731.15354-.2258l11.1467-7.139-11.39384 6.5766c-.08282.0413-.1782.0498-.26702.0237-.08881-.0261-.16447-.0848-.21181-.1643-.04733-.0795-.06283-.174-.04339-.2645s.07239-.1703.14822-.2234l1.84287-1.1315-1.804 1.0413c-.08344.05-.18331.0648-.27766.0411-.09434-.0236-.17542-.0838-.22541-.1672-.04998-.0835-.06477-.1833-.04112-.2777.02365-.0943.08382-.1754.16726-.2254l4.8114-2.9825-4.78867 2.7662c-.08335.0461-.18136.0579-.27329.033-.09192-.0249-.17055-.0846-.21925-.1665-.04869-.0818-.06362-.1794-.04164-.2721.02199-.0926.07917-.1731.15945-.2244l.9438-.5778-.8404.4847c-.08325.0504-.18309.0656-.27757.0424-.09448-.0233-.17586-.0831-.22623-.1663-.05038-.0833-.06562-.1831-.04238-.2776s.08307-.1759.16631-.2262l9.65727-6.105-9.64407 5.5682c-.08314.0458-.18079.0575-.27242.0328s-.1701-.084-.21892-.1654-.06417-.1786-.04283-.271c.02133-.0925.07769-.1731.15724-.2249l5.577-3.4621-5.45087 3.1468c-.08335.0461-.18136.0579-.27329.033-.09192-.0249-.17055-.0846-.21925-.1665-.04869-.0818-.06362-.1794-.04164-.2721.02199-.0926.07917-.1731.15945-.2244l.30433-.1862-.09387.0542c-.08325.048-.18202.0614-.27505.0374-.09303-.0241-.172892-.0838-.222391-.1661-.0495-.0824-.064683-.1809-.042282-.2744.022401-.0934.080595-.1744.162063-.2253l6.95933-4.3494-6.77307 3.9101c-.08314.0505-.18293.0658-.277414.0427-.09448-.0231-.175913-.0828-.226384-.1659s-.065845-.1829-.042741-.2774c.023105-.0945.082796-.1759.165941-.2264l9.834738-6.2539-9.62574 5.5572c-.083043.0444-.179967.0551-.270694.03-.090726-.0252-.168302-.0843-.216658-.1651-.048355-.0807-.063785-.177-.043092-.2689.020692-.0918.075921-.1722.154246-.2244l4.041398-2.5051-3.739998 2.1575c-.082758.0481-.181057.0619-.273891.0386-.092834-.0234-.17284-.0822-.222924-.1638-.050083-.0816-.06627-.1795-.045102-.2729.021167-.0933.078011-.1747.158384-.2267l11.459071-7.4441-11.112205 6.4152c-.082846.0443-.179526.0551-.270097.0302-.090571-.025-.168123-.0837-.21666-.1641-.048538-.0804-.064357-.1764-.044195-.2682.020162-.0917.074768-.1722.152552-.2249l6.100605-3.8375-5.679671 3.2787c-.083632.05-.183695.0647-.278175.0409-.094481-.0238-.175641-.0841-.225625-.1678-.049985-.0836-.0647-.1837-.040908-.2781.023793-.0945.084143-.1757.167774-.2257l1.960935-1.2158-1.507.8719c-.083079.0466-.181009.059-.273068.0346s-.171025-.0836-.220188-.1652c-.049164-.0815-.064668-.179-.043232-.2718s.07813-.1736.158087-.2253l4.638331-2.915-4.11473 2.3723c-.08285.0443-.17953.0551-.270099.0302-.09057-.025-.168123-.0837-.21666-.1641s-.064356-.1764-.044194-.2682c.020162-.0917.074767-.1722.152551-.2249l3.813332-2.3987-3.22666 1.8626c-.0821.0417-.17685.0509-.26543.0259s-.16452-.0824-.21273-.1609c-.048209-.0784-.065165-.172-.0475-.2624.017666-.0903.06866-.1707.14286-.2252l3.97613-2.5204-3.30513 1.9066c-.08314.0458-.18079.0576-.27242.0329-.09163-.0248-.17011-.0841-.21892-.1654-.04882-.0814-.06417-.1786-.04284-.2711.02134-.0924.0777-.1731.15724-.2248l.59254-.3718c-.07734.0228-.16008.0192-.23513-.0103s-.13811-.0832-.17921-.1525c-.04966-.0824-.06496-.181-.0426-.2746.02236-.0935.08059-.1745.16214-.2256l.6688-.4202c-.08503.027-.17695.022-.25856-.014s-.14731-.1005-.18481-.1814c-.03749-.0809-.04421-.1727-.01888-.2582.02532-.0855.08094-.1589.15645-.2064l5.9312-3.92257-4.76667 2.75217c-.08216.0477-.17962.0617-.27185.0389-.09223-.0227-.17203-.0804-.2226-.1608-.05056-.0804-.06795-.1773-.04849-.2703.01945-.093.07424-.1748.15281-.2282l6.55746-4.4799-4.82606 2.7867c-.08276.0481-.18106.0619-.2739.0386-.09283-.0234-.17284-.0822-.22292-.16378-.05008-.08159-.06627-.17953-.0451-.27289.02117-.09337.07801-.17475.15838-.22676l1.49967-.9746c-.0802.00573-.16006-.01506-.22729-.05916-.06722-.04411-.11809-.10909-.14476-.18494s-.02767-.15836-.00285-.23484c.02482-.07647.0741-.14267.14023-.1884l5.20224-3.6036c-.0274-.02129-.052-.04592-.0733-.07333-.0541-.07088-.0805-.15905-.0743-.248s.0446-.17259.108-.23527l1.3567-1.34493c-.074-.01326-.1421-.04893-.1951-.10217-.053-.05323-.0884-.12147-.1013-.19548-.013-.07401-.0029-.15022.0289-.2183.0317-.06809.0837-.12477.1487-.16238l1.9624-1.135202c.0771-.043369.1673-.05739.254-.039477.0866.017913.1639.066552.2175.136947.0535.070394.0799.157795.0741.246084-.0058.088288-.0433.171508-.1056.234308l-1.1139 1.1088 2.6634-1.539995c.082-.0477.1793-.061784.2714-.039296s.172.0798.2227.159901c.0508.080101.0686.176759.0496.26968-.019.09292-.0732.17487-.1513.22865l-3.0104 2.08633 3.6601-2.11273c.0828-.04813.1811-.06198.2739-.03859.0928.02338.1728.08215.2229.16373.0501.08159.0663.17953.0451.2729-.0212.09336-.078.17475-.1584.22676l-.9071.58666 1.0963-.63066c.0823-.05022.181-.06605.2748-.04407.0938.02199.1752.08002.2266.16154.0513.08153.0685.18.0479.27412-.0207.09411-.0776.17631-.1584.22881l-6.5582 4.47846 6.809-3.93066c.0823-.04546.179-.05754.27-.03373.091.0238.1694.08166.2189.16162.0495.07995.0665.17589.0473.26796-.0193.09208-.0731.17326-.1505.22675l-5.9297 3.92333 6.2113-3.586c.0833-.048.182-.0614.2751-.03732.093.02408.1729.08373.2224.1661s.0647.18088.0423.27433c-.0224.09346-.0806.17438-.1621.22536l-.4481.2816.6952-.40114c.083-.04495.1801-.05617.2712-.03133.091.02484.169.08384.2177.16471.0486.08087.0642.17739.0435.26947s-.0761.17263-.1547.22489l-.3263.20386.7025-.4048c.0828-.04486.1797-.05616.2705-.03154.0909.02461.1689.08325.2177.16376s.0648.17672.0447.2687c-.0202.09197-.075.17266-.153.22535l-3.9666 2.5146 4.4733-2.58427c.0829-.0456.1803-.05737.2717-.03285s.1698.08343.2187.16442c.049.08098.0648.17777.044.2701-.0207.09234-.0764.17308-.1553.22533l-3.8133 2.40094 4.2233-2.43907c.0832-.05027.183-.06542.2774-.04211s.1757.08317.226.16641.0654.18305.0421.27746-.0832.1757-.1664.22597l-4.6435 2.92087 5.0219-2.89887c.083-.04435.18-.05506.2707-.02991s.1683.08423.2166.16501c.0484.08079.0638.17707.0431.26892-.0207.09184-.0759.17221-.1542.22445l-1.9624 1.21733 2.1861-1.26206c.0829-.04561.1802-.05738.2716-.03286.0915.02452.1698.08344.2188.16442.049.08099.0647.17777.044.27011-.0208.09233-.0764.17307-.1553.22533l-6.1065 3.84193 6.4233-3.70553c.0825-.04546.1794-.05739.2705-.03334.0911.02406.1694.08226.2188.16253.0493.08028.0658.17646.0462.2686-.0197.09214-.0741.17317-.152.22627l-11.4568 7.44337 11.9716-6.9117c.0832-.04579.1808-.05755.2724-.03283.0917.02473.1702.08402.219.16541s.0641.17854.0428.27102-.0777.17309-.1572.22487l-4.0334 2.49843 4.1448-2.39283c.0831-.04745.1813-.06059.2739-.03661s.1721.08317.2217.16494c.0495.0818.0652.1797.0435.2729-.0216.0931-.0787.1741-.1592.2258l-9.8391 6.259 10.0862-5.8242c.0833-.048.1821-.0614.2751-.0373s.1729.0837.2224.1661.0647.1809.0423.2743c-.0224.0935-.0806.1744-.1621.2254l-6.9557 4.3472 7.0444-4.0663c.0834-.0461.1814-.058.2733-.0331s.1706.0846.2193.1665c.0487.0818.0636.1794.0416.2721s-.0792.1731-.1594.2244l-.2934.1811.231-.1334c.0413-.0248.0871-.0412.1348-.0482.0476-.0071.0962-.0047.1429.007.0467.0118.0906.0326.1293.0613s.0713.0647.0961.106c.0247.0413.0411.0871.0482.1347.007.0477.0046.0962-.0071.143-.0117.0467-.0325.0906-.0612.1293s-.0647.0713-.106.0961l-5.5895 3.4686 5.5733-3.2164c.0831-.0474.1813-.0605.2739-.0366.0926.024.1721.0832.2217.165.0495.0818.0652.1797.0435.2728-.0216.0932-.0787.1742-.1592.2258l-9.6565 6.1028 9.6741-5.585c.0833-.0461.1814-.058.2733-.0331s.1705.0846.2192.1665c.0487.0818.0637.1794.0417.2721s-.0792.1731-.1595.2244l-.9364.5742.7876-.4547c.083-.0443.1799-.055.2707-.0299.0907.0252.1683.0843.2166.165.0484.0808.0638.1771.0431.2689-.0207.0919-.0759.1723-.1542.2245l-4.8224 2.9854 4.6823-2.7023c.0832-.0451.1806-.0563.2719-.0313.0912.0251.1693.0844.2177.1657.0485.0813.0637.1781.0425.2703-.0213.0923-.0774.1727-.1566.2245l-1.8554 1.1396 1.6559-.9534c.083-.0486.1817-.0627.275-.0392s.1735.0827.2236.1649c.05.0821.0657.1806.0438.2743-.0219.0936-.0798.1749-.1611.2263l-11.1415 7.1339 10.9919-6.3456c.0827-.0442.1791-.0551.2696-.0304.0904.0246.168.083.2167.1631.0488.0801.065.1758.0453.2675-.0197.0916-.0737.1723-.151.2254l-10.5864 6.7774 10.3503-5.9752c.0829-.0463.1805-.0587.2723-.0345s.1706.083.2199.1642c.0493.0811.0653.1782.0444.2708-.0208.0926-.0767.1736-.156.2258l-9.6001 6.1285 9.2804-5.3578c.0835-.0499.1834-.0645.2778-.0407.0943.0238.1753.0841.2252.1676s.0646.1835.0408.2778c-.0238.0944-.0841.1754-.1676.2253l-2.2 1.3596 1.8223-1.0516c.083-.0444.18-.0551.2707-.0299.0907.0251.1683.0842.2167.165.0483.0808.0637.177.043.2689-.0206.0918-.0759.1722-.1542.2244l-2.0262 1.254 1.6082-.9284c.0413-.0248.087-.0413.1347-.0484.0476-.0072.0962-.0049.1429.0067.0468.0116.0908.0323.1295.0609.0388.0286.0715.0646.0963.1059.0249.0412.0414.087.0485.1346.0072.0477.0049.0962-.0067.143-.0116.0467-.0323.0907-.061.1295-.0286.0387-.0645.0715-.1058.0963l-4.6772 2.9333 4.202-2.4273c.0834-.05.1833-.0648.2777-.0411.0943.0236.1754.0838.2254.1672.0499.0835.0647.1833.0411.2777-.0237.0943-.0838.1754-.1673.2254l-2.2051 1.3728 1.6918-.9753c.0831-.0458.1808-.0576.2724-.0329.0916.0248.1701.0841.2189.1655.0489.0813.0642.1785.0429.271-.0214.0925-.0777.1731-.1573.2248l-1.0794.671.4444-.2566c.0409-.0254.0864-.0425.1339-.0503.0476-.0077.0962-.0061.143.0049.0469.011.0912.0311.1303.0592s.0723.0637.0977.1046c.0253.0409.0424.0865.0502.134s.0061.0961-.0049.143-.0311.0911-.0592.1302-.0636.0723-.1046.0977l-8.533 5.6467 6.2553-3.6102c.0825-.0479.1805-.0617.2731-.0385.0925.0232.1724.0816.2226.1627.0502.0812.0668.1787.0463.2719s-.0766.1747-.1563.2272l-5.4662 3.6109 3.5119-2.0276c.0817-.0464.1781-.0596.2693-.037.0912.0227.1702.0795.2208.1587.0505.0792.0687.1749.0508.2671s-.0706.1741-.1471.2286l-6.5545 4.6061 4.1492-2.3951c.0814-.0449.1768-.0573.267-.0346.0902.0228.1683.0789.2187.1571.0503.0782.069.1726.0524.2641-.0167.0915-.0675.1732-.1421.2287l-4.3267 3.08 2.2154-1.2789c.0805-.0453.1752-.0586.265-.0371.0899.0215.1683.0761.2197.1529.0513.0768.0718.1702.0572.2614-.0145.0913-.063.1736-.1356.2307l-3.38 2.5894 1.1822-.6827c.0805-.0463.1756-.0602.266-.0391.0905.0212.1695.0759.2212.1531s.0721.1711.0572.2628c-.0149.0916-.064.1742-.1374.2311l-1.1294.869c.0517.0097.1007.0305.1435.061s.0784.07.1044.1157c.0486.0843.0618.1843.0366.2783-.0251.0939-.0866.174-.1708.2226l-4.0062 2.3129c-.0555.033-.1188.0505-.1833.0506z" fill="#edb538"/><path d="m27.3359 43.6105c-.0784 0-.1548-.0252-.2178-.0719-.0631-.0467-.1095-.1123-.1325-.1873s-.0213-.1554.0048-.2294.0752-.1377.1402-.1816l6.292-4.2629-8.1855 4.7263c-.0827.0482-.181.062-.2739.0386-.0928-.0234-.1728-.0821-.2229-.1637s-.0663-.1795-.0451-.2729.078-.1748.1584-.2268l6.5017-4.2533-7.8467 4.5313c-.0829.0486-.1817.0627-.275.0392-.0932-.0235-.1735-.0827-.2235-.1649-.05-.0821-.0658-.1806-.0439-.2743.022-.0936.0798-.1749.1611-.2263l6.0867-3.894-7.0906 4.0935c-.0835.05-.1834.0649-.2778.0413-.0944-.0235-.1756-.0837-.2257-.1671-.05-.0834-.0649-.1834-.0413-.2778.0235-.0944.0837-.1756.1671-.2256l2.4743-1.54-3.08 1.7776c-.083.0456-.1803.0573-.2717.0328s-.1698-.0834-.2188-.1644c-.0489-.081-.0647-.1778-.044-.2701.0208-.0923.0764-.1731.1553-.2253l7.1794-4.5467-7.9721 4.6053c-.0832.0451-.1806.0563-.2719.0313-.0912-.0251-.1692-.0844-.2177-.1657s-.0637-.1781-.0424-.2704c.0212-.0922.0773-.1726.1565-.2244l1.2599-.7758-1.6603.9584c-.0832.048-.182.0614-.275.0373-.093-.024-.1729-.0837-.2224-.1661-.0495-.0823-.0647-.1808-.0423-.2743.0224-.0934.0806-.1744.1621-.2253l6.19-3.8647-6.729 3.8867c-.0413.0248-.087.0413-.1347.0484-.0476.0072-.0962.0049-.1429-.0067-.0468-.0116-.0908-.0323-.1295-.0609-.0388-.0286-.0715-.0646-.0964-.1059-.0248-.0412-.0413-.087-.0484-.1346-.0072-.0477-.0049-.0962.0067-.143.0116-.0467.0323-.0907.0609-.1295.0286-.0387.0646-.0715.1059-.0963l7.348-4.5951-7.824 4.5144c-.0829.0487-.1817.0627-.275.0392-.0932-.0235-.1735-.0827-.2235-.1648-.05-.0822-.0658-.1807-.0439-.2743.022-.0937.0798-.1749.1611-.2263l12.2606-7.8628-12.1565 7.018c-.083.0465-.181.0589-.273.0345-.0921-.0243-.171-.0836-.2202-.1651-.0492-.0816-.0647-.1791-.0432-.2719.0214-.0927.0781-.1735.158-.2253l8.1789-5.1238-5.5381 3.1981c-.0835.0501-.1834.065-.2778.0414s-.1756-.0837-.2257-.1672c-.05-.0834-.0649-.1833-.0413-.2777.0235-.0944.0837-.1756.1671-.2257l4.3589-2.7133-1.5062.8697c-.0827.0495-.1816.0645-.2753.0416-.0937-.0228-.1745-.0816-.2252-.1637-.0506-.082-.0669-.1807-.0452-.2747.0216-.0939.0793-.1756.1607-.2273l8.9466-5.8586-4.9133 2.8351c-.0827.0495-.1816.0645-.2753.0416-.0936-.0228-.1745-.0816-.2251-.1637-.0507-.082-.0669-.1807-.0453-.2747.0216-.0939.0793-.1756.1607-.2273l4.763-3.1196-1.5019.8668c-.0826.0449-.1792.0563-.27.0319-.0907-.0244-.1687-.0827-.2177-.1628-.049-.0802-.0654-.1762-.0457-.2681.0196-.0918.0738-.1727.1514-.2258l2.0958-1.3544c-.0642-.021-.1215-.0593-.1654-.1107s-.0727-.114-.0832-.1808c-.0106-.0668-.0024-.1352.0235-.1976.0259-.0625.0685-.1165.1232-.1563l4.0517-2.9516-.2046.118c-.079.046-.1722.0609-.2615.0417s-.1682-.071-.2214-.1453c-.0531-.0743-.0765-.1658-.0658-.2565.0108-.0907.055-.1741.1241-.2339l3.3102-2.8878c-.0054-.0078-.0103-.0159-.0146-.0242-.0487-.0842-.062-.1842-.037-.2781.0251-.0939.0864-.1741.1704-.2228l1.4586-.8419c.079-.0459.1722-.0608.2615-.0416.0893.0191.1683.0709.2214.1452s.0766.1658.0658.2565-.055.1741-.1241.2339l-1.9866 1.7329 2.9282-1.6867c.0813-.0462.1772-.0596.268-.0375.0909.0221.1698.078.2208.1564.0509.0784.07.1733.0533.2653s-.0679.1741-.1431.2296l-4.0546 2.9539 4.4-2.5388c.0826-.0448.1792-.0562.27-.0319.0907.0244.1687.0827.2177.1629.049.0801.0654.1761.0457.268-.0196.0919-.0738.1727-.1514.2258l-.055.0359.066-.0374c.0824-.0448.1789-.0564.2696-.0322.0906.0241.1686.082.2178.1619.0493.0798.066.1755.0468.2674-.0192.0918-.0728.1728-.1499.2263l-4.7667 3.1225 4.8943-2.8255c.0827-.0496.1816-.0645.2753-.0417.0936.0228.1745.0817.2252.1637.0506.0821.0668.1807.0452.2747s-.0793.1756-.1607.2273l-8.9481 5.852 9.1146-5.2616c.0832-.048.182-.0614.275-.0374.0931.0241.1729.0838.2224.1661.0495.0824.0647.1809.0423.2744-.0224.0934-.0806.1743-.1621.2253l-4.3596 2.7134 4.3024-2.4846c.0413-.0248.0871-.0413.1347-.0485.0476-.0071.0962-.0048.143.0068.0467.0116.0907.0323.1295.0609.0387.0286.0714.0646.0963.1059.0248.0412.0413.087.0485.1346.0071.0476.0048.0962-.0068.143-.0116.0467-.0323.0907-.0609.1295-.0286.0387-.0646.0714-.1059.0963l-8.184 5.1304 8.1298-4.6933c.0826-.0443.1791-.0552.2695-.0305.0905.0247.168.083.2168.1631.0487.0801.0649.1758.0452.2675-.0196.0917-.0736.1723-.1509.2254l-12.2584 7.8628 12.1858-7.0356c.083-.045.1801-.0562.2711-.0313.0911.0248.1691.0838.2177.1647.0487.0808.0643.1774.0436.2694-.0208.0921-.0762.1727-.1548.2249l-7.3472 4.5958 7.1133-4.1066c.083-.045.1801-.0562.2712-.0314.091.0249.169.0839.2176.1647.0487.0809.0643.1774.0436.2695s-.0761.1726-.1547.2249l-6.1769 3.8573 5.8586-3.3828c.0835-.0498.1834-.0644.2777-.0405.0943.0238.1752.0842.225.1677s.0644.1834.0405.2777-.0842.1752-.1677.225l-1.3002.8001.921-.5317c.0831-.0475.1813-.0606.2739-.0366s.1721.0832.2217.1649c.0495.0818.0652.1797.0436.2729-.0216.0931-.0788.1742-.1593.2258l-7.1779 4.5467 6.7034-3.8706c.0835-.0501.1834-.0649.2778-.0414.0944.0236.1756.0838.2257.1672s.0649.1833.0414.2778c-.0236.0944-.0838.1755-.1672.2256l-2.4603 1.5312 1.9228-1.1102c.083-.0487.1817-.0627.275-.0392.0932.0235.1735.0827.2235.1648.0501.0822.0658.1807.0439.2743-.022.0937-.0798.1749-.1611.2263l-6.0867 3.8955 5.3827-3.1071c.0826-.047.1802-.0601.2723-.0365.092.0236.1713.082.2211.163.0499.0809.0663.178.046.2708-.0204.0928-.076.1741-.1551.2267l-6.5003 4.2468 5.5433-3.1996c.0822-.0468.1794-.0601.2711-.037.0918.0232.1711.0809.2213.1611s.0674.1767.0481.2694c-.0194.0926-.0738.1742-.1519.2277l-6.2949 4.2636 4.8987-2.827c.0812-.0463.1771-.0597.2679-.0376.0909.0221.1699.0781.2208.1565.051.0783.07.1732.0533.2652-.0166.092-.0678.1742-.1431.2297l-4.7542 3.4518 2.3745-1.3692c.0842-.0478.1839-.0605.2773-.0351.0935.0254.1731.0867.2215.1705.0484.0839.0617.1835.037.2771-.0248.0936-.0856.1736-.1691.2226l-8.448 4.8774c-.0813.0462-.1771.0597-.268.0376-.0908-.0221-.1698-.0781-.2207-.1565-.051-.0784-.07-.1733-.0534-.2653.0167-.092.0679-.1741.1432-.2296l4.7564-3.454-7.6656 4.422c-.0555.0329-.1187.0507-.1833.0513z" fill="#ce9a31"/><path d="m26.5007 40.1912c-.0788 0-.1556-.0254-.2188-.0724-.0633-.047-.1097-.1131-.1324-.1886s-.0205-.1562.0063-.2304c.0268-.0741.0767-.1376.1425-.1811l2.4801-1.6382-3.5845 2.0694c-.0829.0464-.1805.0587-.2723.0345-.0918-.0241-.1707-.083-.22-.1641s-.0652-.1782-.0444-.2709c.0208-.0926.0768-.1735.1561-.2257l1.042-.6674-1.7717 1.0223c-.0827.0462-.18.0586-.2716.0346-.0916-.0239-.1704-.0824-.2199-.1631-.0495-.0808-.0658-.1775-.0455-.27.0202-.0926.0755-.1736.1542-.2263l3.7327-2.42-4.5533 2.6312c-.0826.0479-.1805.0617-.2731.0385-.0925-.0232-.1724-.0816-.2226-.1628-.0502-.0811-.0668-.1786-.0463-.2718s.0766-.1747.1563-.2272l7.3201-4.8562-8.3277 4.81c-.0826.0478-.1805.0616-.2731.0384s-.1724-.0816-.2226-.1627c-.0503-.0811-.0669-.1787-.0463-.2718.0205-.0932.0766-.1748.1562-.2273l8.2596-5.4516-9.13 5.2705c-.0826.0454-.1794.0574-.2705.0333-.0911-.024-.1695-.0822-.2188-.1625s-.0659-.1765-.0462-.2686.0741-.1732.1519-.2263l7.711-5.0042-8.3402 4.815c-.0828.0463-.1804.0587-.2722.0345-.0919-.0241-.1707-.083-.22-.1641s-.0652-.1782-.0444-.2709c.0208-.0926.0768-.1735.156-.2257l6.4922-4.147-5.3093 3.0638c-.083.0487-.1817.0627-.275.0392s-.1735-.0827-.2236-.1648c-.05-.0822-.0657-.1807-.0438-.2743.0219-.0937.0798-.1749.1611-.2263l5.5777-3.5692-2.3694 1.3677c-.0822.0455-.1786.0577-.2696.0342-.0909-.0235-.1693-.0811-.2191-.1607-.0497-.0797-.067-.1754-.0483-.2674.0188-.0921.0721-.1734.1491-.2272l6.8273-4.59-2.9055 1.6779c-.0819.0477-.1792.0618-.2713.0393-.0922-.0225-.172-.0798-.2228-.1599-.0507-.0801-.0685-.1768-.0495-.2697.0189-.0929.0732-.1749.1513-.2286l4.2416-2.9334-.7018.4048c-.0813.0463-.1771.0597-.268.0376-.0908-.0221-.1698-.0781-.2207-.1565-.051-.0784-.0701-.1733-.0534-.2652.0167-.092.0679-.1742.1432-.2297l2.9238-2.1193c-.0662-.0132-.1274-.0444-.177-.0902-.0495-.0458-.0855-.1043-.1039-.1692s-.0186-.1336-.0005-.1986.0538-.1237.1032-.1697l3.4811-3.2619c-.0129-.0741-.0027-.1503.0292-.2184.0318-.068.0839-.1247.149-.1622l.6299-.3667c.0782-.0467.1709-.0627.2602-.0449s.1687.0683.2229.1414c.0541.0732.0791.164.0701.2546-.0091.0906-.0515.1745-.119.2356l-1.8986 1.7769 2.3466-1.3552c.0813-.0452.1766-.0579.2668-.0355.0902.0225.1685.0783.2191.1563s.0697.1723.0534.2638-.0667.1734-.1411.2292l-2.2146 1.6082 2.4075-1.389c.0819-.0462.1785-.0592.2697-.0363.0912.023.1701.0801.2204.1596s.0682.1752.0498.2675c-.0183.0923-.0714.1739-.1483.2282l-4.2365 2.9333 4.4352-2.5615c.0824-.0478.1801-.0616.2724-.0386.0924.023.1722.081.2226.1617.0504.0808.0674.178.0474.271-.02.0931-.0754.1748-.1544.2277l-6.8303 4.5914 6.9865-4.0333c.0827-.0455.1798-.0573.271-.033.0913.0243.1696.0828.2187.1634.0492.0806.0653.1771.0451.2693-.0202.0923-.0752.1731-.1535.2258l-5.5733 3.5655 5.544-3.1995c.0828-.0464.1804-.0587.2722-.0346.0919.0242.1707.0831.22.1642s.0652.1782.0444.2708c-.0208.0927-.0767.1736-.156.2258l-6.4966 4.1507 6.3946-3.6923c.0828-.0482.1811-.062.2739-.0386.0929.0234.1729.0821.2229.1637.0501.0816.0663.1795.0452.2729-.0212.0934-.0781.1747-.1584.2268l-7.7125 5.0035 7.5262-4.3465c.0825-.0461.1796-.0586.271-.0349.0915.0237.1703.0819.22.1623.0496.0804.0663.1768.0466.2692-.0198.0924-.0744.1737-.1526.2268l-8.2551 5.4516 7.9383-4.5834c.0826-.0478.1805-.0616.2731-.0384.0925.0232.1724.0815.2226.1627.0502.0811.0668.1787.0463.2718-.0205.0932-.0766.1747-.1563.2273l-7.3186 4.8554 6.8134-3.9336c.0826-.0449.1792-.0563.27-.0319.0907.0244.1687.0827.2177.1628.049.0802.0654.1761.0457.268-.0196.0919-.0738.1728-.1514.2259l-3.74 2.42 3.116-1.7967c.0826-.0443.1791-.0552.2695-.0305.0905.0247.168.0831.2168.1632.0487.0801.0649.1758.0452.2674-.0196.0917-.0736.1724-.1509.2254l-1.0362.6644.3351-.1936c.0823-.0454.179-.0575.27-.0337s.1694.0817.2189.1616c.0495.08.0665.1759.0473.268s-.0731.1732-.1505.2267l-2.4852 1.6434 1.5304-.88c.0812-.0458.1767-.059.2673-.0368.0905.0221.1692.0778.2201.1559s.0702.1726.0539.2644c-.0163.0917-.0669.1738-.1416.2296l-3.9307 2.8666 2.1076-1.2173c.0842-.0479.1839-.0605.2773-.0351.0935.0253.1731.0866.2215.1705.0484.0838.0617.1834.0369.277-.0247.0936-.0855.1737-.169.2226l-7.9919 4.6156c-.0811.0458-.1767.059-.2672.0369s-.1692-.0779-.2201-.156c-.0509-.078-.0702-.1725-.0539-.2643s.0669-.1739.1416-.2296l3.9277-2.8725-6.2128 3.586c-.0556.0327-.1188.0501-.1833.0506z" fill="#ffe48e"/><path d="m30.6203 39.6889c-.077 0-.152-.0242-.2144-.0692-.0625-.045-.1091-.1085-.1335-.1815-.0243-.0731-.0251-.1519-.0021-.2253.0229-.0735.0684-.1379.13-.184l2.8306-2.1414-2.7434 1.584c-.0814.0461-.1774.0592-.2682.0368s-.1696-.0787-.2203-.1573-.0694-.1736-.0524-.2656c.0171-.092.0687-.1739.1442-.2291l2.5857-1.8488-2.4706 1.4271c-.0818.047-.1786.0606-.2702.038-.0917-.0226-.1711-.0796-.2217-.1593-.0506-.0796-.0686-.1757-.0502-.2683.0184-.0925.0718-.1744.1491-.2286l2.2337-1.5539-2.0988 1.2114c-.0803.0463-.1751.0604-.2654.0396s-.1693-.0751-.2212-.1518c-.052-.0767-.0729-.1703-.0587-.2618.0142-.0916.0626-.1743.1354-.2317l3.6666-2.882-3.6329 2.0981c-.0818.0519-.1808.0693-.2754.0485-.0945-.0209-.177-.0783-.2294-.1597-.0524-.0815-.0705-.1804-.0502-.2751.0202-.0947.0771-.1776.1583-.2305l.4803-.3402-.2977.1723c-.0805.0459-.1753.0597-.2655.0385-.0902-.0211-.169-.0756-.2207-.1525-.0516-.0769-.0722-.1705-.0577-.262.0146-.0915.0632-.1741.1361-.2312l1.6082-1.2467-1.4732.8485c-.0799.045-.1736.0584-.2629.0377-.0892-.0206-.1675-.074-.2194-.1495-.0518-.0755-.0736-.1677-.0609-.2585.0127-.0907.0589-.1734.1296-.2318l1.1733-.9533-1.0267.5911c-.0775.0467-.1696.063-.2585.0459-.0889-.0172-.1684-.0666-.223-.1388s-.0806-.1621-.0729-.2523c.0076-.0902.0484-.1744.1144-.2364l1.3083-1.2591-1.1836.6835c-.0781.0441-.1696.058-.2573.0392-.0876-.0188-.1654-.0691-.2185-.1413-.0531-.0723-.0779-.1615-.0696-.2508.0082-.0893.0488-.1724.1142-.2338l.2361-.22-.0198.0117c-.0765.0442-.1664.0593-.2532.0424-.0867-.0168-.1645-.0644-.2189-.134-.0545-.0696-.0819-.1566-.0774-.2448.0046-.0883.0409-.1719.1022-.2356l.1357-.1408c-.0702.0148-.1431.0087-.2098-.0176-.0667-.0262-.1242-.0714-.1655-.13s-.0645-.128-.0667-.1997c-.0023-.0716.0165-.1423.054-.2034l.1863-.3029c-.0536.0158-.1101.0192-.1651.0098-.0551-.0094-.1073-.0312-.1526-.0638-.0454-.0326-.0827-.0752-.1091-.1244s-.0412-.1038-.0433-.1596l-.0205-.5559c-.0616-.0276-.1144-.0717-.1525-.1274-.0382-.0557-.0602-.1208-.0637-.1882-.0035-.0675.0117-.1345.0439-.1939.0322-.0593.0801-.1086.1386-.1424l.2002-.1166c.0547-.0317.1168-.0487.1801-.0493.0632-.0006.1256.0152.181.0459.0553.0306.1018.075.1349.129.0331.0539.0517.1155.054.1787l.0146.385.6366-.3667c.0706-.0406.1527-.0565.2333-.0453.0807.0113.1553.049.2121.1073.0568.0584.0926.134.1017.2149s-.009.1626-.0514.2321l-.1738.2838.8353-.4826c.0764-.0441.1663-.0592.253-.0425.0866.0168.1644.0643.2189.1338.0545.0694.0821.1562.0777.2444s-.0405.1719-.1016.2356l-.0909.0946.6747-.3894c.078-.0441.1696-.0581.2572-.0392.0877.0188.1654.0691.2185.1413.0531.0723.0779.1615.0697.2507-.0082.0893-.0488.1725-.1142.2339l-.2362.2163.8896-.5133c.0775-.0467.1696-.0631.2585-.0459.0889.0171.1684.0666.223.1388s.0806.162.0729.2522c-.0076.0903-.0484.1745-.1144.2364l-1.309 1.2591 2.4574-1.4146c.0799-.0469.1747-.0618.2652-.0417.0905.0202.17.0739.2225.1503.0526.0764.0742.1698.0606.2615-.0137.0918-.0615.1749-.134.2327l-1.1777.9534 2.0826-1.202c.0804-.0456.175-.0592.265-.038.0899.0211.1686.0754.2202.1521.0516.0766.0724.1699.0582.2612-.0143.0913-.0624.1739-.1349.2312l-1.6133 1.2467 2.5791-1.488c.0816-.0458.1777-.0587.2685-.036s.1695.0793.22.1581c.0504.0789.0688.174.0513.266-.0174.092-.0694.1738-.1453.2287l-.4752.3358 1.1536-.6658c.0802-.0454.1746-.0588.2644-.0377.0897.0211.1682.0753.2198.1517.0516.0763.0725.1694.0586.2605s-.0616.1737-.1336.2312l-3.6667 2.882 5.159-2.9773c.0817-.0453.1775-.0576.268-.0346s.1688.0797.2189.1584c.0502.0788.0684.1737.0509.2654-.0174.0918-.0692.1734-.1447.2282l-2.233 1.5547 1.4666-.847c.0815-.046.1774-.0592.2682-.0368.0909.0224.1697.0787.2204.1573s.0694.1737.0523.2656c-.017.092-.0686.174-.1441.2292l-2.585 1.8502 1.3852-.7994c.0809-.0474.1768-.062.2681-.0409.0914.0211.1711.0764.2229.1545.0519.0781.0718.1731.0558.2655-.0161.0923-.0669.175-.142.2311l-2.8314 2.1376.6556-.3784c.0418-.0265.0884-.0443.1372-.0523.0488-.0081.0987-.0061.1468.0056.048.0118.0932.0332.1327.0628.0396.0297.0727.0671.0975.1099.0247.0428.0406.0902.0465.1393.006.049.002.0988-.0118.1463s-.037.0917-.0683.13c-.0314.0383-.0701.0698-.1139.0928l-5.8021 3.3506c-.0538.0329-.1152.0511-.1782.0528z" fill="#f4d57e"/><g fill="#262626"><path d="m4.59043 35.5319c1.43806 2.1113 3.80013 3.1328 5.66277 4.7227 1.1734 3.8287 6.4695 4.6706 8.2229.8675 14.6403 9.3134 32.725-9.0728 22.2779-23.32-3.3733-4.3626-8.8733 5.7824-11.8704 7.5864 1.0897-7.5145-1.342-16.29471-8.1041-20.41311-1.5921-.58667-2.0966-2.0592-2.9759-3.34034-3.2838-3.08586-6.3917-.16793-8.15024 2.8138-10.73013 5.73835-12.27967 21.95965-5.06293 31.08305zm33.21997-18.0964c1.2702-.817 2.1707 1.0061 2.7134 1.9184 1.769 3.0162 2.4925 6.5322 2.0581 10.0019-.4344 3.4696-2.0024 6.6987-4.4605 9.1857-6.5729 7.986-24.775 3.039-19.6585-1.757 6.8765 6.468 19.3094 2.7632 21.5153-6.3162.5603-2.1131.5596-4.3357-.0021-6.4484-.5616-2.1127-1.6647-4.0423-3.2004-5.5981.3012-.3729.65-.7045 1.0377-.9863zm-6.7034 21.6648c-1.0037-3.7273-2.0081-7.4543-3.0132-11.1811l10.7983 2.9106c-.521 1.9107-1.5034 3.6642-2.8609 5.1063-1.3575 1.4422-3.0484 2.5287-4.9242 3.1642zm-4.0729-10.8856 3.0118 11.1738c-1.9481.4-3.9651.3109-5.8703-.2593-1.9053-.5703-3.6395-1.6039-5.0476-3.0084zm5.28-5.28 3.7913-3.7942c1.324 1.4785 2.281 3.2481 2.7935 5.1655.5124 1.9174.5659 3.9285.156 5.8704l-11.0161-2.9693c.1708-.2544.5654-.3718.6512-.6504zm-30.74134-4.7989c1.27893-9.48935 6.44013-10.20141 11.24564-16.44135 2.0974-1.550265 4.4294.20754 5.1334 2.30487 3.794 2.27448 6.7717 5.69033 8.5074 9.75918 1.7357 4.0688 2.1405 8.5822 1.1564 12.895-3.2061 3.2046-6.4169 6.4154-9.6323 9.6323-1.5605 1.1308-2.475 3.2303-.3014 4.3523-.153.5291-.4454 1.0073-.8465 1.3847-.4012.3774-.8963.6401-1.4338.7605-.5374.1205-1.0973.0943-1.6212-.0758-.5238-.17-.9923-.4778-1.3565-.8909-.8116-1.7757-2.2349-3.2003-4.00987-4.0135-5.95467-4.3993-7.982337-12.6163-6.84127-19.6673z"/><path d="m9.68436 34.592c.07411.0715.16272.1261.25981.1603.09713.0342.20043.0471.30293.0379.1025-.0093.2018-.0405.2913-.0915.0894-.051.1668-.1206.2269-.2042.0374-.4136-.6512-.9584-1.03254-1.0883-1.0736.0118-.63947.7678-.0484 1.1858z"/><path d="m6.12969 30.996c1.21294.5749 1.29287-.5478.35494-1.1631-1.04574-.1041-.95847.575-.35494 1.1631z"/><path d="m5.02538 25.1854c-1.144-.932-1.3002 1.1242-.66954 1.4939 1.04354.2119.83894-.8324.66954-1.4939z"/><path d="m7.69961 27.4672c1.177 1.0054 1.26207-.9314.47007-1.4792-1.11027-.2368-.80447.8595-.47007 1.4792z"/><path d="m10.8401 31.3717c1.3801.8558 1.2841-.6549.1973-1.2276-1.13744-.3117-.9512.8037-.1973 1.2276z"/></g></g></svg>