<svg fill="none" height="32" viewBox="0 0 32 32" width="32" xmlns="http://www.w3.org/2000/svg"><path d="m11.6801 31.7105c-.053 0-.1047-.0157-.1487-.0453-.044-.0295-.0781-.0715-.0982-.1205-.02-.049-.025-.1029-.0142-.1548.0107-.0518.0366-.0993.0744-.1364l.8-.7835-1.0624.6133c-.0583.0335-.1271.0436-.1926.0285-.0655-.0152-.1228-.0545-.1606-.1101-.0377-.0556-.0531-.1234-.043-.1899.0101-.0664.045-.1266.0975-.1685l1.5867-1.2506-1.0224.5904c-.059.0338-.1286.0437-.1947.0279s-.1237-.0563-.1609-.1132c-.0372-.0568-.0514-.1258-.0395-.1927s.0488-.1268.1034-.1674l2.0117-1.4848-1.4.808c-.0597.0328-.1296.0414-.1954.0243-.0658-.0172-.1226-.0589-.1588-.1165-.0361-.0577-.0488-.127-.0355-.1937s.0516-.1258.107-.1653l.432-.2917c-.0604.0151-.1241.0086-.1802-.0184-.0562-.027-.101-.0727-.1269-.1294-.0259-.0566-.0312-.1205-.015-.1806.0163-.0601.0531-.1126.104-.1484l3.6368-2.5883-2.9733 1.7158c-.0596.0331-.1297.0422-.1958.0253-.0661-.017-.1232-.0586-.1595-.1163s-.0492-.1272-.0359-.1941.0518-.1262.1074-.1656l3.7552-2.568-3.1258 1.8048c-.0599.0336-.1303.0427-.1968.0257-.0664-.0171-.1237-.0591-.16-.1174-.0363-.0582-.0487-.1282-.0347-.1953.014-.0672.0534-.1264.1099-.1653l4.2805-2.8693-3.6539 2.1093c-.0599.0341-.1307.0437-.1975.0267-.0669-.017-.1245-.0592-.1609-.1178-.0363-.0586-.0486-.129-.0342-.1964.0144-.0675.0544-.1267.1116-.1653l5.3333-3.5445-4.6827 2.7029c-.0601.0336-.1309.0427-.1975.0252-.0666-.0174-.1239-.0599-.1599-.1186-.036-.0588-.0479-.1291-.0331-.1964.0147-.0673.0549-.1263.1121-.1646l5.2342-3.4042-4.6155 2.6666c-.0605.0366-.1331.0476-.2018.0307-.0686-.017-.1278-.0605-.1643-.1211-.0366-.0605-.0476-.1331-.0307-.2017.017-.0687.0605-.1278.1211-.1644l1.7504-1.1019-1.2342.712c-.0601.035-.1316.0451-.1992.0281-.0675-.017-.1257-.0597-.1621-.1191-.0364-.0593-.0482-.1305-.0328-.1984s.0568-.1271.1152-.165l4.5259-2.9557-3.9243 2.2651c-.0601.036-.1321.0469-.2002.0303s-.1269-.0594-.1638-.1191c-.0368-.0597-.0486-.1314-.0329-.1998.0157-.0683.0577-.1277.1169-.1653l3.5883-2.3627-3.1766 1.8315c-.0594.0329-.1291.0419-.1949.0252-.0658-.0168-.1227-.058-.1592-.1153s-.0497-.1263-.037-.193.0503-.1261.1053-.166l4.0224-2.8042-5.639 3.2533c-.06.0331-.1304.0417-.1967.0243-.0662-.0175-.1232-.0599-.1591-.1183-.0359-.0583-.0479-.1283-.0336-.1953s.0539-.1259.1105-.1646l1.5909-1.0394-2.5856 1.4933c-.0592.0327-.1286.0417-.1942.0252-.0655-.0165-.1224-.0574-.159-.1143-.0366-.0568-.0502-.1255-.0381-.192.0121-.0666.049-.126.1033-.1664l4.424-3.1594-6.24956 3.6069c-.06002.0331-.13047.0417-.19672.0243-.06626-.0175-.12323-.0599-.15911-.1183-.03588-.0583-.04791-.1283-.03359-.1953s.05388-.1259.11049-.1646l1.69069-1.105-2.70136 1.5589c-.05975.0331-.12992.042-.19604.0249-.06613-.0171-.12316-.059-.15934-.1169s-.04876-.1275-.03513-.1945c.01363-.0669.05242-.1261.10838-.1652l2.91089-1.9531-4.16583 2.4048c-.05988.0331-.13018.0418-.19636.0245s-.12318-.0594-.1592-.1175c-.03603-.0582-.04833-.1279-.03437-.1949.01397-.067.05313-.126.1094-.1649l4.58666-3.04-5.46559 3.1552c-.06008.0342-.13107.0437-.19802.0265-.06694-.0172-.12461-.0596-.16085-.1185-.03623-.0588-.04821-.1295-.03339-.197.01481-.0675.05525-.1266.11279-.1649l5.88696-3.8517-5.86669 3.3867c-.06036.0327-.13099.0408-.19721.0228-.06622-.0181-.12292-.061-.15831-.1198-.03538-.0588-.04673-.129-.03167-.196s.05536-.1256.11252-.1636l1.42027-.8858-.85867.4954c-.06019.035-.13168.0451-.19919.0281-.06752-.017-.1257-.0597-.16213-.1191-.03642-.0593-.04819-.1305-.0328-.1984s.05674-.1271.11519-.165l7.16529-4.6656-6.37703 3.68c-.06035.0327-.13098.0409-.1972.0228-.06622-.018-.12292-.0609-.15831-.1198-.03539-.0588-.04673-.129-.03167-.1959.01506-.067.05536-.1256.11252-.1636l1.0064-.624-.44.2544c-.06042.0339-.13164.0429-.1986.0252-.06695-.0178-.12438-.0608-.16013-.1202-.03576-.0593-.04703-.1302-.03144-.1977.01559-.0674.05682-.1262.11497-.1638l4.47999-2.8267-3.82293 2.2128c-.06054.0349-.13237.0447-.20003.0272-.06766-.0176-.12574-.0609-.16174-.1208-.036-.06-.04704-.1316-.03075-.1996.01629-.0679.05861-.1268.11786-.1639l3.27307-2.0432-2.656 1.5318c-.06051.0328-.13135.0409-.19772.0227s-.12312-.0614-.15839-.1205-.04632-.1295-.03085-.1966c.01548-.0671.05629-.1256.11389-.1632l1.10186-.6806-.53333.3094c-.06026.037-.13277.0486-.20158.0322s-.12829-.0594-.16535-.1197c-.03706-.0602-.04867-.1328-.03226-.2016.0164-.0688.05947-.1283.11972-.1653l7.93283-5.17656-7.11416 4.10666c-.06023.0343-.13143.0438-.19854.0265-.0671-.0173-.12483-.0601-.16095-.1192-.03613-.05919-.04781-.13007-.03257-.19767.01524-.06761.05619-.12663.11419-.16455l5.32693-3.43307-4.61599 2.66667c-.0598.03407-.13046.04371-.1972.0269-.06674-.01682-.12439-.05879-.1609-.11713-.03651-.05835-.04904-.12855-.03498-.19593.01405-.06737.05362-.1267.11041-.16558l5.69656-3.84-4.89389 2.82667c-.05962.03805-.13192.05086-.20098.0356-.06906-.01525-.12924-.05731-.16729-.11693-.03805-.05963-.05086-.13192-.0356-.20098.01525-.06907.05731-.12924.11694-.16729l4.54662-3.19573-3.73329 2.1568c-.05966.0363-.13119.04775-.1992.03188s-.12708-.05778-.16452-.11673c-.03744-.05896-.05026-.13025-.0357-.19855.01455-.06831.05533-.12817.11355-.16674l2.22776-1.5552-1.55202.8976c-.05809.03393-.12685.04465-.19251.03002s-.12336-.05354-.16154-.10892c-.03818-.05539-.05402-.12315-.04435-.18972.00968-.06657.04416-.12702.09653-.16924l2.39999-1.952-1.5707.90666c-.05765.03297-.12557.04321-.19042.02872-.06484-.01449-.12194-.05267-.16011-.10706-.03817-.05438-.05467-.12106-.04625-.18697s.04114-.12631.09176-.16935l.76002-.64001-.0923.05334c-.0541.03129-.1175.04257-.1791.03188-.0616-.0107-.1175-.04269-.1579-.0904s-.06273-.10809-.06313-.1706c-.00041-.06252.02116-.12319.06093-.17142l.5083-.61653c-.0475-.01732-.089-.04776-.1198-.08777-.0308-.04-.0496-.08794-.0543-.13822-.0046-.05028.0051-.100847.0281-.145814s.0582-.082486.1017-.108194l.8811-.514134c.0541-.030973.1173-.042005.1787-.031179.0614.010827.1171.042826.1574.090438.0402.047612.0625.107825.063.170173s-.0209.12289-.0605.171102l-.3376.410128 1.407-.810662c.0577-.033531.1259-.044205.1911-.029912.0651.014292.1226.052511.161.107108.0384.054598.0549.121604.0463.187787s-.0417.12673-.0928.169684l-.7606.639995 1.8651-1.074662c.058-.033127.1263-.043281.1915-.028453.0651.014828.1223.053558.1602.10853.038.054972.0539.122182.0447.188336-.0093.066154-.043.126436-.0945.168921l-2.3974 1.950938 4.1387-2.388272c.0593-.033832.1293-.043625.1957-.027359.0663.016266.1238.057351.1608.114788.0369.057437.0504.126849.0376.193933-.0127.067084-.0507.126727-.1061.166638l-2.2336 1.553602 3.4688-2.001602c.0595-.034742.1301-.045122.1971-.028964.0669.016158.125.0576.1621.115645.0371.058046.0503.12819.0368.195742s-.0525.127269-.1091.166644l-4.5477 3.192535 6.3099-3.641602c.0598-.034078.1304-.043717.1972-.0269.0667.016816.1244.058786.1609.117131s.049.128546.035.195921c-.0141.067374-.0537.126705-.1105.165582l-5.6965 3.839998 7.4368-4.291732c.0602-.034283.1314-.043773.1985-.02646.0672.017313.1249.06007.161.119212s.0478.130023.0326.197629c-.0153.067605-.0562.126624-.1142.164553l-5.327 3.431468 6.1371-3.542935c.0603-.03706.1328-.048664.2016-.032261s.1283.05947.1653.119728c.0371.060257.0487.132768.0323.201581-.0164.068817-.0595.128297-.1197.165347l-7.9339 5.17547 7.8528-4.53333c.0608-.03628.1334-.04695.2021-.02964.0686.0173.1275.06115.1638.1219.0363.06076.0469.13343.0296.20205-.0173.06861-.0611.12754-.1219.16382l-1.0933.67414.2506-.14454c.0607-.03642.1334-.04725.2021-.03009.0686.01715.1277.06088.1641.12156s.0472.13335.0301.20201c-.0172.06866-.0609.1277-.1216.16412l-3.2763 2.04587 2.3104-1.3328c.0606-.03657.1332-.04758.2018-.03063.0687.01695.1278.06049.1644.12103.0365.06054.0476.13312.0306.20179-.0169.06866-.0605.12778-.121.16434l-4.48 2.82347 3.4325-1.9824c.0606-.03413.1321-.04325.1993-.02541s.1248.06122.1605.1209.0466.13093.0305.19857c-.0161.06765-.058.12633-.1167.16354l-1.0085.62507.1413-.0816c.0602-.03501.1317-.04508.1992-.02807s.1257.05974.1621.11908c.0365.05934.0482.13057.0328.19847s-.0567.12709-.1152.16492l-7.1669 4.66662 5.8565-3.38129c.0606-.03491.1324-.04466.2001-.02714.0676.01751.1257.06089.1617.1208.036.0599.0471.13155.0308.19951-.0163.06797-.0586.12682-.1179.1639l-1.4208.88586.5333-.30773c.0603-.03706.1328-.04867.2016-.03226.0688.0164.1283.05947.1654.11973.037.06025.0486.13276.0322.20158-.0164.06881-.0594.12829-.1197.16535l-5.8885 3.85169 4.6453-2.6821c.06-.0348.1313-.0448.1986-.028.0673.0169.1254.0594.1619.1184s.0486.1299.0337.1977-.0557.127-.1137.1652l-4.5866 3.04 3.5626-2.056c.0599-.0347.131-.0447.1982-.028.0671.0167.1252.0589.1618.1176.0367.0588.049.1294.0345.1971s-.0548.1271-.1123.1656l-2.911 1.9531 4.1659-2.4054c.0601-.0341.1311-.0436.198-.0264.067.0171.1246.0596.1609.1184.0362.0589.0482.1295.0334.197s-.0553.1266-.1128.1649l-1.6923 1.1067 2.7029-1.5606c.0595-.0384.1317-.0516.2008-.0367.0692.0148.1296.0565.168.1159.0384.0595.0517.1317.0368.2008-.0148.0692-.0566.1296-.116.168l-4.4266 3.1611 6.2506-3.6091c.0601-.033.1305-.0417.1968-.0242.0662.0175.1232.0598.1591.1182s.0479.1283.0336.1953c-.0144.0671-.0539.126-.1105.1646l-1.5894 1.0395 2.584-1.4934c.0596-.0341.13-.044.1966-.0276s.1244.0579.1612.1158c.0368.058.0499.1278.0365.1952-.0134.0673-.0522.1268-.1084.1662l-4.0235 2.807 5.6395-3.2534c.06-.0335.1306-.0426.1971-.0253.0666.0172.1239.0595.16.1179.0361.0585.0482.1287.0339.1959-.0144.0672-.0541.1263-.111.1649l-3.584 2.3594 4.5947-2.6528c.0602-.035.1317-.045.1992-.028s.1257.0597.1621.1191c.0364.0593.0482.1305.0328.1984s-.0567.1271-.1152.1649l-4.5291 2.9526 4.7195-2.7243c.0604-.0338.1317-.0429.1986-.0251.067.0177.1244.0608.1601.1201.0358.0593.0471.1302.0315.1977s-.0568.1262-.115.1638l-1.7403 1.0976 1.2944-.7466c.0602-.035.1317-.0451.1992-.0281.0676.017.1257.0598.1622.1191.0364.0593.0482.1306.0328.1985s-.0568.127-.1152.1649l-5.2374 3.4074 3.3024-1.9072c.0601-.0348.1313-.0448.1986-.0279.0674.0168.1254.0593.162.1183.0365.059.0486.13.0336.1977-.0149.0678-.0557.1271-.1136.1653l-5.3291 3.5429 3.2315-1.8667c.0598-.0335.1303-.0427.1967-.0256.0665.017.1238.0591.16.1173.0363.0582.0487.1282.0347.1954-.014.0671-.0533.1263-.1098.1652l-4.2811 2.8704 2.296-1.3269c.0597-.0341.1302-.0439.1969-.0273.0666.0167.1243.0584.161.1165s.0495.1282.0357.1955c-.0137.0673-.0528.1268-.1093.1659l-3.7584 2.5702 1.769-1.0214c.0592-.0327.1287-.0417.1942-.0251.0656.0165.1225.0573.1591.1142s.0502.1255.0381.1921c-.0121.0665-.0491.126-.1034.1663l-3.6362 2.5888 1.4933-.8624c.0597-.0327.1296-.0414.1954-.0242.0659.0171.1227.0588.1588.1165.0361.0576.0488.1269.0355.1936-.0133.0668-.0516.1259-.107.1653l-1.1696.7904c.0659.0157.1232.0562.16.1131.0375.057.0516.1262.0396.1934-.012.0671-.0493.1271-.1042.1676l-2.0122 1.4875.1418-.0821c.0584-.0336.1274-.0439.193-.0288.0657.0152.1232.0546.161.1104.0377.0558.053.1238.0426.1904-.0103.0666-.0455.1268-.0984.1685l-1.7627 1.3867c.0426-.0025.0852.006.1236.0247.0383.0186.0713.0469.0956.0819.0391.0518.0581.116.0533.1807s-.0331.1254-.0794.1708l-1.5216 1.4864.0096.0155c.0353.0612.0449.134.0266.2023s-.063.1266-.1242.1619l-.7654.4416c-.0396.0235-.0846.0362-.1306.0368z" fill="#f9c153"/><path d="m5.84237 18.9567c2.73174.0838 5.47623.0107 8.21333 0-1.0951 3.834-2.1925 7.666-3.2923 11.496-.0634.183-.0718.3806-.0243.5683.0475.1878.149.3575.2918.4883.1429.1307.3209.2168.5121.2476.1912.0309.3872.005.5639-.0743.8048-.432 1.2469-1.3333 1.8848-1.9685 4.4283-5.4555 9.4549-10.5744 13.5819-16.2086.3301-1.9893-2.6992-1.5285-3.8251-1.5285h-5.9733l5.616-9.47092c.1734-.19267.2879-.43103.3299-.6868s.0098-.51823-.0928-.75625c-.1026-.238022-.2714-.441622-.4862-.586657-.2148-.145036-.4667-.225421-.7259-.231624-2.9034-.007467-5.817-.000533-8.7237-.002667-.9328 0-2.4965-.2783998-3.224.469867-1.79093 3.840001-2.85493 8.100801-4.41546 12.072551-.25867 1.713-3.27947 5.8426-.21067 6.1722zm-.44426-2.1333c1.83146-5.1408 3.63093-10.29758 5.46719-15.43732.3488-.884264 1.4613-.484264 2.1957-.562131h9.112c1.2374.109333.6816 1.238401.3131 1.859731l-4.8277 8.14242c-.1152.4501-1.4176 1.6469-.488 1.7333h4.3962c1.5035.0331 3.0224-.056 4.5184 0 .8646.1253.8096.9995.3872 1.5184-1.3189 1.5531-2.6469 3.0992-3.9669 4.6512-3.4478 4.0434-6.8962 8.0868-10.3451 12.1301-.257.3019-.7434.4646-.6741-.2389 1.1109-3.9605 2.2869-7.936 3.4075-11.9056.0688-.24-.1222-.3392-.3382-.3392h-8.03516c-1.0624.1046-1.66667-.4715-1.12213-1.5493z" fill="#262626"/></svg>