<svg fill="none" height="44" viewBox="0 0 44 44" width="44" xmlns="http://www.w3.org/2000/svg"><path d="m24.0773 43.5941c-.0783-.0001-.1545-.0253-.2175-.0719-.0629-.0466-.1093-.1121-.1323-.1869-.0231-.0748-.0215-.1551.0043-.229.0259-.0739.0748-.1376.1394-.1817l3.9146-2.6642-5.5866 3.2266c-.0826.047-.1802.0601-.2722.0365-.0921-.0236-.1714-.0821-.2212-.163s-.0663-.178-.0459-.2708c.0203-.0928.0759-.1741.1551-.2267l3.8661-2.5337-5.0365 2.9077c-.0822.0468-.1794.0601-.2712.037-.0917-.0232-.171-.0809-.2212-.1611s-.0674-.1768-.0481-.2694.0737-.1742.1518-.2277l8.2661-5.5975-9.7826 5.6467c-.0833.0502-.1831.0654-.2775.0421s-.1757-.0832-.226-.1664c-.0502-.0833-.0654-.1831-.0421-.2775s.0832-.1757.1664-.226l2.9334-1.8494-3.5472 2.046c-.083.0474-.1813.0605-.2738.0366-.0926-.024-.1721-.0832-.2217-.165-.0495-.0818-.0652-.1797-.0436-.2728.0216-.0932.0788-.1742.1593-.2258l5.8813-3.7532-6.5831 3.8001c-.0829.051-.1826.0669-.2772.0444-.0946-.0226-.1764-.0818-.2274-.1647-.0509-.0828-.0669-.1825-.0443-.2771.0225-.0947.0818-.1764.1646-.2274l9.6162-6.2781-10.4867 6.0552c-.0826.0469-.1802.06-.2722.0364-.0921-.0236-.1714-.082-.2212-.1629-.0498-.081-.0663-.1781-.0459-.2709.0203-.0928.0759-.1741.1551-.2267l10.8746-7.1177-11.674 6.7393c-.0829.0456-.1802.0574-.2716.0329-.0915-.0246-.1698-.0835-.2188-.1645-.049-.0809-.0647-.1777-.044-.2701.0208-.0923.0764-.173.1553-.2253l7.3333-4.6354-7.7293 4.4623c-.0833.0502-.1832.0652-.2776.0418-.0944-.0235-.1756-.0835-.2258-.1668s-.0652-.1832-.0418-.2776c.0235-.0944.0835-.1757.1668-.2258l6.4797-4.0678-6.765 3.905c-.0825.0437-.1786.0543-.2686.0295-.0901-.0247-.1673-.0828-.216-.1625-.0486-.0797-.065-.175-.0458-.2664s.0725-.172.1491-.2254l10.8233-6.9777-11.2281 6.4819c-.0826.0449-.1792.0563-.27.0319s-.1687-.0827-.2177-.1628c-.049-.0802-.0654-.1761-.0458-.268.0197-.0919.0739-.1728.1514-.2259l11.0888-7.1544-11.3946 6.578c-.0828.0472-.1807.0602-.273.0364-.0922-.0238-.1716-.0826-.2213-.1639-.0496-.0813-.0657-.1788-.0447-.2717.0209-.093.0772-.1741.157-.2263l10.5717-6.7863-10.5915 6.1146c-.0836.0498-.1835.0643-.2777.0405-.0943-.0239-.1752-.0842-.225-.1678-.0498-.0835-.0644-.1834-.0405-.2777.0238-.0942.0842-.1752.1677-.225l.2266-.1386c-.0847.0323-.1784.0319-.2629-.0009-.0846-.0327-.1539-.0957-.1948-.1766-.0408-.081-.0502-.1742-.0264-.2617.0239-.0874.0793-.163.1556-.212l11.1606-7.2277-10.9619 6.3287c-.0827.0462-.18.0586-.2716.0346-.0916-.0239-.1704-.0824-.2199-.1632-.0495-.0807-.0658-.1775-.0455-.27.0202-.0925.0755-.1736.1542-.2262l10.8849-7.0679-10.6847 6.1688c-.0833.0502-.1832.0652-.2776.0417-.0944-.0234-.17565-.0834-.22583-.1667-.05018-.0834-.06519-.1832-.04174-.2776.02344-.0945.08344-.1757.16677-.2259l5.7068-3.5852-5.456 3.1489c-.0828.0449-.1797.0562-.2705.0315-.09093-.0246-.16887-.0832-.2177-.1637s-.06482-.1767-.04465-.2687.07495-.1727.15299-.2254l7.64646-4.873-7.4125 4.2798c-.0827.0462-.18003.0586-.27164.0346-.09162-.0239-.17041-.0824-.21989-.1632-.04947-.0807-.06578-.1775-.04552-.27s.07553-.1736.15422-.2262l9.08163-5.877-8.8653 5.1187c-.08329.0469-.18162.0595-.27403.0349-.09241-.0245-.17158-.0841-.22064-.1662s-.06413-.18-.042-.273c.02213-.0931.07971-.1737.16048-.2249l1.66539-1.0347-1.1902.6871c-.0825.0455-.17939.0574-.27049.0333-.0911-.024-.16944-.0822-.21877-.1625-.04934-.0803-.06588-.1765-.04619-.2686s.07409-.1732.15192-.2263l9.14173-5.9869-8.2471 4.7615c-.0826.0449-.1792.0563-.27.0319-.0907-.0244-.1687-.0827-.2177-.1628-.049-.0802-.0654-.1761-.0457-.268.0196-.0919.0738-.1728.1514-.2259l6.5369-4.2203-5.5227 3.1878c-.0826.0455-.1794.0574-.2705.0333-.0911-.024-.1695-.0822-.2188-.1625s-.0659-.1765-.0462-.2686.0741-.1732.1519-.2263l6.0588-3.9394-4.8348 2.791c-.0826.0449-.1793.0563-.27.0319-.0908-.0244-.1687-.0827-.2178-.1628-.049-.0802-.0654-.1761-.0457-.268s.0739-.1728.1514-.2259l4.0451-2.615-2.7427 1.584c-.0823.0477-.18.0615-.2724.0385-.0924-.0229-.1722-.0809-.2226-.1617-.0503-.0808-.0673-.1779-.0474-.271.02-.0931.0754-.1747.1545-.2277l5.8864-3.96-4.1264 2.3819c-.0825.0461-.1796.0586-.2711.0349-.0914-.0237-.1702-.0819-.2199-.1623-.0496-.0804-.0663-.1768-.0466-.2692.0197-.0925.0744-.1737.1526-.2268l2.8416-1.8802-1.2752.7333c-.0812.0458-.1767.059-.2673.0369-.0905-.0222-.1692-.0779-.2201-.156s-.0702-.1726-.0539-.2643c.0163-.0918.0669-.1739.1416-.2297l5.5-4.0172-3.2069 1.851c-.0815.0448-.1771.0569-.2672.0338-.0902-.023-.1682-.0795-.2183-.1579s-.0685-.173-.0514-.2645c.017-.0914.0682-.173.1431-.2282l1.7908-1.254-.2662.154c-.0804.0469-.1758.0614-.2665.0406-.0908-.0208-.1703-.0754-.2223-.1527s-.0726-.1715-.0577-.2634c.0149-.092.0643-.1748.1381-.2317l2.8042-2.17724-1.0508.60647c-.0802.04594-.1748.05991-.2649.0391-.09-.0208-.1689-.07485-.2208-.15132s-.073-.16972-.0591-.26109.0618-.17412.1341-.23169l1.276-1.00393c-.0789.03361-.167.03853-.2491.01389-.0822-.02464-.153-.07727-.2004-.14875-.0473-.07149-.0681-.1573-.0587-.24252.0093-.08522.0483-.16447.11-.22396l1.7351-1.67713-.264.15253c-.0737.04184-.1595.0569-.243.04263-.0834-.01428-.1594-.057-.2149-.12093-.0556-.06392-.0873-.1451-.0898-.22975s.0244-.16755.0761-.23461l1.232-1.5774c-.061.01193-.1242.0078-.1832-.012-.059-.01979-.1118-.05458-.1534-.10094-.0562-.06135-.0898-.14001-.0954-.22303-.0056-.08303.0172-.16549.0646-.23383l.4481-.64387c-.0324-.02726-.0597-.06004-.0807-.0968-.0483-.08415-.0614-.18405-.0362-.27781.0251-.093751.0864-.173703.1704-.222325l.6754-.3894c.0721-.041058.156-.056463.238-.0437.0819.012764.1571.052942.2133.113973s.09.139307.096.222045c.0059.082737-.0164.165046-.0633.233482l-.1224.177465.0623-.03593c.0736-.04184.1595-.0569.2429-.04262.0835.01427.1595.057.215.12092.0556.06392.0873.1451.0898.22975.0024.08465-.0245.16755-.0762.23462l-1.1968 1.53193 1.2122-.6996c.0775-.04595.1692-.06176.2576-.04443s.1673.0666.2217.1384.0805.16112.0732.25091c-.0072.08979-.0473.17377-.1125.23592l-1.7394 1.67933 1.7974-1.034c.0801-.04509.1743-.05841.2638-.03731.0896.0211.1679.07507.2195.15121.0516.07615.0727.1689.0591.25986-.0136.09097-.0609.17351-.1325.23124l-1.2562.9856 1.2408-.71646c.0803-.04478.1745-.05774.264-.03631.0894.02143.1675.07568.2188.152.0513.07631.0721.16912.0582.26003-.0139.0909-.0615.17326-.1333.23074l-2.8079 2.18607 2.9333-1.694c.0818-.04637.1782-.05959.2694-.03694.0912.02266.1702.07946.2207.15869.0506.07923.0687.17483.0508.26707-.0179.09225-.0705.17409-.1471.22865l-1.782 1.24666 1.8165-1.05013c.0812-.0458.1767-.05899.2673-.03687.0905.02212.1692.07788.2201.15595s.0701.17259.0538.26434c-.0162.09176-.0669.17387-.1415.22965l-5.5 4.0194 5.816-3.3572c.0823-.04431.1784-.05554.2687-.03138s.1679.08188.2171.16136c.0491.07948.0661.17473.0473.26629-.0187.09156-.0717.17251-.1481.22633l-2.8416 1.8788 2.9333-1.69474c.0824-.04773.18-.06156.2724-.03858.0924.02299.1722.08099.2226.16175.0503.08076.0673.17794.0474.27101-.02.09306-.0754.17471-.1545.22769l-5.8894 3.95997 6.1446-3.5471c.083-.05077.1827-.0665.2773-.04374.0945.02276.1761.08215.2269.1651s.0665.18267.0437.27724c-.0227.0945-.0821.1762-.1651.2269l-4.0377 2.6092 4.18-2.4148c.0825-.0443.1787-.0554.2691-.0309.0903.0244.1679.0824.2169.1622.0489.0798.0655.1753.0463.2669s-.0727.1724-.1495.2258l-6.0595 3.9461 6.2934-3.6351c.0829-.0472.1808-.0602.273-.0364.0923.0238.1717.0826.2213.1639.0497.0813.0658.1788.0448.2717-.0209.093-.0772.1741-.157.2263l-6.5267 4.2137 6.7724-3.9101c.0824-.0448.1788-.0564.2695-.0323s.1686.0821.2179.162c.0492.0798.0659.1755.0468.2673-.0192.0919-.0729.1729-.15.2263l-9.1446 5.9899 9.5223-5.5c.0831-.0458.1808-.0576.2724-.0328.0917.0247.1701.084.2189.1654.0489.0814.0642.1785.0429.271-.0214.0925-.0777.1731-.1573.2249l-1.6639 1.0376 1.738-1.0032c.0828-.0471.1807-.0602.273-.0364.0923.0239.1716.0826.2213.164.0497.0813.0657.1787.0448.2717-.021.093-.0773.1741-.157.2263l-9.0838 5.8776 9.4226-5.4398c.0828-.0464.1804-.0587.2723-.0346.0918.0242.1706.0831.2199.1642s.0652.1782.0444.2708c-.0208.0927-.0767.1736-.156.2258l-7.6458 4.8708 7.8907-4.5554c.0831-.0466.181-.059.2731-.0346.092.0244.171.0836.2202.1651.0491.0816.0646.1791.0432.2719s-.0781.1736-.1581.2253l-5.7002 3.5823 5.8608-3.3836c.0825-.0442.1787-.0553.2691-.0309.0903.0245.1679.0825.2169.1623.0489.0798.0655.1752.0463.2668s-.0727.1724-.1495.2259l-10.8893 7.0715 11.2486-6.4944c.0829-.0471.1808-.0602.273-.0364.0923.0239.1717.0826.2213.164.0497.0813.0658.1787.0448.2717-.0209.093-.0772.1741-.157.2263l-11.1569 7.227 11.407-6.5854c.0832-.0451.1806-.0563.2718-.0312.0913.025.1693.0844.2178.1657.0485.0812.0637.1781.0424.2703-.0212.0922-.0774.1726-.1566.2244l-.0733.0455.0249-.0147c.0412-.0251.0868-.0418.1344-.0492.0476-.0075.0962-.0055.143.0059.0468.0113.091.0318.1299.0601.0389.0284.0718.0642.0969.1053.0251.0412.0418.0868.0493.1344.0074.0476.0054.0962-.0059.143-.0114.0468-.0318.0909-.0602.1299-.0284.0389-.0642.0718-.1053.0969l-10.5761 6.7863 10.78-6.2238c.0828-.0472.1807-.0602.273-.0364.0922.0238.1716.0826.2213.1639.0496.0813.0657.1788.0448.2717-.021.093-.0773.1741-.1571.2263l-11.0887 7.1551 11.3249-6.5376c.0825-.0438.1786-.0543.2687-.0296.09.0247.1672.0828.2159.1626.0486.0797.065.1749.0459.2663-.0192.0914-.0726.1721-.1492.2255l-10.8262 6.9791 10.9648-6.3301c.0833-.048.182-.0614.2751-.0374.093.0241.1729.0838.2224.1661.0495.0824.0646.1809.0422.2744-.0224.0934-.0806.1744-.162.2253l-6.4644 4.0561 6.38-3.685c.0413-.0249.087-.0415.1346-.0488s.0962-.0051.143.0064.0908.0321.1297.0607c.0388.0285.0716.0644.0965.1056.025.0412.0416.087.0488.1346.0073.0476.0051.0962-.0064.143s-.0321.0908-.0606.1297c-.0286.0388-.0645.0716-.1057.0965l-7.3421 4.6457 7.2145-4.1653c.0825-.0455.1794-.0574.2705-.0334.0911.0241.1694.0823.2188.1626.0493.0802.0659.1764.0462.2686-.0197.0921-.0741.1731-.152.2262l-10.8724 7.1134 10.7177-6.1872c.0829-.0509.1826-.0669.2772-.0443.0946.0225.1764.0817.2273.1646.051.0829.067.1826.0444.2772s-.0818.1764-.1646.2273l-9.6148 6.2788 9.3134-5.3753c.083-.0474.1813-.0606.2738-.0366.0926.024.1722.0832.2217.165.0496.0817.0652.1796.0436.2728s-.0788.1742-.1593.2258l-5.8872 3.7554 5.4524-3.1475c.0828-.0442.1795-.055.2701-.0301.0905.0249.1681.0836.2166.1641.0486.0804.0644.1764.0442.2681-.0201.0918-.0747.1723-.1525.2249l-2.9334 1.8532 2.4252-1.4c.082-.0449.1781-.0569.2687-.0333.0905.0236.1686.0809.2183.1602.0496.0793.0671.1745.0488.2663-.0182.0917-.0709.173-.1472.2272l-8.2698 5.599 7.4199-4.2834c.0826-.0469.1802-.06.2723-.0364.092.0236.1713.082.2211.1629.0499.081.0663.1781.046.2709-.0204.0928-.076.1741-.1551.2267l-3.8662 2.5337 2.9253-1.6867c.0821-.0462.1788-.059.2701-.0358s.1701.0807.2202.1605c.0501.0797.0675.1757.0487.268-.0187.0923-.0723.1738-.1496.2277l-3.9094 2.6613 2.5344-1.463c.0817-.0453.1775-.0576.268-.0346s.1688.0797.2189.1584c.0502.0788.0684.1737.0509.2654-.0174.0918-.0692.1734-.1447.2282l-1.8253 1.2775c.0855-.0345.1809-.0355.2671-.0028s.157.0967.1981.1792c.0412.0825.0497.1775.024.266-.0257.0886-.0839.1641-.1629.2117l-7.2519 4.1852c-.0818.0469-.1786.0605-.2703.038-.0916-.0226-.171-.0797-.2216-.1593-.0506-.0797-.0686-.1757-.0502-.2683s.0718-.1744.149-.2286l1.7982-1.257-3.7936 2.1898c-.0556.0323-.1189.0493-.1833.0491z" fill="#b54c52"/><path d="m9.37449 36.9902c-.0681 0-.13485-.0189-.19277-.0547-.05793-.0358-.10474-.087-.13519-.1479-.03045-.061-.04334-.1291-.03723-.197.00612-.0678.031-.1325.07185-.187l.506-.6872-.6776.3909c-.08078.0453-.17573.0584-.26576.0366s-.16848-.0769-.21956-.1541c-.05109-.0773-.07103-.1711-.05582-.2624.01521-.0914.06445-.1737.13781-.2302l1.1154-.8412-1.09047.6292c-.08012.0466-.17491.0611-.2653.0406-.09038-.0204-.16966-.0744-.22188-.151-.05222-.0765-.07351-.17-.05959-.2616.01393-.0917.06203-.1746.13464-.2322l1.50847-1.199-1.52314.88c-.08029.0462-.1751.0603-.26538.0395s-.16933-.075-.22126-.1518c-.05193-.0767-.07288-.1702-.05865-.2618.01423-.0915.06259-.1743.13536-.2317l.73993-.5786-.81546.4708c-.07866.0449-.17111.059-.25957.0398-.08846-.0193-.16666-.0706-.21956-.1441-.05289-.0735-.07674-.1639-.06694-.2539.00979-.09.05254-.1732.12-.2336l1.38673-1.2298-2.18533 1.2621c-.07908.0456-.17231.06-.26146.0405-.08915-.0196-.16782-.0716-.22062-.1461-.05281-.0744-.07595-.1659-.06491-.2565.01103-.0906.05546-.1738.12459-.2334l1.7556-1.5004-2.6114 1.5078c-.07964.0561-.17832.0783-.27431.0616-.09599-.0166-.18145-.0707-.23756-.1504-.05611-.0796-.07828-.1783-.06164-.2743s.07073-.1814.15038-.2375l3.08-2.5946c-.03876-.0202-.07373-.047-.1034-.0792-.05644-.0611-.09038-.1397-.09624-.2227-.00587-.0831.01669-.1656.06397-.2341l1.0714-1.554c-.05539-.0322-.10135-.0785-.1333-.1341-.03194-.0556-.04875-.1185-.04875-.1827 0-.0641.01681-.1271.04875-.1826.03195-.0556.07791-.1019.1333-.1342l.79493-.459c.07209-.0414.15611-.0571.2383-.0445.08218.0126.15763.0527.21399.1139.05636.0611.09026.1395.09616.2225.0059.0829-.0166.1654-.06371.2339l-.82207 1.2026 1.10878-.6402c.0795-.0463.1734-.0611.2632-.0414s.169.0724.2218.1477c.0527.0753.0753.1677.0632.2589-.0122.0911-.0581.1744-.1287.2332l-2.35621 1.9844 2.46991-1.4256c.079-.0448.1719-.0587.2606-.0389s.1669.0718.2195.146c.0525.0742.0756.1652.0648.2555-.0108.0902-.0547.1732-.1233.2329l-1.75411 1.5004 1.88391-1.0875c.0786-.0441.1706-.0577.2585-.0383.088.0195.1657.0706.2183.1437.0527.073.0766.1629.0673.2525-.0094.0896-.0514.1726-.118.2331l-1.3889 1.2313 2.1853-1.2621c.0803-.0462.1751-.0603.2654-.0395s.1693.0751.2212.1518c.052.0767.0729.1703.0587.2618-.0142.0916-.0626.1743-.1354.2317l-.7436.5815 1.2936-.7458c.0801-.0457.1745-.0595.2643-.0387.0899.0208.1686.0747.2204.1509.0519.0762.0732.1692.0596.2604s-.061.1739-.1329.2317l-1.507 1.1975 1.9859-1.1462c.0808-.0453.1757-.0584.2658-.0366.09.0218.1684.0769.2195.1542.0511.0772.071.171.0558.2624-.0152.0913-.0644.1736-.1378.2301l-3.5933 2.7075c.0328.0611.0476.1303.0426.1995-.0049.0692-.0293.1355-.0705.1914l-.8316 1.1271c.041.0299.0753.0682.1005.1122.0486.0842.0618.1843.0366.2782-.0252.094-.0866.1741-.1708.2227l-.79421.4583c-.05473.0321-.11698.049-.1804.0491z" fill="#e4b52b"/><path d="m34.9804 25.2294c-.0681 0-.1349-.019-.1928-.0548s-.1047-.087-.1352-.1479c-.0304-.0609-.0433-.1291-.0372-.1969s.031-.1326.0718-.1871l.5713-.778-.6717.3872c-.0776.0442-.1687.0586-.2562.0404-.0874-.0181-.1653-.0676-.2188-.1391-.0536-.0715-.0792-.1601-.0721-.2491.0071-.0891.0465-.1724.1107-.2345l2.1392-2.0489-2.3093 1.3317c-.0787.0457-.1717.0604-.2607.0413-.089-.019-.1677-.0705-.2209-.1444-.0531-.074-.0769-.165-.0666-.2555.0102-.0904.0538-.1738.1221-.2339l1.056-.9299-1.3794.7964c-.077.0428-.1668.0564-.2531.0384s-.1631-.0665-.2166-.1366c-.0534-.0701-.0798-.157-.0743-.245.0054-.0879.0424-.171.104-.2339l1.5716-1.5752-2.5784 1.485c-.08.0463-.1746.0606-.2648.0401-.0901-.0204-.1692-.0742-.2214-.1505s-.0737-.1695-.0601-.261c.0136-.0914.0613-.1744.1334-.2322l.8067-.6438-1.1558.6666c-.0806.0456-.1755.059-.2656.0375s-.1687-.0763-.2201-.1533c-.0513-.0771-.0716-.1708-.0567-.2622.0148-.0915.0638-.1739.1369-.2307l3.0925-2.3525c-.0231-.059-.0305-.123-.0215-.1857s.0341-.1221.0728-.1722l.6189-.7935c-.0223-.0217-.0416-.0463-.0572-.0733-.0486-.0841-.0619-.1841-.0369-.2781.025-.0939.0863-.174.1704-.2228l.7333-.4216c.0736-.0427.1598-.0585.2437-.0447.084.0138.1605.0564.2165.1205.056.064.088.1455.0904.2306.0025.085-.0247.1683-.0768.2355l-.1753.2259.2002-.1159c.0806-.0456.1755-.059.2656-.0375.0901.0214.1688.0762.2201.1533.0514.0771.0717.1708.0568.2622s-.0638.1738-.137.2307l-.4363.3322.3667-.212c.0801-.0475.1754-.0628.2664-.0427.091.0202.1709.0742.2235.1512.0526.0769.0739.171.0596.2631-.0144.0921-.0632.1753-.1367.2327l-.8066.6417.7634-.44c.0769-.0423.1665-.0556.2523-.0374.0859.0181.1624.0665.2157.1362.0533.0698.0797.1564.0746.244-.0052.0876-.0416.1705-.1026.2336l-1.5716 1.5759 2.1626-1.2467c.0787-.0448.1712-.0589.2596-.0397.0885.0193.1667.0706.2196.1441.0529.0734.0767.1639.0669.2539s-.0525.1732-.12.2335l-1.0538.927 1.7497-1.0098c.0777-.0476.1703-.0645.2597-.0475.0894.0169.1694.0665.2243.1392.0549.0726.0808.163.0726.2537-.0081.0907-.0496.1751-.1166.2368l-2.3628 2.2602c.0638.0074.1245.0314.1761.0697.0516.0382.0922.0893.1178.1482.0257.0589.0354.1235.0282.1873s-.031.1246-.0691.1763l-.8763 1.1946c.0512.035.0928.0824.1207.1378.0279.0553.0413.1169.039.1789-.0024.062-.0204.1223-.0524.1755-.0321.0531-.077.0972-.1308.1282l-.8162.4708c-.0547.0313-.1166.048-.1796.0484z" fill="#e4b52b"/><g fill="#262626"><path d="m38.72 21.7449c3.1534-1.1557.256-2.5432-1.4234-3.1482-.6746-2.0152-2.2535-4.62-3.5361-1.3126-11.9394-14.95343-7.491-24.48749-14.7378-8.76849-3.3975 5.78379-8.316 10.93989-9.72326 17.68289-1.3508.4612-1.44173 2.2828-2.14353 3.3696-4.1954 1.598-4.29587 2.478-.0374 4.073.59986 1.5304 1.87806 4.9492 3.64469 2.42 8.6973 15.7974 32.9626 3.8962 26.0934-12.7505l.4122-.8969zm-3.5361-5.1817c-.0051.0073-.0088.0183-.0169.0191.006-.01.0109-.0206.0147-.0316zm-28.07053 17.0595c-.04693-.0374-.022-.0344 0 0zm2.51607 2.7009c-.0792-.0807-.17747-.1995-.1716-.1907-1.23787-4.7285-4.6024-3.0514-4.45353-5.0387 2.3606-.7744 3.7114-1.892 4.42713-4.3325.01774.0061.03587.011.05427.0146.85289 1.8466 1.47109 3.5684 3.67989 4.0678.352.1621.9533.3073.9702.7818.0425.5236-.5647.5133-.8932.7238-2.0849.5228-2.9444 2.0702-3.61536 3.9739zm23.12566 2.9333c-6.4013 6.5421-18.04 3.8816-21.4287-4.4799l.5866-1.2782c4.2204-1.6727 4.3795-2.4141.0404-4.0707-.5676-1.0018-.8221-2.3196-1.6258-3.1416 2.0122-9.375 10.4038-15.8327 13.0731-24.95096 2.0489 6.2106 6.3177 11.57566 9.8333 17.09836l-.1012.22c-3.6968 1.353-3.7833 2.4662-.0279 3.8134.5368 1.2041 1.4872 4.1704 3.0529 2.2799 1.4292 5.1231.5485 10.6583-3.4049 14.5068zm3.498-16.9869c-.3197.7429-.7055 1.4579-1.0179 2.2-.8844-2.3415-1.4556-2.9194-3.792-3.7825-.3403-.2743.1151-.429.3402-.5324 1.8722-.5046 2.8021-1.774 3.3792-3.5552 1.3398 3.451 1.4667 2.2968 3.8992 4.012-.6952.762-2.2404.6996-2.8109 1.6552z"/><path d="m33.8359 30.8579c-.5683 5.1898-4.881 8.2265-9.4365 9.4336 4.8811.616 9.892-4.6266 10.5028-9.5502.0638-.4554-1.0105-.2809-1.0663.1166z"/></g></svg>