<svg fill="none" height="32" viewBox="0 0 32 32" width="32" xmlns="http://www.w3.org/2000/svg"><path d="m14.8941 29.2619c-4.1455 2.3854-9.72606.8679-12.32-2.8364-1.05212-1.503-1.63394-3.2921-1.726061-5.0861-.16-3.0884 1.420601-6.5503 3.791511-8.543-.52363.4412-.15515 1.7164-.02909 2.2546.28606 1.2218 1.00849 2.1236 1.89576 2.9672-.59636-4.9939 2.12364-10.31269 6.94788-12.59632-1.9248.87757-1.4788 3.65575-.9794 5.20242.4606 1.4352 1.5079 2.5648 2.5455 3.6558 2.2012 2.3078 3.7187 4.6594 3.7721 7.869.0388 2.8461-1.28 5.6049-3.8982 7.1128z" fill="#f65b08"/><path d="m16.4406 15.9238h-.6594c.6788 1.2946 1.0861 2.7006 1.1103 4.3297.0436 2.8461-1.2751 5.6097-3.8933 7.1128-3.2776 1.886-7.4376 1.3284-10.3273-.8146 2.63273 3.6121 8.1212 5.0667 12.223 2.7103 2.6182-1.5079 3.937-4.2667 3.8934-7.1127-.0388-2.4534-.9406-4.4073-2.3467-6.2255z" fill="#000" opacity=".1"/><path d="m12.727 18.2021c-2.0218-.0582-4.4315.7709-5.44968 2.623-.86788 1.5855-.80485 3.6849.70788 4.8582 1.44485 1.12 3.8012.64 5.0812-.543 1.2752-1.1782 1.8133-3.0546 1.6824-4.7516" fill="#a8542e"/><path d="m14.7491 20.3883-.9357-1.0133c.0242 1.5855-.5188 3.2582-1.697 4.3442-1.28 1.1831-3.63638 1.6631-5.08123.5431-.04848-.0388-.09212-.0776-.13576-.1164.19394.5867.54788 1.1249 1.08606 1.5418 1.44485 1.12 3.80123.64 5.08123-.543 1.2751-1.183 1.8133-3.0545 1.6824-4.7564z" fill="#000" opacity=".1"/><path d="m9.9875 26.6732c-.8 0-1.58545-.2133-2.2206-.7079-1.71152-1.3284-1.69697-3.6751-.80485-5.3091 1.1103-2.0266 3.68485-2.8703 5.76965-2.8072.194.0048.3491.1697.3443.3636-.0049.194-.16.354-.3636.3443-1.857-.0534-4.16005.6787-5.12975 2.4387-.75151 1.3722-.7806 3.3261.61576 4.4073 1.2994 1.0085 3.47639.5334 4.62059-.5236 1.1006-1.0182 1.7067-2.7297 1.5709-4.4655-.0145-.1939.1309-.3685.3249-.383.1939-.0194.3685.1309.383.3248.1503 1.9443-.5382 3.8788-1.7988 5.0425-.8242.7757-2.0848 1.2751-3.3115 1.2751z" fill="#6f1e3f"/><path d="m10.4918 30.7556c-3.15637 0-6.35637-1.4788-8.20849-4.1213-1.07152-1.5369-1.692122-3.36-1.789091-5.2751-.164849-3.1758 1.410911-6.7297 3.917571-8.834.15031-.126.37334-.1066.4994.0437s.10667.3733-.04364.4994c-.3103.2618-.04848 1.343.04849 1.7503l.03878.1551c.19879.8485.63031 1.5225 1.12 2.0897-.18424-4.96 2.64728-9.75027 7.14178-11.92239l.0873-.04364c.1794-.08242.3879-.00485.4703.17455.0824.17939.0049.38787-.1697.4703-.0242.0097-.0485.02424-.0679.03394-1.7939.89697-1.0084 3.84485-.7272 4.73694.4169 1.3043 1.3236 2.3225 2.463 3.52 1.8812 1.9734 3.8109 4.48 3.8691 8.1067.0485 3.1564-1.4739 5.9345-4.0727 7.4279-1.3915.8048-2.977 1.1879-4.577 1.1879zm-6.46788-16.8728c-1.82303 1.9879-2.95273 4.897-2.82182 7.4424.09212 1.7843.66909 3.4764 1.66303 4.9019 2.58424 3.6897 8.00967 4.9406 11.84967 2.7297 2.3709-1.3673 3.7624-3.9079 3.714-6.8025-.0534-3.3842-1.8861-5.7551-3.6752-7.6266-.9454-.994-2.1285-2.2303-2.6279-3.7964-.2278-.7079-.7127-2.5309-.2569-3.97575-3.52488 2.49212-5.53701 6.85575-5.01822 11.22425.0194.1503-.05818.2909-.19394.3588-.13575.0679-.29575.0436-.40242-.0582-.80485-.7612-1.66788-1.7309-1.99758-3.1418l-.03394-.1455c-.06788-.3151-.16484-.7175-.19878-1.1103z" fill="#6f1e3f"/><path d="m12.6484 17.9453 16.3407-16.34069 2.1665 2.16642-16.3407 16.34067z" fill="#d8d7a7"/><path d="m14.821 20.4711c-.0921 0-.1794-.034-.2521-.1018l-2.1673-2.1673c-.0679-.0679-.1018-.1552-.1018-.2521 0-.097.0388-.1843.1018-.2522l16.3394-16.3442c.1406-.1406.3637-.1406.5043 0l2.1672 2.16727c.0679.06788.1018.15516.1018.25213 0 .09212-.0387.18424-.1018.25212l-16.3394 16.33938c-.0727.0727-.16.1067-.2521.1067zm-1.6679-2.5261 1.6679 1.6679 15.84-15.84-1.6679-1.66788z" fill="#6f1e3f"/><path d="m10.4867 19.8168c.0243.0485-.2036.1891-.51875.4703-.31516.2812-.69819.7224-.9794 1.2945-.27636.5721-.39273 1.1491-.42182 1.5661-.02909.4218 0 .6885-.05333.6982-.03879.0097-.15515-.2473-.18424-.7031-.03394-.4509.05333-1.0909.35394-1.7163.30545-.6255.76121-1.0861 1.13454-1.3334.37816-.2424.65456-.3103.66906-.2763z" fill="#dddcb2"/><g fill="#813b57"><path d="m2.82103 18.2895c.10182.0291-.57212 1.5321-.38303 3.4764.1503 1.9491 1.07636 3.3115.97939 3.36-.03394.0242-.30545-.2812-.61091-.8631-.30545-.5818-.6109-1.4594-.70303-2.463-.08727-1.0085.06303-1.9248.26667-2.5503.19879-.6303.41697-.9745.45091-.96z"/><path d="m12.354 13.4121c-.0243.0339-.2522-.0825-.5431-.3685-.2909-.2812-.6351-.737-.8727-1.3188-.2327-.577-.3055-1.1491-.2909-1.5515.0145-.4073.0921-.64487.1357-.64002.1019.00484.0194.98422.4703 2.06542.4316 1.0861 1.1685 1.7358 1.1007 1.8134z"/><path d="m28.4502 5.26627c-.063-.07273.1649-.34909.32-.73697.1649-.38303.2085-.73212.3055-.74182.0872-.01455.2085.40242.0048.87273-.1939.47515-.577.68363-.6303.60606z"/><path d="m14.5165 27.3613c-.0388-.0921.5478-.3878 1.1248-.9309.5818-.5333.9212-1.1006 1.0085-1.0569.0824.0291-.1406.7175-.7758 1.3042-.6351.5915-1.3333.7709-1.3575.6836z"/></g></svg>