<svg fill="none" height="24" viewBox="0 0 24 24" width="24" xmlns="http://www.w3.org/2000/svg" xmlns:xlink="http://www.w3.org/1999/xlink"><clipPath id="a"><path d="m0 0h24v24h-24z"/></clipPath><g clip-path="url(#a)"><g clip-rule="evenodd" fill-rule="evenodd"><path d="m9.7434 23.9548c-.09087 0-.17093-.0602-.19588-.1477-.02495-.0873.01117-.1808.08844-.2286l.30351-.1883-.93064.5361c-.09496.051-.2132.019-.26962-.0728-.05623-.092-.03128-.2119.05735-.2734l5.10774-3.3147-4.52455 2.6114c-.09478.0503-.21246.0185-.26869-.0729-.05623-.0915-.03166-.211.05605-.2728l4.96899-3.2578-4.19626 2.4215c-.09533.0516-.2145.0194-.27073-.0733-.05624-.0928-.0298-.2134.06014-.2741l2.30795-1.4701-1.7004.9811c-.0947.0523-.2141.0212-.2711-.0709-.0571-.092-.0318-.2129.0572-.2743l4.0514-2.6891-3.3021 1.9063c-.0957.0538-.217.0218-.2736-.0722-.0568-.0943-.0285-.2162.0637-.2758l.4409-.2784c-.0776.0082-.1532-.0285-.1953-.0942-.0581-.0931-.032-.2154.059-.2767l3.2737-2.2022-2.5471 1.4701c-.0953.0551-.2171.0245-.275-.0689-.0579-.0937-.0309-.2164.0611-.2769l1.8421-1.2204-1.2202.7042c-.0944.0533-.214.0233-.2719-.0683s-.0339-.2127.0546-.275l1.7897-1.2342-1.1308.6538c-.0927.0525-.2102.0244-.2694-.0643-.059-.0888-.0397-.208.0445-.2733l1.7568-1.3371-1.0168.5861c-.09.0555-.2073.0332-.2704-.0517-.0629-.0848-.0505-.2037.0287-.2737l1.1751-1.1169-.3432.1979c-.081.0466-.1834.0319-.248-.0355-.0646-.0672-.0752-.17-.0253-.2492l.4849-.7617c-.0062-.0076-.0118-.0158-.0164-.0244-.0561-.0974-.0227-.2218.0745-.2778l.2551-.1473c.081-.0466.1832-.0318.2478.0356.0648.0674.0752.17.0255.2491l-.2849.4441 1.1085-.6398c.0892-.0516.2029-.0283.2646.0542.0618.0825.0521.1981-.0226.2692l-1.1738 1.121 2.3035-1.3297c.0928-.0525.2102-.0244.2693.0642.0592.0889.0398.208-.0443.2734l-1.7561 1.3367 2.731-1.5767c.094-.0512.2119-.0209.2693.0698.0573.0905.0346.21-.052.2732l-1.7898 1.2348 2.5903-1.4952c.0948-.0523.2141-.0212.2711.071.0572.0922.0318.2128-.0572.2744l-1.8402 1.2202 1.9313-1.1149c.095-.055.2165-.0248.2746.0683.058.0931.0317.2156-.0594.2767l-3.2741 2.2029 3.3425-1.9296c.0955-.0525.2156-.0203.272.073s.0293.2145-.0618.2749l-.0814.0512.0429-.0244c.0949-.054.2156-.0233.2733.0694.0575.0929.0315.2147-.059.276l-4.0518 2.6889 4.1346-2.3873c.0959-.0545.2179-.0231.2751.0713.0571.0943.0286.217-.0643.2765l-2.3087 1.4705 2.3184-1.3382c.0953-.0542.2164-.0231.2737.0702.0576.0932.0307.2152-.0605.2759l-4.9653 3.2543 5.0634-2.9236c.0954-.0555.2177-.0246.2756.0695.0577.0942.0298.2171-.0629.277l-5.1081 3.3144 5.1991-3.0019c.0965-.0578.2214-.0265.2791.07.0578.0964.0265.2212-.07.2791l-.3063.1899.2726-.1571c.0956-.0533.2162-.0216.273.072.057.0935.0296.2153-.0618.2754l-2.2162 1.4086 2.2223-1.2825c.0948-.0531.2145-.0224.2721.07.0573.0922.0322.2134-.0574.275l-3.8765 2.5914 3.9616-2.2868c.0944-.054.2147-.024.2728.0682.0581.092.0335.2136-.056.2756l-3.6092 2.4841 3.7077-2.1404c.0949-.0533.215-.022.2722.0706.0571.0927.0313.2139-.0589.2752l-1.3577.8949 1.3546-.7819c.0933-.0523.2111-.0235.2696.0661s.0378.2091-.0475.2735l-2.8288 2.0835 2.9418-1.6986c.0948-.0532.2147-.0223.2721.0698.0575.0924.0322.2134-.0574.2751l-.2253.1513.1879-.1085c.0924-.0529.2099-.0259.2694.0622.0598.0879.0417.207-.0415.2733l-1.7561 1.383 1.8306-1.0577c.0896-.0504.2028-.0262.2638.0568.0609.0829.0503.1983-.0247.2687l-1.3386 1.2362 1.4358-.8286c.0881-.0503.1998-.0277.2618.0525.0618.0803.0553.1938-.0157.2665l-.6552.6625.6813-.3933c.0737-.0428.1665-.035.232.0194.0656.0545.0901.1443.0616.2245l-.22.638.2119-.1222c.0972-.0551.2208-.0216.2767.0752.0558.0969.023.2207-.0734.2771l-.6834.3942c-.0733.0421-.1651.0343-.2305-.0195-.0652-.0539-.0903-.1425-.0631-.2226l.2201-.6381-1.5271.8778c-.088.0508-.2001.0287-.2623-.0518-.0624-.0806-.0555-.1946.0158-.2672l.6571-.6625-1.7004.9815c-.0896.0514-.2035.0274-.2648-.0559-.0612-.0832-.0504-.1992.0252-.2696l1.3391-1.2366-2.7062 1.5621c-.0922.0517-.2088.0244-.268-.0631-.0594-.0877-.0417-.2062.0406-.2725l1.7557-1.3831-2.9755 1.7187c-.0948.0523-.2138.0216-.2711-.0702-.0574-.0918-.0328-.2123.0559-.2743l.2245-.1506-.8567.4951c-.0933.0534-.2123.0249-.2711-.065-.059-.0901-.0376-.2104.0486-.2747l2.8258-2.083-4.1966 2.4227c-.0952.0551-.217.0246-.2749-.0689-.0579-.0937-.0309-.2164.0609-.2769l1.3558-.8925-2.1449 1.2383c-.0942.0519-.2125.0214-.27-.0697-.0575-.0908-.0341-.2109.0533-.2737l3.6097-2.4845-4.8988 2.8279c-.0948.0531-.2147.0223-.2721-.0698-.0575-.0924-.0322-.2136.0574-.2752l3.8776-2.5907-5.0853 2.9357c-.0955.0534-.2162.0216-.273-.0719-.057-.0937-.0296-.2152.0618-.2756l2.2169-1.4093-3.04343 1.7568c-.03073.0182-.06592.0281-.10167.0285z" fill="#328b32"/><path d="m3.20678 23.955c-.09105.0004-.17112-.0598-.19626-.1473-.02495-.0875.01099-.181.08845-.2288l1.946-1.2122-2.70384 1.5591c-.09515.0515-.21414.0197-.27056-.0727-.05642-.0923-.03072-.2128.05866-.2739l5.92365-3.8175-7.213103 4.1641c-.095336.0517-.214505.0193-.270738-.0734-.05642-.0927-.029979-.2134.059957-.2741l6.165344-3.9212-6.43422 3.7162c-.095895.0521-.215623.0192-.2714834-.0745-.0560469-.0936-.0279304-.2147.0633084-.2744l2.013035-1.2383-1.543619.8908c-.095149.051-.213574.0188-.269807-.0736-.056047-.0921-.030351-.2122.058654-.2733l6.635882-4.2581-5.99572 3.4617c-.095707.0561-.218786.0252-.276509-.0698-.057723-.0948-.028675-.2182.064985-.2776l5.639134-3.6027-5.03621 2.9072c-.09571.0518-.21506.0192-.27111-.0741-.05605-.0931-.02886-.214.06163-.2741l2.56252-1.5978-2.0715 1.1947c-.09571.0517-.21507.0192-.2713-.0741-.05605-.0931-.02886-.214.06182-.2741l2.54017-1.5896-2.04599 1.1812c-.09552.0509-.21413.0183-.26999-.0743-.05586-.0927-.02961-.2128.06014-.2735l3.12019-1.9717-2.60329 1.5051c-.09552.0504-.21358.0173-.26925-.0752-.05549-.0926-.02905-.2123.06014-.273l1.35779-.8502-.89489.5158c-.09533.0504-.21357.0175-.26925-.0751-.05549-.0925-.02904-.2124.06015-.2731l.8137-.5072-.36012.2079c-.06181.038-.13946.0403-.20333.0056-.06387-.0346-.10446-.1005-.10651-.1733-.00204-.0726.03482-.1408.09683-.179l4.07932-2.6586-3.49818 2.0181c-.09571.056-.21879.0251-.27651-.0698-.05773-.0948-.02886-.2183.06498-.2777l2.51466-1.6132-1.99888 1.1531c-.09515.0511-.21357.0188-.26962-.0735-.05623-.0922-.03054-.2123.05847-.2734l1.81919-1.1641-1.32855.7668c-.09552.0544-.21692.0231-.27409-.0708-.05735-.0938-.02979-.2162.06219-.2763l1.78568-1.149-1.29224.7461c-.09534.0551-.21711.0245-.27502-.0691-.05791-.0935-.03091-.2162.06107-.2767l2.86473-1.8985-2.3091 1.333c-.09534.0532-.21562.0218-.2726-.0713-.05716-.0931-.03054-.2145.06014-.2752l.78317-.5072-.31896.1826c-.09534.054-.21618.0231-.27372-.0702-.05735-.0933-.03073-.2154.06051-.2759l.37837-.2482c-.09385.0173-.18714-.0332-.22419-.1211-.03705-.088-.00801-.1899.07001-.245l1.4237-1.02711-.87943.50761c-.09273.0525-.21041.0246-.26943-.0643-.05903-.0886-.03966-.2079.0445-.2733l.6748-.51541-.16517.09533c-.09068.05251-.20631.02775-.26738-.05735-.06108-.08528-.04748-.20296.03147-.27185l.39046-.34243c-.07318-.00279-.13909-.04469-.17279-.10967-.03352-.06499-.0298-.14301.01005-.20445l.27018-.4184c-.00968-.0108-.01806-.02253-.02532-.03501-.05624-.09719-.02309-.22158.07411-.27781l.2847-.16516c.081-.04581.18266-.03072.2469.0365.06424.06703.07486.16925.0257.2482l-.08137.12197.83102-.47948c.09068-.05269.20631-.02793.26739.05735.06107.0851.04748.20278-.03147.27167l-.27372.23965 1.11237-.64203c.09292-.05232.21041-.02439.26944.06424.05921.08882.03966.20799-.0445.27353l-.67555.51615 1.61605-.93268c.09366-.05382.21321-.02495.27186.06573.05884.09068.03649.21152-.05102.27502l-1.4237 1.02709 2.5245-1.45741c.0952-.05418.2162-.02309.2737.0702.0574.09329.0306.21525-.0607.27595l-.1923.12606.9303-.53682c.0955-.05437.2169-.02309.2742.07076.0572.09366.0296.21599-.0623.27614l-.7843.51503 1.1716-.67647c.0949-.054.2156-.02328.2733.06945.0577.09292.0317.21469-.059.27595l-2.86642 1.89908 2.87222-1.65794c.0953-.05251.215-.02049.2716.07243.0566.09273.0302.21376-.0601.27446l-1.7837 1.14831 1.7531-1.01238c.0956-.05344.2162-.0216.273.07187.0568.09348.0296.21525-.0618.27558l-1.8183 1.16325 1.7865-1.03272c.0958-.05847.2212-.0283.2796.06778.0585.09589.0283.22102-.0677.27949l-2.519 1.61735 2.502-1.444c.0953-.05549.2177-.02476.2756.06946.0577.09403.0298.21714-.0629.27704l-4.07695 2.6575 4.10255-2.3683c.0956-.0503.2136-.0173.2693.0752.0555.0926.029.2125-.0601.273l-.8108.5065.7579-.4376c.0961-.0555.2188-.0237.2757.0713.0572.0952.0278.2184-.0663.2773l-1.3577.8485 1.3129-.7582c.0959-.0538.2169-.0216.2737.0724.0566.094.0285.216-.0637.2758l-3.1228 1.9732 3.1098-1.7956c.0962-.0579.2212-.0268.2791.0695.0581.0962.027.2212-.0693.2791l-2.5366 1.5864 2.5094-1.4484c.0956-.0518.2151-.0192.2712.0739.056.0933.0288.2141-.0617.2742l-2.5627 1.5995 2.5363-1.4645c.0955-.0534.2162-.0216.2729.0719.0568.0937.0295.2155-.062.2756l-5.63891 3.6047 5.68211-3.2802c.0952-.051.2136-.0186.2699.0736.056.0924.0303.2123-.0587.2735l-6.63476 4.2555 6.69806-3.8671c.0966-.0575.2214-.0258.2789.0706.0576.0965.0259.2212-.0705.2788l-2.0192 1.2434 1.9793-1.1425c.0955-.0535.2162-.0216.273.0719.0568.0934.0296.2152-.0618.2755l-6.16332 3.9187 6.20872-3.5852c.0955-.0543.2169-.0231.2743.0708.0571.0936.0296.216-.0624.2761l-5.92291 3.8164 5.97951-3.4518c.0624-.0374.14-.0387.2035-.0035.0635.0353.1036.1018.1047.1744.0013.0728-.0363.1406-.0987.178l-1.9468 1.2126 1.9094-1.1023c.0957-.059.221-.0294.28.0661.0592.0955.0296.221-.0661.28l-5.0885 3.3509 5.1447-2.9693c.0952-.0565.2181-.0265.2765.0674.0585.094.0311.2176-.0618.278l-4.3683 2.9083 4.4175-2.5501c.0953-.0523.2151-.0205.2717.0725.0567.0929.0301.2139-.0602.2746l-1.627 1.0429 1.5905-.9181c.0946-.0561.2168-.0267.2756.0664.0588.0929.033.2158-.0585.2773l-3.4199 2.3556 3.4752-2.0065c.0956-.0571.2192-.027.2777.0676.0584.0948.0299.2188-.0641.2786l-1.0209.671.9855-.5694c.0942-.0527.2132-.0225.271.0686.0579.091.0344.2115-.0533.2742l-1.8838 1.3062 1.8866-1.0902c.0923-.0521.2093-.0246.2687.0633.0592.0879.0411.2065-.0417.2728l-2.2682 1.7792 2.3402-1.3513c.0939-.0544.214-.0255.2728.0656.059.0912.036.2124-.0523.2757l-.5601.4022.5154-.2977c.0924-.0544.2112-.0276.2713.0612.0603.0889.0412.209-.0436.2749l-.7768.6141.7521-.4341c.0862-.0499.196-.0298.2592.0473.0633.0773.061.1888-.0051.2635l-.7908.8949.8238-.475c.0737-.0428.1665-.035.232.0195.0657.0544.0903.1442.0616.2246l-.2033.5808.1903-.1099c.0631-.04.143-.0423.2084-.006.0651.0365.1052.1058.104.1805-.0009.0746-.0428.1428-.1089.1774l-.6655.384c-.0739.0428-.1664.035-.232-.0196-.0657-.0543-.0903-.1441-.0618-.2245l.2035-.5808-1.4278.8225c-.0862.0493-.1955.0292-.2584-.0475-.063-.0769-.0613-.1881.0043-.2629l.7902-.8949-2.0862 1.2053c-.0924.054-.2108.0271-.2709-.0613-.0602-.0884-.0416-.2084.0426-.2743l.7781-.6143-1.6473.9499c-.0938.0543-.2139.0255-.2728-.0656-.059-.0912-.0359-.2124.0523-.2758l.5601-.4021-1.2877.7435c-.0924.0521-.2093.0245-.2687-.0634-.0592-.0877-.0412-.2064.0417-.2726l2.2681-1.7776-3.6609 2.1152c-.0942.0525-.2132.0226-.2709-.0687-.0579-.091-.0345-.2113.0532-.2743l1.8835-1.3052-2.85564 1.6466c-.09496.0515-.21357.0201-.27036-.0719-.05661-.092-.03147-.2123.05716-.2739l1.02594-.6711-1.76665 1.0169c-.09422.0519-.21246.0214-.26999-.0697-.05754-.0908-.03408-.2109.05325-.2737l3.42019-2.3555-4.67594 2.6989c-.09515.051-.21357.0186-.26962-.0736-.05623-.0923-.03035-.2123.05865-.2733l1.62294-1.0418-2.40722 1.3887c-.09478.0517-.2132.0204-.27018-.0712s-.0324-.2119.05586-.2739l4.36771-2.909-5.63649 3.2541c-.09496.053-.21506.0219-.27223-.0706-.05735-.0927-.03147-.214.05865-.2752l5.08873-3.3509-6.4022 3.6967c-.03109.0188-.06647.0288-.10278.0292z" fill="#35b911"/><g fill="#e4e8eb"><path d="m15.0704 14.1479c-.0866-.0002-.1637-.0551-.1918-.137-.0283-.0819-.0016-.1726.0665-.2263l.9938-.7772-1.3372.7728c-.0927.0525-.2102.0246-.2694-.0643-.059-.0886-.0397-.2079.0445-.2733l1.1146-.8543-1.0984.6346c-.0918.053-.2091.0264-.269-.0611-.0602-.0875-.0429-.2065.0396-.2732l1.477-1.1902-1.3198.7618c-.0918.0525-.2084.0259-.2684-.0611-.0599-.0868-.0433-.2052.038-.2724l1.3517-1.1031-.6281.362c-.0916.0523-.2082.0259-.2681-.0611-.06-.0869-.0436-.2053.038-.2726l.6029-.488c-.0905.0477-.2022.0209-.2611-.0626-.059-.0834-.0469-.1977.0283-.2668l.6477-.60253c-.0831.03463-.1788.01042-.2358-.05903-.0568-.06964-.0612-.16833-.0108-.24281l.6508-.95782c-.0661-.03408-.1084-.10148-.1102-.17578-.0019-.07429.037-.14375.1013-.18099l.4532-.26161c.0821-.04748.1862-.03203.2508.03743.0646.06964.0726.17465.0192.25304l-.5288.78019.7591-.43813c.0898-.05288.2048-.02942.2668.05437.0618.08379.0505.20091-.0264.27111l-.6428.59752.6538-.37743c.0916-.05158.2074-.02476.267.06182s.0436.20445-.0373.27167l-.6016.48804.5931-.34243c.0918-.05232.2083-.02588.2683.06107.06.08696.0434.20539-.038.27242l-1.3518 1.10358 1.4092-.8135c.0918-.05193.2081-.0249.2677.062.0598.0872.0429.2054-.0389.2724l-1.479 1.1914 1.5408-.8892c.0929-.0525.2104-.0245.2695.0643.0592.0886.0398.208-.0444.2733l-1.1146.8541 1.1357-.6552c.0923-.0521.2093-.0246.2687.0633.0592.0879.0411.2065-.0417.2728l-.9938.7768 1.0113-.5833c.0875-.0499.1983-.0283.2607.0508.0623.0791.0573.192-.0118.2653l-.5487.5728.5614-.3255c.0868-.0499.197-.0292.2597.049.0628.078.0594.1901-.008.2642l-.3754.4121.1354-.0777c.0967-.0506.2158-.016.2704.0784.0545.0944.0249.2149-.0671.2734l-1.2685.7323c-.0868.0499-.197.0292-.2598-.0488-.0629-.0778-.0598-.1899.0074-.264l.376-.413-.6508.3759c-.0877.0512-.1996.03-.2625-.0497-.0628-.0797-.0572-.1937.013-.2668l.5484-.5756-2.2998 1.3282c-.0307.0186-.0657.0289-.1017.0292z"/><path d="m7.51478 9.29263c-.08863 0-.16684-.05716-.19384-.1417-.02681-.08435.0041-.17633.07635-.22754l.59789-.42342-.92505.53365c-.09292.05214-.21041.02365-.26906-.06517-.05884-.089-.03911-.20817.04543-.27334l1.77916-1.33656-2.11526 1.22037c-.09459.05493-.2158.02495-.27409-.06778-.05846-.09273-.03277-.21488.05773-.27651l.4223-.28787-.57648.33274c-.09384.05344-.21339.02421-.27185-.06666-.05847-.09105-.03557-.21189.05232-.27502l1.58868-1.13322-1.18928.6882c-.09273.05251-.21041.02439-.26943-.06424-.05903-.08882-.03966-.20799.0445-.27334l2.04562-1.55684-1.41719.81817c-.09422.05251-.2132.02253-.27092-.06871-.05791-.09105-.03445-.21152.05325-.27427l.33759-.2348c-.08472-.00261-.15883-.05773-.18602-.13798-.02718-.08044-.00167-.16907.06405-.2227l1.61643-1.32315-.97626.56363c-.09124.054-.20873.02886-.26981-.05791-.06107-.08677-.04525-.20575.0365-.27353l1.16618-.98594-.56065.3253c-.09068.05139-.20557.02588-.2659-.05922-.06033-.0849-.04674-.20184.03165-.27055l.6802-.58579-.13109.0756c-.08677.0499-.197.02942-.25975-.0486-.06275-.07783-.05958-.18993.00764-.26422l.8582-.94684-.1713.09831c-.081.04618-.18285.03129-.24728-.03593-.06461-.06722-.07504-.16982-.02551-.24877l.50033-.789497c-.04134-.017131-.0756-.047482-.09776-.086212-.05623-.097197-.02309-.22158.07411-.277813l.4426-.2599389c.081-.0465505.18322-.03184055.24784.0355647.06461.0674052.07522.1701892.02551.2491382l-.40686.644819.5776-.333674c.08677-.049903.19701-.029234.25976.048598.06293.078019.05958.190113-.00745.264221l-.85877.946094.88633-.51168c.09105-.05326.20763-.02812.26853.05772.061.08584.0463.20426-.0337.2726l-.68153.58579.65093-.37557c.0913-.054.2088-.02867.2698.0581.0611.08658.0453.20575-.0363.27353l-1.16504.98631 1.17154-.67722c.0917-.05213.2078-.02569.2678.06108.06.08658.0438.20463-.0372.27204l-1.61609 1.32278 1.65029-.95261c.0942-.0527.213-.02253.2709.06852.0578.09124.0345.21153-.0534.27446l-.0529.03706c.0942-.04171.2047-.0067.2572.08174.0527.08845.0311.20222-.0505.26515l-2.04672 1.5587 2.08302-1.20231c.0939-.05362.2134-.02439.2719.06666.0584.09087.0355.21172-.0523.27503l-1.59077 1.13471 1.58267-.91351c.0946-.05493.2159-.02513.2743.0676.0583.09272.0326.21506-.0579.27651l-.4234.2888.3661-.21116c.0929-.05213.2104-.02365.269.06536.0589.08882.0391.20799-.0454.27316l-1.77749 1.33488 1.79389-1.03547c.094-.05437.2141-.02514.2728.06648.0586.09142.035.21264-.0537.27558l-.602.42621.552-.31803c.0878-.05009.199-.02812.2612.05139.062.0797.0564.19291-.0134.2659l-1.0299 1.06414 1.0697-.61744c.0907-.05084.2052-.02477.2652.06014.0601.08491.0463.20147-.0317.26999l-.5696.48823c.0695.03128.1157.09887.1194.17503.0039.07597-.035.14784-.1009.1862l-1.3831.79806c-.0907.05065-.2052.02477-.2652-.06014-.0601-.08491-.0464-.20147.0317-.27018l.2201-.18788-.41174.23704c-.0877.05083-.19961.02886-.26199-.05102-.06237-.08007-.05623-.19384.01434-.26665l1.03049-1.06414-3.07815 1.77637c-.03091.01769-.06592.027-.10167.02681z"/></g></g><g fill="#262626"><path d="m19.3768 12.8811c-.0021-.0062-.0047-.0121-.0081-.0175l-.0597-.1306c-.5152-1.1209-1.0297-2.2416-1.5435-3.36277-.0962-.20985-.2126-.54148-.366-.8543-.0713-.18509-.1751-.35621-.3063-.50517-.1058-.17521-.2851-.29308-.4881-.32082-.2027-.02775-.4072.03798-.556.17856-.321.23555-.4573.76306-.6122 1.10065l-1.034 2.25095c-.0711.1555-.1806.3397-.2867.5289-.5272-1.4059-1.0543-2.81188-1.5816-4.21808l-.122-.32232-.0182-.04915c-.4248-1.13267-.8495-2.26534-1.2744-3.39764-.3361-.89489-.6184-2.6558-1.26563-3.373426-.39251-.4379474-.71986-.4278924-.98948-.211898-.79769.416907-1.09841 2.176144-1.35909 2.942184-.6262 1.67023-1.25202 3.34028-1.87766 5.01014-1.722 4.59209-3.44493 9.18299-5.168792 13.77269-.3928871 1.0473-.913136 1.8203.431244 1.983 2.120468.2577 4.433668 0 6.563068 0h15.74674c.041-.0039.0814-.0132.1199-.0277.0831-.0034.1646-.0213.2414-.0529 1.3138-.7026-1.0687-4.1339-1.5083-5.0915-.8919-1.9436-1.7842-3.8874-2.6766-5.8313zm-4.4972.9025c-.0127-.0184-.0233-.0382-.0317-.059.0406-.1375-.1953-.5491-.2767-.7666v-.0021c-.0433-.116-.0865-.2314-.1301-.3471-.016-.0653-.0175-.1335-.0045-.1996.0041-.0294.0144-.0603.0203-.0903l.7214-1.5702c.0735-.135.1432-.2659.1988-.3875.0457-.0994.0915-.2197.1384-.3471l.0406-.09029c.0961-.20948.2173-.62267.3636-.97254.0777-.17894.1777-.34745.2978-.50107.0102-.00987.0199-.02495.0305-.03296.0542-.04227.1061-.08733.1553-.13518.0369-.01713.0784-.02086.1177-.01043.0558.08603.1193.16703.1895.24188.0306.03296.0574.07522.0866.11116.0814.18416.148.39978.2164.54911l1.1462 2.49792.4035.879.1868.4067c-.3283.3255-.5381.6249-1.0308.537-.4527-.0813-.6674-.4649-1.1418-.5117-.6711-.0659-1.1312.8033-1.6978.8009zm-8.44763-6.34913c.09832-.26255.19663-.52491.29495-.78708.44819-1.19505.89563-2.39028 1.34233-3.58533.04711-.12568.37408-1.23042.65078-1.97188.05921-.105948.12587-.207615.19961-.303881.19979-.25547 0-.447444.31207-.229401.09999.14412.18844.295875.26441.453962.08137.24597.14151.52472.18173.6329.75435 2.00931 1.50825 4.01899 2.26215 6.02867-.299.2929-.7656.90942-1.1187 1.04125-.6666.24895-.7675-.34411-1.29464-.49214-.79695-.22418-1.05763.5439-1.67601.67275-.39605.08137-1.32427-.48152-1.49521-.84759-.11712-.25752-.00558-.28284.07653-.61223zm16.85743 16.20593h-19.49982c-.80049 0-3.120755.4715-3.210504-.607-.040779-.5072.573134-1.5278.743504-1.9818l1.35574-3.6123 2.76604-7.3686c.20035-.53401.4007-1.06841.60124-1.603.42864.38879.89024.78745 1.47286.7463.63011-.04431.99861-.66586 1.56559-.62843.65655.04357.85411.71148 1.64655.45917.5599-.25267 1.0513-.63513 1.4338-1.11572.7819 2.22458 1.4487 4.20148 1.6308 4.68668l.0167.0457c.1145.4785.2877.9412.5158 1.3773.0056.0147.0162.027.03.0346.0082.0119.0177.0229.0285.0324-.0732.0319.0167.1222.0916.3222l.3197.8515.4657 1.2406c.059.1574.6403-.0212.5889-.1579-.2782-.742-.5565-1.484-.8355-2.2262.1875-.0263.3665-.0948.5236-.2002.1684-.1057.3255-.3588.5141-.4189.5121-.1652.7981.3104 1.1741.4824.6759.31 1.241-.1573 1.719-.6202.8159 1.681 4.7863 9.3116 4.342 10.2614z"/><path clip-rule="evenodd" d="m16.6134 18.3958c-.0927-.2473-.6789-.0812-.5895.1579l.9148 2.4405c.0927.2473.6785.0814.5895-.1577z" fill-rule="evenodd"/><path clip-rule="evenodd" d="m6.22251 11.1261-2.28973 6.1014c-.116.3088.47352.2896.56047.057l2.29011-6.1015c.116-.3089-.47352-.2897-.56085-.0569z" fill-rule="evenodd"/><path clip-rule="evenodd" d="m3.32263 18.8537c-.05065.1356-.10167.2713-.15288.4069-.11507.3074.47389.2847.5601.0549.05102-.1357.10204-.2713.15287-.4069.11526-.307-.47388-.2847-.56009-.0549z" fill-rule="evenodd"/></g></g></svg>