<svg fill="none" height="40" viewBox="0 0 40 40" width="40" xmlns="http://www.w3.org/2000/svg" xmlns:xlink="http://www.w3.org/1999/xlink"><linearGradient id="a"><stop offset="0" stop-color="#fffaf8"/><stop offset="1" stop-color="#ffdfcf"/></linearGradient><linearGradient id="b" gradientUnits="userSpaceOnUse" x1="19.6975" x2="23.484" xlink:href="#a" y1="24.3623" y2="26.6275"/><linearGradient id="c"><stop offset="0" stop-color="#ffa78f" stop-opacity="0"/><stop offset=".8981" stop-color="#ffa78f" stop-opacity=".898"/><stop offset="1" stop-color="#ffa78f"/></linearGradient><linearGradient id="d" gradientUnits="userSpaceOnUse" x1="23.4339" x2="26.481" xlink:href="#c" y1="24.8046" y2="27.8516"/><linearGradient id="e" gradientUnits="userSpaceOnUse" x1="17.1498" x2="20.1968" xlink:href="#c" y1="24.8046" y2="27.8516"/><linearGradient id="f" gradientUnits="userSpaceOnUse" x1="22.7708" x2="25.0561" xlink:href="#c" y1="24.7498" y2="27.0351"/><linearGradient id="g" gradientUnits="userSpaceOnUse" x1="19.8309" x2="22.1161" xlink:href="#c" y1="23.0447" y2="25.33"/><linearGradient id="h" gradientUnits="userSpaceOnUse" x1="22.8948" x2="25.1801" xlink:href="#c" y1="22.5183" y2="24.8036"/><linearGradient id="i" gradientUnits="userSpaceOnUse" x1="23.8703" x2="25.6224" xlink:href="#c" y1="24.0124" y2="25.7645"/><linearGradient id="j" gradientUnits="userSpaceOnUse" x1="21.4362" x2="23.1883" xlink:href="#c" y1="24.5422" y2="26.2942"/><linearGradient id="k" gradientUnits="userSpaceOnUse" x1="19.3127" x2="21.0648" xlink:href="#c" y1="24.2961" y2="26.0482"/><linearGradient id="l" gradientUnits="userSpaceOnUse" x1="22.4799" x2="22.4799" xlink:href="#c" y1="25.8148" y2="27.54"/><linearGradient id="m" gradientUnits="userSpaceOnUse" x1="24.2181" x2="26.2193" xlink:href="#c" y1="25.0424" y2="23.8417"/><linearGradient id="n" gradientUnits="userSpaceOnUse" x1="23.3686" x2="23.5957" xlink:href="#a" y1="20.0449" y2="20.272"/><linearGradient id="o" gradientUnits="userSpaceOnUse" x1="23.4651" x2="23.4651" xlink:href="#c" y1="20.1444" y2="20.4382"/><linearGradient id="p" gradientUnits="userSpaceOnUse" x1="23.4728" x2="23.6915" xlink:href="#c" y1="20.139" y2="20.3577"/><linearGradient id="q" gradientUnits="userSpaceOnUse" x1="23.9331" x2="24.1601" xlink:href="#a" y1="20.9043" y2="21.1313"/><linearGradient id="r" gradientUnits="userSpaceOnUse" x1="24.0296" x2="24.0296" xlink:href="#c" y1="21.0038" y2="21.2976"/><linearGradient id="s" gradientUnits="userSpaceOnUse" x1="24.0362" x2="24.2549" xlink:href="#c" y1="20.9987" y2="21.2174"/><linearGradient id="t" gradientUnits="userSpaceOnUse" x1="22.5478" x2="22.7749" xlink:href="#a" y1="20.9682" y2="21.1953"/><linearGradient id="u" gradientUnits="userSpaceOnUse" x1="22.6443" x2="22.6443" xlink:href="#c" y1="21.0677" y2="21.3616"/><linearGradient id="v" gradientUnits="userSpaceOnUse" x1="22.6516" x2="22.8703" xlink:href="#c" y1="21.0627" y2="21.2813"/><linearGradient id="w" gradientUnits="userSpaceOnUse" x1="23.5097" x2="23.7368" xlink:href="#a" y1="21.8916" y2="22.1186"/><linearGradient id="x" gradientUnits="userSpaceOnUse" x1="23.6062" x2="23.6062" xlink:href="#c" y1="21.9911" y2="22.2849"/><linearGradient id="y" gradientUnits="userSpaceOnUse" x1="23.6134" x2="23.8321" xlink:href="#c" y1="21.9859" y2="22.2046"/><linearGradient id="z" gradientUnits="userSpaceOnUse" x1="21.5146" x2="21.7417" xlink:href="#a" y1="20.3877" y2="20.6148"/><linearGradient id="A" gradientUnits="userSpaceOnUse" x1="21.6111" x2="21.6111" xlink:href="#c" y1="20.4877" y2="20.7815"/><linearGradient id="B" gradientUnits="userSpaceOnUse" x1="21.6186" x2="21.8373" xlink:href="#c" y1="20.4822" y2="20.7008"/><linearGradient id="C" gradientUnits="userSpaceOnUse" x1="21.3042" x2="21.5312" xlink:href="#a" y1="21.9941" y2="22.2212"/><linearGradient id="D" gradientUnits="userSpaceOnUse" x1="21.4007" x2="21.4007" xlink:href="#c" y1="22.0936" y2="22.3875"/><linearGradient id="E" gradientUnits="userSpaceOnUse" x1="21.4077" x2="21.6264" xlink:href="#c" y1="22.0884" y2="22.3071"/><clipPath id="F"><path d="m0 0h16v16h-16z"/></clipPath><path d="m17.2105 12.4507v1.3283c-2.4414.2202-4.3541 2.2685-4.3541 4.7673v14.7823c0 .7224.5844 1.3275 1.3062 1.3275h16.5453c.7218 0 1.3062-.6051 1.3062-1.3275v-14.7823c0-2.4988-1.9127-4.5471-4.354-4.7673v-1.3283z" fill="#dbe9ee"/><path d="m17.2103 8.53271c-.7161 0-1.3045.58842-1.3045 1.30452v1.74247c0 .7161.5884 1.3045 1.3045 1.3045h10.4487c.7161 0 1.3088-.5884 1.3088-1.3045v-1.74247c0-.7161-.5927-1.30452-1.3088-1.30452z" fill="#ff6b6b"/><path d="m12.8769 18.1108c-.013.1435-.0205.2885-.0205.4354v13.4975h19.1577v-13.4975c0-.1469-.0074-.2918-.0204-.4354z" fill="#ff6b6b"/><path d="m20.2549 23.3027-3.0018 2.6589c-.4807.4257-.1796 1.2198.4625 1.2198h9.5286c.642 0 .9431-.7941.4625-1.2198l-3.0018-2.6589c-1.2701-1.1249-3.1799-1.1249-4.45 0z" fill="url(#b)"/><path d="m25.0171 26.8384c.2489 0 .4507-.2018.4507-.4507s-.2018-.4507-.4507-.4507-.4507.2018-.4507.4507.2018.4507.4507.4507z" fill="url(#d)"/><path d="m18.7329 26.8384c.249 0 .4507-.2018.4507-.4507s-.2017-.4507-.4507-.4507c-.2489 0-.4507.2018-.4507.4507s.2018.4507.4507.4507z" fill="url(#e)"/><path d="m23.9581 26.2752c.1867 0 .3381-.1514.3381-.338 0-.1867-.1514-.3381-.3381-.3381-.1866 0-.338.1514-.338.3381 0 .1866.1514.338.338.338z" fill="url(#f)"/><path d="m21.0182 24.5701c.1867 0 .338-.1513.338-.338s-.1513-.3381-.338-.3381-.338.1514-.338.3381.1513.338.338.338z" fill="url(#g)"/><path d="m24.0822 24.0437c.1867 0 .338-.1513.338-.338s-.1513-.338-.338-.338-.3381.1513-.3381.338.1514.338.3381.338z" fill="url(#h)"/><path d="m24.7806 25.1819c.1432 0 .2592-.116.2592-.2592 0-.1431-.116-.2591-.2592-.2591-.1431 0-.2591.116-.2591.2591 0 .1432.116.2592.2591.2592z" fill="url(#i)"/><path d="m22.3466 25.7117c.1431 0 .2591-.1161.2591-.2592s-.116-.2591-.2591-.2591c-.1432 0-.2592.116-.2592.2591s.116.2592.2592.2592z" fill="url(#j)"/><path d="m20.223 25.4656c.1432 0 .2592-.116.2592-.2592 0-.1431-.116-.2591-.2592-.2591-.1431 0-.2591.116-.2591.2591 0 .1432.116.2592.2591.2592z" fill="url(#k)"/><path d="m17.2531 25.9618c-.4807.4257-.1796 1.2198.4625 1.2198h9.5286c.642 0 .9432-.7941.4625-1.2198l-2.1089-1.868h-6.2358z" fill="url(#l)"/><path d="m27.7069 25.9617-3.0019-2.659c-.9047-.8013-2.134-1.0313-3.2255-.6909v4.5697h5.7649c.642 0 .9431-.7941.4625-1.2198z" fill="url(#m)"/><path d="m23.4651 20.3912c.138 0 .2498-.1118.2498-.2498s-.1118-.2498-.2498-.2498c-.1379 0-.2498.1118-.2498.2498s.1119.2498.2498.2498z" fill="url(#n)"/><path d="m23.2153 20.1412c0 .138.1119.2498.2498.2498.138 0 .2498-.1118.2498-.2498 0-.0299-.0052-.0585-.0148-.085h-.4699c-.0096.0265-.0149.0551-.0149.085z" fill="url(#o)"/><path d="m23.2889 20.3174c.0975.0976.2557.0976.3533 0 .0975-.0975.0975-.2557 0-.3532-.0212-.0212-.0451-.0377-.0707-.0496l-.3322.3322c.0119.0256.0285.0495.0496.0706z" fill="url(#p)"/><path d="m24.0296 21.2506c.1379 0 .2498-.1119.2498-.2498 0-.138-.1119-.2498-.2498-.2498-.138 0-.2498.1118-.2498.2498 0 .1379.1118.2498.2498.2498z" fill="url(#q)"/><path d="m23.7798 21.0006c0 .138.1118.2498.2498.2498s.2498-.1118.2498-.2498c0-.0299-.0053-.0585-.0149-.0851h-.4698c-.0097.0266-.0149.0552-.0149.0851z" fill="url(#r)"/><path d="m23.8524 21.1773c.0975.0976.2557.0976.3532 0 .0976-.0975.0976-.2557 0-.3533-.0211-.0211-.0451-.0376-.0707-.0496l-.3322.3322c.012.0256.0286.0496.0497.0707z" fill="url(#s)"/><path d="m22.6443 21.3145c.138 0 .2498-.1118.2498-.2498 0-.1379-.1118-.2498-.2498-.2498-.1379 0-.2498.1119-.2498.2498 0 .138.1119.2498.2498.2498z" fill="url(#t)"/><path d="m22.3945 21.0646c0 .1379.1119.2498.2498.2498.138 0 .2498-.1119.2498-.2498 0-.0299-.0052-.0586-.0148-.0851h-.4699c-.0096.0265-.0149.0552-.0149.0851z" fill="url(#u)"/><path d="m22.4676 21.2413c.0975.0975.2557.0975.3533 0 .0975-.0976.0975-.2557 0-.3533-.0212-.0211-.0451-.0376-.0707-.0496l-.3322.3322c.0119.0256.0285.0496.0496.0707z" fill="url(#v)"/><path d="m23.6062 22.2379c.138 0 .2498-.1119.2498-.2498 0-.138-.1118-.2498-.2498-.2498-.1379 0-.2498.1118-.2498.2498 0 .1379.1119.2498.2498.2498z" fill="url(#w)"/><path d="m23.3564 21.9879c0 .138.1119.2498.2498.2498.138 0 .2498-.1118.2498-.2498 0-.0299-.0052-.0585-.0148-.0851h-.4699c-.0096.0266-.0149.0552-.0149.0851z" fill="url(#x)"/><path d="m23.4295 22.1646c.0976.0976.2557.0976.3533 0 .0975-.0975.0975-.2557 0-.3533-.0212-.0211-.0451-.0376-.0707-.0496l-.3322.3322c.012.0256.0285.0496.0496.0707z" fill="url(#y)"/><path d="m21.6111 20.734c.138 0 .2498-.1119.2498-.2498 0-.138-.1118-.2498-.2498-.2498-.1379 0-.2498.1118-.2498.2498 0 .1379.1119.2498.2498.2498z" fill="url(#z)"/><path d="m21.3613 20.4845c0 .138.1119.2498.2498.2498.138 0 .2498-.1118.2498-.2498 0-.0299-.0052-.0585-.0149-.0851h-.4698c-.0096.0266-.0149.0552-.0149.0851z" fill="url(#A)"/><path d="m21.4344 20.6607c.0975.0976.2557.0976.3533 0 .0975-.0975.0975-.2557 0-.3533-.0212-.0211-.0451-.0376-.0707-.0496l-.3322.3322c.0119.0256.0285.0496.0496.0707z" fill="url(#B)"/><path d="m21.4007 22.3404c.1379 0 .2498-.1118.2498-.2498 0-.1379-.1119-.2498-.2498-.2498-.138 0-.2498.1119-.2498.2498 0 .138.1118.2498.2498.2498z" fill="url(#C)"/><path d="m21.1509 22.0904c0 .138.1118.2498.2498.2498.1379 0 .2498-.1118.2498-.2498 0-.0298-.0053-.0585-.0149-.085h-.4698c-.0097.0265-.0149.0552-.0149.085z" fill="url(#D)"/><path d="m21.2235 22.2672c.0975.0975.2557.0975.3532 0 .0976-.0976.0976-.2558 0-.3533-.0211-.0211-.0451-.0377-.0707-.0496l-.3322.3322c.012.0256.0286.0495.0497.0707z" fill="url(#E)"/><path d="m14.1918 23.0565v-12.7997h-4.56602v12.7997l-7.11862 12.4577c-.56357.9863.14859 2.2133 1.28446 2.2133h16.23438c1.1359 0 1.8481-1.227 1.2845-2.2133z" fill="#b6bff0"/><path d="m15.7097 26.4248h-7.67641l-5.08689 8.9021c-.53501.9362.14101 2.1011 1.21935 2.1011h15.41155c1.0783 0 1.7543-1.1649 1.2193-2.1011z" fill="#f2d171"/><path d="m14.6574 10.7806h-5.4321c-.07317 0-.13301-.0599-.13301-.133v-.74456c0-.07317.05984-.13302.13301-.13302h5.4321c.0732 0 .133.05985.133.13302v.74456c0 .0731-.0599.133-.133.133z" fill="#b6bff0"/><g fill="#fff"><path d="m12.7114 32.9697c0-.1861-.1509-.3369-.3369-.3369-.1861 0-.3369.1509-.3369.3369s.1508.3369.3369.3369c.186 0 .3369-.1508.3369-.3369z"/><path d="m10.2414 31.1526c.7243-.171 1.1728-.8968 1.0018-1.6211-.1711-.7243-.8969-1.1729-1.62118-1.0018-.72431.171-1.17283.8968-1.0018 1.6211s.89684 1.1729 1.62118 1.0018z"/><path d="m15.1535 29.6429c0-.2559-.2074-.4632-.4633-.4632-.2558 0-.4631.2074-.4631.4632s.2074.4633.4631.4633c.256 0 .4633-.2075.4633-.4633z"/><path d="m9.2999 35.7487c.39539 0 .7159-.3205.7159-.7159s-.32051-.7159-.7159-.7159-.71592.3205-.71592.7159.32053.7159.71592.7159z"/><path d="m11.2792 24.926c0-.2326-.1885-.4211-.4211-.4211-.2325 0-.4211.1885-.4211.4211s.1886.4211.4211.4211c.2326 0 .4211-.1885.4211-.4211z"/><path d="m12.5844 23.2416c.4652 0 .8423-.3771.8423-.8422 0-.4652-.3771-.8423-.8423-.8423-.4651 0-.8422.3771-.8422.8423 0 .4651.3771.8422.8422.8422z"/><path d="m11.0474 20.5044c.1977 0 .3579-.1602.3579-.3579s-.1602-.3579-.3579-.3579-.3579.1602-.3579.3579.1602.3579.3579.3579z"/><path d="m13.1326 17.6408c0-.2094-.1697-.3791-.3791-.3791-.2093 0-.379.1697-.379.3791 0 .2093.1697.379.379.379.2094 0 .3791-.1697.3791-.379z"/><path d="m11.7425 15.8298c.4419 0 .8002-.3582.8002-.8002 0-.4419-.3583-.8001-.8002-.8001s-.8001.3582-.8001.8001c0 .442.3582.8002.8001.8002z"/><path d="m12.5426 12.3135c0-.1046-.0848-.1895-.1895-.1895s-.1895.0849-.1895.1895c0 .1047.0848.1896.1895.1896s.1895-.0849.1895-.1896z"/><path d="m13.9864 7.9263c.2344-.23436.2344-.61433 0-.84868-.2344-.23436-.6143-.23437-.8487-.00001-.2343.23436-.2343.61433 0 .84869.2344.23435.6144.23435.8487 0z"/><path d="m10.8046 5.0462c.2717-.06414.4399-.33632.3757-.60794-.0641-.27162-.3363-.43982-.6079-.37568s-.4398.33632-.3757.60794.3363.43982.6079.37568z"/><path d="m10.739 8.90888c.5854-.09501.983-.6466.888-1.23201-.095-.58542-.6466-.98297-1.2321-.88796-.58537.09501-.98292.6466-.88791 1.23201.09501.58542.64661.98297 1.23201.88796z"/></g><path d="m34.6694 38.042c2.0271-.0164 3.657-1.6731 3.6405-3.7002l-.2572-31.6128-7.3408.05974.2572 31.61276c.0165 2.0271 1.6732 3.657 3.7003 3.6405z" fill="#b6bff0"/><path d="m34.6638 37.3021c1.7001-.0139 3.0671-1.4033 3.0533-3.1035l-.176-21.6376-6.1568.0501.176 21.6376c.0138 1.7002 1.4033 3.0672 3.1035 3.0534z" fill="#e2798b"/><path d="m30.5107 3.50063 7.7552-.0631c.407-.00331.7373-.33903.734-.74602s-.339-.7373-.746-.73397l-7.7552.06311c-.407.00331-.7373.33903-.734.74602s.339.73727.746.73396z" fill="#d0d8f7"/><path d="m5.12522 36.3356c1.29144-.0105 2.32983-1.066 2.3193-2.3574l-.16386-20.1398-4.67666.038.16386 20.1399c.01053 1.2914 1.06595 2.3298 2.35736 2.3193z" fill="#b6bff0"/><path d="m5.10925 35.8696c1.08057-.009 1.94942-.9132 1.94062-2.0195l-.11187-14.0806-3.9131.0326.1119 14.0806c.00877 1.1063.89188 1.9959 1.97245 1.9869z" fill="#6f7bbd"/><path d="m2.47578 14.3298 4.94067-.0402c.25929-.0021.46972-.216.46759-.4753-.0021-.2593-.21598-.4697-.47527-.4676l-4.94067.0402c-.2593.0021-.46972.216-.4676.4753.0021.2592.21598.4697.47528.4676z" fill="#d0d8f7"/><g clip-path="url(#F)"><path d="m7.9998 15.1998c3.9765 0 7.2-3.2235 7.2-7.2 0-3.97645-3.2235-7.199995-7.2-7.199995-3.97645 0-7.199995 3.223545-7.199995 7.199995 0 3.9765 3.223545 7.2 7.199995 7.2z" fill="#ee685c"/><path d="m10.5316 9.62649-1.62636-1.62634 1.62636-1.62635c.0594-.05943.1066-.12998.1387-.20763.0322-.07765.0487-.16087.0487-.24492s-.0165-.16727-.0487-.24492c-.0321-.07765-.0793-.1482-.1387-.20763s-.13-.10657-.2076-.13873c-.0777-.03217-.1609-.04872-.245-.04872-.08401 0-.16723.01655-.24488.04872-.07765.03216-.1482.0793-.20763.13873l-1.62634 1.62635-1.62635-1.62635c-.05943-.05943-.12998-.10657-.20763-.13873-.07765-.03217-.16087-.04872-.24492-.04872s-.16727.01655-.24492.04872c-.07765.03216-.1482.0793-.20763.13873s-.10657.12998-.13873.20763c-.03217.07765-.04872.16087-.04872.24492s.01655.16727.04872.24492c.03216.07765.0793.1482.13873.20763l1.62635 1.62635-1.62635 1.62634c-.05943.05943-.10657.12998-.13873.20763-.03217.07765-.04872.16087-.04872.24488 0 .0841.01655.1673.04872.245.03216.0776.0793.1482.13873.2076s.12998.1066.20763.1387c.07765.0322.16087.0487.24492.0487s.16727-.0165.24492-.0487c.07765-.0321.1482-.0793.20763-.1387l1.62635-1.62636 1.62634 1.62636c.05943.0594.12998.1066.20763.1387.07765.0322.16087.0487.24488.0487.0841 0 .1673-.0165.245-.0487.0776-.0321.1482-.0793.2076-.1387s.1066-.13.1387-.2076c.0322-.0777.0487-.1609.0487-.245 0-.08401-.0165-.16723-.0487-.24488-.0321-.07765-.0793-.1482-.1387-.20763z" fill="#fff"/></g></svg>