<svg fill="none" height="40" viewBox="0 0 40 40" width="40" xmlns="http://www.w3.org/2000/svg" xmlns:xlink="http://www.w3.org/1999/xlink"><clipPath id="a"><path d="m0 0h26.1362v35.3889h-26.1362z" transform="matrix(-1 0 0 1 39.7729 2.5)"/></clipPath><g clip-path="url(#a)"><path d="m30.1352 10.6348-.8243-.1962c-.6316-.1504-1.0773-.7148-1.0773-1.36402v-4.09313h-5.0328v4.09313c0 .64929-.4458 1.21362-1.0774 1.36402l-.8242.1962c-4.0486.964-6.9058 4.5813-6.9058 8.7431l.3635 7.8319 5.2565 7.9686h11.4076l5.3124-8.1364.3076-7.6641c-.0001-4.1618-2.8573-7.7792-6.9058-8.7431z" fill="#80aade"/><path d="m36.9568 19.7931-1.2454-1.2454c1.0902-1.0902 2.5263-4.091 2.2714-6.6651-.1381-1.3941-.7512-2.46305-1.8226-3.1775-3.5638-2.37508-7.9626 1.22843-8.0068 1.26484l-1.1275-1.35305c.2211-.18406 5.4655-4.47476 10.1113-1.37742 1.5101 1.0068 2.4087 2.55227 2.5985 4.46933.2951 2.9819-1.2125 6.5182-2.7789 8.0843z" fill="#80aade"/><path d="m33.13 14.2893c-2.2007.4955-3.9048 2.2009-5.9304 3.1934-2.3873 1.1696-5.1567 1.3105-7.8017 1.0452-1.4759-.1481-2.9647-.427-4.3472-.9495-.1479.6311-.2276 1.2863-.2276 1.9568l.3463 7.462 5.0084 7.5924h10.869l5.0616-7.7522.293-7.3022c0-2.0124-.7022-3.8905-1.8972-5.373-.4609-.0132-.9229.0254-1.3742.1271z" fill="#de5a5a"/><path d="m14.0857 23.9375s10.9884 2.4888 23.0671 0l-.8317 10.2767c-.165 2.0387-1.8633 3.6117-3.9087 3.62l-13.2921.0545c-2.0205.0082-3.7195-1.5142-3.9319-3.5236z" fill="#e79a56"/><path d="m13.7296 24.0943c.0032-.2542.2318-.4603.4778-.5247.246-.0645.5057-.0203.7563.0232 7.0813 1.2269 14.3958 1.539 21.4325.0777.5199-.108 1.1988-.156 1.4419.3161.1623.3152.01.7205-.26.9502-.27.2298-.6282.3224-.9755.3936-1.1216.23-2.2682.3073-3.4105.3841-6.2293.4187-12.5866.8264-18.629-.7445-.3664-.0953-.7763-.2355-.9266-.5828.1074-.0286.0917-.1817.0931-.2929z" fill="#f0c699"/><g fill="#eedcd2"><path d="m14.4639 24.9341c.4606-.2757.8631-.6584 1.2547-1.0334.0577-.0552.1148-.1095.172-.1639-.1038-.0167-.2075-.0341-.3112-.0513-.0117.0111-.0235.0222-.035.0333-.4353.4169-.8836.8448-1.4011 1.1053.1034.0445.2125.0796.3206.11z"/><path d="m19.2456 24.202c-.1167-.0135-.2337-.0258-.3503-.0399-.6645.5254-1.4092.9572-2.1927 1.2707.1517.0281.3037.0536.4557.0796.7491-.339 1.4571-.7829 2.0873-1.3104z"/><path d="m36.3965 23.6607c-.1122.0233-.2252.0423-.3376.0647-.1107.1562-.2196.3139-.3263.4734-.2836.4246-.577.8635-.9449 1.2177-.0667.0643-.1369.1252-.2089.184.1399-.0125.2796-.026.4191-.0407.3696-.3657.6622-.7996.9438-1.2211.1297-.1942.2597-.3885.3971-.5765.0273-.0373.0548-.0702.0821-.106-.0079.0016-.0165.0028-.0244.0045z"/><path d="m21.4269 25.3978c.3332-.2719.6735-.5526.9046-.9109-.0971-.0067-.1942-.0129-.2913-.0201-.2043.2705-.4819.4991-.7725.7361-.2743.2239-.5524.4534-.7675.7255.1034.0082.2069.0146.3103.0221.1787-.1938.3939-.371.6164-.5527z"/><path d="m33.1869 25.3613c.4076-.3718.8293-.7564 1.1552-1.22.0274-.0389.0534-.0798.0778-.1218-.115.0185-.2299.0378-.345.0554-.3021.4064-.6843.7598-1.0576 1.1003-.1941.1771-.3949.3602-.5839.5504-.01.0102-.0199.0215-.03.0321.1287-.0086.2572-.0171.3857-.0257.1317-.1259.2655-.2503.3978-.3707z"/><path d="m31.8321 24.5137c.0461-.0542.0944-.1103.143-.1665-.1213.0129-.2425.025-.3638.037-.4526.5291-.9475 1.0624-1.4889 1.5171.1369-.0079.2738-.0158.4106-.024.4682-.4235.9002-.8958 1.2991-1.3636z"/><path d="m29.4399 24.5522c-.0959.0054-.192.0091-.288.0138-.3258.5887-.9243 1.034-1.5336 1.4568.1538-.0059.3077-.0124.4615-.0188.5495-.4 1.0771-.8573 1.3601-1.4518z"/><path d="m26.0845 24.632c-.1213-.0009-.2426.001-.3639-.0007-.5527.5204-1.1832 1.0532-1.8821 1.4487.1606.0021.3214.0011.4822.0019.6591-.4274 1.2478-.9531 1.7638-1.4499z"/></g><path d="m27.7259 37.815c-.4492-.5479-1.1061-.887-1.5903-1.4043-1.2643-1.3506-1.2735-3.4112-2.361-4.8797-2.0758-2.8032-5.8557-4.0556-9.2901-4.0823l.7314 6.9169c.2125 2.0094 1.9114 3.5319 3.932 3.5235l8.6041-.0353c-.0097-.0121-.0161-.0267-.0261-.0388z" fill="#cb8e61" opacity=".58"/><path d="m26.8345 33.6818c-3.0382-.0267-6.1771-.0579-9.2555.2197l-.3947.0365c-.6697.063-1.3528.1212-2.0294.1108l.0335.317c.0006.0051.0025.0096.003.0146.679.0074 1.3584-.0484 2.0241-.1108l.3935-.0364c3.0615-.2763 6.1933-.2465 9.2223-.2185 2.1719.0214 4.4173.0422 6.6243-.0495.9419-.039 1.9303-.1027 2.9074-.2662l.0276-.3421c-.9868.171-1.9913.2362-2.9493.2754-2.1992.091-4.4401.0696-6.6068.0495z" fill="#cb8e61"/><path d="m14.3272 26.2192c3.6132.9788 7.3985.9616 11.0677.9274l4.1403-.0358c1.4645-.013 2.9783-.026 4.4551-.2731.4298-.0722.8623-.1651 1.2804-.2549.5549-.119 1.123-.2395 1.6937-.3134l.0273-.3379c-.6066.0745-1.2062.2004-1.7913.3261-.4142.0892-.8427.1808-1.2647.2517-1.4514.2426-2.9523.2555-4.4031.2686l-4.1403.0358c-3.687.0339-7.4951.0531-11.1026-.949z" fill="#cb8e61"/><path d="m36.0391 35.3496c-2.1638.1002-4.4008.2034-6.601.2294-1.4807.0176-2.988 0-4.4453-.0156-3.0812-.0348-6.2465-.0646-9.373.2197.0586.1112.1338.211.2023.3156 3.0536-.2662 6.1501-.2377 9.1674-.2025 1.46.0163 2.9712.0332 4.4525.0157 2.1537-.0254 4.3383-.1249 6.456-.2234.0557-.1083.0954-.2248.1411-.3389z" fill="#cb8e61"/><path d="m28.0838 31.6442c-1.3344.0059-2.7143.0118-4.0695.1255-.5676.0475-1.1418.1145-1.6972.1788-.623.0735-1.2681.1483-1.9028.1957-1.8323.134-3.678.0415-5.4895-.2721l.0362.3416c1.8097.3053 3.6508.3994 5.478.2623.6418-.0475 1.2902-.1229 1.9171-.1965.5521-.0643 1.1236-.1313 1.6855-.1782 1.3422-.1125 2.7155-.1183 4.0434-.1242l8.4203-.0359.0269-.3333z" fill="#cb8e61"/><path d="m14.7486 28.4091c.8421.1782 1.7135.3616 2.5934.4604 1.0606.1196 2.1258.1125 3.1532.1086 2.7403-.0123 5.4812-.0299 8.2215-.052 2.674-.0226 5.4348-.0519 8.0957-.7766l.0284-.3512c-2.6542.7448-5.4349.7724-8.1267.7948-2.7403.0221-5.4799.0397-8.2202.052-1.0209.0046-2.0743.0098-3.1148-.106-.8642-.0976-1.7271-.2796-2.5615-.4552l-.2998-.0632.0368.3474z" fill="#cb8e61"/><path d="m21.9747 30.8936c.8233-.0215 1.6797-.0423 2.5062-.0377.5995.0039 1.1991.0214 1.7993.0396 1.636.0475 3.3261.0989 4.9765-.1475.4363-.065.874-.1515 1.298-.2354.4428-.0871.9006-.1775 1.3532-.2432.9058-.1307 1.8283-.1608 2.741-.1l.0269-.3317c-.9398-.0625-1.886-.0318-2.8153.1026-.461.0663-.9235.1574-1.3702.2458-.4201.0826-.8544.1684-1.283.2328-1.6204.2413-3.2969.1912-4.9174.1437-.6022-.0182-1.205-.0358-1.8065-.0397-.8317-.0039-1.69.0169-2.5172.0377-2.411.0608-4.8937.1154-7.2309-.4838l.0374.3534c2.3468.5786 4.8132.5238 7.202.4634z" fill="#cb8e61"/><path d="m27.0986 2.5h-2.8917c-.4887 0-.8848.39609-.8848.88476v4.27899c0 .48867.3961.88476.8848.88476h2.8917c.4887 0 .8848-.39609.8848-.88476v-4.27899c0-.48859-.3961-.88476-.8848-.88476z" fill="#e79a56"/><path d="m28.8046 5.69336h-6.16c-.0245 0-.0445.02007-.0445.04453v.83359c0 .02453.02.04453.0445.04453h6.16c.0245 0 .0445-.02007.0445-.04453v-.83359c0-.02446-.0201-.04453-.0445-.04453z" fill="#dce2fd"/><g fill="#b83535"><path d="m30.647 22.6705c0-.1686-.1367-.3053-.3052-.3053s-.3052.1367-.3052.3053c0 .1685.1366.3051.3052.3051s.3052-.1366.3052-.3051z"/><path d="m31.646 21.0619c0-.2912-.236-.5272-.5272-.5272s-.5272.236-.5272.5272c0 .2911.236.5271.5272.5271s.5272-.236.5272-.5271z"/><path d="m28.1916 19.8131c-.2528 0-.4578-.205-.4578-.4578 0-.2529.205-.4578.4578-.4578s.4578.2049.4578.4578c0 .2528-.205.4578-.4578.4578z"/><path d="m26.8594 23.6973c-.2069 0-.3746-.1677-.3746-.3745 0-.2069.1677-.3746.3746-.3746.2068 0 .3745.1677.3745.3746 0 .2068-.1677.3745-.3745.3745z"/><path d="m33.5466 18.4532c-.7739 0-1.4012-.6273-1.4012-1.4011 0-.7739.6273-1.4012 1.4012-1.4012.7738 0 1.4012.6273 1.4012 1.4012 0 .7738-.6274 1.4011-1.4012 1.4011z"/><path d="m34.3921 22.1576c0-.2375-.1925-.4301-.4301-.4301-.2375 0-.4301.1925-.4301.4301 0 .2375.1925.4301.4301.4301.2376-.0001.4301-.1926.4301-.4301z"/><path d="m25.6807 21.1727c0-.1072-.087-.1942-.1943-.1942-.1072 0-.1942.087-.1942.1942 0 .1073.087.1943.1942.1943.1073 0 .1943-.087.1943-.1943z"/><path d="m23.2719 22.4095c-.054-.3328.172-.6463.5047-.7003.3328-.054.6463.1719.7003.5047s-.1719.6463-.5047.7003-.6463-.172-.7003-.5047z"/><path d="m21.5189 23.0599c-.2299 0-.4162-.1863-.4162-.4162 0-.2298.1863-.4162.4162-.4162.2298 0 .4162.1864.4162.4162 0 .2299-.1864.4162-.4162.4162z"/><path d="m25.542 18.8285c0-.069-.0559-.1249-.1249-.1249-.0689 0-.1248.0559-.1248.1249 0 .0689.0559.1248.1248.1248.069 0 .1249-.0559.1249-.1248z"/><path d="m17.0445 22.4086c-.0722-.3057.1171-.612.4228-.6842s.612.1171.6842.4228-.1171.612-.4228.6842-.612-.1171-.6842-.4228z"/><path d="m16.6079 20.2711c0-.1916-.1552-.3468-.3468-.3468-.1915 0-.3468.1553-.3468.3468 0 .1916.1553.3468.3468.3468s.3468-.1552.3468-.3468z"/><path d="m19.7153 19.4108c0-.115-.0932-.2082-.2081-.2082s-.2081.0932-.2081.2082c0 .1149.0932.208.2081.208s.2081-.0931.2081-.208z"/><path d="m20.0744 20.6474c-.2925-.2926-.2925-.7669 0-1.0594.2926-.2926.7669-.2926 1.0595 0 .2925.2925.2925.7668 0 1.0594-.2926.2925-.7669.2925-1.0595 0z"/><path d="m19.3407 23.4759c-.0996 0-.1803-.0808-.1803-.1804 0-.0995.0807-.1803.1803-.1803s.1803.0808.1803.1803c0 .0996-.0807.1804-.1803.1804z"/><path d="m29.7036 17.261c0-.046-.0373-.0833-.0832-.0833-.046 0-.0832.0373-.0832.0833s.0373.0832.0832.0832.0832-.0372.0832-.0832z"/><path d="m30.5081 18.6483c-.2298 0-.4161-.1864-.4161-.4162 0-.2299.1863-.4162.4161-.4162.2299 0 .4162.1863.4162.4162 0 .2298-.1863.4162-.4162.4162z"/></g><path d="m25.7399 13.0617c.5678-.7419 1.4663-1.2454 2.5199-1.3754 1.1459-.1415 2.3197.17 3.323.7416 2.273 1.2951 4.5328 4.9878 2.9591 7.5382-.5297.8586-1.4644 1.3147-2.4297 1.4967-3.3453.631-6.3226-2.7364-6.9432-5.7483-.2108-1.023.0301-1.9461.5709-2.6528z" fill="#fff" opacity=".44"/></g><path clip-rule="evenodd" d="m8.98192 28.6558c-2.62942-1.5444-5.32291-3.1263-7.85375-4.7568-1.471888-.231-1.1440316-2.68-.971021-3.6765.17427-1.404 2.983971-1.2086 5.277171-1.0491 1.04207.0725 1.97749.1375 2.51048.0417h.50519 9.00221.519 4.2595c3.0926-.3227 3.9611.0247 3.5221 3.3339-.0731.798-.1929 1.1371-.9853 1.3703-1.5646 1.0188-3.1812 1.9798-4.7972 2.9405-1.7292 1.0279-3.4577 2.0554-5.1211 3.1529.0181.2978.0467.6125.076.9356.2033 2.2405.4433 4.8853-2.5128 5.1038-1.6868.1689-1.4714-1.9508-1.2859-3.7771.1005-.9897.1923-1.8933-.032-2.2999-.033-.0051-.0628-.0226-.0835-.0488-.0206-.0263-.0305-.0594-.0277-.0926-.6604-.3903-1.3288-.7829-2.00138-1.1779zm2.44938 3.3751c-.1751 2.0644-.3678 4.3363 2.2774 2.9965 1.0389-.6582.9274-2.129.8259-3.467-.0434-.5733-.0851-1.1222-.0335-1.5723h-3.0325c.0923.5147.0287 1.264-.0373 2.0428zm3.2268-2.4321c.0302-.0454.0635-.0926.1068-.1436.4266-.5256 1.3093-.9629 2.09-1.3498.3552-.176.6893-.3415.9498-.5001l6.0277-3.6687c-2.8616.0102-5.722.0044-8.5821-.0015-.0001 0-.0003 0-.0005 0-4.3795-.009-8.75843-.018-13.14022.0309l7.13713 4.3434c.1483.0916.36654.1964.60789.3122.5688.273 1.266.6076 1.4786.9772zm-11.72873-10.0123c-1.1369-.0618-2.03657-.1107-2.264866 1.3674h.00173c-.117215.7599-.206748 2.1146.565746 2.5342.06085-.0212.13025.0228.18977.0605.00605.0038.01201.0076.01784.0113 4.84607-.0257 9.70301-.0221 14.56001-.0184h.0003.0026c2.8276.0021 5.6553.0043 8.4808.0006.0031-.0019.0061-.0038.0092-.0058.0024-.0015.0048-.0031.0073-.0046.056-.0359.1217-.0779.1795-.0484.9031-.5195.9351-3.4377-.0303-3.8703-1.3069-.0267-2.6319-.0155-3.9584-.0042-1.16.0099-2.3213.0198-3.4728.0042h-13.54247c-.25648 0-.50648-.0135-.74596-.0265z" fill="#6f7bbd" fill-rule="evenodd"/><g fill="#b6bff0"><path d="m3.67533 19.613h13.54247c1.1515.0156 2.3128.0057 3.4728-.0042 1.3265-.0113 2.6515-.0225 3.9584.0042.9654.4326.9334 3.3508.0303 3.8703-.0578-.0295-.1235.0125-.1795.0484l-.0073.0046c-.0031.002-.0061.0039-.0092.0058-2.8255.0037-5.6532.0015-8.4808-.0006h-.0026-.0003c-4.857-.0037-9.71394-.0073-14.56001.0184-.00583-.0037-.01179-.0075-.01784-.0113-.05952-.0377-.12892-.0817-.18977-.0605-.772494-.4196-.682961-1.7743-.565746-2.5342h-.00173c.228296-1.4781 1.127966-1.4292 2.264866-1.3674.23948.013.48948.0265.74596.0265z"/><path d="m14.7649 29.4552c-.0433.051-.0766.0982-.1068.1436h-3.3249c-.2126-.3696-.9098-.7042-1.4786-.9772-.24135-.1158-.45959-.2206-.60789-.3122l-7.13713-4.3434c4.38179-.0489 8.76072-.0399 13.14022-.0309h.0005c2.8601.0059 5.7205.0117 8.5821.0015l-6.0277 3.6687c-.2605.1586-.5946.3241-.9498.5001-.7807.3869-1.6634.8242-2.09 1.3498z"/><path d="m11.4686 29.9881h3.0325c-.0516.4501-.0099.999.0335 1.5723.1015 1.338.213 2.8088-.8259 3.467-2.6452 1.3398-2.4525-.9321-2.2774-2.9965.066-.7788.1296-1.5281.0373-2.0428z"/></g><path d="m7.2 14.4c3.9764 0 7.2-3.2236 7.2-7.2 0-3.97645-3.2236-7.2-7.2-7.2-3.97645 0-7.2 3.22355-7.2 7.2 0 3.9764 3.22355 7.2 7.2 7.2z" fill="#ee685c"/><path d="m9.73178 8.82669-1.62634-1.62635 1.62634-1.62635c.05943-.05942.10658-.12998.13874-.20763.03216-.07764.04872-.16087.04872-.24491 0-.08405-.01656-.16727-.04872-.24492s-.07931-.1482-.13874-.20763-.12998-.10657-.20763-.13874c-.07765-.03216-.16087-.04871-.24491-.04871-.08405 0-.16727.01655-.24492.04871-.07765.03217-.1482.07931-.20763.13874l-1.62635 1.62634-1.62635-1.62634c-.05942-.05943-.12998-.10657-.20763-.13874-.07764-.03216-.16087-.04871-.24491-.04871-.08405 0-.16727.01655-.24492.04871-.07765.03217-.1482.07931-.20763.13874s-.10657.12998-.13874.20763c-.03216.07765-.04871.16087-.04871.24492 0 .08404.01655.16727.04871.24491.03217.07765.07931.14821.13874.20763l1.62634 1.62635-1.62634 1.62635c-.05943.05943-.10657.12998-.13874.20763-.03216.07765-.04871.16087-.04871.24492 0 .08404.01655.16726.04871.24491.03217.07765.07931.1482.13874.20763s.12998.10658.20763.13874.16087.04872.24492.04872c.08404 0 .16727-.01656.24491-.04872.07765-.03216.14821-.07931.20763-.13874l1.62635-1.62634 1.62635 1.62634c.05943.05943.12998.10658.20763.13874s.16087.04872.24492.04872c.08404 0 .16726-.01656.24491-.04872s.1482-.07931.20763-.13874.10658-.12998.13874-.20763.04872-.16087.04872-.24491c0-.08405-.01656-.16727-.04872-.24492s-.07931-.1482-.13874-.20763z" fill="#fff"/></svg>