<svg fill="none" height="40" viewBox="0 0 41 40" width="41" xmlns="http://www.w3.org/2000/svg"><g fill="#3c3f4e"><path d="m10.6735 16.584c-.3031-.3841-.71558-.667-1.23293-.851-.52139-.1839-1.01463-.2769-1.47952-.2769-.27091 0-.54974.0324-.84072.097-.28692.0627-.55783.1637-.81254.2991-.25876.1375-.46489.3174-.62648.5397-.15772.2243-.23854.4973-.23854.8166 0 .5135.18996.9055.57405 1.1764.3841.2729.86905.5054 1.45523.6973.58212.192 1.21265.3841 1.88367.5759.67098.1921 1.29748.4649 1.88368.8166.5821.3517 1.0673.8247 1.4512 1.415.3841.5921.5781 1.3844.5781 2.3769 0 .946-.1778 1.7685-.5295 2.4739-.3517.7034-.8288 1.2875-1.4269 1.7524-.6024.4648-1.2977.8084-2.09 1.0327-.79231.2223-1.62915.3355-2.5063.3355-1.10758 0-2.1303-.1677-3.07628-.5054-.94193-.3355-1.82312-.8792-2.63972-1.631l2.66401-2.9286c.38409.5113.86907.9074 1.45524 1.1883.58213.279 1.18837.4185 1.81098.4185.30312 0 .61047-.0344.92574-.1072.31122-.0727.59021-.1799.83683-.3234.25066-.1456.44869-.3295.60237-.5538.15367-.2223.22637-.4871.22637-.7923 0-.5114-.19397-.9155-.58617-1.2107-.39219-.2972-.88524-.5498-1.47546-.758-.59428-.2061-1.23292-.4144-1.92014-.6224-.69127-.2083-1.32988-.4892-1.92416-.8408-.59022-.3517-1.08329-.8166-1.47548-1.3925-.3922-.576-.58617-1.3361-.58617-2.2799 0-.9136.17778-1.714.53758-2.4013.35981-.6872.84072-1.2653 1.44309-1.728.59832-.4649 1.28958-.8126 2.07379-1.0449.78421-.2324 1.59272-.3477 2.42551-.3477.962 0 1.88774.1354 2.78517.4082.8974.2709 1.7059.7277 2.4255 1.3683z"/><path d="m15.1396 20.9296c0-1.3602.2305-2.5933.6832-3.6968.4568-1.1035 1.0954-2.0433 1.912-2.8216.8126-.7761 1.7827-1.3703 2.9024-1.7866 1.1197-.4164 2.3445-.6246 3.6744-.6246 1.3259 0 2.5507.2082 3.6704.6246 1.1238.4163 2.09 1.0105 2.9064 1.7866.8166.7783 1.4512 1.7181 1.908 2.8216s.6832 2.3364.6832 3.6968c0 1.3603-.2264 2.5933-.6832 3.6968-.4568 1.1056-1.0914 2.0454-1.908 2.8215-.8166.7762-1.7826 1.3724-2.9064 1.7888-1.1197.4164-2.3445.6246-3.6704.6246-1.3299 0-2.5547-.2082-3.6744-.6246-1.1197-.4163-2.09-1.0126-2.9024-1.7888-.8166-.7761-1.4552-1.7159-1.912-2.8215-.4527-1.1037-.6832-2.3365-.6832-3.6968zm3.8889 0c0 .8004.1253 1.5341.3719 2.197.2507.665.6064 1.241 1.0711 1.7281.4609.4892 1.0187.869 1.6655 1.1399.6507.2729 1.3744.4083 2.1748.4083s1.5239-.1354 2.1708-.4083c.6508-.2709 1.2046-.6507 1.6695-1.1399.4648-.4871.8206-1.0632 1.0672-1.7281.2507-.6629.372-1.3966.372-2.197 0-.7842-.1213-1.5119-.372-2.1849-.2466-.671-.6024-1.251-1.0672-1.7402-.4649-.4871-1.0187-.8671-1.6695-1.14-.6467-.2709-1.3704-.4082-2.1708-.4082s-1.5241.1375-2.1748.4082c-.6468.2729-1.2046.6529-1.6655 1.14-.4648.4892-.8206 1.0692-1.0711 1.7402-.2466.673-.3719 1.4007-.3719 2.1849z"/><path d="m33.6704 30.7203 3.5774-3.2098c.1819-.1656.3639-.3517.5457-.5597.1819-.2083.2709-.4507.2709-.7277 0-.3134-.1131-.5579-.3355-.7358-.2263-.1778-.4891-.2669-.7923-.2669-.3638 0-.6507.1132-.8528.3396-.2021.2244-.3193.5013-.3436.8306l-1.9526-.1415c.0284-.477.1254-.8914.2991-1.2429.1739-.3496.4042-.6427.6913-.8772.283-.2344.6224-.4082 1.0065-.5254.3841-.1173.8045-.1759 1.2532-.1759.4163 0 .8085.0586 1.1723.1759.3639.1172.6791.289.9501.5194.2668.2305.477.5174.6305.865.1496.3456.2264.7499.2264 1.2087 0 .295-.0324.5618-.093.7983-.0605.2385-.1456.4567-.2506.6507-.1092.1961-.2386.376-.3841.5397-.1497.1657-.3072.3255-.4811.4811l-2.7973 2.4053h4.0828v1.7159h-6.4233z"/></g><path d="m7.2 14.4c3.9764 0 7.2-3.2236 7.2-7.2 0-3.97645-3.2236-7.2-7.2-7.2-3.97645 0-7.2 3.22355-7.2 7.2 0 3.9764 3.22355 7.2 7.2 7.2z" fill="#ee685c"/><path d="m9.73178 8.82669-1.62634-1.62635 1.62634-1.62635c.05943-.05942.10658-.12998.13874-.20763.03216-.07764.04872-.16087.04872-.24491 0-.08405-.01656-.16727-.04872-.24492s-.07931-.1482-.13874-.20763-.12998-.10657-.20763-.13874c-.07765-.03216-.16087-.04871-.24491-.04871-.08405 0-.16727.01655-.24492.04871-.07765.03217-.1482.07931-.20763.13874l-1.62635 1.62634-1.62635-1.62634c-.05942-.05943-.12998-.10657-.20763-.13874-.07764-.03216-.16087-.04871-.24491-.04871-.08405 0-.16727.01655-.24492.04871-.07765.03217-.1482.07931-.20763.13874s-.10657.12998-.13874.20763c-.03216.07765-.04871.16087-.04871.24492 0 .08404.01655.16727.04871.24491.03217.07765.07931.14821.13874.20763l1.62634 1.62635-1.62634 1.62635c-.05943.05943-.10657.12998-.13874.20763-.03216.07765-.04871.16087-.04871.24492 0 .08404.01655.16726.04871.24491.03217.07765.07931.1482.13874.20763s.12998.10658.20763.13874.16087.04872.24492.04872c.08404 0 .16727-.01656.24491-.04872.07765-.03216.14821-.07931.20763-.13874l1.62635-1.62634 1.62635 1.62634c.05943.05943.12998.10658.20763.13874s.16087.04872.24492.04872c.08404 0 .16726-.01656.24491-.04872s.1482-.07931.20763-.13874.10658-.12998.13874-.20763.04872-.16087.04872-.24491c0-.08405-.01656-.16727-.04872-.24492s-.07931-.1482-.13874-.20763z" fill="#fff"/></svg>