<svg fill="none" height="40" viewBox="0 0 40 40" width="40" xmlns="http://www.w3.org/2000/svg" xmlns:xlink="http://www.w3.org/1999/xlink"><clipPath id="a"><path d="m4 4h32v32h-32z"/></clipPath><clipPath id="b"><path d="m0 0h16v16h-16z"/></clipPath><g clip-path="url(#a)"><path d="m5.56311 17.2008 3.72476-4.3285h.00523v-1.5338c0-.7811.63318-1.41418 1.4142-1.41418h18.5862c.7811 0 1.4143.63318 1.4143 1.41418v1.5338h.0052l3.7248 4.3285c.3475.4038.5387.919.5387 1.4518v14.5233c0 .4052-.1107.8029-.32 1.1499l-.9844 1.6313c-.6615 1.0962-1.8484 1.7663-3.1288 1.7663h-21.08573c-1.28041 0-2.46731-.6701-3.1288-1.7663l-.98434-1.6313c-.20942-.347-.32002-.7447-.32002-1.1499v-14.5233c0-.5328.19114-1.048.5387-1.4518z" fill="#f2d171"/><path d="m9.29297 12.8723v-2.94798h21.41473v2.94798" fill="#633925" opacity=".27"/><path d="m9.6792 9.21562h20.7827v-6.56935c0-.06814-.0553-.12332-.1233-.12332h-20.53596c-.06814 0-.12333.05518-.12333.12332v6.56935z" fill="#f2eded"/><g fill="#b6bff0"><path d="m28.5183 3.58008h.6919c.0173 0 .0315.01414.0315.03145v6.93177c0 .0174-.0142.0315-.0315.0315h-.6919c-.0173 0-.0315-.0141-.0315-.0315v-6.93177c.0001-.01731.0142-.03145.0315-.03145z"/><path d="m26.7805 3.58008h.6919c.0174 0 .0315.01414.0315.03145v6.93177c0 .0174-.0141.0315-.0315.0315h-.6919c-.0173 0-.0315-.0141-.0315-.0315v-6.93177c0-.01731.0142-.03145.0315-.03145z"/><path d="m25.0461 3.58008h.692c.0173 0 .0314.01414.0314.03145v6.93177c0 .0174-.0141.0315-.0314.0315h-.692c-.0173 0-.0315-.0141-.0315-.0315v-6.93177c0-.01731.0142-.03145.0315-.03145z"/><path d="m23.3083 3.58008h.692c.0173 0 .0314.01414.0314.03145v6.93177c0 .0174-.0141.0315-.0314.0315h-.692c-.0173 0-.0314-.0141-.0314-.0315v-6.93177c.0001-.01731.0142-.03145.0314-.03145z"/><path d="m21.5735 3.58008h.6919c.0173 0 .0315.01414.0315.03145v6.93177c0 .0174-.0142.0315-.0315.0315h-.6919c-.0174 0-.0315-.0141-.0315-.0315v-6.93177c.0001-.01731.0141-.03145.0315-.03145z"/><path d="m19.8366 3.58008h.692c.0173 0 .0315.01414.0315.03145v6.93177c0 .0174-.0142.0315-.0315.0315h-.692c-.0173 0-.0314-.0141-.0314-.0315v-6.93177c0-.01731.0141-.03145.0314-.03145z"/><path d="m18.1018 3.58008h.6919c.0173 0 .0315.01414.0315.03145v6.93177c0 .0174-.0142.0315-.0315.0315h-.6919c-.0173 0-.0315-.0141-.0315-.0315v-6.93177c0-.01731.0142-.03145.0315-.03145z"/><path d="m16.3645 3.58008h.6919c.0173 0 .0315.01414.0315.03145v6.93177c0 .0174-.0142.0315-.0315.0315h-.6919c-.0173 0-.0315-.0141-.0315-.0315v-6.93177c0-.01731.0142-.03145.0315-.03145z"/><path d="m14.403 3.58008h.692c.0173 0 .0315.01414.0315.03145v6.93177c0 .0174-.0142.0315-.0315.0315h-.692c-.0173 0-.0314-.0141-.0314-.0315v-6.93177c0-.01731.0141-.03145.0314-.03145z"/><path d="m12.6657 3.58008h.692c.0173 0 .0315.01414.0315.03145v6.93177c0 .0174-.0142.0315-.0315.0315h-.692c-.0173 0-.0314-.0141-.0314-.0315v-6.93177c0-.01731.0141-.03145.0314-.03145z"/><path d="m10.9309 3.58008h.6919c.0173 0 .0315.01414.0315.03145v6.93177c0 .0174-.0142.0315-.0315.0315h-.6919c-.0173 0-.0315-.0141-.0315-.0315v-6.93177c.0001-.01731.0143-.03145.0315-.03145z"/></g><path d="m31.0656 8.86377h-21.9904v2.81803h21.9904z" fill="#6f7bbd"/><path d="m26.9699 19.4668c-1.0139-1.6203-2.8011-2.7065-4.8534-2.7065h-4.1137c-2.0523 0-3.8395 1.0862-4.8535 2.7065h-6.9325v10.9606h27.6857v-10.9606z" fill="#f9edae"/><path d="m33.903 30.7518h-27.68572c-.17949 0-.3247-.1459-.3247-.3247v-10.9606c0-.1788.14521-.3248.3247-.3248h6.75522c1.1329-1.6986 3.0003-2.7071 5.0307-2.7071h4.1133c2.0304 0 3.8978 1.0085 5.0307 2.7071h6.7559c.1795 0 .3248.1458.3248.3248v10.9606c-.0002.1788-.1454.3247-.3249.3247zm-27.36102-.6495h27.03622v-10.3111h-6.6081c-.1117 0-.2157-.057-.2753-.1522-1.0015-1.5997-2.7129-2.5549-4.5784-2.5549h-4.1133c-1.8655 0-3.5769.9552-4.5784 2.5549-.0596.0952-.1636.1522-.2753.1522h-6.60742z" fill="#6f7bbd"/><path d="m19.7114 23.3076s-.3497-.9745.2332-1.8436l-.3731-.2633s-.5362 1.4486-.0232 2.1069z" fill="#52413f"/><path d="m20.4521 22.6469c-.1356 0-.2918-.0809-.3459-.233-.0359-.1005-.0395-.2745.1697-.5139-.3463-.0742-.7398.0059-.7448.0062-.0341.0073-.0671-.0151-.0738-.0483-.0068-.0336.0148-.0667.0484-.0736.0234-.0055.482-.0966.8704.0117.1118-.1058.2635-.2223.4682-.3492.0293-.018.0676-.0092.086.0204.018.0292.0091.0677-.0203.0859-.1717.1063-.3019.2033-.4006.2902.0351.0151.0688.0326.1012.0527.1801.1117.2638.2681.2292.4296-.0344.1605-.183.2974-.3462.3188-.0135.002-.0273.0025-.0415.0025zm-.042-.709c-.2248.2349-.205.3822-.1866.4338.0371.1038.1612.1633.2538.1488.1112-.0146.2167-.1117.2401-.2214.0236-.1098-.0361-.2126-.1729-.297-.0415-.0257-.0868-.0466-.1344-.0642z" fill="#52413f"/><path d="m18.7789 21.9043c.1384.2673-.1579 1.1858-.5991 1.0441-.4413-.1417-.2538-.8544-.2538-.8544s-1.4018.206-1.5666-.5064c-.1648-.7122 1.1078-.6847 1.4527-.5211 0 0-.2981-.655.2793-.6906s.8398.6068.5524 1.1171z" fill="#9ab52c"/><path d="m17.6579 21.4749c-.0038-.0039-.0064-.0094-.0069-.0151-.0012-.0139.009-.0262.0229-.0274.0347-.0031.8588-.0712 1.2892.2068.4352.281.426.5786.4254.5911-.0009.0138-.0126.0245-.0264.0239-.0139-.0007-.0249-.0125-.0241-.0264.0002-.0026.006-.2823-.402-.5462-.4163-.2688-1.2494-.1998-1.2577-.1991-.0081.0007-.0155-.0023-.0204-.0076z" fill="#52413f"/><path d="m17.5046 20.7504c.1178-.2089-.3991-.525-.5118-.2578-.1124.2669.3404.5617.5118.2578z" fill="#9ab52c"/><g fill="#49647a"><path d="m20.3071 27.412c0-.4864-.3016-.8808-.6735-.8808s-.6736.3944-.6736.8808c0 .4865.3015.8808.6736.8808.3719 0 .6735-.3943.6735-.8808z"/><path d="m20.3071 24.0615c0-.4865-.3016-.8808-.6735-.8808s-.6736.3943-.6736.8808c0 .4864.3015.8807.6736.8807.3719 0 .6735-.3943.6735-.8807z"/><path d="m21.8963 24.0615c0-.4865-.3016-.8808-.6735-.8808-.3721 0-.6735.3943-.6735.8808 0 .4864.3016.8807.6735.8807s.6735-.3943.6735-.8807z"/><path d="m18.684 24.0615c0-.4865-.3015-.8808-.6736-.8808-.3719 0-.6735.3943-.6735.8808 0 .4864.3016.8807.6735.8807.3721 0 .6736-.3943.6736-.8807z"/><path d="m21.1707 25.7543c0-.4864-.3016-.8808-.6735-.8808s-.6735.3944-.6735.8808c0 .4865.3016.8808.6735.8808s.6735-.3943.6735-.8808z"/><path d="m19.4095 25.7543c0-.4864-.3016-.8808-.6735-.8808s-.6735.3944-.6735.8808c0 .4865.3016.8808.6735.8808s.6735-.3943.6735-.8808z"/></g><path d="m17.7338 23.987c.1082 0 .1958-.1005.1958-.2245 0-.1239-.0876-.2244-.1958-.2244-.1081 0-.1957.1005-.1957.2244 0 .124.0876.2245.1957.2245z" fill="#fff"/><path d="m19.3227 23.987c.1081 0 .1958-.1005.1958-.2245 0-.1239-.0877-.2244-.1958-.2244s-.1957.1005-.1957.2244c0 .124.0876.2245.1957.2245z" fill="#fff"/><path d="m21.1425 23.7627c0-.1239-.0877-.2246-.1958-.2246s-.1957.1005-.1957.2246.0876.2246.1957.2246c.1081-.0002.1958-.1007.1958-.2246z" fill="#fff"/><path d="m20.4052 25.5125c0-.1239-.0877-.2244-.1958-.2244s-.1957.1005-.1957.2244c0 .1241.0876.2246.1957.2246s.1958-.1005.1958-.2246z" fill="#fff"/><path d="m18.6323 25.5125c0-.1239-.0877-.2244-.1958-.2244s-.1958.1005-.1958.2244c0 .1241.0877.2246.1958.2246s.1958-.1005.1958-.2246z" fill="#fff"/><path d="m19.3803 27.3146c.1082 0 .1958-.1005.1958-.2244 0-.124-.0876-.2245-.1958-.2245-.1081 0-.1957.1005-.1957.2245 0 .1239.0876.2244.1957.2244z" fill="#fff"/></g><g clip-path="url(#b)"><path d="m7.9998 15.1998c3.9765 0 7.2-3.2235 7.2-7.2 0-3.97645-3.2235-7.199995-7.2-7.199995-3.97645 0-7.199995 3.223545-7.199995 7.199995 0 3.9765 3.223545 7.2 7.199995 7.2z" fill="#ee685c"/><path d="m10.5316 9.62649-1.62636-1.62634 1.62636-1.62635c.0594-.05943.1066-.12998.1387-.20763.0322-.07765.0487-.16087.0487-.24492s-.0165-.16727-.0487-.24492c-.0321-.07765-.0793-.1482-.1387-.20763s-.13-.10657-.2076-.13873c-.0777-.03217-.1609-.04872-.245-.04872-.08401 0-.16723.01655-.24488.04872-.07765.03216-.1482.0793-.20763.13873l-1.62634 1.62635-1.62635-1.62635c-.05943-.05943-.12998-.10657-.20763-.13873-.07765-.03217-.16087-.04872-.24492-.04872s-.16727.01655-.24492.04872c-.07765.03216-.1482.0793-.20763.13873s-.10657.12998-.13873.20763c-.03217.07765-.04872.16087-.04872.24492s.01655.16727.04872.24492c.03216.07765.0793.1482.13873.20763l1.62635 1.62635-1.62635 1.62634c-.05943.05943-.10657.12998-.13873.20763-.03217.07765-.04872.16087-.04872.24488 0 .0841.01655.1673.04872.245.03216.0776.0793.1482.13873.2076s.12998.1066.20763.1387c.07765.0322.16087.0487.24492.0487s.16727-.0165.24492-.0487c.07765-.0321.1482-.0793.20763-.1387l1.62635-1.62636 1.62634 1.62636c.05943.0594.12998.1066.20763.1387.07765.0322.16087.0487.24488.0487.0841 0 .1673-.0165.245-.0487.0776-.0321.1482-.0793.2076-.1387s.1066-.13.1387-.2076c.0322-.0777.0487-.1609.0487-.245 0-.08401-.0165-.16723-.0487-.24488-.0321-.07765-.0793-.1482-.1387-.20763z" fill="#fff"/></g></svg>