<svg fill="none" height="44" viewBox="0 0 44 44" width="44" xmlns="http://www.w3.org/2000/svg"><path d="m21.7251 7.54837c-.067-.00001-.1327-.01839-.19-.05314s-.104-.08453-.135-.14394c-.031-.05942-.0451-.12619-.0408-.19306s.0268-.13129.0651-.18626l1.0157-1.45566-1.6529.95333c-.0768.04427-.167.05925-.254.04216-.0869-.01709-.1647-.0651-.219-.13513-.0543-.07004-.0814-.15737-.0763-.24584.0051-.08846.0421-.17208.1041-.23539l1.6361-1.66467-1.0531.61014c-.078.04409-.1696.05805-.2572.03924-.0877-.01882-.1654-.0691-.2185-.14135s-.0779-.16145-.0697-.25074.0488-.17247.1142-.23382l.8067-.7436-.1907.11c-.0723.04157-.1566.05726-.239.04448-.0824-.01277-.1579-.05326-.2142-.11477s-.09-.14038-.0954-.22359c-.0055-.08321.0176-.16579.0654-.23412l.8873-1.26353c-.0669.00155-.1331-.01458-.1918-.04677s-.1079-.07929-.1426-.13657c-.0485-.08406-.0616-.18389-.0366-.27764.025-.09374.0862-.17375.1701-.22249l1.2202-.704734c.0722-.041273.1563-.056768.2385-.043941.0822.012828.1576.053215.2138.114532s.0899.139919.0955.222904c.0056.082984-.0171.16542-.0645.233772l-.8331 1.185067 1.6376-.94527c.078-.04409.1696-.05805.2572-.03924.0877.01882.1654.0691.2185.14135s.0779.16145.0697.25074-.0488.17247-.1142.23382l-.8067.74213.5016-.28966c.0768-.04428.167-.05925.2539-.04216.087.01709.1648.0651.2191.13513.0543.07004.0814.15736.0762.24583-.0051.08847-.0421.17209-.1041.2354l-1.6382 1.6654.7428-.42827c.0723-.04165.1565-.05744.2389-.04477s.158.05304.2144.11446c.0564.06141.0902.14021.0957.22339.0056.08318-.0173.16579-.065.23419l-1.0142 1.45493.352-.2024c.0838-.04384.1813-.0536.2721-.02725.0909.02635.168.08677.2153.16865.0474.08188.0612.17888.0387.27073-.0225.09186-.0796.17147-.1594.2222l-1.7769 1.02667c-.0556.03255-.1189.04952-.1833.04913z" fill="#604531"/><path d="m25.5092 41.6465c-.0807 0-.1591-.0266-.2232-.0758-.064-.0491-.11-.118-.1309-.196-.0209-.0779-.0155-.1606.0154-.2352.0309-.0745.0855-.1368.1554-.1772l5.5205-3.1863c.0418-.0265.0884-.0444.1372-.0524s.0987-.0061.1468.0057c.048.0117.0932.0331.1327.0628.0396.0296.0727.067.0975.1098.0247.0428.0406.0902.0465.1393.006.0491.002.0989-.0118.1464s-.037.0917-.0683.13c-.0314.0382-.0701.0698-.1139.0927l-5.5205 3.1871c-.0557.0324-.119.0493-.1834.0491z" fill="#bc884a"/><path d="m21.3504 43.5109c-.079 0-.156-.0255-.2193-.0728-.0634-.0472-.1098-.1137-.1323-.1895-.0225-.0757-.0199-.1567.0073-.2309.0273-.0742.0779-.1376.1441-.1807l.9489-.6204-1.3669.789c-.0822.0469-.1794.0601-.2711.037-.0918-.0231-.1711-.0808-.2213-.161-.0502-.0803-.0674-.1768-.0481-.2694.0193-.0927.0737-.1742.1518-.2277l5.3064-3.5867-5.7552 3.3227c-.0827.0495-.1816.0645-.2752.0416-.0937-.0228-.1746-.0816-.2252-.1637-.0506-.082-.0669-.1807-.0453-.2747.0216-.0939.0794-.1756.1607-.2273l4.6765-3.069-5.5 3.1768c-.083.0475-.1813.0606-.2739.0366-.0925-.0239-.1721-.0831-.2216-.1649-.0496-.0818-.0652-.1797-.0436-.2729.0216-.0931.0787-.1742.1592-.2258l2.5858-1.6456-3.3066 1.9067c-.0823.0461-.1792.0588-.2706.0353-.0913-.0235-.1701-.0813-.22-.1613-.0499-.0801-.0669-.1763-.0477-.2687.0193-.0923.0734-.1737.1511-.2272l9.0552-6.0551-10.2667 5.9268c-.0832.0503-.183.0654-.2775.0421-.0944-.0233-.1757-.0832-.2259-.1664-.0503-.0832-.0655-.1831-.0421-.2775.0233-.0944.0831-.1757.1664-.2259l4.3882-2.7706-4.9243 2.8432c-.0827.0462-.18.0586-.2716.0346s-.1704-.0824-.2199-.1632c-.0495-.0807-.0658-.1775-.0455-.27.0202-.0925.0755-.1736.1542-.2262l8.8733-5.7413-9.6066 5.5477c-.0833.0502-.1831.0654-.2775.0421s-.1757-.0832-.226-.1664c-.0502-.0833-.0654-.1831-.0421-.2775s.0832-.1757.1664-.226l6.8017-4.3017-7.26 4.1917c-.0826.0449-.1792.0563-.27.0319s-.1687-.0827-.2177-.1628c-.0491-.0802-.0654-.1761-.0458-.268.0197-.0919.0739-.1728.1514-.2259l10.4332-6.7276-11.0059 6.3536c-.0832.0503-.183.0655-.2775.0421-.0944-.0233-.1757-.0831-.2259-.1664-.0503-.0832-.0655-.183-.0421-.2774.0233-.0944.0831-.1757.1664-.226l8.1473-5.1429-8.4766 4.8958c-.0833.048-.182.0614-.2751.0373-.093-.0241-.1728-.0837-.2223-.1661s-.0647-.1809-.0423-.2744c.0224-.0934.0806-.1743.162-.2253l5.9994-3.7356-6.182 3.5684c-.083.0444-.1799.0551-.2707.0299-.0907-.0251-.1683-.0842-.2166-.165-.0484-.0808-.0638-.1771-.0431-.2689.0207-.0919.0759-.1722.1542-.2245l5.8557-3.6373-5.9737 3.4467c-.083.0456-.1803.0573-.2717.0328s-.16981-.0834-.21878-.1644-.06473-.1778-.04399-.2701c.02075-.0923.0764-.1731.15527-.2253l9.9734-6.2964-10.14497 5.86c-.08281.0472-.18072.0602-.27299.0364s-.17164-.0826-.22131-.1639-.06573-.1788-.04478-.2717c.02095-.093.07726-.1742.15702-.2263l11.65263-7.4793-11.81323 6.82c-.08273.0455-.17982.0574-.27106.0331-.09123-.0243-.16958-.0829-.21872-.1635s-.0653-.1771-.0451-.2693.0752-.1731.15354-.2258l9.78637-6.2898-9.81057 5.665c-.08298.0449-.18011.0562-.27116.0313-.09105-.0248-.16902-.0838-.21767-.1647-.04866-.0809-.06425-.1774-.04355-.2695.02071-.092.07612-.1726.15472-.2248l3.40923-2.1267-3.25377 1.8788c-.08305.0507-.18282.0663-.27737.0434s-.17613-.0825-.22679-.1655c-.05067-.0831-.06627-.1828-.04337-.2774.0229-.0945.08242-.1761.16547-.2268l6.30663-4.0436-6.13357 3.5406c-.08305.0506-.18282.0662-.27737.0433s-.17613-.0824-.22679-.1654c-.05067-.0831-.06627-.1829-.04337-.2774.0229-.0946.08242-.1761.16547-.2268l4.69333-3.0155-4.4374 2.5616c-.08255.0478-.18051.0616-.27307.0384s-.17243-.0816-.22264-.1627c-.05022-.0811-.06682-.1787-.04628-.2718.02053-.0932.07659-.1747.15626-.2273l5.71633-3.795-5.39587 3.1145c-.08222.0469-.17937.0601-.27114.037s-.17104-.0808-.22124-.1611c-.0502-.0802-.06744-.1767-.04811-.2694.01933-.0926.07373-.1742.15183-.2276l4.69333-3.1732-4.31127 2.4875c-.08116.0458-.17671.059-.26724.0369-.09053-.0222-.16924-.0779-.22013-.156-.0509-.0781-.07016-.1726-.05386-.2643.01629-.0918.06691-.1739.14157-.2297l4.94193-3.6028-4.54227 2.6194c-.08131.0475-.17774.0618-.26934.0401-.09159-.0217-.17133-.0778-.22269-.1567s-.07042-.1745-.05323-.2671c.0172-.0925.06933-.1749.1456-.2301l2.77423-2.0247-2.37457 1.3706c-.08126.0462-.17712.0597-.26796.0376-.09085-.0221-.16982-.0781-.22077-.1565s-.07003-.1733-.05334-.2653c.0167-.092.0679-.1741.14314-.2296l.97167-.7069-.57274.3307c-.08012.0466-.17491.0611-.2653.0406-.09038-.0205-.16966-.0744-.22188-.151s-.07351-.1701-.05959-.2617c.01393-.0916.06203-.1746.13464-.2322l.9746-.7795-.56247.3241c-.07541.0432-.16368.0581-.24908.0422-.08541-.0159-.1624-.0616-.21725-.1289-.05486-.0674-.08402-.152-.08228-.2389.00173-.0868.03424-.1703.09175-.2354l.9262-1.0362-.46934.2706c-.06261.0362-.13453.0531-.2067.0485s-.14137-.0304-.1989-.0742c-.05753-.0439-.10082-.1037-.12443-.1721-.0236-.0683-.02647-.1421-.00823-.2121l.20166-.7766c-.06085-.0282-.11281-.0725-.15021-.1282-.03741-.0557-.05882-.1206-.06192-.1875-.00311-.067.01223-.1336.04433-.1925s.07974-.1078.13774-.1415l.36666-.212c.06253-.0363.13438-.0532.20654-.0488.07215.0044.14139.0301.199.0738.05769.0437.10115.1035.1249.1719s.02673.1423.00856.2123l-.14666.5662 1.69183-.9732c.0754-.0431.1636-.058.2491-.0422.0854.0159.1623.0616.2172.129.0549.0673.084.152.0823.2388-.0018.0869-.0343.1703-.0918.2354l-.92617 1.0362 2.77127-1.5994c.08-.0454.1742-.0591.2638-.0383.0896.0207.1682.0744.22.1504.0519.076.0734.1687.0601.2597-.0133.0911-.0603.1738-.1318.2318l-.976.7773 2.4016-1.386c.0813-.0462.1772-.0597.268-.0376s.1698.0781.2208.1565c.0509.0784.07.1733.0533.2653s-.0679.1741-.1431.2296l-.9739.7084 2.2917-1.32c.0813-.0474.1777-.0618.2693-.0401s.1713.0779.2227.1567c.0514.0789.0704.1745.0532.2671-.0172.0925-.0693.1749-.1456.2301l-2.7734 2.024 4.573-2.64c.0813-.0474.1778-.0618.2694-.0401s.1713.0779.2227.1567c.0513.0789.0704.1745.0532.2671-.0172.0925-.0693.1749-.1456.2301l-4.9419 3.6021 7.3076-4.2181c.0823-.0469.1794-.0601.2712-.037.0917.0231.171.0808.2212.1611.0502.0802.0674.1767.0481.2694-.0193.0926-.0737.1742-.1518.2276l-4.6933 3.1717 6.5721-3.7943c.0826-.0478.1805-.0616.2731-.0384.0925.0232.1724.0815.2226.1627.0502.0811.0668.1787.0463.2718-.0205.0932-.0766.1747-.1563.2273l-5.717 3.792 7.6574-4.4205c.083-.0486.1818-.0627.275-.0392.0933.0235.1736.0827.2236.1648.05.0822.0658.1807.0438.2743-.0219.0937-.0797.175-.161.2264l-4.6934 3.0169 6.3126-3.6447c.083-.0506.1828-.0662.2773-.0433.0946.0229.1762.0824.2268.1654.0507.0831.0663.1829.0434.2774s-.0824.1761-.1655.2268l-6.3 4.0421 8.0901-4.6706c.0833-.048.182-.0614.2751-.0373.093.0241.1728.0837.2223.1661s.0647.1809.0423.2743c-.0224.0935-.0806.1744-.162.2254l-3.3983 2.1215 4.7667-2.7514c.0829-.0487.1817-.0627.275-.0392.0932.0235.1735.0827.2235.1648.0501.0822.0658.1807.0439.2743-.022.0937-.0798.1749-.1611.2263l-9.7973 6.2964 11.9936-6.9241c.083-.0486.1818-.0627.275-.0392.0933.0235.1736.0827.2236.1648.05.0822.0658.1807.0438.2743-.0219.0937-.0797.175-.161.2264l-11.6476 7.4741 12.727-7.3443c.0829-.0443.1796-.0551.2701-.0302.0906.0249.1682.0837.2167.1641s.0643.1764.0442.2681c-.0202.0918-.0748.1723-.1526.225l-9.9733 6.2964 9.5949-5.5433c.0833-.0469.1817-.0595.2741-.0349.0924.0245.1715.0841.2206.1662s.0641.18.042.273-.0797.1737-.1605.2249l-5.8556 3.6373 5.4794-3.1636c.0413-.0247.0871-.0411.1348-.0481.0476-.0071.0962-.0047.1429.007s.0907.0325.1293.0612c.0387.0287.0713.0647.0961.1061.0247.0413.0411.0871.0482.1347.007.0476.0046.0962-.0071.1429s-.0325.0907-.0612.1294c-.0287.0386-.0647.0713-.106.096l-6.0053 3.74 5.6283-3.2486c.0829-.0443.1796-.0551.2701-.0302.0906.0249.1682.0837.2167.1641s.0643.1764.0442.2681c-.0202.0918-.0748.1723-.1526.225l-8.1466 5.1406 7.7682-4.485c.0826-.0438.1787-.0543.2687-.0296.0901.0247.1673.0828.216.1626.0486.0797.065.1749.0458.2663s-.0725.1721-.1491.2255l-10.4288 6.7254 10.0467-5.8007c.0829-.0456.1803-.0574.2717-.0329.0914.0246.1698.0835.2187.1645.049.0809.0648.1777.044.2701-.0207.0923-.0764.173-.1553.2253l-6.7994 4.3039 6.421-3.707c.0828-.0471.1808-.0602.273-.0364.0923.0239.1717.0826.2213.164.0497.0813.0658.1787.0448.2717-.0209.093-.0772.1741-.157.2263l-8.8785 5.7427 8.4576-4.8833c.0832-.0502.183-.0654.2774-.0421s.1757.0832.226.1664c.0503.0833.0654.1831.0421.2775s-.0832.1757-.1664.226l-4.3758 2.7624 3.8823-2.241c.0822-.0449.1785-.0566.2691-.0328.0905.0239.1686.0815.218.161.0494.0796.0666.1751.0478.2669-.0187.0917-.0718.1729-.1485.2267l-9.0596 6.0552 8.3146-4.7975c.0831-.0505.1829-.0659.2774-.0427.0945.0231.1759.0828.2264.1659.0504.0831.0658.1829.0427.2774s-.0828.1759-.1659.2264l-2.5799 1.639 1.8509-1.0685c.0826-.0469.1803-.06.2723-.0364.0921.0236.1714.082.2212.1629.0498.081.0663.178.0459.2709-.0204.0928-.076.1741-.1551.2267l-4.6765 3.0705 3.6711-2.1201c.0822-.0469.1794-.0601.2711-.037.0918.0231.1711.0808.2213.1611.0502.0802.0674.1767.0481.2694-.0193.0926-.0737.1742-.1518.2276l-5.313 3.5934 3.8368-2.2147c.0827-.0481.181-.062.2739-.0386.0928.0234.1728.0822.2229.1637.0501.0816.0663.1796.0451.2729-.0212.0934-.078.1748-.1584.2268l-1.4271.9321c.0701-.0058.1403.0081.2028.0403.0625.0321.1147.0812.1507.1415.0487.0842.062.1842.0369.2781-.025.0939-.0863.1741-.1704.2228l-10.802 6.2333c-.0553.0334-.1186.0514-.1833.0521z" fill="#bc884a"/><path d="m11.0564 19.4116c-.0793-.0002-.1564-.0261-.2197-.0738-.0634-.0478-.1095-.1147-.1316-.1909s-.0188-.1575.0092-.2316c.0281-.0742.0794-.1373.1463-.1799l3.0617-1.9433-4.45133 2.5667c-.08222.0449-.1785.0566-.26909.0327-.09058-.0238-.1686-.0815-.21805-.161-.04944-.0796-.06656-.175-.04784-.2668s.07186-.173.14851-.2268l8.4421-5.6364-10.60983 6.1263c-.08286.0509-.18256.0669-.27718.0443-.09462-.0225-.1764-.0817-.22735-.1646-.05096-.0828-.06692-.1826-.04436-.2772.02255-.0946.08177-.1764.16462-.2273l7.1485-4.6589-7.5533 4.3604c-.08302.0475-.1813.0606-.27387.0366s-.17211-.0832-.22166-.1649c-.04955-.0818-.06519-.1797-.04358-.2729.0216-.0931.07875-.1742.15924-.2258l3.28167-2.0856-2.86 1.65c-.08247.0461-.17957.0586-.27104.0349s-.17025-.0818-.21991-.1622-.06636-.1769-.04662-.2693.0744-.1736.15257-.2267l5.5073-3.644-4.56863 2.64c-.08222.0469-.17938.0601-.27114.037-.09177-.0231-.17104-.0808-.22124-.161-.0502-.0803-.06744-.1768-.04811-.2694.01933-.0927.07373-.1742.15182-.2277l3.9923-2.6972-2.64003 1.5239c-.07991.0452-.17387.0587-.2633.038-.08944-.0207-.16784-.0743-.21972-.15s-.07345-.1682-.06046-.2591c.01299-.0908.05959-.1736.13061-.2317l3.2487-2.6114c-.0863.0339-.1823.0338-.2685-.0002-.0863-.034-.1564-.0994-.1964-.183-.04-.0837-.0468-.1794-.019-.2679.0277-.0884.0879-.16309.1685-.20893l4.0561-2.34227c.0801-.04724.1751-.06231.2658-.04216.0908.02014.1705.074.223.15067.0525.07668.074.17045.0601.26235-.014.0919-.0624.17506-.1353.23268l-3.2267 2.59306 7.502-4.33106c.0823-.04686.1794-.06012.2712-.03699.0917.02312.171.08083.2212.16105.0502.08023.0675.17675.0481.26939-.0193.09264-.0737.17422-.1518.22768l-3.9893 2.69573 6.0133-3.47086c.0825-.04613.1796-.05864.271-.03492.0915.02372.1703.08185.22.16224.0496.0804.0663.17687.0466.26928-.0198.09241-.0744.17364-.1526.22673l-5.511 3.64683 7.3055-4.2181c.0828-.04632.1804-.05869.2723-.03451.0918.02417.1706.08302.2199.16415s.0652.17822.0444.27084c-.0208.09263-.0767.17357-.156.22579l-3.2692 2.07827 4.4168-2.55127c.0826-.04696.1803-.06002.2723-.03642.0921.0236.1713.08201.2212.16292.0498.08092.0663.17802.0459.27084s-.076.1741-.1551.22673l-7.1573 4.66326 8.5939-4.95953c.0824-.04688.1798-.06001.2717-.03664s.1711.08142.2211.16198c.05.08055.0669.17734.047.27006-.0198.09272-.0748.17414-.1533.2272l-8.4407 5.63643 9.9205-5.72663c.0827-.0437.179-.05414.2692-.02917.0901.02497.1673.08345.2158.16348.0484.08002.0645.17554.0448.267-.0197.09145-.0736.17193-.1506.22496l-3.0668 1.94626 3.7524-2.16626c.0828-.04813.1811-.06198.2739-.0386.0929.02339.1729.08215.223.16374.05.08159.0662.17953.0451.2729-.0212.09336-.0781.17474-.1584.22676l-5.5682 3.63656 6.3873-3.6879c.0831-.04655.181-.05895.2731-.03458.092.02437.171.08361.2202.16516.0491.08156.0646.17905.0432.27183-.0214.09279-.0781.1736-.1581.22533l-.8492.53606 1.2518-.72306c.0825-.04613.1796-.05864.271-.03492.0915.02373.1703.08185.22.16225.0496.08039.0663.17686.0466.26927-.0198.09241-.0744.17364-.1526.22673l-4.8561 3.20763 5.4736-3.15996c.0816-.04586.1776-.05875.2685-.03605.0908.0227.1695.07927.2199.15813.0505.07886.0689.17403.0514.266s-.0695.17378-.1453.22868l-6.5267 4.6016 7.3334-4.2342c.0817-.0464.1781-.0596.2693-.037.0912.0227.1702.0795.2208.1587.0505.0792.0687.1749.0507.2671-.0179.0922-.0705.1741-.147.2286l-4.9669 3.4819 5.4934-3.1717c.0821-.0461.1788-.0589.2701-.0357s.1701.0806.2202.1604.0675.1758.0487.2681c-.0187.0923-.0723.1738-.1496.2276l-2.5923 1.7644 2.8372-1.6353c.0818-.0464.1782-.0596.2694-.0369.0912.0226.1702.0794.2207.1587.0505.0792.0687.1748.0508.267-.0179.0923-.0706.1741-.1471.2287l-2.5593 1.793 2.7573-1.5914c.0801-.0456.1745-.0595.2643-.0387.0899.0208.1686.0747.2205.1509s.0731.1692.0595.2604-.061.1739-.1329.2317l-3.4048 2.7133 3.6989-2.1354c.0799-.0461.1743-.0603.2642-.0398.09.0204.1689.074.2211.1501.0522.076.0738.169.0605.2603-.0133.0912-.0605.1741-.1322.2322l-1.9961 1.6023 2.0614-1.1895c.0798-.0457.174-.0598.2637-.0394s.1685.0738.2207.1497c.0522.0758.0739.1684.0609.2596-.0129.0911-.0597.174-.131.2322l-.8507.693.7532-.4349c.0769-.0422.1664-.0555.2523-.0374.0859.0182.1624.0665.2157.1363s.0797.1563.0746.244c-.0052.0876-.0416.1705-.1026.2335l-.7436.7458.5485-.3168c.0744-.043.1615-.0586.2461-.044.0847.0146.1615.0585.2172.124.0556.0654.0864.1484.0871.2343.0008.0859-.0287.1693-.0833.2357l-.352.4298c.084.028.1546.0863.198.1635.0485.0841.0616.1839.0366.2776-.025.0938-.0861.1738-.17.2225l-1.2166.7018c-.0744.0427-.1613.0579-.2457.0431s-.161-.0586-.2164-.124-.0862-.1481-.087-.2337c-.0008-.0857.0285-.169.0827-.2354l.1261-.1532-1.221.7047c-.0769.0423-.1665.0555-.2524.0374-.0858-.0181-.1624-.0665-.2156-.1363-.0533-.0697-.0797-.1563-.0746-.2439.0051-.0877.0415-.1705.1026-.2336l.7473-.7451-2.2976 1.32c-.0797.0456-.1737.0595-.2632.0392-.0896-.0204-.1682-.0737-.2204-.1493-.0521-.0756-.0741-.168-.0614-.2589.0127-.091.0591-.1739.13-.2323l.8484-.6908-2.2396 1.2921c-.0799.0461-.1742.0603-.2642.0398-.0899-.0204-.1689-.074-.2211-.1501-.0521-.076-.0737-.169-.0605-.2602.0133-.0913.0605-.1742.1322-.2323l1.9954-1.5972-3.8199 2.2c-.0801.0466-.1749.0611-.2653.0406-.0904-.0204-.1697-.0744-.2219-.151-.0522-.0765-.0735-.17-.0596-.2617.014-.0916.0621-.1745.1347-.2321l3.407-2.709-5.742 3.3147c-.0815.0448-.1771.0569-.2672.0339-.0902-.0231-.1682-.0795-.2183-.1579-.0501-.0785-.0685-.173-.0514-.2645.017-.0915.0682-.1731.1431-.2282l2.5579-1.793-4.1756 2.4082c-.0819.0445-.1777.0562-.2679.0326-.0902-.0237-.168-.0807-.2176-.1597-.0496-.0789-.0673-.1738-.0494-.2653.0178-.0915.0699-.1727.1455-.2272l2.5894-1.76-4.1265 2.3796c-.0815.0448-.1771.0569-.2672.0339-.0902-.023-.1682-.0795-.2183-.1579s-.0685-.173-.0514-.2645c.017-.0915.0682-.173.1431-.2282l4.9684-3.4833-7.1038 4.1c-.0815.0454-.1773.0581-.2678.0353-.0904-.0227-.1689-.0791-.2192-.1576-.0504-.0785-.069-.1733-.0519-.265.017-.0917.0684-.1735.1436-.2287l6.5267-4.6024-9.0428 5.2184c-.0823.0455-.179.0576-.27.0338s-.1693-.0817-.2189-.1617c-.0495-.0799-.0664-.1758-.0472-.2679s.073-.1733.1504-.2268l4.8569-3.2076-6.636 3.8302c-.0829.0456-.1802.0574-.2716.0329-.0915-.0245-.1698-.0834-.2188-.1644s-.0647-.1778-.044-.2701c.0208-.0924.0764-.1731.1553-.2254l.8492-.5368-2.0167 1.1638c-.0825.0455-.1794.0574-.2705.0334-.0911-.0241-.1694-.0823-.2187-.1626-.0494-.0802-.0659-.1764-.0462-.2686.0197-.0921.0741-.1731.1519-.2262l5.5682-3.6359-7.3795 4.2599c-.0556.033-.1188.0507-.1834.0514z" fill="#77543a"/><g fill="#262626"><path d="m24.5829 2.73115c.5706-3.712133-5.0028-3.170934-4.5327 3.5794-4.5041.36667-9.0149 2.101-11.96141 5.63125-1.56274 1.7674-4.92654 7.2542-.5544 7.48-.86607 13.0651 1.7116 18.9171 13.86591 24.1018 12.3845-3.7701 16.2499-11.33 15.0692-24.0717 3.6894-.2977 1.7652-4.5819.3997-6.3976-2.8204-4.27095-7.8261-6.42402-12.8333-6.76282.0184-1.20623.2025-2.4042.547-3.56033zm10.8196 23.76005c-.1584 9.152-5.0798 12.32-12.2466 16.0174-1.5789 1.4146-2.5322-.9533-3.9219-1.3625-9.66901-2.4259-11.46935-13.1868-10.64068-21.7287 8.94668.0587 17.86178-.1232 26.80918.0829.0008 2.3305.0132 4.6603 0 6.9909zm0-13.6789c2.1414 2.9143 4.0854 6.798-1.4754 5.9033-8.9936-.4627-18.5842.8976-27.28738-.4722.58447-12.94338 21.97438-14.90285 28.76138-5.4311zm-14.3-6.56995c.0264-6.7276 3.5743-7.48 1.8964-.0176-.6321-.02127-1.2672-.01173-1.8986.0176z"/><path d="m12.2683 26.3276c-.2662-11.2354-2.94503 4.18 1.6134 8.36.2449.333 1.2679-.0491.979-.44-1.6796-2.2996-2.5872-5.0723-2.5924-7.92z"/></g></svg>