<svg fill="none" height="44" viewBox="0 0 44 44" width="44" xmlns="http://www.w3.org/2000/svg"><path d="m23.5405 43.9992c-.1653 0-.3111-.1081-.3586-.2666-.0473-.1584.0147-.3292.1529-.4199l2.3424-1.5415-3.7538 2.1681c-.1752.0979-.3963.0401-.5011-.131-.105-.1712-.0561-.3943.1106-.5059l2.9909-1.9395-4.234 2.4419c-.1762.1078-.4066.0527-.5144-.1235-.1081-.1759-.0527-.4063.1232-.5144l4.785-3.1056-6.0297 3.481c-.1753.0952-.3943.0356-.4977-.1348-.1037-.1705-.0551-.3922.1102-.5038l3.2822-2.0823-4.1628 2.404c-.1755.0965-.3963.0373-.5-.1342-.1037-.1718-.0537-.3946.1133-.5051l3.2291-2.0344-3.9937 2.3065c-.1752.0965-.3953.0376-.4993-.1328-.1041-.1708-.0555-.3933.1105-.5049l7.0025-4.4862-7.9396 4.5834c-.1749.0935-.3925.0343-.4956-.1355-.1033-.1694-.0557-.3901.1079-.5024l7.9491-5.0913-8.7432 5.0465c-.1755.0937-.3936.0338-.4962-.1366-.1031-.1701-.0545-.3912.1105-.5028l6.2355-3.9348-6.7636 3.9044c-.1766.1068-.4066.0503-.5137-.1263-.1068-.177-.0503-.407.1266-.5137l6.9217-4.373-7.4138 4.2771c-.1759.1007-.4001.0428-.5052-.1307s-.0527-.3991.1181-.5086l7.6514-4.8439-7.9759 4.6047c-.1755.1023-.4004.0455-.5065-.1273-.1064-.1732-.0551-.3994.1153-.5097l10.9541-7.1167-11.3644 6.5592c-.1763.1013-.4008.0435-.5062-.1304-.10576-.1738-.05271-.4008.1194-.5096l7.3092-4.6207-7.41217 4.2788c-.17489.0962-.39428.0383-.499-.1318-.10439-.1697-.05682-.3918.1078-.5044l11.17827-7.2872-11.27546 6.5113c-.17695.1061-.40694.0489-.51304-.1284-.10644-.1773-.04894-.4069.128-.5133l3.9171-2.4389-3.79354 2.1894c-.17455.0934-.39188.0349-.49558-.1342-.10336-.1687-.0575-.3891.10507-.5021l10.66245-6.9302-10.51049 6.0681c-.17524.0979-.39633.04-.50106-.1311s-.05613-.3943.11089-.5058l10.08446-6.534-9.75932 5.6345c-.17694.1065-.40694.0493-.51338-.1276-.10644-.177-.04928-.4066.12766-.5131l4.18674-2.6168-3.73839 2.1582c-.17557.0955-.3953.0356-.49832-.1359-.10301-.1711-.05305-.3932.11329-.5041l3.21512-2.0059-2.56245 1.4788c-.17523.1024-.40009.0456-.50653-.1273-.1061-.1732-.05476-.3994.11568-.5096l9.1213-5.9459-7.99769 4.6122c-.17523.1088-.40591.0547-.51475-.1209-.10883-.1755-.05476-.4059.12082-.5147l9.14902-6.0681-7.1534 4.1303c-.1745.0948-.3929.0366-.4969-.1321-.1044-.1691-.0582-.3902.1051-.5035l5.7525-3.7682-3.826 2.2086c-.1742.0975-.3943.041-.5-.1284-.1054-.1697-.0592-.3925.1054-.5058l5.2255-3.504-3.9089 2.2565c-.1728.0955-.3905.04-.4966-.1267-.1061-.1666-.064-.387.0958-.5031l5.153-3.5813-4.0129 2.3177c-.1746.1014-.3977.0456-.5045-.1256-.1068-.1711-.0585-.3959.1092-.5082l1.944-1.3115-.9429.5435c-.1732.0982-.3926.0438-.4997-.1239-.1071-.1681-.064-.3902.0982-.5055l2.0374-1.4258-.8262.4764c-.1646.0879-.3686.0414-.4788-.1092-.1098-.1506-.092-.3594.0421-.4891l2.7955-2.5152c-.168-.0058-.3118-.1235-.3504-.2871-.0391-.1636.0362-.333.1837-.4141l2.6631-1.5381c.1643-.088.3686-.0414.4788.1092.1099.1506.0921.3593-.0421.489l-2.5788 2.3178 5.159-2.98c.1729-.0982.3926-.0438.4997.1239.1068.1677.0637.3898-.0982.5055l-2.0443 1.4385 2.8315-1.6343c.1742-.0992.3956-.0435.5021.1263.1064.1701.0595.3936-.1058.5069l-1.944 1.3084 2.4433-1.4101c.1729-.0937.3885-.0376.4939.128.1051.166.0644.3851-.0938.5014l-5.1529 3.5813 5.8162-3.3585c.1746-.1009.3977-.0455.5045.1256.1068.1712.0585.3964-.1092.5086l-5.2337 3.5088 5.6824-3.2802c.1746-.0975.3953-.0403.5004.1298.1054.1704.0578.3932-.1078.5058l-5.7488 3.7651 6.0859-3.5139c.1749-.1013.3991-.0452.5055.1267.1064.1721.0568.3976-.1123.5089l-9.1422 6.0688 9.5153-5.4938c.1759-.1082.4062-.0534.5144.1225.1081.1759.0534.4062-.1225.5144l-9.1179 5.9439 9.3547-5.4011c.1766-.102.4021-.0435.5072.1314.1051.1746.0507.4011-.1222.5093l-3.2147 2.009 3.1908-1.8393c.1759-.0951.3956-.0352.4986.1359.1031.1715.0531.3936-.1132.5042l-4.1909 2.6226 4.1802-2.4132c.1756-.0999.3988-.0424.5038.1301.1055.1721.0548.397-.1143.5075l-10.0806 6.5285 10.1792-5.8765c.1749-.0962.3946-.0383.499.1318.1044.1697.0572.3919-.1078.5045l-10.6632 6.9292 10.8186-6.2468c.1773-.1061.4069-.0486.5133.1284.1065.1772.049.4069-.1283.5133l-3.9191 2.441 3.9253-2.2661c.1755-.102.4004-.0455.5065.1277.1061.1728.0548.399-.1157.5092l-11.1782 7.2876 11.5656-6.6773c.1766-.1071.4066-.0503.5138.1263.1067.1766.0503.4066-.1263.5137l-7.3139 4.6228 7.5709-4.3702c.1749-.0962.3943-.0384.499.1317.1044.1701.0568.3923-.1078.5045l-10.9548 7.1178 11.3994-6.5794c.1762-.1006.4004-.0425.5051.1307.1051.1735.0531.3991-.1177.5086l-7.6493 4.8439 7.8742-4.5485c.1759-.0969.3963-.0377.5.1341.104.1715.0537.3943-.1133.5048l-6.9172 4.3709 7.0473-4.0656c.1766-.1067.4066-.0499.5133.1267.1068.1766.05.4066-.1269.5133l-6.2451 3.94 6.2707-3.6193c.1753-.0965.3953-.038.4994.1328.104.1708.0551.3933-.1106.5048l-7.9409 5.0879 7.9252-4.5755c.1752-.0965.3953-.038.4993.1328.1041.1708.0555.3932-.1105.5048l-6.9967 4.4859 6.8635-3.9626c.1753-.0938.3936-.0335.4963.1366.1027.1704.0541.3912-.1105.5027l-3.2463 2.045 2.9122-1.6815c.1759-.1006.4001-.0428.5052.1307.1051.1736.0527.3991-.1181.5083l-3.274 2.0733 2.8859-1.6657c.1756-.102.4004-.0455.5065.1277.1065.1728.0551.399-.1153.5092l-4.7874 3.1066 4.2371-2.4464c.1762-.1078.4065-.0527.5144.1236.1081.1759.0527.4062-.1233.5144l-2.9909 1.9378 2.2999-1.3272c.1756-.1051.4029-.0497.5103.1245.1075.1743.0548.4022-.1177.5117l-2.3441 1.5432 1.5816-.9128c.1745-.1013.3977-.0455.5044.1256.1068.1712.0586.396-.1091.5083l-1.6665 1.1215.5884-.3395c.1684-.0955.3819-.0469.4925.1123.1102.1591.0804.3765-.0685.5004l-2.4111 1.9795c.1444-.0116.283.0603.3566.1855.1027.1787.0414.4066-.1369.51l-3.6381 2.1007c-.1684.0959-.382.0473-.4922-.1119-.1102-.1591-.0808-.3765.0681-.5004l2.2431-1.8392-5.9319 3.4252c-.1745.101-.3977.0455-.5044-.1256-.1068-.1711-.0586-.3963.1088-.5086l1.6763-1.1304-3.3047 1.9087c-.0572.0336-.1222.0507-.1883.0503z" fill="#f5e86f"/><path d="m11.9322 10.3374c-.1629 0-.307-.1057-.3563-.2611-.0489-.15541.0082-.32482.1417-.4186l2.4635-1.73144-3.7384 2.15994c-.1749.104-.4008.0489-.50823-.12389-.10747-.17284-.05716-.39975.11363-.51064l1.4197-.9518-2.21989 1.28138c-.17455.09755-.3953.04039-.50037-.12971-.10541-.17044-.0575-.39324.10781-.50584l1.30465-.85974-1.95424 1.12738c-.17523.09788-.39633.04004-.50106-.13109-.10473-.17112-.05578-.39427.11089-.50584l.38572-.24677-.85529.49353c-.1742.0948-.39222.03765-.4966-.13074-.10473-.16839-.0599-.38948.10267-.50345l2.56654-1.71262-1.57024.90662c-.17181.09583-.38812.04175-.49524-.12321-.10713-.16497-.06777-.38435.08933-.50243l3.64492-2.64012-2.08529 1.2037c-.16873.10028-.38606.0527-.49797-.1085-.11158-.1612-.07975-.38161.07324-.50447l2.13192-1.75404c-.1352-.05065-.2293-.1742-.2417-.31829-.0123-.14375.0592-.28168.1838-.35457l2.9797-1.719473c.1687-.100279.386-.052706.4979.108494.1116.161539.0798.381609-.0736.504479l-1.4952 1.22902 4.415-2.5538742c.1721-.0989105.3919-.04586161.4997.1208142.1081.166676.0671.388797-.0938.505847l-3.6426 2.639783 5.3083-3.065201c.1746-.097883.3946-.04107.5004.128344.1054.169757.0592.39222-.1054.505505l-2.5638 1.711592 3.1918-1.842332c.1749-.096173.3943-.038332.4987.131766.1047.169756.0571.391876-.1078.504476l-.397.25806.5383-.31042c.1746-.09617.3936-.03902.4987.1304.1047.16941.0585.39119-.1054.50447l-1.303.85974 1.2612-.72831c.1746-.09926.3967-.04278.5024.128.1061.17044.0582.39427-.1085.50687l-1.4309.95557 1.061-.61229c.1731-.09823.3925-.04381.4997.12389.1067.16771.0636.38983-.0983.50551l-2.4597 1.72768 1.5042-.86795c.1731-.09822.3925-.04346.4997.12424.1071.1677.064.38982-.0983.50516l-1.1855.83236c.0948.02532.1755.08795.2241.17352.1027.17865.0415.40659-.1369.50995l-6.041 3.48616c-.1729.0982-.3926.0435-.4997-.1242-.1068-.16773-.0637-.38985.0982-.50519l.1427-.0996-1.4094.81349c-.0561.0326-.1201.0497-.1851.05z" fill="#89c053"/><g fill="#262626"><path d="m19.1529 7.31064c1.5213-1.40255 4.0574-4.27335 1.9484-6.27414-1.484-1.410077-4.186-.9928728-5.9589-.545209-4.2617 1.075349-7.14244 4.195999-8.5443 8.314639-.00958.01335-.01266.02978-.00821.04552.00411.0154.01506.02807.03012.03457 4.36399 2.27288 8.83279 1.41248 12.53289-1.57538zm-11.27409 1.3317c-.32891-.50825.54212-1.84747.87034-2.45086.40112-.74748.86521-1.45936 1.38785-2.12777.4141-.52981.8772-1.01923 1.383-1.46244l1.0654-.77691 5.872-1.196168c4.2669.793338 1.5357 5.109458-.2789 6.782038-1.8591 1.68422-4.3356 2.51794-6.8351 2.30061-.7259-.04928-3.03746-.40522-3.46459-1.0685z"/><path d="m33.1003 21.9682c-1.0062-1.8317-1.4884-3.902-2.4625-5.7508-2.8321-5.3706-8.7027-7.8126-13.3385-3.0112-2.6607 2.7562-3.1549 6.4569-5.1167 9.5988-1.7102 2.7377-3.80889 4.9404-4.069 8.3424-.59209 7.7561 5.5797 12.1865 12.5972 12.743 6.2567.4963 13.2787-1.2345 15.9551-7.4768 1.2427-3.7487 1.1965-7.1212-.8926-10.5455-.8211-1.3443-1.9118-2.5169-2.673-3.8999zm2.4847 14.5884c-3.1319 7.2999-13.7078 8.4102-20.2742 5.2851-4.0752-2.0084-6.50243-6.3094-6.11534-10.8357.25052-3.3072 2.32214-5.5328 3.99274-8.1883 1.7061-2.7172 2.228-5.9552 4.2175-8.5378 1.6651-2.1613 1.9026-1.9214 4.8986-2.1904 2.6617-.2386 2.9277-.6109 4.5698.8648 1.6332 1.6045 2.8807 3.5591 3.6484 5.716.832 2.1664 1.9186 4.2264 3.2366 6.1369 2.6497 3.7815 3.3086 7.2731 1.8259 11.7494z"/><path d="m21.0718 14.0287c-.2245.1338-.4418.2762-.6537.4285-.1824.1324-.115.2731.0832.3111.2721.0284.5449-.0448.7663-.2057.1496-.1061.2991-.2077.4525-.2991.1529-.0911.3145-.2293.1136-.3522-.1841-.115-.5996.0202-.7619.1174z"/><path d="m18.2956 16.7317c-1.1027 1.845-1.6739 3.8503-2.5816 5.7837-.9802 2.0884-2.6011 3.7165-3.6477 5.7518-1.8112 3.528-.9675 7.8376 2.0402 10.4223.3029.2625 1.319-.1609 1.0035-.435-3.9469-3.4191-3.3691-8.1764-.6578-12.0435 2.1014-2.9988 3.0025-6.332 4.8596-9.4362.2676-.4521-.8211-.37-1.0162-.0431z"/><path d="m18.7897 39.9568c-.2491-.0643-.4983-.1342-.7474-.2095-.2608-.0421-.5281.0055-.7581.1356-.1041.053-.3635.2197-.1301.2916.2492.0753.4983.1451.7475.2091.2608.0397.5274-.0082.7581-.1359.0951-.0479.371-.2296.13-.2909z"/><path d="m23.3733 10.733c.2265-3.2534 1.5042-6.3453 3.6402-8.81019.4435-.48907-.6027-.56095-.8868-.24676-2.2414 2.55901-3.5902 5.77754-3.8435 9.16995-.0383.4986 1.0569.3142 1.0901-.1106z"/><path d="m25.8018 3.28977c-1.063-1.43266-2.8838-1.83035-4.5779-1.86389-.4217-.0089-1.1469.61605-.4172.63111 1.5117.03217 3.046.39085 3.9903 1.66333.2241.30427 1.2711-.06879 1.0048-.42918z"/></g></svg>