<svg fill="none" height="32" viewBox="0 0 32 32" width="32" xmlns="http://www.w3.org/2000/svg" xmlns:xlink="http://www.w3.org/1999/xlink"><clipPath id="a"><path d="m0 0h32v32h-32z"/></clipPath><g clip-path="url(#a)"><g fill="#f9b835"><path d="m1.84837 31.7183c-.08907 0-.176-.0448-.22667-.1254-.07627-.1221-.04107-.2821.07787-.3626l2.3392-1.5691-3.209602 1.8528c-.125334.0725-.283734.0325-.36-.0896-.076267-.1221-.0416-.2821.077866-.3627l5.406936-3.6293-4.432 2.5584c-.12534.0736-.28427.032-.36054-.0912-.07573-.1227-.03946-.2832.08054-.3627l5.03573-3.2986-3.0592 1.7664c-.12533.0725-.28373.0325-.36-.0902-.07627-.1221-.04107-.2821.0784-.3626l6.46187-4.3131-4.1616 2.4021c-.12533.0726-.28374.0326-.36-.0901-.07627-.1221-.04107-.2821.07786-.3627l6.54777-4.376-4.22403 2.4384c-.12587.0731-.2848.0326-.36107-.0917-.07573-.1227-.03893-.2837.08214-.3632l4.19996-2.7243-2.37863 1.3728c-.12533.0736-.28533.032-.3616-.0922-.0752-.1238-.03734-.2854.0848-.3638l2.47623-1.5808-.9066.5232c-.12536.0731-.28483.0326-.3611-.0917-.07573-.1232-.0384-.2843.08267-.3632l3.97863-2.5755-2.193 1.2662c-.1254.0736-.2859.0325-.3616-.0928-.0752-.1243-.0368-.2859.0853-.3638l1.3867-.8773c-.1142.0411-.2475-.0043-.3142-.1125-.0757-.1232-.0389-.2843.0822-.3632l4.3237-2.8096-2.48 1.432c-.1253.073-.2853.0325-.3611-.0918-.0757-.1242-.0384-.2848.0832-.3632l3.4347-2.2117-1.7349 1.0016c-.1259.0725-.2848.032-.3606-.0912-.0757-.1232-.0394-.2832.0811-.3627l5.0224-3.28903-3.0491 1.76003c-.1253.073-.2848.0325-.361-.0918-.0758-.1232-.0384-.2842.0826-.3632l3.8262-2.47303-2.0651 1.192c-.1259.072-.2843.032-.3595-.0896-.0762-.12213-.0421-.28213.0774-.36266l6.1386-4.128-3.8341 2.21333c-.1259.07253-.2843.03307-.3605-.09067-.0758-.12213-.04-.2832.08-.36266l2.3306-1.53867-.6885.39733c-.1211.072-.2789.0336-.3563-.0848-.0778-.1184-.0496-.2768.0646-.36053l2.752-2.02987-.6816.39307c-.1158.0672-.264.03787-.3451-.0688s-.0709-.25707.0245-.35147l1.9371-1.91893c-.0112-.01227-.0208-.02667-.0293-.0416-.0742-.12747-.0304-.290667.0976-.364267l.8496-.490667c.1152-.067733.2629-.0384.345.0688.0811.106667.071.257067-.0245.351467l-1.3344 1.322137 3.0176-1.742404c.1221-.071467.2795-.0336.3563.0848.0778.1184.0496.2768-.0646.360533l-2.753 2.030931 4.2928-2.471997c.1248-.0736.2837-.033067.3605.090666.0757.122134.04.2832-.08.362667l-2.3296 1.538134 2.8555-1.648534c.1242-.073067.2837-.032533.3594.0896.0763.122133.0422.282134-.0773.362664l-6.136 4.12587 4.5205-2.6096c.1254-.07307.2848-.03253.3611.09173.0757.1232.0384.28427-.0827.3632l-3.8298 2.4752 2.0693-1.19413c.1253-.07253.2848-.032.3605.0912.0758.1232.0395.2832-.081.36267l-5.0224 3.28906 3.049-1.76c.1248-.07306.2854-.03253.3611.09174.0757.12426.0384.2848-.0832.3632l-3.4315 2.20959 1.7307-.99893c.1253-.07306.2848-.03253.3611.0912.0757.1232.0389.28427-.0822.3632l-4.3237 2.80963 2.48-1.43203c.1264-.07306.2869-.03147.3616.0928.0752.12423.0368.28583-.0853.36373l-1.3867.8773c.1147-.04.2475.0043.3141.1131.0758.1232.0384.2843-.0826.3632l-3.9819 2.5776 2.1968-1.2683c.1264-.073.2853-.0314.3616.0923.0752.1237.0373.2853-.0848.3637l-2.4763 1.5808.9067-.5232c.1248-.073.2848-.0325.3611.0918.0757.1226.0389.2837-.0822.3632l-4.1909 2.7189 2.3691-1.3675c.1242-.073.2832-.033.36.0902.0762.1221.041.2821-.0779.3626l-6.5515 4.3787 4.2278-2.4405c.1242-.0726.2837-.0326.36.0901.0762.1221.041.2821-.0784.3627l-6.4619 4.313 4.1616-2.4021c.1253-.0725.2848-.032.3605.0912.0758.1232.0395.2832-.0805.3627l-5.03573 3.2986 3.05923-1.7664c.1242-.073.2837-.0325.36.0896.0762.1222.0416.2822-.0779.3627l-5.40693 3.6293 3.23303-1.8661c.1248-.0731.2838-.0325.36.0896.0763.1221.0416.2821-.0778.3627l-2.34137 1.5706.6528-.3765c.12214-.0725.28-.0336.35787.0864.0768.12.0464.2784-.06933.3616l-1.6352 1.1675c.10506-.0336.2224.0016.29226.0928.08107.1066.07094.257-.02506.3514l-1.8688 1.8432c.01013.0118.01973.0256.02773.0395.07414.1275.0304.2907-.0976.3643l-.8496.4901c-.1152.0672-.26347.0373-.34507-.0693-.08106-.1067-.07093-.2571.02507-.3515l1.25227-1.2347-2.86827 1.6555c-.12373.0715-.28053.0331-.35787-.0864-.0768-.12-.0464-.2784.06934-.3616l1.58026-1.128-2.73013 1.576c-.04213.0245-.088.0357-.13333.0357z"/><path d="m9.97864 11.066c-.08534 0-.16907-.0411-.2208-.1174-.07787-.1157-.0544-.2725.05547-.3589l.59039-.4656c-.0885.0011-.1717-.0352-.2261-.1104-.08-.11094-.0635-.264.0384-.3552l.9434-.84214-.3845.22187c-.1136.06667-.2603.0384-.3429-.0656-.0816-.104-.0758-.2528.0154-.34827l1.2064-1.27306-.8389.48426c-.1157.0688-.2672.03734-.3483-.07306-.08-.10934-.0656-.26187.0342-.35414l.4805-.4416-.2603.14987c-.1178.06987-.2688.0368-.3493-.07467-.0795-.1104-.0635-.26346.0379-.35466l.241-.216-.0784.04533c-.1136.06613-.2586.03947-.3413-.06347-.0821-.10186-.0779-.2496.0107-.34666l.7877-.86507-.7829.45227c-.112.0656-.25549.03946-.33976-.06134-.08267-.10026-.08-.24693.00587-.34453l.75409-.8624-.88156.5088c-.11733.06987-.26827.0368-.34933-.07467-.08-.1104-.06347-.264.0384-.3552l.0288-.0256-.06454.0368c-.1136.0672-.25973.03894-.3424-.06506-.08213-.10294-.07626-.25174.01387-.34774l.56-.59733-.8368.48267c-.1104.064-.25173.04-.336-.05707-.0832-.0976-.08533-.24-.00533-.3408l.74506-.928-1.44746.8352c-.11627.0672-.26614.0368-.34614-.0704-.08106-.10773-.0688-.2592.02827-.35253l.45653-.43787-1.43093.8256c-.128.07413-.2912.0304-.36427-.0976-.07413-.12747-.0304-.29067.0976-.36427l3.33494-1.92533c.1152-.06773.2656-.03733.34613.0704.08107.10773.0688.2592-.02827.35253l-.45653.4384.77496-.44746c.1104-.06507.2512-.04107.336.05706.0832.0976.0853.24.0053.3408l-.74506.928 1.16266-.67093c.1136-.06667.2597-.0384.3424.06507.0821.10293.0763.25173-.0139.34773l-.5594.5968.744-.42933c.1178-.06827.2688-.0368.3493.07466.08.1104.0635.264-.0384.3552l-.0304.0272.0389-.0224c.1126-.0656.2555-.03946.3398.06134.0826.10026.08.24693-.0059.34453l-.7536.86133.8741-.504c.1126-.06666.2582-.04.3414.06347.0821.10187.0778.2496-.0107.34667l-.7883.8656.8182-.47254c.1173-.06826.2688-.0368.3493.07467.0795.1104.0635.26347-.0379.35467l-.2421.21706.1291-.07466c.1173-.06774.2677-.0368.3482.07306.08.10934.0656.26187-.0341.35414l-.4789.44053.3354-.1936c.1136-.06667.2603-.0384.343.0656.0816.104.0757.2528-.0155.34827l-1.2069 1.2736 1.0384-.59947c.1173-.06827.2693-.0368.3493.07467.08.11093.0635.264-.0384.3552l-.9435.84213.6587-.38027c.12-.07146.2752-.0352.3541.08107.0779.11573.0544.27253-.0554.35893l-.4219.3328.0795-.04586c.1274-.07467.2906-.0304.3642.0976.0742.12746.0304.29066-.0976.36426l-3.2736 1.88964c-.0416.0245-.088.0357-.13329.0357z"/><path d="m7.50087 15.6704c-.0848 0-.168-.0406-.21973-.1158-.0784-.1146-.056-.2709.05227-.3584l2.53333-2.0506-4.09867 2.3664c-.12213.0714-.28053.033-.35786-.0864-.0768-.12-.0464-.2784.06933-.3616l2.95467-2.1104-3.75734 2.169c-.11093.0646-.25333.04-.33653-.0576-.0832-.0986-.0848-.2421-.0032-.3418l.8224-1.007-1.44533.8342c-.1136.0661-.2576.0394-.34134-.0635-.08213-.1019-.07786-.2496.01067-.3461l.62453-.687-.952.5494c-.10826.0645-.24853.0421-.3328-.0539-.08373-.0949-.09013-.2352-.01386-.3371l.80266-1.0709-1.168.6741c-.1104.0646-.2512.0406-.33546-.056-.0832-.097-.0864-.2394-.00694-.3402l.83467-1.055-1.0576.6107c-.11627.0683-.26613.0379-.3472-.0715-.08053-.1082-.0672-.2602.03093-.353l.328-.3099-.30133.1739c-.11413.0672-.2608.0389-.34347-.0662-.0816-.104-.07466-.2533.01707-.3488l.71307-.7445-.6992.4032c-.1152.0672-.264537.0373-.345604-.0693-.081067-.1067-.0704-.2571.0256-.3515l.675204-.66346-.579204.33436c-.118933.0704-.271467.0358-.350933-.0773-.079467-.1131-.059734-.26773.0448-.3568l.133866-.1136c-.1056.03627-.224.00107-.2944-.0896-.0816-.10507-.0736-.2544.0192-.34933l1.238931-1.27147-1.033597.5968c-.1168.06934-.269867.0368-.349867-.07573-.08-.11147-.0624-.26507.040533-.35573l1.012801-.88854-.700801.4048c-.121066.07094-.2768.03467-.354666-.08213-.077867-.1168-.0528-.27413.058133-.35947l.5008-.3872-.1248.072c-.125867.07254-.283733.032-.359467-.0896-.076266-.12213-.042133-.28213.077334-.36266l2.023467-1.36054-1.555734.89814c-.123733.07253-.282667.03306-.359467-.08907-.076266-.12213-.042133-.2816.0768-.36267l1.394131-.9456-.80853.46667c-.1216.07093-.27787.0336-.355201-.08267-.077866-.11733-.051733-.27466.060267-.36l2.361064-1.79946-1.27733.73706c-.12053.07094-.2768.03467-.35467-.08213-.07786-.11627-.0528-.2736.05814-.35947l1.14453-.8848c-.02827-.0208-.0528-.048-.07093-.08-.07414-.12746-.0304-.29066.0976-.36426l2.17813-1.25707c.12107-.070933.2768-.034667.35467.082133.07786.116267.0528.2736-.05814.359467l-.18933.14667 1.46507-.84587c.12106-.072.27733-.0336.3552.082667.07786.117333.05173.274666-.06027.36l-2.3616 1.800003 3.57227-2.061337c.1248-.072533.28266-.032533.35946.089067.07627.122133.04214.2816-.0768.362667l-1.39146.944533 1.9264-1.112533c.12426-.073067.28373-.032534.35946.0896.07627.122133.04213.282133-.07733.362663l-4.86293 3.26987c.0032.00427.0064.00853.00906.01227.07787.1168.0528.27413-.05813.35946l-.75147.5808c.0784.00374.15467.04214.20374.11094.08.11146.0624.26506-.04054.35573l-1.01386.88907.36373-.2096c.11413-.06667.26187-.0384.344.0672.0816.10506.0736.2544-.0192.34933l-1.23947 1.27147.80374-.46347c.12-.06987.272-.03573.35146.07733.07894.11307.0592.26774-.04533.3568l-.17707.1504c.09387-.01546.1968.01974.25867.1008.08107.10667.0704.25707-.0256.35147l-.67467.66293.50134-.2896c.11466-.0672.2608-.03893.34346.06614.0816.104.07467.25333-.01706.34879l-.7136.74457.65333-.3766c.11627-.06823.26613-.0373.3472.0715.08053.1083.0672.2603-.03093.3531l-.328.3098.2976-.1712c.10986-.0656.2512-.041.33546.056.0832.0971.0864.2395.00694.3403l-.83467 1.0549 1.08587-.6266c.10933-.0635.24853-.0416.3328.0538.08373.095.09013.2352.01386.3371l-.80213 1.0704 1.3056-.7536c.112-.0667.25707-.0395.34133.0635.08214.1018.07787.2496-.01066.3461l-.62454.6869 1.22667-.7077c.10987-.0656.2528-.0411.33653.0576.0832.0987.0848.2421.0032.3419l-.8224 1.0069 7.26983-4.19733c.1216-.07253.28-.0336.3579.0864.0768.12.0464.27843-.0693.36163l-2.9552 2.1104 2.264-1.3067c.12-.0704.2741-.0347.353.0795.0784.1146.056.2709-.0522.3584l-2.5334 2.0506 1.1856-.6842c.127-.0742.2907-.031.3643.0976.0741.1274.0304.2906-.0976.3642l-4.12479 2.3819c-.0416.0245-.088.0357-.13334.0357z"/><path d="m27.6627 27.727c-.0837 0-.1664-.0395-.2181-.1131-.0789-.113-.0592-.2677.0459-.3573l1.5045-1.2752-.3696.2128c-.1189.0704-.2715.0357-.3509-.0768-.0795-.1125-.0603-.2672.0442-.3568l.7366-.6304-.1787.1024c-.1163.0677-.2651.0379-.3456-.0699-.0811-.1072-.0699-.2581.0267-.352l1.025-.9957-.6192.3573c-.1141.0678-.2624.039-.3445-.0677-.0816-.1051-.0731-.2555.0208-.3499l.8949-.9093-.6565.3792c-.1173.0699-.2704.0357-.3504-.0763-.0795-.112-.0613-.2661.0427-.3562l.1162-.1008c-.0992.0272-.2101-.0064-.2778-.0907-.0827-.1024-.0779-.2501.0112-.3467l.7914-.8618-.7648.441c-.1114.0651-.2528.04-.337-.0581-.0832-.0987-.0843-.2421-.0022-.3419l.8454-1.0277-.9995.5771c-.1136.0672-.2619.0384-.344-.0672-.0816-.1051-.0736-.2544.0192-.3499l.4949-.5067-.6378.368c-.1088.0646-.2486.0422-.3328-.0538-.0838-.0944-.0902-.2347-.0139-.3366l.7989-1.0725-1.3616.7861c-.1152.0667-.264.0374-.3456-.0698-.081-.1067-.0698-.2576.0262-.3515l.4026-.3931-.9029.5216c-.1168.0699-.2704.0368-.3504-.0762-.0795-.1115-.0613-.2656.0421-.3558l.119-.1034-.9355.5402c-.1275.0736-.2907.0304-.3643-.0976-.0741-.1274-.0304-.2906.0976-.3642l3.335-1.9254c.1184-.0682.2709-.0362.3504.0763.0794.1115.0613.2656-.0422.3557l-.1189.1035.3429-.1979c.1152-.0682.264-.0378.3456.0699.0811.1067.0699.2576-.0261.3515l-.4032.393.6432-.3706c.1093-.0635.2491-.0416.3328.0538.0837.0944.0901.2347.0139.3366l-.799 1.0725 1.191-.6875c.1141-.0666.2613-.0384.344.0672.0816.1051.0736.2544-.0192.3499l-.4944.5061.6-.3461c.1109-.0651.2528-.0405.337.0581.0832.0987.0843.2422.0022.3419l-.8454 1.0277.9968-.5754c.1131-.0662.2582-.039.3414.064.0826.1024.0778.2501-.0112.3466l-.7915.8619.808-.4661c.1184-.0683.2709-.0358.3504.0762s.0613.2662-.0427.3563l-.0954.0827c.1066-.0416.2314-.0075.3034.0869.0816.1051.0731.2555-.0208.3499l-.8954.9098.776-.448c.1152-.0688.2645-.0378.3456.0699.081.1072.0698.2581-.0267.352l-1.0256.9963.8165-.4715c.119-.0699.272-.0352.351.0768.0794.1125.0602.2672-.0443.3568l-.7365.6309.4394-.2538c.1195-.0694.2726-.0358.3515.0773s.0592.2677-.0459.3573l-1.505 1.2758 1.1002-.6347c.127-.0747.2907-.0304.3643.0976.0741.1275.0304.2907-.0976.3643l-3.6651 2.1157c-.0416.0245-.088.0357-.1333.0357z"/><path d="m25.4925 31.6857c-.0854 0-.1686-.041-.2203-.1162-.0784-.1158-.0555-.272.0539-.359l2.5866-2.0677-4.073 2.3509c-.1248.0726-.2838.0326-.36-.0901-.0763-.1227-.0411-.2827.0784-.3627l.4426-.2949-.8869.512c-.1125.0661-.2555.0395-.3397-.0613-.0827-.1008-.08-.247.0058-.3446l.8672-.9904-1.5221.8784c-.112.0662-.2571.039-.3403-.0618-.0826-.1014-.0794-.248.0075-.3456l.6752-.76-1.072.6186c-.1157.0672-.2635.0379-.3451-.0688-.081-.1061-.0709-.2565.024-.3509l.408-.4064-.5882.3397c-.1136.0667-.2598.0395-.3424-.065-.0822-.103-.0763-.2518.0138-.3478l.5643-.6021-.7328.4229c-.112.0656-.2555.04-.3387-.0602-.0826-.1003-.0816-.2454.0027-.344l.7557-.8822-.9157.5286c-.1141.0677-.2619.0378-.3445-.0678-.0816-.1056-.0726-.2554.0213-.3504l.5531-.56-.5622.3243c-.1162.0688-.2666.0373-.3482-.0731-.08-.1093-.0656-.2618.0341-.3541l.3003-.2768-.2235.1291c-.1157.0677-.2645.0378-.3456-.0699-.0811-.1067-.0699-.2576.0261-.3515l.6459-.632-.5504.3179c-.1136.0667-.2603.0384-.3429-.0656-.0827-.104-.0752-.2528.016-.3488l1.0634-1.1179-.9322.5382c-.1158.0688-.2672.0373-.3483-.0731-.08-.1093-.0656-.2619.0347-.3541l.88-.8091-.639.3685c-.1184.0704-.272.0358-.3514-.0778-.079-.1131-.0592-.2678.0464-.3568l.7808-.6598-.4678.2699c-.12.0699-.2741.0352-.353-.0795-.0784-.1146-.056-.2704.0517-.3578l1.712-1.391-1.2725.7344c-.1222.0715-.2806.0336-.3574-.0864-.0773-.1194-.0469-.2778.0688-.361l3.3606-2.4059-2.7222 1.5712c-.1242.0731-.2821.0331-.3589-.0885-.0768-.1211-.0437-.2806.0747-.3622l.9818-.6757-.265.1525c-.1168.0694-.2699.0368-.3499-.0757-.0795-.1115-.0624-.2651.0405-.3557l1.7952-1.576c-.105.0144-.217-.032-.2736-.1302-.0741-.1274-.0304-.2906.0976-.3642l2.1782-1.2571c.1184-.0693.2709-.0357.3498.0757.0795.1115.0624.2651-.0405.3558l-1.7275 1.5173 3.752-2.1664c.1248-.0725.2827-.0325.359.0885.0768.1211.0437.2806-.0747.3622l-.9808.6752 1.6197-.935c.1222-.072.2806-.0336.3574.0864.0773.1195.0469.2779-.0688.3611l-3.752 2.6864c.0778.0064.1509.0459.1984.1147.0784.1146.056.2704-.0518.3578l-1.712 1.391.1531-.088c.12-.0699.2725-.0352.3515.0778.0789.1131.0592.2678-.0464.3568l-.7803.6592.1456-.0837c.1173-.0677.2677-.0368.3483.0731.08.1093.0656.2618-.0347.3541l-.8789.8085.4352-.2517c.1141-.0672.2602-.0389.3429.0656.0821.104.0752.2528-.016.3488l-1.064 1.1189.7835-.4522c.1146-.0683.2634-.0379.3456.0698.081.1067.0698.2576-.0262.3515l-.6448.6309.4816-.2778c.1168-.0678.2678-.0368.3483.073.08.1094.0656.2619-.0341.3542l-.3003.2768.1867-.1078c.1152-.0666.2624-.0373.3445.0678.0816.1056.0725.2554-.0213.3504l-.5536.56.5498-.3174c.112-.0656.2555-.04.3387.0603.0827.1003.0816.2453-.0027.344l-.7557.8821.9397-.5424c.1136-.0666.2603-.0389.3424.0651.0822.1029.0763.2517-.0138.3477l-.5643.6022.8027-.463c.1146-.0682.2634-.0384.345.0688.0811.1062.071.2566-.024.351l-.408.4058.7275-.4197c.112-.0661.2571-.0389.3403.0619.0826.1013.0794.248-.0075.3456l-.6747.7594 1.4902-.8602c.1125-.0662.2554-.0395.3397.0613.0827.1008.08.2469-.0059.3445l-.8672.9904 6.736-3.889c.1243-.0731.2832-.0331.36.0901.0763.1221.0411.2827-.0784.3627l-.513.3418c.1104-.0389.2378.0011.3072.1014.0784.1152.0554.272-.0539.3589l-2.5872 2.0683 1.3093-.7558c.127-.0746.2907-.0309.3643.0976.0741.1275.0304.2907-.0976.3643l-4.3643 2.5195c-.0416.0245-.088.0357-.1333.0357z"/></g><g fill="#262626"><path d="m.696349 31.673c1.748271-.0176 4.192531.5786 5.646931-.5515 4.12902-4.7712 8.18022-9.6123 12.29762-14.3941 4.265-4.992 8.5301-9.98457 12.7952-14.97657.9173-.780802.0512-1.7200018-.9638-1.460268-1.5333.190933-3.3984-.480534-4.7146.4704-1.7723 2.072528-3.5424 4.148268-5.3147 6.221338-6.6624 7.8395-13.39945 15.6219-20.049585 23.4677-.3455995.44-.3141329 1.0363.302934 1.223zm.345601-1.0784c8.57067-9.8811 16.91195-20.087 25.60425-29.818172.6859.152 4.9579-.5216 4.3339.604802-3.4053 3.98613-6.8107 7.97227-10.2166 11.95787-5.0464 5.8933-10.0768 11.8133-15.12208 17.7003-.45654.3104-5.492271.5221-4.59947-.4448z"/><path d="m1.17484 12.1612c3.67307 6.7259 12.88586 2.7435 12.54506-4.26556-.8885-13.38026-18.15626-6.7504-12.54506 4.26556zm.61867-7.97916c6.85973-10.64853 16.70509 5.88746 7.256 10.65016-5.99147 2.3296-10.038937-5.91149-7.256-10.65016z"/><path d="m6.79262 13.0552c6.77648-.1851 4.67788-13.113115-1.84747-9.43365-3.40907 2.272-2.6352 9.11735 1.84747 9.43365zm-2.08747-8.43738c5.0816-4.794668 8.20535 7.36058 2.32267 7.92378-3.54507-.3782-4.384-5.51312-2.32267-7.92378z"/><path d="m26.4357 31.4483c6.7482-1.6235 7.2752-12.4774.7514-14.776-11.0336-2.983-12.0448 16.8021-.7514 14.776zm-6.5648-11.1712c6.8213-10.99364 16.9194 5.9952 7.1712 10.6613-5.9184 2.0773-9.7995-5.9648-7.1712-10.6613z"/><path d="m24.9238 29.0466c6.7973-.1147 4.6208-13.1232-1.8421-9.415-3.4096 2.2662-2.639 9.104 1.8421 9.415zm-2.0869-8.4358c5.0586-4.8016 8.2026 7.3387 2.3733 7.944-3.5829-.3328-4.4411-5.5178-2.3733-7.944z"/></g></g></svg>