<svg fill="none" height="44" viewBox="0 0 44 44" width="44" xmlns="http://www.w3.org/2000/svg"><path d="m30.8236 22.8907c-.0641 0-.1266-.0202-.1786-.0576-.052-.0375-.0909-.0904-.1111-.1512-.0203-.0608-.0209-.1265-.0018-.1876.0191-.0612.057-.1148.1083-.1533l1.8286-1.3718-3.0538 1.7639c-.0675.0378-.1469.0486-.2221.0302-.0751-.0184-.1405-.0647-.1828-.1295-.0424-.0647-.0586-.1432-.0453-.2194s.055-.1446.1167-.1913l3.6298-2.6715-4.7347 2.7332c-.0683.038-.1485.0483-.2242.029-.0756-.0194-.141-.0671-.1826-.1332-.0417-.0661-.0564-.1456-.0411-.2222.0152-.0767.0592-.1445.123-.1897l3.4111-2.3386-4.0543 2.338c-.0684.0374-.1486.0472-.2241.0273-.0754-.0199-.1404-.0679-.1816-.1341-.0411-.0663-.0554-.1458-.0398-.2223.0156-.0764.0598-.144.1237-.1888l3.5155-2.349-3.9614 2.2873c-.0686.039-.1497.05-.2262.0305-.0766-.0195-.1426-.0678-.1842-.1349-.0417-.0671-.0557-.1477-.0392-.2249s.0623-.1451.1277-.1892l4.571-3.0447-4.88 2.8168c-.0687.0369-.1489.0461-.2241.0258-.0753-.0204-.1399-.0687-.1806-.1352-.0408-.0664-.0546-.1459-.0386-.2222.0159-.0763.0605-.1436.1245-.1881l4.0542-2.6367-4.2216 2.4376c-.0686.039-.1497.0499-.2262.0305-.0766-.0195-.1426-.0678-.1842-.1349-.0417-.0671-.0557-.1477-.0392-.2249.0165-.0773.0623-.1451.1278-.1893l6.8405-4.5667-7.152 4.13c-.069.0393-.1506.0502-.2274.0303-.0768-.0198-.143-.0688-.1843-.1365-.0414-.0677-.0548-.1489-.0373-.2263.0174-.0774.0643-.145.1308-.1884l4.6308-2.9995-4.604 2.6611c-.0686.0397-.1499.0513-.2268.0321-.077-.0191-.1434-.0674-.1854-.1347s-.0561-.1482-.0395-.2257.0628-.1455.1286-.1896l5.7461-3.8564-5.6025 3.237c-.0684.0406-.1499.0528-.2272.0342-.0772-.0186-.1442-.0665-.1867-.1337-.0424-.0672-.057-.1483-.0407-.2261.0164-.0778.0625-.1461.1284-.1905l5.0804-3.4893-4.6968 2.7076c-.0688.0428-.1518.0566-.2307.0383-.0789-.0184-.1473-.0673-.1901-.1361-.0429-.0687-.0567-.1517-.0383-.2306.0183-.0789.0672-.1473.136-.1902l2.1877-1.4658-1.6264.9381c-.0679.0394-.1483.0511-.2246.0328-.0763-.0184-.1425-.0654-.1851-.1313-.0426-.0658-.0582-.1456-.0435-.2227.0146-.077.0584-.1455.1221-.1912l2.4529-1.7596-1.4738.8502c-.0668.0382-.1456.0499-.2206.0325-.075-.0173-.1407-.0623-.1839-.126s-.0608-.1414-.0492-.2175.0514-.145.1117-.1929l1.4511-1.1428c-.061-.0254-.1117-.0706-.1441-.1282-.0403-.07-.0513-.1532-.0305-.2313.0209-.078.0718-.1447.1417-.1853l2.735-1.57818c.0667-.03755.1452-.04864.2197-.03107.0746.01757.1398.06252.1828.12594.043.06341.0605.14066.0492.21642-.0113.07577-.0507.14451-.1103.19259l-.7781.6108 3.1424-1.81461c.0678-.03935.1482-.05107.2245-.03274.0763.01834.1426.06532.1851.13122.0426.06589.0582.14564.0435.22271-.0146.07707-.0583.14555-.1221.19124l-2.4528 1.76018 4.2967-2.47661c.0687-.04081.1507-.05307.2283-.03413.0776.01893.1448.06755.187.13541s.0561.14956.0387.22757c-.0173.07801-.0645.14611-.1315.18969l-2.1908 1.46587 3.4331-1.98197c.0683-.03905.1491-.05022.2254-.03118.0764.01904.1424.06682.1844.13338.042.06657.0567.14677.041.22388s-.0606.14518-.1253.19002l-5.0803 3.48927 6.6854-3.86c.0685-.03842.1492-.04895.2253-.0294s.1417.06767.1833.13437c.0415.06669.0557.14682.0397.22373s-.0611.14468-.1258.18922l-5.7461 3.85638 7.0989-4.09824c.069-.03926.1505-.05013.2274-.0303.0768.01983.1429.06879.1843.13652s.0548.1489.0373.22632c-.0174.07742-.0643.14501-.1308.18844l-4.6326 3.00066 4.957-2.86262c.0685-.03842.1492-.04895.2253-.0294s.1417.06768.1832.13437.0558.14682.0397.22373c-.016.07691-.0611.14468-.1258.18923l-6.8405 4.56549 6.0905-3.5144c.0688-.0378.1494-.0478.2253-.0277.0759.02.1411.0685.1822.1353.0411.0669.0549.147.0385.2237-.0164.0768-.0617.1443-.1266.1885l-4.0597 2.6397 3.1644-1.8262c.0684-.0374.1486-.0471.2241-.0272.0754.0198.1404.0678.1816.1341.0412.0662.0554.1458.0398.2222s-.0598.144-.1237.1889l-4.5709 3.0452 3.7672-2.1743c.0686-.039.1497-.05.2262-.0305.0766.0195.1426.0678.1842.1349.0417.0671.0557.1477.0392.2249s-.0623.1451-.1278.1893l-3.5149 2.3477 2.8004-1.6161c.0683-.039.149-.0502.2254-.0311.0763.019.1424.0668.1844.1333.042.0666.0566.1468.0409.2239s-.0605.1452-.1252.19l-3.4105 2.3381 2.6672-1.5398c.0675-.0378.1468-.0486.222-.0302s.1405.0647.1829.1295c.0423.0648.0585.1432.0452.2194-.0132.0763-.0549.1446-.1166.1913l-3.631 2.6721 2.6873-1.5501c.0674-.0389.1471-.0506.2229-.0327.0757.0179.1417.064.1846.1289s.0594.1438.0461.2205c-.0133.0766-.0554.1453-.1176.192l-1.8323 1.3724.7451-.4275c.0347-.0221.0736-.0369.1143-.0436.0406-.0067.0822-.0051.1222.0047s.0776.0276.1105.0523c.033.0247.0606.0558.0812.0915.0206.0356.0338.0751.0388.116.0049.0409.0016.0823-.0099.1219s-.0308.0764-.0569.1083c-.0261.0318-.0583.0581-.0948.0772l-5.1378 2.9653c-.047.0275-.1006.0416-.1551.0409z" fill="#7ade8a"/><path d="m12.0664 17.9423c-.0637-.0009-.1256-.0217-.1769-.0595s-.0895-.0908-.1093-.1514c-.0197-.0606-.02-.1258-.0007-.1866.0192-.0608.0569-.114.1079-.1522l2.0064-1.453-2.8706 1.6582c-.068.0399-.1487.0519-.2254.0337-.0766-.0183-.1432-.0655-.1859-.1317-.0427-.0663-.0581-.1465-.043-.2238.0151-.0774.0595-.1459.1239-.1913l2.9182-2.0839-3.6206 2.0901c-.06813.038-.14824.0486-.22389.0294-.07565-.0191-.1411-.0665-.18292-.1324-.04181-.0659-.05682-.1453-.04193-.2219.01488-.0766.05853-.1446.12198-.19l2.99276-2.0809-3.46916 1.9978c-.06869.0384-.14956.0488-.22574.0291-.07618-.0198-.1418-.0682-.18315-.1351-.04136-.067-.05527-.1473-.03883-.2243s.06196-.1446.12707-.1888l.76773-.5045-.92836.5356c-.06876.0399-.15034.0514-.22743.032-.07709-.0193-.14361-.0679-.18543-.1355s-.05565-.1488-.03855-.2264c.01711-.0776.06379-.1455.13015-.1892l1.6674-1.1074-1.78772 1.0322c-.06817.0392-.1488.0505-.22511.0317s-.14243-.0664-.1846-.1327-.05715-.1463-.04181-.2234c.01533-.0771.0598-.1453.12415-.1904l3.81909-2.6587-3.95835 2.2849c-.06859.0397-.14995.0512-.22687.0321-.07693-.0191-.1434-.0674-.18536-.1347s-.05612-.1482-.03948-.2257c.01663-.0775.06275-.1455.12862-.1897l2.2751-1.5269-2.24029 1.2912c-.06838.037-.14828.0465-.22342.0266s-.13986-.0677-.18099-.1337c-.04112-.066-.05553-.1451-.04031-.2213.01522-.0763.05894-.1438.12224-.1889l1.9007-1.2747-1.79504 1.0383c-.06858.0379-.14909.0479-.22488.0281-.07578-.0198-.14105-.068-.18231-.1346s-.05535-.1465-.03935-.2232c.01599-.0767.06084-.1443.12528-.1888l.80193-.5314-.64008.3665c-.06864.039-.14973.0499-.22626.0305-.07653-.0195-.14255-.0678-.18419-.1349-.04165-.0671-.05568-.1477-.03917-.225.01652-.0772.0623-.145.12775-.1892l.68955-.4587-.50388.2908c-.06816.0414-.14985.0546-.22759.0366s-.14536-.0657-.18837-.1329c-.04302-.0672-.05803-.1485-.04182-.2267.01622-.0781.06237-.1468.12858-.1913l2.33067-1.63869-2.15661 1.24599c-.06868.0429-.1516.0568-.23052.0386s-.14737-.0671-.19029-.1357c-.04293-.0687-.05681-.1516-.0386-.2306.01821-.0789.06703-.1473.13571-.1903l.17162-.1154c-.06842.0259-.14386.0263-.21259.0013-.06873-.0251-.12619-.0739-.16192-.13778-.03572-.06384-.04735-.13838-.03276-.21006.01459-.07169.05443-.13575.11227-.18054l2.68004-2.08882-2.52673 1.45973c-.06643.03794-.14467.04957-.21925.03259-.07459-.01698-.14008-.06134-.18354-.12429-.04345-.06295-.06169-.13992-.05112-.21568s.04919-.14479.10821-.19344l1.96728-1.60571-1.8323 1.05785c-.06588.03492-.14226.04453-.21474.02701-.07247-.01751-.13604-.06094-.17871-.12208-.04267-.06115-.06149-.1358-.05292-.20987.00858-.07406.04395-.14244.09946-.19222l.95462-.78423-.8117.46846c-.06198.03584-.13458.04876-.20511.03651-.07054-.01225-.13453-.04889-.1808-.10352-.04626-.05464-.07187-.12379-.07233-.19538-.00047-.07159.02424-.14106.06979-.19629l.98639-1.19771-.97051.56007c-.0602.03462-.13041.04769-.19904.03705-.06863-.01065-.13158-.04436-.17847-.09559-.04689-.05124-.07492-.11692-.07946-.18622s.01467-.13808.05448-.19499l.26385-.37623c-.0649-.00518-.12644-.03096-.17565-.07358-.04922-.04262-.08352-.09985-.09791-.16334s-.00811-.12992.01792-.18959c.02602-.05968.07044-.10947.12676-.14212l.95097-.54846c.0602-.03463.13041-.04769.19904-.03705s.13158.04436.17847.09559.07492.11691.07946.18621c.00454.06931-.01468.13809-.05448.195l-.19178.27362 1.2368-.71582c.06198-.03583.13457-.04875.20511-.0365.07053.01224.13452.04889.18079.10352s.07187.12378.07233.19537c.00047.07159-.02423.14107-.06979.1963l-.98699 1.19832 2.60186-1.50187c.06632-.03713.14408-.04819.21818-.03102.074.01717.139.06134.1822.12387s.0616.13893.0515.21426c-.0102.07534-.048.14419-.1062.1931l-.954.78117 1.8683-1.07861c.0665-.03864.145-.0508.2201-.03406.075.01674.1409.06115.1846.12437s.062.1406.0512.21669-.05.14531-.1096.19383l-1.96969 1.60509 3.04709-1.759c.0671-.03999.1469-.05278.2231-.03574s.1429.06262.1866.12736c.0436.06474.0608.14373.048.22075-.0128.07701-.0546.1462-.1169.19334l-2.6812 2.09004 3.6792-2.12363c.0686-.03975.15-.05128.2269-.03213.0769.01914.1434.06745.1853.13471.042.06726.0562.1482.0395.22571-.0166.07751-.0627.14552-.1286.18964l-.1166.07756.4886-.27973c.0679-.03818.1479-.04893.2236-.03002.0756.0189.1412.06602.1832.1317s.0573.14494.0428.22154c-.0146.0766-.0579.14473-.121.19044l-2.3344 1.6399 2.8908-1.66861c.0686-.03904.1497-.04998.2262-.03052.0766.01947.1426.06782.1842.13491.0417.06709.0557.14771.0392.22492-.0165.07722-.0623.14504-.1278.18923l-.6883.45807.9772-.56556c.0341-.02114.072-.03535.1116-.04183s.0801-.00511.1191.00405c.0391.00916.0759.02592.1085.04933.0326.0234.0602.053.0813.08708.0212.03409.0354.07201.0419.11159.0064.03958.0051.08005-.0041.1191-.0091.03905-.0259.07591-.0493.10848s-.053.06021-.0871.08135l-.8019.53014 1.0322-.5955c.0685-.03841.1492-.04894.2253-.02939s.1417.06767.1832.13436c.0416.0667.0558.14682.0397.22373-.016.07691-.061.14469-.1258.18923l-1.8982 1.27528 2.1309-1.23069c.0686-.03975.15-.05128.2269-.03213.0769.01914.1434.06745.1854.13471.0419.06726.0561.1482.0395.22571-.0167.07751-.0628.14552-.1287.18964l-2.2763 1.52996 2.4357-1.40476c.0682-.03912.1488-.05045.2252-.03163.0763.01881.1424.06632.1846.13265.0421.06632.0571.14635.0418.22344-.0154.07708-.0598.14529-.1242.19042l-3.8197 2.65679 3.984-2.29888c.0686-.03786.1491-.04792.2249-.0281.0758.01983.141.06802.1823.13461s.0554.14649.0394.22318-.0609.1443-.1253.18885l-1.6662 1.10674 1.6191-.93451c.0687-.03734.149-.04696.2245-.02687.0755.02008.1405.06835.1815.13486s.0549.14621.0389.22269c-.0159.07653-.0606.14393-.1248.18843l-.7684.5051.6255-.3603c.068-.0368.1474-.0465.2222-.0271.0749.0194.1396.0665.181.1318.0415.0653.0567.1438.0425.2199-.0142.076-.0567.1438-.119.1897l-2.9927 2.0802 2.7912-1.6112c.0679-.0399.1487-.0519.2253-.0337.0767.0183.1433.0655.186.1317.0427.0663.0581.1465.043.2238-.0151.0774-.0595.1459-.1239.1913l-2.9201 2.0857 2.5255-1.4579c.0678-.0389.1479-.0503.2239-.0319.0759.0184.1419.0652.1844.1307.0425.0656.0583.145.044.2218-.0142.0768-.0574.1453-.1206.1913l-2.0076 1.4542 1.3608-.7855c.0655-.0367.1422-.0481.2156-.0319.0733.0163.1381.059.1819.12.0439.061.0637.136.0557.2107s-.0432.1438-.099.1941l-1.8707 1.6491c.0618-.0108.1255-.0024.1825.0241.057.0264.1045.0695.1363.1237.0403.0701.0511.1533.0302.2314-.021.0781-.072.1446-.142.1851l-2.4974 1.4439c-.0656.0374-.1427.0493-.2165.0332s-.139-.059-.183-.1203c-.044-.0614-.0638-.1369-.0554-.2119.0083-.0751.0442-.1444.1007-.1945l1.8035-1.588-3.8105 2.1988c-.0465.0266-.0992.0403-.1527.0397z" fill="#7ade8a"/><path d="m22.4891 21.4921c-.0641 0-.1266-.0201-.1786-.0576s-.0908-.0904-.1111-.1512-.0209-.1264-.0018-.1876.057-.1148.1083-.1533l4.0921-3.0483-2.1902 1.2643c-.0676.0391-.1477.0507-.2236.0326-.076-.0181-.1421-.0646-.1849-.13-.0427-.0654-.0587-.1447-.0447-.2215.0139-.0769.0568-.1455.1197-.1917l2.3545-1.7303c-.0463-.0268-.0847-.0654-.1114-.1117-.0267-.0464-.0407-.0989-.0407-.1524s.014-.1061.0407-.1525c.0267-.0463.0651-.0849.1114-.1117l3.3696-1.9459c.0676-.0391.1477-.0507.2236-.0326.076.0181.1421.0646.1848.13.0428.0654.0588.1447.0448.2215-.0139.0769-.0568.1455-.1197.1917l-1.2356.9082 1.916-1.1067c.0674-.0383.1469-.0496.2224-.0314.0754.0181.1411.0643.1837.1292.0426.0648.059.1435.0457.2199-.0133.0765-.0552.145-.1171.1917l-4.0922 3.0483 4.091-2.3588c.0697-.0365.1509-.0446.2266-.0227.0756.022.1399.0723.1793.1405s.051.149.0322.2255c-.0187.0765-.0663.1428-.1328.185l-8.6081 4.9686c-.0467.0273-.0998.0414-.1539.0409z" fill="#56aa61"/><path d="m21.573 32.6823c-.0579 0-.1147-.0164-.1636-.0474s-.088-.0753-.1127-.1277c-.0247-.0523-.034-.1107-.0269-.1681.0072-.0575.0306-.1117.0674-.1564l.5668-.6871-.9546.5497c-.0629.0359-.1365.0483-.2076.035-.0712-.0134-.1353-.0515-.1809-.1077-.0457-.0562-.0699-.1268-.0683-.1992s.0288-.1418.0769-.196l1.1348-1.2673-.7549.4354c-.0627.0356-.1359.0478-.2068.0346-.0708-.0132-.1347-.0511-.1803-.1068-.0456-.0558-.07-.1259-.069-.198.0011-.072.0277-.1414.075-.1958l1.1696-1.3217-.7885.4551c-.065.0353-.1406.0458-.2127.0296-.0722-.0162-.136-.058-.1796-.1177-.0437-.0597-.0642-.1332-.0577-.2069.0064-.0736.0393-.1424.0927-.1937l.3145-.2833c-.067.0259-.1411.0273-.2091.004s-.1256-.0698-.1626-.1314c-.0371-.0616-.0513-.1343-.04-.2053.0112-.071.0472-.1357.1015-.1828l.2443-.212c-.0573.0104-.1163.0045-.1703-.0172-.054-.0216-.1008-.0579-.1351-.1049-.0439-.0621-.063-.1384-.0536-.2138.0094-.0755.0465-.1447.1043-.1942l.2363-.2022c-.0585.0145-.12.0113-.1768-.0091-.0567-.0204-.1061-.0572-.142-.1057-.0446-.0601-.0655-.1345-.0589-.209.0067-.0746.0405-.1441.095-.1953l1.2007-1.1275-.9436.5448c-.0669.0378-.1455.049-.2202.0314s-.1401-.0627-.1831-.1263c-.043-.0637-.0604-.1411-.0488-.217.0115-.0759.0513-.1447.1113-.1926l.2651-.2089-.0312.0177c-.0658.0374-.1432.0489-.2171.0325-.0739-.0165-.139-.0598-.1828-.1216-.0437-.0618-.0629-.1376-.054-.2128.009-.0751.0456-.1443.1027-.194l2.5359-2.1755-2.4528 1.4157c-.0681.0386-.1484.0496-.2243.0308-.076-.0189-.1418-.0662-.1839-.1322s-.0572-.1456-.0423-.2224c.0149-.0769.0588-.145.1225-.1905l1.7792-1.2502-1.6705.9638c-.0613.0356-.133.0487-.2029.0372s-.1337-.047-.1803-.1003c-.0467-.0534-.0733-.1213-.0754-.1921-.002-.0708.0206-.1402.0641-.1962l.822-1.0609-.7848.4532c-.0618.0359-.1343.049-.2048.0369s-.1346-.0485-.1809-.103c-.0464-.0544-.0722-.1234-.0729-.1949-.0007-.0716.0237-.1411.0689-.1964l.6963-.8551-.6761.3903c-.0615.035-.1333.0476-.203.0356-.0698-.012-.1332-.0479-.1795-.1015-.0462-.0536-.0724-.1215-.074-.1923-.0017-.0708.0213-.1399.065-.1956l.6926-.8746-.7244.4183c-.0618.0356-.1342.0483-.2044.0361-.0703-.0122-.1341-.0487-.1803-.103-.0462-.0544-.072-.1232-.0727-.1945-.0008-.0713.0234-.1407.0684-.196l.6144-.7513-.6639.383c-.0615.0353-.1335.0481-.2035.0362-.07-.012-.1336-.0479-.18-.1017-.0463-.0538-.0724-.122-.0739-.193s.0218-.1403.0659-.1959l.623-.7806-.7177.4135c-.0597.0328-.1286.0446-.1958.0337-.0673-.0109-.1289-.044-.1752-.094s-.0745-.114-.0802-.1819c-.0057-.0678.0115-.1357.0488-.1927l.753-1.1409-1.0029.5784c-.0624.0356-.1354.0481-.2061.0352-.0708-.0129-.1347-.0504-.1805-.1057-.0458-.0554-.0706-.1252-.0701-.1971.0006-.0719.0265-.1413.0732-.1959l.4501-.5192-.5539.32c-.0608.035-.1318.0481-.201.0369-.0692-.0111-.1325-.0457-.1792-.0981-.0468-.0523-.074-.119-.0773-.1891-.0033-.07.0176-.1391.0592-.1955l.634-.8551-.8764.5051c-.0623.0361-.1352.0491-.2061.0367-.0708-.0125-.135-.0495-.1812-.1046s-.0715-.1248-.0714-.1967c.0001-.072.0257-.1415.0721-.1965l.4776-.5674-.6548.3774c-.0591.0348-.1282.0487-.1962.0394s-.1308-.0412-.1785-.0906c-.0476-.0494-.0772-.1134-.084-.1816-.0068-.0683.0095-.1369.0465-.1947l.6944-1.1269-1.1317.6536c-.0608.0353-.1318.0487-.2013.0378-.0694-.0109-.1329-.0454-.1798-.0977-.047-.0524-.0744-.1193-.0778-.1895-.0033-.0702.0177-.1394.0594-.1959l.5986-.816-.9443.5406c-.0637.0363-.1384.0485-.2104.0343s-.1365-.0538-.1816-.1117c-.0452-.0578-.068-.13-.0643-.2032.0037-.0733.0336-.1428.0844-.1958l.1734-.1796-.3243.1869c-.0616.0354-.1335.0482-.2035.0362-.07-.0119-.1336-.0479-.18-.1017-.0463-.0538-.0725-.122-.0739-.193-.0015-.071.0218-.1403.0659-.1959l.5088-.6377-.8404.485c-.0618.0356-.134.0485-.2043.0364-.0702-.012-.134-.0483-.1804-.1024-.0463-.0542-.0722-.1229-.0732-.1941-.0011-.0713.0228-.1407.0676-.1962l.4923-.6107-.8472.4886c-.0607.0351-.1316.0482-.2008.0371-.0693-.0111-.1326-.0456-.1794-.0978-.0467-.0522-.0741-.1189-.0775-.189-.0034-.07.0174-.1391.0589-.1956l.5692-.7738-1.0505.6059c-.0586.0338-.1268.0471-.1939.0379-.067-.0092-.1291-.0404-.1765-.0887s-.0774-.1109-.0853-.1781.0067-.1352.0416-.1932l.6297-1.0358-.9424.5436c-.0618.0355-.1342.0483-.2045.036-.0703-.0122-.134-.0486-.1802-.103-.0463-.0543-.072-.1231-.0728-.1945-.0008-.0713.0234-.1406.0684-.196l.2859-.3506c-.0707-.0233-.1301-.07204-.1668-.13678-.0403-.07009-.0511-.15329-.0302-.23138.021-.07808.072-.14467.142-.18516l1.0072-.58695c.0618-.03575.1343-.04867.2047-.0365.0704.01216.1344.04864.1807.10307.0464.05442.0723.12343.0731.19498s-.0236.14111-.0689.19653l-.1014.12215.529-.30538c.0586-.03377.1268-.04711.1938-.03793.0671.00919.1292.04038.1766.08868s.0774.11097.0853.17817-.0068.13513-.0416.19311l-.6309 1.04319 1.2826-.74025c.0607-.03505.1316-.04816.2008-.0371.0692.01105.1326.04558.1793.0978.0468.05225.0742.11895.0776.18895s-.0174.1391-.0589.1956l-.568.7732 1.0059-.5808c.0617-.0356.134-.0485.2042-.0364.0703.012.1341.0483.1804.1024.0464.0542.0723.1228.0733.1941s-.0229.1407-.0676.1961l-.4929.6108.8215-.4733c.0615-.0351.1333-.0476.2031-.0355s.1332.0481.1794.1017c.0462.0537.0723.1218.0738.1926s-.0216.1399-.0654.1956l-.5088.6376.8154-.4709c.0638-.0373.139-.0502.2115-.0362.0726.0139.1377.0537.1832.1119.0455.0583.0683.131.0642.2048-.004.0738-.0347.1436-.0864.1965l-.1746.1832.3096-.1789c.0607-.0351.1316-.0483.2008-.0373.0692.0109.1325.0454.1794.0975.0468.0521.0743.1188.0778.1888s-.0172.1391-.0585.1956l-.5986.8154.9217-.5314c.0591-.0351.1283-.0492.1965-.04.0681.0091.1312.041.179.0905.0477.0495.0774.1136.0842.182.0068.0685-.0097.1372-.0469.1951l-.695 1.1268 1.1116-.6413c.0622-.0357.135-.0484.2056-.0358s.1346.0496.1806.1046c.0461.055.0713.1245.0712.1962 0 .0718-.0253.1412-.0714.1961l-.477.5675.6407-.3702c.0607-.035.1317-.048.2009-.0369.0693.0112.1325.0458.1793.0981.0467.0523.074.1191.0772.1892.0033.07-.0176.139-.0592.1955l-.634.8551.8606-.496c.0624-.0356.1354-.0481.2061-.0352.0708.0129.1347.0504.1805.1058s.0706.1252.0701.197c-.0006.0719-.0265.1413-.0732.196l-.4513.521.5497-.3158c.0595-.0342.1288-.0473.1968-.0373.0679.0101.1305.0427.1776.0927.047.05.0759.1144.0819.1828s-.0113.1368-.049.1942l-.7524 1.1415.9961-.5747c.0616-.0353.1336-.0482.2035-.0362.07.0119.1337.0479.18.1017s.0725.122.074.193c.0014.071-.0219.1403-.066.1959l-.626.7836.7134-.4116c.0618-.0356.1342-.0483.2045-.0361.0702.0122.134.0487.1802.103.0462.0544.072.1232.0728.1945s-.0235.1407-.0685.196l-.6144.7482.6633-.3829c.0615-.0351.1333-.0477.203-.0357.0698.012.1332.0479.1795.1015.0462.0536.0724.1216.074.1924.0017.0707-.0213.1399-.065.1956l-.692.8746.7329-.4214c.0619-.0359.1344-.049.2049-.0369s.1345.0485.1809.103c.0464.0544.0721.1234.0729.1949.0007.0716-.0237.1411-.069.1964l-.6969.8551.6889-.397c.0613-.0352.1329-.0481.2026-.0364.0697.0116.1333.0471.1797.1003.0465.0533.0731.121.0752.1917.0021.0706-.0203.1398-.0635.1958l-.8209 1.0596 6.2585-3.6163c.0681-.0386.1484-.0496.2244-.0308.0759.0189.1417.0662.1838.1322s.0572.1456.0423.2224c-.0149.0769-.0588.145-.1225.1905l-2.2494 1.5812c.0607.0038.1188.0256.1671.0626.0482.0371.0842.0877.1035.1454.0193.0576.021.1197.0047.1783-.0162.0586-.0496.1111-.0958.1506l-2.534 2.1743.8917-.5142c.0668-.0378.1454-.049.2202-.0314.0747.0176.1401.0627.1831.1263.0429.0636.0604.1411.0488.217s-.0513.1446-.1113.1925l-.5607.4404c.0588.005.115.0269.1616.0631.0467.0362.0818.0852.1012.1409.0194.0558.0222.116.0081.1734-.0141.0573-.0446.1093-.0877.1497l-1.2007 1.1269.4629-.2669c.066-.0375.1435-.0491.2175-.0326s.1392.06.1829.1219c.0437.062.0629.138.0537.2132-.0092.0753-.0461.1444-.1035.194l-.3561.3054c.0497-.0061.1001.0029.1447.0256s.0814.0583.1057.102c.0442.0619.0637.1379.0548.2134-.0089.0754-.0457.1448-.103.1946l-.3054.2657c.0504-.0018.1005.0087.146.0306.0454.022.0848.0546.1148.0952.0444.061.0646.1362.0568.2112s-.043.1444-.0989.195l-.3335.3005c.0635-.0184.1312-.0157.1931.0078.0618.0234.1143.0662.1497.1221.0354.0558.0517.1216.0465.1875s-.0317.1283-.0754.1779l-1.1696 1.3217.7848-.4526c.0629-.0359.1365-.0483.2076-.035.0712.0133.1353.0515.181.1077.0456.0562.0698.1268.0682.1992s-.0288.1418-.0769.196l-1.1348 1.2673.7604-.4391c.062-.0359.1346-.0488.2051-.0365.0706.0122.1346.0489.1808.1035.0463.0546.0719.1238.0724.1954.0004.0716-.0243.141-.0698.1963l-.5668.6871.1832-.1051c.0541-.0314.1165-.0454.1788-.0401.0624.0052.1216.0294.1696.0694.0481.04.0828.0937.0994.154.0165.0603.0141.1243-.0068.1832l-.1344.378c.0467.0268.0856.0654.1126.1119s.0412.0994.0412.1532-.0142.1067-.0412.1532c-.027.0466-.0659.0852-.1126.1119l-.3359.1936c-.0541.0312-.1164.045-.1786.0397-.0622-.0054-.1212-.0296-.1692-.0696-.048-.0399-.0826-.0936-.0991-.1537-.0166-.0602-.0143-.124.0065-.1829l.0562-.16-.9277.5357c-.0451.0263-.0962.0404-.1484.0409z" fill="#56aa61"/><path d="m15.257 32.9724c-.0672 0-.1325-.0222-.1859-.0631-.0533-.0409-.0916-.0983-.109-.1633-.0174-.0649-.0129-.1337.0128-.1959.0257-.0621.0712-.1139.1294-.1476l1.4555-.8404c.0698-.0365.151-.0446.2266-.0227.0757.022.1399.0723.1793.1405.0395.0682.051.149.0323.2255-.0188.0765-.0664.1428-.1328.185l-1.4555.8411c-.0464.0268-.0991.0409-.1527.0409z" fill="#9b5d49"/><path d="m13.7833 39.9998c-.066.0001-.1302-.0212-.183-.0606-.0529-.0395-.0916-.095-.1103-.1582-.0187-.0633-.0164-.1309.0065-.1927.0229-.0619.0653-.1146.1207-.1504l1.4231-.9211-2.4975 1.4402c-.0684.039-.1494.0501-.2258.0308-.0764-.0192-.1424-.0673-.1842-.1341s-.0562-.1472-.0401-.2244c.0161-.0771.0614-.1451.1264-.1896l4.5582-3.0691-6.2127 3.5864c-.0683.0375-.1484.0474-.2238.0278-.0754-.0197-.1404-.0674-.1818-.1334-.0414-.0661-.0559-.1454-.0407-.2218s.0591-.1441.1226-.1893l5.4688-3.7098-7.32128 4.2265c-.06793.0373-.14751.0474-.22261.0282-.07509-.0192-.14008-.0662-.18179-.1315s-.05702-.1441-.04283-.2203.05682-.1441.11925-.19l5.61906-3.9407-7.71337 4.4543c-.06769.0385-.14752.0497-.22318.0313s-.14143-.065-.18387-.1303c-.04243-.0653-.05832-.1443-.04442-.2209.0139-.0767.05655-.1451.11921-.1913l4.24054-3.0862-5.28556 3.0538c-.06837.0385-.14892.0492-.22494.0298-.07603-.0193-.1417-.0672-.1834-.1336s-.05624-.1464-.0406-.2232c.01565-.0769.06027-.1448.12463-.1897l2.21219-1.5049-2.00026 1.1519c-.06792.0388-.14811.05-.22406.0313-.07594-.0186-.14185-.0656-.18413-.1314-.04229-.0658-.05773-.1453-.04315-.2221.01459-.0768.05808-.1451.12153-.1908l.36035-.2566c-.05346.007-.10782.0001-.15779-.0202-.04998-.0202-.09388-.053-.12744-.0952-.04527-.0584-.0678-.1313-.06342-.2051s.03538-.1435.08724-.1962l1.48172-1.5031c-.07176.0312-.15273.0336-.22622.0068s-.1339-.0808-.16875-.1508c-.03486-.07-.04152-.1508-.0186-.2256s.07367-.1379.14178-.1764l1.91414-1.1055c.06399-.0369.1392-.0493.21167-.035.07248.0143.13731.0544.18249.1128.04518.0585.06764.1313.06322.2051-.00442.0737-.03542.1433-.08726.196l-1.47622 1.4982 3.35493-1.9367c.06792-.0388.14812-.05.22406-.0314.07595.0186.14185.0657.18414.1315.0423.0657.0577.1452.0431.2221-.0145.0768-.058.1451-.12149.1908l-.1759.1221 3.52049-2.0283c.0682-.0371.148-.0468.2231-.0271s.1399.0672.1812.133c.0413.0657.056.1447.0412.2209-.0149.0762-.0582.1439-.1212.1893l-2.2098 1.5055 3.1662-1.828c.0677-.0385.1476-.0497.2232-.0313.0757.0184.1414.065.1839.1303.0424.0653.0583.1444.0444.221s-.0565.145-.1192.1912l-4.2424 3.088 8.7388-5.0449c.0681-.0386.1484-.0496.2244-.0307.0759.0188.1417.0661.1838.1321s.0572.1456.0423.2225c-.0149.0768-.0588.145-.1225.1904l-5.6221 3.9406 8.6008-4.9655c.0685-.039.1494-.05.2258-.0308.0765.0193.1425.0673.1843.1342.0418.0668.0562.1472.0401.2243-.0161.0772-.0614.1451-.1265.1896l-5.47 3.7098 6.5725-3.794c.0685-.0398.1499-.0513.2268-.0322.077.0192.1434.0675.1854.1347.042.0673.0561.1482.0395.2258-.0167.0775-.0628.1455-.1286.1896l-4.5576 3.0685 5.2147-3.0135c.0691-.0423.1522-.0554.2309-.0365.0788.019.1468.0685.189.1375.0423.0691.0554.1522.0365.2309-.019.0788-.0685.1468-.1375.189l-1.4182.9192 3.2095-1.8524c.0684-.037.1483-.0465.2234-.0266.0752.0199.1399.0677.181.1337.0412.0659.0556.1451.0404.2213-.0153.0762-.059.1438-.1223.1889l-4.2143 2.8315 4.9362-2.8516c.0687-.0391.1498-.05.2263-.0306.0765.0195.1425.0679.1842.1349.0416.0671.0557.1477.0392.225-.0166.0772-.0623.145-.1278.1892l-3.0361 2.0192 3.2676-1.8861c.0686-.0397.1499-.0512.2269-.0321.0769.0192.1434.0675.1853.1347.042.0673.0561.1482.0395.2257s-.0627.1455-.1286.1897l-2.6159 1.762 3.9162-2.2598c.0677-.0376.1471-.0482.2222-.0295s.1403.0652.1825.1301c.0421.065.058.1435.0445.2197-.0136.0762-.0556.1445-.1175.1909l-4.4134 3.1919 5.7741-3.3324c.0687-.039.1498-.05.2263-.0305s.1425.0678.1842.1349c.0416.0671.0557.1477.0392.2249-.0166.0773-.0623.1451-.1278.1893l-1.4585.9699 1.8634-1.0756c.0685-.0397.1496-.0513.2265-.0324.0768.019.1432.067.1853.134.0422.0669.0566.1476.0404.2251-.0162.0774-.0618.1455-.1272.19l-1.9362 1.3211 2.2367-1.2918c.0674-.0389.1471-.0506.2228-.0327s.1418.064.1847.129c.0428.0649.0593.1438.046.2204-.0133.0767-.0554.1454-.1176.1921l-3.0624 2.2965 5.001-2.8865c.0678-.0378.1476-.0483.2229-.0294.0754.0189.1407.0659.1827.1313.0419.0654.0574.1443.0432.2207s-.057.1445-.1196.1904l-2.2641 1.6015 3.1149-1.7987c.0677-.0389.1478-.0504.2238-.032.0759.0184.1419.0652.1844.1308.0425.0655.0583.1449.044.2217-.0142.0769-.0574.1453-.1206.1913l-2.2678 1.6411 2.815-1.6258c.068-.0382.148-.049.2237-.0301.0756.0189.1412.0661.1832.1317.042.0657.0573.145.0427.2216-.0145.0766-.0578.1447-.121.1904l-1.0059.7134 1.2331-.7122c.0671-.0385.1463-.0501.2217-.0325.0753.0177.1411.0632.1841.1275.0431.0643.0601.1425.0477.2188-.0124.0764-.0533.1452-.1145.1926l-1.6277 1.2514 1.8152-1.0481c.0658-.0382.1434-.0506.2178-.0347.0744.016.1401.0591.1844.121.0442.0619.0637.1381.0548.2136-.009.0756-.0458.1451-.1033.1949l-1.4897 1.2991 1.5422-.8899c.0656-.0375.1427-.0493.2165-.0332.0737.0161.1389.0589.183.1203.044.0613.0638.1368.0554.2119-.0084.075-.0442.1443-.1007.1945l-.4843.4275.3054-.1765c.0579-.0337.1253-.0471.1917-.0382.0664.009.1278.0398.1747.0877.0476.0479.0779.1102.0863.1771.0084.067-.0056.1348-.0399.193l-.4299.7237c.0663-.0202.1375-.0176.2021.0076.0646.0251.1188.0713.1539.1311.0406.0701.0517.1534.0308.2316-.0208.0782-.0719.1449-.1419.1855l-.94.5424c-.0584.0338-.1264.0473-.1933.0384s-.129-.0398-.1765-.0877c-.0476-.048-.0779-.1103-.0862-.1773s.0058-.1349.0401-.193l.4232-.7152-1.966 1.136c-.0656.0375-.1427.0493-.2165.0332s-.139-.059-.183-.1203-.0638-.1368-.0554-.2119c.0083-.075.0442-.1443.1007-.1945l.4886-.4275-1.5984.921c-.0657.0376-.1429.0494-.2168.0333s-.1392-.0591-.1832-.1206-.0636-.1372-.0551-.2123c.0086-.0752.0447-.1445.1015-.1945l1.4884-1.2979-3.1045 1.792c-.0671.0385-.1463.0501-.2216.0325-.0754-.0176-.1412-.0632-.1842-.1274-.0431-.0643-.0601-.1425-.0477-.2189.0124-.0763.0533-.1451.1145-.1925l1.6301-1.2533-3.0477 1.7596c-.0678.037-.1472.0469-.222.0277-.0749-.0192-.1397-.066-.1813-.1311-.0417-.0651-.0572-.1435-.0433-.2195s.056-.144.118-.1901l1.0084-.7085-2.1224 1.2215c-.0678.0389-.1479.0504-.2238.032-.076-.0184-.142-.0652-.1845-.1308s-.0582-.1449-.044-.2218c.0143-.0768.0574-.1452.1206-.1912l2.2666-1.6405-3.7257 2.1523c-.0679.0378-.1476.0483-.223.0294-.0753-.0189-.1406-.0659-.1826-.1312-.0419-.0654-.0574-.1444-.0432-.2208s.057-.1445.1196-.1904l2.2641-1.6021-3.6646 2.1151c-.0674.0389-.1471.0506-.2228.0327s-.1418-.064-.1847-.1289c-.0428-.0649-.0593-.1438-.046-.2205.0133-.0766.0554-.1453.1176-.192l3.063-2.2965-4.8617 2.8052c-.0683.0391-.1491.0502-.2254.0312-.0764-.019-.1424-.0668-.1844-.1334-.042-.0665-.0567-.1467-.041-.2239.0157-.0771.0606-.1451.1253-.19l1.9349-1.3162-3.1815 1.8323c-.0685.0374-.1487.0472-.2241.0273s-.1404-.0679-.1816-.1341c-.0412-.0663-.0554-.1458-.0399-.2222.0156-.0765.0599-.1441.1237-.1889l1.4659-.973-2.5866 1.4909c-.0678.0389-.1479.0504-.2238.032-.076-.0184-.142-.0652-.1845-.1308s-.0582-.1449-.044-.2218c.0143-.0768.0574-.1452.1206-.1912l4.4122-3.1894-6.413 3.7012c-.0685.039-.1494.0501-.2259.0308-.0764-.0192-.1424-.0673-.1842-.1341s-.0562-.1472-.0401-.2244c.0161-.0771.0614-.1451.1265-.1896l2.6195-1.7639-3.9516 2.2812c-.0685.0384-.1492.049-.2253.0294-.0761-.0195-.1418-.0677-.1833-.1343-.0415-.0667-.0557-.1469-.0397-.2238s.0611-.1447.1258-.1892l3.0355-2.0198-4.3957 2.5377c-.0683.037-.1482.0465-.2234.0266-.0751-.0199-.1399-.0677-.181-.1337-.0411-.0659-.0555-.1451-.0403-.2213s.0589-.1438.1222-.1889l4.2143-2.8303-5.7974 3.3476c-.0469.0279-.1005.0427-.1551.0428z" fill="#9b5d49"/><path d="m37.382 8.38395c-6.2908-1.28261-16.2701 2.26475-13.5125 10.21625-.5837.6681-1.107 1.3868-1.5636 2.1475-.8796-2.2468-2.1074-4.3411-3.6383-6.206 3.6493-7.51487-7.2638-12.08278-13.11434-10.05016-1.11831.99433.22842 2.46749.2608 3.67864.18445 6.07832 3.71528 12.37472 10.51004 8.76872 3.3012 4.0152 4.3517 9.2287 4.0127 14.3151-.5531.1662-1.0821.4042-1.5733.7079-.6803-.3643-1.47-.4685-2.2215-.293-.7515.1754-1.4134.6185-1.8621 1.2464-.8089-.1662-1.646-.1357-2.4407.089s-1.5238.637-2.126 1.2022c-1.17171-.3322-2.42455-.2235-3.5216.3054-1.09706.529-1.96229 1.4415-2.43211 2.5652-.35974.9186-.66512 2.5127.64253 2.8046 9.84308.102 19.70388 0 29.55248.0348 1.7749-.339 5.2923 1.0035 5.8023-1.3876-.0064-.7218-.184-1.4317-.5181-2.0715-.3342-.6398-.8153-1.1911-1.404-1.6088-.5887-.4176-1.2681-.6896-1.9823-.7936-.7143-.104-1.443-.037-2.1263.1955-.5877-.6102-1.329-1.0507-2.1458-1.2752s-1.6791-.2248-2.4961-.0007c-.8098-1.4659-2.5652-1.7102-3.9656-.9999-.5668-.3757-1.1941-.6509-1.8543-.8135-.1142-3.4203-.0684-7.1209 2.0857-9.9695 5.8573 4.723 11.8385-.6279 12.7455-6.9206.6749-2.6367 3.703-5.80775-1.1135-5.88715zm-28.45182 7.18445c-2.25678-2.9079-1.62891-7.03604-2.97687-10.31279-.01588-.79766.71215-.75491 1.2881-.75369 5.27819-.33164 13.03859 2.96832 10.89119 9.39478-2.0101-1.7101-4.7316-6.05633-7.6725-4.50377-.9332.83007-.4183 1.86097.4331 2.43087 1.9443 1.3235 3.6809 2.9291 5.1524 4.7639-1.1069.7254-2.4403 1.022-3.7503.8343-1.3099-.1876-2.50643-.8467-3.36512-1.8536zm16.77402 16.7752c1.1214-.8104 2.4468-.083 2.9757 1.0164 1.7779-.1619 3.4062-.3262 4.7365 1.3235.1099.1221.4623.0128.5753-.0293 2.7643-1.0298 5.2159 1.4518 5.2788 4.1092.201 1.6747-11.3559.3353-13.3079.7421-6.796-.0135-13.6127.0183-20.39957 0-1.32902-.2077-.77934-2.0632-.40982-2.8566.36422-.8711 1.05751-1.5632 1.92921-1.926s1.85135-.3668 2.72604-.0113c.1344.0305.27424.0277.40734-.0079.1331-.0357.2555-.1032.3567-.1967.4646-.5666 1.0939-.9746 1.8007-1.1678.7068-.1931 1.4561-.1617 2.1443.0898.1436.0358.2944.0308.4354-.0145.1409-.0453.2664-.1292.3622-.242 1.2826-2.3252 2.3466-.3054 3.6683-.8301.8718-.6296 1.9249-.9582 3-.9362 1.0752.0221 2.1139.3936 2.9592 1.0584.1942.1459.5949.0006.7616-.121zm-2.5432-7.3633c-.4953 1.9623-.3958 4.0164-.3836 6.0276-.518-.0489-1.0401-.0335-1.5544.0458.3508-3.87-.3739-7.7616-2.0943-11.2459-1.7204-3.4842-4.3695-6.4257-7.6553-8.5001-1.1379-.5613-.5228-2.52248.6889-1.57396 4.4385 2.87416 7.8071 7.12986 9.5854 12.10966.0995.295.7525.1014.8551-.1051 1.5048-2.998 3.9888-5.3918 7.0402-6.785.8356-.1685 1.3382.9534.9119 1.585-1.8738 1.191-4.0518 2.3789-5.2855 4.1721-.9964 1.2585-1.7149 2.7137-2.1084 4.2699zm15.5134-13.5554c-1.8219 6.0552-4.6931 14.8178-12.4193 9.0949 1.2619-1.7712 3.2695-2.6659 5.0126-3.8044.9448-1.1354-.2248-2.4944-1.5178-2.2733-1.9616.7237-3.7324 1.8853-5.1774 3.3965-1.85-6.4253 5.6801-9.64094 10.9937-8.91718 1.6949.13803 5.0016-.03237 3.1082 2.50348z" fill="#262626"/></svg>