<svg fill="none" height="44" viewBox="0 0 44 44" width="44" xmlns="http://www.w3.org/2000/svg" xmlns:xlink="http://www.w3.org/1999/xlink"><clipPath id="a"><path d="m0 0h44v44h-44z"/></clipPath><g clip-path="url(#a)"><path d="m13.368 14.2317c-.0757-.0003-.1495-.024-.2111-.0679-.0617-.0439-.1083-.1059-.1333-.1773-.0251-.0714-.0274-.1489-.0067-.2217s.0634-.1374.1223-.185l2.5901-2.0768-3.8309 2.2103c-.0817.0471-.1783.0609-.2699.0386s-.1711-.079-.222-.1584c-.0508-.0794-.0692-.1753-.0512-.2678.018-.0926.0709-.1746.1478-.2292l1.5958-1.1308-2.1047 1.2159c-.0809.0467-.1766.0608-.2676.0393-.0909-.0215-.1702-.0769-.2217-.1548-.0515-.078-.0712-.1727-.0553-.2647.016-.0921.0665-.1746.1413-.2307l3.8258-2.86435-4.4074 2.54465c-.08159.0459-.17765.0588-.26847.0361s-.16952-.0793-.21997-.1582c-.05045-.0788-.06882-.174-.05136-.266.01747-.0919.06945-.1737.14529-.2286l2.76471-1.94922-2.93998 1.69692c-.08167.0452-.17753.0576-.26801.0346s-.16878-.0797-.21892-.1585c-.05013-.0787-.06834-.1736-.05089-.2654.01744-.0917.06921-.1733.14476-.2282l2.51904-1.75995-2.54178 1.46665c-.08203.0469-.179.0603-.27068.0375-.09168-.0229-.171-.0803-.22141-.1602s-.06802-.1762-.04916-.2688c.01886-.09259.07273-.17432.15039-.22815l1.331-.90493-1.22687.70766c-.08058.04728-.17617.06201-.26725.04119-.09107-.02082-.17077-.07562-.2228-.15321-.05204-.07759-.0725-.17212-.0572-.26428.0153-.09217.0652-.17502.13952-.23163l4.17194-3.21494-4.13748 2.38847c-.08173.04637-.17814.05959-.26933.03694-.0912-.02266-.17022-.07946-.22075-.15869-.05052-.07923-.06871-.17483-.05079-.26707.01792-.09225.07056-.17409.14707-.22865l1.23127-.8624-1.02667.5918c-.08094.04508-.17596.05784-.26593.03572-.08998-.02213-.16824-.0775-.21905-.15497-.05082-.07748-.07042-.17132-.05486-.26266s.06512-.1734.13871-.22969l2.00933-1.49233-1.82306 1.05013c-.08138.04671-.17756.06044-.26875.03837s-.17045-.07825-.22148-.15699c-.05102-.07874-.06991-.17404-.05279-.26629s.06894-.17443.14482-.22962l.53753-.3894-.3146.18113c-.0781.04536-.1702.0603-.25864.04195-.08843-.01835-.16699-.0687-.2206-.14139-.0536-.07269-.0785-.16261-.0699-.25252.00859-.08991.05007-.17348.11647-.2347l2.12154-1.96167-2.0372 1.17333c-.07684.04431-.16714.05926-.25416.04209s-.16486-.06531-.21911-.13549c-.05424-.07018-.08121-.15764-.0759-.24618.0053-.08854.04253-.17215.10477-.23535l1.04133-1.05087-.95993.55367c-.06728.03909-.14526.05576-.22264.0476s-.15016-.04073-.20781-.09299-.09718-.1215-.11287-.19772c-.01569-.07621-.00673-.15544.02558-.22622l.3806-.8316-.02346.01393c-.04172.02446-.08786.04042-.13577.04697s-.09664.00356-.14339-.0088-.0906-.03384-.12901-.06322c-.03841-.02937-.07063-.06605-.09481-.10793s-.03984-.08812-.04607-.13607c-.00623-.04796-.00292-.09667.00975-.14334.01267-.04666.03445-.09036.06407-.12858.02963-.03822.06652-.0702.10856-.0941l1.01713-.586662c.06729-.039087.14526-.055756.22264-.047597.07738.00816.15016.040726.20781.092986.05765.052261.09718.121506.11287.197719.0157.076213.00673.155442-.02558.226225l-.3806.833799 2.33564-1.348599c.0768-.041262.1657-.053849.2509-.035507.0851.018343.161.066417.2139.135608.053.06919.0796.154976.075.241985-.0045.087009-.0399.169555-.0998.232843l-1.03911 1.05307 2.50801-1.447599c.0781-.04536.1702-.060296.2586-.041945.0885.018351.167.068697.2206.141387s.0785.162609.0699.25252c-.0086.089907-.05.173487-.1164.234707l-2.1201 1.9602 3.6608-2.11347c.0814-.0467.1775-.06043.2687-.03836.0912.02206.1705.07825.2215.15699s.0699.17404.0528.26629-.0689.17442-.1448.22961l-.5427.39234 1.1499-.66c.0809-.04508.176-.05784.2659-.03571.09.02212.1683.07749.2191.15496.0508.07748.0704.17132.0548.26266-.0155.09134-.0651.1734-.1387.22969l-2.0049 1.48866 2.7324-1.57666c.0816-.0448.1771-.05691.2673-.03388.0901.02304.1682.0795.2182.15793.0501.07843.0685.17298.0515.26446-.0171.09149-.0682.17307-.1432.22822l-1.232.86387 1.6867-.97314c.0805-.04727.1761-.062.2672-.04118s.1708.07562.2228.15321c.0521.07759.0725.17212.0572.26428s-.0652.17501-.1395.23163l-4.1734 3.21273 4.8987-2.82773c.0821-.04768.1796-.06162.2718-.03887.0922.02274.172.08039.2226.16081.0506.08041.068.17731.0485.27029s-.0742.17478-.1528.22817l-1.3303.90786 1.4601-.84186c.0818-.04697.1786-.06058.2703-.03799.0916.02259.171.07964.2216.15927.0506.07964.0686.17573.0502.26828s-.0718.17445-.149.22864l-2.5198 1.7578 2.6034-1.50187c.0816-.04585.1776-.05875.2685-.03605.0908.0227.1695.07928.2199.15814.0505.07885.0688.17402.0514.26599-.0175.09197-.0695.17378-.1453.22865l-2.7654 1.94994 2.7221-1.5708c.0809-.0467.1766-.06075.2676-.03928.0909.02147.1702.07685.2217.15482s.0712.17265.0553.26471c-.016.09205-.0665.17454-.1412.23061l-3.8244 2.86 3.6198-2.08853c.0815-.04539.1772-.05801.2677-.03529.0905.02273.1689.07909.2193.15761.0504.07851.0689.17329.0519.26501-.0171.09172-.0684.1735-.1437.22867l-1.5979 1.13374 1.1513-.6644c.0799-.04443.1735-.05742.2625-.03642.0889.021.1668.07446.2184.14992.0516.07545.0732.16745.0604.25797-.0127.09051-.0588.17301-.1291.23133l-2.5902 2.07678 1.6955-.9783c.0789-.0452.1718-.0595.2607-.0401.0888.0195.1673.0712.2201.1453.0529.074.0763.165.0658.2554-.0106.0903-.0543.1735-.1227.2334l-1.8414 1.6053c.0288.0262.0536.0566.0733.0902.0486.0842.0618.1843.0366.2782-.0251.094-.0866.1741-.1708.2227l-1.859 1.0736c-.0789.0452-.1718.0595-.2607.0401-.0888-.0194-.1673-.0712-.2201-.1452-.0529-.0741-.0763-.1651-.0658-.2555.0106-.0903.0543-.1735.1227-.2334l.8544-.7473-2.588 1.496c-.0556.0325-.1189.0495-.1833.0491z" fill="#7ade8a"/><path d="m30.7653 17.9104c-.0764 0-.1508-.0238-.213-.0682-.0621-.0443-.1089-.1069-.1338-.1791s-.0266-.1503-.0049-.2235.0657-.1378.1258-.1848l2.9737-2.3284-4.3377 2.5044c-.0823.0461-.1791.0587-.2705.0352-.0914-.0234-.1702-.0812-.22-.1613-.0499-.0801-.067-.1763-.0477-.2686.0192-.0924.0733-.1737.151-.2272l.1914-.1291-.6204.3579c-.0811.0448-.1762.0573-.2661.0348-.0899-.0224-.168-.0781-.2186-.1557-.0505-.0777-.0698-.1717-.0539-.263s.0658-.1732.1397-.2292l4.9691-3.6131-5.7692 3.3308c-.0823.0477-.18.0615-.2724.0386-.0923-.023-.1722-.081-.2225-.1618-.0504-.0807-.0674-.1779-.0474-.271.0199-.0931.0753-.1747.1544-.2277l3.52-2.3686-3.6945 2.1325c-.0408.0256-.0863.0429-.1337.051-.0475.0081-.0961.0067-.1431-.004-.0469-.0108-.0913-.0306-.1306-.0585s-.0727-.0632-.0983-.104-.0429-.0862-.051-.1337c-.008-.0475-.0067-.0961.0041-.1431.0107-.0469.0305-.0913.0584-.1306.0279-.0392.0632-.0726.104-.0982l5.4942-3.7356-5.7758 3.3344c-.0823.0455-.179.0576-.27.0337-.091-.0238-.1693-.0816-.2189-.1616-.0495-.0799-.0664-.1759-.0472-.2679.0192-.0921.073-.1733.1504-.2268l4.4073-2.9208-4.5144 2.6062c-.0825.049-.1809.0637-.2741.041s-.1738-.0811-.2245-.1626-.0674-.1796-.0465-.2732c.0208-.0937.0775-.1755.1579-.2278l4.0092-2.6686-3.8544 2.225c-.0825.0461-.1796.0586-.2711.0349-.0915-.0238-.1702-.0819-.2199-.1623-.0496-.0804-.0663-.1768-.0466-.2693.0197-.0924.0744-.1736.1526-.2267l2.2388-1.4798-1.9066 1.1c-.0821.0461-.1788.0589-.2701.0357s-.1702-.0806-.2202-.1604c-.0501-.0798-.0676-.1758-.0488-.2681s.0724-.1738.1497-.2276l2.398-1.63098-1.884 1.08828c-.082.0469-.179.0603-.2707.0374-.0916-.0228-.171-.0802-.2214-.16013-.0504-.07991-.068-.17621-.0491-.2688.0188-.09259.0727-.17432.1504-.22815l1.1212-.77147-.3835.22c-.0786.04538-.1712.06001-.26.04105-.0887-.01896-.1673-.07015-.2205-.14368-.0531-.07353-.0772-.16417-.0674-.25439s.0527-.17361.1204-.23405l1.9638-1.76c-.0858.0263-.1784.02016-.26-.01724-.0817-.0374-.1468-.10347-.1829-.18567-.0362-.0822-.041-.17482-.0134-.26029s.0856-.15784.163-.2034l2.9627-1.71086c.0779-.04133.1682-.05316.2541-.03332.086.01984.162.07002.2139.14133.052.07131.0765.15897.0691.24689-.0075.08792-.0464.17021-.1096.23176l-1.9338 1.73067 5.3643-3.09687c.0821-.04689.179-.0603.2707-.03744s.171.08024.2214.16015c.0504.07992.068.17622.0492.26881-.0189.09258-.0728.17432-.1504.22815l-1.1257.78393 2.4934-1.43953c.0821-.04617.1788-.05897.2701-.03576.0912.02321.1701.08065.2202.16043.05.07977.0675.17576.0487.26805-.0188.0923-.0724.17382-.1496.22768l-2.3914 1.62873 3.7326-2.15526c.0825-.04613.1796-.05864.2711-.03492.0914.02373.1702.08185.2199.16225.0496.08039.0663.17686.0466.26927-.0197.09242-.0744.17364-.1526.22673l-2.2462 1.47987 3.3352-1.92134c.0825-.049.1809-.06371.2742-.04098.0932.02274.1738.08111.2245.16259.0506.08148.0673.17958.0465.27324s-.0775.17543-.158.22775l-4.004 2.66567 4.8452-2.79767c.0825-.04786.1805-.06166.273-.03845.0926.0232.1725.08157.2227.16271.0502.08115.0668.17867.0463.27186-.0206.09318-.0766.1747-.1563.22722l-4.4103 2.92306 4.1661-2.409c.0824-.05173.1819-.06863.2767-.04697.0949.02166.1772.08011.2289.16247.0518.08237.0687.18192.047.27674-.0217.09483-.0801.17716-.1625.2289l-5.5 3.74 4.2116-2.43247c.0823-.04773.18-.06156.2724-.03858.0923.02299.1721.08099.2225.16175s.0674.17794.0474.27101c-.0199.09306-.0753.17471-.1544.22769l-3.5119 2.36278 2.6128-1.50772c.0813-.04519.1766-.05785.2668-.03541.0902.02243.1685.07829.2191.15626.0506.07798.0697.17226.0534.26378-.0163.09151-.0667.17342-.1411.22917l-4.9698 3.61462 3.9718-2.2931c.0822-.0462.1791-.0588.2705-.0353.0914.0234.1702.0812.22.1613.0499.0801.067.1763.0477.2686-.0192.0924-.0733.1737-.151.2272l-.5867.3953c.0655-.0041.1309.0085.1902.0364.0594.028.1107.0704.1493.1235.0521.0769.073.1707.0586.2624-.0145.0917-.0632.1746-.1363.2318l-2.9773 2.3306 1.79-1.0333c.0789-.0458.172-.0606.2611-.0415.0892.0191.168.0708.2211.1449.0532.0741.0768.1653.0663.2559-.0106.0906-.0544.174-.1231.234l-1.5041 1.32c.07.0188.1329.0579.1807.1125.0477.0545.0783.122.0877.1939s-.0027.145-.0348.21-.0828.1191-.1456.1553l-2.5315 1.4615c-.0788.0458-.1719.0606-.2611.0415-.0891-.0191-.1679-.0708-.2211-.1449-.0531-.0741-.0767-.1653-.0662-.2559s.0544-.174.1231-.2339l1.0905-.9534-3.0786 1.7703c-.0549.0323-.1174.0495-.1811.0499z" fill="#7ade8a"/><path d="m23.5264 15.6977c-.0764-.0001-.1509-.0241-.213-.0685-.0621-.0445-.1088-.1073-.1335-.1796s-.0263-.1505-.0044-.2237.0662-.1377.1265-.1846l3.4767-2.6913c-.0439-.0304-.0805-.0702-.107-.1166-.0486-.0842-.0618-.1843-.0366-.2782.0251-.094.0866-.174.1708-.2227l3.0543-1.75997c.0804-.04504.1749-.05813.2645-.03668.0897.02146.1679.07585.2192.15245.0514.0766.072.1696.0577.2607-.0142.0911-.0622.1735-.1344.2307l-2.2293 1.7256 3.0133-1.7395c.0841-.0479.1838-.0605.2772-.0351.0935.0254.1731.0867.2215.1705.0484.0839.0617.1835.037.2771-.0248.0936-.0856.1736-.1691.2226l-7.708 4.4476c-.0557.0325-.119.0495-.1834.0492z" fill="#56aa61"/><path d="m22.0152 27.4892c-.0651 0-.129-.0174-.1852-.0502-.0562-.0329-.1026-.0801-.1345-.1369-.0318-.0567-.048-.1209-.0469-.186s.0196-.1287.0534-.1842l.6916-1.1338-1.6552.9534c-.0773.0445-.1682.0594-.2557.0418-.0874-.0177-.1655-.0666-.2195-.1377-.0539-.0711-.0801-.1594-.0737-.2484.0065-.089.0452-.1726.1089-.2351l.8214-.8066-.3821.22c-.0765.0441-.1665.0592-.2532.0424-.0868-.0169-.1645-.0645-.219-.1341-.0544-.0696-.0819-.1566-.0773-.2448.0045-.0883.0408-.1719.1022-.2355l1.1132-1.1565-.6659.3843c-.0771.0433-.1673.0574-.254.0394-.0866-.0179-.1639-.0665-.2175-.1369s-.0799-.1578-.0741-.2461.0433-.1715.1056-.2343l1.1968-1.1917-.7597.44c-.0776.0467-.1697.0631-.2586.0459-.0889-.0171-.1683-.0666-.223-.1388-.0546-.0722-.0806-.162-.0729-.2522.0076-.0903.0484-.1745.1145-.2364l2.0144-1.9367-1.7028.9863c-.081.046-.1764.0595-.267.0377s-.1695-.0773-.2206-.1551c-.0512-.0779-.0708-.1723-.0549-.2641.016-.0918.0662-.174.1407-.2301l.4048-.3014-.1533.088c-.0814.0467-.1776.0604-.2688.0384-.0912-.0221-.1704-.0783-.2214-.157-.0511-.0788-.07-.1741-.0528-.2663.0171-.0923.0689-.1744.1448-.2296l5.3746-3.8867-5.3533 3.0903c-.0777.0442-.1687.0586-.2562.0404-.0875-.0181-.1653-.0676-.2189-.1391-.0535-.0715-.0792-.1601-.072-.2491.0071-.0891.0465-.1724.1107-.2345l.0983-.0939c-.0774.0204-.1594.015-.2334-.0156-.074-.0305-.136-.0844-.1765-.1535s-.0572-.1495-.0477-.229.0448-.1537.1005-.2113l.3967-.4128-.2779.1606c-.0725.0421-.1573.0581-.2401.0453-.0829-.0128-.1589-.0536-.2153-.1156s-.0899-.1415-.0949-.2252c-.0049-.0837.019-.1665.0677-.2347l.9394-1.32-1.045.6028c-.0751.0434-.1632.0587-.2486.0433-.0854-.0155-.1626-.0607-.2178-.1277-.0551-.067-.0847-.1513-.0835-.238.0012-.0868.0332-.1703.0901-.2357l.5808-.6644-.5954.3425c-.0766.0436-.1664.0583-.2529.0411-.0865-.0171-.1639-.0648-.2181-.1344s-.0815-.1564-.0768-.2444c.0046-.0881.0408-.1715.1019-.2351l.2427-.2493-.2097.121c-.0745.043-.1617.0584-.2464.0436-.0848-.0148-.1616-.0589-.2171-.1246-.0554-.0657-.0861-.1488-.0865-.2348s.0295-.1694.0843-.2357l.6329-.7619-.7333.4239c-.0728.0418-.1577.0574-.2406.0442s-.1587-.0545-.2148-.1169-.0892-.1421-.0936-.2259.0201-.1666.0694-.2346l.7883-1.0809-1.0267.5911c-.0758.0435-.1646.0586-.2505.0424-.0859-.0161-.1632-.0625-.218-.1306s-.0834-.1536-.0807-.2409c.0027-.0874.0365-.171.0953-.2356l.3916-.4283-.4752.2736c-.0768.0437-.1669.0583-.2536.0409s-.1642-.0655-.2182-.1355-.0809-.1572-.0757-.2455c.0051-.0882.042-.1717.1038-.2349l.1394-.1415-.1797.1034c-.0721.0411-.156.0565-.2379.0437-.082-.0128-.1572-.0529-.2134-.114-.0562-.061-.09-.1393-.0959-.222-.006-.0828.0163-.1651.0632-.2335l.781-1.12347-1.133.65417c-.077.0428-.1669.0564-.2532.0384-.0862-.0181-.1631-.0666-.2165-.1366-.0534-.0701-.0798-.1571-.0744-.245.0055-.088.0424-.171.1041-.23397l.0653-.06527-.1306.07333c-.0744.04261-.1614.05781-.2458.04291-.0844-.01492-.161-.05892-.2163-.12439-.0554-.06546-.086-.14826-.0867-.23399-.0006-.08572.0288-.16897.0832-.23526l.5712-.69447-.825.47667c-.071.04072-.1535.05653-.2345.04491s-.1558-.04999-.2125-.10902c-.0566-.05903-.0919-.13532-.1002-.21672-.0083-.08141.0108-.16325.0544-.2325l.7906-1.24667-1.3134.759c-.0741.04279-.1608.05835-.2451.04397s-.161-.05778-.2167-.1227-.0869-.14727-.0883-.2328c-.0014-.08552.0272-.16884.0807-.23554l.5867-.73333-.7553.4356c-.0725.04135-.1569.05674-.2393.04364-.0825-.01311-.1579-.05393-.214-.11573s-.0894-.14088-.0944-.22417c-.0051-.08329.0184-.16581.0666-.23394l.429-.59987c-.0802-.00091-.158-.02811-.2212-.07744-.0633-.04932-.1087-.11804-.1292-.19562-.0204-.07758-.0149-.15974.0158-.23387s.0849-.13614.1542-.17653l1.2107-.69887c.0726-.04166.1572-.05725.2398-.0442.0827.01306.1583.05398.2145.11598s.0895.14134.0943.22486c.0049.08352-.0189.16619-.0675.23429l-.3571.4994.9782-.56466c.074-.042.1603-.05696.2441-.04234s.1599.05792.2153.12249c.0553.06457.0865.14638.0882.23143.0017.08504-.0262.16803-.079.23475l-.5866.73333.9166-.52286c.071-.04072.1536-.05653.2346-.04492.0809.01162.1557.05.2124.10903s.092.13531.1003.21672c.0083.0814-.0109.16325-.0545.2325l-.7912 1.24667 1.2877-.7436c.0744-.04303.1616-.05854.2463-.04384.0847.01471.1615.0587.217.1243.0556.0656.0863.14862.0869.23458.0005.08596-.0291.16938-.0838.23569l-.572.69447.8111-.46787c.077-.04281.1668-.05644.2531-.03841s.1631.06652.2166.1366c.0534.07008.0798.15706.0743.24501-.0054.08795-.0424.171-.104.23393l-.0646.0638.1188-.0682c.0722-.04135.1562-.05694.2384-.04423.0822.01272.1576.053.2139.11422s.0901.13976.0958.22271c.0058.08296-.0168.16542-.0641.23384l-.7802 1.12277 1.1168-.64464c.0769-.04431.1672-.05926.2542-.04209.087.01718.1648.06531.2191.13549.0542.07018.0812.15764.0759.24618s-.0425.17216-.1048.23536l-.14.1415.1723-.099c.0757-.0431.1643-.05779.2498-.0415.0856.0162.1626.0624.2172.1303.0546.0678.0833.1529.0809.24-.0024.087-.0357.1704-.094.2352l-.3916.429.4672-.2699c.0728-.0426.1581-.0587.2414-.0457.0834.013.1597.0543.2161.117s.0895.143.0937.2272c.0041.0843-.0209.1674-.0709.2354l-.7876 1.0838 1.012-.583c.0745-.043.1617-.0584.2464-.0436s.1615.0589.217.1246.0861.1489.0865.2349c.0005.086-.0294.1694-.0842.2356l-.6336.7619.7333-.4216c.0767-.0443.1668-.0593.2537-.0423.0868.017.1646.0649.219.1348.0543.0699.0815.1571.0766.2455s-.0417.172-.1034.2354l-.2428.2486.2076-.1195c.0752-.0437.1634-.0591.249-.0437s.1629.0607.2181.1278c.0553.0672.0849.1518.0835.2387-.0013.087-.0335.1706-.0908.236l-.5808.6644.5976-.3439c.0724-.0415.1568-.057.2392-.044s.1579.0538.2141.1155c.0561.0617.0896.1407.0947.2239.0052.0833-.0181.1658-.0662.234l-.9386 1.32 1.0545-.6086c.0764-.0442.1663-.0593.253-.0425.0867.0167.1644.0642.2189.1337s.0821.1563.0777.2445c-.0044.0881-.0404.1718-.1015.2355l-.3975.4144.2933-.1694c.0782-.0493.172-.0672.2627-.0502.0908.0169.1719.0675.227.1416s.0802.1662.0703.258c-.0099.0919-.054.1766-.1236.2372l-.0594.0565 8.8872-5.1333c.0814-.0467.1776-.0605.2688-.0384s.1704.0782.2214.157c.0511.0787.07.174.0528.2663-.0171.0922-.0689.1744-.1448.2296l-5.7559 4.1617c.0769 0 .152.0242.2144.0692s.1091.1085.1334.1815c.0244.073.0251.1518.0022.2253-.023.0734-.0684.1378-.13.184l-1.2679.9372c.0596.0201.1131.0552.1553.102.0421.0469.0715.1037.0853.1652.0138.0614.0115.1254-.0067.1857-.0181.0603-.0514.115-.0968.1587l-2.0145 1.9352.5801-.3344c.077-.0428.1669-.0564.2531-.0384.0863.018.1632.0665.2166.1366s.0798.1571.0744.245c-.0055.088-.0424.171-.1041.234l-1.1961 1.1924.4789-.2765c.0765-.0442.1664-.0593.2532-.0424.0868.0168.1645.0644.219.1341.0544.0696.0819.1565.0773.2448-.0046.0882-.0408.1719-.1022.2355l-1.1124 1.1565.6475-.374c.0773-.0446.1682-.0595.2557-.0418.0875.0176.1655.0666.2195.1376.0539.0711.0801.1594.0737.2484-.0065.089-.0452.1726-.1089.2351l-.8206.8067.3865-.22c.0705-.0407.1526-.0568.2332-.0457.0807.0111.1554.0488.2123.107.0569.0583.0928.1338.102.2147s-.0087.1626-.0511.2322l-.6908 1.133.2024-.1166c.0418-.0266.0884-.0444.1372-.0524s.0987-.0061.1468.0057c.048.0117.0932.0331.1327.0628.0396.0296.0727.067.0975.1098.0247.0428.0406.0902.0465.1393.006.0491.002.0989-.0118.1464s-.037.0917-.0684.1299c-.0313.0383-.07.0699-.1138.0928l-1.4476.8367c-.0569.0307-.1209.0457-.1855.0433z" fill="#56aa61"/><path d="m16.9398 43.597c-.0789.0001-.1556-.0253-.2188-.0723-.0633-.047-.1097-.1132-.1324-.1886-.0228-.0755-.0205-.1563.0063-.2304s.0767-.1376.1425-.1811l9.1146-6.0222-11.2589 6.4996c-.0829.0463-.1805.0587-.2723.0345s-.1707-.083-.22-.1641c-.0493-.0812-.0652-.1783-.0444-.2709.0209-.0926.0768-.1736.1561-.2258l7.8606-5.0387-9.0625 5.2301c-.0833.0469-.1817.0595-.2741.035-.0924-.0246-.1716-.0842-.2206-.1663-.0491-.082-.0642-.18-.042-.273.0221-.093.0797-.1737.1605-.2249l2.3019-1.4278-2.8644 1.6537c-.0831.0458-.1808.0575-.2724.0328-.0917-.0247-.1701-.084-.219-.1654-.0488-.0814-.0641-.1785-.0428-.271s.0777-.1731.1573-.2249l2.9824-1.8531-3.4576 1.9954c-.0829.0471-.1808.0602-.273.0364-.0923-.0238-.1717-.0826-.2214-.164-.0496-.0813-.0657-.1787-.0447-.2717.0209-.0929.0772-.1741.157-.2263l9.2627-5.9722-9.9953 5.7706c-.0831.0443-.17998.055-.27071.0299-.09073-.0252-.1683-.0842-.21666-.165-.04835-.0808-.06378-.1771-.04309-.2689.02069-.0919.07592-.1722.15425-.2245l2.70751-1.6866-2.96418 1.7108c-.08324.0503-.18305.0654-.27746.0421s-.1757-.0831-.22597-.1664c-.05028-.0832-.06543-.183-.04212-.2774.02331-.0945.08317-.1757.16642-.226l4.62511-2.9106-4.87738 2.816c-.08276.0481-.18106.062-.27389.0386-.09284-.0234-.17284-.0822-.22293-.1638-.05008-.0816-.06627-.1795-.0451-.2729.02117-.0933.07801-.1747.15839-.2267l7.38251-4.7828-7.67511 4.4315c-.08256.0479-.18051.0617-.27307.0385s-.17243-.0816-.22265-.1627c-.05021-.0812-.06681-.1787-.04628-.2719.02054-.0932.07659-.1747.15626-.2272l7.45145-4.9068-7.64211 4.4118c-.08223.0468-.17938.0601-.27115.037-.09176-.0232-.17104-.0809-.22124-.1611-.05019-.0802-.06743-.1767-.0481-.2694.01933-.0926.07373-.1742.15182-.2277l7.75498-5.2352-7.82978 4.521c-.08235.0477-.18004.0615-.27241.0386-.09236-.023-.17217-.081-.22255-.1618-.05038-.0807-.06738-.1779-.04741-.271.01998-.0931.07536-.1747.15444-.2277l6.50981-4.3868-6.37268 3.6784c-.08228.0461-.17918.0588-.27054.0353s-.17016-.0812-.22002-.1613-.06694-.1763-.04769-.2686c.01925-.0924.07335-.1738.15105-.2272l4.99108-3.3397-4.66768 2.695c-.08287.0464-.18048.0587-.27228.0346-.09181-.0242-.17066-.0831-.21996-.1642-.04931-.0811-.06522-.1782-.0444-.2708.02082-.0927.07676-.1736.15604-.2258l.3498-.2252c-.08368.0209-.17202.0116-.24951-.0263-.07749-.0378-.13916-.1017-.17419-.1805-.03502-.0788-.04115-.1674-.01731-.2503.02385-.0829.07613-.1547.14768-.2029l1.12566-.7333-.5742.3315c-.0818.0441-.17729.0554-.26716.0318-.08986-.0236-.16741-.0805-.21696-.1591s-.06741-.1731-.04996-.2643c.01745-.0913.0689-.1726.14395-.2274l2.86-1.9602-2.04453 1.1748c-.08156.0466-.17785.06-.26903.0377-.09118-.0224-.17032-.0789-.22109-.1579-.05077-.0789-.06931-.1744-.0518-.2666.01751-.0923.06974-.1743.14592-.2292l2.1824-1.5532-.97167.561c-.08016.0451-.17435.0585-.26387.0374s-.16785-.0751-.21944-.1513c-.05159-.0761-.07269-.1688-.0591-.2598.0136-.091.06088-.1735.13248-.2313l1.84653-1.4534c-.06086-.0282-.11281-.0726-.15022-.1282-.0374-.0557-.05882-.1206-.06192-.1876s.01224-.1335.04434-.1924.07974-.1079.13773-.1416l3.20685-1.8524c.0802-.0459.1748-.0599.2648-.0391.0901.0209.169.0749.2209.1514.0519.0764.073.1697.0591.2611-.0139.0913-.0618.1741-.1341.2316l-1.0039.7898 3.2714-1.8883c.0815-.0465.1778-.06.269-.0376s.1703.0789.2211.1578c.0507.079.0693.1744.0518.2667-.0175.0922-.0698.1742-.1459.2291l-2.1788 1.5525 3.6227-2.0908c.0818-.045.1778-.0572.2683-.0339s.1687.0803.2186.1593c.0499.0791.0677.1741.0499.2659-.0179.0917-.0701.1731-.1459.2277l-2.86 1.9587 3.927-2.266c.0825-.0454.1793-.0574.2704-.0333.0911.024.1695.0822.2188.1625.0494.0803.0659.1765.0462.2686-.0197.0922-.0741.1732-.1519.2263l-1.1227.7333 1.7394-1.0039c.0827-.0443.1791-.0552.2696-.0305.0904.0247.168.0831.2167.1632.0487.08.065.1758.0453.2674-.0197.0917-.0737.1723-.151.2254l-.1268.0821.6035-.3483c.0825-.049.1809-.0637.2741-.041.0932.0228.1738.0811.2245.1626s.0674.1796.0466.2733c-.0209.0936-.0776.1754-.158.2277l-4.9991 3.344 5.9165-3.4151c.0823-.0477.18-.0616.2724-.0386s.1722.081.2225.1618c.0504.0807.0674.1779.0475.271-.02.093-.0754.1747-.1545.2276l-6.512 4.3868 7.7308-4.463c.0822-.0469.1794-.0601.2712-.037.0917.0231.171.0808.2212.1611.0502.0802.0674.1767.0481.2693-.0193.0927-.0737.1743-.1518.2277l-7.755 5.2353 9.3903-5.4267c.0828-.0511.1825-.0673.2771-.045.0469.0111.0912.0313.1303.0595.039.0281.0722.0637.0975.1047s.0424.0865.0501.1341c.0077.0475.006.0961-.0051.143s-.0313.0911-.0594.1302c-.0282.0391-.0638.0723-.1047.0976l-7.4522 4.9096 9.1916-5.3056c.0827-.0462.18-.0586.2716-.0347.0917.024.1704.0825.2199.1632.0495.0808.0658.1775.0455.27-.0202.0925-.0755.1736-.1542.2263l-7.378 4.7835 9.2466-5.3431c.0832-.0502.183-.0654.2774-.0421s.1757.0832.226.1664c.0503.0833.0654.1831.0421.2775s-.0832.1757-.1664.226l-4.6332 2.9157 5.7992-3.3484c.0834-.05.1833-.0648.2776-.0411.0944.0236.1755.0838.2255.1672.0499.0835.0647.1834.0411.2777-.0237.0943-.0838.1754-.1673.2254l-2.7082 1.6867 3.4049-1.9653c.0826-.0449.1792-.0563.27-.0319s.1687.0826.2177.1628.0654.1761.0458.268c-.0197.0919-.0739.1728-.1514.2258l-9.2598 5.9723 10.1933-5.8865c.0831-.0457.1808-.0575.2724-.0328s.1701.084.2189.1654.0642.1786.0429.2711c-.0214.0924-.0777.173-.1573.2248l-2.9817 1.8553 3.3337-1.9242c.0413-.0248.0871-.0411.1348-.0482.0476-.007.0962-.0047.1429.0071.0467.0117.0906.0325.1293.0612s.0713.0647.0961.106c.0247.0413.0411.0871.0482.1348.007.0476.0046.0962-.0071.1429s-.0325.0906-.0612.1293-.0647.0713-.106.0961l-2.291 1.4204 2.5176-1.4527c.0826-.0442.1791-.0551.2695-.0305.0905.0247.168.0831.2168.1632.0487.0801.0649.1758.0452.2675-.0196.0916-.0737.1723-.1509.2253l-7.8599 5.0395 8.1979-4.7329c.0825-.0461.1796-.0587.2711-.0349.0914.0237.1702.0818.2199.1622.0496.0804.0663.1769.0466.2693-.0198.0924-.0744.1736-.1526.2267l-9.1153 6.0229 9.3749-5.4106c.0828-.0448.1797-.0561.2706-.0315s.1688.0833.2176.1638c.0489.0805.0648.1767.0447.2687-.0202.0919-.075.1726-.153.2253l-3.2413 2.0592 3.1533-1.8187c.0821-.0461.1788-.0589.2701-.0357s.1701.0806.2202.1604c.05.0798.0675.1758.0487.2681s-.0723.1738-.1496.2276l-6.5127 4.4272 6.3462-3.6667c.0825-.0515.182-.0682.2768-.0463.0948.0218.1769.0805.2285.1629.0515.0825.0682.182.0463.2768-.0218.0948-.0805.1769-.1629.2285l-3.3227 2.2352 2.9179-1.6867c.081-.046.1765-.0595.267-.0377.0906.0218.1695.0773.2206.1551.0512.0779.0708.1723.0549.2641-.016.0918-.0662.1741-.1406.2301l-3.853 2.8556 3.0888-1.7827c.0805-.0453.1752-.0586.2651-.0371.0898.0215.1683.0761.2196.1529s.0718.1702.0572.2614c-.0145.0913-.0629.1737-.1356.2307l-1.9764 1.5158.7004-.4033c.0842-.0479.1838-.0605.2773-.0351.0934.0253.173.0866.2215.1705.0484.0838.0616.1834.0369.2771-.0248.0936-.0855.1736-.169.2225l-5.5367 3.1959c-.0806.0463-.1757.0602-.2661.039-.0904-.0211-.1695-.0758-.2211-.153-.0517-.0772-.0722-.1711-.0573-.2628.0149-.0916.064-.1743.1375-.2311l1.9697-1.5122-3.806 2.2001c-.0808.0447-.1756.0573-.2653.0352s-.1678-.0773-.2186-.1545-.0705-.1708-.0553-.2619.0642-.1732.1374-.2297l3.8551-2.8578-6.6132 3.8177c-.0824.0477-.1801.0616-.2724.0386-.0924-.023-.1722-.081-.2226-.1618-.0504-.0807-.0674-.1779-.0474-.271.02-.093.0754-.1747.1545-.2276l3.3227-2.2353-5.7427 3.3154c-.0821.0462-.1789.059-.2701.0358-.0913-.0232-.1702-.0806-.2202-.1604-.0501-.0798-.0676-.1758-.0488-.2681s.0724-.1738.1497-.2277l6.5105-4.4278-9.5517 5.5139c-.0829.0456-.1803.0574-.2717.0329-.0914-.0246-.1698-.0835-.2187-.1644-.049-.081-.0648-.1778-.044-.2702.0207-.0923.0764-.173.1553-.2253l3.234-2.0533-4.8532 2.8013c-.0557.0324-.119.0494-.1833.0491z" fill="#9b5d49"/><g fill="#844c3d"><path d="m16.1536 31.1436c-.0688 0-.1362-.0194-.1945-.0559s-.1051-.0887-.1352-.1505c-.0301-.0619-.0421-.131-.0348-.1994.0074-.0684.0338-.1334.0763-.1874l.212-.2706-.7414.4282c-.0769.0444-.1673.0593-.2544.042-.0871-.0172-.165-.0655-.2192-.1358s-.081-.1579-.0755-.2465c.0055-.0887.0429-.1723.1054-.2353l.099-.0998-.0565.0345c-.0728.0418-.1577.0573-.2406.0439-.0829-.0133-.1587-.0547-.2147-.1171-.0561-.0625-.089-.1424-.0933-.2262s.0204-.1666.0698-.2345l.4202-.5734c-.0785-.0049-.1534-.0349-.2135-.0855-.0602-.0507-.1025-.1193-.1207-.1958-.0181-.0766-.0112-.1569.0198-.2292s.0844-.1327.1523-.1723l1.2159-.701c.0728-.0418.1577-.0573.2406-.044s.1587.0547.2148.1172c.056.0625.0889.1423.0932.2261.0043.0839-.0203.1667-.0698.2345l-.33.4503.9204-.5309c.0769-.0444.1673-.0593.2544-.0421.0871.0173.1649.0656.2191.1359s.0811.1579.0756.2465-.043.1722-.1055.2353l-.0997.0997.011-.0058c.0737-.0426.16-.0582.2439-.0442.084.014.1605.0568.2164.1211.0558.0643.0876.146.0897.2311.0022.0851-.0253.1683-.0777.2354l-.3762.4781c.0717.0166.1368.0543.1867.1083.05.054.0826.1218.0935.1946s-.0003.1472-.0323.2135c-.0319.0663-.083.1214-.1467.1583l-1.2144.7011c-.0558.032-.1191.0484-.1834.0476z"/><path d="m25.5533 38.9393c-.0723.0002-.143-.0211-.2032-.061-.0603-.0399-.1074-.0967-.1354-.1633-.0281-.0666-.0358-.14-.0223-.211.0136-.071.0478-.1364.0983-.188l.1342-.1364-.1701.0968c-.0713.0405-.1542.056-.2354.0438-.0811-.0121-.1559-.0512-.2122-.1108-.0564-.0597-.0911-.1365-.0986-.2182s.0126-.1636.0571-.2325l.4847-.7414c-.0857.0205-.1759.0095-.2541-.031s-.1393-.1078-.1719-.1896c-.0327-.0818-.0348-.1727-.006-.2559.0288-.0833.0866-.1533.1629-.1975l1.2158-.701c.0714-.0409.1544-.0566.2358-.0446s.1563.051.2129.1107c.0565.0598.0913.1368.0988.2187s-.0128.1639-.0576.2329l-.4657.7121 1.144-.66c.0767-.0443.1668-.0593.2537-.0423s.1647.0649.219.1348c.0544.0699.0816.1571.0767.2455-.005.0884-.0417.172-.1035.2354l-.1371.1408c.085-.0383.1814-.0428.2696-.0126s.1616.0929.2052.1753.0542.1783.0296.2683c-.0245.0899-.0825.1671-.162.2158l-2.2799 1.32c-.0559.0315-.1192.0475-.1833.0462z"/><path d="m10.1197 35.2432c-.0705-.0001-.13946-.0205-.19864-.0588-.05917-.0382-.10607-.0927-.13509-.1569-.02901-.0642-.03891-.1355-.0285-.2051.01041-.0697.04068-.135.08718-.1879l.42975-.4884-.48255.2772c-.07323.0422-.15878.0578-.24218.0441-.0834-.0136-.15953-.0556-.21551-.1189-.05597-.0634-.08836-.1441-.09169-.2285-.00332-.0844.02262-.1674.07345-.235l.4004-.5302c-.07554-.0104-.14596-.0441-.20144-.0964-.05549-.0523-.09329-.1206-.10813-.1954-.01485-.0748-.00601-.1524.02529-.2219.03131-.0695.08351-.1276.14935-.1661l1.21591-.701c.0732-.0418.1586-.0571.2417-.0433.0832.0138.159.0559.2148.1191s.0881.1437.0915.2279-.0223.1671-.0728.2345l-.2816.3726.8484-.4892c.0753-.0431.1634-.0582.2487-.0425.0854.0157.1624.0612.2174.1283.0549.0671.0843.1515.0829.2383-.0014.0867-.0335.1702-.0906.2355l-.429.4876.3776-.22c.0418-.0265.0884-.0443.1372-.0523.0488-.0081.0987-.0061.1468.0056.048.0118.0932.0332.1327.0628.0396.0297.0727.0671.0975.1099.0247.0428.0406.0902.0465.1393.006.0491.002.0988-.0118.1463s-.037.0917-.0684.13c-.0313.0383-.07.0699-.1138.0928l-2.31 1.3339c-.0553.0335-.1187.0515-.1833.0521z"/><path d="m18.6271 38.2878c-.0673-.0006-.133-.0198-.1901-.0554-.0571-.0355-.1033-.086-.1335-.1461-.0303-.06-.0435-.1272-.0382-.1942.0054-.0671.029-.1313.0684-.1858l1.089-1.5092-1.5466.8925c-.0724.0418-.1569.0576-.2396.0447-.0826-.0128-.1583-.0535-.2147-.1153-.0563-.0618-.0898-.141-.0949-.2245-.0052-.0834.0184-.1661.0667-.2344l.6541-.9233c-.0861.0272-.1792.0215-.2615-.0158s-.1478-.1037-.1842-.1864c-.0363-.0827-.0409-.1758-.0128-.2617.0282-.0858.087-.1582.1652-.2034l1.3625-.7869c.0725-.0421.1572-.0582.24-.0456.0829.0127.1589.0534.2154.1153s.0901.1413.0952.225c.0051.0836-.0187.1665-.0673.2348l-.6417.9049 1.5752-.91c.0727-.0419.1576-.0576.2405-.0445.0828.0131.1587.0542.2149.1165s.0893.142.0939.2258c.0045.0838-.0198.1666-.0689.2346l-1.0868 1.5084 1.1249-.649c.0417-.0265.0884-.0443.1372-.0523.0488-.0081.0987-.0061.1467.0056.0481.0118.0932.0332.1328.0628.0396.0297.0727.0671.0975.1099.0247.0428.0405.0902.0465.1393s.0019.0988-.0118.1463c-.0138.0475-.0371.0917-.0684.13s-.07.0699-.1138.0928l-2.6078 1.5055c-.0559.0323-.1194.0493-.184.0491z"/><path d="m30.5679 34.7999c-.0694 0-.1375-.0197-.1962-.0568s-.1056-.0901-.1354-.1529c-.0297-.0628-.041-.1327-.0325-.2017.0084-.0689.0363-.134.0803-.1878l.3814-.4656-1.1404.66c-.0763.0441-.1661.0592-.2527.0426-.0866-.0167-.1644-.064-.2189-.1334-.0546-.0693-.0823-.156-.0781-.2441.0042-.0882.0401-.1718.1009-.2357l.7121-.745-.8675.5008c-.071.0401-.1532.0553-.2338.0434s-.155-.0503-.2113-.1092c-.0563-.0588-.0915-.1348-.0998-.2158-.0084-.081.0104-.1626.0535-.2317l.7444-1.1579-.0543.0308c-.0417.0265-.0884.0443-.1372.0523-.0488.0081-.0987.0061-.1467-.0056-.0481-.0118-.0932-.0331-.1328-.0628-.0395-.0297-.0727-.067-.0974-.1099-.0248-.0428-.0406-.0902-.0466-.1392-.0059-.0491-.0019-.0989.0119-.1464.0137-.0475.037-.0917.0683-.13s.07-.0698.1138-.0928l1.3626-.7868c.0709-.0404.1534-.0559.2342-.0442.0807.0118.1553.0502.2118.1091.0565.059.0917.1351.1001.2163.0083.0812-.0107.1629-.0541.2321l-.7436 1.1579 1.7762-1.0266c.0764-.0442.1661-.0593.2527-.0426.0867.0167.1644.064.2189.1333.0546.0694.0823.1561.0781.2442s-.04.1718-.1009.2356l-.7121.7443.6659-.3835c.0743-.0431.1614-.0586.2461-.044s.1615.0584.2171.1239c.0557.0655.0865.1485.0872.2344s-.0288.1693-.0833.2357l-.5258.6409c.0749.0116.1444.046.1989.0987.0545.0526.0914.1208.1056.1953.0141.0744.0048.1514-.0266.2204s-.0834.1265-.1488.1647l-1.3618.7869c-.0557.0322-.119.0489-.1834.0484z"/></g><g fill="#262626"><path d="m24.0103 22.384c.2244-2.2599 1.2677-4.3596 2.9334-5.9033 9.174 5.6188 11.6556-4.8943 13.9208-11.45468-.044-1.45787-1.8604-1.47913-2.9245-1.595-6.1908-1.18507-15.5562 2.20587-13.1648 9.95428-.8349.7811-1.5995 1.6341-2.2851 2.5491-.7928-1.8061-1.7738-3.5235-2.9267-5.1238 3.1533-6.01338-3.5626-10.656114-9.1022-10.28138-1.38669.009533-3.86095-.4422003-4.37429 1.27673 1.33247 5.5066 2.3848 15.04585 10.49769 11.72015 2.2542 3.2039 3.726 7.0151 3.4202 10.9795-15.11395-4.9654-19.832954 18.6222-3.5779 19.1341 5.599-1.0465 14.7444-.2567 19.0066-3.5933 5.1685-4.4572 1.6133-13.453-5.1796-13.288-2.1088.0328-4.2123-.2218-6.2524-.7568-.0059-1.2034-.0477-2.4156.0088-3.6176zm3.74-16.27411c3.1717-2.33274 8.3373-2.728 11.8888-1.364.4254 1.15426-.9269 2.26746-1.0831 3.443-.9482 5.41491-4.8752 12.11471-10.9039 7.59811 1.1733-1.6185 5.8226-2.6848 3.982-5.2676-1.9705-1.80911-4.3143.9622-5.9401 2.0468-.2959-1.1611-.2597-2.382.1046-3.52346.3642-1.14149 1.0417-2.15771 1.9554-2.93285zm-17.92852 4.92951c-1.42487-2.53885-1.33467-5.62178-2.35107-8.30798-.16866-.451-.63066-1.22173-.11-1.63827 5.35989-1.075797 13.72289 2.156 11.57789 8.87334-1.76-1.74534-3.5516-5.76474-6.4974-5.0138-.2877.1018-.5452.2746-.7484.50239-.2032.22778-.3457.50318-.4141.80068-.0685.29749-.0607.60745.0225.90115.0833.2937.2393.56163.4536.77898 1.7111 1.59313 3.255 3.35691 4.6076 5.26391-2.3408 1.2254-5.2712.0784-6.54062-2.1604zm26.44692 20.6602c2.6114 5.9862-3.2486 10.7712-9.0017 9.8706-5.5784.4488-12.1 3.1783-16.9348-.9064-6.80535-5.5616-1.71089-17.4174 7.081-15.9991 1.6867.22 3.1534 1.0428 4.7183 1.6375 4.6985 2.0959 11.7224-.4891 14.1372 5.3974zm-14.1651-6.3522c-.3476-.1466-.6908-.2896-1.034-.4304.6153-6.8934-3.5486-12.8583-8.3152-17.41085-1.1572-.93206.0733-2.86 1.1938-1.54 11.9783 11.07995 3.5699 15.40005 13.8476 5.92385.7648-.4583 1.408-1.2613 2.373-1.2342.1864.0654.3541.1748.4889.3191.1348.1442.2327.319.2853.5093s.0583.3905.0168.5835c-.0416.193-.1293.3731-.2556.5249-4.7146 2.7397-8.6871 7.2497-7.7734 13.0643-.2786-.0946-.5536-.1958-.8272-.3095z"/><path d="m28.2125 31.1357c-2.654 3.5824 4.312 5.5264 4.5371 1.3728.0308-2.3488-3.1805-3.0829-4.5371-1.3728zm2.4969-.118c1.7556.7773.88 4.0685-1.0596 3.0558-1.6779-.7752-.869-3.9857 1.0596-3.0529z"/><path d="m17.6962 34.9869c-2.3371 3.1533 3.7972 4.8664 3.9952 1.2093.0301-2.0688-2.8006-2.7156-3.9952-1.2093zm2.1788-.0455c1.4791.6549.7392 3.4276-.8925 2.574-1.4124-.6526-.7319-3.3572.891-2.574z"/><path d="m24.8046 36.0159c-2.0871 2.8167 3.3902 4.345 3.5669 1.0794.0272-1.8472-2.5006-2.4244-3.5669-1.0794zm1.8803.1554c1.1.4855.5485 2.5425-.66 1.9067-1.0502-.4811-.5449-2.4875.66-1.9067z"/><path d="m9.47159 32.4905c-2.08706 2.816 3.39021 4.345 3.56691 1.0794.0272-1.8472-2.5006-2.4244-3.56691-1.0794zm1.88031.1554c1.1.4855.5485 2.5425-.66 1.9067-1.05017-.4818-.5449-2.4882.66-1.9067z"/><path d="m14.5983 28.24c-2.0863 2.8167 3.3902 4.345 3.5669 1.0794.0272-1.8465-2.5006-2.4236-3.5669-1.0794zm1.8803.1554c1.1.4862.5485 2.5432-.66 1.9067-1.0502-.4811-.5449-2.4875.66-1.9067z"/></g></g></svg>