<svg fill="none" height="44" viewBox="0 0 44 44" width="44" xmlns="http://www.w3.org/2000/svg"><path d="m19.9697 8.98899c-.0664.00001-.1317-.01806-.1887-.05228s-.1037-.08331-.1349-.14199c-.0313-.05869-.046-.12477-.0426-.19118s.0248-.13064.0619-.18582l.5133-.75753-1.8333 1.05966c-.0775.04595-.1692.06176-.2576.04443-.0883-.01733-.1673-.0666-.2217-.1384s-.0804-.16112-.0732-.2509c.0073-.08979.0473-.17377.1125-.23593l1.1374-1.1-2.5315 1.4608c-.08.04629-.1745.06064-.2647.04017-.0902-.02046-.1693-.07423-.2215-.15054s-.0736-.16952-.06-.26096c.0136-.09145.0612-.17439.1334-.2322l1.166-.93207-1.9382 1.11614c-.0791.04555-.1723.05997-.2615.04045-.0891-.01953-.1678-.0716-.2206-.14603-.0528-.07444-.076-.1659-.0649-.25649.011-.09059.0554-.17382.1246-.2334l2.1574-1.85973-2.7866 1.60893c-.0769.04431-.1672.05926-.2542.04209-.087-.01718-.1648-.06531-.2191-.13549-.0542-.07018-.0812-.15764-.0759-.24618s.0425-.17216.1048-.23535l1.9609-1.98-2.5491 1.47033c-.0691.04001-.1494.05634-.2287.0465s-.1532-.04531-.2105-.10101-.0948-.12859-.1068-.20757c-.0121-.07898.002-.15974.04-.22999l.6468-1.19386-.9841.5676c-.0604.03475-.1294.05158-.199.04851-.0696-.00308-.1369-.02592-.194-.06585-.0571-.03994-.1017-.09532-.1284-.15965-.0268-.06434-.0347-.13497-.0227-.20361l.11-.6248-.0301.0176c-.0842.04785-.1838.06047-.2773.0351-.0934-.02536-.173-.08666-.2215-.17052-.0484-.08385-.0616-.18345-.0369-.27705.0247-.09361.0855-.17363.169-.2226l.7114-.41067c.0604-.03475.1294-.05158.199-.04851.0696.00308.1369.02592.194.06585.0571.03994.1017.09532.1284.15965.0268.06434.0346.13497.0227.20361l-.11.62554 1.4271-.82354c.0691-.04001.1495-.05634.2288-.0465.0792.00984.1532.04531.2104.10101.0573.0557.0948.12859.1069.20757.012.07899-.0021.15974-.0401.22999l-.6468 1.19313 3.7891-2.18753c.0769-.04435.1673-.05928.2544-.04202.0871.01725.165.06552.2192.13584.0542.07033.081.15793.0755.24654s-.0429.17222-.1054.23531l-1.9602 1.98 3.792-2.18974c.0791-.04555.1724-.05997.2615-.04045.0892.01953.1678.0716.2206.14603.0528.07444.076.1659.0649.25649-.011.09059-.0554.17382-.1246.2334l-2.1538 1.86193 2.7794-1.6038c.08-.04629.1746-.06063.2647-.04017.0902.02047.1693.07424.2215.15055s.0736.16951.06.26096-.0612.17438-.1334.2322l-1.1711.92693.8844-.50967c.0775-.04594.1692-.06176.2576-.04442.0884.01733.1673.06659.2217.1384.0544.0718.0805.16111.0732.2509-.0072.08979-.0473.17377-.1125.23592l-1.1389 1.1022.6424-.37033c.0716-.04213.1554-.05841.2375-.04613s.1575.05238.2135.1136c.0566.0605.091.13837.0977.22093.0066.08257-.0148.16495-.061.23373l-.5133.75974c.0857-.0387.1829-.04301.2717-.01204.0887.03096.1622.09483.2052.17842.043.08358.0523.1805.0259.27072-.0264.09023-.0864.16687-.1677.2141l-1.3398.77293c-.0549.03329-.1177.05127-.1819.05207z" fill="#4ec760"/><path d="m21.6737 10.7276c-.0724.0001-.1431-.0211-.2034-.0611s-.1074-.097-.1354-.1637-.0356-.1402-.0219-.2113c.0137-.071.0481-.1364.0989-.188l.0821-.0828c-.075.0432-.163.0584-.2482.043s-.1622-.0605-.2174-.12722c-.0552-.06676-.0849-.15089-.084-.23749s.0325-.17008.0891-.23564l1.1872-1.3728-1.3244.76413c-.077.04281-.1668.05644-.2531.03841s-.1631-.06652-.2166-.1366c-.0534-.07008-.0798-.15705-.0743-.24501.0054-.08795.0424-.17099.104-.23393l1.7028-1.6984-1.0384.60133c-.0793.04477-.1726.05836-.2614.03814-.0889-.02023-.1671-.07284-.2192-.14755-.0522-.07472-.0747-.1662-.0631-.2566.0115-.09041.0564-.17325.1257-.23239l.9167-.76853-.2596.14666c-.0781.0441-.1696.05806-.2573.03925-.0876-.01882-.1654-.06911-.2185-.14135-.0531-.07225-.0778-.16145-.0696-.25074s.0488-.17247.1142-.23382l1.892-1.7358-.9401.54266c-.074.04242-.1605.05771-.2445.04326-.0841-.01445-.1604-.05774-.216-.12243s-.0869-.14672-.0885-.23199c-.0016-.08526.0266-.16842.0796-.23517l1.4344-1.79007c-.0722-.01579-.1379-.05303-.1886-.10684-.0506-.05382-.0839-.12169-.0953-.19472-.0114-.07302-.0005-.1478.0313-.21451.0319-.06671.0831-.12225.147-.15933l1.265-.733329c.074-.042413.1605-.05771.2445-.043259.0841.014451.1605.057745.216.122433.0556.064688.0869.146723.0885.231988.0016.085264-.0265.168425-.0796.235171l-1.2709 1.591336 2.1435-1.23787c.0781-.0441.1696-.05806.2573-.03924.0877.01881.1654.0691.2185.14135s.0779.16145.0697.25074c-.0082.08928-.0489.17247-.1143.23382l-1.8912 1.73506 1.0545-.60793c.0795-.04571.1733-.05997.2628-.03997.0895.02001.1682.07283.2207.14804s.0749.16736.0627.25826c-.0121.09091-.0578.17397-.1282.2328l-1.012.8448c.0772-.01472.157-.00429.2278.02976.0707.03406.1287.08993.1653.15941.0367.06948.05.14888.0381.22651s-.0484.1494-.1041.20472l-1.7087 1.6984.7597-.44c.075-.04277.1627-.05773.2476-.04223s.1616.06046.2167.12696c.055.06651.0848.15029.0841.23661s-.0318.16963-.0878.23526l-1.1844 1.37354.4576-.26327c.0768-.04427.167-.05925.254-.04216.0869.0171.1647.0651.219.13514.0543.07003.0814.15736.0763.24583s-.0421.17209-.1041.23539l-.8038.81694c.0212.02223.0396.04684.055.07333.0487.08412.062.18414.037.27806s-.0863.17406-.1704.22279l-1.1682.6747c-.0549.0317-.117.0486-.1804.0491z" fill="#7f4842"/><path d="m21.9157 43.6054c-.0792.0001-.1563-.0254-.2198-.0728-.0635-.0473-.1099-.114-.1324-.1899-.0224-.076-.0197-.1571.0078-.2314.0275-.0742.0784-.1376.1449-.1806l2.3789-1.54-2.8365 1.6376c-.0825.049-.1809.0637-.2741.0409-.0933-.0227-.1739-.0811-.2245-.1625-.0507-.0815-.0674-.1796-.0466-.2733.0208-.0936.0776-.1754.158-.2277l8.6761-5.8029-9.3398 5.3944c-.0832.0503-.183.0654-.2774.0421-.0945-.0233-.1757-.0832-.226-.1664s-.0654-.183-.0421-.2775c.0233-.0944.0831-.1757.1664-.2259l3.553-2.2382-3.9248 2.266c-.0827.0443-.1791.0552-.2696.0305-.0904-.0247-.168-.083-.2167-.1631s-.0649-.1758-.0453-.2675c.0197-.0917.0737-.1723.151-.2254l7.7887-4.9947-8.4692 4.8898c-.0828.0455-.1799.0574-.2711.0331s-.1696-.0829-.2187-.1635c-.0492-.0806-.0653-.1771-.0451-.2693s.0752-.1731.1535-.2258l8.9775-5.7449-9.7907 5.6525c-.0834.0502-.1832.0652-.2777.0417-.0944-.0234-.1756-.0834-.2258-.1667-.0502-.0834-.0652-.1832-.0417-.2776.0234-.0945.0834-.1757.1668-.2259l7.0898-4.4498-7.7792 4.4931c-.0829.0456-.1803.0574-.2717.0329-.0914-.0246-.1698-.0835-.2187-.1645-.049-.0809-.0648-.1777-.044-.2701.0207-.0923.0764-.173.1553-.2253l10.34-6.5663-11.2735 6.5084c-.0831.0474-.1813.0606-.2739.0366s-.1721-.0832-.2217-.165c-.0495-.0818-.0652-.1797-.0436-.2728.0216-.0932.0788-.1742.1593-.2258l11.0843-7.0129-12.0318 6.9491c-.0414.0246-.0872.0408-.1349.0477s-.0963.0043-.1429-.0076c-.0467-.0119-.0906-.0328-.1292-.0617-.0386-.0288-.0711-.065-.0957-.1064s-.0408-.0873-.0477-.1349c-.0069-.0477-.0043-.0963.0076-.143.0119-.0466.0328-.0905.0617-.1291.0288-.0386.065-.0711.1064-.0957l1.9111-1.166-2.357 1.3603c-.0832.0445-.1804.0552-.2714.0298-.0909-.0253-.1685-.0848-.2167-.166-.0482-.0811-.0632-.1777-.042-.2697.0213-.092.0772-.1722.1561-.224l3.0177-1.8436-3.4819 2.0079c-.0832.0451-.1806.0563-.2718.0312-.0913-.025-.1693-.0844-.2178-.1657-.0485-.0812-.0637-.1781-.0424-.2703.0212-.0922.0774-.1726.1566-.2244l6.146-3.7767-6.6894 3.8617c-.0831.0444-.18.0551-.2707.03-.0908-.0252-.1683-.0843-.2167-.1651-.0484-.0807-.0638-.177-.0431-.2689.0207-.0918.0759-.1722.1543-.2244l8.885-5.4942-9.50251 5.4861c-.08317.0433-.17975.053-.26989.0273-.09015-.0257-.16702-.085-.21481-.1657-.04779-.0806-.06287-.1765-.04215-.2679.02073-.0915.07568-.1715.15358-.2236l3.77158-2.299-4.14778 2.3943c-.08313.0458-.18078.0576-.27242.0328-.09163-.0247-.1701-.084-.21892-.1654-.04881-.0814-.06417-.1785-.04283-.271.02133-.0925.0777-.1731.15724-.2249l10.50721-6.5076-11.07335 6.3932c-.08325.048-.18202.0614-.27505.0374-.09303-.0241-.17289-.0838-.22239-.1661-.0495-.0824-.06468-.1809-.04228-.2744.0224-.0934.08059-.1744.16206-.2253l12.75851-7.9648-13.33491 7.7c-.08326.048-.18202.0614-.27506.0374-.09303-.0241-.17289-.0838-.22239-.1661-.0495-.0824-.06468-.1809-.04228-.2744.0224-.0934.0806-.1744.16206-.2253l12.41388-7.7242-12.87368 7.4323c-.08325.0445-.18045.0552-.27137.0298s-.16856-.0848-.21675-.166-.06322-.1778-.04196-.2697c.02125-.092.07716-.1722.15608-.224l6.21648-3.7972-6.40495 3.6974c-.08168.0363-.1738.0415-.25905.0146-.08524-.0268-.15773-.0839-.20385-.1605-.04611-.0765-.06268-.1673-.04658-.2552s.06376-.1669.13402-.2222l14.92481-9.4035-15.31201 8.8403c-.08354.0498-.18343.0644-.2777.0405-.09428-.0239-.17521-.0842-.225-.1677-.04979-.0836-.06436-.1835-.0405-.2777.02386-.0943.0842-.1752.16773-.225l8.21338-5.0454-8.29698 4.7902c-.08353.0499-.18347.0645-.27781.0407s-.17537-.0841-.22526-.1676c-.04988-.0835-.06454-.1835-.04075-.2778.02379-.0944.08409-.1754.16762-.2253l9.78048-6.0426-9.83255 5.6767c-.0834.0454-.18115.0566-.27267.0313-.09152-.0252-.16969-.085-.21804-.1667-.04836-.0817-.06314-.1789-.04123-.2713.0219-.0924.07878-.1727.15868-.224l.10853-.066c-.08388.0413-.18035.049-.26969.0215s-.16481-.0881-.21097-.1694c-.04617-.0813-.05955-.1771-.0374-.2679.02214-.0909.07813-.1698.15653-.2207l14.54571-9.24-14.56111 8.4091c-.08287.0464-.18048.0587-.27229.0346-.0918-.0242-.17065-.0831-.21996-.1642-.0493-.0811-.06522-.1782-.0444-.2708.02083-.0927.07676-.1736.15605-.2258l13.71481-8.7355-13.60041 7.8518c-.08354.0498-.18343.0644-.2777.0405-.09428-.0239-.17521-.0842-.225-.1677-.04979-.0836-.06436-.1835-.0405-.2777.02386-.0943.0842-.1752.16773-.225l5.6078-3.4606-5.34013 3.08c-.08354.0498-.18343.0643-.2777.0405-.09428-.0239-.17521-.0842-.225-.1678-.04979-.0835-.06436-.1834-.0405-.2777.02386-.0942.0842-.1752.16773-.225l3.0602-1.8802-2.7412 1.5854c-.08308.0466-.18101.059-.27307.0346s-.17102-.0836-.22019-.1651c-.04916-.0816-.06466-.1791-.04323-.2719.02144-.0928.07813-.1736.15809-.2253l7.0576-4.4301-6.67333 3.8537c-.08285.0443-.17953.0551-.2701.0302-.09057-.025-.16812-.0837-.21666-.1641s-.06436-.1764-.0442-.2682c.02017-.0917.07477-.1722.15256-.2249l5.03873-3.1687-4.5672 2.64c-.08235.0477-.18004.0615-.27241.0385-.09236-.0229-.17217-.0809-.22255-.1617s-.06738-.1779-.04741-.271c.01998-.0931.07536-.1747.15444-.2277l8.68271-5.8051-7.94645 4.5841c-.08267.0462-.18.0586-.27161.0346-.09162-.0239-.17041-.0824-.21989-.1631-.04947-.0808-.06578-.1775-.04552-.27s.07553-.1736.15422-.2263l4.74174-3.0895-3.90794 2.2572c-.08209.0429-.17739.0531-.26674.0287-.08935-.0245-.16612-.0819-.21488-.1607-.04876-.0787-.0659-.173-.04798-.2639s.06959-.1716.1446-.226l5.3394-3.6197-4.12573 2.3789c-.08234.0438-.17826.0545-.26824.0301-.08998-.0245-.16727-.0823-.21614-.1617-.04886-.0794-.06563-.1745-.0469-.2658.01873-.0914.07157-.1722.14775-.2259l1.0318-.6762c-.06316.0054-.12658-.0066-.18335-.0348s-.10471-.0715-.13859-.125c-.05166-.0762-.0728-.169-.05922-.26.01359-.091.0609-.1736.13256-.2314l3.03746-2.42c-.08048-.0002-.15863-.027-.2224-.0761s-.10962-.1178-.13047-.1955c-.02085-.0778-.01555-.1602.01509-.2346s.08491-.1367.15445-.1772l3.82578-2.20883c.0801-.04568.1745-.0595.2643-.03871.0899.02078.1686.07465.2204.15087.0519.07622.0732.16919.0596.26039s-.061.17393-.1329.23171l-2.78005 2.21467 6.31105-3.6432c.0824-.04376.1783-.05451.2683-.03006.0899.02445.1672.08227.2161.16169.0489.07941.0656.17447.0469.26581-.0187.09135-.0716.17212-.1477.22589l-.4261.2794 1.5701-.90566c.0822-.04686.1793-.06011.2711-.03699s.171.08083.2212.16105c.0502.08023.0675.17675.0481.2694-.0193.09264-.0737.17421-.1518.22767l-5.3379 3.6183 6.9146-3.99157c.0825-.04545.1794-.05739.2705-.03333.0911.02405.1694.08226.2188.16253.0493.08027.0658.17646.0461.2686-.0196.09214-.074.17317-.1519.22627l-4.7395 3.0881 5.7933-3.3455c.0823-.04613.1792-.05877.2706-.03529.0913.02347.1701.08125.22.16133.0498.08007.0669.17628.0477.26863-.0193.09234-.0734.17371-.1511.2272l-8.6797 5.80363 11.8067-6.81563c.0828-.04428.1795-.05507.2701-.03015.0905.02491.1681.08364.2166.16407.0486.08042.0644.17641.0442.26816-.0202.09174-.0748.17225-.1525.22492l-5.0432 3.17093 6.9975-4.04287c.083-.04495.1801-.05617.2711-.03133.0911.02484.1691.08384.2177.16471.0487.08087.0643.17739.0436.26947s-.0762.17263-.1547.22489l-7.0642 4.43373 8.6005-4.9654c.0835-.04979.1834-.06436.2777-.0405.0943.02387.1752.0842.225.16773.0498.08354.0643.18343.0405.2777-.0239.09428-.0842.17521-.1677.225l-3.0426 1.87077 3.9504-2.28143c.0836-.04989.1835-.06455.2778-.04076.0944.02379.1754.08409.2253.16762.0499.08354.0645.18347.0407.27781-.0238.09435-.084.17537-.1676.22526l-5.6129 3.4672 6.4929-3.75247c.0829-.04632.1805-.05869.2723-.03451.0918.02417.1707.08302.22.16415s.0652.17822.0444.27084c-.0209.09263-.0768.17357-.1561.22579l-13.7133 8.7362 15.0333-8.67753c.0827-.0437.179-.05414.2692-.02917.0901.02497.1673.08345.2158.16348.0484.08002.0644.17554.0448.26699-.0197.09146-.0736.17194-.1506.22496l-14.5494 9.23997 15.6406-9.0295c.0837-.0495.1836-.06371.2779-.0395.0942.0242.1749.0848.2244.1686.0495.0837.0637.1837.0395.2779s-.0849.1749-.1686.2244l-.0462.0286.3403-.1973c.0833-.0469.1816-.0594.274-.0349s.1716.0842.2207.1662c.049.0821.0641.1801.042.2731-.0222.093-.0797.1737-.1605.2248l-9.7878 6.0478 10.3085-5.948c.0835-.0498.1834-.0644.2777-.0405.0942.0238.1752.0842.225.1677.0497.0835.0643.1834.0404.2777-.0238.0943-.0841.1752-.1677.225l-8.225 5.0483 8.6071-4.9684c.0829-.0456.1803-.0573.2717-.0328s.1698.0834.2187.1644c.049.081.0648.1778.044.2701-.0207.0923-.0764.1731-.1553.2253l-14.9248 9.397 15.5027-8.9467c.0833-.0461.1813-.0579.2733-.033.0919.0249.1705.0846.2192.1664.0487.0819.0636.1795.0417.2721-.022.0927-.0792.1732-.1595.2244l-6.2135 3.7958 6.3954-3.6924c.0831-.0458.1808-.0575.2724-.0328s.1701.084.2189.1654.0642.1786.0429.271c-.0214.0925-.0777.1731-.1573.2249l-12.4094 7.7198 12.694-7.3289c.0832-.048.182-.0614.275-.0374.093.0241.1729.0838.2224.1661.0495.0824.0647.1809.0423.2744-.0224.0934-.0806.1744-.1621.2253l-12.76 7.9633 12.972-7.491c.0834-.05.1833-.0648.2776-.0411.0944.0236.1754.0838.2254.1672.05.0835.0648.1833.0411.2777-.0236.0943-.0838.1754-.1672.2254l-10.5145 6.5142 10.5856-6.1116c.0833-.0445.1805-.0552.2714-.0298s.1685.0848.2167.166.0633.1778.042.2697c-.0213.092-.0772.1722-.1561.224l-3.7612 2.2924 3.674-2.1215c.0833-.0469.1816-.0595.274-.0349.0924.0245.1716.0841.2206.1662.0491.0821.0642.18.042.273-.0221.093-.0797.1737-.1604.2249l-8.891 5.5 8.8125-5.0879c.0835-.0498.1834-.0643.2777-.0405.0943.0239.1752.0842.225.1678.0498.0835.0643.1834.0405.2777-.0239.0942-.0842.1752-.1677.225l-6.1454 3.7759 5.9752-3.4467c.0834-.046.1814-.0579.2733-.033s.1706.0846.2193.1665c.0486.0818.0636.1794.0416.2721-.022.0926-.0792.1731-.1595.2244l-3.0066 1.8333 2.7639-1.595c.0834-.0461.1814-.0579.2733-.033s.1706.0846.2193.1664c.0486.0819.0636.1795.0416.2721-.022.0927-.0792.1732-.1594.2244l-1.914 1.1682 1.6133-.9328c.0832-.0502.183-.0654.2774-.0421.0945.0233.1757.0832.226.1664.0503.0833.0654.1831.0421.2775s-.0831.1757-.1664.226l-11.0806 7.0084 10.714-6.1834c.0827-.0449.1796-.0562.2705-.0316s.1688.0833.2177.1638c.0488.0805.0648.1767.0446.2687s-.0749.1726-.153.2253l-10.3532 6.57 9.8531-5.6885c.0833-.0502.1832-.0652.2776-.0417.0944.0234.1756.0834.2258.1667.0502.0834.0652.1832.0418.2776-.0235.0945-.0835.1757-.1668.2259l-7.0781 4.4447 6.509-3.7576c.083-.0486.1818-.0627.275-.0392.0933.0235.1736.0827.2236.1649.05.0821.0657.1806.0438.2743-.0219.0936-.0798.1749-.161.2263l-8.9812 5.7456 8.2134-4.7402c.0827-.0455.1798-.0574.271-.0331s.1696.0829.2187.1635c.0492.0806.0653.1771.0451.2693s-.0752.1731-.1535.2258l-7.7902 4.9933 6.7987-3.9256c.0833-.0502.1831-.0654.2775-.0421s.1757.0832.226.1664c.0502.0833.0654.1831.0421.2775s-.0832.1757-.1664.226l-3.567 2.244 2.4538-1.4154c.0822-.0461.1791-.0587.2705-.0353.0914.0235.1702.0813.22.1614.0499.08.0669.1763.0477.2686-.0193.0923-.0733.1737-.151.2272l-8.668 5.7985 5.8292-3.366c.0827-.0462.18-.0586.2716-.0347.0917.024.1704.0825.2199.1632.0495.0808.0658.1775.0455.27-.0202.0925-.0755.1736-.1542.2263l-13.365 8.6423c-.0308.0753-.0857.1383-.1562.1789l-1.1161.6439c-.056.0315-.1191.0482-.1833.0484z" fill="#3c52a3"/><path d="m3.82107 16.2176c-5.59021 14.5706 5.03946 19.39 15.56723 25.5823.836.693 1.5348 2.0013 2.7734 1.7981 4.7535-4.2452 11.4796-6.0397 15.9075-10.7924 8.8895-10.0562-.1467-28.09112-13.8439-24.75371-.1466-2.41561 1.8891-4.32667 1.8803-6.50834-1.4029-2.61507-4.3699-.099-4.7791 1.94773-2.1091-1.88026-4.8914-.2398-7.3334-.40186-5.24917-1.1418-1.504 3.5354.6109 4.88547-2.3281.40447-4.5241 1.36505-6.40144 2.80011-1.87731 1.435-3.38039 3.3021-4.38149 5.4426zm19.53383-14.68578c.4708-.934269 1.5957-.34834 1.7453.4928-.4686 2.05333-1.9873 3.98127-1.9507 6.29127-.3476.09777-.6925.20728-1.0347.32853-.2933-.1078-.5867-.20313-.88-.29333.2823-2.35694.7282-4.83927 2.1201-6.81927zm-10.3151 3.465c-.22-.29847-.7986-.91007-.7465-1.32 2.8394.92473 6.4599-1.80547 8.6357.89686-.3432 1.15074-.5803 2.33046-.7084 3.52441-1.3714-.30245-2.7795-.40325-4.18-.2992-1.1724-.73071-2.1916-1.68239-3.0008-2.80207zm6.4812 3.72093c.4829.12979.9583.28598 1.4241.46787-3.388 1.60938-6.0143 4.47738-7.3198 7.99378-1.3055 3.5163-1.1872 7.4034.3297 10.8338.1811.4012 1.2269.08 1.0626-.2852-3.3836-7.3759.4444-16.4839 8.2911-18.76898 19.3042-4.18 23.4952 23.53488 5.8358 29.14268-2.4391 1.0884-4.6719 2.5898-6.6 4.4381-.4598.9189-1.2899-.451-1.7893-.8462-6.3815-4.8745-16.41347-7.1537-17.09913-16.7215-1.71527-9.0655 6.46943-18.48588 15.86493-16.25435z" fill="#262626"/></svg>