<svg fill="none" height="44" viewBox="0 0 44 44" width="44" xmlns="http://www.w3.org/2000/svg"><g fill="#e3c84c"><path d="m16.6035 35.5441c-.0786.0002-.1553-.025-.2186-.0717-.0632-.0467-.1098-.1125-.1328-.1877-.0231-.0752-.0213-.1558.005-.2299s.0758-.1378.1411-.1817l3.1086-2.0893-4.6934 2.7134c-.0822.0448-.1785.0566-.269.0327-.0906-.0238-.1687-.0815-.2181-.161-.0494-.0796-.0666-.1751-.0478-.2668.0187-.0918.0718-.173.1485-.2268l4.62-3.0873-6.4277 3.7048c-.0725.0412-.157.0565-.2394.0433s-.1579-.0541-.2138-.116c-.056-.0619-.0892-.1411-.0942-.2244-.0049-.0833.0188-.1658.0671-.2339l1.0824-1.5033-3.3213 1.9206c-.07377.0421-.15989.0573-.24363.043-.08375-.0143-.15993-.0572-.21552-.1215-.05559-.0642-.08714-.1458-.08927-.2307-.00212-.085.02531-.168.07762-.2349l1.0054-1.2731-1.38746.8001c-.07393.0428-.16052.0586-.2448.0444s-.16096-.0574-.21679-.1221c-.05584-.0647-.08732-.1468-.089-.2323-.00168-.0854.02654-.1688.07979-.2356l.37253-.4672c-.07072-.018-.13446-.0566-.18307-.1111-.04861-.0544-.07987-.1221-.08979-.1944-.00993-.0723.00195-.1459.03409-.2114.03215-.0655.08311-.1199.14637-.1563l1.22173-.7047c.074-.0433.1608-.0593.2454-.0452.0845.0141.1615.0574.2175.1224.0559.0649.0874.1474.0888.2331.0015.0857-.0272.1692-.0809.236l-.1951.2435 1.3662-.7883c.0738-.0426.1601-.0581.2441-.044s.1605.0571.2162.1215c.0558.0643.0874.1461.0895.2313.002.0851-.0256.1683-.0782.2353l-1.0047 1.2723 3.1475-1.8164c.0725-.0413.157-.0566.2394-.0434s.1578.0542.2138.116c.056.0619.0892.1411.0941.2244.005.0833-.0187.1658-.067.2339l-1.0824 1.5033 14.6762-8.4751c.0825-.049.1809-.0637.2741-.041.0933.0227.1738.0811.2245.1626s.0674.1796.0466.2732c-.0208.0937-.0776.1755-.158.2278l-4.6259 3.0895 4.2402-2.4478c.0824-.0516.182-.0683.2768-.0464.0947.0219.1769.0805.2284.163.0516.0824.0682.182.0464.2767-.0219.0948-.0805.177-.163.2285l-3.1049 2.0871 2.7133-1.5679c.0812-.0469.1773-.0609.2685-.0391.0913.0217.1707.0776.2219.1561.0513.0785.0706.1737.0538.266-.0167.0923-.0682.1746-.1438.2301l-4.0546 2.9781 3.6557-2.1106c.0806-.0462.1757-.0602.2661-.039s.1695.0759.2211.153c.0517.0772.0722.1711.0573.2628s-.0641.1743-.1375.2312l-2.6547 2.0372 2.2484-1.298c.0799-.0452.1739-.0588.2633-.0381.0895.0208.1679.0743.2198.15.0518.0758.0734.1682.0604.2591s-.0596.1736-.1306.2318l-1.3618 1.0926.9533-.5478c.0742-.043.1612-.0586.2457-.0441.0846.0144.1614.0581.2171.1233.0556.0653.0865.148.0875.2338.0009.0857-.0282.1691-.0824.2356l-1.1418 1.4006.6747-.3886c.0626-.036.1344-.0527.2064-.048.0721.0047.1411.0306.1985.0744s.1006.1035.1242.1717.0265.1419.0084.2118l-.1973.7509c.0608.0284.1126.073.1498.1287.0371.0558.0583.1208.0612.1877.0029.067-.0127.1335-.045.1923-.0322.0588-.08.1076-.1381.1411l-.3667.2112c-.0626.036-.1345.0527-.2067.048-.0721-.0047-.1412-.0306-.1987-.0745-.0574-.0439-.1006-.1038-.1241-.1721-.0235-.0684-.0263-.1422-.008-.2121l.1408-.5368-1.6397.9453c-.0742.0427-.161.0581-.2454.0435s-.161-.0582-.2165-.1234c-.0556-.0651-.0866-.1476-.0877-.2332-.0011-.0857.0278-.1689.0817-.2355l1.1418-1.4006-3.3777 1.9492c-.0799.0444-.1735.0574-.2625.0364-.0889-.021-.1668-.0745-.2184-.1499-.0516-.0755-.0732-.1675-.0604-.258.0127-.0905.0587-.173.1291-.2313l1.3611-1.0927-2.9377 1.6955c-.0805.0453-.1752.0585-.2651.037-.0898-.0214-.1683-.076-.2196-.1529-.0514-.0768-.0718-.1701-.0573-.2614.0146-.0912.063-.1736.1357-.2307l2.6547-2.0364-4.5819 2.6444c-.0812.0469-.1773.0609-.2685.0391-.0912-.0217-.1706-.0776-.2219-.1561s-.0705-.1737-.0538-.266.0682-.1746.1438-.2301l4.0546-2.9781-6.2209 3.5934c-.0557.0321-.1189.0491-.1833.0491z"/><path d="m16.088 31.5972c-.0789-.0003-.1555-.0259-.2187-.0731-.0631-.0472-.1093-.1135-.1318-.1891s-.02-.1564.0071-.2304c.027-.074.0772-.1374.1432-.1806l1.5532-1.0172-1.2027.6938c-.0824.0477-.1801.0615-.2724.0385-.0924-.0229-.1722-.081-.2226-.1617-.0504-.0808-.0674-.178-.0474-.271.02-.0931.0754-.1747.1545-.2277l3.3359-2.2323-3.6102 2.0842c-.0821.0461-.1788.0589-.2701.0357s-.1701-.0806-.2202-.1604-.0675-.1758-.0487-.2681c.0187-.0923.0723-.1738.1496-.2276l4.9133-3.3396-6.5054 3.7546c-.0819.0445-.1777.0562-.2679.0325-.0902-.0236-.168-.0806-.2176-.1596-.0496-.0789-.0672-.1738-.0494-.2653.0179-.0915.0699-.1727.1455-.2272l6.9183-4.7029-9.2209 5.3225c-.0824.0455-.1791.0576-.2701.0338-.0909-.0239-.1693-.0817-.2189-.1617-.0495-.0799-.0664-.1759-.0472-.2679.0192-.0921.0731-.1733.1504-.2268l7.9516-5.2697-10.20585 5.8923c-.07434.0431-.16145.0587-.24612.0441s-.16151-.0585-.21713-.124-.08648-.1484-.08719-.2343.02878-.1694.08331-.2358l1.09266-1.331-3.25893 1.881c-.07498.0433-.16284.0586-.24803.0433-.08519-.0154-.16222-.0603-.21745-.127-.05523-.0666-.0851-.1506-.08433-.2372.00077-.0865.03214-.17.08854-.2357l1.078-1.2466-2.09586 1.2092c-.06848.0394-.14784.0556-.22627.0463-.07844-.0094-.15175-.0438-.20903-.0982s-.09546-.1259-.10886-.2037c-.0134-.0779-.0013-.158.03449-.2284l.60793-1.188-.15546.0895c-.08417.0478-.18386.0605-.2773.0351s-.17306-.0867-.22147-.1705c-.04841-.0839-.0617-.1835-.03695-.2771s.08552-.1736.16905-.2226l1.23053-.7084c.06848-.0394.14784-.0556.22627-.0462.07844.0094.15175.0438.20903.0982s.09546.1258.10886.2037c.0134.0778.0013.1579-.03449.2283l-.60793 1.188 2.8974-1.672c.07498-.0432.16284-.0585.24803-.0432s.16222.0603.21745.1269.0851.1507.08433.2372c-.00077.0866-.03214.1701-.08855.2357l-1.078 1.2467 3.12772-1.8033c.0743-.043.1614-.0586.2461-.044.0846.0146.1615.0585.2171.1239.0556.0655.0865.1485.0872.2344s-.0288.1693-.0833.2357l-1.09342 1.3303 18.76092-10.8321c.0824-.0469.1797-.06.2716-.0366s.1712.0814.2212.162c.05.0805.0668.1773.047.27s-.0748.1742-.1534.2272l-7.9537 5.2712 7.5687-4.3699c.082-.0456.1783-.058.2692-.0348.0909.0233.1693.0805.2193.1599s.0677.1749.0494.2669-.0712.1734-.1477.2277l-6.9183 4.7028 6.5267-3.7693c.0821-.0477.1796-.0616.2718-.0389.0922.0228.172.0804.2226.1608s.068.1773.0485.2703-.0742.1748-.1528.2282l-4.9133 3.3403 4.5283-2.6136c.0821-.0455.1786-.0577.2695-.0342.091.0236.1694.0811.2191.1607.0498.0797.0671.1754.0483.2674-.0187.0921-.072.1734-.149.2273l-3.3308 2.2293 2.9429-1.6962c.0826-.047.1802-.06.2723-.0364.092.0236.1713.082.2211.1629s.0663.178.0459.2708c-.0203.0928-.0759.1741-.155.2268l-1.5488 1.0134 1.1652-.6717c.0418-.0265.0884-.0444.1372-.0524s.0987-.0061.1468.0057c.048.0118.0931.0331.1327.0628.0396.0296.0727.067.0975.1098.0247.0428.0406.0902.0465.1393.006.0491.002.0989-.0118.1464s-.037.0917-.0684.13c-.0313.0383-.07.0698-.1138.0927l-12.5026 7.2153c-.0557.0324-.1189.0496-.1833.0499z"/><path d="m12.265 26.0746c-.0794 0-.1566-.0258-.2201-.0735-.0634-.0476-.1097-.1146-.1319-.1908-.0221-.0762-.019-.1576.0091-.2318.028-.0743.0794-.1374.1464-.18l1.3992-.8881-.8236.4752c-.082.045-.1781.0569-.2687.0333-.0905-.0236-.1686-.0809-.2183-.1601-.0496-.0793-.0671-.1746-.0488-.2663.0182-.0918.0709-.1731.1472-.2273l7.7645-5.2675-8.2867 4.782c-.0832.0504-.1831.0657-.2775.0424-.0945-.0232-.1759-.083-.2263-.1663-.0504-.0832-.0656-.1831-.0424-.2776.0233-.0944.0831-.1758.1664-.2262l1.9646-1.2467-3.036 1.7549c-.0829.0472-.1808.0602-.273.0364-.0923-.0238-.17168-.0826-.22135-.1639s-.06573-.1788-.04478-.2718c.02095-.0929.07727-.1741.15702-.2262l5.59311-3.5934-7.31351 4.2189c-.07813.0468-.17085.0628-.26014.0449-.08928-.0178-.16873-.0682-.22289-.1414s-.07915-.1639-.07011-.2545.05146-.1746.11901-.2357l.781-.7333-2.28654 1.32c-.07906.0448-.17195.0587-.26066.0389-.08871-.0197-.16691-.0718-.21944-.1459-.05252-.0742-.07563-.1653-.06483-.2555s.05472-.1733.12327-.233l.35273-.3014-1.5554.8969c-.07586.0436-.16479.0586-.25074.0423-.08596-.0162-.16327-.0627-.21798-.1309-.05471-.0683-.08322-.1538-.08037-.2413.00285-.0874.03686-.1709.09589-.2355l1.034-1.122-2.91134 1.6801c-.07556.0436-.16419.0588-.24996.0429s-.16307-.0618-.21802-.1296c-.05494-.0677-.08393-.1529-.08176-.2401s.03536-.1708.09361-.2357l1.04867-1.1697-1.74607 1.0062c-.0699.0403-.151161.0565-.231182.046-.080021-.0106-.154329-.0472-.2114-.1043-.057072-.0571-.093718-.1314-.104256-.2114s.005622-.1613.045973-.2312l.561735-.9658-.03667.0213c-.0838.0438-.181292.0536-.272118.0272-.090827-.0263-.16796-.0867-.215288-.1686s-.06119-.1789-.03869-.2708c.0225-.0918.07962-.1714.159431-.2222l1.225395-.7069c.0696-.0397.1503-.0556.22977-.0451.07946.0104.15331.0466.21023.103.05642.057.09264.1308.1031.2103s-.0054.1602-.04516.2297l-.5588.9688 2.54833-1.4667c.07548-.0431.16383-.058.24927-.042.08545.016.16243.0618.21723.1293.05479.0675.08383.1522.08193.2391-.00189.0869-.03461.1703-.09229.2353l-1.04867 1.1697 3.0008-1.7314c.07585-.0436.16479-.0586.25074-.0423.08595.0162.16326.0627.21798.1309.05471.0683.08321.1539.08037.2413-.00285.0874-.03686.171-.09589.2355l-1.034 1.1213 2.92453-1.6867c.07906-.0448.17196-.0587.26067-.0389s.16691.0718.21943.146c.05253.0741.07563.1652.06484.2554-.0108.0903-.05473.1733-.12327.233l-.352.3006 1.56421-.902c.0781-.0467.1708-.0627.2601-.0449.0893.0179.1688.0683.2229.1415.0542.0732.0792.1639.0701.2545-.009.0906-.0514.1746-.119.2356l-.7802.7333 17.8552-10.3106c.0829-.0486.1817-.0627.275-.0392.0932.0235.1735.0827.2235.1648.05.0822.0658.1807.0439.2743-.022.0937-.0798.175-.1611.2263l-5.5902 3.5934 5.2103-3.0067c.0833-.0503.1831-.0654.2775-.0421s.1757.0832.226.1664c.0502.0833.0654.1831.0421.2775s-.0832.1757-.1664.2259l-1.9595 1.2401 1.5811-.9123c.0822-.0468.1793-.0601.2711-.0369.0918.0231.171.0808.2212.161s.0675.1768.0481.2694c-.0193.0926-.0737.1742-.1518.2277l-7.7645 5.2682 7.3773-4.2584c.0827-.0437.179-.0542.2692-.0292.0901.025.1673.0835.2158.1635.0484.08.0645.1755.0448.267-.0197.0914-.0736.1719-.1506.2249l-1.3934.8866 1.0186-.5866c.0842-.0479.1839-.0605.2773-.0351.0935.0253.1731.0866.2215.1705.0484.0838.0617.1834.0369.2771-.0247.0936-.0855.1736-.169.2225l-16.3233 9.4204c-.0556.0325-.1189.0497-.1833.0499z"/><path d="m12.3351 20.083c-.0784 0-.1548-.0252-.2178-.0719-.0631-.0467-.1095-.1123-.1325-.1873s-.0213-.1554.0048-.2294.0753-.1377.1402-.1816l7.6413-5.1737-7.3934 4.268c-.0826.047-.1803.06-.2723.0364s-.1713-.082-.2212-.1629c-.0498-.0809-.0663-.178-.0459-.2708.0204-.0929.076-.1741.1551-.2268l3.1035-2.024-3.5934 2.0761c-.0744.043-.1615.0585-.2462.0438s-.1616-.0587-.2171-.1243c-.0556-.0656-.0863-.1486-.0869-.2345-.0005-.086.0291-.1694.0838-.2357l1.125-1.3618-3.24649 1.87c-.07721.0439-.16776.0584-.25481.0406s-.16469-.0666-.21847-.1373c-.05378-.0708-.08005-.1586-.07393-.2472.00612-.0887.04422-.1721.10721-.2347l.89173-.88-2.52707 1.4586c-.0773.0445-.16821.0594-.25569.0418-.08747-.0177-.16551-.0666-.21948-.1377-.05398-.0711-.08018-.1594-.07371-.2484.00648-.089.04519-.1726.10888-.2351l.88-.858-2.38186 1.3743c-.07577.0431-.16441.0578-.25003.0414-.08561-.0164-.1626-.0627-.21716-.1306-.05455-.068-.08311-.1532-.08055-.2403.00256-.0872.03608-.1705.09454-.2352l.9812-1.0684-1.43147.8242c-.07137.0413-.15455.0573-.23613.0454-.08157-.0118-.15677-.0508-.21347-.1106-.0567-.0599-.09158-.1371-.09902-.2192s.013-.1643.05802-.2333l.4928-.7546c-.08573.0217-.17642.0117-.25535-.0282-.07894-.0398-.14081-.1069-.17421-.1888s-.03607-.1731-.00754-.2568c.02854-.0837.08637-.1542.16283-.1987l1.21954-.7032c.07137-.0413.15455-.0573.23613-.0454.08157.0118.15677.0508.21347.1106.0567.0599.09158.1371.09902.2191.00744.0821-.013.1643-.05802.2334l-.47594.7333 2.1626-1.2466c.07578-.0431.16442-.0578.25003-.0414.08561.0163.1626.0626.21716.1306s.08311.1532.08055.2403-.03608.1705-.09454.2351l-.979 1.0626 2.83067-1.6331c.07731-.0446.16822-.0594.25569-.0418.08748.0176.16552.0666.21949.1377.05397.071.08018.1593.0737.2483-.00647.089-.04519.1726-.10888.2351l-.88.8588 2.49336-1.4381c.0772-.044.1677-.0584.2548-.0406.087.0178.1647.0666.2184.1373.0538.0707.0801.1586.074.2472s-.0442.172-.1072.2347l-.8918.88 2.5271-1.4571c.0744-.0431.1616-.0586.2463-.0439s.1615.0587.2171.1243c.0555.0656.0862.1487.0868.2346.0006.086-.0291.1694-.0838.2357l-1.1249 1.3618 13.5087-7.8012c.0828-.04813.1811-.06198.2739-.0386.0928.02339.1728.08215.2229.16374s.0663.17953.0451.2729c-.0211.09336-.078.17474-.1584.22676l-3.1064 2.0269 4.5958-2.6539c.0823-.04686.1794-.06011.2712-.03699.0917.02312.171.08083.2212.16105.0502.08023.0675.17675.0481.26939-.0193.09264-.0737.17422-.1518.22768l-7.6443 5.17587 7.3752-4.2577c.0838-.04387.1813-.05364.2721-.02729.0908.02639.168.08679.2153.16869.0473.0818.0612.1788.0387.2707s-.0796.1715-.1595.2222l-16.244 9.3779c-.0557.0324-.1189.0496-.1834.0498z"/><path d="m16.0384 14.1307c-.0758-.0001-.1498-.0236-.2117-.0674s-.1087-.1057-.1339-.1772c-.0253-.0715-.0277-.1491-.0071-.222.0207-.073.0635-.1377.1225-.1854l2.4794-2.0027-2.1883 1.2635c-.0803.0454-.1747.0588-.2644.0377s-.1682-.0753-.2198-.1517-.0726-.1694-.0587-.2605.0617-.1737.1337-.2312l.5001-.3916-.7392.4305c-.078.0423-.1687.055-.2553.0355-.0867-.0194-.1633-.0696-.2157-.1413s-.077-.1599-.0693-.2484c.0077-.0884.0473-.171.1113-.2325l.7994-.7223-2.0284 1.1733c-.0749.0428-.1625.0578-.2474.0424s-.1616-.0602-.2167-.1266-.085-.1501-.0845-.2364c.0005-.0862.0314-.1696.0873-.2353l1.0846-1.262-3.1497 1.8069c-.0785.0446-.1706.0586-.2588.0395-.0883-.0191-.1663-.0701-.2193-.1433-.0529-.0731-.077-.1631-.0677-.2529s.0514-.173.1183-.2336l.5764-.5134-1.63021.9424c-.07601.044-.16533.0593-.25168.0431-.08636-.0162-.16401-.0629-.21883-.1316s-.08315-.1548-.07983-.2426c.00331-.0878.03804-.1715.09787-.2358l.87998-.9533-1.14178.66c-.07289.042-.15805.0578-.24117.0445s-.15914-.0547-.2153-.1174c-.05617-.0627-.08905-.1428-.09312-.2269-.00408-.0841.02089-.167.07073-.2348l.4246-.57865c-.07874-.00429-.15399-.03384-.2146-.08428-.06061-.05043-.10335-.11906-.12187-.19571-.01852-.07664-.01184-.15721.01904-.22976.03089-.07255.08434-.13321.15243-.17298l1.22104-.70474c.0728-.04215.1579-.05798.241-.04482.0831.01317.1592.05452.2154.11712.0563.0626.0893.14264.0935.22668.0042.08405-.0206.16698-.0703.23489l-.3374.4598 1.727-.99146c.076-.04357.165-.05854.251-.0422.086.01635.1633.06292.2179.13131.0547.06838.0831.15406.0801.24155-.0031.08749-.0373.17101-.0965.23547l-.88.95338 2.6341-1.52025c.0785-.04459.1707-.05866.2589-.03952.0882.01915.1663.07015.2192.14326.053.07311.0771.16318.0677.25296-.0093.08978-.0514.17297-.1182.23364l-.5764.51333 1.9169-1.1066c.075-.04324.1628-.05855.248-.04324s.1622.06027.2175.12692c.0552.06664.0851.15068.0843.23723s-.0321.17004-.0885.23569l-1.0854 1.26138 3.1534-1.82092c.078-.04238.1687-.05502.2553-.03557s.1633.06967.2157.14133.077.15991.0693.24835c-.0078.08844-.0473.17107-.1113.23256l-.7994.72234 2.277-1.31414c.0803-.04453.1743-.05736.2635-.03596s.1672.07547.2185.15155.0722.16863.0586.25937-.0608.17309-.1321.23077l-.4987.39014 1.73-.99807c.0798-.04578.1739-.05986.2637-.03944.0897.02042.1685.07385.2207.14967.0522.07581.0739.16848.0609.2596-.013.09111-.0597.17402-.131.23224l-2.4787 2.00058 4.5166-2.60778c.0418-.02653.0884-.04435.1372-.05237.0488-.00803.0987-.0061.1468.00567.048.01176.0932.03312.1327.06279.0396.02967.0727.06703.0975.10985.0247.04281.0406.09019.0465.13928.006.04909.002.09888-.0118.14637-.0138.0475-.037.09171-.0684.12999-.0313.03828-.07.06983-.1138.09275l-8.5895 4.95805c-.0555.0332-.1188.0509-.1834.0514z"/><path d="m3.79053 35.5448c-.07235.0001-.14312-.0212-.20341-.0612-.06028-.04-.10739-.0969-.13538-.1637-.02799-.0667-.03561-.1402-.02191-.2112.0137-.0711.04811-.1365.0989-.188l.04694-.0469-1.07727.6196c-.0766.0437-.16637.0583-.25287.0412s-.16393-.0649-.21809-.1345c-.05417-.0695-.08145-.1563-.07684-.2444.00461-.088.0408-.1715.10193-.235l.84114-.8668-1.60747.9299c-.07811.0453-.1702.0603-.25864.0419-.088437-.0183-.166989-.0687-.220598-.1414s-.078502-.1626-.069908-.2525.05007-.1735.116478-.2347l.171598-.1591-.068198.0396c-.074701.0433-.162305.0589-.247371.044-.085066-.015-.162135-.0594-.217623-.1256-.055487-.0662-.085833-.1498-.085687-.2362.000145-.0864.030771-.1699.086481-.2359l.331467-.3938c-.074849-.0303-.137175-.0851-.176733-.1555-.04845-.084-.061608-.1839-.036591-.2776.025016-.0938.086167-.1738.170057-.2225l1.215138-.7011c.07461-.0425.16176-.0574.24627-.0422.0845.0152.161.0595.21615.1253.05516.0658.08547.1489.08566.2348.00019.0858-.02976.169-.08462.2351l-.06086.0733 1.0868-.6263c.0781-.0453.1702-.0603.25863-.0419.08844.0183.16699.0687.2206.1414s.07851.1626.06991.2525c-.00859.0899-.05007.1735-.11648.2347l-.1716.1584 1.06407-.6138c.07669-.0443.16679-.0593.25368-.0422.08688.017.16468.0648.21902.1347s.08156.1571.07663.2455c-.00494.0884-.04168.172-.10346.2355l-.84187.8646 1.14107-.66c.07676-.0443.16696-.0593.25391-.0422s.16477.0651.21907.1351c.05429.0701.08138.1574.07626.2459-.00512.0884-.0421.1721-.10411.2354l-.18113.184c.0804.0008.15831.028.22173.0775.06342.0494.10884.1183.12926.196.02042.0778.01471.1601-.01624.2343-.03096.0742-.08545.1362-.15509.1764l-2.02546 1.1682c-.05539.0333-.11872.051-.18334.0514z"/><path d="m4.42116 12.0763c-.0638-.0001-.12647-.0169-.18181-.0487-.05533-.0317-.10142-.0774-.13371-.1324s-.04967-.1175-.05041-.1813c-.00073-.0638.01519-.1267.04619-.1825l.5698-1.0267-2.57913 1.4887c-.07413.0428-.16088.0582-.24522.0438-.08434-.0145-.16096-.058-.21658-.1231-.05563-.065-.08676-.1474-.088-.233s.02748-.1689.0812-.2355l1.06773-1.32-1.661.957c-.071801.0407-.155219.0559-.236762.0433-.081542-.0126-.156441-.0524-.212585-.1129s-.09025-.1381-.096804-.2203c-.006554-.0823.014829-.1644.060689-.233l.458332-.66876c-.083072.00783-.166329-.01291-.236021-.0588-.069691-.04588-.121648-.11416-.14729-.19357-.025642-.0794-.023434-.16518.006259-.24315.029692-.07798.085093-.1435.157053-.18574l1.212929-.70327c.07196-.04121.15575-.05682.23772-.04428.08196.01254.15726.05249.21359.11334.05633.06084.09038.13898.09659.22167.0062.08269-.0158.16503-.06243.2336l-.418.6094 1.96973-1.13373c.07407-.04289.1608-.05853.24518-.0442.08437.01433.16108.05773.21682.12267.05582.06511.08704.14772.08825.23347.0012.08575-.02769.16921-.08165.23586l-1.06773 1.31999 2.0218-1.16599c.06936-.04004.14993-.05626.22938-.0462.07946.01006.15343.04587.21062.10194.05724.05631.09442.12986.10581.20935s-.00362.16052-.04274.23064l-.56907 1.02666.06453-.0367c.0838-.0438.1813-.0536.27212-.0272.09083.0263.16797.0868.21529.1686.04733.0819.06119.1789.03869.2708-.0225.0918-.07962.1714-.15943.2222l-1.2166.6981c-.05567.0325-.1189.0497-.18333.0499z"/></g><path d="m22.8992 34.8331c-.0789.0001-.1558-.0253-.2192-.0724-.0633-.0471-.1098-.1134-.1325-.1891-.0226-.0756-.0203-.1566.0068-.2307.027-.0742.0773-.1377.1433-.181l4.5965-3.0118-5.0886 2.9362c-.0821.0455-.1786.0578-.2696.0342-.0909-.0235-.1693-.081-.219-.1607-.0498-.0796-.0671-.1754-.0483-.2674.0187-.092.072-.1733.149-.2272l6.3726-4.2871-5.9847 3.457c-.0827.0461-.18.0586-.2716.0346s-.1704-.0824-.2199-.1632c-.0495-.0807-.0658-.1775-.0455-.27.0202-.0925.0755-.1736.1542-.2262l3.0147-1.9632-2.6319 1.5173c-.0818.0457-.178.0584-.2688.0354s-.1694-.0799-.2196-.159-.0683-.1745-.0504-.2664c.0179-.092.0703-.1737.1465-.2282l6.4093-4.4557-6.0133 3.4738c-.0822.0448-.1785.0566-.2691.0327-.0906-.0238-.1686-.0815-.2181-.161-.0494-.0796-.0665-.1751-.0478-.2668.0187-.0918.0719-.173.1485-.2268l8.7802-5.8469-8.2273 4.7484c-.0409.0253-.0864.0424-.1339.0502-.0476.0078-.0962.0061-.143-.0049-.0469-.011-.0912-.0311-.1303-.0592s-.0723-.0636-.0977-.1046c-.0253-.0409-.0424-.0864-.0502-.134-.0078-.0475-.0061-.0961.0049-.143.0222-.0946.0811-.1766.1638-.2279l9.0464-6.0067-7.549 4.3575c-.0826.0442-.1791.0551-.2695.0304-.0905-.0246-.168-.083-.2168-.1631-.0487-.0801-.0649-.1758-.0452-.2675.0196-.0917.0737-.1723.1509-.2254l4.7029-3.0154c-.0837.0208-.172.0115-.2495-.0263-.0775-.0379-.1392-.1018-.1742-.1806s-.0411-.1674-.0173-.2503.0761-.1547.1477-.2028l5.7713-3.9776-6.4871 3.7444c-.0822.0448-.1785.0566-.269.0327-.0906-.0238-.1686-.0815-.2181-.161-.0494-.0796-.0666-.1751-.0478-.2668.0187-.0918.0718-.173.1485-.2268l4.8583-3.234-5.4179 3.1269c-.0822.0449-.1785.0566-.269.0328-.0906-.0239-.1686-.0815-.2181-.1611-.0494-.0795-.0666-.175-.0478-.2668.0187-.0918.0718-.1729.1485-.2267l5.7368-3.8134-6.3514 3.6667c-.0823.0477-.18.0616-.2724.0386-.0923-.023-.1721-.081-.2225-.1618-.0504-.0807-.0674-.1779-.0474-.271.0199-.0931.0753-.1747.1544-.2277l5.8667-3.9284-6.4497 3.7238c-.0821.0455-.1786.0578-.2696.0342-.0909-.0235-.1693-.081-.219-.1607-.0498-.0797-.0671-.1754-.0483-.2674.0187-.092.072-.1734.149-.2272l5.0028-3.3733-5.3446 3.0844c-.0816.0452-.1775.0575-.268.0345s-.1688-.0797-.2189-.1584c-.0501-.0788-.0683-.1737-.0509-.2654.0175-.0917.0692-.1733.1448-.2282l4.9463-3.4525-5.1187 2.9553c-.0811.0476-.1774.0623-.2691.0409-.0916-.0214-.1715-.0772-.2231-.1559s-.071-.1742-.0542-.2667c.0168-.0926.0686-.1752.1446-.2306l4.5789-3.3895-4.5144 2.6085c-.08.0454-.1742.0591-.2638.0383-.0896-.0207-.1682-.0744-.22-.1504-.0519-.076-.0733-.1687-.0601-.2597.0133-.0911.0603-.1738.1318-.2318l3.4884-2.7866-3.1203 1.8003c-.0791.0443-.1718.0577-.2603.0376-.0884-.0201-.1663-.0722-.2185-.1463s-.0752-.165-.0643-.255c.0108-.0901.0546-.1729.1229-.2325l1.8971-1.6133-1.4769.855c-.078.0424-.1687.055-.2554.0356-.0866-.0195-.1632-.0697-.2156-.1413-.0524-.0717-.077-.1599-.0693-.2484.0077-.0884.0473-.1711.1113-.2325l.6175-.5581-.1885.1093c-.061.0351-.1309.052-.2013.0485s-.1383-.0272-.1955-.0683c-.0573-.0411-.1015-.0978-.1274-.1634-.0258-.0655-.0322-.1371-.0185-.2062l.2413-1.2071c-.0842-.0284-.155-.0869-.1987-.16428-.0485-.08406-.0616-.18389-.0366-.27764.025-.09374.0862-.17375.17-.22249l.3667-.21193c.061-.03511.1308-.05193.2011-.04844s.1381.02714.1953.06812.1015.09756.1274.16299.0325.13694.0189.20599l-.2083 1.04428 2.4882-1.43588c.078-.04238.1688-.05502.2554-.03557s.1632.06967.2156.14133.077.1599.0693.24834-.0473.17108-.1113.23257l-.6167.55661 1.9895-1.14768c.0791-.04429.1719-.05769.2603-.03761s.1663.07221.2185.14633c.0523.07412.0752.16497.0643.255-.0108.09003-.0546.17286-.1229.23248l-1.8971 1.61338 3.8287-2.21031c.08-.04463.1738-.05772.2629-.03669.0891.02104.1672.07467.2188.15035.0516.07567.073.16792.0599.25858-.013.09065-.0594.17316-.1302.23129l-3.487 2.78668 5.874-3.39168c.0811-.04765.1775-.06229.2691-.04088.0916.0214.1715.0772.2232.15587.0516.07866.071.17416.0542.26673-.0169.09258-.0686.17514-.1446.23062l-4.5812 3.39024 6.9388-4.00551c.0819-.04697.1787-.06058.2703-.03799s.171.07964.2217.15927c.0506.07964.0686.17573.0502.26828-.0184.09256-.0718.17445-.1491.22864l-4.9449 3.45111 7.0532-4.07224c.0822-.04551.1787-.05775.2696-.03421s.1693.08107.2191.16072c.0497.07966.067.17537.0483.2674s-.0721.17336-.149.22722l-5.0043 3.37331 6.9271-3.99884c.0823-.04613.1792-.05877.2705-.0353.0914.02348.1702.08126.22.16133.0499.08008.067.17629.0477.26863-.0192.09234-.0733.17372-.151.2272l-5.8667 3.92778 6.7899-3.91971c.0823-.04489.1785-.05661.2691-.03275.0906.02385.1686.08147.2181.16103.0494.07953.0665.17503.0478.26683s-.0718.1729-.1485.2268l-5.7354 3.8133 5.3489-3.0881c.0823-.0449.1785-.0566.2691-.0327.0906.0238.1686.0814.2181.161.0494.0796.0665.175.0478.2668s-.0718.1729-.1485.2268l-4.8605 3.234 4.4733-2.5821c.0821-.0486.1799-.0634.2727-.041.0928.0223.1732.0799.2242.1606s.0685.178.0488.2714c-.0196.0934-.0749.1754-.1541.2287l-5.7728 3.9783 5.3812-3.1064c.0829-.0463.1805-.0587.2723-.0345s.1707.083.22.1642c.0493.0811.0652.1782.0444.2708-.0209.0926-.0768.1736-.1561.2258l-4.4396 2.8453 4.0055-2.3122c.0409-.0254.0864-.0424.134-.0502.0475-.0078.0961-.0061.143.0049.0468.011.0911.0311.1302.0592s.0723.0636.0977.1046c.0254.0409.0424.0864.0502.1339.0078.0476.0061.0962-.0049.143-.011.0469-.0311.0912-.0592.1303s-.0636.0723-.1046.0977l-9.0464 6.0067 8.03-4.6354c.0823-.0449.1785-.0566.2691-.0328.0906.0239.1686.0815.2181.1611.0494.0795.0665.175.0478.2668s-.0718.1729-.1485.2268l-8.7824 5.8483 3.6469-2.1054c.0818-.047.1786-.0606.2703-.038.0916.0226.171.0796.2216.1593.0506.0796.0686.1757.0502.2683-.0184.0925-.0718.1744-.1491.2286l-6.4086 4.4543 6.8809-3.9725c.0828-.0481.1811-.062.2739-.0386s.1728.0821.2229.1637.0663.1796.0451.2729c-.0211.0934-.078.1748-.1584.2268l-3.0132 1.9617 3.4232-1.9756c.0824-.0516.182-.0683.2768-.0464.0947.0219.1769.0805.2284.163.0516.0824.0683.182.0464.2767-.0219.0948-.0805.177-.163.2285l-6.3756 4.2878 7.0657-4.0788c.0824-.0448.1789-.0564.2695-.0322.0907.0241.1687.082.2179.1619.0492.0798.066.1755.0468.2674-.0192.0918-.0728.1728-.1499.2263l-4.5922 3.0066 5.0703-2.9267c.082-.0456.1783-.058.2692-.0348.0908.0233.1693.0805.2193.1599s.0676.1749.0493.2669-.0711.1734-.1477.2277l-5.7676 3.938 6.2018-3.5802c.0821-.0444.178-.0558.2682-.0319s.168.0813.2173.1605c.0494.0792.0667.1742.0484.2658-.0182.0915-.0707.1726-.1467.2268l-3.4804 2.3334 3.5852-2.0694c.0825-.0462.1796-.0587.2711-.035.0915.0238.1702.0819.2199.1623s.0664.1768.0466.2693c-.0197.0924-.0744.1736-.1526.2267l-1.0208.6717.9204-.5309c.081-.0454.1763-.0584.2665-.0363.0903.0222.1688.0777.2196.1555.0509.0778.0703.1719.0544.2635-.0159.0915-.066.1736-.1401.2296l-3.8867 2.86 3.7033-2.1354c.081-.0461.1765-.0596.2671-.0378s.1694.0773.2206.1552c.0512.0778.0708.1722.0548.264-.0159.0918-.0662.1741-.1406.2302l-2.1941 1.6265 1.8106-1.045c.0781-.0447.1699-.0592.2579-.0406.0881.0186.1662.0689.2195.1414.0534.0725.0782.162.0698.2516s-.0494.173-.1153.2343l-2.1905 2.0313 1.7644-1.0186c.072-.0416.156-.0575.2381-.0451.0822.0124.1578.0523.2143.1132.0565.061.0906.1393.0968.2222.0061.0829-.0161.1654-.063.234l-.9012 1.32.4224-.2434c.0841-.0479.1838-.0605.2773-.0351.0934.0253.173.0866.2214.1705.0485.0838.0617.1834.037.277-.0248.0936-.0855.1737-.1691.2226l-1.8179 1.0487c-.0719.0416-.1559.0575-.2381.0451s-.1577-.0523-.2142-.1133c-.0565-.0609-.0907-.1392-.0968-.2221-.0062-.0829.016-.1654.0629-.234l.9005-1.3171-3.1922 1.8407c-.0781.0453-.1702.0603-.2586.0419-.0884-.0183-.167-.0687-.2206-.1414s-.0785-.1626-.0699-.2525.0501-.1735.1165-.2347l2.1919-2.0321-4.5408 2.621c-.081.046-.1765.0595-.267.0377-.0906-.0218-.1695-.0773-.2206-.1551-.0512-.0779-.0708-.1723-.0549-.2641.016-.0918.0662-.1741.1406-.2301l2.192-1.6244-3.8786 2.2389c-.0811.0454-.1764.0584-.2666.0362-.0902-.0221-.1687-.0776-.2196-.1554-.0508-.0778-.0702-.1719-.0543-.2635.0159-.0915.066-.1736.1401-.2296l3.8866-2.86-6.0228 3.4767c-.0827.0495-.1816.0645-.2753.0416-.0937-.0228-.1745-.0816-.2252-.1637-.0506-.082-.0669-.1807-.0452-.2747.0216-.0939.0793-.1756.1607-.2273l1.0178-.6695-2.2432 1.2951c-.0824.0477-.1801.0615-.2724.0385-.0924-.0229-.1722-.0809-.2226-.1617s-.0674-.178-.0474-.271c.02-.0931.0754-.1747.1544-.2277l3.476-2.3298-5.1172 2.9546c-.0821.0477-.1796.0616-.2718.0389-.0922-.0228-.172-.0804-.2226-.1608-.0506-.0805-.068-.1774-.0485-.2703.0195-.093.0742-.1748.1528-.2282l5.7699-3.9395-7.9002 4.5621c-.0557.0324-.1189.0496-.1834.0499z" fill="#e1efff"/><path d="m25.7893 34.1002c-.0766-.0009-.151-.0258-.2127-.0711-.0618-.0453-.1077-.1089-.1315-.1817s-.0242-.1512-.0011-.2242c.023-.0731.0684-.137.1297-.183l3.9988-2.9106-4.4337 2.5593c-.0808.0463-.1762.0602-.2669.0387-.0906-.0215-.1697-.0767-.2211-.1544-.0514-.0776-.0714-.1719-.0558-.2638.0156-.0918.0656-.1743.1397-.2306l4.4345-3.3381-4.0304 2.3195c-.0804.045-.1749.0581-.2645.0367-.0896-.0215-.1679-.0759-.2192-.1525-.0514-.0765-.072-.1696-.0577-.2607.0142-.091.0622-.1734.1344-.2307l3.7833-2.9289-3.2714 1.8883c-.0795.045-.1729.0586-.2619.0384-.0891-.0203-.1673-.0731-.2195-.148s-.0745-.1666-.0627-.2572c.0119-.0905.0571-.1734.1268-.2323l4.3435-3.6044c-.0168-.0196-.0317-.0407-.0447-.063-.0487-.0842-.062-.1842-.037-.2781.0251-.0939.0864-.174.1705-.2228l1.9719-1.1381c.0795-.045.1729-.0586.2619-.0384.089.0203.1673.0731.2195.148.0521.0749.0745.1666.0626.2572-.0118.0905-.057.1733-.1267.2323l-3.0228 2.508 4.2144-2.4332c.0806-.0473.1762-.062.2673-.0412.091.0208.1707.0756.2228.1532.052.0776.0725.1722.0572.2643-.0153.0922-.0652.175-.1395.2316l-3.7826 2.9282 4.5526-2.6282c.0807-.0454.1757-.0584.2657-.0366.0901.0218.1685.0769.2196.1541.0511.0773.071.1711.0558.2624-.0152.0914-.0644.1736-.1378.2302l-4.4345 3.3418 5.2331-3.0221c.0813-.0462.1771-.0596.268-.0375.0908.0221.1698.078.2207.1564.051.0784.0701.1733.0534.2653s-.0679.1741-.1432.2296l-3.9966 2.9092 4.6698-2.6965c.0821-.0469.179-.0603.2707-.0374.0917.0228.171.0802.2214.1601s.068.1762.0492.2688c-.0189.0926-.0728.1743-.1504.2282l-1.2254.8418 1.5444-.8917c.0812-.0469.1773-.0609.2685-.0392.0912.0218.1706.0777.2219.1562s.0705.1737.0538.266c-.0168.0922-.0682.1746-.1438.2301l-2.2066 1.6133 2.4251-1.3955c.0809-.0442.1755-.0563.265-.0339.0894.0224.1671.0777.2176.1548.0505.0772.0701.1705.0549.2614-.0153.0909-.0642.1728-.1371.2293l-1.1484.8455 1.0216-.5867c.0796-.0453.1734-.0592.2627-.0388.0894.0204.1679.0734.2201.1488s.0742.1675.0618.2583c-.0124.0909-.0584.1737-.1288.2323l-1.287 1.0575.91-.5251c.0757-.0435.1645-.0586.2504-.0426.0858.0161.1631.0623.218.1303.0548.068.0835.1533.081.2407-.0025.0873-.0361.1708-.0947.2356l-.9203 1.012.4737-.2736c.0654-.0379.1409-.0547.2162-.048s.1467.0365.2045.0853c.0577.0488.0989.1142.118.1874s.0151.1504-.0114.2212l-.242.649c.07.0187.133.0578.1808.1123.0479.0545.0785.122.088.1939s-.0025.145-.0346.2101-.0827.1192-.1455.1554l-.5478.3088c-.0653.0378-.1408.0545-.2159.0478-.0752-.0067-.1465-.0364-.2042-.0851s-.0989-.114-.1181-.187-.0154-.1501.0109-.2209l.1834-.4913-1.6288.9394c-.0756.0431-.1641.0579-.2496.0417s-.1625-.0622-.2172-.1299c-.0547-.0678-.0835-.1527-.0812-.2398.0022-.087.0353-.1704.0934-.2352l.9203-1.012-2.7353 1.5789c-.0797.0461-.1739.0606-.2637.0405-.0899-.02-.1689-.0732-.2214-.1489-.0525-.0756-.0746-.1683-.0619-.2595s.0593-.1743.1304-.2327l1.2892-1.059-2.8812 1.6632c-.0811.0445-.1759.0568-.2656.0344-.0896-.0224-.1675-.0779-.218-.1553-.0506-.0774-.07-.171-.0544-.2622.0155-.0911.0649-.1729.1383-.2292l1.1506-.8419-2.5293 1.4601c-.0813.0536-.1805.0727-.2759.0531s-.1791-.0763-.2326-.1576c-.0536-.0813-.0727-.1805-.0531-.2759s.0763-.1791.1576-.2327l2.2066-1.6133-3.8698 2.2337c-.0821.0469-.179.0603-.2707.0375-.0917-.0229-.171-.0803-.2214-.1602s-.0681-.1762-.0492-.2688.0727-.1743.1504-.2281l1.2232-.839-2.5322 1.4616c-.0552.0313-.1177.0475-.1811.0469z" fill="#dbb16e"/><path d="m31.6526 20.1407c-.0773.0009-.1529-.0226-.2161-.0673-.0631-.0446-.1105-.1081-.1354-.1813-.0249-.0733-.026-.1525-.0032-.2264s.0685-.1386.1303-.185l1.8554-1.433-2.761 1.5936c-.0816.0465-.1779.06-.269.0376-.0912-.0224-.1704-.0789-.2211-.1578-.0508-.079-.0693-.1745-.0518-.2667s.0697-.1743.1459-.2291l1.54-1.1-1.9265 1.1124c-.0811.0477-.1775.0623-.2691.0409s-.1715-.0772-.2231-.1559c-.0517-.0786-.0711-.1741-.0542-.2667.0168-.0926.0685-.1751.1445-.2306l3.3653-2.4933-3.9959 2.307c-.0824.0469-.1798.06-.2717.0367-.0919-.0234-.1711-.0814-.2211-.162s-.0669-.1773-.0471-.2701c.0199-.0927.0748-.1741.1534-.2272l.1569-.1041-.4077.2347c-.0814.0467-.1775.0604-.2687.0383-.0912-.022-.1705-.0782-.2215-.157-.051-.0787-.0699-.174-.0528-.2662.0171-.0923.0689-.1745.1448-.2297l4.1477-3.0066-4.8275 2.7866c-.0806.0457-.1755.0591-.2656.0376s-.1687-.0763-.2201-.1534-.0716-.1707-.0568-.2622c.0149-.0914.0638-.1738.137-.2306l3.729-2.838-4.4103 2.5578c-.0804.0466-.1754.0609-.266.0401-.0905-.0209-.1697-.0753-.2217-.1523-.0519-.077-.0727-.1708-.0582-.2626.0146-.0917.0635-.1745.1367-.2316l2.8321-2.2169-3.0433 1.76c-.0798.045-.1736.0584-.2628.0377-.0893-.0207-.1675-.074-.2194-.1495s-.0736-.1677-.0609-.2585c.0127-.0907.0589-.1734.1295-.2318l1.7666-1.4314-1.4997.8602c-.0764.0441-.1662.0592-.2529.0425-.0867-.0168-.1645-.0643-.219-.1337-.0545-.0695-.082-.1563-.0777-.2445.0044-.0882.0405-.1719.1016-.2356l1.2745-1.3288-.8265.4767c-.0612.0352-.1314.052-.202.0484-.0706-.0037-.1386-.0277-.1959-.0692s-.1013-.0986-.1269-.1645c-.0255-.0659-.0315-.1378-.0171-.2071l.2354-1.1286c-.082-.0288-.1507-.0864-.1936-.162-.0484-.0841-.0616-.1839-.0366-.2777.025-.0937.0862-.1737.1701-.2225l.3666-.2119c.0613-.03549.1316-.05248.2023-.0489.0708.00357.1389.02756.1963.06905.0574.04145.1016.09875.1271.16475.0256.0661.0315.1381.017.2074l-.2002.9585 2.3467-1.3552c.0764-.04414.1661-.05927.2527-.04259.0867.01667.1644.06402.2189.13339.0546.0693.0823.156.0781.2441s-.04.1718-.1009.2356l-1.2753 1.3296 3.3-1.9067c.0799-.04578.174-.05986.2637-.03944.0898.02042.1686.07385.2207.14964.0522.0758.074.1685.061.2596s-.0598.174-.1311.2323l-1.7673 1.4314 3.5295-2.03717c.0803-.04623.1751-.06036.2654-.03954.0903.02083.1694.07506.2213.15181.0519.0767.0729.1702.0586.2618-.0142.0916-.0626.1743-.1353.2317l-2.8314 2.2154 4.8935-2.82556c.0806-.04562.1755-.05904.2656-.03755.0901.02148.1688.07627.2201.15341.0514.077.0717.1707.0568.2621-.0149.0915-.0638.1739-.137.2307l-3.7312 2.8395 5.9804-3.45257c.0814-.0467.1775-.06043.2687-.03836s.1705.07825.2215.15703c.051.0787.0699.174.0528.2663-.0171.0922-.069.1744-.1448.2296l-4.1485 3.0066 4.0737-2.3459c.0824-.0469.1798-.06.2716-.0366.0919.0233.1712.0814.2212.1619.05.0806.0669.1774.047.2701-.0198.0927-.0748.1741-.1534.2272l-.3006.2002c.0748-.0196.1539-.0154.2263.0119s.1345.0765.1777.1406c.0516.0783.0713.1734.0549.2658-.0163.0923-.0675.1749-.1429.2307l-3.3645 2.4882 2.9597-1.7087c.0816-.0465.1779-.06.2691-.0376s.1703.0789.2211.1578c.0507.079.0693.1745.0518.2667-.0176.0922-.0698.1743-.146.2291l-1.54 1.1.858-.495c.0805-.0459.1753-.0596.2655-.0385.0902.0212.1691.0757.2207.1526s.0723.1705.0577.262c-.0145.0915-.0632.174-.1361.2311l-4.1001 3.1688c.0445.0838.0547.1816.0286.2728s-.0866.1687-.1687.2163l-1.9704 1.1359c-.0559.0317-.1192.0479-.1834.047z" fill="#dbb16e"/><path d="m37.0918 10.612c-.077 0-.152-.0242-.2144-.0692-.0625-.045-.1092-.1085-.1335-.1815s-.0251-.1518-.0021-.2253c.0229-.0734.0684-.13779.13-.18397l.5646-.41726-1.782 1.02593c-.0796.0446-.173.0579-.2619.0372-.0889-.0206-.1669-.0736-.2188-.1487s-.0739-.1668-.0618-.2572c.0122-.0905.0576-.1732.1275-.2319l1.8333-1.49893-3.6395 2.09953c-.0811.0454-.1764.0584-.2666.0363-.0903-.0222-.1687-.0777-.2196-.1555-.0508-.0778-.0703-.1719-.0543-.2635.0159-.0915.0659-.1736.1401-.22963l.5866-.4312-1.8091 1.04353c-.0781.0454-.1702.0603-.2586.0419-.0885-.0183-.167-.0686-.2206-.1413-.0537-.0727-.0785-.1626-.07-.2526.0086-.0899.0501-.1734.1165-.23466l2.3093-2.14427-4.7293 2.73093c-.0795.0451-.1731.0589-.2623.0386s-.1676-.0733-.2198-.1484c-.0521-.0751-.0743-.1671-.0622-.2577.0121-.0907.0577-.1736.1278-.23236l1.892-1.56494-3.7495 2.1648c-.0796.0459-.1736.0603-.2633.0402-.0896-.02-.1685-.073-.221-.1484s-.0747-.1678-.0623-.2589c.0124-.091.0585-.1741.1293-.23276l1.8993-1.5708-3.7605 2.17066c-.0781.046-.1705.0615-.2594.0434-.0888-.0181-.1678-.0685-.2217-.1414s-.0788-.1633-.07-.2535.0507-.174.1177-.23516l2.3203-2.16627-4.6464 2.68253c-.0781.0424-.1688.055-.2554.0356-.0866-.0195-.1633-.0697-.2157-.1414-.0524-.0716-.077-.1599-.0693-.2483.0078-.0884.0473-.17108.1114-.23256l2.1765-1.9668-2.9744 1.71746c-.0759.04308-.1647.05766-.2504.04112-.0857-.01653-.1627-.0631-.2172-.13133-.0544-.06823-.0827-.15364-.0798-.24088s.0368-.17058.0957-.23504l1.54-1.6632-1.5019.86827c-.0666.03846-.1437.055-.2202.04727s-.1487-.03934-.2063-.09036c-.0576-.05101-.0977-.11884-.1146-.19389s-.0097-.15352.0204-.22429l.4679-1.0956c-.0777.01998-.1598.01394-.2337-.01719-.0739-.03112-.1355-.08562-.1755-.15514-.0484-.08415-.0614-.18406-.0363-.27781.0252-.09375.0865-.17371.1705-.22233l.8514-.49133c.0666-.03847.1436-.05501.2202-.04728.0765.00774.1487.03935.2063.09036s.0976.11885.1145.1939.0098.15351-.0203.22429l-.4591 1.07433 2.6613-1.53413c.0759-.04308.1647-.05766.2504-.04112.0857.01653.1627.0631.2171.13133.0545.06823.0828.15364.0799.24088s-.0369.17058-.0957.23504l-1.5437 1.66393 3.8625-2.23006c.078-.04239.1687-.05502.2554-.03558.0866.01945.1632.06967.2156.14133s.077.15991.0693.24835-.0473.17107-.1113.23256l-2.178 1.96754 4.4301-2.5542c.0781-.04536.1702-.0603.2586-.04195s.167.0687.2206.14139.0785.16261.0699.25252-.0501.17348-.1165.2347l-2.3195 2.167 4.7667-2.7522c.0796-.04592.1735-.06028.2632-.04024.0896.02004.1685.07302.221.14846.0525.07543.0747.16782.0623.25887s-.0585.17413-.1293.23278l-1.8986 1.57007 3.7598-2.1714c.0796-.04514.1732-.0589.2624-.03858.0892.02031.1675.07323.2197.14837.0522.07515.0744.16708.0623.25775-.0122.09067-.0578.17354-.1278.23232l-1.8957 1.56714 3.7539-2.167c.0781-.04536.1702-.0603.2587-.04195.0884.01835.167.0687.2206.14139s.0785.16261.0699.25252-.0501.17348-.1165.2347l-2.3093 2.14354 4.7286-2.7302c.081-.04543.1763-.05839.2665-.03626.0903.02213.1687.07769.2196.15545.0508.07777.0703.17193.0544.26347-.016.09154-.066.17363-.1401.22967l-.5867.43193 1.8099-1.04426c.0796-.04458.173-.05786.2619-.03725.0889.02062.1669.07365.2188.14873s.0739.16681.0618.25726c-.0122.09045-.0576.17312-.1275.23186l-1.8333 1.49893 3.4885-2.01373c.0811-.04646.1768-.06019.2677-.0384s.17.07746.2212.15564c.0512.07817.0707.17295.0543.26497-.0163.09202-.0671.17433-.1421.23012l-.5617.41507.5375-.3102c.0805-.04532.1752-.05856.265-.03709.0899.02147.1683.07608.2197.1529.0513.07682.0718.17018.0572.26143-.0145.09124-.063.17363-.1356.23069l-.3058.2354c.0738-.01718.1511-.01107.2213.01749.0702.02857.1298.07818.1707.14202.0408.06384.0609.13876.0574.21447-.0035.0757-.0304.14847-.0769.20829l-.9189 1.1836.0924-.0528c.0418-.02653.0884-.04435.1372-.05237.0488-.00803.0987-.0061.1468.00566.048.01177.0932.03313.1327.0628.0396.02967.0727.06703.0975.10984.0247.04282.0406.0902.0465.13929.006.04909.002.09888-.0118.14637-.0138.0475-.037.09171-.0684.12999-.0313.03828-.07.06983-.1138.09275l-1.7123.98783c-.0737.0426-.1599.0583-.2438.0444-.084-.0139-.1605-.0566-.2164-.1208-.056-.0642-.0878-.1458-.0902-.2308-.0023-.0851.025-.1684.0774-.2355l.9196-1.18506-3.0067 1.73436c-.0806.0462-.1757.0602-.2661.039s-.1695-.0759-.2211-.153c-.0517-.0772-.0722-.1711-.0573-.2628s.0641-.1743.1375-.23116l.2083-.15987-1.3259.76633c-.0554.0332-.1187.0509-.1833.0513z" fill="#4295a8"/><path d="m20.6966 38.4777c-.0766-.0008-.1511-.0256-.2129-.0708-.0619-.0453-.108-.1088-.1318-.1817-.0239-.0728-.0244-.1513-.0013-.2244.023-.0731.0684-.1372.1297-.1831l.4649-.3396-.8844.5134c-.0773.0445-.1682.0594-.2556.0418-.0875-.0177-.1656-.0666-.2195-.1377-.054-.0711-.0802-.1594-.0737-.2484.0064-.089.0452-.1726.1088-.2351l1.9214-1.8824-1.54.8873c-.0745.0425-.1615.0576-.246.0427-.0844-.015-.161-.0592-.2163-.1247-.0552-.0656-.0858-.1485-.0863-.2343-.0005-.0857.0291-.169.0836-.2352l.7092-.8528c-.0804-.0005-.1585-.0273-.2221-.0765-.0637-.0491-.1094-.1179-.1302-.1956-.0207-.0777-.0154-.16.0153-.2344.0307-.0743.0849-.1365.1544-.177l1.5033-.8683c.0745-.043.1617-.0584.2464-.0436.0848.0148.1616.0589.2171.1246.0554.0657.0861.1489.0865.2349s-.0295.1694-.0843.2356l-.6182.7429 2.2718-1.3156c.0773-.0446.1683-.0595.2557-.0418.0875.0176.1656.0666.2195.1376.054.0711.0802.1594.0737.2484s-.0452.1726-.1089.2351l-1.922 1.8825 4.2687-2.4618c.0812-.0458.1767-.059.2673-.0369.0905.0221.1692.0779.2201.1559.0509.0781.0701.1726.0538.2644-.0162.0917-.0669.1739-.1415.2296l-.465.3396 1.6515-.9534c.0803-.0453.1747-.0588.2644-.0376.0897.0211.1682.0752.2198.1516s.0726.1694.0587.2605c-.0139.0912-.0617.1737-.1337.2313l-1.4821 1.1616 3.0632-1.7666c.0791-.0443.1718-.0577.2603-.0377.0884.0201.1662.0723.2185.1464.0522.0741.0751.1649.0643.255-.0108.09-.0546.1728-.1229.2325l-2.0358 1.7277 4.026-2.3239c.078-.0414.1683-.0532.2542-.0334.086.0199.1619.0701.2139.1414s.0765.1589.069.2469c-.0074.0879-.0463.1702-.1095.2317l-2.2242 1.9859 4.463-2.5725c.0793-.0452.1725-.0592.2615-.0393s.1674.0722.2199.1468.0753.166.064.2565-.0559.1735-.1252.2329l-2.0174 1.705 3.9894-2.3019c.0805-.0463.1756-.0602.2661-.0391.0904.0212.1694.0759.2211.1531s.0721.1711.0572.2627c-.0149.0917-.064.1743-.1374.2312l-1.232.9445 2.6898-1.5524c.0814-.0467.1776-.0605.2688-.0384s.1704.0783.2215.157c.051.0787.0699.174.0528.2663-.0172.0922-.069.1744-.1449.2296l-.2449.1767 1.3691-.7912c.0801-.0457.1745-.0595.2643-.0388.0899.0208.1686.0747.2205.1509s.0731.1692.0595.2604c-.0135.0912-.061.1739-.1329.2317l-1.5708 1.2438 2.445-1.408c.0781-.0441.1696-.0581.2572-.0393.0877.0188.1654.0691.2186.1414.0531.0722.0778.1614.0696.2507s-.0488.1725-.1142.2338l-1.8092 1.6588 2.1216-1.2239c.0735-.042.1592-.0572.2427-.0431.0834.014.1594.0565.2151.1203.0557.0637.0876.1447.0904.2293.0028.0845-.0238.1675-.0752.2347l-1.1 1.4227.7531-.4349c.071-.0397.1531-.0547.2335-.0426.0804.012.1545.0505.2107.1092.0561.0588.0912.1346.0996.2154.0084.0809-.0103.1623-.0532.2313l-.22.3322c.0794.0297.1458.0863.1877.1599.0484.0841.0615.184.0363.2778-.0251.0938-.0864.1737-.1705.2223l-.8506.4914c-.071.0397-.1531.0547-.2335.0426s-.1545-.0505-.2107-.1093c-.0561-.0587-.0912-.1345-.0996-.2154-.0084-.0808.0103-.1622.0532-.2313l.0535-.0828-1.0399.5998c-.0735.042-.1592.0572-.2426.0431-.0835-.014-.1595-.0565-.2152-.1202s-.0876-.1448-.0904-.2293c-.0027-.0846.0238-.1676.0752-.2348l1.1-1.4219-3.399 1.9587c-.078.0441-.1695.0581-.2572.0393s-.1654-.0691-.2185-.1414c-.0531-.0722-.0779-.1614-.0697-.2507s.0489-.1725.1142-.2338l1.8084-1.6588-3.8866 2.2454c-.0801.0449-.1741.0581-.2634.037s-.1675-.0749-.2191-.1508-.0728-.1684-.0595-.2592.0601-.1733.1313-.2312l1.5708-1.2467-3.2032 1.8509c-.0814.0467-.1775.0605-.2687.0384s-.1705-.0783-.2215-.157-.0699-.174-.0528-.2663c.0171-.0922.0689-.1744.1448-.2296l.2464-.1782-1.3765.7927c-.0805.0463-.1756.0602-.266.039-.0905-.0211-.1695-.0758-.2212-.153s-.0721-.1711-.0572-.2628c.0149-.0916.064-.1742.1374-.2311l1.232-.9445-2.6898 1.5524c-.0792.0445-.1721.0579-.2607.0378s-.1665-.0724-.2187-.1467c-.0523-.0744-.075-.1654-.064-.2556.0111-.0901.0553-.1729.1239-.2324l2.0167-1.7043-3.9879 2.3012c-.0779.0414-.1682.0532-.2542.0334-.086-.0199-.1619-.0701-.2139-.1414-.0519-.0713-.0764-.1589-.069-.2469.0075-.0879.0464-.1702.1096-.2317l2.2234-1.9859-4.463 2.5725c-.0792.045-.1722.0589-.2611.0391-.0888-.0198-.1671-.072-.2196-.1464-.0526-.0743-.0755-.1656-.0645-.256.0111-.0903.0554-.1733.1242-.2329l2.0365-1.7277-4.0275 2.3239c-.0802.0454-.1746.0588-.2643.0377-.0898-.0211-.1683-.0753-.2199-.1517-.0516-.0763-.0725-.1694-.0586-.2605s.0616-.1737.1336-.2312l1.4821-1.1623-3.0631 1.768c-.0554.0332-.1188.0509-.1834.0514z" fill="#4295a8"/><g fill="#262626"><path d="m2.27349 31.9129c-1.559065.1137-2.730198 2.0108-1.361798 3.2069.829398.7252 2.405338.4334 3.413668.4334 1.53487-.1372 2.75807-2.0042 1.3618-3.2069-.79273-.6835-2.44273-.5045-3.41367-.4334zm2.2 2.9333c-.95333-.107-2.0196.2662-2.87686-.2566-.17492-.1321-.30638-.3135-.37752-.5208-.07113-.2074-.0787-.4312-.02172-.6429s.17589-.4015.3415-.5451c.1656-.1436.37033-.2345.58794-.261.87452-.0971 1.75902-.051 2.61873.1364.91667.4327 1.0142 1.9749-.27207 2.09z"/><path d="m2.22411 8.35978c-.36147.0249-.70882.15022-1.00293.36183-.294105.21162-.523304.50113-.661789.83595s-.180758.70164-.122059 1.05914c.0587.3576.21604.6916.454307.9646.806671.9027 2.404601.5867 3.484071.5867.3612-.0255.70817-.1511 1.00193-.3628s.5227-.5011.66109-.8357c.1384-.3346.18079-.7012.12239-1.05854-.05839-.35736-.21524-.69136-.45295-.96452-.76413-.84993-2.44713-.66-3.48406-.58666zm2.36426.91446c.26045.03095.49875.16167.66483.36468.16607.203.24697.46248.2257.72388s-.14306.5044-.33976.6779c-.19671.1735-.45301.264-.71503.2524-.87574.0385-1.75311.014-2.62534-.0733-1.163797-.4217-.72746-1.87662.37694-1.98002.80415-.03963 1.61001-.02861 2.41266.03446z"/><path d="m41.4442 33.4675c.2141-3.4152.3791-7.4243-2.8439-9.5158-.6409-.5287-2.7207-2.5256-2.9553-1.7548.2383-.7825 2.4068-1.8106 3.0257-2.3313 3.08-2.101 2.9898-5.9576 2.7764-9.3133 1.6053-.56324 2.9788-2.36724 2.1597-4.19104-.6285-1.3992-2.4758-.90713-3.7943-.90713h-10.7727c-2.86.30433-10.4998-2.2-9.5714 2.9084h-9.2569c-2.29314.13053-2.2418 3.67837.0213 3.80157 1.4666.0125 2.959 0 4.4352.0044.144-.0098.2884.0105.4241.0598.1356.0492.2595.1263.3636.2262.1042.1.1863.2206.241.3541.0548.1336.0811.2771.0771.4213-.004.1443-.038.2862-.1.4165s-.1506.2463-.26.3404c-.1095.0941-.2374.1642-.3755.206-.1382.0417-.2836.0541-.4268.0364h-9.53334c-2.46253.3285-2.12007 3.6997.27427 3.806 1.5356.4561 6.91977-1.0619 6.75177 1.21-.5045 1.76-7.98377.4833-9.95937.8507-2.293136.1305-2.2418025 3.6784.02126 3.8016 1.70794.3952 10.31291-1.0311 9.96161 1.1176-.5779 1.8817-5.32841.5866-7.04954.9474-2.29313.1306-2.2418 3.6784.02127 3.8016 3.17973.0125 6.37997 0 9.56857.0044.144-.0098.2884.0105.4241.0598.1356.0492.2595.1263.3636.2262.1042.1.1863.2206.241.3541.0548.1336.0811.2771.0771.4213-.004.1443-.038.2862-.1.4165s-.1506.2463-.26.3404c-.1095.0941-.2374.1642-.3755.206-.1382.0417-.2836.0541-.4268.0364h-4.4c-2.29314.1305-2.2418 3.6784.0213 3.8016 3.0308.0125 6.0866 0 9.1226.0044-.9533 4.8063 6.204 2.6195 8.8873 2.8343h10.9553c.9636 0 3.4063.4796 4.213-.4033 1.5055-1.6471-.3102-4.0817-1.9668-4.5987zm-.7524-18.6663c-.6747 3.5002-3.025 4.9867-5.5264 6.9124-.1702.1313-.2934.4774-.0866.6358 4.4088 2.6275 6.1644 5.9261 5.6159 11.0469h-2.1215c.0271-2.2286.3388-4.3501-1.54-5.9202-1.3384-1.1205-3.8992-3.9064-5.8755-3.5632-1.7747.3087-3.9981 2.5556-5.28 3.7187-1.7057 1.5503-1.4263 3.6454-1.3875 5.7647-.7179.0059-1.4454-.0168-2.1618.0184-.9101-4.9698 1.5781-8.591 5.5381-11.0536.0556-.0438.1013-.0988.1343-.1615.0329-.0626.0522-.1315.0567-.2022.0045-.0706-.006-.1414-.0306-.2078-.0247-.0663-.0631-.1267-.1127-.1772-4.6596-2.9333-6.3067-5.3218-5.5836-10.9721.7186.0557 1.5084.033 2.2462.0381-.0352 2.1267-.3462 4.2783 1.3698 5.8366 1.2408 1.1271 4.0334 3.9937 5.9136 3.6608 1.7212-.3051 3.9938-2.6004 5.2258-3.7341 1.6954-1.5591 1.4505-3.6462 1.4072-5.7633h2.2066c.1357 1.3711.133 2.7523-.008 4.1228zm-15.326 18.5951c-.0271-2.0856-.3153-3.9548 1.386-5.5337 1.2027-1.1161 3.8867-3.7327 5.6467-2.9773 3.4679 1.9704 6.0236 4.1624 5.3013 8.511zm12.4176-22.7179c.0337 1.8942.2933 3.6909-1.155 5.2221-1.1228 1.185-3.4372 3.1672-5.0432 3.1533-1.7028-.0161-3.6769-1.9565-4.936-3.0903-1.6134-1.4483-1.4088-3.3146-1.3684-5.2844zm-17.0258-4.4c.9738-.5214 3.6842 0 4.7828 0 5.5396.04693 11.1466-.07334 16.6569 0 1.3933.72086.7106 3.21786-1.0751 3.57793-5.3328.03447-16.2389-.01686-16.4112.17087-1.7879.3865-6.3698-2.079-3.9534-3.7488zm-11.6219 27.5733c.25813-2.098 4.0641-.8118 5.5858-1.1447 2.2917-.1239 2.244-3.6725-.0213-3.8016-3.1812-.0132-6.38437 0-9.57291-.0044-.26543.0068-.52459-.0813-.73082-.2485-.20623-.1673-.34598-.4026-.39411-.6638.05647-2.1398 5.45674-.7927 7.05244-1.1484 2.2917-.1239 2.244-3.6725-.0212-3.8016-2.93337-.0124-5.89531 0-8.83964-.0044-.14396.0095-.28832-.0112-.4238-.0608-.13549-.0496-.25911-.127-.36295-.2271-.10385-.1002-.18561-.2209-.24006-.3545-.05444-.1337-.08037-.2772-.07611-.4214s.03861-.2859.10085-.4161c.06224-.1301.15099-.2459.26056-.3397.10957-.0939.23755-.1638.37572-.2053.13818-.0415.2835-.0537.42666-.0357h8.79997c2.3614-.0059 2.1927-3.7892-.11-3.806-1.9301-.0037-3.86464.0051-5.79331 0-.2671-.0136-.51849-.1304-.70109-.3258s-.28213-.4542-.27756-.7216.11287-.5226.30204-.7116c.18917-.1891.4444-.2973.71181-.3017h9.53331c2.2917-.1239 2.244-3.6725-.0212-3.8016-1.5004-.3344-4.99257.8499-5.56457-.9167-.0005-.1542.03016-.307.09015-.4491.05998-.14212.14806-.27065.25893-.3779.11087-.10724.24227-.19099.3863-.24621.14399-.05523.29769-.08079.45189-.07516h9.4373c.1836.35908.4529.66736.7841.89757.3311.2303.7139.3753 1.1145.4224-.5764 5.5272.4348 8.5177 5.4266 11.385-4.8011 3.3213-6.05 5.6606-5.4266 11.5493-.4039.0422-.7919.18-1.1319.402-.34.2221-.6222.5219-.8232.8747-1.8883-.3776-10.42434.9328-10.5666-.9196zm33.1511 3.9446c-5.5081.0572-11.1152-.0396-16.6562 0-1.0758 0-3.8361.5295-4.7828 0-1.9522-1.0919.3762-3.4987 1.98-3.7253.5617-.0799 12.7482-.0323 17.96 0 .0374.0265.0807.0433.1262.0488s.0916-.0004.1342-.0173c1.3647.4085 2.5754 2.918 1.2386 3.6938z"/></g></svg>