<svg fill="none" height="60" viewBox="0 0 60 60" width="60" xmlns="http://www.w3.org/2000/svg"><path d="m14.7355 55.4978c-.168 0-.332-.085-.426-.238-.142-.23-.074-.532.152-.681l13.33-8.712-16.512 9.533c-.238.138-.54.059-.68-.176s-.065-.539.167-.683l2.619-1.617-2.106 1.216c-.235.136-.534.06-.676-.171s-.074-.532.152-.681l14.375-9.384-13.852 7.997c-.235.138-.536.06-.677-.172-.142-.231-.072-.533.155-.681l11.217-7.244-10.684 6.167c-.235.139-.537.06-.678-.174s-.069-.536.161-.682l5.043-3.181-4.438 2.562c-.235.138-.536.06-.678-.174-.141-.232-.07-.535.159-.681l5.32-3.381-4.566 2.636c-.236.139-.536.06-.678-.174-.141-.233-.069-.536.161-.682l2.648-1.673-1.791 1.034c-.235.137-.535.061-.677-.172-.142-.231-.072-.534.155-.681l6.308-4.071-5.132 2.963c-.235.138-.536.06-.678-.174-.141-.233-.069-.536.16-.682l10.43-6.602-8.745 5.049c-.237.138-.539.059-.68-.177-.14-.234-.065-.538.168-.682l1.66-1.021c-.211.06-.442-.026-.561-.222-.142-.231-.071-.534.157-.681l14.28-9.151-3.666 2.116c-.236.138-.536.061-.677-.172-.142-.232-.072-.534.156-.681l5.817-3.746-5.287 3.052c-.235.136-.532.061-.675-.169s-.077-.53.147-.68l10.731-7.146-11.486 6.632c-.235.138-.535.06-.677-.173-.142-.231-.072-.534.156-.681l7.53-4.837-8.652 4.995c-.235.138-.535.06-.677-.173-.142-.231-.072-.534.157-.681l9.028-5.793-10.088 5.824c-.235.139-.535.06-.677-.173s-.071-.534.157-.681l10.16-6.503-11.09 6.402c-.238.138-.538.059-.679-.176s-.067-.537.165-.682l3.601-2.236-4.062 2.345c-.235.137-.533.061-.677-.172-.142-.231-.072-.533.155-.681l14.479-9.371-15.413 8.898c-.236.138-.537.06-.678-.174s-.069-.536.16-.682l9.594-6.066-10.082 5.82c-.236.136-.534.061-.677-.172-.142-.23-.073-.532.154-.681l11.944-7.749-12.494 7.213c-.235.137-.532.06-.676-.17-.142-.23-.075-.531.15-.681l11.312-7.445-11.739 6.777c-.235.135-.532.061-.675-.168s-.077-.53.146-.68l10.427-6.989-10.726 6.192c-.233.137-.529.062-.673-.166-.144-.227-.082-.526.14-.679l9.489-6.536-9.655 5.574c-.235.137-.533.06-.676-.17-.142-.23-.074-.532.151-.681l3.362-2.205-3.184 1.838c-.23.134-.525.062-.67-.161s-.089-.521.127-.677l6.758-4.87704-6.593 3.80604c-.229.134-.525.062-.669-.16-.146-.224-.09-.521.125-.677l4.291-3.11804-3.92 2.26304c-.228.134-.521.063-.667-.156-.146-.22-.096-.516.115-.675l2.882-2.18304-2.359 1.362c-.218.129-.502.069-.653-.138-.151-.206-.122-.492.066-.664l2.478-2.257-1.891 1.091c-.22.131-.506.069-.656-.142-.15-.209-.116-.498.077-.667l.322-.282c-.103-.002-.203-.034-.289-.097-.16-.118-.235-.318-.192-.512l.308-1.38c-.103-.039-.192-.113-.252-.216-.139-.239-.057-.545.183-.683l.5-.289c.172-.099.386-.087.546.029.16.117.235.318.192.512l-.253 1.133 2.904-1.676c.222-.13.507-.068.656.142.15.209.116.498-.077.667l-.047.042 1.477-.853c.22-.128.503-.068.653.138.151.206.122.492-.066.665l-2.477 2.255 5.302-3.061c.227-.135.52-.064.667.156.146.22.096.516-.115.675l-2.886 2.185 5.229-3.018c.229-.135.525-.062.669.16.146.224.09.521-.125.677l-4.289 3.116 6.854-3.956c.228-.135.524-.062.67.161.145.224.089.521-.127.677l-6.755 4.875 9.9-5.716c.235-.137.533-.06.676.17.142.23.075.532-.151.681l-3.366 2.208 5.301-3.061c.235-.135.53-.062.673.166.144.227.082.526-.14.679l-9.491 6.53704 12.792-7.38504c.234-.137.531-.062.675.168.143.229.077.53-.146.68l-10.427 6.98904 13.579-7.84004c.234-.138.532-.06.676.17.142.23.075.531-.15.681l-11.313 7.44604 14.377-8.30004c.235-.138.534-.061.677.172.142.23.073.532-.154.681l-11.947 7.75104 14.906-8.60504c.237-.136.537-.059.678.174s.069.536-.16.682l-9.592 6.06504 10.968-6.33204c.235-.137.534-.061.677.172.142.231.072.533-.155.681l-14.478 9.36904 13.956-8.05704c.237-.139.537-.06.679.176.141.234.067.537-.165.682l-3.597 2.234 3.083-1.78c.237-.136.536-.059.677.173.142.232.071.534-.157.681l-10.163 6.50504 9.644-5.56704c.237-.137.536-.059.677.173.142.231.072.53404-.157.68104l-9.028 5.793 8.434-4.869c.235-.136.535-.059.677.173s.072.534-.156.681l-7.526 4.834 6.769-3.907c.233-.137.531-.062.675.169.143.229.077.53-.147.68l-10.732 7.146 9.59-5.536c.235-.137.536-.061.677.172.142.232.072.534-.156.681l-5.811 3.742 4.51-2.604c.237-.136.536-.059.677.173.142.231.071.534-.157.681l-14.286 9.155 11.996-6.926c.236-.139.538-.06.68.177.14.234.065.538-.168.682l-2.283 1.404c.187-.024.391.06.497.236.141.232.069.536-.16.682l-10.442 6.609 1.359-.784c.236-.137.536-.061.677.172.142.231.072.534-.155.681l-6.307 4.07 6.189-3.573c.236-.137.537-.059.678.174s.069.536-.161.682l-2.653 1.675 3.043-1.756c.236-.136.537-.06.678.174.141.232.07.535-.159.681l-5.317 3.379 6.271-3.62c.236-.137.537-.06.678.174s.069.536-.161.682l-5.054 3.187 5.859-3.382c.235-.138.536-.061.677.172.142.231.072.533-.155.681l-11.206 7.237 12.305-7.104c.235-.137.535-.061.676.171.142.23.074.532-.152.681l-14.377 9.386 15.519-8.96c.236-.139.538-.06.68.176.14.235.065.539-.167.683l-2.619 1.617 2.952-1.704c.236-.138.534-.06.676.171s.074.532-.152.681l-13.327 8.71 14.111-8.147c.236-.139.538-.06.679.176.141.234.067.537-.165.682l-1.527.949 1.679-.969c.236-.136.537-.059.678.174s.07.535-.159.681l-5.876 3.733 6.103-3.522c.235-.136.535-.06.676.171.142.231.074.533-.153.681l-7.844 5.108 8.092-4.672c.233-.137.53-.061.674.168.143.228.079.528-.145.679l-8.915 6.019 9.142-5.278c.237-.137.537-.059.678.173s.07.535-.159.682l-.226.144.082-.047c.229-.135.527-.062.672.164.144.226.084.524-.135.678l-7.08 4.973 7.082-4.089c.229-.135.526-.063.67.161.145.225.088.522-.129.678l-5.318 3.814 5.134-2.964c.229-.133.522-.063.668.159s.093.519-.121.676l-3.713 2.739 3.354-1.936c.229-.134.523-.063.669.159.145.222.091.519-.122.676l-1.444 1.063.953-.55c.215-.126.492-.07.646.127.153.198.136.479-.04.657l-2.371 2.399 1.78-1.027c.204-.122.467-.078.625.103.158.179.167.443.022.633l-.686.9.048-.027c.238-.139.545-.058.683.183.139.239.057.545-.183.683l-2.205 1.273c-.206.12-.468.076-.625-.103s-.167-.443-.022-.633l.686-.9-2.838 1.638c-.214.127-.492.071-.646-.127s-.136-.479.04-.657l2.371-2.399-5.521 3.187c-.228.135-.522.064-.669-.159-.145-.222-.091-.519.122-.676l1.442-1.062-3.29 1.899c-.228.135-.521.063-.668-.159-.146-.222-.093-.519.121-.676l3.714-2.74-6.198 3.578c-.229.134-.527.062-.67-.161-.145-.225-.088-.522.129-.678l5.316-3.812-8.061 4.653c-.229.136-.527.062-.672-.164-.144-.226-.084-.524.135-.678l7.081-4.973-10.077 5.817c-.235.139-.536.06-.678-.173-.141-.232-.07-.535.159-.682l.213-.136-1.719.992c-.236.136-.531.061-.674-.168-.143-.228-.079-.528.145-.679l8.917-6.02-11.897 6.869c-.235.137-.534.061-.676-.171s-.074-.533.153-.681l7.854-5.114-10.338 5.968c-.235.138-.537.06-.678-.174-.141-.232-.07-.535.159-.681l5.867-3.729-7.941 4.585c-.238.137-.538.058-.679-.176s-.067-.537.165-.682l1.521-.945-3.126 1.805c-.079.046-.165.067-.25.067z" fill="#dce5ea"/><path d="m30.185 7.47082c-.164 0-.325-.081-.42-.229-.145-.225-.088-.522.128-.678l.084-.06-1.558.898c-.218.128-.5.069-.651-.135s-.126-.489.06-.663l3.169-2.966-6.521 3.764c-.229.134-.526.062-.67-.161-.145-.225-.088-.522.129-.678l.062-.046-1.532.885c-.226.133-.519.064-.666-.154-.146-.219-.098-.514.111-.675l1.736-1.336-3.751 2.165c-.218.13-.503.069-.655-.14-.15-.208-.119-.495.072-.666l3.031-2.706-6.084 3.512c-.227.132-.517.064-.663-.151-.147-.217-.103-.51.103-.673l2.185-1.735-4.435 2.56c-.227.133-.52.063-.666-.155s-.098-.514.112-.674l1.673-1.283-3.659 2.112c-.228.133-.521.064-.667-.157s-.095-.517.117-.676l1.267-.95-2.48696 1.436c-.226.133-.518.063-.664-.152-.147-.218-.101-.512.105-.674l1.56296-1.226-1.77096 1.022c-.218.129-.502.069-.654-.138-.15-.206-.121-.493.068-.665l1.572-1.429-1.079.623c-.199.118-.454.081-.613-.09-.159-.168-.182-.424-.055-.617l.812-1.233c-.208.044-.431-.045-.541-.238-.139-.239-.057-.545.183-.683l1.656-.956003c.201-.117.45496-.079.61296.09.159.168.182.424003.055.617003l-.78196 1.189 3.28896-1.898003c.22-.127.503-.068.654.138.15.206.121.493003-.068.665003l-1.573 1.429 3.866-2.231003c.227-.133.518-.064.664.152.147.218.101.512003-.105.674003l-1.566 1.228 3.558-2.054003c.226-.134.521-.064.667.157s.095.517003-.117.676003l-1.266.949 3.088-1.782003c.227-.133.52-.064.666.155s.098.514003-.112.674003l-1.673 1.283 3.659-2.112003c.225-.134.516-.065.663.151s.103.510003-.103.673003l-2.185 1.735 4.435-2.560003c.221-.128.504-.069.655.14.15.208.119.495003-.072.666003l-3.031 2.706 6.084-3.512003c.227-.133.519-.065.666.154.146.219.098.514003-.111.675003l-1.738 1.337 3.754-2.166003c.231-.136.525-.063.67.161s.088.522003-.129.678003l-.06.043 1.528-.882003c.218-.127.5-.069.651.135s.126.489003-.06.663003l-3.169 2.967 6.521-3.765003c.231-.136.525-.063.67.161s.088.522003-.128.678003l-.084.06 1.558-.898003c.22-.128.503-.069.654.139.15.206.121.493003-.069.665003l-3.073 2.776 6.202-3.580003c.219-.127.502-.07.653.137.15.206.123.492003-.065.664003l-3.119 2.862 6.346-3.663003c.22-.127.501-.07.653.137.15.206.123.492003-.065.664003l-3.119 2.862 5.69-3.285003c.217-.128.498-.071.65.133003.151.203.128.487-.056.662l-2.802 2.664 3.016-1.74c.211-.124.482-.074.639.117.154.191.147.466-.017.649l-1.353 1.508.73-.421c.238-.139.545-.058.683.183.139.239.057.545-.183.683l-3.446 1.989c-.212.124-.482.073-.639-.117-.154-.191-.147-.466.017-.649l1.352-1.508-3.939 2.274c-.217.126-.498.069-.65-.133-.151-.203-.128-.487.056-.662l2.802-2.664-5.993 3.459c-.218.129-.501.071-.653-.137-.15-.206-.123-.492.065-.664l3.119-2.861-6.345 3.662c-.217.129-.501.071-.653-.137-.15-.206-.123-.492.065-.664l3.119-2.862-6.346 3.663c-.219.13-.502.069-.654-.139-.15-.206-.121-.493.069-.665l3.073-2.776-6.203 3.58c-.079.046-.164.067-.249.067z" fill="#825043"/><path d="m41.381 59.4701c-.164 0-.324-.081-.42-.229-.145-.224-.089-.521.128-.678l.174-.125-1.67.964c-.226.132-.513.065-.661-.148s-.107-.506.095-.671l2.507-2.054-4.978 2.873c-.228.135-.522.063-.669-.16-.146-.223-.091-.52.124-.677l.557-.405-2.152 1.242c-.225.131-.512.066-.66-.146s-.109-.504.09-.67l2.664-2.225-5.268 3.041c-.228.133-.521.063-.666-.155-.146-.22-.097-.516.113-.675l1.568-1.195-3.51 2.025c-.222.13-.507.068-.656-.142-.15-.209-.117-.497.076-.667l2.956-2.592-5.891 3.4c-.225.132-.514.066-.662-.149-.147-.214-.105-.507.097-.671l2.442-1.987-4.863 2.808c-.227.135-.522.064-.669-.16-.146-.223-.091-.52.124-.676l.606-.443-2.217 1.279c-.226.132-.519.065-.664-.152-.147-.217-.102-.511.104-.673l2.063-1.623-4.242 2.448c-.226.132-.517.065-.664-.152s-.102-.511.104-.673l2.077-1.636-4.264 2.461c-.228.135-.523.064-.669-.16-.145-.223-.091-.52.124-.676l.613-.448-2.226 1.284c-.217.128-.5.069-.652-.135-.15-.205-.125-.49.062-.663l3.16-2.947-5.883 3.396c-.227.133-.518.064-.664-.153-.147-.218-.101-.512.106-.673l1.527-1.194-1.731.999c-.223.131-.509.068-.658-.144-.149-.211-.113-.501.083-.669l1.216-1.039-.734.424c-.198.115-.449.08-.608-.084-.16-.165-.188-.417-.066-.611l.901-1.458c-.229.093-.498.008-.624-.212-.139-.239-.057-.545.183-.683l1.656-.956c.197-.116.447-.081.609.085.159.164.187.416.065.61l-.896 1.45 3.72-2.147c.224-.131.51-.066.658.144.149.211.113.501-.083.669l-1.217 1.04 3.209-1.853c.226-.134.518-.063.664.153.147.218.101.512-.106.673l-1.528 1.195 3.502-2.021c.217-.128.5-.069.652.135.15.205.125.49-.062.663l-3.16 2.948 6.489-3.746c.229-.134.523-.063.669.16s.091.52-.124.676l-.613.448 2.226-1.284c.224-.134.516-.066.664.152.147.217.102.511-.104.673l-2.077 1.636 4.264-2.461c.225-.134.517-.066.664.152.147.217.102.511-.104.673l-2.063 1.623 4.242-2.448c.229-.134.523-.063.669.16s.091.52-.124.676l-.604.441 2.213-1.277c.224-.131.514-.066.662.149.147.214.105.507-.097.671l-2.443 1.988 4.865-2.809c.222-.13.508-.068.656.142.15.209.117.497-.076.667l-2.956 2.592 5.891-3.4c.227-.135.521-.064.666.155.146.22.097.516-.113.675l-1.566 1.194 3.507-2.024c.223-.132.512-.066.66.146s.109.504-.09.67l-2.664 2.225 5.268-3.041c.229-.134.523-.062.669.16s.091.52-.124.677l-.557.405 2.152-1.242c.225-.131.513-.066.661.148s.107.506-.095.671l-2.507 2.054 4.978-2.873c.229-.136.524-.063.67.161.145.224.089.521-.128.678l-.172.123 1.089-.628c.229-.133.524-.063.668.159.146.222.092.519-.121.676l-.394.29.542-.312c.221-.128.506-.067.655.14.15.208.119.496-.073.666l-1.731 1.542 1.334-.77c.214-.126.49-.072.645.125.153.197.138.477-.035.655l-.623.642c.238-.137.545-.056.683.184.139.239.057.545-.183.683l-3.104 1.792c-.214.125-.49.072-.645-.125-.153-.197-.138-.477.035-.655l.622-.642-2.463 1.422c-.219.13-.504.068-.655-.14-.15-.208-.119-.496.073-.666l1.732-1.543-4.069 2.349c-.227.135-.523.063-.668-.159-.146-.222-.092-.519.121-.676l.391-.288-1.945 1.123c-.078.046-.165.067-.25.067z" fill="#825043"/><path d="m15.1158 49.5096c-.166 0-.328-.083-.423-.233-.144-.227-.082-.526.14-.679l.986-.68c-.206.073-.447-.002-.577-.191-.146-.217-.102-.511.104-.673l2.17-1.718c-.104-.039-.194-.113-.254-.217-.139-.239-.057-.545.183-.683l4.494-2.595c.225-.134.516-.066.664.151.146.217.102.511-.104.673l-1.171.928 4.763-2.75c.235-.135.53-.062.673.166.144.227.082.526-.14.679l-.897.618 2.924-1.688c.234-.136.531-.061.674.167s.08.528-.143.679l-.444.302 1.994-1.15c.225-.134.516-.066.664.151.146.217.102.511-.104.674l-4.676 3.696 7.313-4.222c.227-.134.521-.065.667.157.146.221.095.517-.116.675l-3.572 2.685 5.251-3.031c.228-.136.525-.063.67.161s.088.522-.128.678l-1.769 1.269 2.792-1.611c.229-.135.527-.062.671.163.145.225.086.523-.132.678l-.625.442 1.315-.759c.226-.135.519-.064.667.156.146.22.096.516-.115.675l-1.728 1.311 2.496-1.441c.222-.128.509-.067.657.143.149.21.115.499-.08.668l-2.303 1.994 3.136-1.811c.223-.131.511-.066.659.146s.111.502-.087.669l-.959.811 1.321-.763c.219-.128.502-.069.653.137.15.206.122.493-.066.665l-.514.47.676-.39c.181-.105.405-.087.567.047.161.132.224.351.155.548l-.485 1.42.708-.409c.239-.137.545-.056.684.184.138.239.056.545-.184.684l-1.862 1.074c-.182.102-.408.086-.567-.048-.161-.132-.224-.351-.155-.548l.485-1.419-3.497 2.019c-.217.129-.501.07-.653-.137-.15-.206-.122-.493.066-.665l.514-.47-2.208 1.274c-.223.132-.511.066-.659-.146s-.111-.502.087-.669l.96-.812-2.821 1.629c-.219.13-.507.068-.657-.143-.149-.21-.115-.499.08-.668l2.302-1.993-4.864 2.809c-.228.133-.521.063-.667-.156-.146-.22-.096-.516.115-.675l1.729-1.312-3.717 2.146c-.229.135-.527.062-.671-.163-.145-.225-.086-.523.132-.678l.62-.439-2.223 1.283c-.23.135-.526.062-.67-.161-.145-.225-.088-.522.128-.678l1.774-1.273-3.664 2.115c-.228.133-.521.064-.667-.157s-.095-.517.116-.675l3.571-2.684-6.097 3.52c-.227.131-.516.065-.664-.151-.146-.217-.102-.511.104-.674l4.675-3.696-7.84 4.526c-.232.136-.53.062-.674-.167-.143-.228-.08-.528.143-.679l.448-.306-1.999 1.154c-.079.046-.165.067-.25.067z" fill="#edaa5a"/><path d="m29.9705 25.4687c-.167 0-.33-.084-.425-.236-.143-.229-.077-.53.147-.68l1.03-.688-2.437 1.406c-.235.137-.534.061-.676-.171s-.074-.532.152-.681l.822-.536-1.893 1.093c-.229.136-.527.062-.673-.165-.143-.227-.082-.526.139-.679l8.41-5.824-10.192 5.884c-.235.138-.535.059-.678-.173-.141-.232-.07-.535.159-.682l1.034-.66-1.668.963c-.236.138-.535.059-.678-.173-.141-.232-.07-.535.158-.681l.423-.271-.914.527c-.235.136-.534.06-.676-.171s-.074-.532.152-.681l2.539-1.657-3.068 1.771c-.23.134-.526.062-.67-.161-.145-.225-.088-.522.128-.678l6.939-4.981-7.86 4.538c-.236.136-.533.06-.676-.17-.142-.23-.075-.532.151-.681l.219-.144-.407.234c-.227.134-.519.064-.664-.153-.147-.217-.101-.512.106-.673l5.663-4.43-6.329 3.653c-.233.135-.527.062-.671-.163-.145-.226-.086-.524.133-.678l1.228-.866-1.276.736c-.228.134-.521.063-.667-.156s-.096-.516.115-.675l1.826-1.382-1.848 1.066c-.218.126-.498.07-.65-.133-.151-.203-.128-.487.056-.662l2.309-2.2-2.342 1.352c-.203.12-.462.077-.621-.097-.157-.175-.173-.437-.035-.628l1.117-1.556-.901.521c-.166.097-.375.087-.535-.021-.159-.11-.24-.303-.208-.494l.143-.849c-.111-.037-.21-.113-.273-.224-.139-.239-.057-.545.183-.683l.474-.273c.167-.097.375-.087.535.021.159.11.24.303.208.494l-.106.632 1.992-1.15c.203-.12.463-.077.62.097.158.175.174.437.036.628l-1.117 1.557 3.957-2.285c.216-.128.497-.07.65.133.151.203.128.487-.056.662l-2.309 2.201 5.195-3c.228-.135.521-.063.667.156.146.22.096.516-.115.675l-1.827 1.383 3.84-2.217c.23-.135.527-.062.671.163.145.226.086.524-.133.678l-1.234.871 2.97-1.714c.227-.132.519-.064.664.153.147.217.101.512-.106.673l-5.661 4.428 9.109-5.259c.235-.137.533-.06.676.17.142.23.075.532-.151.681l-.226.148 1.734-1.001c.229-.136.525-.062.67.161.145.225.088.522-.128.678l-6.938 4.979 10.085-5.822c.236-.137.535-.06.676.171.142.23.074.532-.152.681l-2.535 1.655 4.348-2.51c.238-.137.535-.059.678.173.141.232.07.535-.158.681l-.426.272 1.954-1.128c.237-.137.535-.059.678.173.141.232.07.535-.159.682l-1.045.667 1.266-.73c.234-.136.528-.061.673.165.143.227.082.526-.139.679l-8.409 5.823 7.373-4.256c.236-.137.534-.061.676.171s.074.532-.152.681l-.971.633c.215-.074.462.007.587.209.143.229.077.53-.147.68l-1.269.847c.202-.052.424.028.544.213.145.223.089.521-.127.677l-2.241 1.622c.207-.046.438.039.551.236.139.239.057.545-.183.683l-8.103 4.678c-.229.134-.525.062-.67-.161s-.089-.521.127-.677l2.083-1.508-4.594 2.651c-.079.046-.165.067-.25.067z" fill="#edaa5a"/><g fill="#262626"><path d="m19.7777 33.6432c-6.689 3.753-9.96897 11.387-9.498 18.839-2.03197.017-3.02797 1.443-3.01197 3.329-.246 1.873.548 3.787 2.706 3.702 6.26897.157 12.56197 0 18.83297 0 6.903 0 13.831.173 20.732 0 1.314.053 2.691-.609 3.092-1.942.513-2.341.104-5.25-2.907-5.087.667-8.146-3.325-16.547-11-19.958-1.535-.515-3.664-1.517-2.832-3.502.891-1.518 3.011-1.565 4.343-2.622 6.771-3.825 9.996-11.577 9.487-19.11801 1.06-.092 2.246-.486 2.769-1.494.664-2.028.469-5.201004-2.336-5.085004-11.05-.022-22.101.014-33.151 0-2.971.424004-9.28497-1.593-9.72897 2.718004-.158 2.165.365 4.156 2.99997 3.886-.71297 8.29601 3.335 16.87701 11.223 20.24801 1.042.471 2.268.699 2.667 1.939.794 2.468-2.792 3.2-4.389 4.147zm31.489 21.831c.015 1.04.276 2.892-1.199 3.011-12.48 0-24.961 0-37.441 0-2.93797.165-4.17597.086-3.89497-3.315.107-2.571 3.16197-1.401 4.81397-1.656h22.782 10.135c1.777.153 4.787-.769 4.802 1.961zm-42.54297-52.35701c-.076-2.766004 2.86597-1.584 4.57397-1.824h23.105 10.024c1.927 0 4.798-.566004 4.849 2.213.057 1.193.252 3.637-1.667 3.199-12.263-.003-24.562.002-36.835 0-3.08297.238-4.32797-.232-4.04997-3.588zm13.51197 23.66201c-7.365-3.462-11.048-11.572-10.508-19.43701 12.185.067 24.364-.104 36.548-.049.578 7.62201-2.614 15.61301-9.635 19.27401-1.496.816-3.987 1.183-4.33 3.192-.383 2.244 1.932 2.72 3.458 3.476 7.294 3.419 11.017 11.448 10.503 19.243-12.183-.007-24.363.042-36.546-.031-.547-7.488 2.648-15.281 9.453-18.977 1.496-.849 4.157-1.227 4.507-3.252.384-2.22-1.937-2.689-3.449-3.441z"/><path d="m14.3105 49.1094c9.683.686 20.205.002 30.162.237.429.084 1.306-.214 1.221-.542-3.394-11.269-28.042-10.884-31.383.305zm16.194-7.751c5.007.148 11.772 1.966 13.561 7.293h-28.238c1.737-5.954 9.335-7.451 14.677-7.293z"/><path d="m41.6941 20.1963c2.308-2.604 3.895-5.972 3.958-9.463-9.959-.481-20.285-.004-30.346-.168-.349 0-1.037.162-1 .629 1.032 13.703 18.357 19.056 27.388 9.002zm-25.86-8.763h28.365c-2.214 17.487-25.934 17.205-28.365 0z"/></g></svg>