<svg fill="none" height="32" viewBox="0 0 32 32" width="32" xmlns="http://www.w3.org/2000/svg"><path d="m15.3141 1.27999c-.0923 0-.1819-.04746-.2315-.13333-.0736-.12747-.0299-.290666.0976-.364266l.7851-.453333c.1269-.074133.2906-.0304.3642.0976.0736.127467.0299.290667-.0976.364267l-.785.453332c-.0422.024-.0875.03573-.1328.03573z" fill="#e6e7ec"/><path d="m15.6472 31.6291c-.0886 0-.175-.0438-.2251-.1238-.0768-.1205-.0443-.2794.0725-.3616l3.9232-2.7312-4.7328 2.7323c-.1248.0736-.2858.032-.361-.0917-.0758-.1238-.0384-.2848.0832-.3638l1.7104-1.0997-2.1195 1.2235c-.1248.0725-.2848.0325-.36-.0907-.0757-.1221-.0405-.2832.08-.3627l5.2384-3.4581-5.8885 3.4c-.1248.0736-.2859.032-.3611-.0923-.0752-.1242-.0379-.2853.0843-.3632l4.2042-2.6864-4.6608 2.6907c-.1248.0736-.2853.032-.361-.0923-.0758-.1232-.0384-.2842.0832-.3632l6.0693-3.9008-6.5925 3.8064c-.1259.0731-.2886.0315-.3622-.0944-.0746-.1248-.0352-.2869.0891-.3637l.48-.2955-.6864.3958c-.1248.0736-.2853.032-.3611-.0923-.0752-.1232-.0378-.2848.0838-.3632l7.8042-5.0037-8.3301 4.809c-.1264.0731-.288.031-.36267-.0944-.07467-.1253-.03467-.2874.0896-.3637l1.93597-1.1899-2.1349 1.2326c-.1264.073-.28693.032-.3616-.0928s-.0368-.2859.0864-.3638l7.5547-4.7626-7.93924 4.584c-.12693.0736-.28853.0309-.36266-.095-.07467-.1253-.03414-.2874.09067-.3637l.43519-.2651-.55573.3211c-.12586.0731-.28693.032-.3616-.0933-.0752-.1243-.03627-.2859.0864-.3632l8.53277-5.3654-8.87944 5.1259c-.1264.0736-.28853.0309-.36266-.0949-.07414-.1259-.03414-.2875.09067-.3638l2.28213-1.3914-2.39787 1.384c-.1264.073-.28747.0309-.36213-.0934-.07467-.1242-.03627-.2864.08746-.3637l8.94344-5.5957-9.22557 5.3258c-.12693.0731-.28853.031-.36267-.0949-.07466-.1253-.03359-.288.09067-.3643l1.92053-1.1669-1.98773 1.1472c-.1264.0736-.28747.0315-.36213-.0939-.07467-.1253-.0352-.2869.08853-.3637l7.98397-4.9451-8.16477 4.7136c-.1264.0736-.28853.031-.3632-.0954-.07413-.1254-.03307-.288.09173-.3638l.11734-.0709-.12587.0725c-.12693.0736-.28853.0315-.36267-.0944-.07466-.1253-.03466-.2874.0896-.3642l5.75304-3.5227-5.83037 3.3664c-.1264.0736-.28747.0309-.36213-.0933-.07467-.1243-.03627-.2864.08746-.3638l10.95044-6.8549-11.1339 6.4277c-.1264.0731-.28854.031-.36267-.0944-.07467-.1253-.03467-.2874.0896-.3642l6.67837-4.0939-6.71997 3.8795c-.12587.0736-.28747.0314-.36213-.0939-.0752-.1248-.03574-.2864.088-.3637l10.0571-6.248-10.14137 5.8549c-.12587.0731-.28747.0309-.36213-.0933-.0752-.1248-.03574-.287.08746-.3638l10.91734-6.8106-10.98454 6.3418c-.1264.0731-.288.031-.36213-.0938-.07467-.1254-.0352-.2875.08907-.3643l8.9008-5.4981-8.89494 5.1354c-.1264.0731-.28746.031-.36213-.0938s-.0352-.287.08853-.3638l8.55464-5.3088-8.52317 4.9206c-.12587.073-.28693.0309-.3616-.0934-.0752-.1242-.03627-.2858.08693-.3637l8.73284-5.4768-8.6859 5.0197c-.1264.0731-.28694.0315-.3616-.0928-.0752-.1237-.03734-.2858.08533-.3632l8.63787-5.4698-8.5664 4.9461c-.1264.0725-.28747.0309-.36214-.0944-.07466-.1248-.0352-.2869.08854-.3637l3.85067-2.3814-3.69921 2.1355c-.12586.0725-.28693.0309-.3616-.0933-.0752-.1243-.03626-.2864.0864-.3638l5.93654-3.7333-5.78614 3.3408c-.1264.0725-.288.0309-.36266-.0944-.07467-.1253-.03467-.2875.0896-.3637l.6688-.4107-.46614.2688c-.12586.072-.28746.0309-.36213-.0933-.07467-.1248-.03627-.2864.08747-.3638l3.8688-2.4208-3.66667 2.1174c-.12587.072-.28693.0314-.3616-.0928-.0752-.1243-.0368-.2859.08587-.3638l4.63786-2.93064-4.42133 2.55254c-.12587.0725-.2864.0309-.3616-.0928-.0752-.1243-.03733-.2859.08533-.3632l4.64214-2.94934-4.40374 2.54244c-.12533.072-.28533.032-.36053-.0918-.07573-.1232-.03893-.2842.08213-.3632l5.88427-3.81544-5.624 3.24694c-.12533.072-.28533.0315-.36053-.0912-.07574-.12321-.04-.28374.08106-.36321l5.89174-3.85547-5.58934 3.2272c-.12373.07147-.28053.03254-.35786-.08693-.0768-.12-.04587-.27893.0704-.3616l2.14933-1.5232-1.79733 1.03787c-.12054.0688-.27147.0352-.35094-.0768-.07946-.11254-.06026-.26667.04427-.35627l2.0992-1.79947-1.61867.9344c-.11573.0672-.26346.03787-.34506-.06879-.0816-.10614-.07147-.25654.02346-.35094l1.0144-1.0112-.4192.24213c-.10826.06347-.2464.04107-.33173-.0528-.08427-.09333-.09173-.2336-.0176-.33493l.4656-.64c-.0432-.0224-.08107-.0576-.1072-.10293-.0736-.12747-.02987-.29067.0976-.36427l.6512-.376c.10933-.0624.24747-.04107.33173.0528.08427.09387.09174.2336.0176.33493l-.28586.3936 1.09653-.6336c.11733-.06666.264-.03733.34507.0688.0816.10614.07146.25654-.02347.35094l-1.0144 1.0112 2.34293-1.35307c.11947-.06933.27094-.03573.35094.0768.07946.11253.06026.26667-.04427.3568l-2.09973 1.79947 4.2768-2.4688c.1232-.07094.28053-.03307.35786.08693.0768.12.04587.27893-.0704.3616l-2.1504 1.52373 8.88004-5.126396c.1242-.072.2848-.032533.3605.0912.0757.1232.0395.283736-.0811.363196l-5.8917 3.85601 6.3024-3.63894c.1253-.072.2848-.032.3611.09173.0757.1232.0384.28427-.0822.3632l-5.8816 3.81334 6.3568-3.6704c.1264-.07147.2864-.03147.3616.0928.0752.12426.0374.28586-.0848.3632l-4.6432 2.94986 5.0822-2.93386c.1264-.07147.2864-.03094.3616.0928.0752.12426.0368.28586-.0854.36373l-4.6362 2.9296 5.1333-2.96373c.1259-.07254.2869-.03147.3621.09333s.0358.2864-.0869.36373l-3.8741 2.42347 4.3829-2.53067c.1264-.07306.2875-.03093.3627.0944.0746.12534.0346.28747-.0896.36374l-.6608.40586 1.065-.61493c.1259-.072.2864-.03093.3616.09333.0758.12427.0368.2864-.0858.36374l-5.9408 3.736 6.7429-3.8928c.1264-.07307.2875-.03147.3621.0944.0752.1248.0352.28693-.0885.36373l-3.8507 2.38134 4.5931-2.65227c.1264-.07254.2864-.03147.3616.0928.0752.12426.0368.28586-.0853.3632l-8.6363 5.4688 10.0256-5.7888c.1264-.072.2869-.03147.3621.09333.0752.12427.0363.2864-.0869.3632l-8.7333 5.47787 10.4202-6.016c.1259-.07307.2864-.03094.3622.09386.0752.1248.0357.28694-.088.36374l-8.552 5.3072 9.9002-5.71627c.1264-.07307.2875-.03093.3627.0944.0747.1248.0347.28693-.0891.36373l-8.9018 5.49921 8.9781-5.18347c.1259-.07307.2864-.03147.3621.09386.0752.1248.0358.2864-.0874.36374l-10.92 6.81174 10.9216-6.30561c.1258-.07253.2869-.03147.3621.09387.0752.1248.0357.28693-.088.36373l-10.0539 6.24591 9.9659-5.75418c.1259-.07306.2869-.03093.3627.0944.0746.12534.0341.28747-.0896.36374l-6.6875 4.09924 6.5189-3.76377c.1259-.072.287-.03147.3622.09333s.0357.2864-.087.36373l-10.9482 6.85391 10.7589-6.21177c.1259-.07307.2869-.03147.3627.09493.0746.12533.0341.28747-.0902.36373l-5.745 3.51841 5.4954-3.17281c.1264-.07307.288-.03093.3632.09547.0747.12586.0331.28853-.0917.36373l-.2384.14453c.1189-.04853.2597-.00426.328.11038.0752.1248.0352.287-.088.3638l-7.9829 4.9445 7.6858-4.4373c.1264-.0736.288-.031.3632.0949.0742.1259.0336.288-.0912.3637l-1.9242 1.1696 1.6197-.9354c.1264-.072.2869-.031.3621.0933.0752.1248.0358.2864-.0869.3637l-8.9413 5.5942 8.5824-4.9547c.1264-.0731.288-.0309.3626.0949.0747.1259.0342.288-.0901.3638l-2.2891 1.3962 1.9382-1.1189c.1264-.072.2858-.0315.3621.0933.0752.1243.0363.2864-.0864.3638l-8.5323 5.3648 8.0992-4.6763c.1259-.0731.288-.0309.3627.0949.0747.1254.0341.288-.0907.3638l-.4261.2592.0331-.0192c.1264-.072.2864-.031.3616.0933s.0368.2859-.0859.3632l-7.5552 4.7621 7.0331-4.0602c.1258-.0731.2869-.031.3626.0944.0747.1248.0347.2874-.0896.3637l-1.9386 1.1915 1.4634-.8448c.1259-.0731.2864-.0315.3611.0922.0757.1232.0379.2848-.0837.3632l-7.8032 5.0032 7.1226-4.112c.1264-.0736.2875-.032.3627.0944.0747.1248.0347.287-.0896.3638l-.5291.3258c.1206-.0528.264-.0096.3344.1056.0758.1232.0384.2843-.0832.3632l-6.0725 3.9024 5.2496-3.0304c.1264-.0725.2859-.0314.3616.0923.0752.1237.0373.2853-.0843.3632l-4.1968 2.6816 3.3248-1.92c.1243-.0731.2843-.0331.3606.0907.0757.1221.04.2832-.08.3626l-5.2416 3.4603 4.032-2.3275c.1258-.073.2853-.0314.361.0918.0758.1237.0384.2848-.0832.3637l-1.7125 1.1008.5707-.3291c.1237-.072.2816-.033.3584.088.0768.1206.0448.2795-.0726.3616l-3.9221 2.7302 1.6651-.9616c.1269-.0742.2906-.031.3642.0976.0742.1274.0304.2906-.0976.3642l-7.129 4.1163c-.0422.0245-.088.0357-.1334.0357z" fill="#e6e7ec"/><path d="m16.02 29.4772c-.0885 0-.1749-.0437-.2251-.1232-.0768-.1211-.0442-.28.0726-.3621l.6512-.4534-1.0598.6112c-.1237.0731-.2837.0331-.36-.0901-.0762-.1221-.041-.2827.079-.3627l.6938-.4618-1.0437.6021c-.1227.0725-.2816.0331-.3579-.0875-.0768-.1205-.0453-.2794.0715-.3616l4.6325-3.248-5.3797 3.1056c-.1248.0736-.2859.032-.3611-.0922-.0752-.1238-.0378-.2854.0843-.3632l1.1547-.7376-1.4395.8309c-.1253.0725-.2853.032-.3611-.0917-.0752-.1232-.0389-.2843.0827-.3632l3.4309-2.2198-3.8149 2.2027c-.1237.0736-.2837.0331-.36-.0901-.0763-.1222-.0411-.2827.0784-.3627l6.6-4.3973-7.1952 4.1536c-.1248.0741-.2859.032-.3611-.0923-.0752-.1237-.0378-.2848.0843-.3632l4.8277-3.0875-5.1733 2.9867c-.1259.0736-.2875.0315-.3621-.0939-.0752-.1242-.0358-.2864.088-.3637l2.0202-1.2576-2.2037 1.272c-.1264.0736-.2875.0309-.3621-.0939-.0747-.1248-.0352-.2869.0885-.3637l2.0288-1.2597-2.1893 1.264c-.1254.0736-.28591.032-.36111-.0923-.0752-.1237-.03787-.2848.08426-.3632l7.01015-4.4869-7.34828 4.2421c-.12693.0736-.288.0315-.36213-.0944-.07467-.1248-.0352-.2869.08906-.3637l1.62665-1.0022-1.73065.999c-.12533.0741-.28533.032-.36106-.0923-.0752-.1232-.03787-.2848.08426-.3632l8.34025-5.3445-8.65171 4.9946c-.1264.0736-.28694.0315-.3616-.0933-.0752-.1243-.03627-.2859.0864-.3637l6.55361-4.1163-6.73175 3.8864c-.1264.0731-.288.0315-.36266-.0944-.07467-.1253-.03467-.2875.0896-.3643l1.53653-.9408-1.56373.9024c-.12587.0726-.28694.0315-.3616-.0928-.0752-.1237-.03734-.2853.08533-.3632l8.75628-5.5589-8.94828 5.1664c-.12693.0731-.288.0315-.36267-.0944-.07466-.1253-.03466-.2875.0896-.3637l3.26665-2.007-3.27465 1.8902c-.1264.073-.288.0314-.36266-.0944-.07467-.1254-.03467-.2875.0896-.3638l3.44211-2.1146-3.43625 1.984c-.12586.073-.28693.0309-.36213-.0939s-.03573-.2864.08747-.3632l6.94451-4.3296-6.97971 4.0299c-.12587.073-.288.0314-.36267-.0944-.07467-.1254-.03467-.2875.0896-.3638l3.75468-2.3061-3.71308 2.144c-.1264.0731-.28693.0315-.3616-.0928-.0752-.1237-.03733-.2853.08533-.3632l8.26565-5.2427-8.28485 4.783c-.1248.0741-.28586.032-.36106-.0923-.0752-.1237-.03787-.2853.08426-.3637l7.54505-4.8166-7.52371 4.3435c-.1264.0736-.2864.0315-.36107-.0923-.0752-.1237-.03787-.2853.0848-.3637l6.22188-3.9643-6.14828 3.5499c-.1264.0725-.28747.0304-.36213-.0939-.07467-.1248-.0352-.2869.08853-.3637l1.63413-1.0144-1.48106.8555c-.12587.072-.28747.0309-.36214-.0939-.0752-.1248-.03573-.2864.08747-.3637l1.8432-1.1494-1.67787.9686c-.1248.072-.28426.032-.36-.0907-.07573-.1227-.04053-.2832.07947-.3627l6.77338-4.48531-6.64431 3.83631c-.12427.072-.2848.032-.36054-.0912-.07573-.1232-.04-.2838.08107-.3632l5.24058-3.43045-5.05658 2.92005c-.1264.072-.28693.0309-.3616-.0934-.0752-.1242-.03627-.2864.0864-.3637l.776-.488-.54773.3163c-.12534.072-.2848.0314-.36054-.0912-.07573-.1227-.03946-.2838.08107-.3627l3.90773-2.55255-3.67146 2.12005c-.1248.073-.28587.0314-.36107-.0923-.07573-.1232-.0384-.2848.0832-.3632l2.16693-1.39415-1.90133 1.09815c-.1248.0715-.2832.032-.35947-.0891-.07626-.1216-.04266-.2816.07627-.36211l.45547-.30987-.17334.10027c-.12.06933-.272.0352-.35146-.07734-.07947-.11253-.05974-.26773.04533-.3568l1.53973-1.30666-1.18826.6864c-.112.06453-.25387.04-.33654-.05867-.0832-.09813-.08426-.24213-.00266-.34187l.78026-.94933-.312.18027c-.09973.05706-.2256.04426-.31146-.03254-.08587-.0768-.11254-.20053-.06614-.30613l.22454-.50933c-.0224-.01867-.04107-.0416-.05654-.06827-.0736-.12747-.02986-.29067.0976-.36427l.27574-.15893c.09973-.05707.22506-.0448.31146.03253.08587.07734.11254.20054.06614.30614l-.10187.23146.87787-.5072c.11146-.064.25386-.04.33653.05867.0832.09813.08427.24213.00267.34187l-.78027.94933 2.4736-1.42827c.12-.06933.272-.0352.35147.07734.07946.11253.05973.26773-.04534.3568l-1.54026 1.30666 3.92961-2.26826c.1243-.072.2832-.03254.3595.08906.0762.1216.0426.2816-.0763.36214l-.4549.3088 5.1925-2.99787c.1259-.072.2859-.03147.3611.09227.0752.1232.0378.2848-.0838.3632l-2.1669 1.39413 2.4651-1.42347c.1258-.072.2853-.032.3605.0912.0757.12267.0395.28374-.0811.36267l-3.9082 2.55253 4.3744-2.52533c.1264-.072.2864-.03093.3616.09333.0757.12427.0368.2864-.0859.36374l-.7696.48373 1.0704-.61813c.1253-.072.2848-.032.3605.0912.0758.1232.0395.28373-.081.3632l-5.2432 3.43253 5.9301-3.42347c.1248-.07253.2843-.032.36.09067.0763.12267.0405.2832-.0789.36267l-6.7728 4.48533 7.7429-4.4704c.1259-.07307.2864-.03147.3621.09387.0752.1248.0358.2864-.0874.36373l-1.8406 1.14773 2.3803-1.3744c.1259-.07306.2864-.03093.3621.09387.0752.1248.0358.28693-.088.36373l-1.6325 1.01334 2.2187-1.28107c.1264-.07147.2864-.03093.3616.0928s.0373.28533-.0848.3632l-6.2224 3.96478 7.32-4.22611c.1264-.07147.2858-.03094.3616.09226.0752.12374.0373.28534-.0843.3632l-7.5467 4.81765 9.0112-5.20271c.127-.072.2864-.03147.3616.0928.0752.12373.0374.28533-.0853.3632l-8.2667 5.24371 9.6214-5.55518c.1264-.07253.2874-.03093.3626.0944.0747.12533.0347.28747-.0896.36373l-3.7509 2.30347 3.6085-2.0832c.1259-.07307.287-.03147.3622.09387.0752.1248.0357.2864-.0875.36373l-6.944 4.32908 6.7787-3.91361c.1258-.07307.2869-.03094.3626.0944.0747.12533.0347.28746-.0896.36373l-3.4362 2.11038 3.2165-1.85705c.1259-.07306.2869-.03093.3627.0944.0746.12534.0346.28747-.0896.36374l-3.272 2.01011 3.0234-1.74558c.1259-.072.2864-.03093.3616.0928.0752.12427.0374.28587-.0853.36373l-8.7579 5.55945 8.4742-4.8922c.1264-.0731.2874-.031.3626.0949.0747.1253.0342.2875-.0901.3637l-1.5328.9387 1.2368-.7141c.1259-.0715.2869-.031.3621.0933s.0363.2859-.0869.3632l-6.5541 4.1168 6.2197-3.5909c.1264-.072.2859-.032.3611.0922.0757.1238.0378.2848-.0838.3632l-8.337 5.3424 7.9397-4.584c.1264-.073.2875-.0314.3627.0944.0746.1254.0346.2875-.0891.3638l-1.6251 1.001 1.2534-.7237c.1264-.072.2858-.0315.361.0923.0758.1237.0379.2848-.0837.3632l-7.0123 4.489 6.5323-3.7717c.1264-.0731.2864-.0309.3621.0939.0752.1248.0358.2869-.088.3637l-2.0277 1.2587 1.5813-.9131c.1259-.0725.2864-.0309.3622.0939.0752.1248.0357.2869-.0875.3637l-2.0299 1.264 1.5456-.8923c.1259-.0725.2859-.0314.3611.0923.0757.1237.0379.2848-.0837.3632l-4.8251 3.0859 4.2128-2.4326c.1248-.0736.2832-.0325.36.0902.0763.1221.0411.2826-.0784.3626l-6.5968 4.3958 5.7381-3.3131c.1254-.0731.2848-.0325.3611.0917.0757.1232.0384.2843-.0827.3632l-3.4384 2.2246 2.6251-1.5152c.1264-.0731.2853-.0315.3616.0922.0752.1238.0373.2854-.0843.3632l-1.1525.7366.3312-.191c.1227-.0725.2811-.033.3584.0875.0768.1205.0448.2795-.072.3616l-4.6309 3.2469 3.0362-1.753c.1243-.0731.2832-.0331.36.0901.0763.1221.0411.2827-.0784.3627l-1.2736.848c.0827.0048.1622.048.2096.1232.0768.1205.0448.2794-.0725.3616l-2.1621 1.5045c.0304.0213.0565.0496.0762.0837.0742.1275.0304.2907-.0976.3643l-3.6608 2.1141c-.0421.0246-.088.0358-.1333.0358z" fill="#36a3e0"/><path d="m13.5696 21.9282c-.0837 0-.1658-.0394-.2176-.112-.0794-.112-.0613-.2661.0427-.3562l.8315-.7211-1.1099.6405c-.1211.0715-.2768.0342-.3552-.0821-.0779-.1168-.0523-.2741.0587-.36l1.5189-1.1701-1.8464 1.0656c-.1227.072-.2795.033-.3563-.0848-.0778-.1184-.049-.2774.0651-.3611l2.7749-2.0395-3.2064 1.8512c-.1104.0646-.2506.0406-.3344-.0554-.0837-.096-.088-.2379-.0096-.3387l.8742-1.1248-1.3643.7877c-.1147.0672-.2587.0384-.3419-.064-.0821-.1029-.0773-.2506.0123-.3472l.6923-.7498-.9654.5568c-.112.0661-.2554.0394-.33811-.0598-.0832-.0997-.08267-.2448.00106-.3434l.99255-1.1691c-.0325-.0224-.0603-.0517-.0811-.0875-.0736-.1274-.0298-.2906.0976-.3642l.7595-.439c.1131-.0645.2555-.0389.3381.0603.0832.0997.0827.2443-.001.3435l-.7035.8288 1.1525-.6651c.1142-.0672.2592-.0384.3419.064.0821.1029.0773.2507-.0123.3472l-.6922.7499 1.024-.591c.1104-.065.2506-.041.3344.0555.0837.096.088.2379.0096.3387l-.8742 1.1248 6.2086-3.584c.1221-.0699.2794-.0331.3568.0853.0773.1184.0485.2768-.0656.3605l-2.7739 2.0395 1.1317-.6533c.1211-.071.2768-.0342.3547.0821s.0528.2741-.0581.36l-1.5206 1.1712.0587-.0336c.12-.0693.2715-.0352.3504.0763.0795.112.0613.2661-.0427.3562l-1.1845 1.0267c.0603.0197.1136.0608.1477.1205.0736.1275.0299.2907-.0976.3643l-1.8453 1.0656c-.0421.0245-.088.0357-.1333.0357z" fill="#fff"/><path d="m13.9749 18.1389c-.0891 0-.176-.0443-.2261-.1248-.0763-.1221-.0427-.2821.0768-.3627l1.0416-.705c-.0923.0138-.1867-.0406-.2395-.1248-.0763-.1222-.0416-.2827.0779-.3627l.9034-.6043c-.0688-.0128-.1328-.0522-.1744-.1146-.0778-.1168-.0517-.2747.0598-.36l2.5637-1.959-.8656.4998c-.12.0693-.2736.0346-.3525-.079-.079-.1141-.0571-.2698.0501-.3578l1.3547-1.111c-.0854.0043-.1707-.0298-.2272-.1008-.0822-.1034-.0763-.2517.0144-.3482l1.1285-1.1984c-.0085-.0107-.016-.0219-.0229-.0336-.0742-.1275-.0304-.2907.0976-.3643l.6917-.39947c.1136-.0656.2597-.03893.3424.0656.0821.10347.0763.25177-.0144.34827l-.5904.6272 1.0048-.5797c.12-.0694.2736-.0347.3525.0789.079.1141.0571.2699-.0501.3579l-1.224 1.0037 1.6229-.9371c.1211-.0709.2779-.0341.3552.0832.0779.1168.0518.2747-.0597.36l-2.5643 1.959 2.431-1.4032c.1242-.072.2837-.0326.36.0901.0762.1221.041.2827-.0779.3627l-.9035.6048c.0715.0128.1371.0549.1782.121.0762.1216.0421.2816-.0768.3622l-1.0416.705c.0858-.0053.1925.0432.2437.1334.0741.1274.0304.2906-.0976.3642l-6.0091 3.4688c-.0421.0246-.088.0358-.1333.0358z" fill="#fff"/><g fill="#262626"><path d="m12.1029 29.9617c2.8218 2.1653 5.208 1.9472 7.9525-.2128 8.0203-5.2294 11.56-16.4128 8.7616-25.43095-.464-.92853-1.8347-.38293-2.6315-.32747-3.409.272-7.017-.7968-9.3498-3.378664-1.7824-1.335467-4.4198 4.718934-11.87098 3.265604-1.848-.53174-2.192 1.5168-2.43573 2.87786-1.23733 8.69062 1.8928 18.40742 9.57391 23.20642zm-8.37018-25.01868c.17494-1.19947 1.5168-.38774 2.31307-.48854 3.48587.19574 7.17231-.8736 9.62561-3.44373.2464-.260268.3792-.159468.6112.0848 8.0203 7.6912 12.7968-2.13653 12.6645 8.83947.1334 8.78508-4.1184 18.14608-12.7898 21.29438-10.28911-3.544-15.03524-16.2352-12.42458-26.28638z"/><path d="m5.43129 17.6061c1.5136 5.144 5.30081 10.031 10.45921 11.7904 8.9184-3.1013 13.552-14.7941 11.0907-23.28583-3.8096.34933-7.9014-.6992-10.8763-3.18294-3.4331 1.8048-6.55361 3.58347-10.81708 2.93547-2.19946 1.3424-.448 9.2896.14347 11.7429zm10.47201-13.99517c2.9872 2.36214 6.7931 3.184 10.5515 2.88054 1.5845 8.57443-1.8731 18.87413-10.3174 22.49443-8.54398-3.5344-12.14184-13.8256-10.63251-22.4715 3.69653.22827 7.43891-.62347 10.39841-2.90347z"/><path d="m11.5004 20.3427c2.6768 3.0027 3.4997 1.5509 5.3552-1.152 1.736-2.3813 3.5237-4.7344 5.2501-7.1173.543-.9099-.809-1.592-1.4442-1.9974-1.9467-1.05863-5.3462 6.1787-6.9147 7.5584-.8949-.9568-2.1253-1.92-3.0885-.4938-1.76164 1.3914-.407 2.1882.8421 3.2021zm-.5467-2.6507c.863-1.6218 1.552-.0293 2.455.599 1.3664.0976 2.3066-2.7803 3.344-3.6907 1.0245-1.3632 2.024-2.7851 3.0448-4.1291.1941-.1232.4224.1312.6032.2608.2837.2038.9637.5147 1.0597.8875-1.6501 3.0725-4.2875 5.8192-6.2619 8.7792-.2629.3557-.7712 1.4613-1.3408 1.0651-.6725-1.0384-4.27251-2.5088-2.9034-3.7723z"/></g></svg>