<svg fill="none" height="44" viewBox="0 0 45 44" width="45" xmlns="http://www.w3.org/2000/svg"><g fill="#e1efff"><path d="m11.7409 18.2426c-.3334-.4225-.7871-.7337-1.3562-.9361-.57351-.2023-1.11607-.3045-1.62745-.3045-.298 0-.60471.0356-.92479.1067-.31562.0689-.61361.18-.89379.3289-.28464.1513-.51138.3492-.68913.5937-.17349.2467-.26239.547-.26239.8983 0 .5648.20895.996.63145 1.294.42251.3001.95596.5559 1.60075.767.64034.2112 1.33391.4225 2.07205.6335.7381.2113 1.4273.5114 2.0721.8983.6403.3869 1.1739.9072 1.5963 1.5564.4225.6514.6358 1.5229.6358 2.6146 0 1.0406-.1955 1.9454-.5824 2.7213-.3869.7738-.9116 1.4163-1.5696 1.9276-.6626.5114-1.4274.8894-2.299 1.1361-.87151.2445-1.79204.369-2.75691.369-1.21833 0-2.34332-.1845-3.3839-.5559-1.03612-.3691-2.00543-.9672-2.90369-1.7942l2.9304-3.2214c.42251.5625.95598.9981 1.60077 1.3072.64034.3069 1.30721.4602 1.99208.4602.33343 0 .67152-.0377 1.01832-.1179.34234-.08.64923-.1979.9205-.3557.27573-.1601.49353-.3625.66263-.6091.169-.2446.249-.5358.249-.8716 0-.5625-.2134-1.0071-.64479-1.3318-.43141-.3268-.97377-.6047-1.62302-.8338-.6537-.2267-1.35621-.4558-2.11215-.6846-.76039-.2291-1.46287-.5381-2.11657-.9248-.64924-.3869-1.19162-.8983-1.62303-1.5319-.43141-.6335-.64479-1.4696-.64479-2.5079 0-1.0049.19556-1.8854.59134-2.6413.39579-.7559.92479-1.3918 1.5874-1.9009.65815-.5114 1.41854-.8938 2.28117-1.1494s1.75199-.3824 2.66807-.3824c1.05819 0 2.07647.1489 3.06367.449.9871.298 1.8764.8005 2.668 1.5051z"/><path d="m16.6538 23.0227c0-1.4961.2535-2.8525.7515-4.0664.5025-1.2139 1.2049-2.2477 2.1032-3.1037.8938-.8538 1.9609-1.5075 3.1926-1.9654s2.579-.687 4.0419-.687c1.4584 0 2.8057.2291 4.0374.687 1.2361.4579 2.299 1.1116 3.197 1.9654.8983.856 1.5963 1.8898 2.0988 3.1037s.7515 2.5701.7515 4.0664c0 1.4964-.249 2.8526-.7515 4.0665-.5025 1.2162-1.2005 2.25-2.0988 3.1037-.8982.8538-1.9609 1.5096-3.197 1.9677-1.2317.458-2.579.687-4.0374.687-1.4629 0-2.8102-.229-4.0419-.687-1.2317-.4579-2.299-1.1139-3.1926-1.9677-.8983-.8537-1.6007-1.8875-2.1032-3.1037-.498-1.2141-.7515-2.5701-.7515-4.0665zm4.2777 0c0 .8805.1379 1.6875.4092 2.4168.2757.7315.667 1.3651 1.1782 1.9009.5069.5381 1.1206.9559 1.832 1.2539.7158.3001 1.5118.449 2.3923.449.8804 0 1.6763-.1489 2.3878-.449.7159-.298 1.3251-.7158 1.8365-1.2539.5113-.5358.9027-1.1696 1.1739-1.9009.2758-.7293.4092-1.5363.4092-2.4168 0-.8626-.1334-1.6631-.4092-2.4033-.2712-.7381-.6626-1.3761-1.1739-1.9142-.5114-.5358-1.1206-.9539-1.8365-1.254-.7114-.298-1.5074-.449-2.3878-.449-.8805 0-1.6765.1512-2.3923.449-.7114.3001-1.3251.7182-1.832 1.254-.5114.5381-.9027 1.1761-1.1782 1.9142-.2713.7402-.4092 1.5407-.4092 2.4033z"/><path d="m37.0376 33.7923 3.9352-3.5307c.2-.1822.4002-.3869.6002-.6158.2001-.229.298-.4957.298-.8004 0-.3447-.1245-.6136-.369-.8094-.249-.1956-.5381-.2936-.8716-.2936-.4002 0-.7158.1246-.9381.3736-.2223.2468-.3512.5514-.378.9137l-2.1477-.1557c.0311-.5247.1378-.9805.3289-1.3672.1913-.3846.4446-.707.7604-.9649.3114-.2579.6847-.449 1.1072-.578.4225-.1289.8849-.1934 1.3785-.1934.4579 0 .8893.0645 1.2896.1934.4002.129.747.318 1.045.5714.2935.2535.5248.5691.6936.9516.1646.38.249.8248.249 1.3294 0 .3246-.0356.6181-.1022.8781-.0667.2624-.1602.5025-.2758.7159-.12.2157-.2623.4136-.4225.5937-.1646.1822-.3379.358-.5292.5292l-3.077 2.6458h4.4911v1.8875h-7.0656z"/></g></svg>