<svg fill="none" height="32" viewBox="0 0 32 32" width="32" xmlns="http://www.w3.org/2000/svg" xmlns:xlink="http://www.w3.org/1999/xlink"><clipPath id="a"><path d="m0 0h32v32h-32z"/></clipPath><g clip-path="url(#a)"><g fill="#5bbab7"><path d="m24.1467 28.7694c-.0489 0-.0969-.0135-.1387-.039s-.0758-.062-.0982-.1055-.0324-.0924-.0289-.1412.0204-.0958.0487-.1356l.6678-.9398-1.8448 1.0667c-.061.0319-.1319.039-.1979.0198-.0661-.0191-.1222-.0631-.1566-.1226-.0344-.0596-.0445-.1301-.0281-.1969.0163-.0668.0579-.1247.1159-.1616l2.9035-1.6768c.0527-.0307.1143-.0423.1746-.033s.1155.039.1566.0841c.041.0451.0653.1029.0689.1637.0036.0609-.0137.1212-.0492.1708l-.6677.9397.1365-.0784c.061-.0319.1319-.039.1979-.0198.0661.0191.1222.0631.1566.1226.0344.0596.0445.1301.0281.1969-.0163.0668-.0579.1247-.1159.1616l-1.1958.6902c-.0405.0231-.0866.0349-.1333.0341z"/><path d="m26.3184 25.8262c-.0587 0-.1157-.0193-.1623-.0551-.0466-.0357-.0801-.0858-.0953-.1425-.0151-.0567-.0112-.1168.0113-.1711.0224-.0542.0621-.0995.113-.1289l2.2058-1.2752c.0513-.0296.111-.0414.1696-.0334.0587.008.1131.0353.1545.0776.0415.0423.0676.0972.0744.156.0068.0589-.0061.1183-.0369.1689l-.1504.2475c.0559.0058.1086.0292.1504.0668.0418.0375.0707.0873.0825.1423.0118.0549.006.1122-.0167.1636-.0226.0514-.061.0944-.1095.1227l-.6837.3952c-.0513.0299-.1111.0418-.1699.0338s-.1133-.0353-.1548-.0778c-.0415-.0424-.0677-.0975-.0744-.1564-.0067-.059.0065-.1185.0375-.1692l.0949-.1552-1.3056.7542c-.0408.0238-.0872.0363-.1344.0362z"/><path d="m20.2018 30.8417c-.0553-.0001-.1093-.0173-.1544-.0494s-.0791-.0775-.0973-.1297c-.0181-.0523-.0196-.109-.0041-.1621.0154-.0532.0471-.1002.0905-.1345l2.4698-1.9499-3.2 1.8475c-.0599.0347-.1309.0447-.1981.028-.0671-.0167-.1252-.0589-.1618-.1176-.0367-.0588-.049-.1294-.0345-.1971s.0548-.1271.1123-.1656l2.7952-1.8789-3.3403 1.928c-.0609.0318-.1318.0389-.1979.0198-.066-.0192-.1221-.0631-.1565-.1227-.0345-.0595-.0445-.1301-.0282-.1969.0164-.0668.0579-.1247.116-.1616l10.096-5.8298c.0599-.0348.1309-.0448.1981-.0281s.1252.0589.1618.1176c.0367.0588.049.1294.0345.1971s-.0548.1271-.1123.1656l-3.0667 2.0614c.0578-.0068.1162.0054.1663.0349.0501.0294.0893.0745.1114.1282.0222.0538.0262.1133.0114.1695-.0148.0563-.0476.1061-.0933.142l-4.1355 3.2662c.0231.0593.0241.1249.003.185s-.0631.1106-.1182.1424l-1.1339.655c-.0404.0236-.0865.0359-.1333.0357z"/><path d="m15.3292 1.2777c-.0587 0-.1158-.01937-.1624-.0551-.0465-.03574-.08-.08584-.0952-.14254s-.0113-.116832.0112-.171064c.0225-.054233.0622-.099539.113-.128891l.7739-.447467c.0303-.019294.0643-.03225.0998-.038087s.0718-.004435.1067.004121c.0349.008557.0678.024091.0965.045669.0288.021577.0529.048752.0709.079889.018.031138.0295.065594.0339.101297.0043.035702.0014.071913-.0086.106454-.0101.034541-.027.066698-.0497.094536-.0228.027839-.051.050784-.0828.067454l-.7739.447469c-.0404.02376-.0865.03628-.1333.03626z"/><path d="m15.897 31.7053c-.0577.0001-.1138-.0186-.1599-.0531-.0462-.0346-.0799-.0832-.0961-.1385-.0163-.0553-.0141-.1144.0061-.1684.0202-.0541.0573-.1001.1059-.1312l2.4587-1.5701-2.7451 1.584c-.0604.0354-.1322.0456-.2.0285s-.1262-.0601-.1626-.1199c-.0364-.0597-.0478-.1314-.0319-.1995.016-.0681.058-.1272.1172-.1646l3.0197-1.9306-3.2437 1.8725c-.0603.0343-.1315.0438-.1986.0265-.0671-.0174-.1248-.0601-.1609-.1192-.0362-.0592-.0478-.1301-.0326-.1977s.0562-.1266.1142-.1645l6.5925-4.2464-6.9733 4.0256c-.0606.0341-.1321.0432-.1993.0254-.0672-.0179-.1248-.0612-.1605-.1209s-.0466-.131-.0305-.1986.058-.1263.1167-.1635l.8245-.5088-3.2416 1.8714c-.0605.0342-.1321.0433-.1993.0254-.0672-.0178-.1248-.0612-.1604-.1209-.0357-.0596-.0467-.1309-.0306-.1985.0161-.0677.058-.1264.1167-.1636l3.9259-2.4314-4.2853 2.4736c-.0602.0326-.1307.0408-.1968.0229s-.1228-.0605-.1583-.1191c-.0355-.0585-.0471-.1285-.0325-.1954.0147-.0669.0545-.1256.1113-.1639l7.8923-5.0048-8.024 4.6341c-.0604.0327-.131.0409-.1972.0228-.0663-.018-.123-.061-.1584-.1198-.0353-.0588-.0467-.129-.0316-.1959.015-.067.0553-.1256.1125-.1636l7.5488-4.7109-7.6464 4.4117c-.0603.0332-.1311.0417-.1976.0239-.06647-.0178-.12348-.0607-.15909-.1196-.03562-.0589-.04708-.1293-.03199-.1964.01509-.0672.05556-.1259.11294-.1639l9.18134-5.7765-10.13334 5.8512c-.06089.036-.13359.0463-.2021.0287-.06852-.0176-.12723-.0617-.16323-.1226s-.04633-.1336-.02873-.2021.0617-.1272.1226-.1632l.30826-.1862-1.5696.9067c-.06058.0341-.13209.0432-.1993.0254-.0672-.0178-.12478-.0612-.16046-.1209s-.04665-.1309-.03055-.1986c.0161-.0676.05798-.1263.11671-.1635l7.28484-4.496-7.6267 4.4043c-.03009.0179-.06341.0298-.09808.0349-.03466.0051-.06999.0033-.10397-.0053-.03397-.0086-.06592-.0237-.09403-.0446-.02811-.021-.05183-.0472-.06979-.0773-.01797-.0301-.02983-.0634-.03491-.0981-.00509-.0346-.0033-.07.00527-.1039.00857-.034.02374-.066.04466-.0941s.04716-.0518.07725-.0698l7.0069-4.3157-6.85437 3.9557c-.06075.0347-.13267.044-.20027.0261s-.12546-.0616-.16113-.1217c-.03566-.0602-.04628-.1319-.02956-.1998s.05944-.1265.11896-.1632l2.29333-1.3867-2.1136 1.2144c-.06066.033-.13174.0412-.19831.0228-.06656-.0184-.1234-.0618-.15857-.1212-.03517-.0595-.04592-.1302-.02999-.1974s.0573-.1256.11541-.1629l4.2832-2.6069-4.1344 2.3867c-.06036.0327-.13099.0408-.19721.0228-.06622-.0181-.12292-.061-.15831-.1198-.03538-.0588-.04673-.129-.03167-.196s.05536-.1256.11252-.1636l10.86827-6.7808-11.78507 6.8043c-.06061.0365-.13324.0474-.2019.0304-.06866-.0171-.12774-.0607-.16423-.1213-.0365-.0606-.04742-.1333-.03037-.2019.01706-.0687.06069-.1278.1213-.1643l11.42187-7.1466-12.68694 7.3248c-.0605.0328-.13134.0409-.19771.0227s-.12313-.0614-.15839-.1205c-.03527-.0591-.04632-.1296-.03085-.1966.01548-.0671.05628-.1256.11389-.1632l8.4075-5.1686-8.29977 4.791c-.0603.0318-.13048.0393-.19613.0209-.06566-.0183-.1218-.0611-.15689-.1195-.03509-.0585-.04647-.1281-.0318-.1947s.05428-.125.11069-.1633l11.7979-7.3674-11.30244 6.5248c-.06039.0322-.13088.04-.19687.0217-.06598-.0183-.1224-.0612-.15757-.12-.03516-.0587-.04639-.1288-.03134-.1956s.05522-.1252.11218-.1632l10.71624-6.6544-10.58397 6.1109c-.06062.0335-.1319.0422-.19875.0241-.06686-.0182-.12405-.0616-.15946-.1211s-.04627-.1305-.03028-.1979.05758-.1259.11596-.1632l7.4853-4.5867-8.02237 4.6315c-.06062.0335-.1319.0421-.19875.024-.06686-.0181-.12405-.0615-.15946-.121-.03541-.0596-.04627-.1305-.03028-.1979s.05758-.126.11596-.1632l6.768-4.1408-7.28854 4.208c-.03011.0179-.06346.0297-.09813.0347s-.06999.0031-.10394-.0055c-.03395-.0087-.06587-.0239-.09392-.0449-.02806-.021-.05171-.0473-.06961-.0774-.01789-.0301-.02968-.0635-.03469-.0981-.005-.0347-.00313-.07.00551-.104.01745-.0685.06143-.1274.12225-.1635l6.11787-3.7392-6.46827 3.7333c-.06089.036-.13359.0464-.20211.0288-.06851-.0176-.12723-.0617-.16322-.1226-.036-.0609-.04634-.1336-.02873-.2021.0176-.0686.0617-.1273.12259-.1633l2.48374-1.504-1.98827 1.1488c-.06062.0336-.1319.0422-.19875.0241-.06686-.0182-.12405-.0616-.15946-.1211s-.04627-.1305-.03028-.1979.05758-.1259.11596-.1632l5.928-3.6267-5.03734 2.9099c-.06075.0346-.13267.044-.20027.0261-.06759-.0179-.12546-.0616-.16112-.1218-.03567-.0601-.04629-.1319-.02956-.1998.01672-.0678.05944-.1265.11895-.1632l2.77334-1.6853-2.3296 1.3456c-.06036.0327-.13099.0409-.19721.0228s-.12292-.061-.15831-.1198c-.03538-.0588-.04673-.129-.03167-.196.01506-.0669.05536-.1255.11252-.1635l10.64797-6.6838-11.0789 6.3963c-.06066.033-.13175.0412-.19831.0228s-.12341-.0618-.15858-.1212c-.03517-.0595-.04592-.1302-.02998-.1974.01593-.0672.0573-.1256.1154-.1629l.6528-.3952-.78933.4555c-.06016.0318-.13019.0394-.19575.0212-.06557-.0181-.12172-.0607-.15695-.1189-.035233-.0582-.04689-.1276-.032582-.1942.014307-.0665.053492-.125.109542-.1636l10.06614-6.3834-10.451204 6.0341c-.030011.0181-.063302.0302-.097971.0355-.034668.0052-.070037.0036-.104085-.0048s-.066109-.0234-.094353-.0442c-.028244-.0207-.052118-.0469-.070258-.0769s-.030191-.0633-.035465-.098c-.005274-.0346-.003668-.07.004726-.1041.008395-.034.023413-.0661.044198-.0943.020785-.0283.04693-.0521.076941-.0703l9.866671-6.23516-7.77494 4.48796c-.06038.0345-.13185.0441-.19918.0267-.06732-.0175-.12517-.0605-.16121-.12-.03603-.0595-.04741-.1307-.03169-.1984.01571-.0678.05727-.1267.11582-.1643l8.2133-5.21703-8.26824 4.77383c-.06031.0332-.13111.0418-.19759.0239-.06647-.0178-.12348-.0606-.1591-.1195-.03561-.0589-.04707-.1293-.03198-.1965.01508-.0671.05555-.1259.11294-.1639l7.22987-4.57063-7.36 4.25063c-.06039.0345-.13186.0441-.19918.0267-.06733-.0175-.12518-.0605-.16121-.12-.03604-.0595-.04741-.1307-.0317-.1984.01572-.0678.05728-.1267.11582-.1643l4.85707-3.0725-4.9216 2.8411c-.06039.0345-.13186.044-.19918.0266-.06733-.0174-.12518-.0605-.16121-.12-.03604-.0595-.04741-.1307-.0317-.1984.01572-.0678.05728-.1267.11582-.1642l4.688-2.96536-1.97333 1.13866c-.06061.0365-.13324.04742-.2019.03036-.06867-.01705-.12774-.06068-.16424-.12129-.03649-.06061-.04741-.13324-.03036-.2019s.06069-.12774.1213-.16423l.8784-.55147-.7056.40747c-.05485.03171-.1192.04285-.18153.03143-.06232-.01141-.11854-.04465-.15858-.09374-.04005-.0491-.06131-.11085-.05997-.17419.00134-.06335.02519-.12415.06728-.17151l.8192-.92266-.6496.37333c-.0516.02888-.11133.03978-.1698.03101s-.11236-.03673-.15321-.07947-.06634-.09785-.07246-.15666c-.00611-.0588.00749-.11798.03867-.16821l.12426-.19147c-.05196-.0122-.09907-.03972-.13522-.079-.03615-.03927-.05969-.08849-.06756-.14128-.00787-.0528.00029-.10674.02341-.15485.02313-.04811.06016-.08817.10631-.115l.68373-.3952c.05185-.0298.11222-.0413.1714-.03266s.11373.03693.1549.08031.06656.09934.07209.15889-.00912.11924-.04159.16946l-.03733.05866 1.112-.64c.05479-.03137.11893-.04228.18102-.0308.06208.01149.11808.04463.15802.09353s.06123.11039.06009.17352c-.00115.06312-.02465.1238-.06633.17122l-.81867.92054 11.66507-6.733872c.0604-.032694.131-.040856.1972-.022788.0662.018067.1229.060973.1583.119789.0354.058815.0467.129011.0317.195981-.0151.06696-.0554.12555-.1125.16355l-.8784.55093 1.0133-.58666c.0604-.03451.1319-.04406.1992-.02662.0673.01743.1251.06048.1612.11997.036.05948.0474.13068.0317.19843s-.0573.12668-.1158.16422l-4.6822 2.96373 4.9531-2.8592c.0603-.03316.1311-.04173.1976-.02389.0665.01783.1235.06068.1591.11957.0356.0589.0471.12929.032.19644-.0151.06716-.0556.12588-.113.16388l-4.8592 3.072 7.4086-4.2768c.0605-.03663.1331-.04772.2018-.03082.0687.01691.1279.06041.1646.12095.0366.06054.0477.13316.0308.20187-.0169.06872-.0604.1279-.121.16453l-7.2304 4.57014 7.6891-4.43894c.0603-.03368.1313-.04268.198-.0251.0668.01758.1241.06038.16.11938.0358.05901.0474.12962.0323.19698-.0152.06737-.0558.12623-.1135.16421l-8.2192 5.22027 8.3611-4.82667c.0603-.03451.1318-.04406.1991-.02662.0674.01744.1252.06049.1613.11997.036.05948.0474.13069.0316.19843-.0157.06775-.0572.12668-.1158.16422l-9.8586 6.232 10.0565-5.8064c.0602-.03263.1307-.04084.1968-.02294s.1227.06054.1583.1191c.0355.05855.0471.12852.0324.19541-.0146.06689-.0545.12558-.1112.1639l-10.071 6.38663 12.1392-7.0085c.0608-.03386.1324-.04262.1996-.02441.0671.0182.1245.06194.1599.12186.0353.05993.0459.1313.0293.19889-.0165.06758-.0588.12603-.1178.16286l-.6491.39307 1.12-.64747c.03-.01807.0633-.03005.0979-.03526.0347-.00521.07-.00354.104.0049s.066.0235.0942.04431.052.04697.07.07698c.0181.03002.0301.06329.0353.09793.0052.03465.0035.06998-.0049.10397-.0085.034-.0235.06601-.0443.09418-.0208.02818-.047.05199-.077.07006l-10.6379 6.67783 10.56-6.0981c.0608-.03462.1327-.04399.2003-.0261.0676.0179.1255.06163.1611.12177.0357.06014.0463.13189.0296.19979-.0167.06789-.0595.1265-.119.16321l-2.7962 1.7008 2.6192-1.51147c.0606-.03351.1319-.04213.1987-.02401.0669.01811.1241.06152.1595.12105s.0462.1305.0303.1979c-.016.06739-.0576.12592-.116.1632l-5.92 3.62133 5.7765-3.33867c.0607-.03299.1318-.04116.1983-.0228.0666.01836.1234.06182.1586.12124s.0459.13017.03.19735c-.0159.06719-.0573.12557-.1154.16288l-2.4827 1.504 2.7872-1.61013c.0609-.03615.1335-.04664.2021-.02919s.1274.06143.1635.12225c.0362.06082.0467.13351.0292.20208-.0174.06856-.0614.12738-.1222.16352l-6.1136 3.7371 6.9818-4.03043c.0606-.03352.1319-.04213.1988-.02402.0668.01811.124.06153.1594.12106.0355.05953.0463.1305.0303.19789-.016.0674-.0576.12593-.1159.1632l-6.7787 4.1477 7.5653-4.36797c.0301-.01793.0634-.02975.0981-.03481.0346-.00505.0699-.00323.1039.00536.0339.0086.0659.02379.0939.04472.0281.02093.0518.04719.0697.07727.018.03008.0298.0634.0348.09805.0051.03465.0033.06996-.0053.10391s-.0238.06588-.0447.09395c-.021.02808-.0472.05176-.0773.06969l-7.4795 4.58293 7.3318-4.23253c.0604-.03226.1308-.04005.1968-.02176s.1224.06126.1576.12001.0464.12878.0313.19558c-.015.06679-.0552.12524-.1121.16323l-10.7168 6.65437 10.24-5.9109c.0603-.03269.131-.04085.1972-.02279.0662.01807.1229.06098.1583.11979.0354.05882.0467.12901.0316.19598-.015.06697-.0553.12555-.1125.16356l-11.7989 7.36696 11.6539-6.72857c.0607-.03621.1334-.0468.2019-.02945.0686.01736.1275.06124.1637.12199s.0468.1334.0294.20196c-.0173.06857-.0612.12747-.122.16367l-8.4101 5.1733 8.9941-5.1952c.0605-.0339.1317-.0429.1986-.0251.067.0177.1244.0608.1602.1201.0357.0593.047.1302.0314.1977-.0156.0674-.0568.1262-.115.1638l-11.4208 7.1467 12.2363-7.0651c.0604-.0327.131-.0408.1972-.0228.0662.0181.1229.061.1583.1198.0354.0589.0467.129.0317.196-.0151.067-.0554.1256-.1125.1636l-10.8656 6.7808 10.648-6.1472c.0605-.0324.1312-.0402.1973-.0217.0661.0184.1226.0617.1577.1207.035.059.0459.1293.0305.1962-.0155.0669-.0561.1252-.1135.1629l-4.2838 2.6075 3.4443-1.9888c.0608-.0347.1327-.044.2003-.0261s.1254.0616.1611.1217c.0357.0602.0463.1319.0296.1998-.0168.0679-.0595.1265-.119.1632l-2.3077 1.3984 1.7738-1.0234c.0606-.0342.1321-.0433.1993-.0254.0672.0178.1248.0612.1605.1209.0357.0596.0466.1309.0305.1985-.0161.0677-.0579.1264-.1167.1636l-7 4.3125 7.231-4.1744c.0605-.0341.1321-.0432.1993-.0254s.1247.0612.1604.1209.0467.1309.0306.1986c-.0161.0676-.058.1263-.1167.1635l-7.2854 4.4944 7.5936-4.384c.0609-.036.1336-.0463.2021-.0287.0686.0176.1273.0617.1633.1226s.0463.1336.0287.2021-.0617.1272-.1226.1632l-.32.1925.4485-.2592c.0606-.0365.1332-.0475.2018-.0306.0687.017.1278.0605.1644.121.0365.0606.0475.1332.0306.2018-.017.0687-.0605.1278-.121.1644l-9.175 5.7738 8.8502-5.1093c.0603-.0318.1304-.0393.1961-.021.0657.0184.1218.0612.1569.1196s.0465.1281.0318.1947c-.0147.0665-.0543.125-.1107.1632l-7.5499 4.7147 5.8347-3.3685c.0602-.0327.1307-.0409.1968-.023s.1227.0606.1583.1191c.0355.0586.0471.1285.0324.1954-.0146.0669-.0545.1256-.1112.1639l-7.8875 4.9995 8.0277-4.6336c.0604-.0323.1309-.04.1969-.0218.066.0183.1224.0613.1576.1201.0351.0587.0464.1287.0313.1955-.015.0668-.0552.1253-.1122.1633l-3.9338 2.4373 3.9754-2.2933c.0606-.0342.1321-.0433.1993-.0254.0672.0178.1248.0612.1605.1209.0357.0596.0466.1309.0305.1985-.0161.0677-.0579.1264-.1167.1636l-.8277.5109.816-.4704c.06-.0318.1299-.0395.1954-.0215s.1217.0603.157.1182c.0354.058.0474.1273.0334.1938-.014.0664-.0528.1251-.1085.1639l-6.5909 4.2437 3.9429-2.2762c.0602-.0331.1308-.0417.1972-.0241.0663.0177.1233.0603.159.1189.0358.0587.0475.1288.0328.1959s-.0547.1259-.1116.1642l-3.0171 1.9307 2.8667-1.6534c.0601-.0321.1302-.0401.196-.0221.0658.0179.1222.0604.1576.1186.0355.0583.0473.1279.033.1945-.0143.0667-.0536.1254-.1098.164l-11.6192 7.4192c-.0231.0482-.0603.0882-.1067.1146l-.7739.4475c-.0404.0236-.0865.036-.1333.0357z"/><path d="m10.1174 3.45715c-.0489-.0005-.0967-.01444-.13818-.04028-.04151-.02585-.07511-.06262-.09713-.10627-.02202-.04366-.03162-.09254-.02773-.14128.00388-.04874.02109-.09548.04975-.1351l.83999-1.15733c-.0391-.0231-.0714-.05601-.0939-.09547-.0354-.06118-.045-.13392-.0268-.20223.0182-.0683.0628-.12659.1239-.16204l.6128-.35626c.0529-.03043.1147-.04178.1749-.03217.0603.00961.1155.03962.1563.08499.0408.04538.0648.10339.068.16434s-.0146.12116-.0504.17057l-.64.88533 1.3152-.75946c.061-.03189.1319-.03899.1979-.01982.0661.01916.1222.06311.1566.12265.0344.05955.0445.13009.0281.1969-.0163.0668-.0579.1247-.1159.1616l-2.4 1.38667c-.0406.02329-.0866.03527-.1334.03466z"/><path d="m6.41257 6.1455c-.05253-.00012-.10385-.01574-.14753-.04492-.04369-.02917-.07778-.0706-.098-.11908s-.02568-.10185-.01568-.15342.035-.09904.07188-.13645l.8272-.83787-.35147.20214c-.05033.02925-.10886.04123-.16664.0341-.05778-.00712-.11164-.03296-.15336-.07357-.04206-.04063-.06959-.09397-.07836-.15179-.00877-.05783.00171-.11693.02983-.16821l.36746-.67733c-.05545-.00686-.10734-.03097-.14836-.06892-.04101-.03794-.06907-.08781-.0802-.14257-.01114-.05475-.0048-.11162.01812-.16258.02293-.05095.06128-.09342.10965-.1214l.60319-.344c.05029-.02887.10862-.04056.16615-.0333s.11113.03307.15267.07353c.04155.04045.06877.09335.07755.15067.00878.05731-.00137.11593-.0289.16697l-.32.58666 1.2512-.72213c.05589-.03222.12155-.0431.18484-.03061s.1199.0475.15936.09854c.03945.05104.05906.11465.0552.17904s-.03093.1252-.0762.17116l-.82187.83574 4.8848-2.82027c.0612-.0348.1337-.04398.2017-.02553.0679.01845.1258.06303.161.12401.0353.06099.0449.13342.0269.2015s-.0622.12627-.1229.16189l-6.6059 3.81226c-.04042.02367-.08648.03602-.13333.03574z"/></g><path d="m16.0765 25.3151c-.0572 0-.113-.0183-.159-.0524s-.0798-.0821-.0965-.1368c-.0166-.0548-.0151-.1135.0042-.1674s.0554-.1002.1031-.132l1.2298-.8176-2.0954 1.2091c-.0599.0318-.1297.0397-.1951.0219-.0655-.0178-.1217-.0599-.1572-.1176-.0355-.0578-.0477-.1269-.0341-.1933.0136-.0665.052-.1252.1074-.1643l1.72-1.1259-2.4352 1.4059c-.0596.0341-.1301.0438-.1968.0272s-.1244-.0583-.161-.1165c-.0367-.0581-.0495-.1281-.0358-.1955.0137-.0673.0529-.1267.1094-.1659l5.3626-3.68-6.4133 3.704c-.06.0331-.1305.0417-.1967.0243-.0663-.0175-.1233-.0599-.1591-.1183-.0359-.0583-.0479-.1283-.0336-.1953s.0539-.1259.1105-.1646l4.2725-2.7888-4.8875 2.8203c-.0601.0336-.1309.0426-.1975.0252s-.1239-.0599-.1599-.1187c-.036-.0587-.0479-.1291-.0331-.1963.0147-.0673.0549-.1263.1121-.1646l4.6864-3.04-5.208 3.0091c-.0599.0335-.1306.0426-.1971.0254-.0665-.0173-.1238-.0596-.1599-.118-.0361-.0585-.0483-.1287-.0339-.1959.0143-.0672.0541-.1262.1109-.1649l6.5467-4.3237-7.1259 4.1141c-.0601.0361-.132.0469-.20016.0303-.06811-.0166-.12695-.0594-.16376-.119-.03682-.0597-.04865-.1315-.03293-.1998.01571-.0683.0577-.1277.11689-.1653l6.93976-4.567-7.41336 4.2784c-.06023.0343-.13144.0438-.19854.0265-.06711-.0173-.12483-.0601-.16096-.1192-.03612-.0592-.0478-.13-.03256-.1976.01523-.0676.05619-.1267.11419-.1646l5.49333-3.5248-5.75466 3.3227c-.06027.0337-.13126.0427-.19803.0251s-.12411-.0604-.15997-.1194-.04743-.1296-.03229-.197c.01514-.0673.05583-.1262.11349-.1642l5.35146-3.4245-5.53813 3.2c-.06054.0365-.13313.0476-.20179.0306-.06866-.0169-.12778-.0605-.16434-.121-.03657-.0606-.04759-.1332-.03063-.2018.01695-.0687.06049-.1278.12103-.1644l3.78136-2.3856-3.85443 2.2256c-.06004.0349-.13128.0449-.1986.028-.06731-.0169-.1254-.0593-.16192-.1183s-.04859-.13-.03366-.1977c.01494-.0678.05571-.1271.11365-.1653l7.42296-4.8859-7.56963 4.3686c-.06054.0365-.13313.0476-.20179.0306s-.12778-.0605-.16434-.121c-.03657-.0606-.04759-.1332-.03063-.2018.01695-.0687.06049-.1278.12103-.1644l3.38616-2.1333-3.32963 1.92c-.06042.0339-.13164.0429-.19859.0252-.06696-.0178-.12439-.0608-.16014-.1202-.03576-.0593-.04703-.1302-.03144-.1977.01559-.0674.05682-.1262.11497-.1638l2.496-1.567-2.37813 1.3728c-.06017.0331-.13078.0417-.19713.0241-.06635-.0177-.12333-.0603-.15907-.1189-.03575-.0586-.04749-.1288-.0328-.1959.01469-.067.05469-.1259.11166-.1642l4.5152-2.8928-4.37066 2.5227c-.06017.0331-.13078.0417-.19713.024s-.12333-.0603-.15907-.1189c-.03575-.0586-.04749-.1288-.0328-.1958.01469-.0671.05469-.1259.11166-.1643l3.6869-2.3557-3.46076 1.9989c-.06047.0367-.13305.0479-.20176.0311s-.12794-.0602-.16464-.1207c-.03671-.0604-.04789-.133-.03109-.2017.01681-.0687.06022-.128.12069-.1647l2.49173-1.5834-2.20107 1.2709c-.06003.0348-.13128.0449-.19859.028-.06732-.0169-.12541-.0593-.16192-.1184-.03652-.059-.0486-.1299-.03366-.1977.01493-.0677.0557-.127.11364-.1652l4.85333-3.2198-4.4336 2.56c-.05979.0341-.13045.0438-.19719.0269-.06674-.0168-.12439-.0587-.1609-.1171-.03651-.0583-.04905-.1285-.03499-.1959s.05362-.1267.11042-.1656l4.40636-2.9792-3.79676 2.1915c-.05993.0326-.13008.041-.19602.0234-.06593-.0175-.12264-.0596-.15844-.1177-.03581-.0581-.04799-.1277-.03404-.1945s.05297-.1257.10903-.1646l1.6368-1.0778-.9536.5488c-.0598.0326-.12982.0411-.1957.0238-.06588-.0174-.12262-.0593-.15858-.1171-.03596-.0579-.04841-.1273-.0348-.1941.01362-.0667.05227-.1257.10801-.1649l.87894-.5867-.01867.0107c-.05816.0325-.12637.042-.1912.0267s-.12158-.0543-.1591-.1094c-.03751-.055-.05308-.1221-.04362-.188s.04325-.126.09472-.1682l1.94933-1.55576c-.0561-.00572-.1089-.02904-.1508-.06663-.042-.03759-.07099-.08751-.08284-.14259-.01185-.05509-.00594-.11251.01687-.16403.02277-.05152.06137-.09449.11007-.12275l2.6523-1.52747c.0582-.03303.1267-.04299.1919-.02789.0651.0151.1223.05415.16.10941.0377.05525.0533.12267.0436.18888-.0096.06621-.0438.12637-.0958.16854l-1.681 1.34186 4.0213-2.32213c.0599-.03409.1308-.04364.1976-.02665.0668.017.1245.05922.1608.11781.0364.05858.0486.12898.0342.1964-.0144.06743-.0544.12666-.1115.16524l-.8806.58667 1.776-1.0256c.0601-.03416.1311-.04366.1981-.02649.0669.01716.1246.05964.1608.11849s.0482.12947.0334.19697c-.0148.06751-.0553.12662-.1128.16489l-1.6379 1.07787 2.408-1.38987c.0598-.03407.1305-.04371.1972-.0269.0668.01682.1244.05879.1609.11713.0365.05835.0491.12855.035.19593-.014.06737-.0536.1267-.1104.16558l-4.4075 2.97969 5.3648-3.09703c.0601-.03481.1313-.04484.1986-.02797.0673.01688.1254.05933.162.11834.0365.05902.0485.12994.0336.19772-.0149.06777-.0557.12705-.1136.16525l-4.8534 3.21969 5.6054-3.23676c.0604-.03671.133-.04789.2017-.03108.0687.0168.128.06021.1647.12068s.0479.13304.0311.20176c-.0168.06871-.0603.12793-.1207.16464l-2.4987 1.58773 2.8944-1.6704c.0601-.03218.1303-.04011.196-.02216.0658.01794.1222.0604.1577.11865.0354.05825.0472.12786.0329.19453s-.0536.12532-.1098.16392l-3.6837 2.35359 4.081-2.35573c.0603-.03368.1313-.04268.1981-.0251.0667.01758.1241.06038.1599.11938.0359.05901.0475.12962.0323.19698-.0151.06737-.0558.12623-.1135.16421l-4.5098 2.88956 4.8842-2.81969c.0605-.03386.1317-.04288.1986-.02515.067.01772.1244.0608.1602.12012.0357.05931.047.13021.0314.19769s-.0568.12625-.115.16387l-2.5066 1.57226 2.712-1.56479c.0602-.0322.1305-.04005.1964-.02193s.1223.06083.1576.11933c.0353.05849.0468.12829.0321.19502-.0146.06672-.0544.12528-.1109.16358l-3.3824 2.13329 3.5733-2.06396c.0602-.0372.1327-.04897.2016-.03272.0341.00805.0662.02274.0947.04318.0284.0205.0525.0464.0709.0762s.0308.0629.0364.0975.0044.07-.0037.1041c-.008.0341-.0227.0662-.0432.0947-.0205.0284-.0464.0525-.0762.0709l-7.4176 4.8837 7.7686-4.4853c.0603-.0332.1311-.0417.1976-.0239.0664.0178.1234.0607.1591.1196.0356.0589.047.1293.0319.1964-.015.0672-.0555.1259-.1129.1639l-3.776 2.3819 3.8613-2.2294c.0604-.0353.1322-.0456.2-.0285.0679.0171.1263.0602.1626.1199.0364.0598.0479.1314.0319.1995-.0159.0681-.058.1272-.1171.1646l-5.36 3.4293 5.4458-3.1434c.0602-.0331.1308-.0417.1972-.0241.0663.0177.1233.0603.159.1189.0358.0587.0475.1288.0328.1959s-.0547.1259-.1116.1642l-5.4891 3.5237 5.5061-3.1802c.0602-.036.1321-.0469.2002-.0303s.127.0594.1638.119c.0368.0597.0486.1315.0329.1998s-.0577.1277-.1169.1653l-6.9376 4.5659 6.9243-3.9968c.0601-.0348.1314-.0448.1987-.0278.0673.0169.1254.0594.1618.1185.0365.059.0485.1298.0335.1975-.0149.0677-.0556.127-.1135.1651l-6.5504 4.3238 6.4128-3.7019c.0602-.0336.1309-.0426.1976-.0252.0666.0174.1239.06.1599.1187s.0478.1291.0331.1964c-.0147.0672-.0549.1262-.1122.1645l-4.6869 3.04 4.4267-2.5568c.0602-.035.1316-.0451.1992-.0281.0675.017.1257.0598.1621.1191.0364.0594.0482.1306.0328.1985s-.0567.1271-.1152.1649l-4.2747 2.7909 3.9163-2.2602c.0597-.0341.1302-.0439.1969-.0273.0666.0167.1243.0584.161.1165.0366.0581.0495.1282.0357.1955-.0137.0673-.0529.1268-.1093.1659l-5.3616 3.6768 4.7824-2.7594c.06-.0342.131-.0437.198-.0265.0669.0171.1246.0596.1608.1185.0363.0588.0482.1294.0334.1969-.0148.0676-.0552.1267-.1128.1649l-1.721 1.1259 1.0965-.6325c.0599-.0341.1308-.0437.1976-.0267s.1244.0592.1608.1178.0486.129.0342.1964c-.0144.0675-.0544.1267-.1115.1653l-1.232.8176.432-.2491c.0587-.0342.1283-.0446.1944-.0292.0662.0153.124.0554.1617.112.0376.0565.0522.1253.0409.1923-.0114.067-.0479.1271-.1021.1681l-2.1067 1.6.4171-.2405c.0609-.0319.1319-.039.1979-.0198.0661.0191.1222.0631.1566.1226.0344.0596.0445.1301.0281.1969-.0163.0668-.0579.1247-.1159.1616l-4.0736 2.352c-.0582.0298-.1252.0372-.1885.0209-.0633-.0164-.1183-.0554-.1547-.1097s-.0516-.12-.0427-.1848c.0089-.0647.0413-.1239.0909-.1664l2.1083-1.6-4.0709 2.3467c-.0406.0232-.0866.0353-.1334.0352z" fill="#89d3ce"/><path d="m13.8795 19.9833c-.0542-.0001-.1071-.0166-.1516-.0475-.0446-.0309-.0786-.0747-.0977-.1254s-.0222-.1061-.009-.1587c.0132-.0525.0421-.0999.0829-.1356l1.3189-1.1541-1.9301 1.1146c-.0593.0335-.129.0431-.1951.0268s-.1234-.0572-.1603-.1144c-.0368-.0572-.0504-.1263-.038-.1932s.0499-.1265.1048-.1666l1.9083-1.3654-2.176 1.2566c-.0538.0311-.1168.0425-.1781.0321s-.1171-.0418-.1577-.089c-.0405-.0471-.0633-.1069-.0644-.1691-.0012-.0622.0195-.1228.0583-.1714l.4454-.5584-.6304.3638c-.051.0292-.1101.0408-.1683.0329-.0581-.0078-.1121-.0346-.1535-.0763-.0414-.0416-.0679-.0957-.0754-.1539s.0045-.1173.034-.1681l.3973-.6768-.0096.0054c-.0609.0319-.1319.039-.1979.0198-.0661-.0192-.1222-.0631-.1566-.1227-.0344-.0595-.0445-.13-.0281-.1969.0163-.0668.0579-.1247.1159-.1616l.8854-.5109c.0509-.0289.1099-.0403.168-.0324.058.0079.1118.0348.1531.0763.0412.0416.0677.0956.0752.1537s-.0043.117-.0337.1677l-.3973.6768.9755-.5616c.0537-.0308.1166-.042.1777-.0316s.1166.0419.1571.0888c.0405.047.0633.1066.0646.1686s-.0191.1224-.0576.171l-.4426.5574 5.7018-3.2918c.0593-.0334.129-.043.1951-.0267s.1234.0572.1602.1144c.0369.0572.0505.1263.0381.1932s-.0499.1265-.1048.1666l-2.2283 1.5915c.0538.001.106.0183.1498.0495.0438.0313.0772.0751.0956.1256.0185.0505.0212.1055.0079.1576-.0134.0521-.0422.099-.0826.1345l-2.32 2.0298.0042.0075c.0352.0612.0447.1339.0264.2021-.0183.0681-.0629.1263-.124.1616l-.9994.5771c-.0404.024-.0864.0367-.1334.0368z" fill="#fff"/><path d="m14.2401 17.0727c-.0565-.0001-.1115-.0181-.1571-.0514-.0457-.0333-.0795-.0803-.0967-.1341s-.0169-.1117.0009-.1653.0522-.1002.0982-.133l1.9147-1.3616c-.046-.0135-.0875-.0391-.1201-.0742s-.0552-.0783-.0654-.1251c-.0101-.0468-.0075-.0955.0077-.141.0152-.0454.0423-.0859.0786-.1173l2.0533-1.7738c-.0352-.0612-.0447-.1339-.0264-.2021s.0629-.1263.124-.1617l1.0021-.5781c.0574-.0324.1247-.0424.1891-.0281.0643.0143.121.0519.1592.1056.0383.0536.0553.1196.0478.185-.0075.0655-.039.1259-.0883.1695l-.9814.848 1.5131-.8747c.0593-.0338.1293-.0436.1957-.0273.0663.0162.1238.0573.1607.1148.037.0574.0505.1268.0377.1939-.0127.0671-.0507.1267-.1061.1666l-1.2021.8534 1.137-.6566c.061-.0319.1319-.039.1979-.0198.0661.0192.1222.0631.1566.1227.0344.0595.0445.1301.0282.1969-.0164.0668-.058.1247-.116.1616l-6.0085 3.4666c-.0403.0255-.0868.0395-.1344.0406z" fill="#fff"/><g fill="#262626"><path d="m31.4563 16.6637c.4406-.7024.0998-1.1003-.393-1.6475-.6806-.8128-1.0758-.7338-.9152-1.7685.0789-.5072.6864-.9339.7578-1.44.304-1.3936-1.2362-1.3941-2.008-1.97918-.6688-.77494.0176-1.32694-.0688-2.26134-.0597-.64586-.0389-.83253-.64-1.17333-1.4778-.83467-2.0954.34933-2.5162-1.74027-.5654-2.80693-2.1728-.27466-3.6859-1.83946-.4651-.48-.4379-1.64587-1.2347-1.837871-1.2496-.3008-1.768 1.392531-3.1226.622931-.6038-.34346-.9168-1.370131-1.7243-1.370664-1.4619 0-1.1792 2.069334-3.0768 1.404264-.8907-.312-1.2763-1.013331-2.1019-.32-1.22662 1.03307-.3296 2.0912-2.39995 1.94347-.8928-.064-1.35307-.44053-1.86347.42667-.84267 1.43253.26667 2.09973-1.66773 2.55306-.848.1984-1.43094.02827-1.64854.9904.13173 1.80694.82987 2.2144-1.18826 3.12962-2.099738 1.2965.80693 2.4576-.48 4.0698-.3616.455-1.205338.863-1.191472 1.5622.021867 1.0794 1.686402 1.3658 1.746672 2.4213.04266.7718-1.218672 1.4747-.99254 2.359.22293.8704 1.3408.8053 1.8864 1.3205 1.49333 1.4101-.99306 3.0869 1.7408 3.6491 2.06134.4266 1.01334.9104 1.78454 2.4448.33226.6597.43626.6314 1.11306.7061.83307.0923 1.49334-.5867 2.2768-.0491.68429.743.52849 2.4566 2.08639 2.0406.6805-.1099 1.1429-.9067 1.8789-.7952.736.1114.9318 1.001 1.5467 1.3232.8064.424.8501.3546 1.5675-.2187 1.6773-1.7307 1.7152-.9067 3.4704-.1984 1.3056.0752.9429-1.2501 1.7125-1.9605.9829-.9067 2.2571.4688 3.1851-.2886.928-.7573-.0187-2.2512 1.2224-2.8746.9674-.4864 2.0485.2101 2.3429-1.0912.1152-.5083-.3163-1.103-.2613-1.6182.1317-1.2389.6933-.9136 1.624-1.6.6442-.4746.7466-.5061.6554-1.3488-.0624-.5706-.9461-1.1637-.9066-1.7248.0458-.7152 1.0053-1.3483 1.489-1.8208zm-1.2266 3.3654c.1744 1.3866-1.0443.8746-1.8299 1.7264-.6667.7216-.1477 1.1946-.1685 2.1274-.0448 1.991-1.5115.5787-2.56 1.5766-.5643.5376-.2187 1.417-.5275 2.0613-.6933 1.4517-1.6592.0213-2.7984.4549-.8715.3323-.664 1.4512-1.3184 1.9819-1.1552.9349-1.7371-.7835-2.8933-.6304-1.0427.1376-1.28 1.8869-2.4774 1.6496-.6997-.1387-1.001-1.5147-1.8133-1.6427-1.0075-.16-1.808 1.4731-2.8123.8139-.6122-.4016-.4624-1.7408-1.20262-2.1072-.824-.4085-1.94987.6005-2.67947.1067-.7296-.4939-.08266-1.895-.71413-2.5302-.57227-.5754-1.43467-.1786-2.07467-.5402-1.6576-.8971 1.1136-2.6336-1.58933-3.6971-1.910935-1.0304-.53334-1.0629-.26667-2.6501.4176-2.2278-3.336532-1.784-.39733-4.0641.41867-.5834.50187-.5941.3952-1.3104-.21333-1.4341-1.573335-1.6218.1024-2.6133.7072-.4176 1.2128-.4325 1.38667-1.25492.33279-1.55306-.96-1.98453.99306-2.64053.8608-.2896 1.20427-.01867 1.65067-.82187.82347-1.48106-.3328-2.3776 2.0016-2.0992.85333.10187.99627.21334 1.59732-.3776.3819-.37333.3845-1.40053.8277-1.67786 1.303-.65547 2.24 1.62933 3.6139.2192.5376-.40374.8533-1.258671 1.6709-1.064 1.0176.58133 1.1734 2.19733 2.7878 1.30133.809-.3376 1.1498-.9216 1.9248-.2976.4298.34613.3968 1.21707.8 1.60587.72.69706 1.1632.21706 2.1333.19786 1.8053-.03626.7211 1.08534 1.4261 2.24907.5782.95413 1.3382.34293 2.2278.84587 1.3626.77013-.1659 1.72213.4341 2.8752.4032.77488 1.8843.68958 2.1867 1.33328.4416.9376-1.0022 1.7067-.8694 2.6934.1168.8677 1.9542 1.5114 1.6944 2.3418-2.1397 1.7819-1.9978 1.5291-.8645 3.8577z"/><path d="m13.7987 16.6683c-1.1973-1.1734-3.2314.5893-1.9968 1.8624 1.2838 1.6042 2.431 2.0362 3.8294.2544l4.5824-4.5803c.1216-.1251.2164-.2736.2787-.4365.0622-.163.0906-.3369.0835-.5112-.0072-.1743-.0499-.3453-.1253-.5025-.0755-.1573-.1822-.2975-.3137-.4122-1.7318-1.5109-4.7659 3.4133-6.2448 4.4171zm4.9067-3.9718c.0774-.0674.1682-.1176.2664-.1473.0983-.0296.2018-.038.3035-.0246.1018.0134.1995.0483.2867.1024.0872.0542.1619.1262.2191.2114.8662 1.1669-2.9125 3.5926-3.6224 4.6715-1.2992 1.5792-2.2682 2.7642-3.8661.6666-.8192-1.0634.6229-1.9733 1.3333-.8421.1355.1355.3867.0534.5014-.0586z"/><path d="m6.68945 15.9644c.448 12.337 18.04425 12.4688 18.62085.072-.5563-12.35897-18.11045-12.45337-18.62085-.072zm18.13335 0c-.5115 11.5376-17.16268 11.6042-17.64588.072.4496-11.51257 17.05598-11.63524 17.64588-.072z"/><path d="m18.8195 4.8441c-.2939-.0816-.6299.4608-.3061.55094 5.0917 1.4192 8.7397 6.00376 8.3861 11.40536-1.256 13.449-20.64587 13.2314-21.77974-.1659-.40906-6.3195 4.59574-11.34506 10.79144-11.5456.2982-.0096.5408-.58666.1771-.57706-5.7435.18613-10.72 4.26666-11.4704 10.08906-.35785 2.9339.42684 5.893 2.19145 8.2641 1.7646 2.3711 4.37385 3.9723 7.28695 4.4719 14.3803 1.8715 18.7211-18.41813 4.7232-22.4928z"/></g></g></svg>