<svg fill="none" height="32" viewBox="0 0 32 32" width="32" xmlns="http://www.w3.org/2000/svg"><g fill="#b52746"><path d="m4.9417 13.3868c-.04952 0-.09807-.0138-.14019-.0398-.04213-.0261-.07617-.0633-.09832-.1076s-.03152-.0939-.02708-.1432c.00445-.0494.02254-.0965.05226-.1361l.0944-.1232-.25387.1467c-.05079.0292-.10977.0408-.16784.0331s-.11199-.0342-.15344-.0756-.06812-.0953-.07589-.1534c-.00777-.058.0038-.117.0329-.1678l.54667-.9542-1.49813.864c-.05361.031-.11634.0424-.17741.0322-.06108-.0102-.11669-.0414-.15731-.0881-.04062-.0468-.06371-.1062-.06531-.1681-.00159-.0619.0184-.1224.05656-.1712l.5648-.7157-1.37387.7946c-.05682.0346-.1245.0467-.18977.0339s-.12341-.0495-.16301-.1029-.05781-.1197-.05106-.1859c.00676-.0661.03799-.1274.08758-.1717l.14666-.1392-.13813.0795c-.05296.0303-.11474.0416-.17502.0319-.06027-.0097-.1154-.0398-.15617-.0852-.04076-.0455-.0647-.1035-.06781-.1645s.0148-.1212.05073-.1705l.30347-.4139c-.05688-.004-.11097-.0262-.15433-.0632s-.07371-.087-.0866-.1425c-.01289-.0556-.00763-.1138.015-.1661.02263-.0524.06144-.0961.11073-.1247l.88213-.50828c.05296-.03038.11474-.04166.17502-.03197s.11541.03978.15617.08522c.04077.04543.06471.10353.06782.16453.0031.0609-.0148.1211-.05074.1705l-.2368.3227 1.0032-.5787c.05683-.0346.12451-.0466.18978-.0339.06527.0128.1234.0495.16301.1029.0396.0535.05781.1198.05105.1859-.00675.0662-.03799.1274-.08757.1718l-.14614.1375.60534-.3487c.0536-.0307.1162-.0419.17709-.0315.0609.0103.11632.0415.1568.0881.04048.0467.06351.1059.06516.1677.00165.0617-.01819.1221-.05612.1708l-.56267.7142 1.15734-.6678c.0504-.0295.10919-.0414.16711-.0339.05793.0076.11171.0341.15289.0756.0412.0412.06774.0949.07554.1527s-.00356.1165-.03234.1672l-.54507.9558.55947-.3232c.05346-.0308.11594-.0421.17681-.032.06086.0101.11634.041.15697.0874.04064.0464.06392.1055.06588.1672.00196.0616-.01752.1221-.05513.171l-.17813.2314c.05573.0065.10801.0304.14939.0682.04139.0379.06977.0879.08111.1428.01135.055.00507.1121-.01793.1633-.023.0511-.06155.0938-.11017.1217l-.91414.528c-.04062.0231-.08664.0348-.13333.0342z"/><path d="m28.4532 12.6585c-.0585-.0002-.1153-.0197-.1617-.0554s-.0797-.0856-.0949-.1422c-.0152-.0565-.0113-.1165.011-.1706s.0617-.0994.1123-.1289l1.9253-1.112c.0304-.0193.0643-.0322.0998-.0381.0355-.0058.0718-.0044.1067.0042.035.0085.0678.0241.0966.0456.0288.0216.0529.0488.0709.0799.018.0312.0295.0656.0338.1013.0044.0357.0014.0719-.0086.1065-.01.0345-.0269.0667-.0497.0945-.0228.0279-.0509.0508-.0828.0675l-1.9248 1.112c-.0406.0236-.0869.0359-.1339.0357z"/><path d="m26.2294 13.6401c-.0559 0-.1105-.0176-.1559-.0503s-.0793-.0789-.097-.132-.0183-.1104-.0016-.1638c.0167-.0535.0498-.1003.0945-.1339l.1286-.0949c-.0591.0116-.1204.0029-.1739-.0247s-.096-.0725-.1208-.1274c-.0247-.0549-.0301-.1166-.0154-.1749.0148-.0584.0489-.1101.0967-.1466l.2267-.1733c-.0548.0135-.1125.0092-.1647-.0121-.0522-.0214-.0964-.0588-.126-.1068s-.0433-.1042-.039-.1605c.0044-.0562.0264-.1097.063-.1526l.4544-.5296-.1221.0704c-.0303.0193-.0643.0322-.0998.0381-.0355.0058-.0718.0044-.1067-.0042-.0349-.0085-.0678-.0241-.0965-.0456-.0288-.0216-.0529-.0488-.0709-.0799-.018-.0312-.0295-.0656-.0339-.1013-.0043-.0357-.0014-.0719.0086-.1065.0101-.0345.027-.0667.0497-.0945.0228-.0279.051-.0508.0828-.0675l1.4774-.8533c.0545-.0314.1184-.0426.1804-.0314.0619.0111.1179.0438.1581.0923.0402.0484.0619.1095.0613.1725-.0005.0629-.0233.1237-.0644.1714l-.4544.5291 2.071-1.19843c.0586-.03389.128-.04418.194-.02879.0659.01539.1236.05531.1612.11162.0376.0564.0523.1249.0412.1917-.0111.0669-.0472.127-.101.1681l-.1701.1307.4229-.2443c.0589-.0327.128-.042.1935-.0259.0654.0161.1223.0563.1593.1127.0369.0563.0512.1246.0399.191s-.0474.1261-.1009.167l-.0336.0246c.0603-.0285.129-.0333.1927-.0135.0637.0197.1177.0626.1513.1201.0354.0612.0451.134.0268.2023-.0182.0683-.0627.1265-.1239.162l-4.1301 2.3872c-.0405.0236-.0865.036-.1334.0357z"/></g><path d="m10.74 23.1847c-.058.0001-.1145-.0187-.1608-.0537-.0463-.0349-.08-.0839-.096-.1397-.0159-.0558-.0132-.1153.0078-.1694.0209-.0541.0589-.0999.1082-.1305l1.8085-1.1232-2.73757 1.5792c-.06012.0336-.13091.0426-.19754.0252s-.12394-.0599-.15992-.1187c-.03597-.0587-.04784-.1291-.0331-.1963.01473-.0673.05493-.1263.11216-.1646l8.27517-5.3525-9.85437 5.689c-.06068.0364-.13332.0472-.20193.03-.06862-.0172-.12759-.061-.16394-.1217s-.04711-.1333-.0299-.2019c.0172-.0686.06095-.1276.12164-.164l5.4496-3.3941-6.02027 3.4757c-.06054.0366-.13313.0476-.20179.0307-.06866-.017-.12778-.0605-.16434-.1211-.03657-.0605-.04759-.1331-.03063-.2017.01695-.0687.06049-.1278.12103-.1644l8.4901-5.3717-8.95997 5.1733c-.06025.0322-.13057.0401-.19644.0219-.06586-.0181-.12227-.0608-.15757-.1193s-.0468-.1283-.03214-.195c.01467-.0667.05438-.1253.11095-.1636l8.09227-5.1088-8.29654 4.7888c-.06027.0337-.13125.0427-.19802.0251s-.12411-.0604-.15997-.1194-.04744-.1296-.03229-.1969c.01514-.0674.05582-.1263.11348-.1643l8.36164-5.3242-8.32964 4.809c-.06019.035-.13167.0451-.19919.0281s-.1257-.0597-.16213-.1191c-.03642-.0593-.04819-.1305-.0328-.1984.0154-.0679.05674-.1271.11519-.165l8.33867-5.417-8.07467 4.6602c-.0603.0318-.13048.0394-.19613.021-.06566-.0183-.1218-.0611-.15689-.1195-.03509-.0585-.04647-.1281-.0318-.1947s.05428-.125.11069-.1633l2.52106-1.5701-2.24693 1.2938c-.05998.0336-.1306.0427-.19712.0254-.06653-.0172-.12382-.0595-.15994-.118-.03611-.0584-.04826-.1286-.0339-.1958s.05411-.1263.11096-.1649l6.10397-4.0197-5.8229 3.36c-.05989.0318-.12965.0396-.19509.0218-.06544-.0177-.12165-.0598-.15719-.1175-.03554-.0578-.04773-.1269-.03411-.1934.01363-.0664.05205-.1251.10745-.1643l4.0432-2.6448-3.76533 2.1744c-.05944.0338-.12956.0434-.19588.0269-.06633-.0165-.1238-.0578-.16054-.1154-.03675-.0576-.04997-.1271-.03694-.1942s.05131-.1266.10696-.1663l4.93707-3.4566-4.65067 2.6854c-.05994.0341-.13075.0436-.19758.0266-.06682-.017-.12447-.0592-.16083-.1178-.03637-.0586-.04863-.129-.03421-.1964s.0544-.1266.11155-.1652l1.69814-1.1312-1.41707.8176c-.05923.0335-.12901.043-.19507.0267-.06605-.0163-.12338-.0572-.16025-.1144-.03687-.0571-.05049-.1262-.03807-.1931.01241-.0669.04993-.1265.10486-.1667l2.53013-1.8133-2.24 1.2944c-.05849.0327-.12717.0423-.19236.0267s-.12212-.0552-.15944-.1109-.05231-.1234-.04197-.1896c.01034-.0663.04525-.1262.09777-.1678l2.04693-1.5824-1.75253 1.0106c-.05726.0331-.12477.0437-.18942.0298-.06465-.0138-.12183-.0513-.16045-.105-.03867-.0538-.05589-.1201-.0483-.186.0076-.0659.03946-.1266.08937-.1702l1.36587-1.1926-1.05707.6102c-.05218.0299-.11294.0412-.1724.0322-.05946-.0089-.11413-.0378-.15515-.0818-.04101-.0439-.06596-.1005-.07078-.1604-.00483-.06.01075-.1198.0442-.1698l1.04853-1.55515c-.03001-.06087-.03568-.13089-.01587-.1958.01982-.0649.06364-.11981.12254-.15354l.26666-.15413c.05219-.02989.11294-.04126.1724-.03226.05946.00899.11414.03781.15515.08179s.06596.10053.07079.16047c.00482.05995-.01075.11976-.0442.16973l-.68747 1.01969 2.4272-1.40102c.05733-.03279.12478-.04315.18931-.02906.06452.01409.12152.05162.15996.10533.03843.0537.05557.11976.0481.18538-.00748.06562-.03904.12613-.08857.16982l-1.3648 1.19255 2.81177-1.62562c.0585-.03339.1275-.0434.193-.02802.0656.01539.123.05503.1605.11096.0376.05593.0526.12401.042.19054s-.046.1266-.099.16812l-2.04747 1.58242 3.50827-2.02669c.0592-.03347.129-.04304.1951-.02675.066.0163.1233.05722.1602.1144s.0505.12628.0381.19317-.0499.12651-.1049.16665l-2.5317 1.81332 3.9195-2.26239c.06-.03563.1315-.04633.1993-.0298s.1264.05899.1633.11824c.0369.05926.049.13061.0339.19873-.0152.06811-.0564.12758-.1149.16563l-1.696 1.12959 2.744-1.58399c.0594-.03372.1295-.04333.1958-.02686.0664.01648.1238.05779.1606.11541.0367.05762.05.12715.0369.19424-.013.06708-.0513.12661-.1069.16628l-4.9387 3.45702 6.7691-3.90609c.06-.03415.131-.04365.198-.02649.0669.01717.1246.05965.1608.1185.0363.05885.0482.12946.0334.19697-.0148.0675-.0552.12662-.1128.16489l-4.0458 2.65012 5.3738-3.10239c.0602-.03602.1321-.0469.2002-.03029s.127.05939.1638.11906.0486.13145.0329.19978-.0577.12772-.1169.16532l-6.1008 4.01382 7.7462-4.47249c.0605-.03491.1323-.04465.2-.02714.0677.01752.1257.0609.1617.1208.036.05991.0471.13155.0308.19952-.0163.06796-.0586.12682-.1179.16389l-2.5168 1.57282 3.52-2.03095c.0602-.0336.1309-.04262.1976-.0252.0666.01743.1239.05995.1599.11868.036.05872.0478.12909.0331.19637-.0147.06727-.0549.12624-.1122.16455l-8.3424 5.41815 10.1744-5.87415c.0605-.03671.1331-.04789.2018-.03109.0687.01681.1279.06022.1646.12069s.0479.13304.0311.20175c-.0168.06872-.0602.12794-.1207.16465l-8.3626 5.32475 9.3456-5.39569c.0603-.03316.1311-.04172.1976-.02389.0664.01783.1234.06068.1591.11958.0356.0589.047.12928.0319.19644-.015.06715-.0555.12587-.1129.16387l-8.0976 5.11199 8.6544-4.99679c.0605-.03656.1331-.04758.2018-.03062.0687.01695.1278.06048.1643.12102.0366.06054.0476.13309.0307.20179-.017.0687-.0605.1278-.1211.1643l-8.4805 5.3664 8.4267-4.8661c.0606-.0363.1333-.0471.2019-.0299s.1276.061.1639.1216c.0364.0607.0471.1334.0299.202s-.0609.1276-.1216.1639l-5.4437 3.3915 5.1733-2.9867c.0602-.0343.1314-.0438.1985-.0264.0671.0173.1249.06.161.1192.0361.0591.0478.13.0326.1976-.0153.0676-.0562.1266-.1142.1645l-8.2806 5.3579 8-4.6192c.0604-.0322.1309-.04.1969-.0217.066.0182.1224.0612.1576.12.0351.0587.0464.1287.0313.1955-.015.0668-.0552.1253-.1122.1633l-1.8133 1.1253 1.5376-.888c.0603-.0332.1311-.0417.1976-.0239.0665.0179.1235.0607.1591.1196s.0471.1293.032.1964c-.0151.0672-.0556.1259-.113.1639l-3.6965 2.3493 3.4261-1.9781c.0598-.0341.1305-.0437.1972-.0269.0668.0168.1244.0588.1609.1171.0365.0584.0491.1286.035.196-.014.0673-.0536.1267-.1104.1655l-6.1221 4.135 5.8373-3.3696c.0598-.0336.1303-.0428.1967-.0257.0665.0171.1238.0591.1601.1173.0362.0583.0486.1283.0346.1954-.014.0672-.0533.1263-.1098.1652l-3.9845 2.6667 3.7029-2.1376c.0593-.0338.1293-.0436.1957-.0273.0663.0162.1238.0573.1607.1147.037.0575.0504.1269.0377.194s-.0507.1267-.1061.1666l-4.0939 2.9157 3.8059-2.1968c.0593-.0338.1293-.0436.1957-.0273.0663.0163.1238.0573.1607.1148.037.0574.0504.1268.0377.1939s-.0507.1267-.1061.1666l-2.4907 1.7776 2.2027-1.2714c.0586-.0332.1276-.043.1932-.0273.0655.0156.1227.0554.16.1115.0374.0561.0521.1242.0413.1907s-.0464.1264-.0996.1677l-2.0122 1.5424 1.713-.9888c.059-.0342.1288-.0447.1952-.0291.0663.0156.1242.0561.1617.113.0375.057.0517.1261.0398.1932-.0119.0672-.0491.1272-.1039.1677l-.4085.3035c.0567-.0293.122-.0374.184-.0227.0621.0147.1169.0512.1544.1028s.0552.115.05.1786c-.0053.0636-.0331.1232-.0785.168l-.8843.8405c.0537.0097.1032.0357.1417.0745.0385.0387.0642.0884.0735.1422.0094.0538.002.1092-.0211.1587-.0232.0495-.0609.0906-.1082.1179l-1.5659.9067c-.0565.0327-.123.0435-.187.0304-.0639-.0131-.1208-.0492-.1599-.1015-.0392-.0522-.0577-.117-.0523-.1821.0055-.065.0346-.1258.0819-.1708l.689-.6549-2.0266 1.169c-.059.0343-.1288.0448-.1952.0292-.0663-.0156-.1242-.0561-.1617-.113-.0375-.057-.0517-.1261-.0398-.1932.0119-.0672.0491-.1272.1039-.1678l.4064-.304-1.296.7467c-.0587.0332-.1277.0429-.1932.0273s-.1227-.0555-.1601-.1115c-.0373-.0561-.0521-.1242-.0413-.1907.0109-.0665.0464-.1264.0996-.1678l2.0139-1.5408-3.4379 1.9835c-.0592.0335-.129.0431-.195.0268-.0661-.0163-.1234-.0573-.1603-.1144-.0369-.0572-.0505-.1263-.0381-.1932.0125-.0669.05-.1265.1049-.1667l2.4907-1.7781-3.8555 2.2256c-.0592.0327-.1286.0417-.1942.0252s-.1224-.0574-.159-.1143c-.0366-.0568-.0503-.1255-.0382-.192.0122-.0666.0491-.126.1034-.1664l4.0949-2.9168-5.8261 3.3643c-.0597.0323-.1295.0406-.1951.0232-.0656-.0173-.1221-.0591-.158-.1167s-.0485-.1267-.0352-.1933c.0132-.0665.0514-.1255.1067-.1649l3.984-2.6667-5.4032 3.1184c-.0597.0327-.1296.0414-.1954.0242-.0659-.0171-.1227-.0588-.1588-.1164-.0361-.0577-.0488-.127-.0355-.1937s.0516-.1259.107-.1653l6.1184-4.1355-7.9434 4.5867c-.0602.0318-.1302.0394-.1958.0212-.0656-.0181-.1217-.0607-.1569-.1189-.0353-.0582-.0469-.1276-.0326-.1941.0143-.0666.0535-.1251.1095-.1637l3.7035-2.3493-4.8603 2.8048c-.0404.024-.0863.0369-.1333.0373z" fill="#d1314b"/><path d="m7.58972 8.26701c-.05574-.00055-.1099-.01856-.15488-.05149s-.07851-.07913-.09587-.1321-.01769-.11005-.00093-.16322.04975-.09974.09435-.13319l1.63787-1.20053-2.51947 1.4512c-.05677.03164-.12313.04146-.18663.02762-.06349-.01384-.11975-.0504-.15819-.10279-.03845-.0524-.05644-.11703-.05059-.18176.00585-.06472.03513-.12508.08234-.16974l1.62667-1.48053-.28907.16693c-.06121.03481-.13371.04399-.20167.02554-.06795-.01845-.12586-.06303-.16107-.12402-.03521-.06098-.04487-.13342-.02687-.20149.018-.06808.0622-.12628.12295-.16189l2.42986-1.4032c.05677-.03164.12314-.04146.18663-.02762.0635.01384.11975.0504.15815.10279.0385.0524.0565.11703.0506.18175-.0058.06473-.0351.12509-.0823.16974l-1.62454 1.48107 4.61014-2.65973c.0589-.03304.1282-.04246.1939-.02637.0656.01609.1227.0565.1596.11305.037.05656.0512.12505.0396.19162-.0116.06658-.048.12627-.1019.16703l-1.6395 1.19893 3.088-1.78186c.0597-.03271.1296-.04137.1954-.02422.0659.01715.1227.05882.1588.11648s.0488.12694.0355.19367-.0516.12585-.107.16527l-.0293.01973.8576-.49333c.0592-.03436.1294-.0446.196-.02859s.1245.05704.1617.11458.0508.12718.038.19448-.051.1271-.1067.16699l-1.5434 1.10614 2.6314-1.51894c.0586-.0341.1279-.04465.1939-.0295s.1238.05486.1616.11107.0529.1247.042.19157-.0468.1271-.1004.16846l-2.3355 1.81334 3.6539-2.1104c.0587-.03342.1279-.04331.1936-.02768s.1231.05561.1604.11188c.0374.05627.052.12462.041.19125-.0111.06664-.047.12659-.1006.16775l-1.9733 1.49333 2.9818-1.72107c.0588-.03367.1282-.04372.1941-.02809s.1234.05575.1608.11223.0519.12508.0406.19187c-.0113.06678-.0477.12675-.1016.16773l-1.5968 1.20106 2.3771-1.37226c.0575-.03261.125-.0427.1895-.02831s.1214.05222.1596.10617c.0382.05394.055.12015.0472.18578-.0079.06564-.0398.12601-.0897.16942l-1.9733 1.68587 2.9019-1.67467c.0572-.03221.1243-.04215.1885-.02793.0641.01423.1207.05162.159.10501.0382.0534.0554.11904.0483.18434s-.0381.12566-.087.16952l-1.5286 1.3376 2.1974-1.26827c.0558-.03001.1204-.03916.1824-.02582.0619.01334.1171.0483.1556.09862s.0579.11271.0545.17599c-.0033.06328-.029.12331-.0725.16934l-1.1979 1.21227 1.7445-1.00693c.0569-.03515.1248-.04769.1904-.03513.0657.01256.1242.0493.164.10295.0398.05364.0581.12029.0511.18674-.0069.06645-.0386.12787-.0887.1721l-.473.44907.6549-.37813c.0512-.02949.1107-.04114.1693-.03312.0585.00802.1127.03526.1541.07744.0414.04217.0676.0969.0745.15558s-.0059.118-.0363.16863l-.3733.61707.4992-.288c.0435-.02526.0933-.03768.1436-.03582.0503.00185.099.01791.1406.0463s.0742.06797.0942.11415c.0201.04619.0266.09709.0189.14683l-.0533.35627c.0507.01392.0961.04252.1306.08221.0345.03968.0565.08869.0633.14084.0067.05216-.0022.10514-.0255.15228s-.06.08634-.1055.11267l-.2624.15147c-.0435.02505-.0932.03733-.1433.03541-.0502-.00191-.0988-.01794-.1402-.04624-.0415-.0283-.0741-.06772-.0941-.11374-.0201-.04601-.0267-.09674-.0192-.14637l.0395-.25653-.9163.52853c-.0512.02925-.1106.0407-.169.03258-.0584-.00813-.1125-.03539-.1538-.0775-.0412-.04212-.0674-.09672-.0743-.15527-.0069-.05856.0057-.11775.036-.16834l.3734-.6176-1.7104.9872c-.0565.03222-.1229.04269-.1865.02942-.0637-.01326-.1204-.04934-.1593-.10145-.0389-.0521-.0575-.11664-.0521-.18146.0053-.06482.0341-.12546.0811-.17051l.4725-.44853-1.5157.87146c-.0559.03223-.1216.0431-.1849.03061s-.1199-.0475-.1593-.09853c-.0395-.05104-.0591-.11465-.0552-.17905.0038-.06439.0309-.1252.0762-.17116l1.2-1.21173-2.8267 1.63146c-.0573.03332-.125.04408-.1899.03017-.0648-.0139-.1222-.05146-.1608-.10536s-.0558-.12026-.0482-.18613c.0077-.06587.0396-.12653.0896-.17014l1.5296-1.33547-3.0672 1.77067c-.0575.03211-.1249.04181-.1891.02725s-.1207-.05237-.1587-.10613c-.038-.05377-.0548-.11969-.0471-.18509.0077-.06539.0393-.12562.0887-.1691l1.9734-1.6864-3.6726 2.11893c-.0588.03368-.1281.04372-.1941.0281-.0659-.01563-.1234-.05576-.1608-.11224-.0374-.05647-.0519-.12507-.0406-.19186.0114-.06679.0477-.12675.1017-.16773l1.5957-1.19947-2.848 1.64427c-.0587.03342-.1279.04331-.1936.02768s-.1231-.05562-.1605-.11188c-.0373-.05627-.052-.12462-.0409-.19126.0111-.06663.047-.12658.1006-.16774l1.9733-1.49333-3.36 1.9408c-.0585.03339-.1275.0434-.1931.02801-.0655-.01538-.1229-.05502-.1604-.11096-.0376-.05593-.0526-.124-.042-.19053.0106-.06654.0459-.1266.099-.16812l2.3355-1.81334-3.9051 2.2544c-.0593.03436-.1295.0446-.1961.02859s-.12449-.05704-.16166-.11458-.05077-.12718-.03798-.19448c.01278-.0673.05098-.1271.10666-.16699l1.54348-1.1072-2.69548 1.55573c-.05979.03408-.13045.04372-.19719.0269s-.12439-.05879-.1609-.11713c-.03651-.05835-.04905-.12855-.03499-.19592.01406-.06738.05362-.12671.11042-.16558l.03306-.0224-.82346.4752c-.04133.02437-.08856.03691-.13654.03626z" fill="#d1314b"/><path d="m19.7334 9.85142c-.055.00005-.1087-.01693-.1537-.0486-.045-.03168-.0791-.0765-.0976-.12832s-.0206-.10809-.0058-.16111c.0147-.05302.0455-.10019.088-.13503l.0534-.04374-.8331.48c-.0528.03048-.1146.0419-.1748.03237-.0603-.00954-.1155-.03945-.1564-.08476-.0408-.04531-.0649-.10326-.0682-.16419s.0143-.12115.0501-.17062l.7899-1.0848-2.551 1.47147c-.0579.03283-.1259.04284-.1908.02806-.0648-.01477-.1218-.05326-.1598-.10791-.0379-.05465-.0541-.12151-.0453-.18745.0089-.06595.042-.12621.093-.16896l.064-.05334-.848.4896c-.0573.0327-.1246.04302-.1891.02897-.0644-.01405-.1213-.05148-.1598-.10504-.0384-.05357-.0557-.11949-.0484-.18502.0073-.06554.0387-.12605.0879-.16984l.3691-.3248-1.3093.75573c-.0572.03213-.1242.04205-.1883.02787-.064-.01418-.1206-.05147-.1589-.10473-.0382-.05327-.0555-.11877-.0486-.18399.007-.06522.0378-.12559.0864-.16955l.3776-.33333-1.3237.76373c-.0563.03342-.123.04492-.1873.03231-.0643-.0126-.1217-.04843-.1613-.10065-.0395-.05222-.0585-.11718-.0532-.18248s.0344-.12638.0818-.17158l.616-.59573-1.7627 1.01813c-.0531.03019-.115.0412-.1753.0312-.0603-.01001-.1153-.04043-.1559-.08616-.0405-.04574-.0641-.10402-.0669-.16508-.0027-.06107.0157-.12121.052-.17036l.7936-1.0576-2.50665 1.448c-.0533.03034-.11543.04138-.17592.03126-.06049-.01011-.11564-.04077-.15617-.08681-.04052-.04603-.06394-.10463-.0663-.16592-.00237-.06128.01647-.12151.05332-.17053l.79522-1.0448-2.49175 1.4368c-.05366.03095-.11642.04226-.17751.03197-.06108-.01028-.11669-.04151-.15725-.08833-.04057-.04681-.06358-.10629-.06507-.16822-.00149-.06192.01863-.12244.0569-.17115l.7968-1.01333-2.0688 1.19573c-.0567.03006-.12234.03866-.18487.02423s-.11776-.05092-.15555-.10278c-.03779-.05187-.05562-.11562-.0502-.17956.00541-.06394.0337-.12379.07968-.16856l.1984-.17813-.2368.13653c-.05233.03024-.11339.04181-.17316.0328-.05977-.009-.1147-.03805-.1558-.08237s-.06592-.10129-.0704-.16157c-.00447-.06028.01166-.12029.04576-.17019l.33547-.49014c-.06083.00694-.12219-.00727-.17379-.04024-.05159-.03296-.09026-.08267-.10953-.14079-.01927-.05811-.01795-.12108.00373-.17834s.0624-.10531.11532-.13609l.88374-.50987c.05228-.03003.11319-.04146.17281-.03242.05961.00904.1144.03802.15543.0822.04102.04418.06587.10096.07047.16108.00461.06012-.0113.12002-.04511.16994l-.30667.44853 1.44-.8304c.05672-.03043.12253-.03932.18529-.02503.06276.01428.11823.05079.15618.10278s.05582.11595.0503.18008c-.00551.06413-.03403.1241-.0803.16884l-.19787.17707 1.05067-.60587c.05366-.03095.11642-.04225.1775-.03197.06109.01029.11669.04152.15726.08833s.06357.10629.06506.16822-.01862.12244-.05689.17115l-.7968 1.01334 2.43835-1.40747c.0534-.03063.1156-.0419.1763-.0319.0606.01.116.04065.1566.08676.0407.04612.0642.10487.0665.16631.0023.06143-.0167.12178-.0538.17083l-.7957 1.04373 2.4891-1.43573c.0531-.03047.1152-.04171.1756-.03182.0605.00988.1157.04029.1564.08611.0407.04581.0644.10424.067.16545.0027.06122-.0158.12148-.0524.17066l-.793 1.05653 2.5066-1.44693c.0564-.03341.1231-.04492.1874-.03231s.1217.04843.1612.10066c.0396.05222.0585.11717.0533.18247-.0053.0653-.0344.12638-.0818.17158l-.6155.5952 1.7642-1.0176c.0572-.03212.1243-.04204.1883-.02786s.1206.05146.1589.10473c.0383.05326.0556.11876.0486.18398-.007.06523-.0377.12559-.0864.16955l-.3776.3328 1.3232-.7632c.0572-.03269.1246-.04301.189-.02896s.1214.05147.1598.10504c.0385.05357.0557.11948.0484.18502-.0073.06553-.0386.12604-.0879.16983l-.369.3248 1.3093-.75573c.0578-.03229.1256-.04189.1902-.02692.0645.01496.1212.05341.1589.10786.0378.05445.0539.121.0452.18668-.0086.06569-.0414.12581-.0919.16865l-.064.05333.8485-.4896c.0529-.03019.1145-.0414.1746-.03174.0601.00965.1151.03958.1558.08481.0408.04523.0648.10304.0682.16382.0033.06078-.0143.12088-.0498.17031l-.7893 1.0848 2.5509-1.472c.058-.03297.1261-.04305.1911-.02824.065.0148.1221.05341.1601.10821.0379.05481.054.12184.0449.18789-.009.06605-.0424.12632-.0937.16894l-.0533.0448.8346-.48c.0545-.03115.1181-.04212.1798-.03099.0618.01113.1176.04365.1577.09185s.0619.10899.0617.1717c-.0003.0627-.0226.12331-.0631.17117l-.7878.91681 2.2934-1.32321c.0579-.03356.1264-.04409.1917-.02949.0654.0146.1229.05325.161.10828.0382.05504.0542.12241.045.18874s-.0431.12676-.0948.16927l-.0507.04107.6203-.35787c.0536-.03095.1164-.04225.1775-.03197.0611.01029.1167.04152.1572.08833.0406.04682.0636.10629.0651.16822s-.0186.12245-.0569.17116l-.7024.89227.9067-.52374c.0543-.03122.1178-.04234.1794-.03143.0617.01092.1175.04318.1578.09113.0402.04795.0623.10853.0624.17114s-.0219.12325-.062.1713l-.2416.28799c.0546.02198.1001.06185.1291.11307.0352.06114.0448.13374.0266.20192s-.0627.12636-.1237.16181l-.8827.50987c-.0543.03122-.1178.04234-.1794.03143-.0617-.01091-.1175-.04317-.1578-.09112-.0402-.04795-.0623-.10854-.0624-.17115s.0219-.12325.062-.17129l.0469-.05334-.7951.45867c-.0537.03065-.1163.04171-.1772.0313-.0609-.0104-.1163-.04164-.1568-.08837-.0404-.04673-.0634-.10604-.0649-.16781s.0184-.12216.0565-.17085l.7018-.89227-2.2304 1.2848c-.0579.03297-.1261.04305-.1911.02825-.065-.01481-.1221-.05341-.16-.10822-.038-.05481-.054-.12184-.045-.18789.009-.06604.0425-.12632.0937-.16894l.0534-.0416-.8299.48c-.0544.03115-.1181.04213-.1798.031s-.1175-.04365-.1577-.09185c-.0401-.0482-.0619-.109-.0616-.1717.0002-.06271.0226-.12332.0631-.17118l.7867-.92-2.2961 1.32213c-.0403.02413-.0863.03703-.1333.03733z" fill="#b52746"/><path d="m16.1792 3.97159c-.0502.00001-.0995-.0142-.142-.04097-.0426-.02678-.0767-.06504-.0985-.11036-.0217-.04533-.0302-.09588-.0244-.14582.0057-.04995.0255-.09725.0569-.13645l.4966-.61547-1.2571.72587c-.0577.03414-.1262.04528-.1918.0312-.0655-.01408-.1234-.05235-.162-.10717-.0386-.05483-.0551-.12219-.0463-.18867s.0424-.12719.094-.17003l.0672-.05333-.1515.08693c-.0572.0331-.1247.04377-.1893.02995-.0647-.01383-.1219-.05117-.1605-.10479-.0387-.05361-.0561-.11967-.0488-.18537s.0387-.12635.0882-.17019l.3771-.3344-.3072.17707c-.053.03032-.1149.04154-.1751.03177-.0603-.00977-.1154-.03994-.1561-.08546s-.0646-.10363-.0676-.16463.015-.12118.051-.17048l.6176-.8384c-.0617.03075-.133.03638-.1988.0157-.0658-.02067-.121-.06604-.1541-.12658s-.0414-.13153-.0232-.19807c.0182-.06655.0614-.123457.1207-.158787l1.0933-.634134c.0531-.030566.115-.041939.1755-.032209.0604.009731.1157.039971.1565.085642s.0646.103989.0675.165157c.0028.061168-.0154.121459-.0518.170744l-.6176.837867 1.48-.853334c.0572-.033102.1247-.043775.1894-.029947.0646.013827.1218.051169.1605.104783.0386.053613.056.119676.0487.185375-.0073.065703-.0387.126353-.0882.170193l-.377.3344.4549-.2624c.0576-.03284.1254-.04303.1902-.02857.0647.01446.1217.05252.1599.10676.0382.05423.0548.12075.0465.18657-.0082.06581-.0407.1262-.091.16937l-.0965.08213c.0496-.01534.1027-.01584.1526-.00144s.0946.04308.1284.08251c.0406.04725.0633.10719.0643.16944.0009.06224-.0199.12286-.0589.17136l-.5366.664c.0604-.00569.121.00939.1717.04276.0507.03338.0885.08304.1071.14078.0186.05775.017.12013-.0045.17684-.0216.05672-.0619.10437-.1143.13509l-1.0922.63146c-.0405.02367-.0865.03602-.1334.03574z" fill="#b52746"/><g fill="#d1314b"><path d="m16.4299 31.6809c-.0528.0001-.1044-.0155-.1484-.0448-.0439-.0293-.0781-.071-.0984-.1197-.0202-.0488-.0255-.1025-.0151-.1543.0103-.0518.0358-.0994.0731-.1367l.2059-.2058-.9861.5696c-.0558.0322-.1213.0431-.1845.0307s-.1198-.0472-.1593-.098c-.0395-.0509-.0593-.1143-.0557-.1786s.0303-.1251.0752-.1712l1.36-1.3947-2.0117 1.1616c-.0568.0313-.1229.0408-.1862.0268-.0632-.014-.1192-.0506-.1575-.1028-.0383-.0523-.0562-.1167-.0505-.1812s.0348-.1247.0816-.1694l1.551-1.4096-1.6534.9541c-.0585.0336-.1277.0438-.1935.0284-.0657-.0154-.1232-.0552-.1608-.1113s-.0525-.1244-.0416-.1911c.0108-.0667.0465-.1268.0999-.1681l.3638-.2806-.1136.0651c-.0573.0328-.1248.0432-.1893.0291s-.1215-.0517-.16-.1054c-.0384-.0537-.0556-.1197-.0481-.1853.0075-.0657.0391-.1262.0886-.1699l1.12-.9754-.6139.3541c-.0572.0331-.1247.0438-.1893.03-.0646-.0139-.1218-.0512-.1605-.1048s-.0561-.1197-.0488-.1854.0387-.1264.0882-.1702l.6731-.5957c-.0463.008-.0939.0038-.1381-.012-.0442-.0159-.0836-.043-.1142-.0787-.0402-.048-.0622-.1086-.0622-.1712s.022-.1232.0622-.1712l1.0918-1.3125-.0091-.015c-.0176-.0303-.029-.0638-.0337-.0986-.0046-.0348-.0023-.0701.0068-.104s.0247-.0657.0461-.0935c.0213-.0278.048-.0511.0784-.0687l.4773-.2746c.0542-.0313.1177-.0424.1793-.0316.0617.0108.1175.043.1578.0909.0403.0478.0625.1084.0627.1709.0002.0626-.0216.1233-.0617.1714l-.6341.7589.8469-.4885c.0572-.0325.1243-.0428.1886-.0288.0642.0139.121.0511.1595.1044s.0559.119.049.1844c-.007.0653-.0378.1258-.0867.1698l-.6128.5387.7014-.4048c.0574-.0334.1252-.0442.1901-.0303.065.0139.1224.0516.161.1057.0387.054.0557.1205.0479.1865s-.04.1266-.0902.1701l-1.12.976 1.2224-.7056c.0586-.0336.1277-.0438.1935-.0284s.1232.0552.1608.1113c.0376.0562.0525.1245.0417.1911-.0109.0667-.0466.1268-.1.1681l-.3638.2806.3201-.1862c.0567-.0312.1229-.0407.1861-.0267.0633.014.1192.0505.1575.1028s.0562.1167.0505.1812-.0347.1247-.0816.1694l-1.5509 1.4096 1.5354-.8869c.0558-.0326.1215-.0438.1849-.0316.0635.0122.1203.047.16.098s.0595.1146.0558.1791-.0306.1254-.0759.1715l-1.3605 1.3952 1.0746-.6202c.056-.0308.1211-.0404.1836-.0272.0624.0132.1181.0483.1568.0991.0388.0507.058.1137.0543.1774-.0038.0637-.0302.124-.0747.1699l-.5071.5061c.0517.0224.0946.0612.1221.1104.0354.0612.0451.1339.0269.2022-.0183.0683-.0628.1266-.124.1621l-1.2181.7029c-.0385.0249-.0828.0392-.1286.0416z"/><path d="m10.0301 31.6797c-.0533.0001-.10539-.0157-.14957-.0455-.04419-.0298-.07844-.0721-.09836-.1215-.01991-.0494-.02457-.1037-.01337-.1557.0112-.0521.03774-.0997.0762-.1365l.04427-.0421-.7504.433c-.05673.0308-.12273.04-.18572.0259-.063-.0142-.11873-.0507-.15684-.1028s-.05602-.1163-.0504-.1806.03439-.1244.08096-.1691l.8112-.7312-1.30133.7461c-.05787.0328-.12592.0428-.19079.028-.06487-.0147-.12188-.0532-.15982-.1079-.03795-.0546-.0541-.1215-.04528-.1874.00883-.066.04198-.1262.09295-.169l.84694-.6965-.992.5723c-.05833.0334-.12712.0435-.19261.0284s-.12285-.0544-.1606-.1101c-.03775-.0556-.0531-.1234-.04299-.1898.01011-.0665.04494-.1267.09753-.1685l.6752-.5334-.60107.3467c-.05787.0328-.12592.0428-.19079.028-.06487-.0147-.12187-.0532-.15982-.1079-.03794-.0546-.05409-.1215-.04527-.1874.00882-.066.04197-.1262.09295-.169l1.00213-.8272-.72373.4171c-.05842.0326-.12694.042-.19198.0264s-.12185-.055-.15916-.1106c-.03732-.0555-.05241-.123-.0423-.1891.01012-.0661.0447-.126.09691-.1678l.3232-.2512c-.04163.0004-.08281-.0085-.12061-.0259-.0378-.0175-.07128-.043-.09806-.0749-.03978-.0498-.06042-.1122-.05817-.1759.00225-.0636.02724-.1244.07044-.1713l1.23466-1.3333-.128.0731c-.05523.032-.12012.0432-.18289.0314-.06277-.0117-.11924-.0456-.15914-.0954-.03991-.0499-.0606-.1124-.05832-.1762s.02739-.1247.07075-.1716l.76267-.8229c-.02744-.0603-.03144-.1287-.01123-.1918s.06319-.1164.12056-.1495l.47734-.2747c.05528-.0321.12023-.0432.18304-.0314.0628.0118.11928.0458.15914.0957.03987.05.06047.1126.05807.1764-.00241.0639-.02767.1248-.07119.1716l-.08746.0944.1264-.0731c.05526-.0321.12026-.0432.18306-.0314s.1193.0458.1591.0957c.0399.05.0605.1126.0581.1764-.0024.0639-.0277.1248-.0712.1716l-1.23466 1.3333 1.52796-.8827c.0586-.0341.1279-.0446.1939-.0295.066.0152.1238.0549.1616.1111.0379.0562.0529.1247.042.1916-.0108.0668-.0467.1271-.1004.1684l-.1483.1147.136-.0779c.0579-.0334.1262-.0438.1915-.0292.0652.0145.1226.0531.1607.1079.0382.0549.0544.1221.0453.1883-.009.0662-.0425.1266-.094.1693l-1 .8256 1.0256-.592c.0583-.0334.1271-.0436.1926-.0285.0655.0152.1229.0545.1606.1101.0378.0556.0531.1234.043.1899-.0101.0664-.0449.1266-.0975.1685l-.6779.5333.6032-.3488c.058-.0335.1264-.0441.1918-.0295.0653.0146.1228.0533.161.1083.0381.055.0542.1224.045.1887-.0093.0664-.0431.1268-.0949.1693l-.8469.6987.6933-.4c.0568-.0308.1228-.04.1858-.0259.063.0142.1187.0507.1568.1028s.056.1163.0504.1806-.0344.1244-.081.1692l-.8117.7312.4587-.2667c.0564-.034.1234-.0459.188-.0334.0647.0125.1224.0484.1622.1009.0397.0526.0586.1179.053.1835s-.0352.1269-.0832.1719l-.456.4379c.04.0238.073.0576.0959.0982.0229.0405.0347.0863.0344.1328-.0003.0466-.0128.0922-.0362.1324-.0235.0402-.057.0736-.0973.0969l-1.2182.7029c-.0401.0272-.087.0427-.1354.0448z"/><path d="m22.5475 31.7096c-.0515 0-.102-.0149-.1452-.043-.0432-.028-.0773-.068-.0983-.115-.021-.0471-.0279-.0992-.0199-.1501s.0306-.0984.065-.1367l.841-.9349-1.8106 1.0453c-.0569.0346-.1245.0466-.1898.0339-.0653-.0128-.1234-.0495-.163-.1029-.0396-.0535-.0578-.1198-.0511-.1859.0068-.0662.038-.1274.0876-.1718l1.44-1.3616-1.8181 1.0496c-.0568.0326-.1236.0431-.1876.0295-.0641-.0135-.1209-.0501-.1597-.1028s-.0569-.1178-.0507-.183c.0061-.0651.0359-.1257.0838-.1703l1.6534-1.527-1.6086.9286c-.0568.0335-.124.0447-.1886.0315-.0646-.0131-.1221-.0498-.1612-.1028-.0392-.0531-.0574-.1187-.051-.1844.0064-.0656.0369-.1265.0856-.171l1.48-1.3776-.9706.5664c-.0567.0304-.1226.0393-.1853.025-.0628-.0142-.1183-.0507-.1562-.1027-.038-.052-.0558-.116-.0503-.1801s.034-.1241.0803-.1689l.7173-.6448c-.0549.0165-.1137.0149-.1677-.0047-.0539-.0196-.1001-.0561-.1316-.104-.0316-.0479-.0468-.1047-.0436-.162.0033-.0573.025-.1119.0619-.1559l1.0848-1.3019-.0086-.0139c-.0176-.0303-.029-.0638-.0336-.0986s-.0023-.0701.0067-.104c.0091-.0339.0248-.0657.0461-.0935.0214-.0278.048-.0511.0784-.0687l.4774-.2746c.0542-.0312.1178-.0424.1794-.0315.0617.011.1175.0432.1578.0912.0402.0479.0623.1085.0624.1711s-.0219.1233-.062.1713l-.6203.7435.832-.48c.0567-.0305.1225-.0394.1853-.0251.0627.0143.1182.0508.1562.1028.0379.052.0558.116.0503.1801s-.0341.1241-.0803.1688l-.6934.6219.7963-.4592c.0568-.0335.124-.0447.1886-.0315.0646.0131.1221.0498.1613.1028s.0573.1187.0509.1843c-.0064.0657-.0369.1266-.0856.1711l-1.4784 1.376 1.6491-.952c.0568-.0325.1235-.043.1876-.0295.064.0135.1208.0501.1596.1028s.0569.1178.0508.183c-.0061.0651-.036.1258-.0839.1703l-1.6533 1.5259 1.7168-.9909c.0568-.0346.1245-.0467.1897-.0339.0653.0128.1234.0495.1631.1029.0396.0535.0578.1198.051.1859-.0067.0662-.038.1274-.0876.1717l-1.4432 1.3627 1.2944-.7467c.0549-.0313.1192-.0421.1813-.0305.0622.0116.1182.0449.158.094.0399.0491.061.1107.0596.1739s-.0252.1239-.0671.1712l-.8406.9317.1947-.1125c.0612-.0348.1337-.044.2017-.0256.0679.0185.1258.0631.161.1241.0353.0609.0449.1334.0269.2015-.018.068-.0622.1262-.1229.1618l-1.6534.9542c-.0401.0235-.0857.0358-.1322.0357z"/></g><g fill="#262626"><path d="m16.549 25.0509c-1.3867-.7147-2.279 1.9237-2.799 2.8986-1.5717 6.8651 9.0235 3.5563 2.799-2.8986zm.8709 5.496c-.1443.201-.3312.3677-.5474.4882-.2161.1205-.4562.1917-.7031.2087s-.4944-.0208-.7251-.1106c-.2306-.0897-.4385-.2293-.6089-.4087-1.3819-1.6064-.0054-3.8683 1.1077-5.2406 1.0816 1.3424 2.4277 3.3344 1.4768 5.063z"/><path d="m10.1245 25.0338c-1.43571-.5238-2.28691 1.9925-2.80317 3.0218-1.45814 6.655 9.04427 3.4091 2.80317-3.0218zm.9067 5.5296c-.1406.2071-.3265.3794-.5436.504s-.4597.1982-.70939.2151c-.24973.0169-.50003-.0233-.73194-.1175-.2319-.0942-.43932-.2399-.60654-.4262-1.39414-1.6176-.0128-3.9024 1.1072-5.2869 1.06667 1.384 2.42137 3.3493 1.48377 5.1093z"/><path d="m22.9268 25.0401c-1.44-.4901-2.2875 1.9835-2.8032 3.0219-1.472 6.6144 9.0384 3.3872 2.8032-3.0219zm.9136 5.5205c-.5141.9899-1.8922.9211-2.5973.1835-1.3941-1.6203-.0224-3.9045 1.0933-5.2949 1.0806 1.3728 2.4203 3.3456 1.504 5.1114z"/><path d="m28.9162 12.4494c3.7392-.6048 1.4784-3.7131-1.8821-1.952-.019-.2052-.0936-.4014-.2157-.56736-.1222-.16597-.2873-.29546-.4777-.37454.242-.1105.4404-.29805.5645-.53332.124-.23527.1666-.505.1211-.76704-.0456-.26204-.1766-.50161-.3727-.68126-.1961-.17966-.4462-.28927-.7113-.31171-1.6-3.02667-5.5466-3.48587-8.64-3.73334 3.184-4.294396-5.6917-4.229329-2.6666.0288-3.072.27627-6.86349.83627-8.54296 3.75094-1.15253.16-1.61707 1.85066-.47573 2.3536-.26236.15783-.46437.39893-.57387.68483-1.86667-1.17337-5.682135.1909-2.9136 2.1093 1.0512.1019 2.20267.32 2.81813 1.2832.25547 2.2-.08267 5.5184.70774 7.9467.15836.4705.46774.8756.88006 1.1522.41231.2766.90446.4093 1.39994.3774 3.19039-.183 10.84799-.5451 14.94989-.079 5.4784.2544 4-6.0629 4.2176-9.6533.3609-.5019.896-.8512 1.5008-.9797.1034-.0235.208-.039.3125-.0544zm-13.9397-11.04697c.146-.25563.385-.44513.6672-.529063 1.1093-.325333 2.0021 1.156803 1.3365 2.059733-.9211 1.3408-2.8213-.28107-2.0037-1.53067zm-7.4027 4.84907c4.3008-3.35307 13.92-3.51573 17.4933.97973-6.0693.00285-12.1383.00285-18.20689 0 .17606-.3674.41792-.69945.71359-.97973zm.3168 1.4512c1.42987.46293 22.4347-1.37013 17.7749 1.66133-6.0234.0272-12.0341-.05333-18.05756.0304-.6352-.0112-1.5888.0784-1.8352-.6272-.47627-1.37813 1.41547-1.06453 2.12107-1.06453zm-4.98026 4.32c-1.00107.1232-1.2352-1.4981-.38507-1.64.84064.0226 1.66616.2289 2.41867.6043.00533.5728.0032 1.1434.00373 1.7157-.60706-.4015-1.30923-.6358-2.03573-.6795zm23.16696 8.8891c-.3414 1.0485-1.8896 1.8357-3.232 1.7168-4.2667-.3776-11.3275-.3803-13.97336.1013-4.44747-.1765-2.90134-5.584-3.152-8.5515.248-1.3066-.624-3.5386.5984-4.3477 6.38186.0848 12.77176-.032 19.15416.00267 1.5301-.0144.7456 9.57603.6048 11.07843zm1.9589-8.5142c-.3295.1126-.6426.2682-.9312.463 0-.6875-.0128-1.3739-.0464-2.0571.6512-.3101 1.3592-.4827 2.08-.5072.6192-.0613 1.2987 1.1835.5333 1.7435-.5522.0848-1.0985.2044-1.6357.3578z"/><path d="m7.61408 12.3699c.29226.9312-.76854 9.0731.77226 7.2598-.29226-.9312.76854-9.0731-.77226-7.2598z"/></g></svg>