<svg fill="none" height="44" viewBox="0 0 44 44" width="44" xmlns="http://www.w3.org/2000/svg"><g fill="#9ed26a"><path d="m9.14348 12.5069c-.1183 0-.22448-.0722-.26795-.1824-.04321-.1101-.01476-.2355.07166-.3161l1.15111-1.0705-2.37124 1.3674c-.12963.0751-.29535.0382-.38072-.0848-.08536-.1233-.06191-.2914.05375-.3865l1.89936-1.568-2.5504 1.4723c-.13094.0748-.29745.0358-.3815-.0893-.08405-.1254-.05717-.2943.06165-.387l1.89936-1.47073-2.22106 1.28313c-.13068.0737-.29614.0347-.38018-.0896-.08379-.1244-.05823-.2925.05901-.386l2.16758-1.6949-2.28798 1.3202c-.13068.0754-.29746.0369-.38177-.088-.08458-.1251-.05849-.29398.06007-.38725l1.93493-1.52128-1.78423 1.0307c-.12752.07271-.28955.03741-.37544-.08168-.08616-.11909-.0685-.28376.04057-.38203l1.85273-1.64959-1.31683.75958c-.12752.06877-.28639.03215-.3707-.08589-.08431-.11777-.06771-.28007.03847-.37861l.82308-.73192c-.04058-.02503-.07404-.05954-.09775-.10091-.07904-.13753-.03188-.313.10539-.39257l1.60058-.92425c.12779-.07404.29114-.039.37756.08088.08641.11988.06797.28561-.04269.38362l-.25899.23027 1.29443-.74826c.12779-.07271.28956-.03741.37571.08168.08589.11909.06851.28376-.04057.3823l-1.85404 1.64958 2.83656-1.63694c.1306-.07535.2972-.03688.3817.088.0846.12489.0583.29403-.06.3873l-1.93576 1.52128 2.34436-1.35318c.1304-.07246.2948-.03294.3781.09063.0835.12383.0585.29087-.0575.38467l-2.16647 1.69569 2.35987-1.36346c.131-.07482.2975-.03583.3815.08958.0841.12515.0572.29404-.0616.38704l-1.8994 1.47096 1.8546-1.07048c.1296-.07509.2953-.03794.3807.0851s.0619.29113-.0537.38625l-1.9007 1.56789 1.569-.90526c.1269-.07483.29-.04163.3775.07693.0877.11856.0714.28402-.0374.38335l-1.1469 1.06888.2358-.1359c.1368-.0714.3054-.0224.3826.1112.0772.1333.0353.304-.0949.3867l-2.42707 1.4022c-.04374.0253-.09327.0385-.14385.038z"/><path d="m21.7677 12.5293c-.1202 0-.2274-.0745-.2696-.1868-.0419-.1125-.0097-.2392.0807-.318l1.394-1.2125-2.312 1.3345c-.1286.073-.2914.0366-.377-.0838-.0854-.1206-.0653-.2864.0461-.3833l2.3557-2.01451-3.0149 1.74051c-.1299.0732-.294.035-.3783-.0878-.0846-.123-.0612-.2898.0537-.3849l2.4216-1.96074-2.7225 1.57104c-.1299.0743-.2948.0367-.3796-.0864-.0849-.1228-.0614-.2903.0537-.3854l2.3726-1.93734-2.3502 1.35608c-.1283.07272-.2914.03636-.3768-.08404-.0853-.12067-.0656-.28639.0459-.38335l1.957-1.67488-1.5173.87604c-.1249.06929-.2819.03662-.3686-.0772-.0867-.11356-.0767-.27375.0235-.37597l1.0278-1.0249c-.1265-.00791-.2329-.09749-.2622-.22079-.0292-.12331.0256-.25135.1349-.31511l1.6135-.93137c.1249-.0693.2819-.03662.3686.07719.0867.11356.0767.27375-.0235.37598l-.8955.89264 2.3104-1.33369c.1288-.07562.2943-.04005.3804.08194.0865.12172.0651.28955-.049.38598l-1.9568 1.67567 2.7333-1.57898c.1299-.07535.2959-.03846.3815.08511.0854.12356.0614.29218-.0551.38703l-2.372 1.93967 2.8036-1.62087c.1299-.07324.294-.03504.3786.08774.0843.12278.0609.28982-.054.38467l-2.4224 1.96153 2.5583-1.47675c.1286-.07403.2925-.0382.3784.08273.0859.1212.0656.28771-.0469.38467l-2.357 2.01427 2.1873-1.26601c.128-.0722.2898-.03636.3754.08325.0854.11962.067.28455-.0429.3823l-1.3927 1.21566.7256-.4187c.1375-.078.3125-.0305.3915.1065.0791.137.0329.3122-.1035.392l-3.3103 1.911c-.0432.0253-.0927.0387-.143.0384z"/><path d="m34.7264 12.4833c-.1191 0-.226-.0735-.2687-.1847-.0424-.1115-.0121-.2374.0766-.3172l1.8786-1.6899-2.8863 1.6664c-.1299.073-.2943.035-.3786-.0877-.0844-.1231-.0612-.2899.0537-.385l2.201-1.78182-2.6607 1.53602c-.1323.0767-.3015.0364-.385-.0917-.0835-.128-.0524-.299.0706-.3894l1.2386-.90763-1.3374.77353c-.1293.0743-.2943.0377-.3796-.0848-.0854-.1223-.063-.2896.0513-.3855l2.5446-2.1196-2.5622 1.47912c-.1291.07377-.293.03715-.3784-.08457-.0853-.12172-.0642-.28824.0491-.3844l1.8872-1.58583-1.481.85311c-.1243.07088-.2819.03952-.3696-.07377-.088-.11303-.0793-.27348.0203-.3765l1.0936-1.11817c-.1328.00764-.2537-.07667-.2922-.20419-.0384-.12752.0156-.26452.1305-.33171l1.615-.93136c.1244-.07088.2819-.03952.3699.07377.0878.11303.0791.27348-.0205.3765l-1.0154 1.03596 2.5077-1.44513c.1291-.07272.2919-.03557.3768.08562.0851.1212.0642.28692-.048.38335l-1.8896 1.58452 2.6215-1.51311c.1294-.0743.2943-.03768.3797.08483.0854.12225.063.28956-.0514.38546l-2.5441 2.12015 2.9999-1.73127c.132-.07377.2988-.03293.3815.09353.0827.12673.0535.29588-.0672.38704l-1.238.90766 1.2662-.73034c.1297-.07298.2941-.03504.3784.08773.0843.12305.0611.28982-.0538.38493l-2.2015 1.78423 2.0927-1.20881c.1275-.0735.2901-.03873.3765.08036.0867.11936.069.28455-.0403.38309l-1.8759 1.6881 1.3239-.76385c.1278-.07298.2904-.03767.3765.08221.0859.11964.0675.28504-.0427.38284l-.8001.7034c.0374.0243.0685.0572.0904.0962.079.1375.0318.313-.1054.3923l-1.6017.9251c-.1283.0745-.2922.0392-.3786-.0812s-.0669-.2869.0448-.3844l.19-.167-1.1864.685c-.0443.0261-.0951.0393-.1468.0385z"/><path d="m8.46268 25.7557c-.1183-.0003-.22422-.0728-.26742-.1826-.04321-.1102-.01476-.2353.07166-.3159l1.87408-1.7421-2.99304 1.7265c-.1291.0733-.29272.0359-.37782-.0859-.08483-.122-.06297-.2885.05033-.3844l2.35305-1.9539-2.90608 1.6794c-.13279.0751-.30088.0337-.38335-.0946-.08273-.128-.05111-.2982.07193-.3881l.77645-.5562-.82309.4751c-.12962.0764-.29666.04-.38255-.0838-.0859-.1238-.06192-.2927.05506-.3878l2.47162-2.0375-2.49981 1.4407c-.12778.073-.29008.0377-.37597-.0819-.08589-.1194-.06798-.2843.04162-.3826l2.17285-1.9194-1.79345 1.036c-.12515.0693-.28217.0366-.36886-.0772-.08668-.1136-.07667-.2738.02345-.3757l1.07338-1.0758c-.12699-.0068-.23449-.0959-.26452-.2194-.03004-.1236.02476-.2525.13437-.3165l1.60085-.9242c.12462-.0688.28085-.0356.36727.0774.08642.1133.07694.2725-.02213.3749l-.94797.9496 2.39443-1.3814c.12804-.0743.29166-.0392.37808.0812.0864.1201.0674.2861-.04374.3838l-2.17337 1.9192 3.01441-1.7405c.1296-.0767.2966-.0403.3825.0835s.0619.293-.055.3878l-2.47088 2.0364 2.89788-1.6728c.1323-.0724.2983-.0305.3802.0962.082.127.0519.2956-.0687.3862l-.7754.5554.7648-.4408c.1294-.0745.2941-.0376.3794.0849.0856.1222.0633.2895-.0514.3852l-2.3538 1.957 2.2508-1.2997c.127-.0748.2901-.0416.3776.077.0877.1185.0716.2843-.0374.3836l-1.8704 1.7415 1.2183-.704c.0893-.0521.1994-.0527.289-.001.0896.0513.1446.1467.1444.25-.0003.1033-.0559.1987-.1455.2495l-3.41427 1.9684c-.04347.0258-.09327.0393-.14385.0393z"/><path d="m22.8278 25.6714c-.1154-.0003-.2195-.0693-.2645-.1757-.0448-.1065-.0219-.2293.0585-.3123l1.058-1.086-2.597 1.4963c-.1288.0727-.2919.0355-.3767-.0857-.0849-.1212-.0641-.2869.0482-.3833l1.9389-1.6288-2.6477 1.5268c-.1299.0738-.2945.0356-.3788-.0877-.0846-.1233-.0606-.2906.055-.3852l2.2606-1.8153-2.6608 1.5355c-.133.0767-.303.0353-.386-.0941-.083-.1293-.0495-.3011.0759-.3899l.4437-.3133-.4392.2527c-.1299.0732-.294.0353-.3784-.0877-.0845-.1228-.0611-.2899.0538-.3847l2.2793-1.8419-2.2332 1.2889c-.1294.0732-.2935.0358-.3783-.0862-.0849-.1222-.0627-.289.0513-.3847l1.7574-1.4493-1.3603.7851c-.1246.072-.2832.0406-.3712-.0735-.0883-.1138-.0786-.2753.0226-.3778l1.1414-1.1511c-.1268-.0074-.2337-.0969-.2632-.2203-.0295-.1233.025-.2516.1346-.3156l1.569-.9063c.1248-.0712.2827-.0395.3704.074.0877.1136.0783.2745-.0221.377l-1.0141 1.031 2.5058-1.447c.1297-.0748.2949-.0379.3802.0848.0854.1228.0625.2907-.0527.386l-1.757 1.4486 2.4318-1.4043c.1301-.0764.2972-.0393.3828.0851.0854.1244.0603.2938-.0577.3881l-2.2798 1.8416 2.705-1.5621c.1331-.0745.3012-.0326.3834.0959.0822.1286.0501.2988-.0735.3884l-.444.3135.4445-.2561c.1302-.0748.2959-.0371.3807.0867.0851.1236.0606.2919-.0561.3865l-2.259 1.814 2.2371-1.2915c.1291-.0738.293-.0372.3784.0846.0854.1217.064.2882-.0493.3846l-1.9378 1.6299 1.5539-.8985c.1244-.0709.282-.0395.3697.0733.088.113.0796.2732-.0195.3762l-1.1582 1.1893c.1299.0005.2429.088.2766.2134.0335.1254-.0211.2577-.1333.323l-1.5539.899c-.0443.0248-.0944.0374-.1452.0361z"/><path d="m35.2362 25.8014c-.1209 0-.2289-.0759-.2703-.1894-.0414-.1136-.0071-.2411.0854-.3188l.8249-.6906-1.6472.9467c-.1286.073-.2914.0366-.3771-.0841-.0853-.1204-.0653-.2861.0461-.3833l2.1236-1.8188-2.8484 1.6446c-.1306.0741-.2966.0351-.3807-.0896-.084-.1248-.0577-.2932.0601-.3865l1.9391-1.5062-2.2574 1.3026c-.1301.0743-.2959.0358-.3804-.0883-.0843-.1238-.0593-.2922.0577-.386l2.2706-1.8034-2.3668 1.3663c-.1296.073-.2935.0351-.3778-.0874-.0843-.1226-.0617-.2891.0527-.3844l2.0801-1.6876-1.9207 1.1058c-.1315.0764-.3001.0372-.3844-.0893-.0843-.1267-.0554-.2972.0661-.3892l.6331-.4811-.1686.0973c-.1262.0758-.2893.0445-.3781-.073-.0888-.1173-.0745-.2827.0327-.3834l1.0286-.9901c-.112-.0303-.195-.1251-.21-.2403-.015-.1151.0406-.2279.141-.2861l1.5689-.9061c.126-.0759.2891-.0445.3778.073.0888.1173.0749.2827-.0326.3834l-.7741.7482 2.0722-1.1969c.1315-.0767.2998-.0374.3841.0893.0843.1264.0554.2969-.0658.3889l-.6332.4795 1.1056-.6379c.1299-.074.2948-.0366.3796.0864.0849.1231.0614.2906-.0537.3855l-2.0814 1.6917 2.6086-1.5062c.1304-.0748.2967-.0364.381.088.0845.1246.059.293-.0588.3868l-2.2701 1.8021 2.517-1.4528c.1309-.0743.2966-.0353.3807.0896.084.1246.058.2932-.0601.3865l-1.9352 1.5015 1.9076-1.101c.1288-.0743.2929-.0385.3788.083.0859.1214.0651.2882-.0479.3849l-2.1262 1.8206 1.7934-1.036c.1291-.0727.2919-.0355.3768.0856.0851.1212.0643.287-.048.3834l-.8241.6935.0782-.0459c.1376-.0782.3123-.0308.3913.1062.0793.137.0329.3122-.1035.392l-2.9193 1.687c-.0429.0256-.0917.0393-.1415.0398z"/><path d="m9.06031 39.0002c-.11962-.0003-.22685-.0746-.269-.1868-.04216-.112-.01028-.2385.07983-.3175l.83046-.728-1.84825 1.0642c-.13253.0772-.3022.0368-.38598-.0917-.08379-.1286-.05191-.3001.07245-.3902l.10354-.0749-.42076.243c-.13042.0743-.29588.0361-.38045-.088-.08431-.1241-.05928-.2922.0577-.3863l1.94599-1.5539-2.41734 1.3974c-.13147.0748-.29851.0351-.3823-.0909-.08352-.1259-.05559-.2953.06456-.3873l1.775-1.3492-1.95706 1.1311c-.13306.0753-.3022.0334-.38467-.0957-.0822-.1291-.04901-.3001.07562-.3891l.18548-.1307-.14965.0869c-.13042.0754-.29667.0377-.38177-.0866-.08484-.1241-.05981-.2928.0577-.3871l2.05296-1.6477-1.90515 1.0992c-.13095.0737-.29667.0342-.38046-.0907-.08352-.1251-.05664-.2935.06166-.3862l.88236-.6763-.4421.2537c-.12463.0685-.28086.0356-.36728-.0775-.08642-.1133-.07694-.2727.02187-.3749l1.06442-1.0641c-.12621-.0087-.23186-.0989-.26057-.2219-.02872-.123.02634-.2506.13568-.314l1.60059-.9243c.12462-.0688.28086-.0356.36727.0775.08642.1132.07694.2724-.02186.3749l-.92979.9306 2.36465-1.3654c.13094-.0737.29667-.0339.38019.0909.08375.1252.05695.2936-.06139.3863l-.88764.6811 1.36768-.7891c.1302-.0741.2954-.0359.3797.088.0843.1235.06.2911-.0564.3857l-2.05799 1.6488 2.51669-1.4533c.1333-.0756.3024-.0335.3846.0956.0825.1291.0493.3001-.0753.3892l-.1842.1288.2514-.1444c.1315-.0766.3001-.0374.3844.0893.0843.1268.0553.2972-.0661.3889l-1.7732 1.3474 1.8032-1.0407c.1301-.0724.294-.0337.3781.0893.0838.1231.0598.2898-.0554.3844l-1.9452 1.554 1.7935-1.036c.1325-.0772.3024-.0369.386.0917.0837.1286.0519.3001-.0725.3902l-.3022.2192c.1022-.0087.2018.0364.2624.1191.0862.1204.0672.2864-.0442.3839l-.8431.739c.1322-.0495.2811.0032.3527.1249.0796.1378.0325.3138-.1053.3931l-2.48167 1.4314c-.04348.0266-.09327.0409-.14412.0417z"/><path d="m21.5896 38.9824c-.1191-.0003-.2258-.0735-.2688-.1847-.0427-.1109-.0126-.2369.0759-.3167l1.8071-1.6283-2.8444 1.642c-.1293.0748-.2945.0379-.3799-.0849-.0854-.1227-.0627-.2903.0524-.3859l2.3892-1.9869-2.9285 1.6905c-.1302.075-.2959.0371-.3807-.0865-.0851-.1238-.0606-.2921.0561-.3865l2.4587-1.991-2.6608 1.5363c-.1325.0761-.3014.035-.3846-.0933-.0833-.1283-.0514-.299.0721-.3891l.8018-.5802-.6982.4028c-.1291.0751-.294.039-.3799-.0832-.0859-.122-.0641-.2896.0503-.3857l2.0603-1.7458-1.7075.9859c-.1241.0709-.2811.0401-.3694-.0724-.088-.1125-.0804-.2725.0182-.3757l1.2117-1.26c-.1104.0074-.2156-.0482-.2717-.1433-.0793-.1375-.0324-.313.1046-.3926l1.569-.906c.1244-.0717.2822-.0409.3707.0719.0883.113.0801.2737-.0195.377l-1.1414 1.187 2.7172-1.5685c.1289-.0748.2935-.0387.3794.0833.0859.1217.0646.2887-.049.3852l-2.0601 1.7457 2.772-1.6029c.1328-.0762.3017-.0353.3849.093.083.1283.0514.2993-.0724.3894l-.801.5794.9836-.5681c.1301-.0764.2972-.0392.3828.0854.0856.1243.0603.2937-.0577.3878l-2.4592 1.9908 2.6802-1.5476c.1297-.0762.2959-.0398.3818.0835.0862.1233.0627.2922-.0537.3873l-2.3892 1.9868 2.289-1.3237c.1268-.069.2846-.0334.3697.083.0851.1162.0711.2775-.0329.3773l-1.8085 1.6301 1.1898-.6866c.1365-.0717.3054-.0226.3826.1109.0772.1336.0353.3041-.0949.3868l-3.5534 2.0582c-.0437.0256-.0935.039-.1438.0388z"/><path d="m34.812 38.9803c-.1191 0-.2258-.0735-.2685-.1844-.0427-.1112-.0127-.2372.0756-.317l1.8177-1.6385-2.8531 1.6472c-.1305.0759-.2975.0379-.3823-.0867-.0851-.1246-.0593-.2937.0587-.3875l2.0208-1.6069-2.4747 1.4295c-.1297.0725-.293.0346-.3773-.0874-.0846-.122-.0622-.2883.0513-.3839l2.5683-2.1049-2.8175 1.6259c-.1325.0743-.2998.0329-.3823-.0946s-.0516-.2972.0703-.3875l.7731-.5578-.6682.3857c-.133.0767-.3032.0353-.386-.0941-.083-.1293-.0495-.3011.0756-.3902l.1497-.1059c-.1146.024-.2324-.0234-.2985-.1201-.0843-.1254-.0575-.2943.0614-.3873l1.0475-.8202-.5807.3349c-.1259.0748-.2877.0429-.3762-.0738-.0883-.1167-.0751-.2811.0308-.382l1.036-.9981c-.113-.0295-.1971-.1241-.2126-.24-.0156-.1156.0403-.2295.1415-.2877l1.5689-.9061c.126-.0745.2877-.0429.376.0738.0885.1167.0753.2811-.0308.3823l-.7878.7606 2.0962-1.2085c.1306-.0738.2958-.0348.3799.0893.084.1244.0585.2925-.0588.386l-1.0475.8197 1.6058-.9267c.1328-.074.3001-.0318.3823.0959.082.1281.0503.2978-.0722.3876l-.0282.0208.2348-.1359c.1325-.0743.3001-.0327.3826.0948.0824.1275.0516.2972-.0704.3876l-.7714.5564.9503-.5485c.1296-.0738.294-.0361.3789.0864.0848.1225.0622.2898-.0525.3852l-2.5706 2.1054 2.7714-1.6001c.1304-.0758.2972-.0382.3823.0865.0851.1248.0593.294-.0587.3878l-2.0209 1.6069 1.8641-1.0768c.1267-.069.2848-.0335.3699.083.0848.1162.0709.2774-.0332.3773l-1.8164 1.6374 1.1988-.6905c.0893-.0522.1995-.0527.2891-.0013.0895.0513.1446.1467.1443.25-.0002.1033-.0558.1987-.1454.2498l-3.5674 2.0603c-.0437.025-.0935.0377-.1438.0369z"/></g><g fill="#262626"><path d="m35.2668 5.06257c-2.0003.01687-3.6717 1.52682-3.8909 3.51497h-5.5218c-.4029-4.52169-7.3506-4.22397-7.7087.05005h-5.5252c-.3628-4.68898-7.70284-4.35227-7.72919.30221-.02028 3.4965 3.85616 4.2788 6.13069 2.7259l3.9007 3.8999-3.6791 3.6791c-2.22976-1.6768-6.35229-.6239-6.35518 2.9221-.0029 3.5461 3.90331 4.3649 6.17388 2.7736l3.8346 3.8343-3.6999 3.6999c-2.24113-1.6739-6.28803-.6861-6.3128 2.8863-.03267 4.8392 7.1756 4.7248 7.7213.2303h5.5252c.1958 4.6302 7.2705 4.4091 7.7208-.0946h5.5178c.0575 4.783 7.4857 4.3744 7.7331-.2266 0-.0087-.0058-.0132-.0068-.0208-.0011-.0074.0097-.0195.0092-.0306-.1836-3.413-3.9979-4.2429-6.201-2.7556l-3.8396-3.8396 3.6393-3.6375c2.1658 1.5366 6.2229.3705 6.4047-3.0067-.1831-3.3993-3.9713-4.2155-6.1781-2.7593l-3.8261-3.8264 3.6088-3.6087c2.171 1.6029 6.216.5567 6.4031-2.95777-.0393-2.09406-1.7547-3.76737-3.8488-3.75446zm-15.8401 1.9626c.4908-.81255.7909-.82124 1.8016-1.0884.9611-.25425 1.1822-.41892 1.9607-.01713 1.1224.59966 1.8293 1.76262 1.8454 3.03492-.0171.65762-.2116 1.29834-.563 1.85434-.0662.1004-.1284.1831-.1882.2569-.1583.0574-.2813.1604-.2819.2711-.3846.2068-.8022.3462-1.2341.412-.9732.2572-1.3026.4092-2.1191-.065-.7798-.4559-1.3466-1.2028-1.5758-2.07646-.2289-.87367-.1014-1.8024.3544-2.58227zm5.0383 25.46623c-1.4372-1.0444-3.3716-1.0876-4.8541-.1088l-3.7469-3.7468 3.6259-3.6261c1.4733.9353 3.3637.8963 4.7973-.0988l3.8793 3.879zm-2.9548-7.2715c-1.4899-.3533-2.5385-1.6886-2.5285-3.2196-.0356-.9553.391-1.8691 1.1456-2.4555.7548-.5863 1.7457-.7736 2.6623-.503 1.3292.4637 2.2253 1.7107 2.2408 3.1184-.113 1.8198-1.5363 3.4678-3.5202 3.0597zm2.9388-5.9968c-1.4439-.9799-3.3358-.9941-4.7944-.0356l-3.8193-3.8195 3.6299-3.6301c1.4693.8973 3.3276.8523 4.7519-.1152 1.3047 1.3047 2.6092 2.6094 3.9139 3.9139zm-16.44376-7.2866c-1.3553-.4692-2.26401-1.7463-2.26295-3.1806-.01502-.70346.2005-1.3927.61388-1.96206.79674-.98617 2.12068-1.37584 3.32448-.97906 1.26625.52747 2.09725 1.75788 2.11355 3.12951-.0166.58622-.1773 1.15951-.4679 1.66911-.6879 1.1324-2.0427 1.672-3.32106 1.3231zm3.61266-.7856c.5483-.5705.8924-1.30633.9786-2.09279h5.5339c-.0176.87814.3191 1.72649.9343 2.35359l-3.5938 3.5937zm7.441 8.5414c-.5562.6026-.8813 1.3827-.9174 2.2021h-5.5192c-.0385-.8687-.391-1.6933-.9922-2.3214l3.6548-3.6546zm-10.52303 5.5476c-1.60981-.2263-2.80333-1.61-2.79095-3.2356-.02687-.9056.35938-1.774 1.04967-2.3602.69056-.5865 1.61033-.8265 2.49928-.6529 1.45253.3628 2.47793 1.6588 2.49693 3.1559-.1044 1.7178-1.378 3.3036-3.25493 3.0928zm3.11103-.8212c.5494-.5912.8879-1.3476.9627-2.1515h5.5221c-.0134.8721.3107 1.7157.9043 2.3546l-3.5927 3.5933zm7.3785 8.4774c-.5332.5984-.846 1.3611-.8863 2.1618h-5.5252c-.0688-.8218-.4126-1.5964-.9762-2.1987l3.6744-3.6743zm-10.49586 5.5543c-1.5911-.2111-2.78462-1.5606-2.79937-3.1656-.02714-1.6612 1.27967-3.0384 2.9398-3.0985 1.77503-.05 3.03203 1.4966 3.12183 3.1627-.0967 1.7355-1.3703 3.3021-3.26226 3.1014zm13.23806.0055c-1.5919-.215-2.7846-1.5653-2.802-3.1711-.0295-1.6625 1.2773-3.0423 2.9388-3.1029 1.7768-.0485 3.0344 1.5049 3.1242 3.1706-.0956 1.7331-1.3653 3.3073-3.261 3.1034zm14.3889-6.1628c1.2652.525 2.096 1.7536 2.1123 3.1234-.1209 1.8828-1.7041 3.691-3.79 2.993-1.3559-.4669-2.2648-1.7439-2.2619-3.1777-.0019-2.0008 1.8814-3.736 3.9396-2.9387zm-3.8385.6468c-.568.6009-.9013 1.3861-.9387 2.2123h-5.5202c-.0506-.8699-.4087-1.6936-1.0107-2.324l3.6801-3.6797zm-3.615-4.688-3.8385-3.8385c.5467-.5751.8892-1.3136.9756-2.1025h5.5313c-.0069.8729.3291 1.7137.9358 2.3415zm7.5853-9.1376c1.2009.5561 1.9736 1.7547 1.9839 3.0781-.1151 2.1544-2.2297 3.9668-4.3886 2.72-1.0415-.6149-1.6818-1.7336-1.6846-2.9432.0044-.8181.3267-1.6024.8984-2.1873.0487-.0303.0893-.0725.118-.1225.8194-.7875 2.0327-1.0028 3.0729-.5451zm-3.9771.6067c-.552.5789-.8821 1.334-.9319 2.1323h-5.5252c-.0459-.8426-.3902-1.6414-.9717-2.2532l3.6538-3.6536zm-3.6161-4.7422-3.8609-3.8614c.5377-.5454.8863-1.24912.9938-2.00739h5.5405c.0121.84785.3354 1.66199.9082 2.28719zm6.3035-3.0233c-1.5829-.2026-2.7744-1.541-2.7923-3.13689-.0189-1.65697 1.2881-3.02596 2.944-3.08366 1.7614-.0548 3.0252 1.47227 3.1145 3.13451-.0938 1.73574-1.3798 3.27544-3.2662 3.08414z"/><path d="m8.93531 7.50357c-.87393-.05718-1.63984.57963-1.74339 1.44935-.00553.15992.82493.04321.83362-.22343.01028-.30141.19155-.8402.55882-.85285.20498.0058.40443-.0685.55593-.20656.10012-.15255-.08748-.17047-.20498-.16651z"/><path d="m21.2684 8.80824c-.0182-.20024.0448-.39968.1744-.55355s.3156-.24924.5161-.26532c.1779-.00632.4392-.13305.4606-.33223.0229-.21236-.2229-.26927-.3828-.26426-.8416-.00053-1.5427.64471-1.6117 1.48334-.015.42655.8305.29877.8434-.06798z"/><path d="m35.508 7.52764c-.8524.02872-1.808.46055-1.842 1.42512-.0039.10697.826.00869.8337-.22343.0042-.20392.0637-.40284.1725-.57542.0493-.0793.1096-.1507.1797-.21235.0366-.03399.0769-.0635.1202-.08879.2034 0 .4033-.05401.5791-.15651.1191-.08009.1312-.17494-.0432-.16862z"/><path d="m9.0321 20.7642c-.8539.0287-1.80767.4603-1.84166 1.4267-.00395.1112.82598.0116.83336-.2232.00422-.2042.06402-.4031.17257-.5757.04954-.0793.11014-.1507.18022-.2123.03662-.034.07693-.0635.1204-.088.2034.0003.40338-.0538.57885-.1568.11803-.0787.13121-.1794-.04374-.1707z"/><path d="m22.1746 20.7459c-.8731-.0582-1.639.5765-1.7444 1.4451-.0053.1526.8247.0388.8334-.2231.0102-.3007.191-.8445.5577-.8571.2047.0053.4039-.068.5565-.205.1006-.1502-.088-.1641-.2032-.1599z"/><path d="m34.5014 21.9677c.0102-.2994.1904-.8497.5567-.8634.2044.0039.4031-.0685.5569-.2032.1015-.1467-.0898-.156-.2013-.1525-.8404.0287-1.7151.5253-1.7457 1.4388-.0053.1467.8247.0363.8334-.2197z"/><path d="m9.03334 34.0061c-.85127.0287-1.80899.4606-1.84192 1.4228-.00343.1009.82598.0047.83335-.2232.00475-.2039.06429-.4028.17284-.5757.04927-.0793.1096-.1512.17942-.2134.03689-.034.0772-.064.12041-.0893.20366-.0026.40311-.058.57911-.161.11777-.0756.12936-.166-.04321-.1602z"/><path d="m22.159 33.9267c-.8671-.0509-1.6243.5809-1.7297 1.443-.0113.3454.8249.1808.8347-.1025.0111-.3193.1762-.846.5728-.8591.2092.0137.4131-.0714.5501-.2303.0922-.1618-.0788-.2556-.2279-.2511z"/><path d="m34.5003 35.2608c.0103-.3177.1726-.8634.5686-.8747.207.0103.4083-.0693.5519-.2187.0996-.1578-.0845-.22-.2181-.2161-.8189.0282-1.7031.5228-1.7337 1.4275-.0102.3091.8226.1323.8313-.118z"/></g></svg>