<svg fill="none" height="32" viewBox="0 0 32 32" width="32" xmlns="http://www.w3.org/2000/svg" xmlns:xlink="http://www.w3.org/1999/xlink"><clipPath id="a"><path d="m0 0h32v32h-32z"/></clipPath><g clip-path="url(#a)"><g fill="#ffd15d"><path d="m29.1561 23.9724c-.0269-.0001-.0537-.0041-.0795-.0117-.0349-.0112-.0671-.0295-.0947-.0537-.0275-.0243-.0497-.0539-.0653-.0871l-.1531-.3238-.4266.2459c-.0459.0266-.0986.039-.1515.0355-.0529-.0034-.1035-.0226-.1455-.055-.0419-.0324-.0733-.0765-.09-.1268-.0168-.0503-.0181-.1045-.004-.1556l.0699-.2517-.6235.3595c-.0466.0267-.1002.0388-.1538.0345s-.1046-.0247-.1465-.0584c-.0418-.0338-.0724-.0795-.0878-.131s-.0149-.1064.0015-.1576l.2666-.8256-1.7493 1.0095c-.0303.0193-.0643.0323-.0998.0381-.0355.0059-.0718.0045-.1067-.0041-.0349-.0085-.0678-.0241-.0965-.0457-.0288-.0215-.0529-.0487-.0709-.0798-.018-.0312-.0295-.0656-.0339-.1013-.0043-.0357-.0014-.072.0086-.1065.0101-.0345.027-.0667.0497-.0945.0228-.0279.051-.0508.0828-.0675l2.3467-1.3562c.0466-.0268.1003-.0388.1539-.0346.0535.0043.1046.0247.1464.0585s.0724.0794.0878.1309c.0155.0515.0149.1065-.0014.1577l-.2667.8266.5867-.3391c.0458-.0264.0983-.0386.1511-.0351.0527.0036.1031.0227.145.055.0418.0323.0731.0763.0899.1264s.0183.104.0044.155l-.0699.2512.1125-.0646c.0319-.0182.0672-.0297.1037-.0337.0365-.0039.0735-.0003.1085.0106.0351.011.0675.0291.0952.0532.0277.024.0502.0536.066.0867l.16.3424c.0613-.0082.1236.0052.1762.0378.0525.0327.0921.0826.1119.1412.0198.0587.0186.1224-.0034.1802s-.0635.1062-.1173.1368l-.16.0923c-.0388.0223-.0827.0344-.1274.0352z"/><path d="m23.5968 29.567c-.0702 0-.1375-.0276-.1875-.077-.0499-.0493-.0784-.1163-.0792-.1865l-.0037-.28-.1019.0587c-.0481.0276-.1035.0396-.1587.0342s-.1073-.0278-.1491-.0642-.0713-.0849-.0843-.1388c-.013-.0538-.0088-.1104.0118-.1619l.0768-.1888-.1717.0982c-.0505.029-.109.0407-.1668.0333-.0577-.0074-.1115-.0335-.153-.0743s-.0686-.0941-.077-.1517.0023-.1164.0304-.1673l.224-.4043-.4368.2512c-.052.0301-.1126.0418-.172.0332s-.1142-.037-.1555-.0807c-.0413-.0438-.0667-.1003-.0718-.1604-.0051-.06.0102-.12.0436-.1702l.4693-.7072-.8272.48c-.0564.0321-.1227.0426-.1863.0294s-.1202-.0492-.1592-.1012c-.0389-.052-.0576-.1164-.0524-.1812.0052-.0647.0338-.1254.0806-.1705l.232-.2219-.5414.3126c-.0567.032-.1233.0422-.1871.0285-.0637-.0137-.1203-.0503-.1589-.1028s-.0566-.1174-.0507-.1823c.006-.065.0356-.1255.0831-.1701l1.3899-1.2725-2.7365 1.5797c-.061.0319-.1319.039-.1979.0198-.0661-.0191-.1222-.0631-.1566-.1226-.0344-.0596-.0445-.1301-.0281-.1969.0163-.0668.0579-.1247.1159-.1616l4.8496-2.7995c.0568-.0321.1233-.0422.1871-.0285.0638.0136.1203.0502.1589.1028.0386.0525.0567.1174.0507.1823-.006.065-.0355.1254-.0831.1701l-1.3867 1.2704.3472-.2006c.0565-.0345.1238-.0468.1889-.0345.065.0123.1232.0484.1631.1012s.0587.1186.0528.1846c-.0059.0659-.0361.1273-.0848.1722l-.2666.2571c.052-.0121.1064-.0082.1562.0111.0498.0192.0927.053.1231.0969s.0469.0959.0474.1493-.015.1057-.0446.1501l-.4693.7067.2837-.1637c.0505-.0292.109-.041.1668-.0336.0578.0073.1116.0333.1532.0741.0417.0409.0689.0944.0772.1522.0084.0578-.0024.1167-.0308.1678l-.224.4048.0123-.0069c.0481-.0278.1036-.0398.1589-.0344.0552.0053.1075.0278.1493.0642.0418.0365.0712.085.0841.1389s.0087.1105-.0121.1619l-.1029.256c.0407.0022.0804.0139.1157.0342.0405.0229.0742.0561.0979.0961.0237.0401.0364.0856.0371.1321l.0053.4363c.0394.0231.0719.0562.0944.096.0352.0612.0447.1339.0264.202-.0183.0682-.0629.1264-.124.1617l-.1259.0731c-.0423.0236-.0902.0352-.1386.0336z"/><path d="m29.1045 17.0758c-.0587 0-.1157-.0194-.1623-.0551s-.08-.0858-.0952-.1425-.0113-.1169.0112-.1711c.0224-.0542.0622-.0995.113-.1289l1.7797-1.0277c.0613-.0348.1338-.044.2017-.0256.068.0185.1259.0631.1611.1241.0352.0609.0449.1334.0269.2015-.018.068-.0622.1262-.123.1618l-1.7797 1.0272c-.0405.0236-.0865.0361-.1334.0363z"/><path d="m15.9354 31.6083c-.0451-.0001-.0894-.0116-.1289-.0334s-.0727-.0533-.0967-.0915-.0379-.0819-.0404-.1269c-.0025-.0451.0064-.09.026-.1306l.0704-.1462c-.0385.0007-.0766-.0069-.1119-.0222-.0353-.0152-.067-.0378-.0929-.0663-.0407-.0454-.0647-.1035-.0678-.1644-.0031-.061.0148-.1212.0507-.1705l.1456-.2c-.0546.0294-.1179.0389-.1788.0267s-.1156-.0452-.1548-.0935c-.0391-.0482-.0602-.1086-.0595-.1707.0006-.0621.0229-.122.063-.1695l.4581-.5376-.3653.2134c-.0605.0366-.1331.0477-.2019.0308-.0687-.0169-.1279-.0604-.1645-.121-.0366-.0605-.0477-.1331-.0308-.2018s.0604-.1279.1209-.1646l1.1675-.7381-1.0816.624c-.0597.0336-.13.0429-.1964.026s-.1238-.0587-.1602-.1167-.0491-.1278-.0354-.1949c.0136-.0671.0526-.1264.1088-.1656l5.928-4.0352-6.1077 3.5259c-.0601.0321-.1303.0401-.1961.0221-.0658-.0179-.1222-.0604-.1576-.1186-.0354-.0583-.0472-.1279-.0329-.1945.0143-.0667.0536-.1254.1098-.164l2.5232-1.6181-2.72 1.5712c-.0599.0347-.131.0448-.1981.0281-.0672-.0168-.1253-.0589-.1619-.1177-.0366-.0587-.049-.1294-.0345-.1971.0146-.0677.0548-.127.1123-.1656l6.319-4.257-7.1563 4.1301c-.0604.0345-.1318.0441-.1992.0266-.0673-.0174-.1251-.0605-.1612-.1199-.036-.0595-.0474-.1307-.0317-.1985.0157-.0677.0573-.1267.1158-.1642l3.5632-2.2581-4.6474 2.6826c-.0304.0193-.0643.0323-.0998.0381-.0355.0059-.0718.0045-.1067-.0041-.035-.0086-.0678-.0241-.0966-.0457-.0287-.0215-.0529-.0487-.0709-.0799-.018-.0311-.0295-.0656-.0338-.1013s-.0014-.0719.0086-.1064.0269-.0667.0497-.0945c.0228-.0279.0509-.0508.0828-.0675l15.8309-9.1397c.0604-.0332.1312-.0418.1976-.0239.0665.0178.1235.0607.1591.1195.0356.0589.0471.1293.032.1965-.0151.0671-.0555.1259-.1129.1639l-3.5611 2.257 2.6299-1.5178c.0597-.0331.1299-.042.196-.0249s.1232.0589.1594.1169c.0361.0579.0487.1275.0351.1945-.0136.0669-.0524.126-.1084.1652l-6.3168 4.2565 5.9765-3.4506c.0603-.0337.1313-.0427.1981-.0251.0667.0175.1241.0603.1599.1193.0359.059.0475.1297.0323.197-.0151.0674-.0558.1263-.1135.1642l-2.5237 1.6187 2.4437-1.4112c.0597-.0336.1301-.0429.1965-.026s.1237.0587.1601.1167.0491.1278.0355.1949c-.0137.0671-.0527.1264-.1089.1656l-5.9301 4.0347 6.2453-3.6048c.0604-.0332.1312-.0418.1976-.0239.0665.0178.1235.0607.1591.1196.0356.0588.0471.1292.032.1964-.0151.0671-.0555.1259-.1129.1639l-10.4811 6.6298c-.009.0428-.0286.0826-.0571.1158l-.5557.6517c.0662.007.1276.0381.1723.0875.0409.0455.0649.1036.068.1647s-.0149.1213-.051.1707l-.36.4934c.0124.0079.024.017.0347.0272.0417.0387.0699.0898.0804.1458.0106.0559.003.1138-.0217.1651l-.2614.5429c.0305.0611.0365.1315.0166.1968-.0198.0652-.0639.1204-.1232.1542l-.16.0933c-.0402.0234-.0858.0359-.1323.0363z"/><path d="m23.1797 3.33731c-.0587-.00001-.1157-.01938-.1623-.05511-.0466-.03574-.08-.08584-.0952-.14254s-.0113-.11683.0112-.17106c.0224-.05423.0622-.09954.113-.12889l.5456-.31574c.0613-.03536.1342-.04491.2025-.02656.0684.01835.1267.06311.162.12443.0354.06132.045.13417.0266.20254-.0183.06836-.0631.12663-.1244.16199l-.5456.3152c-.0406.02341-.0865.03574-.1334.03574z"/><path d="m8.40926 28.8555c-.05779-.0001-.11399-.019-.16015-.0537-.04616-.0348-.07977-.0836-.09577-.1392-.016-.0555-.01353-.1147.00704-.1687s.05813-.0999.10702-.1307l8.7707-5.5008-8.2507 4.7637c-.06083.0362-.13351.0467-.20208.0292-.06856-.0174-.12738-.0614-.16352-.1222-.03614-.0609-.04664-.1336-.02919-.2021.01745-.0686.06143-.1274.12225-.1635l2.34664-1.4374-1.9141 1.1051c-.0602.0314-.13011.0387-.19548.0203-.06536-.0184-.12126-.061-.1563-.1191-.03503-.0582-.04656-.1275-.03223-.1939s.05343-.1248.10934-.1633l7.03997-4.4267-6.72584 3.8854c-.06042.0338-.13164.0428-.19859.0251s-.12438-.0608-.16014-.1201c-.03575-.0593-.04703-.1302-.03144-.1977s.05682-.1263.11497-.1639l6.08694-3.8165-6.04267 3.4885c-.06068.0364-.13332.0471-.20193.0299-.06862-.0172-.12758-.0609-.16394-.1216-.03635-.0607-.04711-.1333-.0299-.2019.0172-.0687.06095-.1276.12164-.164l3.6384-2.2496-3.70614 2.1387c-.06035.0327-.13099.0408-.1972.0228-.06622-.0181-.12293-.061-.15831-.1198-.03539-.0588-.04673-.129-.03167-.196s.05536-.1255.11252-.1635l6.072-3.8059-6.38667 3.6848c-.06035.0327-.13099.0408-.19721.0228-.06622-.0181-.12292-.061-.15831-.1198-.03538-.0588-.04672-.129-.03166-.196.01505-.067.05536-.1255.11251-.1635l5.99684-3.7424-6.5435 3.777c-.06031.0332-.13111.0418-.19759.0239-.06648-.0178-.12349-.0607-.1591-.1196-.03562-.0589-.04708-.1292-.03199-.1964s.05556-.1259.11294-.1639l9.09544-5.7242-10.74024 6.201c-.06066.033-.13174.0412-.19831.0228-.06656-.0183-.1234-.0618-.15857-.1212s-.04592-.1302-.02999-.1974.0573-.1255.11541-.1628l2.3888-1.448-3.95307 2.2832c-.0604.0322-.13089.04-.19687.0217s-.1224-.0612-.15757-.12c-.03517-.0587-.04639-.1288-.03134-.1956s.05522-.1252.11218-.1632l9.31197-5.76-8.17064 4.7163c-.02997.0181-.06323.0302-.09787.0354-.03463.0053-.06997.0037-.10399-.0046-.03403-.0084-.06607-.0234-.0943-.0441-.02823-.0208-.0521-.0469-.07024-.0769s-.03019-.0632-.03548-.0978c-.00529-.0347-.0037-.07.00467-.104.00837-.0341.02335-.0661.04411-.0943.02075-.0283.04686-.0521.07684-.0703l10.1093-6.4-8.6677 5.0048c-.06026.0322-.13057.0401-.19644.0219-.06587-.0181-.12227-.0608-.15757-.1193s-.0468-.1283-.03214-.195.05438-.1253.11095-.1636l7.7419-4.8901-7.42937 4.2891c-.06075.0362-.1334.0468-.20196.0294-.06857-.0173-.12743-.0612-.16364-.122-.03621-.0607-.0468-.1334-.02945-.2019.01735-.0686.06123-.1275.12198-.1637l1.66507-1.0218-1.54293.8906c-.06051.0328-.13135.041-.19772.0228-.06637-.0183-.12312-.0614-.15839-.1205-.03527-.0592-.04632-.1296-.03084-.1967.01547-.067.05628-.1255.11388-.1632l1.33813-.8208-1.31946.7611c-.06031.0332-.13111.0417-.19759.0239s-.12349-.0607-.1591-.1196c-.03562-.0589-.04708-.1293-.03199-.1964.01509-.0672.05556-.1259.11294-.1639l6.93334-4.3771-7.22507 4.1728c-.06027.0337-.13125.0427-.19802.0251s-.12412-.0604-.15998-.1194c-.03585-.059-.04743-.1296-.03228-.1969.01514-.0674.05582-.1263.11348-.1642l8.81437-5.6246-9.54984 5.5152c-.02997.0182-.06323.0302-.09787.0355-.03463.0053-.06997.0037-.10399-.0047-.03403-.0083-.06607-.0233-.0943-.0441-.02823-.0207-.0521-.0468-.07024-.0768s-.03019-.0632-.03548-.0979c-.00529-.0346-.0037-.07.00467-.104.0169-.0687.06041-.1279.12095-.1645l9.2971-5.8896-10.2731 5.9296c-.05062.0289-.10931.0404-.1671.0328s-.1115-.0339-.1529-.0749l-.59734-.5968-.36693.2133c-.061216.0348-.133713.044-.201671.0255-.067958-.0184-.125859-.063-.161069-.124s-.044869-.1334-.02687-.2015.062195-.1263.122943-.1619l.543997-.3136c.05062-.0289.10931-.0404.1671-.0328s.1115.0339.1529.075l.59734.5973 21.3307-12.31575c.0603-.03316.1311-.04172.1976-.02389.0664.01783.1234.06068.1591.11958.0356.0589.047.12928.0319.19644-.015.06715-.0555.12587-.1129.16387l-9.2949 5.88855 8.7541-5.05441c.0605-.03671.133-.04789.2018-.03109.0687.01681.1279.06022.1646.12069s.0479.13304.0311.20175c-.0168.06872-.0602.12794-.1207.16465l-8.8128 5.62241 8.52-4.91948c.0605-.03656.1331-.04758.2018-.03063.0686.01696.1278.06049.1643.12103.0366.06054.0476.13313.0307.20179-.017.06866-.0605.12778-.1211.16434l-6.9424 4.38085 6.9558-4.01551c.0301-.01793.0634-.02975.0981-.03479s.07-.0032.104.00541c.034.00862.0659.02385.094.04481s.0518.04725.0697.07737c.018.03011.0298.06347.0348.09815.0051.03469.0032.07003-.0054.104s-.0238.06592-.0448.09401-.0472.05177-.0774.0697l-1.336.81867 1.3835-.8c.0608-.03621.1334-.0468.202-.02945.0685.01735.1274.06123.1636.12198.0362.06076.0468.13341.0294.20197-.0173.06856-.0612.12742-.1219.16363l-1.647 1.01227 1.8075-1.04427c.0605-.03656.1331-.04758.2018-.03062.0687.01695.1278.06048.1643.12103.0366.06054.0476.13312.0307.20178-.017.06867-.0605.12778-.1211.16435l-7.7445 4.89231 8.4027-4.85338c.0605-.03663.1331-.04772.2018-.03082.0687.01691.1279.06041.1646.12095.0366.06054.0477.13316.0308.20187-.0169.06872-.0604.1279-.121.16454l-10.113 6.40004 12.0288-6.94405c.0605-.0328.1313-.04095.1977-.02272.0664.01822.1231.06139.1584.1205.0352.0591.0463.12955.0308.19661s-.0563.12555-.1139.16322l-9.3072 5.76004 10.7542-6.20804c.0609-.036.1336-.04634.2021-.02873.0685.0176.1272.0617.1632.12259s.0463.1336.0287.20211-.0617.12723-.1226.16323l-2.3776 1.44004.8651-.49978c.0606-.03656.1333-.04755.202-.03055s.1278.06061.1644.12122.0476.13331.0305.20201c-.017.0687-.0606.1278-.1212.1644l-9.0965 5.7243 7.8475-4.5334c.0604-.0333.1314-.0418.1981-.0239.0666.018.1237.0612.1592.1203.0355.0592.0467.1299.0312.1972-.0156.0672-.0566.1258-.1144.1635l-6.0005 3.7477 5.681-3.28c.0606-.0365.1333-.0474.2019-.0303.0687.017.1278.0606.1643.1213.0365.0606.0474.1332.0303.2019-.017.0686-.0607.1277-.1213.1642l-6.0666 3.8021 5.9946-3.4608c.0606-.0341.1321-.0432.1993-.0254.0672.0179.1248.0612.1605.1209s.0466.1309.0305.1986c-.0161.0676-.0579.1263-.1167.1635l-3.6405 2.2539 3.6901-2.1307c.03-.018.0633-.03.098-.0352.0346-.0052.0699-.0036.1039.0049.034.0084.066.0235.0942.0443s.052.0469.0701.077c.018.03.03.0632.0352.0979.0052.0346.0036.07-.0049.104-.0084.034-.0235.066-.0443.0941-.0208.0282-.047.052-.077.0701l-6.0912 3.8192 6.3808-3.6837c.0604-.0327.131-.0409.1972-.0228.0663.018.123.0609.1583.1198.0354.0588.0468.129.0317.1959-.015.067-.0553.1256-.1125.1636l-7.04 4.4267 7.6469-4.415c.0609-.0361.1335-.0466.2021-.0292.0686.0175.1274.0615.1635.1223.0362.0608.0467.1335.0292.2021-.0174.0685-.0614.1273-.1222.1635l-2.3467 1.4357 2.8389-1.6394c.0606-.035.1324-.0447.2001-.0272.0676.0175.1257.0609.1617.1208s.0471.1316.0308.1995c-.0163.068-.0587.1268-.1179.1639l-8.7749 5.5024 9.6592-5.577c.0613-.0354.1341-.045.2025-.0266.0684.0183.1266.0631.162.1244s.0449.1342.0266.2026c-.0184.0683-.0631.1266-.1245.162l-22.2901 12.8682c-.04054.0234-.08653.0358-.13334.0358z"/><path d="m15.0114 3.66813c-.0491.00011-.0973-.01335-.1393-.0389-.0419-.02554-.076-.06219-.0985-.10588-.0224-.04369-.0324-.09274-.0287-.14173.0036-.04898.0208-.09601.0494-.13589l.6763-.93973c-.0439-.00064-.0871-.01213-.1255-.03345s-.071-.05181-.0948-.08876-.0381-.07921-.0416-.12302c-.0036-.04382.0038-.08782.0214-.1281l.4458-1.043738v-.0048c-.0354-.061183-.045-.13392-.0268-.202225.0182-.068306.0628-.126589.1239-.162042l.16-.093333c.0485-.028088.1046-.040182.1604-.034564.0557.005618.1083.028662.1502.06586.042.037197.0711.086657.0833.141355s.0069.111853-.0152.163349l-.2758.644268.1878-.10667c.0528-.03052.1145-.04202.1747-.03256.0603.00945.1155.03929.1564.08452.041.04524.0652.10314.0686.16405s-.0142.12115-.0499.17066l-.6229.86453.5776-.33333c.0303-.01779.0639-.0294.0987-.03416.0349-.00477.0703-.00259.1043.0064s.0659.02461.0939.04598c.0279.02136.0513.04804.0689.07849.0176.03046.029.06409.0335.09897.0045.03487.0021.0703-.0071.10424s-.025.06572-.0466.09351c-.0215.0278-.0484.05105-.0789.06844l-1.648.95306c-.0414.02326-.0881.03539-.1355.0352z"/><path d="m4.45975 14.5534c-.05768-.0001-.11376-.0189-.15983-.0536-.04607-.0348-.07965-.0835-.09569-.1389-.01605-.0554-.0137-.1145.0067-.1684.02039-.054.05773-.0999.10642-.1308l3.52-2.2288-2.5888 1.4933c-.06039.0345-.13186.0441-.19918.0266-.06733-.0174-.12518-.0604-.16121-.1199-.03604-.0595-.04741-.1307-.0317-.1985.01572-.0677.05728-.1266.11582-.1642l2.36533-1.5018-1.98613 1.1466c-.05981.0366-.13159.0481-.19982.0321s-.12743-.0582-.16479-.1175c-.03735-.0593-.04987-.1309-.03483-.1994.01503-.0684.05641-.1282.11517-.1664l5.35679-3.57331-5.26825 3.04001c-.02998.0181-.06323.0301-.09785.0354-.03463.0052-.06995.0036-.10394-.0048-.034-.0084-.06601-.0234-.09421-.0441-.0282-.0208-.05203-.0469-.07014-.0769-.0181-.03-.03013-.0632-.03538-.0979-.00526-.0346-.00364-.0699.00475-.1039.0084-.034.02341-.066.04417-.0942.02077-.0282.04689-.052.07686-.0701l.61387-.3862-.592.3414c-.06027.0336-.13126.0426-.19802.0251-.06677-.0176-.12412-.0604-.15998-.1194-.03585-.059-.04743-.1296-.03229-.197.01515-.0674.05583-.1262.11349-.1642l2.18293-1.39627-2.30986 1.33337c-.05199.0293-.11231.0404-.17133.0314-.05901-.009-.1133-.0376-.15417-.0811s-.06596-.0995-.07125-.1589c-.00529-.0595.00953-.119.04208-.169l.34987-.52377-.5264.30346c-.04345.02501-.09306.03727-.14316.03537-.05009-.0019-.09863-.01788-.14006-.04611-.04142-.02823-.07405-.06756-.09414-.11349s-.02683-.09659-.01944-.14617l.09013-.60373-.30987.1792c-.03103.01774-.0653.02906-.1008.03329-.03549.00423-.07147.00128-.10579-.00867-.03433-.00995-.06631-.0267-.09404-.04925-.02773-.02256-.05064-.05045-.06737-.08204l-.25013-.46506c-.06171.0112-.1254.0003-.17987-.0308-.05447-.03111-.09623-.08041-.11795-.13925-.02171-.05885-.02199-.12346-.00079-.18249.02121-.05903.06254-.10869.11674-.14026l.16-.0928c.03094-.01788.06515-.02936.1006-.03376.03546-.00439.07144-.00162.1058.00816.03402.01004.06569.02677.09317.04921.02747.02243.05019.05013.06683.08145l.2432.4512.5504-.32c.04365-.02524.09357-.03759.14395-.03561.05039.00197.09918.0182.14072.04678.04154.02859.07413.06837.09397.11472.01985.04636.02615.09739.01816.14718l-.088.6032 1.03734-.59787c.05214-.03021.11298-.04187.1726-.03307s.1145.03753.1557.08151.06628.10062.07117.16069c.00488.06006-.01072.12001-.04427.17007l-.34987.5232 11.51142-6.64586c.0605-.03678.1331-.04803.2019-.03128.0687.01676.128.06014.1648.12061s.048.13307.0313.20183c-.0168.06877-.0602.12806-.1206.16484l-2.1835 1.39573 2.1515-1.24267c.0605-.03656.1331-.04758.2018-.03063.0686.01696.1277.06049.1643.12103s.0476.13313.0306.20179c-.0169.06867-.0604.12778-.121.16435l-.6096.38453.64-.37333c.0601-.03728.1326-.04914.2015-.03299.0688.01616.1284.059.1657.11912s.0491.13258.033.20144c-.0162.06886-.059.12849-.1191.16576l-5.352 3.57547 5.8293-3.3664c.0604-.03451.1319-.04406.1992-.02663.0673.01744.1252.06049.1612.11997s.0474.13069.0317.19844-.0573.12667-.1158.16422l-2.3675 1.50346 2.8448-1.64266c.0606-.03664.1332-.04772.2019-.03082s.1279.06041.1645.12095.0477.13315.0308.20187c-.0169.06871-.0604.12789-.1209.16453l-3.5232 2.232 4.6021-2.65707c.0612-.0348.1337-.04398.2017-.02553.0679.01845.1258.06303.1611.12401.0352.06099.0448.13342.0268.2015s-.0622.12628-.1229.16189l-15.82562 9.13654c-.04048.0235-.0865.0359-.13333.0357z"/><path d="m8.70082 7.25602c-.05246-.00011-.10373-.0157-.14738-.0448-.04365-.02911-.07774-.07045-.09801-.11885-.02027-.04839-.02581-.10169-.01594-.15321.00988-.05153.03474-.099.07146-.13647l.77867-.7936-.27893.16c-.05336.03089-.11578.04232-.17662.03237-.06085-.00995-.11637-.04068-.15711-.08695-.04074-.04628-.06419-.10524-.06635-.16685-.00217-.06162.01708-.12208.05448-.1711l.4752-.62294-.25707.14827c-.05229.0303-.11332.04194-.17309.03302-.05977-.00893-.11473-.03789-.15589-.08214-.04115-.04426-.06606-.10118-.07063-.16144s.01147-.12028.04548-.17024l.2224-.32747-.01174.00694c-.04578.02656-.09844.03889-.15126.03542s-.10341-.02257-.14533-.05489c-.04193-.03231-.07328-.07637-.09008-.12657s-.01828-.10426-.00426-.1553l.16-.57866c-.03561.01226-.07341.01684-.11091.01344-.03751-.0034-.07387-.01471-.10669-.03318-.04041-.0227-.07421-.05554-.09806-.09529s-.03693-.08503-.03794-.13137l-.0096-.4704c-.04044-.02311-.07396-.05663-.09706-.09707-.03541-.06118-.04507-.13392-.02687-.20223.0182-.0683.06278-.12658.12393-.16204l.1264-.07306c.04011-.02317.08556-.0355.13188-.03576.04632-.00027.09191.01154.13228.03426.04037.02271.07413.05555.09795.09528s.03688.08497.03789.13128l.00693.32.12427-.072c.04582-.02645.09848-.03868.15127-.03512.05279.00355.10333.02274.14519.0551.04186.03237.07314.07645.08987.12665s.01815.10424.00407.15524l-.16.57173.46027-.264c.05229-.0303.11332-.04194.17309-.03301.05977.00892.11473.03788.15589.08214.04115.04425.06606.10117.07063.16143s-.01147.12029-.04548.17024l-.2224.32694.40158-.23307c.0534-.03084.1159-.04222.1767-.03219.0609.01003.1164.04084.1571.08719s.064.10537.0661.16701-.0173.12209-.0548.17106l-.47468.6224.81758-.47254c.0559-.03219.1215-.04306.1847-.03061.0633.01245.1199.04739.1593.09835.0396.05103.0592.11467.0554.1791-.0038.06444-.0309.1253-.0762.1713l-.7786.7936 1.4533-.83894c.0303-.01778.0639-.02939.0987-.03416.0349-.00476.0703-.00258.1043.0064.034.00899.0659.02462.0938.04598.028.02136.0514.04804.069.0785.0176.03045.029.06409.0335.09896.0045.03488.0021.0703-.0071.10424s-.025.06572-.0466.09352c-.0215.02779-.0484.05105-.0789.06843l-3.14671 1.816c-.04023.02323-.08582.03555-.13227.03573z"/></g><path d="m15.443 24.7652c-.0568 0-.1121-.018-.158-.0515-.0458-.0336-.0797-.0809-.0968-.135-.0171-.0542-.0164-.1124.0019-.1661.0183-.0538.0533-.1003.0998-.1328l3.7824-2.6522-4.9776 2.873c-.0595.0328-.1293.0416-.1951.0247-.0659-.017-.1227-.0584-.159-.1159-.0363-.0574-.0493-.1266-.0363-.1933s.051-.126.1061-.1656l4.8678-3.3435-5.8486 3.3766c-.0597.0335-.13.0428-.1964.026-.0664-.0169-.1237-.0587-.1601-.1167s-.0491-.1278-.0355-.195c.0137-.0671.0527-.1264.1088-.1655l5.7302-3.8875-6.5435 3.7755c-.0603.0353-.1322.0456-.2.0285s-.1262-.0602-.1626-.1199c-.0364-.0598-.0478-.1314-.0319-.1995.016-.0681.0581-.1272.1172-.1646l2.9648-1.8912-3.3275 1.92c-.0601.0341-.1311.0436-.198.0265-.067-.0172-.1246-.0597-.1609-.1185-.0362-.0589-.0482-.1295-.0334-.197.0149-.0675.0553-.1266.1128-.1649l5.3942-3.5317-5.8507 3.3776c-.0608.0368-.1338.0479-.2028.0309s-.1284-.0608-.16519-.1216c-.03677-.0608-.04788-.1337-.03088-.2028.017-.069.06077-.1284.12157-.1652l.7424-.4634-.88215.5093c-.06008.0341-.13108.0436-.19802.0265-.06695-.0172-.12461-.0597-.16085-.1185-.03623-.0589-.04821-.1295-.0334-.197s.05525-.1266.1128-.1649l6.05812-3.9653-6.39305 3.6907c-.06012.0321-.13027.0401-.19605.0221-.06578-.0179-.12219-.0604-.15763-.1186-.03544-.0583-.04722-.1279-.03292-.1946.0143-.0666.05359-.1253.10979-.1639l4.53336-2.9018-4.69335 2.7104c-.06069.0363-.13332.0471-.20194.0299-.06861-.0172-.12758-.061-.16393-.1217s-.04711-.1333-.02991-.2019c.01721-.0686.06096-.1276.12164-.1639l.3984-.247-.39733.2288c-.06008.0342-.13107.0437-.19802.0265-.06694-.0172-.12461-.0596-.16085-.1185-.03623-.0588-.04821-.1295-.03339-.197.01481-.0675.05525-.1266.11279-.1648l6.45329-4.239-6.58715 3.8022c-.06036.0326-.13099.0408-.19721.0227-.06622-.018-.12292-.0609-.15831-.1197-.03539-.0589-.04673-.1291-.03167-.196.01506-.067.05536-.1256.11252-.1636l1.0016-.625-.92053.5333c-.06033.0369-.13286.0483-.20162.0318-.06876-.0166-.12813-.0598-.16505-.1201s-.04836-.1328-.03181-.2016c.01656-.0688.05975-.1281.12008-.165l4.98825-3.2288-4.93225 2.8442c-.06055.0349-.13238.0447-.20004.0272-.06766-.0176-.12574-.0609-.16174-.1208s-.04704-.1316-.03075-.1996c.01629-.0679.05861-.1268.11786-.1638l.6544-.4091-.48.2757c-.06.0357-.13157.0464-.19937.0298-.0678-.0165-.12641-.059-.16327-.1182-.03685-.0593-.049-.1306-.03386-.1987.01515-.0682.0564-.1276.1149-.1657l5.98082-4-5.76962 3.3334c-.06038.0345-.13186.044-.19918.0266-.06733-.0175-.12517-.0605-.16121-.12s-.04741-.1307-.0317-.1984c.01572-.0678.05728-.1267.11582-.1642l1.8992-1.2107-1.58666.9157c-.05971.0354-.13086.0461-.19834.0299-.06747-.0163-.12596-.0582-.16304-.1168-.03708-.0587-.04982-.1295-.03552-.1974s.05451-.1276.1121-.1663l5.18295-3.5552-4.68375 2.704c-.06019.035-.13168.045-.1992.028-.06751-.017-.1257-.0597-.16212-.1191-.03643-.0593-.0482-.1305-.03281-.1984.0154-.0679.05674-.1271.11519-.1649l1.5856-1.0368-1.0336.5973c-.05989.0347-.13093.0448-.19811.028-.06718-.0167-.12522-.0589-.16186-.1176s-.049-.1294-.03448-.1971c.01453-.0677.05481-.1271.11232-.1656l1.7568-1.1797-.99947.5771c-.02969.0185-.06276.031-.09729.0368-.03454.0058-.06988.0047-.104-.0031-.03413-.0079-.06636-.0224-.09488-.0428-.02851-.0203-.05273-.0461-.07129-.0757-.01856-.0297-.03109-.0628-.03688-.0973-.00578-.0346-.0047-.0699.00317-.104.00787-.0342.02239-.0664.04273-.0949.02033-.0285.04608-.0528.07578-.0713l.78933-.5333c-.05597 0-.11052-.0177-.15592-.0504-.04541-.0327-.07936-.0789-.09706-.132s-.01825-.1104-.00156-.1638.04976-.1003.09454-.1338l1.42292-1.06938c-.0351-.02258-.0642-.05332-.0848-.0896-.0353-.06125-.0449-.13403-.0266-.20235.0183-.06831.063-.12655.1242-.16192l2.5659-1.4816c.0588-.03396.1284-.04418.1946-.02856.0661.01561.1238.05589.1612.11259.0374.05671.0518.12557.0402.19252s-.0483.12694-.1027.16772l-.4512.3392 2.1504-1.2384c.0598-.03408.1305-.04372.1972-.0269.0667.01681.1244.05878.1609.11713.0365.05834.0491.12855.035.19592s-.0536.12671-.1104.16558l-.3643.24694 1.2859-.74507c.0598-.03355.1303-.04274.1967-.02567.0665.01707.1238.05909.16.11733.0363.05824.0487.12821.0347.19537s-.0533.12634-.1098.16524l-1.7563 1.17973 2.6277-1.51733c.0602-.03501.1317-.04508.1992-.02807.0676.01701.1257.05974.1622.11908.0364.05934.0482.13057.0328.19847s-.0568.12709-.1152.16492l-1.5878 1.03733 2.2208-1.28c.0597-.0341.1302-.04386.1969-.02723.0667.01662.1244.05835.161.11647.0367.05813.0495.12816.0358.19549-.0137.06734-.0529.12678-.1094.16594l-5.1835 3.55631 6.1334-3.54138c.0602-.03369.1312-.04269.198-.0251.0668.01758.1241.06037.16.11938.0358.059.0474.12961.0323.19698-.0152.06736-.0559.12623-.1135.16421l-1.8955 1.20853 2.2859-1.31947c.0599-.03471.1309-.04477.1981-.02805.0672.01671.1252.0589.1618.11763.0367.05873.0491.12941.0345.1971-.0145.06768-.0548.12706-.1123.16559l-5.9835 3.99998 6.6342-3.83038c.0605-.03491.1324-.04466.2-.02714.0677.01751.1258.06089.1618.1208.036.0599.047.13155.0307.19951-.0163.06797-.0586.12682-.1179.1639l-.6506.40693.8357-.48c.0602-.03428.1314-.04377.1986-.02646.0671.01731.1248.06007.1609.11921s.0478.13002.0326.19763c-.0153.06761-.0562.12662-.1142.16455l-4.9888 3.22985 5.3269-3.0757c.0606-.03493.1324-.04467.2001-.02716.0676.01756.1257.06086.1617.12076s.047.1316.0307.1996c-.0163.0679-.0586.1268-.1178.1639l-1.0096.6298 1.1168-.6453c.0601-.0342.1311-.0437.198-.0265s.1246.0596.1608.1185c.0363.0588.0483.1295.0334.197-.0148.0675-.0552.1266-.1128.1649l-6.4496 4.2362 6.7376-3.8901c.0607-.0364.1334-.0471.202-.0299s.1276.0609.1639.1216c.0364.0607.0471.1333.0299.202-.0172.0686-.0609.1275-.1216.1639l-.3915.2432.3936-.2272c.0603-.0337.1313-.0427.198-.0251.0668.0176.1241.0604.16.1194s.0474.1296.0323.1969c-.0151.0674-.0558.1263-.1135.1643l-4.5333 2.9018 4.5978-2.6544c.0601-.0341.1311-.0436.1981-.0265.0669.0172.1246.0597.1608.1185.0362.0589.0482.1295.0334.197s-.0552.1266-.1128.1649l-6.0549 3.9643 6.0981-3.52c.0606-.035.1324-.0447.2001-.0272.0676.0175.1257.0609.1617.1208s.047.1316.0307.1995c-.0163.068-.0586.1268-.1178.1639l-.7355.4592.6085-.352c.0603-.037.1328-.0486.2016-.0322s.1283.0594.1654.1197c.037.0602.0486.1328.0322.2016s-.0594.1283-.1197.1653l-5.3957 3.5318 5.2725-3.0438c.0604-.0353.1322-.0456.2-.0285s.1262.0602.1626.1199.0478.1314.0319.1995c-.016.0681-.058.1272-.1172.1646l-2.969 1.8987 2.7418-1.583c.0598-.0341.1305-.0437.1972-.0269.0668.0168.1244.0588.1609.1171.0365.0584.0491.1286.035.196-.014.0673-.0536.1267-.1104.1656l-5.728 3.889 5.3867-3.1082c.0596-.0342.1302-.0439.1968-.0273.0667.0166.1244.0584.1611.1165.0366.0581.0494.1282.0357.1955s-.0529.1268-.1094.1659l-4.8709 3.3403 4.3157-2.4912c.0595-.0337.1296-.0434.1959-.0269.0664.0165.1238.0578.1606.1154.0367.0577.0499.1272.0369.1943s-.0513.1266-.107.1663l-3.7834 2.6533 2.9546-1.7067c.0597-.0347.1304-.0449.1974-.0286.067.0164.1251.0581.162.1163.0369.0583.0498.1286.036.1962-.0138.0675-.0532.1271-.11.1663l-1.4779 1.024.4635-.2667c.0587-.0334.1279-.0433.1936-.0277s.123.0556.1604.1119.052.1246.041.1912c-.0111.0667-.0471.1266-.1006.1678l-1.4688 1.112c.0394.023.0721.0559.0949.0955.0354.0612.045.134.0267.2023-.0184.0683-.063.1266-.1243.1619l-2.5659 1.4816c-.0586.0328-.1275.0422-.1928.0263s-.1222-.0558-.1594-.1118c-.0371-.056-.0517-.1239-.0409-.1903.0108-.0663.0463-.1261.0993-.1674l.5952-.4501-2.351 1.3563c-.0594.0332-.1294.0424-.1955.0257-.066-.0167-.1232-.0581-.1597-.1156-.0365-.0576-.0496-.1269-.0366-.1938s.0511-.1263.1065-.1659l1.4752-1.0224-2.5984 1.4997c-.0405.0236-.0865.0361-.1333.0363z" fill="#fddd59"/><g fill="#262626"><path d="m.98746 16.4649c2.80267.3574 5.29227 3.0902 2.776 5.5179-.3632.6357-1.528 1.2453-1.46773 1.92 1.7888.0635 3.82293-1.3493 5.36426.2181 1.54667 1.5163.3136 3.6016.22027 5.3744.8432.3472 1.488-.9018 2.14404-1.3024 2.4613-2.7594 4.8176-.1728 5.2944 2.6134 1.6181 4.0938 1.2538-7.5958 6.4624-2.631.6933.4128 1.4933 1.9803 2.3365 1.1606-.7157-2.88-1.1733-6.9712 3.2149-5.7494 1.2235.4683 3.6416.679 1.5702-1.0101-1.8427-1.4496-2.5702-4.5163.0714-5.5307.8304-.4752 2.3899-.3877 2.8544-1.1861-2.9008-.8027-6.5333-2.5216-3.5914-5.8405 5.4938-5.61283-7.311 4.0864-4.1168-7.51203-.8432-.3472-1.488.90187-2.144 1.3024-5.7152 5.36427-4.8395-8.68854-7.0576-1.24373-2.2704 6.26826-5.57177-1.26774-7.03577.10133.7152 2.88 1.17333 6.97173-3.21494 5.74987-7.4352-1.88374 6.46831 4.70616-3.72693 7.23416-.9941338.2122-.9914672.6533.0464.8138zm3.11947-1.6218c2.67253-1.679 1.14186-4.6267-.74934-6.22563 3.84 1.47093 7.08801-1.06347 5.45174-5.11733 2.36057 3.1408 6.69757 1.97333 7.17017-1.92374.6234 4.38134 4.7402 4.87254 7.3306 1.6672-1.785 4.6592 1.1702 6.8219 5.5643 5.2608-3.8613 3.4133-3.0144 6.4752 1.9952 7.5541-4.6048.8134-6.0149 4.2667-2.1333 7.3435-3.8544-1.4848-7.2.968-5.5467 5.0987-2.3611-3.1408-6.6976-1.9734-7.1701 1.9237-.6272-4.3957-4.752-4.8651-7.34404-1.6533 1.80214-4.5974-1.11413-6.864-5.5008-5.3008 3.7712-3.5248 2.94773-6.3808-2.05387-7.5286 1.03441-.2498 2.03644-.6185 2.98614-1.0986z"/><path d="m17.7256 24.645c8.576-1.4293 9.6838-14.2298 1.3616-16.94984-14.48902-4.16906-16.43195 18.96804-1.3616 16.94984zm-8.76582-12.8277c3.90082-7.2096 15.39622-3.86507 15.18292 4.2133-.8859 13.9147-21.29812 8.0806-15.18292-4.2133z"/></g></g></svg>