<svg fill="none" height="24" viewBox="0 0 24 24" width="24" xmlns="http://www.w3.org/2000/svg" xmlns:xlink="http://www.w3.org/1999/xlink"><clipPath id="a"><path d="m0 0h24v24h-24z"/></clipPath><g clip-path="url(#a)"><path d="m12.1312 18.5845c-.0418-.0004-.0824-.0139-.1162-.0386-.0337-.0247-.0588-.0594-.0719-.0991-.013-.0397-.0132-.0825-.0007-.1224.0126-.0399.0373-.0748.0708-.0999l2.8668-2.0912-4 2.3096c-.0448.0242-.0971.0305-.1463.0174-.0492-.013-.0916-.0443-.1186-.0875-.0269-.0432-.0363-.0951-.0264-.145.01-.0499.0386-.0941.0801-.1237l2.5024-1.6768-3.1148 1.8c-.0451.027-.09906.0352-.15015.0227-.05109-.0124-.09522-.0445-.12283-.0893-.02761-.0447-.03648-.0985-.02469-.1498.01178-.0512.04328-.0958.08766-.124l2.60921-1.714-3.08001 1.7784c-.04509.0252-.09818.032-.14815.0189s-.09295-.045-.11994-.089c-.02698-.044-.03588-.0968-.02483-.1473.01105-.0504.0412-.0947.08412-.1234l2.40001-1.5516-2.75721 1.5912c-.04512.0248-.09808.0313-.14784.018-.04977-.0132-.0925-.0452-.11931-.0891-.0268-.044-.03561-.0966-.0246-.1469.01102-.0503.04102-.0944.08375-.1232l2.63841-1.6988-2.93881 1.6968c-.04524.0277-.09963.0363-.15121.0239-.05157-.0124-.0961-.0448-.12379-.0901-.02769-.0452-.03627-.0996-.02385-.1512.01241-.0516.04481-.0961.09005-.1238l3.29001-2.1248-3.57241 2.062c-.04551.0273-.09999.0353-.15145.0224s-.09568-.0457-.12295-.0912c-.02726-.0455-.03533-.1-.02243-.1514.01291-.0515.04572-.0957.09123-.123l.2712-.1684-.3716.2144c-.04545.0274-.09992.0356-.15142.0228s-.09581-.0455-.12318-.091c-.02737-.0454-.03556-.0999-.02277-.1514s.04552-.0958.09097-.1232l1.2356-.774-1.338.772c-.04501.0239-.09742.0296-.14655.0161-.04912-.0134-.09125-.0451-.11778-.0886-.02654-.0435-.03549-.0955-.02502-.1453.01047-.0499.03957-.0939.08135-.123l3.80001-2.4496-3.97041 2.292c-.04528.0259-.09889.0331-.14938.02s-.09388-.0454-.12091-.09-.03556-.098-.02377-.1488.04296-.095.08686-.1232l2.3444-1.48-2.4064 1.3888c-.04529.0242-.09816.0301-.14765.0163-.04949-.0137-.0918-.0459-.11818-.09-.02637-.044-.03479-.0966-.0235-.1467s.04141-.0939.08413-.1224l.112-.0696-.0956.0552c-.04508.028-.09943.0369-.15108.0248-.05164-.0122-.09636-.0443-.12432-.0894-.02795-.0451-.03685-.0994-.02473-.1511.01211-.0516.04425-.0963.08933-.1243l5.23321-3.4756-5.32801 3.076c-.04523.0249-.09833.0313-.14819.0179-.04986-.0133-.09261-.0455-.11932-.0896-.02671-.0442-.03531-.097-.02399-.1474.01131-.0503.04166-.0944.0847-.1229l1.9868-1.2552-1.9228 1.11c-.04494.0245-.09756.0308-.14701.0176-.04945-.0131-.09198-.0447-.11883-.0883s-.03599-.0958-.02553-.1459c.01047-.05.03973-.0942.08177-.1234l4.33921-2.854-4.27201 2.466c-.04492.026-.0982.0336-.14858.0211-.05038-.0126-.09392-.0442-.12139-.0883-.02748-.044-.03676-.097-.02586-.1478.01089-.0508.0411-.0953.08423-.1242l4.72001-3.17959-4.56001 2.63279c-.04478.0242-.0971.0305-.14632.0174-.04921-.013-.0916-.0443-.11853-.0875s-.03637-.0951-.0264-.145.0386-.0941.08005-.1237l3.8112-2.55479-3.5364 2.03999c-.04508.0241-.0977.0301-.14703.0166-.04934-.0134-.09164-.0453-.11822-.089-.02658-.0436-.03542-.0958-.0247-.1458.01073-.05.0402-.094.08235-.123l.8328-.5356-.5232.302c-.04454.0257-.09727.0332-.14723.0211-.04996-.0122-.09331-.0431-.12106-.0864-.02774-.0433-.03775-.0956-.02794-.1461s.03869-.0952.08063-.125l3.3836-2.39999-2.7848 1.6072c-.04474.02453-.09717.03103-.14656.01817-.04938-.01287-.09197-.04412-.11906-.08736-.0271-.04325-.03663-.09521-.02666-.14526.00997-.05004.03869-.09439.08028-.12395l.9308-.6264-.2904.1672c-.0436.02511-.09506.03286-.14412.0217-.04906-.01115-.09212-.04038-.12058-.08187-.02847-.04149-.04025-.09218-.033-.14196.00724-.04979.03299-.09502.0721-.12667l1.4144-1.1416c-.04237-.00368-.08247-.02077-.11447-.04879-.032-.02803-.05423-.06553-.06346-.10705s-.00499-.08491.01212-.12385.04619-.07142.08301-.09271l1.9244-1.1108c.04354-.02453.09468-.03187.14337-.02059.04868.01129.09137.0404.11967.08159.02827.04119.04017.09148.03317.14097-.0069.04949-.03209.0946-.07061.12643l-1.2332.9956 2.94201-1.6984c.0448-.02556.0978-.03279.1479-.02017.05.01261.0933.04409.1207.08785.0273.04375.0367.09641.0262.14694s-.0402.09503-.0828.12418l-.9324.6304 1.6304-.9412c.0445-.02568.0973-.03323.1472-.02106.05.01217.0933.04311.1211.0864.0277.0433.0377.09561.0279.14609-.0098.05047-.0387.09523-.0806.12497l-3.38281 2.4 4.33441-2.502c.0451-.02413.0977-.03008.147-.01662.0494.01346.0917.0453.1182.08899.0266.04368.0355.09589.0247.14589-.0107.05-.0401.094-.0823.12294l-.8368.5364 1.182-.6824c.0448-.02421.0971-.03044.1463-.01741s.0916.04434.1185.08754c.027.0432.0364.09504.0264.14497-.0099.04992-.0385.09416-.08.1237l-3.8116 2.5532 4.3692-2.522c.0448-.02482.0974-.0315.147-.01866s.0924.04422.1195.08767c.0272.04345.0366.09566.0264.14586-.0102.05019-.0393.09456-.0813.12393l-4.716 3.1784 5.2436-3.0272c.0451-.02701.0991-.03518.1501-.02272.0511.01246.0953.04454.1229.0893.0276.04475.0364.09858.0247.14983-.0118.05125-.0433.09579-.0877.12399l-4.3388 2.8548 4.688-2.7064c.0452-.02415.0979-.03004.1473-.01644.0494.01359.0917.04562.1182.08949s.0351.09622.0241.14627c-.011.05004-.0408.09396-.0832.12268l-1.9876 1.2556 2.1316-1.2304c.0449-.02479.0976-.03138.1473-.0184.0496.01299.0923.04455.1194.08816.027.04361.0362.09594.0257.14616-.0104.05023-.0398.09451-.082.12368l-5.2364 3.47599 5.5144-3.18359c.0453-.02497.0986-.03139.1486-.0179.05.01348.0928.04582.1194.09022s.035.09739.0234.14783c-.0117.05044-.0424.09441-.0858.12265l-.1.0624.1096-.0636c.0454-.02747.0999-.03579.1514-.02311s.0959.04531.1234.09071c.0275.04541.0358.09987.0231.1514-.0127.05154-.0453.09593-.0907.1234l-2.3504 1.48559 2.3828-1.37599c.0452-.02571.0986-.03283.1489-.01984.0503.01298.0936.04505.1207.08941.0271.04435.0359.09751.0244.14822-.0114.0507-.0421.09497-.0856.12341l-3.7948 2.44639 3.8308-2.21159c.0453-.02539.0987-.03215.1489-.01886.0503.01329.0933.0456.1201.09009.0269.04449.0353.09766.0236.14827s-.0426.09469-.0862.1229l-1.24.77639 1.1776-.68c.0225-.0135.0475-.0224.0735-.0263.026-.0038.0525-.0025.0779.0039.0255.0064.0495.0177.0706.0334.0211.0156.0389.0353.0524.0578s.0224.0475.0263.0735c.0038.026.0025.0525-.0039.078-.0064.0254-.0177.0494-.0334.0705-.0156.0211-.0353.0389-.0578.0524l-.2704.1684.1684-.0976c.0452-.0277.0996-.0363.1512-.0238.0516.0124.0961.0448.1238.09.0277.0453.0363.0997.0238.1512-.0124.0516-.0448.0961-.09.1238l-3.2904 2.1248 3.1844-1.8372c.0452-.0257.0986-.0328.1489-.0198s.0936.045.1207.0894c.0271.0443.0359.0975.0244.1482-.0114.0507-.0421.095-.0856.1234l-2.64 1.6972 2.4708-1.426c.0452-.0257.0986-.0328.1489-.0198s.0936.045.1207.0894c.0271.0443.0359.0975.0244.1482-.0114.0507-.0421.095-.0856.1234l-2.4 1.5496 2.1696-1.2524c.045-.0251.0979-.032.1478-.019.0499.0129.0929.0446.12.0885.0271.0438.0362.0964.0254.1468-.0108.0505-.0406.0948-.0832.1237l-2.6112 1.7172 2.302-1.3288c.0449-.026.0982-.0336.1486-.021.0504.0125.0939.0441.1214.0882.0275.044.0367.0971.0258.1478-.0109.0508-.0411.0953-.0842.1242l-2.5028 1.6768 2.07-1.1948c.0443-.0252.0966-.0325.1462-.0205.0495.0121.0926.0426.1204.0854.0278.0427.0382.0945.0291.1447-.0091.0501-.0371.0949-.0781.1252l-2.8668 2.0888 2.074-1.1972c.0442-.0253.0965-.0328.146-.0209.0496.0119.0928.0422.1207.0849.0279.0426.0385.0943.0296.1445s-.0366.0951-.0775.1255l-1.0584.7796c.047-.0181.0991-.0178.1459.0009.0468.0186.0848.0542.1065.0997s.0254.0974.0104.1455-.0475.0888-.0912.1139l-3.0612 1.7676c-.0442.0254-.0965.0328-.146.021-.0496-.0119-.0928-.0423-.1207-.0849-.0279-.0427-.0385-.0944-.0296-.1446s.0366-.0951.0775-.1255l1.04-.7672-2.2276 1.286c-.03.0175-.0641.0268-.0988.0268z" fill="#fdd026"/><path d="m4.79282 7.4232c-.04109-.00002-.08117-.01269-.11481-.0363-.03363-.0236-.05917-.05699-.07316-.09562-.01398-.03864-.01573-.08064-.005-.12031.01073-.03966.03341-.07505.06497-.10137l.8828-.738-.8676.4996c-.04354.02453-.09468.03188-.14336.02059s-.09138-.04039-.11967-.08158c-.0283-.0412-.04015-.09149-.03322-.14098s.03213-.09459.07065-.12643l.4188-.3384-.3644.2104c-.04332.02483-.09435.03255-.14308.02166-.04872-.01089-.09161-.03961-.12024-.08052-.02862-.0409-.04091-.09103-.03445-.14054s.03121-.09481.06937-.127l.28-.234-.2132.1232c-.04074.0234-.08842.0317-.13467.02346s-.08813-.0325-.11829-.06852c-.03015-.03603-.04666-.08152-.04663-.1285.00002-.04698.01659-.09245.04679-.12844l.6-.7096-.5968.3444c-.04063.02345-.08821.03187-.13441.0238-.04621-.00808-.08811-.03214-.11838-.06798-.03026-.03584-.04696-.08118-.04719-.12809-.00022-.04691.01606-.0924.04598-.12853l.2436-.2932-.174.1004c-.03621.02081-.07802.02976-.11957.0256s-.08076-.02122-.11212-.04879c-.03137-.02757-.05331-.06427-.06277-.10494-.00945-.04068-.00593-.08329.01006-.12187l.16-.3844c-.04646.02127-.0993.02396-.14768.0075-.04837-.01645-.08862-.0508-.11246-.09599-.02385-.0452-.0295-.0978-.01579-.14703.01371-.04922.04575-.09133.08953-.11768l.4988-.288c.03621-.0208.07802-.02976.11957-.0256s.08076.02123.11212.0488.05331.06426.06276.10494c.00946.04067.00594.08329-.01005.12186l-.16.3836.6304-.3636c.04062-.02321.0881-.03144.13416-.02327.04607.00818.08781.03224.11796.06801.03016.03577.04682.08098.04709.12776.00027.04679-.01587.09219-.04561.1283l-.2432.2928.62-.3576c.04074-.02339.08842-.0317.13467-.02346s.08813.0325.11828.06852c.03016.03603.04667.08152.04664.1285-.00002.04698-.01659.09245-.04679.12844l-.6.7092 1.2-.6924c.04332-.02482.09435-.03255.14308-.02166.04872.01089.09161.03961.12023.08052.02863.0409.04092.09104.03446.14054-.00646.04951-.03121.09481-.06937.127l-.28.2336.6076-.3508c.04355-.02497.0949-.03265.14385-.02151s.09193.04028.12039.08163c.02846.04136.04032.0919.03324.1416s-.0326.09492-.07148.12668l-.4204.3392.6448-.372c.04337-.02493.0945-.03271.14332-.0218s.09177.03972.12039.08075c.02863.04102.04084.09128.03423.14087-.00662.04958-.03157.09489-.06994.12698l-1.1736.982c.03693.01171.06967.03389.09423.06385.02456.02997.03989.06642.04413.10493s-.0028.07742-.02026.11201c-.01747.03459-.0446.06335-.0781.08281l-1.5472.8928c-.03031.01782-.06484.02721-.1.0272z" fill="#e2b321"/><path d="m3.58479 13.935c-.0341 0-.06764-.0088-.09743-.0254-.02978-.0166-.05482-.0405-.07274-.0696-.01791-.029-.02811-.0621-.02962-.0962s.00571-.0679.02099-.0984l.148-.2956-.49.2828c-.03968.0226-.0859.0309-.13098.0236s-.08631-.0298-.11682-.0638c-.03052-.0339-.04849-.0773-.05093-.1229-.00243-.0456.01081-.0907.03753-.1277l.4644-.6348-.9872.5696c-.04157.0237-.0903.0318-.13733.0227-.04702-.0091-.08921-.0348-.1189-.0724s-.04491-.0845-.04288-.1324c.00202-.0479.02116-.0934.05391-.1283l.9068-.958-1.52.88c-.0436.0251-.09506.0328-.14412.0217-.04906-.0112-.09212-.0404-.12058-.0819-.02847-.0415-.04025-.0922-.033-.142.00724-.0498.03299-.095.0721-.1266l.72-.578-1.099996.6316c-.039389.0225-.085262.0309-.130088.0239s-.085941-.029-.116595-.0624c-.030655-.0335-.049027-.0764-.052101-.1216-.003074-.0453.009333-.0903.035184-.1275l.3848-.55-.394.2272c-.045708.0239-.098888.0292-.148429.0148-.049542-.0143-.091615-.0473-.11743-.092-.025815-.0446-.033376-.0975-.021104-.1476.012273-.0501.04343-.0936.086963-.1212l1.175196-.68c.03943-.0227.08541-.0313.13036-.0243s.08617.0291.11688.0626c.03071.0336.04907.0766.05204.122.00298.0453-.00961.0904-.03568.1277l-.3848.5496 2.5688-1.4828c.04361-.0251.09507-.0329.14413-.0217.04906.0111.09212.0403.12058.0818.02847.0415.04025.0922.033.142s-.03299.095-.07211.1267l-.7192.58.46-.2656c.04158-.0238.09031-.0319.13733-.0228.04703.0091.08922.0348.11891.0724s.0449.0846.04288.1324c-.00203.0479-.02116.0934-.05392.1284l-.908.96.6196-.3572c.03968-.0226.0859-.031.13099-.0237.04508.0073.0863.0298.11682.0638s.04849.0774.05092.123c.00244.0456-.0108.0906-.03753.1277l-.4644.6332.2456-.1416c.03723-.0219.08055-.0312.12348-.0264.04293.0047.08317.0233.11468.0528.03152.0296.05263.0685.06017.111.00754.0426.00111.0864-.01833.125l-.16.32c.03977-.0055.08025.0009.11643.0182.03619.0174.0665.045.08717.0794.01318.0228.02173.0479.02516.074.00344.0261.00168.0526-.00515.078-.00684.0255-.01863.0493-.03469.0701-.01607.0209-.03609.0384-.05892.0515l-.4964.2864c-.03076.0168-.06535.0253-.1004.0248z" fill="#e2b321"/><path d="m19.9088 13.5413c-.0412 0-.0813-.0127-.115-.0364-.0336-.0236-.0592-.0571-.0731-.0958-.014-.0387-.0157-.0808-.0048-.1205.0108-.0397.0336-.0751.0653-.1013l.7644-.6344-.4616.2664c-.0432.0249-.0941.0328-.1428.0222-.0488-.0107-.0917-.0392-.1205-.0799s-.0414-.0907-.0352-.1402.0306-.0949.0685-.1273l.3228-.276-.0664.04c-.0407.0232-.0882.0313-.1343.023s-.0879-.0325-.1179-.0683c-.0301-.0359-.0467-.0813-.0468-.1281s.0163-.0922.0462-.1282l.4908-.5852-.2648.1528c-.0354.0202-.0762.0292-.1168.0256-.0407-.0035-.0793-.0194-.1106-.0456-.0313-.0261-.0539-.0612-.0648-.1005-.0108-.0393-.0094-.081.0042-.1195l.2124-.5796c-.047.0205-.1.0222-.1482.0047-.0481-.0174-.0878-.0527-.1107-.0985s-.0274-.0987-.0125-.1477.048-.0904.0926-.1157l.4548-.2676c.0356-.0206.0766-.0298.1176-.0262s.0798.0197.1113.0461c.0315.0265.0541.062.0646.1017.0106.0398.0087.0818-.0055.1204l-.212.5792.7708-.4448c.0407-.0234.0883-.0318.1346-.0236.0462.0082.0881.0324.1183.0684.0302.0359.0468.0814.0468.1283.0001.047-.0164.0924-.0465.1285l-.4912.5848.9652-.5568c.0431-.0245.0938-.032.1422-.0213.0484.0108.091.0392.1197.0797.0286.0404.0412.0901.0353.1393s-.0298.0945-.0672.1271l-.3236.2768.6248-.36c.0434-.0251.0946-.0329.1436-.022.0489.011.0919.0399.1205.081.0287.0412.0408.0915.034.1412s-.0319.095-.0705.127l-.7644.6344 1.1688-.6748c.04-.023.0867-.0314.1322-.0238.0455.0075.087.0306.1175.0652.0304.0347.048.0788.0496.1249.0017.0461-.0126.0913-.0405.1281l-.59.7756.7848-.4532c.0228-.0145.0482-.0242.0748-.0286s.0539-.0033.0801.0031.0508.0181.0724.0343c.0216.0161.0396.0365.0531.0599.0135.0233.0222.0492.0254.0759.0033.0268.0011.054-.0064.0799s-.0202.05-.0373.0709-.0382.0381-.0621.0506l-1.6468.9504c-.04.0227-.0866.031-.1319.0234-.0454-.0076-.0868-.0306-.1172-.0651s-.0479-.0785-.0497-.1244c-.0018-.046.0124-.0912.04-.1279l.5904-.776-2.3508 1.3568c-.0303.0178-.0648.0272-.1.0272z" fill="#e2b321"/><path d="m4.07083 20.5254c-.04031-.0001-.07966-.0123-.11291-.0351-.03324-.0227-.05883-.055-.0734-.0926-.01458-.0376-.01745-.0787-.00826-.1179.00919-.0393.03002-.0748.05977-.102l1.2236-1.12-1.348.782c-.04355.0249-.0949.0326-.14386.0215-.04895-.0112-.09192-.0403-.12038-.0817-.02846-.0413-.04033-.0919-.03324-.1416.00708-.0497.0326-.0949.07148-.1266l.6136-.5-.0988.0572c-.04261.0247-.09284.0329-.14108.0228-.04824-.01-.09108-.0374-.12033-.0771-.02924-.0396-.04282-.0887-.03813-.1377.00469-.0491.02731-.0946.06354-.128l.5624-.52-.0152.0088c-.04262.0255-.0932.0342-.1419.0245-.04869-.0098-.09203-.0373-.12157-.0772s-.04318-.0894-.03825-.1388.02807-.0952.06492-.1285l.2856-.2676c-.0285-.0115-.05386-.0296-.074-.0528-.03061-.0345-.04836-.0785-.05026-.1246-.00189-.0461.01219-.0914.03986-.1282l.2968-.3936c-.02329-.0164-.04269-.0377-.0568-.0624-.02652-.046-.03371-.1006-.01998-.1518.01372-.0512.04724-.0949.09318-.1214l.4536-.262c.0399-.0231.08654-.0316.13203-.0242.04548.0073.08703.0302.1176.0647s.0483.0784.05019.1245c.00189.046-.01218.0913-.03982.1282l-.116.154.2304-.1328c.04261-.0255.09319-.0343.14189-.0245.0487.0097.09203.0372.12158.0771.02954.0399.04317.0894.03824.1388-.00493.0495-.02807.0953-.06491.1286l-.04.0352.0576-.0328c.04259-.0244.09267-.0323.14069-.0222.04802.0102.09064.0376.11974.0771.02911.0396.04266.0884.03808.1373s-.02698.0943-.06291.1278l-.56.52.7148-.4124c.0435-.0249.09474-.0325.14359-.0214.04884.0111.09174.0402.12019.0814.02846.0413.04041.0917.03349.1413s-.03222.0948-.07087.1267l-.6144.5004.7792-.4496c.04257-.0238.09235-.0311.13997-.0207.04762.0103.08981.0377.11865.077.02883.0393.04232.0878.03794.1364-.00439.0485-.02635.0938-.06176.1273l-1.2236 1.1156 1.6148-.932c.03871-.0222.08374-.0309.12792-.0245.04418.0063.08497.0272.11588.0594s.05016.0738.05469.1182-.00592.0891-.02969.1269l-.1572.2468.0732-.04c.02276-.0145.04822-.0242.07483-.0286.02662-.0044.05385-.0033.08004.0031.0262.0064.05083.0181.07241.0342.02158.0162.03967.0366.05317.06.01349.0233.02213.0492.02538.0759.00326.0268.00106.054-.00646.0799-.00751.0259-.02019.05-.03727.0709s-.0382.0381-.0621.0506l-.7808.4508c-.03872.0222-.08375.0308-.12793.0245-.04418-.0064-.08497-.0273-.11588-.0595s-.05016-.0738-.05469-.1182.00592-.0891.0297-.1268l.1572-.2464-2.5008 1.4436c-.03052.017-.06505.0256-.1.0248z" fill="#e2b321"/><path d="m19.8 20.5249c-.0348 0-.0691-.0092-.0993-.0265-.0303-.0174-.0554-.0423-.0731-.0724-.0176-.0301-.027-.0642-.0274-.0991-.0004-.0348.0084-.0692.0254-.0996l.0864-.1544-.3864.2228c-.0387.0222-.0837.0308-.1279.0245s-.085-.0273-.1159-.0595-.0501-.0738-.0547-.1182c-.0045-.0444.006-.089.0297-.1268l.34-.5352-.8856.5112c-.0419.0231-.0908.0303-.1376.0204-.0469-.0099-.0886-.0363-.1177-.0743-.029-.0381-.0434-.0853-.0406-.1331s.0226-.093.0559-.1274l.3424-.3436-.7336.4216c-.0418.0241-.0909.0323-.1382.0231-.0474-.0093-.0898-.0353-.1195-.0733-.0296-.0381-.0445-.0856-.042-.1338.0026-.0481.0225-.0938.0561-.1284l.798-.8272-1.4152.8172c-.0425.0237-.0923.0311-.1399.0207-.0477-.0104-.0899-.0378-.1187-.0771s-.0423-.0878-.0379-.1363.0263-.0938.0617-.1273l1.0264-.9336-1.16.6704c-.0426.0237-.0923.0311-.1399.0207-.0477-.0104-.0899-.0378-.1187-.0771s-.0423-.0878-.0379-.1363.0263-.0938.0617-.1273l1.7976-1.64c-.0167-.0444-.017-.0932-.0011-.1378.016-.0446.0473-.0821.0883-.1058l.5084-.2932c.0426-.0234.0922-.0305.1397-.02.0474.0104.0894.0378.1181.077s.0421.0875.0378.1359c-.0042.0484-.026.0936-.0612.1271l-.9956.9064 1.1712-.676c.0426-.0237.0924-.0311.14-.0207s.0898.0378.1186.0771c.0289.0393.0424.0877.038.1363-.0044.0485-.0264.0938-.0618.1273l-1.0268.9364 1.0376-.6c.0418-.0241.0909-.0323.1383-.0231.0473.0092.0897.0353.1194.0733.0297.0381.0446.0856.042.1338-.0026.0481-.0225.0937-.0561.1284l-.798.8268.8064-.4652c.0419-.0228.0906-.0298.1373-.0199.0466.01.0882.0363.1171.0742.029.0379.0435.0849.0408.1325-.0026.0476-.0222.0927-.0552.1272l-.3424.3444.2856-.1652c.0387-.0222.0838-.0308.1279-.0245.0442.0063.085.0273.1159.0595s.0502.0738.0547.1182c.0046.0444-.0059.089-.0297.1268l-.34.5344.3096-.1784c.0379-.0218.082-.0306.1254-.025s.0837.0253.1149.056c.0311.0307.0513.0708.0575.1141.0061.0433-.0021.0875-.0234.1257l-.1136.2036c.0436.0009.0857.0161.1199.0431.0342.0271.0586.0646.0695.1068.011.0422.0078.0868-.009.1271-.0168.0402-.0463.0739-.084.0958l-.4984.288c-.0295.0173-.063.0265-.0972.0268z" fill="#e2b321"/><path d="m11.938 23.7811c-.0371 0-.0735-.0103-.1051-.0298-.0316-.0196-.0572-.0475-.0738-.0807s-.0236-.0704-.0203-.1074c.0034-.037.0169-.0723.0392-.1021l.28-.3644-.446.2576c-.0422.0251-.0923.0337-.1405.0243-.0482-.0095-.0912-.0364-.1209-.0755-.0297-.0392-.0439-.0879-.0399-.1369.0039-.049.0257-.0948.0613-.1287l.5568-.5376-.56.3228c-.0425.0235-.0922.0306-.1396.0201s-.0894-.0379-.1181-.0771-.0422-.0875-.0379-.1359.026-.0935.0612-.1271l1.0732-.9732-1.1276.6492c-.0437.0246-.0951.0319-.1439.0204s-.0916-.041-.1197-.0825c-.0282-.0415-.0397-.0921-.0322-.1417.0074-.0496.0332-.0947.0722-.1262l.3956-.3112-.3672.2116c-.0431.0248-.0938.0326-.1424.022-.0485-.0106-.0914-.0389-.1202-.0794s-.0415-.0903-.0356-.1396c.0059-.0494.0299-.0948.0674-.1274l.2516-.2176-.2116.12c-.0421.0237-.0913.0313-.1385.0216-.0473-.0098-.0894-.0363-.1186-.0747-.0293-.0384-.0436-.0861-.0405-.1343.0032-.0481.0236-.0935.0576-.1278l.0628-.062c-.0355.0193-.0761.0273-.1163.023s-.0782-.0207-.1089-.047-.0527-.0612-.0631-.1003c-.0105-.0391-.0088-.0804.0047-.1185l.1244-.3532c-.0463.0229-.0997.0269-.149.0112-.0492-.0156-.0905-.0497-.1151-.0951-.0247-.0454-.0308-.0986-.0172-.1484.0137-.0498.0461-.0924.0905-.1189l.4588-.2648c.0354-.0205.0763-.0297.1171-.0263.0408.0035.0796.0193.1111.0455s.0542.0614.065.1009c.0109.0395.0093.0814-.0044.1199l-.124.3532.866-.5c.0421-.0236.0913-.0313.1385-.0215.0473.0098.0894.0363.1187.0747.0292.0384.0436.0861.0404.1342-.0031.0482-.0236.0936-.0576.1278l-.0624.0616.6888-.3972c.0431-.0247.0939-.0326.1424-.0219.0486.0106.0914.0389.1202.0794s.0415.0903.0357.1396c-.0059.0494-.03.0947-.0675.1273l-.252.2184.9668-.5548c.0437-.0246.0951-.0318.1439-.0203.0489.0115.0916.0409.1197.0825.0282.0415.0397.0921.0323.1417s-.0332.0946-.0723.1261l-.394.3104.336-.194c.0426-.0234.0922-.0305.1396-.02.0475.0105.0895.0379.1182.0771s.0421.0875.0378.1359-.026.0935-.0612.127l-1.0732.9728.3492-.2c.0423-.025.0923-.0336.1405-.0242.0482.0095.0913.0363.1209.0755.0297.0392.0439.0879.04.1369-.004.0489-.0258.0947-.0614.1286l-.59.5692c.0402-.0082.082-.004.1197.0123s.0694.0438.091.0787c.0215.0349.0317.0757.0293.1166-.0024.041-.0173.0803-.0428.1124l-.45.5852c.0277.0175.0507.0414.0672.0696.0132.0228.0217.048.0252.0741.0034.0261.0017.0526-.0052.078-.0068.0254-.0186.0493-.0347.0701-.016.0209-.0361.0383-.0589.0514l-.4952.2824c-.031.0178-.0662.0269-.102.0264z" fill="#e2b321"/><path d="m13.274 4.28671c-.0315 0-.0626-.00744-.0907-.02173-.0281-.01428-.0524-.03499-.0709-.06046-.0186-.02546-.0309-.05494-.0359-.08605s-.0026-.06296.0071-.09296l.1292-.4024-.9396.5424c-.0421.02366-.0913.03131-.1386.02154-.0472-.00977-.0893-.03631-.1186-.0747-.0292-.0384-.0436-.08607-.0404-.13423.0031-.04816.0236-.09355.0576-.12781l.1004-.0988-.7736.4452c-.0423.02548-.0926.03439-.1411.02504-.0485-.00936-.0918-.03632-.1216-.0757-.0298-.03939-.0439-.0884-.0398-.13761.0042-.04921.0265-.09514.0625-.12893l.68-.6508-1.4128.816c-.0426.02474-.0929.03289-.1411.02288s-.0911-.03747-.1203-.07712c-.0293-.03965-.0428-.08869-.0382-.13774.0047-.04904.0273-.09462.0636-.12802l1.214-1.1244-.6524.3764c-.042.02335-.0911.03079-.1381.02095-.0471-.00983-.089-.03628-.1181-.07451-.0292-.03822-.0436-.08566-.0406-.13364.003-.04797.0231-.09327.0568-.1276l.8188-.8128-.0916.0524c-.0398.02296-.0862.03154-.1316.02431-.0453-.00724-.0868-.02986-.1174-.06406s-.0486-.0779-.0508-.12376.0114-.09108.0386-.12809l.5352-.729597c-.032-.016434-.059-.041185-.0781-.071648s-.0296-.065512-.0305-.101457c-.0008-.035945.008-.071457.0256-.102798.0177-.031342.0434-.057353.0746-.075297l.4964-.2848c.0398-.023363.0864-.032239.132-.025126.0456.007114.0874.02978.1182.064156.0308.034375.0487.078344.0508.124451.0021.046106-.0118.091513-.0394.128519l-.4.543197.6-.346797c.042-.02335.091-.030787.1381-.020951.047.009835.0889.036286.1181.07451.0291.038225.0435.085666.0405.133639-.0029.047974-.0231.093269-.0567.127599l-.8164.8132.864-.4984c.0426-.02474.0928-.03289.141-.02288.0483.01001.0911.03747.1204.07712.0292.03965.0428.0887.0381.13774s-.0273.09463-.0635.12802l-1.2136 1.1228 1.2932-.7464c.0422-.02506.0922-.03368.1405-.02423.0482.00945.0912.03633.1209.07549.0297.03917.0439.08788.0399.13686-.0039.04897-.0258.09478-.0613.12868l-.6788.6512.696-.4c.042-.02365.0912-.0313.1385-.02153s.0894.0363.1186.0747c.0293.0384.0436.08607.0405.13423-.0032.04815-.0236.09355-.0576.1278l-.1004.0992.0376-.022c.035-.02019.0752-.02932.1155-.02618s.0786.0184.1101.04377c.0314.02537.0544.05966.066.09836s.0111.08-.0012.11845l-.1292.402.0088-.0052c.0227-.01447.0482-.02418.0748-.02856s.0539-.00333.0801.00309c.0261.00642.0508.01807.0724.03425.0215.01618.0396.03656.0531.05992.0135.02335.0222.04919.0254.07597.0033.02678.0011.05394-.0065.07984-.0075.02591-.0201.05002-.0372.0709s-.0382.03809-.0621.05059l-.458.2648c-.0303.01701-.0645.02583-.0992.0256z" fill="#e2b321"/><path d="m18.476 7.48179c-.0385.00003-.0761-.01103-.1085-.03187-.0323-.02084-.058-.05056-.0738-.0856-.0159-.03504-.0213-.07391-.0157-.11196.0057-.03806.0222-.07367.0476-.10257l.4368-.4976-.5644.3256c-.042.02335-.091.03079-.1381.02095-.047-.00983-.089-.03628-.1181-.07451-.0292-.03822-.0436-.08566-.0406-.13363.003-.04798.0231-.09328.0568-.12761l.926-.92-1.196.6904c-.0442.02548-.0964.03314-.146.02143-.0496-.01172-.0928-.04192-.1209-.08445s-.0389-.09417-.0301-.14439c.0087-.05021.0362-.0952.077-.12579l.0536-.04-.1456.0836c-.0432.02454-.0939.03214-.1424.02133-.0485-.01082-.0912-.03928-.1198-.07985-.0287-.04057-.0412-.09034-.0352-.13963.0061-.04929.0302-.09458.0678-.12705l1.0176-.8652-1.32.7624c-.0384.02194-.083.03053-.1268.02443-.0438-.00609-.0843-.02653-.1153-.05812-.0309-.03159-.0505-.07254-.0557-.11645-.0052-.04392.0043-.08832.027-.12626l.1736-.2876-.1088.0624c-.0228.01447-.0482.02419-.0749.02857-.0266.00438-.0538.00333-.08-.00309s-.0508-.01807-.0724-.03425c-.0216-.01619-.0397-.03657-.0532-.05992s-.0221-.0492-.0254-.07597c-.0032-.02678-.001-.05394.0065-.07984.0075-.02591.0202-.05003.0373-.07091.0171-.02087.0382-.03808.0621-.05059l.7816-.4512c.0384-.02211.083-.03085.127-.02483.0439.00601.0845.02644.1156.05807.031.03164.0506.07268.0558.11669s-.0044.0885-.0272.12647l-.174.2876 2.5552-1.4744c.0432-.02453.0939-.03214.1424-.02132.0484.01082.0912.03928.1198.07985.0286.04056.0412.09033.0351.13963-.006.04929-.0301.09457-.0677.12704l-1.0164.864 1.14-.6576c.0441-.02491.096-.03215.1453-.02025.0492.0119.0921.04204.12.08435.0279.0423.0387.09361.0302.14357-.0085.04995-.0356.09481-.0759.12553l-.3092.2316c.0375.00403.0732.01859.1028.04201.0296.02343.0519.05475.0645.09036s.0148.07404.0064.11085c-.0084.03682-.027.07051-.0537.09718l-.9264.92.2836-.1636c.041-.02379.0892-.03222.1359-.02376s.0889.03325.119.06994.0462.08289.0453.13034c-.0008.04745-.0185.09306-.0498.12868l-.4884.5536c.036-.00143.0717.00716.1031.02482.0315.01765.0574.04368.0749.07518.0265.04594.0337.10053.02.15176-.0138.05124-.0473.09492-.0932.12144l-.9036.52c-.03.01888-.0646.02925-.1.03z" fill="#e2b321"/><g fill="#262626"><path d="m18.6916 11.9727c-.7184-11.136756-17.55482-6.46476-12.45162 3.4368 3.2284 5.658 12.57282 3.072 12.45162-3.4368zm-4.5384 5.8688c-9.95722 2.9488-11.30362-13.38316-.9532-11.91516 5.8584 1.1048 6.6052 9.92436.9532 11.91516z"/><path d="m5.61516 7.55522c.3468-.9376 3.1324-2.1096 1.742-2.988-1.0776-.1824-3.8904-2.2612-3.96-.1848.6364.9228.6192 3.9152 2.218 3.1728zm-1.2764-2.36c-1.3672-2.5692 1.5796-.3812 2.72-.2088.5072.448-1.6128 1.564-1.8052 2.2608-.5092-.3292-.5736-1.4584-.9148-2.0536z"/><path d="m.427177 12.5428c3.826803 1.7368 4.146003 2.4044 3.880003-2.2264-.594-.55404-1.4344.2532-2.058.4324-.6064.384-2.956403.832-1.822003 1.794zm.4092-.9416c.901603-.4204 1.814803-.8232 2.720003-1.238.4704.186.146.76.174 1.1324-.12.7044.1388 1.442.032 2.12-.6472-.5536-3.585603-.9488-2.926003-2.0144z"/><path d="m23.5364 12.493c1.4556-1.1316-2.44-2.086-3.1952-2.4188-.9944.0452-.6696 1.0464-.6356 1.7116-.6948 3.7988 1.9188 1.4004 3.8308.7072zm-2.8.9468c-.1016.046-.52.1472-.4756-.7636.0368-.7632-.1436-1.5524-.0072-2.2588.68.544 3.3776.9292 2.9548 1.9012z"/><path d="m3.40195 19.7494c-.0504 1.772 3.158-.4112 4.062-.5288.7468-.4116 0-.96-.4216-1.2624-2.5124-3.244-2.6612-.6532-3.6404 1.7912zm1.658-3.0068c.01161-.0275.02497-.0543.04-.08 2.654 2.8748 2.9528 2.1224-.8364 3.5656-.828-.6668.664-2.538.7964-3.4856z"/><path d="m16.5948 19.3894c1.084.1796 3.8728 2.2492 4.008.2308-.6476-.9316-.5384-3.546-2.0356-3.2284-.6372.416-.9796 1.2-1.6216 1.6436-.5056.268-1.1536 1.0092-.3508 1.354zm2.17-2.6996c.01-.0132.012-.0048 0 0zm-1.494 1.5912c.5671-.4575 1.0682-.9912 1.4892-1.586.3568.2656.3676.8736.5816 1.2644.1272.7004.876 1.5372.5968 2.2-.6292-.4504-4.2788-.8832-2.6676-1.8784z"/><path d="m13.1376 19.7915c-.9052.3872-3.20002-.7312-3.15162.77.63642 1.4144 1.82722 5.1552 3.09482 1.9332.2428-.808 1.916-2.9708.0568-2.7032zm-.372 2.2124c-.2376.48-.4024.9868-.6856 1.44-.714-.794-.9628-2.048-1.4988-3.0028-.0387-.0584-.0581-.1276-.0553-.1977.0028-.07.0276-.1375.0709-.1927 1.9444.4312 3.8328-.982 2.1688 1.9532z"/><path d="m10.742 4.24825c.9436-.4316 3.298.7392 3.276-.7968-1.4492-3.665598-2.1976-4.6652-3.8336-.33-.42441.5376-.21641 1.2892.5576 1.1268zm2.7048-.302c.0244 0 .0472.0084 0 0zm-2.8868-.4552c.4508-.9696.862-2.0068 1.36-2.933998.4.2436.4736.879998.72 1.282798.2.6868.88 1.4.7772 2.0984-.652-.3792-3.0404.4656-2.8572-.4472z"/><path d="m20.6024 4.2698c.1836-1.1384-1.2052-.7152-1.8-.41-.7704.486-2.4328.4124-2.5828 1.4556 3.0204 3.3568 2.9512 3.0684 4.3828-1.0456zm-1.7224 3.0748c-.02-.0228-.008.0256 0 0zm.058-.1036c-.0088.02-.026.0452-.04.068-2.7928-2.9288-2.8-2.012.8892-3.49.6968.5692-.7024 2.5708-.85 3.4228z"/><path d="m10.7764 7.26618c-1.95561-.0744-5.09601 4.80562-3.22401 3.88442.274-1.93962 1.8236-3.27001 3.53761-3.87441-.0232-.0856-.2724-.02121-.3136-.01001z"/></g></g></svg>