<svg fill="none" height="32" viewBox="0 0 32 32" width="32" xmlns="http://www.w3.org/2000/svg"><path d="m12.4397 30.3803c-.054-.0001-.1067-.0164-.1515-.0466-.0447-.0302-.0794-.0731-.0996-.1232s-.0251-.105-.0139-.1578c.0112-.0529.0379-.1011.0766-.1387l.6514-.6275-.4136.2388c-.0452.0261-.0971.0386-.1492.036-.0522-.0026-.1025-.0202-.1449-.0507s-.0751-.0726-.0942-.1212-.0237-.1017-.0134-.1529l.177-.8685c-.0484-.0174-.0908-.0483-.1224-.0889-.0315-.0406-.0508-.0894-.0557-.1406s.0048-.1027.0281-.1486c.0233-.0458.0591-.0841.1033-.1104l.2714-.1575c.0452-.0261.097-.0386.1492-.0359.0522.0026.1025.0202.1449.0507.0424.0304.0751.0725.0942.1211s.0237.1017.0134.1529l-.152.747 1.8022-1.0406c.0573-.034.1252-.0458.1906-.0329.0655.0128.1239.0493.1641.1024.0403.0532.0596.1193.0542.1857-.0053.0665-.035.1287-.0832.1747l-.6482.6264 1.8375-1.0607c.0553-.0314.1199-.0423.1825-.031.0626.0114.1192.0444.1599.0933.0408.0489.063.1105.063.1741-.0001.0637-.0226.1252-.0634.174l-.8197.9668 2.3906-1.3859c.0577-.0309.1247-.04.1886-.0255.0639.0146.1203.0517.159.1047.0386.0529.0568.118.0512.1832-.0056.0653-.0347.1264-.0818.1719l-.4684.4201.8815-.5086c.0536-.0307.116-.0422.177-.0327s.1169.0396.1585.0852.0665.104.0704.1656c.004.0616-.0132.1228-.0487.1733l-.564.799.2144-.1232c.0309-.0196.0655-.0328.1016-.0388.0361-.0059.073-.0045.1086.0042s.069.0246.0983.0465c.0292.022.0538.0496.0721.0813s.03.0668.0345.1031c.0044.0364.0014.0732-.0088.1084-.0102.0351-.0274.0679-.0506.0962s-.0518.0517-.0843.0687l-1.2848.7415c-.0535.0304-.1158.0418-.1767.0323-.0608-.0096-.1166-.0396-.1581-.085-.0415-.0455-.0664-.1037-.0705-.1652-.004-.0614.0129-.1224.0481-.173l.5634-.799-2.0692 1.1942c-.0577.031-.1247.04-.1886.0255-.0639-.0146-.1203-.0517-.159-.1046-.0386-.0529-.0568-.118-.0512-.1833s.0347-.1263.0818-.1719l.4684-.4196-1.49.8604c-.0554.0317-.1201.043-.1829.0317s-.1196-.0443-.1605-.0932c-.0409-.049-.0632-.1108-.063-.1746.0001-.0638.0227-.1255.0638-.1743l.8203-.9667-2.3939 1.382c-.0412.0241-.088.0367-.1357.0364z" fill="#57787d"/><g fill="#86a9af"><path d="m11.2349 31.9905c-.053.0002-.1049-.0152-.1492-.0442-.0444-.029-.0793-.0704-.1004-.119s-.0276-.1023-.0185-.1545c.009-.0523.0332-.1007.0694-.1393l.38-.4034-.5548.3198c-.0578.034-.1262.0455-.192.0321-.0657-.0134-.1242-.0507-.1641-.1047s-.0583-.1208-.0518-.1876.0375-.1288.0871-.1741l.4017-.3756-.0831.0477c-.0577.0322-.1253.0422-.1899.0282-.0646-.0141-.1219-.0513-.161-.1047-.0391-.0533-.0575-.1191-.0515-.185.0059-.0658.0357-.1273.0838-.1727l.2844-.2584c-.0564.0228-.1189.0259-.1774.0089-.0585-.0171-.1095-.0533-.1449-.1029-.0354-.0495-.0531-.1095-.0503-.1704.0029-.0608.0261-.1189.0659-.165l1.0439-1.1855-.7057.4071c-.0578.0352-.1267.0475-.1931.0345-.0665-.013-.1256-.0504-.1659-.1048-.0403-.0543-.0589-.1218-.052-.1892.0069-.0673.0387-.1296.0891-.1748l.4424-.4158-.1183.0684c-.0555.032-.1205.0434-.1836.032-.0631-.0113-.1201-.0446-.161-.0939-.0408-.0493-.063-.1115-.0624-.1756s.0238-.1259.0656-.1745l1.091-1.2642-.7496.4343c-.0454.0262-.0975.0387-.1499.0359-.0524-.0027-.1029-.0206-.1453-.0515-.0425-.0308-.0751-.0733-.0939-.1223-.0188-.0489-.023-.1023-.012-.1536l.1747-.8197c-.0489-.0173-.0919-.0482-.1239-.0892-.0319-.041-.0514-.0903-.0561-.142s.0055-.1037.0294-.1498.0606-.0844.1056-.1103l.2752-.1585c.0455-.0263.0976-.0388.1501-.036.0524.0027.103.0207.1454.0516.0425.0309.0751.0735.0938.1226.0188.049.0229.1025.0118.1539l-.1476.6937 1.6089-.9282c.0555-.032.1206-.0434.1836-.032.0631.0113.1201.0446.161.0939s.063.1115.0624.1756-.0238.1259-.0655.1745l-1.0917 1.2648.7502-.4343c.0579-.0346.1265-.0465.1926-.0333s.1249.0506.165.1047c.0401.0542.0586.1214.0519.1884-.0067.0671-.0381.1293-.0881.1745l-.4397.4147.1183-.0684c.0557-.032.121-.0431.1841-.0315.0632.0116.1202.0453.1609.0949.0407.0497.0625.1122.0614.1764-.001.0643-.0248.126-.0671.1744l-1.0439 1.1828.7057-.4066c.0578-.0322.1253-.0422.19-.0281.0646.0141.1219.0513.161.1046s.0574.1191.0515.185c-.006.0659-.0358.1273-.0838.1728l-.2845.2578c.0589-.0239.1242-.0264.1847-.0071.0606.0193.1124.0593.1465.1129s.0483.1174.0401.1804c-.0081.063-.0381.1212-.0847.1643l-.4011.3746.0803-.0461c.0563-.0323.1223-.0433.1861-.0311.0637.0122.121.0469.1613.0977.0404.0508.0612.1144.0587.1793-.0025.0648-.0281.1266-.0722.1742l-.38.4039.0439-.025c.0621-.0325.1342-.0397.2015-.0202.0672.0195.1243.0643.1593.1249.0351.0606.0453.1324.0287.2004-.0167.068-.059.1269-.118.1644l-1.6285.9386c-.0399.0241-.0853.0374-.1319.0385z"/><path d="m19.2388 31.9922c-.0518 0-.1025-.0147-.1461-.0426-.0437-.0278-.0785-.0676-.1003-.1145-.0218-.047-.0297-.0992-.0228-.1505.0069-.0514.0284-.0996.0618-.1391l.2172-.2579-.7133.412c-.0578.0318-.1251.0415-.1895.0272-.0644-.0142-.1213-.0514-.1603-.1046-.0389-.0532-.0572-.1187-.0514-.1844s.0354-.127.0831-.1724l.1998-.1819c-.0577.0215-.121.0227-.1794.0035-.0585-.0192-.1087-.0577-.1424-.1092s-.0489-.113-.0431-.1742c.0058-.0613.0322-.1188.075-.163l.7757-.7953-.4424.2546c-.0564.0319-.1223.0426-.1858.0302-.0636-.0125-.1206-.0472-.1608-.098-.0401-.0508-.0608-.1143-.0583-.179s.0281-.1264.0721-.1739l.8648-.9163-.532.3067c-.0568.0324-.1233.0432-.1874.0304-.064-.0127-.1214-.0481-.1614-.0997-.0401-.0517-.0602-.116-.0566-.1812.0035-.0652.0305-.127.0759-.174l.7469-.7599-.4174.241c-.0566.0327-.123.0439-.1871.0315-.0641-.0123-.1217-.0474-.162-.0987-.0404-.0513-.0609-.1155-.0578-.1807s.0296-.1272.0747-.1744l.8452-.8957-.5157.298c-.0558.0323-.1212.0437-.1846.0321-.0634-.0115-.1207-.0452-.1615-.0951s-.0625-.1127-.0613-.1771c.0013-.0644.0254-.1263.0681-.1746l.3512-.3968-.0119.006c-.0476.0273-.1024.0395-.157.035-.0547-.0044-.1068-.0253-.1493-.0599-.0426-.0347-.0736-.0814-.0891-.134s-.0147-.1087.0024-.1609l.1167-.3528c-.0404-.0244-.0737-.0589-.0967-.1002-.0229-.0412-.0348-.0877-.0343-.1349s.0133-.0934.0371-.1341c.0239-.0408.0579-.0746.0988-.0982l.2752-.1585c.0477-.0276.1026-.0401.1576-.0357.0549.0043.1073.0253.15.0602.0427.0348.0738.0818.0892.1348.0153.0529.0142.1093-.0033.1615l-.0505.1509.8327-.4804c.0558-.0322.1213-.0436.1847-.0321.0634.0116.1206.0453.1614.0952s.0625.1126.0613.1771c-.0013.0644-.0254.1263-.0681.1746l-.3507.3968.6992-.4033c.0565-.0323.1227-.0432.1865-.0308.0639.0124.1211.0474.1614.0985.0402.0511.0608.1149.0579.1799s-.029.1268-.0736.1741l-.8473.893.5151-.2975c.0568-.0323.1233-.0431.1873-.0304.0641.0127.1214.0482.1615.0998s.0602.1159.0566.1811c-.0035.0653-.0305.127-.0759.174l-.748.7632.4185-.2415c.0564-.0323.1225-.0433.1864-.0309.0638.0124.121.0472.1613.0982s.061.1148.0582.1797c-.0027.065-.0287.1268-.0732.1742l-.8652.9163.5325-.3067c.0567-.0324.1232-.0432.1872-.0305s.1213.048.1614.0995.0603.1158.0569.1809c-.0034.0652-.0302.127-.0755.174l-.7724.7936.4424-.2551c.0578-.0318.1251-.0414.1895-.0272.0643.0143.1213.0514.1603.1046.0389.0532.0572.1188.0514.1844-.0059.0657-.0354.127-.0831.1725l-.2361.2138c.0552-.0112.1126-.0049.1641.018s.0946.0613.1234.1098c.0287.0486.0416.1048.0368.161-.0047.0562-.0268.1095-.0632.1526l-.2514.298c.0627-.0102.1268.0019.1815.0342.0546.0322.0962.0826.1175.1423.0214.0598.0212.1251-.0006.1847-.0218.0595-.0638.1096-.1187.1414l-1.2219.7057c-.041.0246-.0879.0378-.1357.038z"/><path d="m14.1411 3.23463c-.0539-.00001-.1066-.01607-.1513-.04613-.0448-.03006-.0795-.07276-.0999-.12267-.0204-.0499-.0255-.10474-.0146-.15753s.0373-.10113.0758-.13887l1.2149-1.18879-2.68 1.54977c-.0586.03398-.1279.04477-.1941.03026-.0663-.01452-.1247-.0533-.1637-.10871-.0391-.05541-.056-.12343-.0475-.19069.0086-.06726.042-.12887.0937-.17272l.8143-.69319-.5021.28987c-.0522.03096-.1133.04354-.1734.03574-.0602-.00781-.116-.03554-.1586-.07879-.0425-.04324-.0694-.0995-.0762-.15979-.0068-.06028.0067-.12112.0385-.1728l.5244-.88535c-.0621.03245-.1342.03968-.2015.02017-.0672-.0195-.1243-.06423-.1593-.124836-.035-.060607-.0453-.132406-.0287-.2004.0167-.067993.059-.126922.1181-.164477l.8989-.5183992c.0519-.02956971.1121-.04118236.1713-.03303687.0592.00814547.114.03559387.156.07808817.042.0424939.0688.0976599.0763.1569399.0075.059281-.0049.119363-.035.17093l-.5244.884811 2.1811-1.2577322c.0586-.03330063.1274-.04361454.1932-.02893488.0658.01467968.1237.05330288.1626.10835508.0389.055051.0559.122594.0477.189486s-.041.128348-.092.172411l-.8142.693185 1.9661-1.1345022c.0572-.03300041.1245-.04400004.1893-.03093732.0647.01306272.1225.04929102.1625.10189552.0399.052604.0593.117972.0545.183854-.0048.065881-.0334.127754-.0806.17402l-1.2143 1.18716 2.4113-1.391805c.0558-.031922.1211-.042988.1843-.031227s.1202.045585.1608.095446c.0406.04986.0622.112518.0609.176807-.0012.06429-.0253.126036-.0679.174236l-1.0731 1.206163 1.1513-.66497c.0559-.03226.1215-.04352.185-.03176s.1207.04577.1614.09592.0621.11316.0605.17771-.0261.12642-.0693.17448l-.2453.27413c.0465-.00884.0946-.00532.1394.01018.0448.01551.0847.04248.1158.07822.0312.03573.0524.079.0616.12549s.0061.09458-.009.13949l-.1043.30832c.0367.02301.0671.05471.0885.09228.0361.06228.0459.13631.0274.20583-.0186.06952-.0639.12884-.1262.16492l-.2714.15688c-.0477.02773-.1028.04025-.1578.03588-.055-.00436-.1074-.02541-.1502-.06033-.0428-.03491-.0739-.08204-.0891-.13509-.0153-.05305-.0141-.1095.0036-.16181l.0336-.09825-.7323.42232c-.0558.03191-.1212.04293-.1845.0311-.0632-.01183-.1202-.04574-.1608-.0957-.0405-.04995-.062-.11268-.0606-.17701s.0256-.12607.0683-.1742l.2139-.2383-1.14.65736c-.0558.03227-.1214.04357-.1848.03188-.0635-.01169-.1207-.0456-.1614-.09567-.0408-.05006-.0623-.11299-.0608-.1775s.0259-.12638.0689-.17451l1.0731-1.20345-2.8129 1.62251c-.0411.02409-.088.03665-.1357.03637z"/></g><path d="m11.1702 26.0216c-.0588-.0001-.1159-.0192-.1629-.0544-.047-.0353-.0813-.0849-.0977-.1413s-.014-.1166.0067-.1716c.0208-.055.0588-.1017.1084-.1332l2.1876-1.3951-3.0811 1.7783c-.0611.0348-.1334.0444-.20154.027-.06813-.0175-.12683-.0607-.16371-.1206s-.04907-.1318-.03399-.2005c.01507-.0687.05623-.1289.1148-.1678l5.88314-3.8666-6.68923 3.8649c-.03058.0183-.06447.0305-.09974.0357-.03526.0052-.07121.0034-.10579-.0052-.03458-.0087-.06711-.0241-.09574-.0453-.02863-.0213-.05279-.048-.07111-.0785-.01832-.0306-.03044-.0645-.03566-.0998-.00522-.0352-.00345-.0712.00522-.1058.00867-.0345.02406-.0671.04531-.0957.02124-.0286.04791-.0528.07849-.0711l.66551-.4137-.85767.4951c-.06104.0342-.13292.0434-.20063.0259-.0677-.0176-.12602-.0606-.16278-.1201-.03675-.0596-.04912-.131-.0345-.1994.01461-.0684.05507-.1285.11293-.1678l7.62889-5.0287-7.97576 4.6037c-.06154.0373-.13541.0487-.20534.0316-.06994-.0171-.13022-.0613-.16758-.1228-.03736-.0616-.04874-.1354-.03163-.2054.0171-.0699.06128-.1302.12283-.1675l5.49288-3.504-5.48583 3.1679c-.06133.0378-.13513.0496-.20516.0329-.07004-.0167-.13058-.0605-.1683-.1219-.03772-.0613-.04953-.1351-.03283-.2051.01669-.0701.06052-.1306.12185-.1683l7.81667-5.0961-7.59411 4.3833c-.0304.0186-.06417.0311-.09938.0366-.03521.0056-.07117.0041-.10582-.0042-.06999-.0168-.13042-.0608-.16799-.1222-.03758-.0614-.04922-.1352-.03237-.2052s.06081-.1304.12221-.168l7.49916-4.8675-7.21581 4.1673c-.06153.0338-.13382.0426-.20164.0243-.06783-.0184-.12592-.0622-.16205-.1225-.03614-.0602-.04751-.1321-.03171-.2006.01579-.0685.05751-.1281.11639-.1665l2.5198-1.5698-2.24079 1.2936c-.06138.0337-.13344.0424-.2011.0243-.06766-.0182-.12569-.0618-.16194-.1217-.03624-.06-.04791-.1316-.03255-.2.01535-.0683.05654-.1281.11495-.1668l5.06455-3.2081-4.78391 2.7619c-.06153.0339-.13382.0426-.20164.0243-.06783-.0183-.12592-.0622-.16205-.1224-.03614-.0603-.04751-.1322-.03171-.2006.01579-.0685.05751-.1281.11639-.1665l2.33089-1.4504-2.05188 1.1844c-.0613.0349-.13377.0446-.20207.027s-.12705-.0612-.16382-.1214-.04865-.1323-.03315-.2011c.01551-.0688.0572-.1289.11623-.1675l7.11532-4.5961-6.83251 3.9447c-.06145.0351-.1342.0449-.20272.0271-.06852-.0177-.1274-.0615-.16408-.1221-.03668-.0605-.04825-.133-.03226-.202.01599-.0689.05829-.1289.11788-.1671l5.46679-3.4741-5.18561 2.997c-.06142.036-.13452.0464-.20356.029-.06903-.0174-.12846-.0612-.16549-.122-.03702-.0609-.04867-.1338-.03244-.2031s.05905-.1295.11922-.1675l6.67678-4.2921-6.39451 3.6896c-.06149.0344-.13398.0436-.20213.0255-.06814-.018-.12659-.0618-.16298-.1222-.0364-.0604-.04787-.1325-.032-.2012.01586-.0687.05783-.1285.11701-.1668l4.49351-2.8352-4.21341 2.4324c-.06147.0328-.13321.0408-.20037.0222-.06716-.0187-.12458-.0624-.16038-.1222-.03579-.0598-.04721-.1311-.03189-.199.01531-.068.0562-.1275.11417-.1662l1.16708-.723-.88861.5124c-.0613.0349-.13377.0445-.20207.0269s-.12705-.0611-.16382-.1213-.04865-.1323-.03315-.2012c.01551-.0688.0572-.1288.11623-.1674l6.31902-4.07394-6.03621 3.48334c-.06119.0342-.13324.0434-.20105.0256-.06782-.0177-.12614-.061-.16276-.1208-.03662-.0597-.0487-.1314-.0337-.1998.015-.0685.05591-.1285.11416-.1675l6.28486-4.0875-6.00151 3.4649c-.06123.0336-.1331.0424-.20063.0244-.06754-.018-.12553-.0613-.16191-.121s-.04833-.1311-.03338-.1993c.01495-.0683.05566-.1282.11365-.1672l4.66018-3.00397-4.37791 2.52737c-.06143.0333-.13332.0416-.20072.0232-.06739-.0184-.12511-.062-.16112-.1219-.03602-.0599-.04756-.1313-.03223-.1995.01532-.0681.05634-.1277.11452-.1664l.63293-.3974-.35338.2036c-.06086.0332-.13213.0419-.19918.0242-.06705-.0176-.1248-.0603-.1614-.1192s-.04927-.1295-.03542-.19748c.01386-.06794.05319-.128.10993-.16785l4.34258-2.89598-4.05651 2.34229c-.06126.03563-.13402.04588-.20274.02857-.06871-.01731-.12794-.06081-.16501-.1212-.03707-.0604-.04905-.13289-.03338-.202.01566-.06911.05774-.12936.11723-.16786l1.68819-1.10085-1.40429.81044c-.06059.03337-.13164.04235-.19862.0251-.06699-.01725-.12487-.05943-.1618-.11791-.03694-.05849-.05015-.12887-.03693-.19677.01321-.0679.05185-.1282.10803-.16856l2.72123-1.86841-2.43191 1.40375c-.05982.03427-.13045.0445-.19754.02859-.06708-.0159-.1256-.05674-.16367-.11423-.03807-.05748-.05284-.1273-.0413-.19528.01154-.06797.04851-.12901.10342-.17071l2.9242-2.20171-2.62511 1.51557c-.06033.03361-.1312.04295-.19818.02613-.06697-.01682-.12502-.05854-.16231-.11667-.0373-.05812-.05103-.12827-.03842-.19616.01262-.0679.05064-.12843.10633-.16927l.469-.33221-.16665.09662c-.05962.03423-.13002.04455-.19696.02889-.06694-.01567-.12544-.05615-.16369-.11328s-.05339-.12665-.04237-.19451c.01103-.06786.04739-.12901.10175-.1711l.69536-.53414-.23015.13299c-.05778.0322-.12533.0422-.18995.02811-.06463-.01409-.12189-.05129-.16102-.10462-.03912-.05333-.05743-.11911-.05148-.18499.00595-.06587.03575-.12731.08381-.17276l.80718-.73498c-.05815-.02246-.10695-.06399-.13842-.1178-.03599-.06234-.04574-.13642-.02711-.20595.01862-.06952.06411-.12881.12645-.1648l1.59048-.92009c.05777-.0322.12532-.0422.18996-.02811.0646.01409.1219.0513.161.10462.0391.05333.0574.11911.0515.18499-.006.06588-.0358.12731-.0838.17276l-.45871.42124 1.63931-.94615c.0596-.03423.13-.04455.197-.02888.0669.01566.1254.05615.1637.11328.0382.05713.0534.12664.0423.1945-.011.06787-.0473.12901-.1017.1711l-.6959.53414 1.705-.98414c.0603-.0336.1312-.04294.1982-.02612s.125.05854.1623.11666.051.12827.0384.19617c-.0126.06789-.0506.12842-.1063.16926l-.4685.33167 1.3647-.78764c.0598-.03457.1306-.045.1979-.02916.0673.01583.126.05675.1642.11438.038.05769.0526.12771.0408.19579-.0118.06809-.0491.12911-.1044.17062l-2.9236 2.20007 4.5956-2.6517c.0605-.03337.1316-.04235.1986-.0251s.1248.05943.1618.11791c.0369.05849.0501.12888.0369.19678s-.0518.12819-.108.16855l-2.7223 1.86787 4.0321-2.32601c.0611-.03365.1328-.04248.2002-.02468.0675.01781.1255.06089.162.12031s.0487.13062.0342.19882c-.0146.06821-.0549.12819-.1125.16749l-1.6898 1.10086 2.7087-1.5628c.0609-.03414.1326-.0435.2003-.02613.0676.01738.1259.06015.1628.11942.0369.05928.0496.13049.0353.19885-.0142.06835-.0543.12859-.1118.16818l-4.3426 2.89597 5.8082-3.35195c.0617-.03553.1348-.04545.2036-.02762.0689.01782.128.06197.1647.12295.0366.06097.0478.13389.0313.20306-.0166.06918-.0597.12908-.12.16681l-.6205.38975 1.2268-.70567c.0613-.03368.1331-.04244.2007-.02445.0675.01798.1255.06132.1619.12099.0364.05968.0483.13108.0334.19935-.015.06827-.0557.12814-.1137.16714l-4.6618 3.00454 5.2546-3.03331c.061-.03276.1323-.04094.1991-.02287.0669.01808.1244.06105.1606.1201s.0485.12972.0343.19753-.0538.12762-.1107.16719l-6.2859 4.08856 6.7077-3.87795c.0611-.03318.1327-.04163.1999-.02359.0671.01804.1248.06119.1611.12054.0363.05934.0484.13036.0339.19838-.0146.06802-.0547.12786-.1121.16716l-6.3136 4.0712 6.4808-3.74062c.0615-.03283.1332-.04076.2004-.02214.0671.01861.1246.06235.1604.12214.0357.0598.0472.13107.0318.19906-.0153.06798-.0562.12747-.1141.16614l-1.1676.72359 1.0568-.61014c.0617-.03721.1355-.04843.2054-.03117.0699.01725.1301.06156.1673.12318s.0484.1355.0312.20538c-.0173.06989-.0616.13006-.1232.16727l-4.4946 2.83573 4.2731-2.46715c.0614-.03599.1345-.04641.2036-.02902.069.0174.1284.06123.1655.12203.037.06081.0486.13373.0324.20304-.0162.06932-.0591.12948-.1192.16753l-6.6768 4.29215 6.3956-3.69125c.0614-.03512.1342-.04484.2027-.02709s.1274.06156.1641.1221.0482.13302.0323.20197c-.016.06895-.0583.12893-.1179.16714l-5.4674 3.47413 5.1862-2.99373c.0611-.03318.1327-.04163.1999-.02359.0671.01804.1248.06119.1611.12054.0363.05934.0484.13036.0339.19838-.0146.06802-.0547.12786-.1121.16716l-7.1154 4.59394 6.8326-3.94364c.0618-.03699.1357-.04794.2055-.03043.0699.0175.1299.06204.1669.1238s.0479.13569.0304.20553c-.0175.06983-.062.12985-.1238.16685l-2.3309 1.45039 2.0519-1.18441c.0614-.03375.1334-.04247.2011-.02432s.1257.06176.1619.12171c.0363.05995.0479.13159.0326.19994-.0154.06835-.0566.12811-.115.16679l-5.0645 3.20809 4.7839-2.7619c.0615-.0339.1338-.0426.2016-.0243.0679.0183.126.0622.1621.1225.0361.0602.0475.1321.0317.2006-.0158.0684-.0575.1281-.1164.1664l-2.5301 1.5742 2.2511-1.2995c.0612-.0342.1332-.0434.201-.0257.0679.0178.1262.0611.1628.1208.0366.0598.0487.1314.0337.1999s-.0559.1285-.1142.1675l-7.4991 4.868 7.2158-4.1651c.0611-.0336.1328-.0424.2002-.0246s.1254.0608.162.1203c.0365.0594.0487.1306.0341.1988-.0145.0682-.0548.1282-.1124.1675l-7.8167 5.0966 7.5328-4.3481c.0613-.0332.133-.0415.2003-.0233.0672.0182.1249.0616.1611.1212.0361.0596.048.1308.033.1989-.0149.0681-.0555.1278-.1132.1668l-5.4956 3.5034 5.2144-3.01c.0609-.0328.132-.0411.1988-.0232.0669.0179.1243.0606.1607.1195.0364.0588.0489.1293.0351.1971-.0139.0677-.0531.1277-.1096.1675l-7.624 5.0271 7.339-4.2384c.0616-.0347.1344-.044.2028-.0258.0684.0181.127.0623.1634.123.0363.0608.0474.1333.031.2021-.0163.0689-.059.1286-.1187.1665l-.6693.4152.3902-.2247c.0612-.0348.1335-.0444.2016-.027.0681.0175.1268.0607.1637.1206s.0491.1318.034.2005-.0562.1289-.1148.1678l-5.8821 3.8661 5.5982-3.2315c.0613-.0332.133-.0416.2003-.0233.0672.0182.1249.0616.1611.1212.0361.0596.048.1308.033.1989-.0149.0681-.0555.1278-.1132.1668l-2.192 1.3983 1.9108-1.103c.061-.0347.1331-.0444.2011-.0271s.1267.0602.1637.1199c.037.0596.0495.1312.0348.1999-.0147.0686-.0554.1289-.1135.1681l-3.9013 2.6056 3.6152-2.0872c.0603-.034.1313-.0438.1985-.0272.0673.0166.1256.0582.1631.1164.0376.0582.0514.1286.0388.1967-.0127.068-.0508.1287-.1067.1696l-4.2439 3.0398 3.9502-2.2799c.0607-.0347.1325-.0446.2004-.0277.0678.0169.1265.0594.1638.1186.0374.0591.0504.1304.0364.1989-.0139.0686-.0538.1291-.1113.1689l-1.6426 1.128 1.3533-.7806c.0591-.0334.1287-.0435.1949-.0281.0662.0153.1242.0549.1626.111s.0544.1245.0448.1918c-.0096.0672-.0441.1285-.0967.1715l-2.5372 2.04 2.2207-1.2838c.0593-.0336.129-.0438.1953-.0284s.1245.0551.1629.1113c.0384.0563.0542.1249.0444.1923s-.0446.1286-.0975.1715l-.9782.7828.4674-.2714c.0584-.0341.1274-.0451.1936-.0309.0661.0142.1245.0526.1638.1076s.0567.1227.0487.1898c-.0079.0671-.0407.1289-.0918.1732l-.7089.6188c.0419.0237.0766.0584.1004.1004.036.0623.0459.1363.0273.2058-.0185.0696-.0639.1289-.1261.165l-1.6225.9363c-.0583.0339-.1272.0448-.1931.0306-.0659-.0141-.1242-.0523-.1635-.1071-.0393-.0549-.0568-.1224-.049-.1895.0079-.067.0404-.1288.0913-.1731l.1867-.1629-1.1942.6894c-.0592.0337-.1289.0438-.1953.0284-.0663-.0153-.1244-.0551-.1628-.1113-.0385-.0563-.0543-.1249-.0445-.1923.0099-.0674.0447-.1286.0975-.1715l.9771-.7806-2.123 1.2252c-.0591.0334-.1287.0435-.1949.0281-.0662-.0153-.1242-.055-.1626-.111-.0384-.0561-.0544-.1245-.0448-.1918.0097-.0673.0442-.1285.0967-.1716l2.5312-2.0393-4.3051 2.4856c-.0606.0333-.1317.0423-.1987.0251-.0669-.0173-.1248-.0595-.1618-.118-.0369-.0584-.0501-.1288-.0369-.1967s.0519-.1282.108-.1686l1.6426-1.1285-2.7478 1.5867c-.0602.034-.1313.0438-.1985.0272s-.1256-.0583-.1631-.1165c-.0375-.0581-.0514-.1285-.0387-.1966.0126-.068.0508-.1287.1067-.1696l4.2427-3.0398-6.0525 3.4953c-.0609.0341-.1326.0435-.2003.0261-.0676-.0174-.1259-.0602-.1628-.1194-.0369-.0593-.0496-.1305-.0353-.1989.0142-.0683.0543-.1286.1118-.1682l3.9018-2.6055-5.3088 3.0659c-.0411.0243-.0879.0375-.1357.038z" fill="#c1dadc"/><path d="m15.4217 14.0715c-.0565 0-.1117-.0178-.1576-.0507-.046-.0329-.0806-.0794-.0989-.1329s-.0194-.1114-.0032-.1656c.0162-.0541.0489-.1019.0936-.1366l.7274-.5645-1.4374.83c-.0601.0339-.1308.0436-.1978.0272-.067-.0163-.1253-.0576-.163-.1154-.0376-.0578-.0519-.1277-.0398-.1957.012-.0679.0495-.1287.1048-.17l.8902-.6513-1.3359.7713c-.0597.0353-.1307.0464-.1983.031-.0677-.0154-.1269-.0561-.1654-.1138-.0386-.0576-.0536-.1279-.042-.1963s.049-.1297.1044-.1714l2.2918-1.7599-2.7684 1.5986c-.0603.0345-.1316.0444-.1991.0279-.0675-.0166-.1261-.0584-.1637-.1168-.0375-.0585-.0513-.1291-.0383-.1974s.0516-.129.108-.1696l1.4618-1.0417-1.623.9364c-.0597.0337-.1299.0437-.1966.0278s-.1249-.0565-.1629-.1136c-.0381-.057-.0531-.1264-.0421-.194.011-.0677.0473-.1287.1014-.1708l2.6561-2.03015-2.7831 1.60675c-.0601.0339-.1308.0437-.1978.0273s-.1253-.0576-.163-.1154-.0519-.1278-.0398-.1957c.012-.0679.0495-.1287.1047-.17l1.7686-1.29408-1.6502.95318c-.0595.0338-.1295.0439-.1961.0282-.0666-.0156-.1248-.0559-.163-.1126s-.0536-.1258-.0431-.1934.0462-.1287.0998-.1711l1.9873-1.54705-1.6556.95537c-.0596.03423-.13.04455-.197.02888-.0669-.01566-.1254-.05615-.1637-.11328-.0382-.05713-.0533-.12664-.0423-.1945.011-.06787.0474-.12902.1017-.1711l.8143-.62751-.2259.13028c-.0587.03355-.1278.04397-.1938.02923-.066-.01475-.1241-.05361-.163-.10897-.0388-.05535-.0556-.12322-.047-.1903.0085-.06708.0418-.12855.0934-.17236l.774-.6514c-.0357-.02297-.0653-.05426-.0863-.09119-.0358-.06229-.0455-.13624-.0268-.20564.0186-.0694.064-.12858.1262-.16457l1.7289-.99826c.0587-.03355.1278-.04397.1938-.02922s.1241.0536.163.10896c.0388.05535.0556.12322.047.1903-.0085.06709-.0418.12855-.0934.17237l-.1194.10042 1.1324-.65139c.0596-.03423.13-.04455.1969-.02888.067.01566.1255.05615.1637.11328.0383.05713.0534.12664.0424.1945-.011.06787-.0474.12902-.1018.1711l-.8191.6286 1.4846-.85658c.0595-.03446.1299-.04505.1969-.02963s.1257.05569.1641.11269c.0385.057.0539.12647.0431.19438s-.0469.12919-.1012.17147l-1.9862 1.54651 2.5958-1.49874c.0601-.0339.1308-.04366.1978-.02729.0671.01637.1253.05765.163.11544.0377.05778.0519.12775.0399.19567-.0121.06792-.0496.1287-.1048.16998l-1.7675 1.29302 2.0709-1.19422c.0597-.03449.1303-.04496.1974-.0293.0672.01567.1258.0563.1641.11364s.0533.1271.042.19512c-.0113.06801-.048.12918-.1028.17108l-2.6533 2.02692 2.8987-1.67354c.0604-.03544.1322-.04617.2003-.02994.0681.01624.1273.05818.1652.11706.038.05888.0517.13014.0383.19888-.0134.06875-.0529.12965-.1101.16998l-1.4619 1.04168 1.4282-.82292c.0596-.03423.13-.04455.197-.02889.0669.01567.1254.05616.1637.11329.0382.05712.0533.12664.0423.1945s-.0474.12901-.1017.1711l-2.2913 1.76037 2.1301-1.23329c.06-.0339.1308-.04366.1978-.02729.067.01638.1252.05765.1629.11544s.0519.12775.0399.19564c-.0121.068-.0495.1287-.1048.17l-.8886.6514.5119-.2958c.0595-.0347.1301-.0455.1973-.0301.0672.0155.126.0559.1645.1131s.0538.1269.0427.195c-.011.068-.0476.1293-.1022.1714l-.7284.5646.0819-.0467c.0623-.0354.1361-.0448.2053-.026.0691.0188.1281.0641.1639.1262.0359.0621.0457.1358.0274.2051-.0184.0693-.0633.1285-.1252.1648l-3.5283 2.0356c-.0406.0236-.0866.0362-.1336.0363z" fill="#fff"/><path d="m17.0863 6.17676c-6.693-2.047-7.81667 8.84424-.7453 7.85574 4.0186-.6003 4.6738-6.57358.7453-7.85574zm-.3007 7.16204c-5.374 1.7593-6.249-7.67012-.5971-6.75926 3.3069.58951 3.7998 5.62746.5971 6.75926z" fill="#262626"/><path clip-rule="evenodd" d="m24.1287 19.5316c-.9228-4.8985 3.1364-18.689542-4.8855-17.37482.3219-1.533481-.7681-2.359119-2.2196-2.0659933-1.7848.1699043-5.4787-.8544087-5.0819 2.0703433-2.77549-.40658-5.34795 1.58722-4.88872 4.51902v15.44935c-.04546.4681.00328.9406.14335 1.3895.14006.449.36861.8654.67217 1.2246s.67598.654 1.09529.8669c.41931.213.87703.3399 1.34611.3731.4088 1.5394-1.10787 6.0525 1.1563 5.9803 1.1497.1911 2.1023-.38 1.8038-1.6431h4.6243c-.1086.9266.1021 1.8125 1.2219 1.6187.5901 0 1.5661.0711 1.737-.6818.0587-1.7457-.0076-3.5143.0158-5.2654.9229-.1082 1.7712-.5601 2.3758-1.2657s.9211-1.6131.8866-2.5417zm-5.6661-17.36939c.3735-2.919318-3.5875-1.417861-5.3137-1.731614-.5477.222559-.4489 1.180104-.4277 1.731614zm-6.0671 29.34849c.0021-.0695.0787-.177.0847-.2649l.0038-.0028c0-1.7381-.0013-3.4753-.0038-5.2116-.4614-.0033-.9234.0032-1.3842-.0033.3892 1.4749-1.13455 6.1437 1.2995 5.4826zm.8756-3.8709h4.6373l.0044-1.6106h-4.6417zm-.0038 2.2603h.4342l4.1912-.0027c.0059-.5543.0163-1.1069.0163-1.6589h-4.6417zm5.4271-3.8682c.3491 1.2561-.9412 5.951.995 5.5064l.0044-.0027c.1031 0 .2111-.0081.3099.0016.2047-1.7641.0114-3.6906.076-5.5053zm-4.6303-.5249c2.8797-.4761 7.3276 1.3755 9.0191-1.7186l.0043-.0027c.4928-6.4525.4727-12.9339-.0602-19.38325-1.3251-2.55671-4.5793-1.49548-6.9059-1.71261-2.3233.23287-4.9375-.56563-7.07462.51297-2.53934 2.23753-.76755 15.11449-1.20561 19.27029.09608 3.3715 3.76183 3.13 6.22293 3.0339z" fill="#262626" fill-rule="evenodd"/><path d="m15.8411 8.21584c-1.0591-.08577-.5222 1.25664-.6433 1.91346.1325.0752.2893.0952.4364.0558.1472-.0394.273-.1351.3502-.26642-.1021-.50537.2166-1.39018-.1433-1.70284z" fill="#262626"/></svg>