<svg fill="none" height="44" viewBox="0 0 44 44" width="44" xmlns="http://www.w3.org/2000/svg" xmlns:xlink="http://www.w3.org/1999/xlink"><clipPath id="a"><path d="m0 0h44v44h-44z"/></clipPath><g clip-path="url(#a)"><g fill="#d4e6e7"><path d="m22.9392 30.426c-.077 0-.152-.0242-.2144-.0692-.0625-.045-.1091-.1085-.1335-.1815-.0243-.073-.0251-.1518-.0021-.2253.0229-.0735.0684-.1378.13-.184l.8616-.6497-1.3786.7956c-.0752.0432-.1631.0584-.2484.0429s-.1623-.0607-.2174-.1276-.0847-.1511-.0836-.2378c.0011-.0866.0328-.1701.0896-.2355l.682-.7832-.231.1334c-.0634.0369-.1364.0539-.2096.0488s-.1431-.032-.2008-.0772c-.0578-.0453-.1006-.1068-.123-.1766-.0224-.0699-.0233-.1448-.0027-.2152l.1731-.594c-.0611-.0326-.1119-.0816-.1467-.1415-.024-.0418-.0396-.0878-.0459-.1356-.0062-.0478-.0029-.0963.0096-.1428s.0341-.0901.0635-.1283.066-.0702.1077-.0942l.3667-.2104c.0634-.0366.1363-.0534.2093-.0482.073.0051.1428.0321.2004.0773s.1004.1066.1227.1763c.0224.0697.0234.1445.0029.2148l-.1034.3556 1.342-.7729c.0751-.0428.1628-.0577.2478-.0421.0849.0156.1616.0607.2166.1273.0549.0667.0846.1505.0838.2369s-.0321.1697-.0884.2352l-.682.784 4.6574-2.6884c.0809-.0463.1763-.0602.2669-.0387s.1697.0767.2211.1543c.0515.0777.0714.172.0558.2639-.0156.0918-.0655.1742-.1397.2306l-.8631.6505.4348-.2508c.0761-.0441.1655-.0594.2519-.0431s.1641.0632.2189.132c.0547.0688.0829.155.0794.2428-.0034.0879-.0384.1716-.0984.2359l-1.276 1.364c.0857-.0385.183-.0426.2716-.0114.0887.0312.162.0952.2048.1789.0428.0836.0519.1805.0253.2707-.0266.0901-.0867.1666-.1681.2137l-2.0966 1.2107c-.0761.0441-.1656.0594-.2521.0429-.0864-.0164-.1641-.0633-.2188-.1323-.0547-.0689-.0828-.1552-.0791-.2431.0036-.088.0388-.1717.099-.2358l1.2709-1.3589-3.4804 2.0086c-.0558.032-.1191.0484-.1833.0477z"/><path d="m36.4352 16.5001c-.0704-.0001-.1393-.0204-.1984-.0586-.0592-.0382-.1061-.0926-.1352-.1567-.029-.0641-.039-.1352-.0288-.2048.0103-.0697.0404-.1349.0867-.1879l.9592-1.1-.9805.5654c-.0788.0451-.1716.0594-.2603.04s-.1671-.071-.2199-.1448c-.0529-.0739-.0765-.1647-.0662-.2549.0103-.0903.0537-.1735.1218-.2335l.2427-.2112c-.0707 0-.14-.0205-.1993-.059-.0594-.0385-.1064-.0933-.1353-.1579-.0289-.0645-.0386-.1361-.0277-.206.0108-.0699.0417-.1352.0888-.188l1.2254-1.3735-.7685.44c-.0772.0439-.1678.0583-.2548.0406-.0871-.0178-.1647-.0666-.2185-.1373-.0538-.0708-.0801-.1586-.0739-.2472.0061-.0887.0442-.1721.1072-.2347l.4356-.4283-.0734.0433c-.0776.0475-.1702.0644-.2596.0475-.0895-.017-.1694-.0666-.2243-.1392-.0549-.0727-.0808-.1631-.0727-.2538.0082-.0907.0497-.1751.1166-.2368l.1196-.1144c-.0645.0179-.1327.018-.1972.0003-.0646-.0177-.1231-.0525-.1695-.1008-.0566-.0597-.0916-.1367-.0991-.2186-.0076-.0819.0126-.164.0573-.2331l.9013-1.39335-1.2467.71795c-.0746.0434-.162.0591-.247.0444-.0851-.0147-.1622-.059-.2178-.1249-.0556-.06597-.0862-.14943-.0863-.2357-.0002-.08628.0301-.16985.0854-.23601l.5346-.64167-.968.5588c-.0696.0398-.1504.05566-.2299.04516s-.1534-.04679-.2103-.10329c-.0569-.05651-.0937-.13012-.1048-.20956-.0111-.07943.0042-.16031.0434-.23024l.7605-1.34347-2.6576 1.53487c-.0417.02445-.0879.04042-.1358.04697s-.0966.00356-.1434-.0088c-.0467-.01236-.0906-.03385-.129-.06322s-.0706-.06605-.0948-.10793-.0398-.08813-.046-.13608c-.0063-.04795-.003-.09666.0097-.14333s.0345-.09037.0641-.12858c.0296-.03822.0665-.0702.1085-.0941l3.8244-2.20807c.0695-.03958.1502-.0553.2295-.04478s.1531.04672.2099.10307c.0569.05635.0937.12975.1049.209.0113.07925-.0038.16-.0427.22991l-.7605 1.34347 1.5869-.91667c.0746-.0434.1621-.05913.2471-.0444.085.01472.1621.05895.2177.12491.0556.06595.0862.14941.0864.23568.0001.08628-.0301.16985-.0855.23601l-.5353.6424.7788-.4488c.0709-.04003.1532-.0553.2338-.04338.0806.01191.1549.05033.2112.10919.0564.05885.0915.13479.0999.21583s-.0105.16256-.0536.2317l-.9013 1.39333 1.1968-.69006c.0777-.04752.1702-.06446.2597-.04751.0894.01695.1694.06657.2243.1392.0548.07263.0808.16308.0726.25376-.0081.09067-.0496.17509-.1166.23681l-.0946.09094c.0786-.03206.1658-.03591.2468-.01089.081.02501.1509.07734.1977.14813.0467.0707.0676.1555.0589.2398-.0087.0844-.0464.1631-.1066.2228l-.44.4283.2412-.1379c.0754-.0431.1637-.0581.2491-.0422s.1624.0616.2173.129c.0548.0673.084.152.0823.2388-.0018.0869-.0343.1703-.0918.2354l-1.2254 1.3736.9152-.5273c.0788-.0451.1716-.0593.2603-.04.0887.0194.1671.071.2199.1449.0529.0738.0765.1646.0662.2549-.0103.0902-.0537.1734-.1218.2335l-.2391.2082c.1091.0064.2115.0544.286.1342.0552.0671.0848.1517.0835.2386-.0014.0869-.0335.1705-.0908.2359l-.9592 1.1.5075-.2933c.0626-.0364.1347-.0533.207-.0488.0723.0046.1416.0305.1992.0744.0576.044.1009.104.1244.1725.0234.0685.0261.1425.0076.2125l-.195.7429c.0612.028.1136.0723.1513.1281.0378.0557.0594.1208.0626.1881s-.0122.1341-.0445.1932-.0803.1082-.1386.1418l-.3667.2134c-.0629.0356-.1349.052-.2071.0473-.0721-.0047-.1413-.0303-.1992-.0737-.0573-.044-.1003-.104-.1236-.1723-.0234-.0684-.026-.1421-.0076-.212l.1393-.5331-1.661.9592c-.0559.0357-.1207.0552-.187.0565z"/><path d="m25.6883 26.3529c-.0719 0-.1423-.0211-.2023-.0608s-.107-.0962-.1352-.1624c-.0281-.0662-.0361-.1392-.0231-.21.0131-.0708.0467-.1361.0966-.1879l1.1-1.1433-.6505.3755c-.0761.0436-.1654.0584-.2515.0418-.0862-.0166-.1635-.0636-.218-.1323-.0545-.0688-.0825-.1548-.079-.2425.0036-.0877.0384-.1712.0983-.2353l1.1865-1.2628-.7333.4246c-.0785.0452-.171.0598-.2596.0409-.0887-.0189-.1671-.0699-.2203-.1433-.0533-.0733-.0774-.1638-.0679-.2539.0096-.0901.0521-.1735.1195-.2341l.3249-.2933c-.0757.0169-.1548.0094-.226-.0214-.0711-.0309-.1307-.0835-.17-.1503-.0394-.0668-.0566-.1444-.0491-.2216.0076-.0772.0394-.15.0909-.208l1.3933-1.5694-.9409.5434c-.0774.046-.1691.0618-.2575.0445-.0884-.0174-.1674-.0666-.2217-.1384-.0544-.0718-.0805-.1612-.0733-.2509.0073-.0898.0473-.1738.1125-.236l.759-.7333-.3212.1848c-.0771.0434-.1673.0574-.2539.0395-.0867-.0179-.1639-.0666-.2175-.137s-.08-.1578-.0742-.2461c.0058-.0882.0433-.1715.1056-.2343l.8602-.8492-.4194.2413c-.0757.0436-.1645.0587-.2504.0426-.0858-.0161-.1631-.0623-.218-.1303-.0548-.068-.0835-.1533-.081-.2406s.0361-.1709.0947-.2356l1.3031-1.4308-.8484.4892c-.0764.0436-.1659.0583-.2522.0414-.0864-.0168-.1637-.0642-.2181-.1334-.0543-.0691-.0819-.1555-.0779-.2434.0041-.0878.0396-.1713.1001-.2352l1.1242-1.1821-.6754.3894c-.0762.0441-.1656.0593-.2521.0429s-.1641-.0634-.2188-.1323c-.0548-.0689-.0828-.1552-.0792-.2432.0037-.0879.0389-.1716.0991-.2357l1.2063-1.2878-.7546.4349c-.0781.0475-.1712.0641-.2609.0466-.0898-.0176-.1697-.0681-.2241-.1415-.0545-.0735-.0795-.1647-.0702-.2556.0092-.091.0522-.1752.1204-.2362l.8066-.7582-.3732.2148c-.0809.0457-.1761.059-.2664.0372s-.169-.0771-.2201-.1547c-.0511-.0775-.0709-.1716-.0553-.2632s.0653-.1738.1392-.2301l3.938-2.9385-3.454 1.9939c-.0814.0467-.1776.0605-.2688.0384s-.1704-.0783-.2215-.157c-.051-.0787-.0699-.174-.0528-.2663.0172-.0922.069-.1744.1449-.2296l1.7262-1.24153-.9841.56833c-.0781.046-.1705.0615-.2594.0434-.0888-.0181-.1678-.0685-.2217-.1414s-.0788-.1633-.07-.2535.0507-.17403.1177-.23516l1.9727-1.83334c-.076.01621-.1551.0079-.226-.02372-.0709-.03163-.1299-.08495-.1686-.15228-.0484-.08406-.0616-.1839-.0366-.27764.0251-.09374.0862-.17375.1701-.22249l2.64-1.52167c.0781-.04604.1705-.0615.2594-.04339.0888.0181.1678.06848.2217.14141s.0788.16324.07.25348c-.0088.09025-.0507.17403-.1177.23517l-1.9155 1.77613 4.425-2.5542c.0813-.0467.1775-.06043.2687-.03836s.1705.07825.2215.15699.0699.17404.0528.26629-.069.17442-.1448.22962l-1.7263 1.24666 2.6114-1.507c.0809-.04567.1761-.05894.2664-.03713s.1689.07708.22.15464c.0512.07756.0709.17163.0554.26321-.0156.09157-.0653.17383-.1392.23015l-5.7809 4.31343c.013.0136.0252.0278.0367.0426.0535.0721.0787.1614.0707.2509s-.0485.173-.114.2345l-.8066.759.1466-.085c.0761-.0436.1653-.0585.2514-.042.0861.0166.1634.0634.218.132.0545.0687.0826.1546.0793.2422-.0034.0876-.038.1711-.0977.2354l-1.2063 1.2899.7546-.4356c.0764-.0436.1659-.0583.2522-.0415.0863.0169.1637.0643.218.1334.0543.0692.082.1556.0779.2435-.004.0878-.0395.1713-.1.2351l-1.122 1.1734.6739-.3887c.0757-.0436.1645-.0587.2504-.0426.0858.0161.1631.0623.2179.1303.0549.068.0836.1533.0811.2406s-.0361.1709-.0947.2356l-1.3039 1.4315.8492-.4855c.0772-.0439.1678-.0584.2548-.0406.0871.0178.1647.0666.2185.1373.0538.0708.08.1586.0739.2472-.0061.0887-.0442.1721-.1072.2347l-.8602.8492.4195-.2412c.0775-.046.1691-.0618.2575-.0445.0884.0174.1674.0666.2218.1384s.0804.1612.0732.2509c-.0073.0898-.0473.1738-.1125.236l-.7576.7333.3198-.1841c.0753-.0431.1635-.0581.2489-.0423.0853.0158.1623.0613.2173.1286.0549.0672.0841.1518.0826.2386-.0016.0868-.0339.1702-.0912.2354l-1.3934 1.5693.9336-.5382c.078-.0419.1684-.0541.2547-.0345.0863.0197.1626.0699.2148.1414s.0767.1594.0692.2476c-.0076.0882-.0468.1706-.1105.2321l-.3248.2934c.0766-.0172.1567-.0093.2284.0225.0718.0317.1315.0857.1704.1539.0388.0682.0547.1471.0454.225-.0094.078-.0435.1509-.0974.208l-1.1872 1.2635.7333-.4253c.0765-.0442.1665-.0593.2532-.0424.0868.0168.1645.0644.219.134.0544.0696.0819.1566.0773.2448-.0045.0883-.0408.1719-.1022.2356l-1.1 1.1425.6505-.3747c.0838-.0439.1813-.0536.2721-.0273.0908.0264.168.0868.2153.1687.0473.0818.0612.1788.0387.2707s-.0796.1715-.1594.2222l-2.8894 1.6676c-.0536.0314-.1145.0483-.1767.0491z"/></g><path d="m7.47537 41.4333c-.07294-.0001-.14418-.022-.20461-.0629-.06043-.0408-.1073-.0988-.13462-.1664s-.03385-.1419-.01875-.2132c.0151-.0714.05114-.1366.10351-.1874l.88-.8477-.5588.3226c-.06111.0353-.1311.0522-.20157.0486-.07047-.0035-.13842-.0273-.19571-.0685-.05729-.0411-.10148-.098-.12726-.1637-.02579-.0656-.03208-.1373-.01812-.2065l.23906-1.1733c-.06535-.0236-.12265-.0653-.16524-.1202s-.06871-.1207-.07532-.1899c-.00661-.0691.00656-.1387.03799-.2007.03142-.062.0798-.1137.1395-.1492l.36667-.2127c.06111-.0353.1311-.0521.20157-.0486s.13842.0273.19571.0685.10148.098.12727.1637c.02579.0656.03208.1374.01812.2065l-.20533 1.0091 2.43466-1.4058c.0775-.046.1692-.0618.2576-.0444.0884.0173.1673.0666.2217.1384s.0804.1611.0732.2509-.0473.1737-.1125.2359l-.8756.8463 2.4823-1.433c.0748-.0424.1621-.0572.2466-.0418.0846.0154.161.06.2161.126.055.066.0851.1493.085.2352-.0002.086-.0305.1691-.0857.235l-1.1073 1.3061 3.2296-1.8722c.078-.0419.1685-.0541.2548-.0344.0863.0196.1625.0698.2147.1413s.0768.1594.0692.2476-.0468.1706-.1104.2322l-.6329.5676 1.1909-.6872c.0724-.0415.1567-.0571.2391-.0442s.158.0535.2142.1151.0898.1406.0951.2238-.0179.1658-.0658.2341l-.762 1.0794.2897-.1664c.0417-.0266.0884-.0444.1372-.0524s.0987-.0061.1467.0057c.0481.0117.0932.0331.1328.0628.0396.0296.0727.067.0975.1098.0247.0428.0405.0902.0465.1393s.0019.0989-.0118.1464c-.0138.0474-.0371.0917-.0684.1299-.0313.0383-.07.0699-.1138.0928l-1.7358 1.0017c-.0723.0412-.1564.0566-.2386.0437-.0822-.013-.1575-.0535-.2137-.1149-.0561-.0614-.0897-.1401-.0952-.2231s.0174-.1654.0649-.2337l.7612-1.0794-2.7954 1.6133c-.078.0418-.1685.0541-.2548.0344-.0863-.0196-.1626-.0698-.2148-.1413-.0521-.0715-.0767-.1594-.0691-.2476s.0468-.1707.1104-.2322l.6329-.5668-2.013 1.1623c-.0748.0429-.1623.058-.2471.0428-.08481-.0152-.16157-.0598-.21679-.126-.05522-.0661-.08538-.1496-.08517-.2358.0002-.0862.03076-.1695.0863-.2354l1.10806-1.3061-3.234 1.8671c-.05559.0325-.11892.0495-.18333.0491z" fill="#57787d"/><path d="m5.8481 43.6095c-.07159.0002-.14167-.0206-.2016-.0598-.05992-.0392-.10705-.095-.1356-.1607-.02854-.0656-.03723-.1382-.025-.2088.01222-.0705.04483-.1359.0938-.1882l.51333-.5448-.74946.4319c-.07812.0461-.17052.0615-.25937.0434s-.16784-.0685-.22172-.1414c-.05387-.0729-.07882-.1632-.07001-.2535.0088-.0902.05074-.174.1177-.2352l.54266-.5074-.1122.0645c-.07805.0435-.1693.057-.25661.038s-.16466-.0693-.21752-.1414c-.05286-.072-.0776-.1609-.06956-.2499.00805-.089.04831-.172.11323-.2334l.38426-.349c-.0763.0308-.16074.035-.23973.0119-.07899-.023-.14795-.0719-.19577-.1389-.04782-.0669-.07174-.148-.0679-.2302s.03521-.1607.08907-.2229l1.4102-1.6016-.95333.55c-.07814.0475-.1712.0641-.26094.0466-.08975-.0176-.16969-.0681-.22414-.1415-.05446-.0735-.0795-.1646-.07021-.2556s.05224-.1752.12042-.2362l.59767-.5617-.15987.0924c-.07498.0432-.16284.0586-.24803.0433-.08519-.0154-.16222-.0603-.21745-.127-.05523-.0666-.0851-.1506-.08433-.2372.00077-.0865.03214-.17.08854-.2357l1.474-1.7079-1.01273.5866c-.06139.0355-.13173.0524-.20251.0486-.07078-.0037-.13897-.0278-.19631-.0695s-.10137-.0991-.12677-.1652c-.0254-.0662-.03108-.1383-.01634-.2077l.23613-1.1073c-.06617-.0233-.12426-.0651-.16738-.1205-.04311-.0554-.06943-.1219-.07584-.1918s.00737-.1401.03969-.2024.08184-.114.14266-.149l.3718-.2141c.06145-.0355.13188-.0524.20276-.0487.07087.0038.13913.028.19651.0698.05737.0417.10139.0992.12672.1655.02532.0663.03086.1386.01595.2079l-.19947.9372 2.1736-1.254c.07498-.0432.16284-.0585.24803-.0432s.16222.0603.21745.1269c.05523.0667.0851.1507.08433.2373-.00077.0865-.03213.17-.08854.2356l-1.47474 1.7087 1.01347-.5867c.07813-.0467.17085-.0627.26014-.0449.08928.0179.16873.0683.22289.1415s.07915.1639.07011.2545-.05146.1746-.11901.2356l-.594.5603.15987-.0924c.07527-.0432.1634-.0582.24873-.0425s.16232.0611.2173.1282.08438.1516.08297.2383c-.00141.0868-.03354.1702-.09067.2355l-1.4102 1.5979.95334-.5492c.07805-.0435.1693-.057.25661-.038s.16466.0693.21752.1413c.05286.0721.0776.161.06956.25s-.04831.1719-.11323.2333l-.38426.3484c.0795-.0323.16782-.0357.24956-.0096s.15174.0801.1978.1525.06526.1587.05427.2438-.05149.1636-.11443.2219l-.54194.506.10854-.0623c.07607-.0436.16525-.0584.25135-.0419s.16343.0633.21797.132c.05454.0686.08269.1545.07932.2421-.00336.0876-.038.1712-.09764.2354l-.51334.5456.0594-.0337c.0838-.0439.1813-.0536.27212-.0273.09083.0264.16796.0868.21529.1687s.06119.1789.03869.2707c-.0225.0919-.07962.1715-.15943.2222l-2.2 1.2679c-.05385.0326-.11528.0506-.1782.0521z" fill="#86a9af"/><path d="m16.6608 43.6116c-.07.0001-.1385-.0199-.1974-.0575-.059-.0376-.106-.0913-.1354-.1548-.0295-.0634-.0402-.134-.0308-.2033.0093-.0693.0383-.1345.0835-.1879l.2933-.3483-.9636.5566c-.078.0429-.169.0559-.256.0367-.0869-.0192-.1639-.0695-.2166-.1413-.0526-.0719-.0773-.1604-.0694-.2491.0079-.0888.0478-.1716.1123-.233l.2698-.2457c-.0779.029-.1634.0307-.2423.0047-.079-.0259-.1468-.078-.1924-.1475-.0455-.0696-.066-.1526-.0582-.2354.0078-.0827.0436-.1604.1013-.2202l1.048-1.0743-.5977.3439c-.0761.0431-.1652.0575-.251.0407-.0859-.0168-.1629-.0637-.2172-.1323-.0542-.0686-.0822-.1544-.0788-.2418s.038-.1707.0975-.2349l1.1682-1.2379-.7187.4144c-.0767.0437-.1665.0582-.2531.041s-.164-.0651-.2181-.1348-.0813-.1566-.0765-.2447.0412-.1716.1026-.235l1.009-1.0267-.5639.3256c-.0764.0442-.1661.0593-.2528.0426-.0866-.0167-.1643-.064-.2189-.1333-.0545-.0694-.0822-.1561-.078-.2442s.04-.1718.1009-.2356l1.1418-1.21-.6967.4026c-.0753.0436-.1637.059-.2494.0434-.0856-.0156-.1629-.0612-.2181-.1286-.0551-.0674-.0844-.1522-.0828-.2392.0017-.0871.0343-.1707.092-.2359l.4745-.536-.0162.008c-.0643.0369-.1382.0534-.2121.0474-.0738-.006-.1442-.0343-.2017-.081-.0574-.0468-.0994-.1099-.1203-.181s-.0198-.1469.0032-.2173l.1577-.4767c-.0546-.033-.0996-.0796-.1306-.1353s-.047-.1185-.0463-.1823c.0006-.0637.0179-.1262.0501-.1812s.0781-.1007.1334-.1326l.3718-.2141c.0644-.0374.1387-.0542.2129-.0483s.1449.0342.2026.0813c.0578.0471.0998.1106.1205.1821.0208.0715.0192.1477-.0044.2183l-.0682.2039 1.125-.649c.0753-.0437.1637-.059.2494-.0434.0856.0156.1629.0611.2181.1285.0551.0674.0844.1522.0828.2393-.0017.087-.0343.1706-.092.2358l-.4737.5361.9445-.5449c.0763-.0436.1657-.0583.252-.0416.0862.0168.1636.064.218.1331.0544.069.0821.1553.0782.2431-.0038.0878-.0391.1713-.0994.2352l-1.1447 1.2064.6959-.4019c.0767-.0437.1665-.0583.2531-.0411s.164.0651.2181.1348.0813.1566.0765.2447c-.0048.0882-.0412.1716-.1026.2351l-1.0105 1.031.5654-.3263c.0762-.0436.1656-.0584.2518-.0417s.1635.0638.218.1327c.0544.0689.0823.155.0786.2428-.0037.0877-.0388.1712-.0989.2353l-1.1689 1.2378.7194-.4143c.0766-.0437.1664-.0583.2529-.0412.0865.0172.1639.0649.2181.1345.0541.0695.0814.1563.0768.2444-.0046.088-.0408.1715-.1019.235l-1.0436 1.0722.5977-.3447c.078-.0429.169-.056.256-.0368.0869.0193.1639.0695.2165.1414.0527.0718.0774.1604.0695.2491s-.0478.1715-.1123.233l-.319.2889c.0747-.0151.1522-.0066.2218.0243s.1278.0828.1666.1483c.0388.0656.0562.1416.0498.2175s-.0362.1479-.0854.2061l-.3396.4026c.0846-.0137.1713.0026.2451.0462s.13.1116.1589.1923c.0288.0807.0285.169-.001.2494-.0294.0805-.0861.1481-.1602.1912l-1.6508.9533c-.0554.0333-.1187.051-.1833.0513z" fill="#86a9af"/><path d="m9.77481 4.76046c-.07282-.00001-.14399-.0217-.20444-.06231-.06044-.04062-.10743-.09831-.13496-.16572-.02753-.06742-.03437-.14151-.01963-.21282.01473-.07132.05037-.13663.10236-.18761l1.64116-1.606-3.62043 2.09366c-.07925.04591-.17282.0605-.26229.04088-.08947-.01961-.16836-.072-.22115-.14685-.05278-.07486-.07564-.16676-.06407-.25762s.05672-.1741.12658-.23334l1.1-.93647-.67833.3916c-.07049.04183-.15297.05883-.23425.04829-.08129-.01054-.1567-.04802-.21419-.10644-.0575-.05842-.09376-.13442-.10299-.21587-.00924-.08144.00908-.16363.05203-.23344l.7084-1.19607c-.0838.04383-.1813.0536-.27212.02725-.09083-.02635-.16796-.08678-.21529-.16865-.04733-.08188-.06119-.17888-.03869-.27073.0225-.09186.07962-.17147.15943-.2222l1.2144-.700338c.07014-.039948.1515-.055636.23146-.044632.07996.011005.15406.048086.2108.105494s.09295.131933.10301.212019c.01007.080085-.00657.161254-.04734.230919l-.7084 1.195338 2.94653-1.699138c.0792-.044988.1722-.058922.2611-.03909.0888.019832.1671.07201.2196.146382.0525.074373.0755.16562.0645.255988-.0111.090368-.0554.173392-.1243.232918l-1.1.93647 2.6562-1.532668c.0773-.044582.1682-.059442.2557-.041795.0874.017647.1655.06659.2195.137655.0539.071066.0801.159376.0737.248379-.0065.089003-.0452.17259-.1089.235099l-1.6405 1.6038 3.2575-1.880272c.0754-.043124.1637-.058074.2491-.042186.0854.015889.1624.061584.2172.128943.0549.067359.084.152006.0823.238855-.0017.08686-.0343.17027-.0918.23539l-1.4498 1.62947 1.5554-.89834c.0756-.04358.1642-.0588.25-.04291s.1631.06183.218.12958c.055.06776.084.15288.0818.24009-.0022.0872-.0354.17077-.0936.23571l-.3315.37033c.0629-.01193.1278-.00719.1883.01376s.1145.05738.1566.10566c.042.04828.0707.10673.0831.16954.0125.0628.0083.12777-.0122.18844l-.1408.41654c.0495.03107.0906.0739.1195.12466.0487.08413.062.18414.037.27806s-.0863.17406-.1704.22281l-.3667.21193c-.0645.03747-.1389.05438-.2132.04848-.0744-.0059-.1451-.03434-.2029-.08151s-.0998-.11083-.1204-.1825c-.0207-.07167-.019-.14793.0048-.2186l.0455-.13273-.9893.57053c-.0754.04311-.1638.058-.2492.04202-.0855-.01598-.1625-.0618-.2173-.12928s-.0838-.15223-.0819-.23914.0346-.17031.0923-.23533l.2889-.32194-1.54.88807c-.0755.04359-.164.05886-.2497.04307-.0858-.0158-.1631-.06162-.2181-.12925s-.0841-.15264-.0821-.23979.035-.17074.0931-.23576l1.4498-1.6258-3.80016 2.19193c-.05559.03255-.11892.04952-.18333.04913z" fill="#86a9af"/><path d="m5.76012 35.5447c-.07937 0-.15659-.0258-.22006-.0735-.06346-.0476-.10975-.1146-.13191-.1908-.02215-.0762-.01897-.1576.00905-.2318.02803-.0743.0794-.1375.14639-.18l2.95533-1.8847-4.1624 2.4024c-.08261.047-.18022.06-.27227.0364s-.17134-.082-.22117-.1629c-.04982-.0809-.06628-.178-.04592-.2708.02037-.0928.07597-.1741.1551-.2268l7.94784-5.2235-9.03684 5.2213c-.04132.0248-.0871.0412-.13474.0482-.04764.0071-.09621.0047-.14292-.007-.04671-.0118-.09066-.0325-.12934-.0612s-.07132-.0648-.09607-.1061-.04112-.0871-.04818-.1347c-.00705-.0477-.00465-.0962.00706-.1429.01171-.0468.03251-.0907.06121-.1294.02869-.0387.06473-.0713.10604-.0961l.89907-.5588-1.15867.6688c-.08247.0462-.17957.0587-.27104.035-.09147-.0238-.17025-.0819-.21991-.1623s-.06636-.1769-.04662-.2693.0744-.1736.15257-.2267l10.30628-6.7936-10.77488 6.2194c-.08314.0505-.18293.0659-.27741.0427-.09448-.0231-.175917-.0827-.226387-.1659-.050471-.0831-.065845-.1829-.042741-.2774.023105-.0945.082795-.1759.165938-.2264l7.4206-4.7337-7.41106 4.2798c-.082858.0509-.18256.0669-.277179.0443-.094618-.0225-.176401-.0817-.227358-.1646-.050957-.0828-.066914-.1826-.044359-.2772.022554-.0946.081772-.1764.164625-.2273l10.560011-6.8846-10.259344 5.9217c-.041073.0251-.086695.0419-.13426.0494s-.096143.0056-.142959-.0057c-.09455-.0227-.176185-.0821-.226948-.1651-.050762-.0829-.066493-.1826-.043733-.2772.022761-.0945.082149-.1762.1651-.2269l10.131044-6.5758-9.748244 5.6298c-.083134.0458-.180784.0575-.272415.0328-.091632-.0247-.170107-.084-.218923-.1654-.048817-.0814-.064171-.1785-.042835-.271s.077699-.1731.15724-.2249l3.404137-2.1208-3.027204 1.7475c-.082927.0456-.180276.0574-.271684.0329-.091407-.0245-.169794-.0834-.218764-.1644s-.06473-.1778-.043983-.2701c.020746-.0924.076392-.1731.155298-.2254l6.841997-4.334-6.462864 3.7312c-.083134.0458-.180784.0576-.272415.0329-.091632-.0248-.170107-.084-.218923-.1654-.048817-.0814-.064171-.1786-.042835-.2711.021336-.0924.077699-.173.15724-.2248l3.148937-1.9595-2.772004 1.6001c-.082813.0472-.180723.0602-.272991.0364s-.171644-.0826-.221313-.1639-.06573-.1788-.044779-.2717c.02095-.093.077266-.1741.157016-.2263l9.612511-6.2091-9.230444 5.3291c-.083024.0475-.1813.0606-.273871.0366s-.172113-.0832-.221663-.1649c-.04955-.0818-.065189-.1797-.043581-.2729.021608-.0931.078752-.1742.159248-.2258l7.385401-4.6933-7.005534 4.0487c-.082977.0486-.181738.0627-.274997.0392-.09326-.0235-.173551-.0827-.22357-.1648-.050018-.0822-.065759-.1807-.04383-.2743.021929-.0937.079772-.175.161064-.2264l9.019997-5.7984-8.638664 4.9844c-.083078.0466-.181007.059-.273066.0346s-.171025-.0836-.220189-.1651c-.049164-.0816-.064668-.1791-.043232-.2719s.078131-.1736.158087-.2253l6.070534-3.8302-5.692134 3.2861c-.083045.0443-.179969.055-.270696.0299-.090726-.0252-.168302-.0842-.216658-.165-.048355-.0808-.063785-.1771-.043092-.2689.020692-.0919.075921-.1723.154246-.2245l1.576664-.9768-1.200464.6923c-.082813.0471-.180723.0602-.272991.0364-.092268-.0239-.171644-.0826-.221313-.164-.049669-.0813-.06573-.1787-.044779-.2717.02095-.093.077266-.1741.157016-.2263l8.536731-5.5036-8.154664 4.7058c-.082668.0462-.180001.0586-.271618.0346-.091616-.0239-.170409-.0824-.219881-.1632-.049472-.0807-.065785-.1775-.045523-.27.020261-.0925.075526-.1736.154222-.2262l8.490534-5.522-8.107734 4.6808c-.082728.0455-.179817.0574-.271051.0331s-.16958-.0829-.218724-.1635-.065298-.1771-.045098-.2693.075198-.1731.15354-.2258l6.295667-4.0583-5.914334 3.4144c-.082986.045-.18011.0562-.271161.0314-.091052-.0249-.169017-.0839-.217672-.1647-.048655-.0809-.064253-.1774-.043547-.2695.020707-.0921.076121-.1726.154713-.2249l.855071-.5368-.477404.275c-.082218.0449-.178499.0566-.269084.0328-.090586-.0239-.168606-.0815-.21805-.1611-.049445-.0795-.066564-.175-.047844-.2668s.071858-.1729.148511-.2268l5.866671-3.9123-5.480204 3.1643c-.082758.0482-.181056.062-.27389.0386-.092835-.0234-.172841-.0821-.222924-.1637s-.066271-.1795-.045103-.2729c.021167-.0934.078011-.1748.158384-.2268l2.280667-1.4872-1.897134 1.0949c-.081856.0451-.177838.0572-.268336.0339s-.168683-.0803-.218582-.1593-.067745-.1741-.049893-.2658.070055-.1732.145944-.2277l3.676201-2.52416-3.285334 1.89636c-.08082.0463-.176233.0602-.266865.0387-.090633-.0215-.169691-.0767-.221121-.1544-.05143-.0776-.071377-.1719-.055791-.2638.015586-.0918.065537-.1743.13971-.2306l3.950471-2.9744-3.546404 2.04747c-.081504.0454-.177246.05802-.267729.03529-.090483-.02272-.168901-.07909-.219283-.1576-.050383-.07852-.068941-.17329-.051896-.26502.017046-.09172.068413-.17349.143641-.22867l.633601-.4488-.225134.13053c-.080552.04624-.175649.06019-.266085.03902-.090435-.02116-.16947-.07585-.22114-.15303s-.072126-.1711-.057235-.26277c.014891-.09168.064018-.17429.13746-.23115l.939404-.7216-.31094.17967c-.07805.0435-.1693.057-.25661.03797-.087307-.01903-.164659-.06929-.217521-.14134-.052862-.07204-.077597-.16091-.069556-.24991.008041-.08899.048303-.17199.113223-.23339l1.090464-.99293c-.07855-.03034-.14448-.08645-.187-.15914-.04862-.08421-.06179-.18429-.03663-.27822.02517-.09393.08662-.17402.17083-.22264l2.14867-1.243c.07805-.04351.1693-.05701.25661-.03798.08731.01904.16466.0693.21752.14134.05287.07205.0776.16091.06956.24991s-.0483.17199-.11322.23339l-.61967.56907 2.21467-1.2782c.08055-.04624.17565-.06018.26608-.03902.09044.02116.16947.07586.22114.15304s.07213.17109.05724.26277-.06402.17429-.13746.23114l-.94014.7216 2.3034-1.32953c.08151-.04539.17725-.05801.26773-.03529.09048.02273.1689.07909.21929.15761.05038.07851.06894.17328.05189.26501-.01705.09172-.06841.1735-.14364.22867l-.63287.44807 1.8436-1.06407c.08086-.0467.1765-.06079.26739-.0394.0909.0214.17021.07667.22175.15453.05139.07793.07113.17253.05519.26451s-.06637.17441-.14099.23049l-3.94974 2.9722 6.20838-3.58233c.0819-.04508.1779-.05721.2684-.03391.0905.02331.1686.08029.2185.1593s.0678.1741.0499.26583c-.0178.09173-.07.17318-.1459.22771l-3.67768 2.5234 5.44718-3.14233c.0826-.04545.1794-.05739.2705-.03333.0911.02405.1695.08225.2188.16253.0493.08027.0659.17645.0462.2686-.0197.09214-.0741.17316-.1519.22627l-2.2829 1.4872 3.6593-2.11127c.0823-.04613.1792-.05877.2706-.03529.0913.02347.1701.08125.22.16133.0498.08007.0669.17628.0477.26862-.0193.09235-.0734.17372-.1511.22721l-5.8666 3.91233 7.8466-4.52833c.0833-.04801.182-.06141.2751-.03732.093.02408.1729.08373.2224.1661s.0646.18088.0422.27433-.0805.17438-.162.22535l-.8382.52654 1.6573-.95334c.0828-.04549.1798-.05733.2711-.03303.0912.02429.1696.08284.2187.16346.0491.08061.0653.17708.0451.26931-.0202.09222-.0752.1731-.1535.2258l-6.2979 4.059 7.0987-4.09787c.0824-.04426.1787-.05531.269-.03089.0904.02442.168.08247.2169.16224.0489.07978.0655.17525.0463.26686-.0191.0916-.0726.17241-.1494.22586l-8.492 5.52346 9.0618-5.23893c.0826-.04483.1792-.05624.27-.03186.0907.02437.1687.08266.2177.16283s.0654.17611.0457.26801c-.0196.09189-.0738.17273-.1514.22582l-8.5294 5.50003 8.7553-5.05343c.083-.04435.18-.05507.2707-.02992s.1683.08424.2166.16502c.0484.08078.0638.17707.0431.26891-.0207.09185-.0759.17222-.1542.22446l-1.5774.97753 1.4278-.82427c.0832-.05027.183-.06542.2775-.04211.0944.02331.1756.08317.2259.16641.0503.08325.0654.18305.0421.27746-.0233.09442-.0831.1757-.1664.22598l-6.072 3.83096 5.7728-3.33303c.083-.04863.1818-.06271.275-.0392.0933.0235.1736.08271.2236.16485.05.08215.0658.18066.0438.2743-.0219.09364-.0798.17492-.161.22632l-9.02 5.79846 8.6401-4.98666c.083-.04745.1813-.06059.2739-.03661.0925.02398.1721.08317.2216.16496.0496.08179.0652.1797.0436.27285s-.0787.17416-.1592.22576l-7.3862 4.6934 7.0063-4.0444c.0826-.0448.1792-.0562.27-.0318.0908.0243.1687.0826.2177.1628s.0654.1761.0458.268c-.0197.0919-.0739.1727-.1514.2258l-9.6126 6.2062 9.2305-5.3276c.0834-.05.1833-.0648.2776-.0412.0944.0237.1755.0839.2255.1673.0499.0834.0647.1833.0411.2777-.0237.0943-.0838.1754-.1673.2254l-3.1489 1.9594 2.772-1.6001c.0829-.0456.1803-.0574.2717-.0329.0914.0246.1698.0835.2187.1645.049.081.0648.1777.044.2701-.0207.0923-.0764.1731-.1553.2253l-6.842 4.334 6.4629-3.7312c.0831-.0458.1808-.0575.2724-.0328s.1701.084.2189.1654.0642.1785.0429.271c-.0214.0925-.0777.1731-.1573.2249l-3.418 2.1266 3.0411-1.7556c.0827-.0462.18-.0586.2716-.0346s.1704.0824.2199.1632c.0495.0807.0658.1775.0455.27-.0202.0925-.0755.1736-.1542.2262l-10.131 6.5766 9.7482-5.6269c.0825-.0454.1794-.0574.2705-.0333.0911.024.1694.0822.2188.1625.0493.0803.0658.1765.0461.2686-.0196.0921-.074.1732-.1519.2263l-10.56 6.8852 10.1765-5.874c.0828-.0448.1797-.0561.2705-.0315.0909.0246.1689.0832.2177.1638.0488.0805.0648.1767.0446.2686-.0201.092-.0749.1727-.1529.2254l-7.4243 4.7329 7.0444-4.0663c.0823-.0443.1784-.0555.2686-.0314.0903.0242.168.0819.2171.1614.0492.0795.0661.1747.0474.2663-.0187.0915-.0717.1725-.1481.2263l-10.2997 6.7914 9.9147-5.7259c.0833-.0469.1816-.0594.274-.0349s.1716.0842.2207.1662c.049.0821.0641.1801.042.2731-.0222.093-.0797.1737-.1605.2248l-.9042.561.5273-.3036c.0826-.0469.1802-.06.2722-.0364.0921.0236.1714.082.2212.1629.0498.081.0663.1781.0459.2709-.0203.0928-.076.1741-.1551.2267l-7.9464 5.2228 7.5629-4.3655c.0828-.0449.1797-.0562.2705-.0316.0909.0246.1689.0833.2177.1638s.0648.1767.0446.2687c-.0201.092-.0749.1727-.1529.2253l-2.9612 1.8891 2.5813-1.4901c.0824-.0469.1798-.06.2717-.0367.0918.0234.1711.0815.2211.162.05.0806.0669.1774.047.2701-.0198.0927-.0748.1741-.1533.2272l-5.2705 3.52 4.884-2.8197c.0814-.046.1774-.0592.2682-.0368s.1697.0787.2204.1573c.0506.0786.0694.1737.0523.2656-.0171.092-.0686.174-.1442.2292l-5.7332 4.1066 5.3365-3.08c.082-.0469.179-.0603.2707-.0374s.171.0802.2214.1602c.0504.0799.068.1762.0491.2688-.0188.0925-.0727.1743-.1503.2281l-2.2191 1.5239 1.8282-1.0546c.0799-.0452.1739-.0587.2633-.038s.1678.0743.2197.15.0735.1682.0605.2591-.0596.1736-.1306.2317l-3.4276 2.7559 3-1.7343c.08-.0455.1742-.0591.2638-.0384.0896.0208.1682.0745.2201.1505.0519.0759.0733.1686.06.2597-.0133.091-.0603.1737-.1317.2317l-1.3215 1.0575.6314-.3667c.0789-.046.1722-.0608.2615-.0417.0893.0192.1682.071.2213.1453s.0766.1658.0658.2565c-.0107.0907-.055.1741-.124.2339l-.9577.836c.0566.0321.1035.079.1356.1357.0487.0841.062.1841.037.278-.0251.094-.0864.1741-.1704.2228l-2.192 1.265c-.0788.0457-.1718.0605-.2608.0413-.0891-.0191-.1679-.0707-.221-.1447-.0531-.0741-.0766-.1654-.066-.2559.0105-.0906.0545-.174.1232-.2339l.2523-.22-1.6133.9313c-.08.0454-.1742.0591-.2638.0384-.0897-.0208-.1682-.0745-.2201-.1505-.0519-.0759-.0733-.1687-.06-.2597s.0603-.1737.1317-.2317l1.32-1.0546-2.868 1.6552c-.08.0452-.1739.0587-.2633.038-.0895-.0207-.1679-.0742-.2198-.15-.0518-.0757-.0734-.1682-.0604-.2591.013-.0908.0596-.1735.1306-.2317l3.4195-2.7552-5.816 3.358c-.0819.0451-.1779.0572-.2684.0339s-.1687-.0803-.2186-.1593-.0677-.1741-.0499-.2658c.0179-.0918.0701-.1732.146-.2278l2.2191-1.5246-3.7122 2.1436c-.0814.046-.1774.0592-.2682.0368s-.1696-.0787-.2203-.1573c-.0507-.0787-.0695-.1737-.0524-.2657.0171-.0919.0687-.1739.1442-.2291l5.7317-4.1067-8.17664 4.722c-.08229.0461-.17918.0587-.27054.0353-.09136-.0235-.17016-.0813-.22002-.1614-.04986-.08-.06694-.1762-.04769-.2686.01925-.0923.07335-.1737.15105-.2272l5.27124-3.52-7.17204 4.1419c-.05553.0329-.11877.0506-.18334.0513z" fill="#c1dadc"/><path d="m11.5047 19.4015c-.0764-.0001-.1509-.024-.213-.0685-.0622-.0444-.1089-.1072-.1336-.1795s-.0262-.1505-.0043-.2237.0661-.1378.1265-.1846l.9826-.7627-1.9418 1.1213c-.0812.0458-.1767.059-.2673.0369-.0905-.0222-.16921-.0779-.22011-.156-.05089-.078-.07015-.1726-.05386-.2643.01629-.0918.06691-.1739.14157-.2297l1.2027-.88-1.80476 1.0421c-.08069.0477-.17657.0627-.26796.0419s-.17135-.0758-.22345-.1537c-.05209-.0779-.07238-.1728-.05668-.2652s.06618-.1753.14109-.2317l3.09616-2.3774-3.74003 2.1596c-.08155.0466-.17784.06-.26903.0377-.09118-.0224-.17031-.0789-.22108-.1579s-.06931-.1744-.05181-.2666c.01751-.0923.06974-.1743.14592-.2292l1.97487-1.4072-2.19267 1.265c-.08062.0456-.17552.059-.26562.0375s-.16873-.0763-.22009-.1534c-.05136-.077-.07165-.1707-.05677-.2621.01487-.0915.0638-.1739.13695-.2307l3.58816-2.7427-3.75976 2.1707c-.08116.0458-.17672.059-.26725.0369-.09053-.0222-.16924-.0779-.22013-.156-.0509-.0781-.07015-.1726-.05386-.2643.01629-.0918.06691-.1739.14157-.2297l2.3892-1.7482-2.22933 1.2877c-.08036.0456-.17498.0592-.26493.0381-.08995-.0212-.1686-.0755-.22022-.1521-.05162-.0767-.0724-.17-.05818-.2613.01421-.0913.06238-.1739.13486-.2312l2.68473-2.09-2.23666 1.2907c-.08056.0462-.17565.0602-.26609.039-.09043-.0211-.16947-.0758-.22114-.153s-.07213-.1711-.05723-.2628c.01489-.0917.06401-.1743.13746-.2311l1.1-.8478-.30507.176c-.07933.0454-.17272.0594-.26188.0395s-.16768-.0724-.22016-.1472c-.05249-.0748-.07516-.1665-.06359-.2571s.05657-.1736.12616-.2328l1.04573-.88c-.04825-.0311-.08826-.0733-.11659-.1232-.04839-.0842-.06144-.1841-.03628-.2778.02515-.0938.08646-.1737.17047-.2224l2.33567-1.34857c.0793-.04533.1727-.05941.2619-.03948.0891.01992.1677.07242.2201.1472.0525.07478.0752.16646.0636.25709-.0115.09063-.0565.17367-.1261.23286l-.1614.13566 1.5298-.88c.0805-.04623.1756-.06018.2661-.03902.0904.02117.1694.07586.2211.15304s.0721.17109.0572.26277-.064.17429-.1374.23115l-1.1066.8492 2.0056-1.1572c.0804-.04655.1755-.06086.266-.04003s.1698.07525.2217.15225c.052.077.0728.17085.0582.26259-.0146.09175-.0634.17454-.1367.23165l-2.6832 2.08924 3.5068-2.0247c.0811-.04581.1767-.05899.2672-.03687s.1693.07788.2201.15595c.0509.07807.0702.17258.0539.26434s-.0669.17388-.1416.22968l-2.3877 1.7468 2.7977-1.6134c.0806-.0466.176-.0607.2667-.0395.0907.0211.1699.076.2216.1535.0518.0774.072.1717.0568.2636-.0153.0919-.0649.1745-.1389.2311l-3.5845 2.7383 3.916-2.2609c.0816-.0479.1786-.0624.2706-.0404.092.0219.172.0785.2233.1581.0512.0795.0697.1758.0516.2687-.0181.0928-.0714.1751-.1488.2296l-1.9748 1.4073 1.9294-1.1118c.0805-.0462.1756-.0602.2661-.039.0904.0212.1694.0759.2211.1531.0517.0771.0721.171.0572.2627s-.064.1743-.1374.2312l-3.0954 2.3782 2.8776-1.6662c.0811-.0458.1767-.059.2672-.0368.0905.0221.1693.0778.2201.1559.0509.0781.0702.1726.0539.2644-.0163.0917-.0669.1738-.1416.2296l-1.2004.88.6915-.3997c.0805-.0469.1758-.0614.2666-.0405.0908.0208.1702.0754.2222.1527s.0727.1714.0577.2634c-.0149.0919-.0643.1748-.138.2316l-.9842.7627.1108-.0631c.0841-.0478.1838-.0604.2773-.0351.0934.0254.173.0867.2214.1705.0484.0839.0617.1835.037.2771-.0248.0936-.0855.1736-.1691.2226l-4.7666 2.75c-.0548.032-.117.0489-.1804.0491z" fill="#fff"/><path d="m34.7909 43.6115c-.0769 0-.1519-.0242-.2144-.0692-.0624-.045-.1091-.1085-.1334-.1815-.0244-.073-.0251-.1518-.0022-.2253.023-.0735.0685-.1378.13-.184l4.0202-3.0859-5.8227 3.3616c-.0822.0455-.1787.0578-.2696.0342-.0909-.0235-.1693-.081-.2191-.1607-.0497-.0796-.067-.1754-.0483-.2674.0188-.092.0721-.1733.1491-.2272l1.6074-1.0787-1.8678 1.0794c-.0825.049-.1809.0637-.2741.041s-.1738-.0811-.2245-.1626-.0674-.1796-.0466-.2732c.0209-.0937.0776-.1754.158-.2278l2.0006-1.3354-1.9529 1.1272c-.0824.0477-.18.0615-.2724.0385-.0924-.0229-.1722-.0809-.2226-.1617-.0503-.0808-.0673-.1779-.0474-.271.02-.0931.0754-.1747.1545-.2277l2.6964-1.8121-2.3503 1.3582c-.0817.0471-.1783.0609-.2699.0386s-.1711-.0791-.222-.1584c-.0508-.0794-.0692-.1753-.0512-.2678.018-.0926.0709-.1746.1478-.2292l5.28-3.7466-4.8847 2.8234c-.0819.0469-.1787.0605-.2703.038-.0916-.0226-.171-.0797-.2216-.1593-.0507-.0797-.0686-.1757-.0502-.2683s.0718-.1744.149-.2286l4.6934-3.281-4.3003 2.4809c-.0826.047-.1802.06-.2723.0364-.092-.0236-.1713-.082-.2211-.1629-.0499-.0809-.0663-.178-.046-.2708.0204-.0929.076-.1741.1551-.2268l.7957-.5221-.4114.2376c-.0817.0464-.1782.0596-.2693.0369-.0912-.0226-.1703-.0794-.2208-.1587-.0505-.0792-.0687-.1748-.0508-.267.0179-.0923.0706-.1741.1471-.2287l4.2592-2.9861-3.8654 2.2315c-.0816.0448-.1771.0569-.2673.0339s-.1682-.0795-.2183-.1579c-.05-.0785-.0684-.173-.0514-.2645s.0682-.1731.1432-.2282l3.6806-2.5843-3.2868 1.8972c-.0819.0469-.1787.0605-.2703.038-.0916-.0226-.171-.0797-.2216-.1593-.0507-.0797-.0686-.1757-.0502-.2683s.0718-.1744.149-.2286l2.7977-1.9522-2.4046 1.3882c-.081.0461-.1765.0596-.2671.0378-.0905-.0219-.1694-.0773-.2206-.1552-.0511-.0778-.0707-.1722-.0548-.264s.0662-.1741.1406-.2302l3.93-2.9098-3.5281 2.0364c-.0819.0451-.1778.0572-.2683.0339s-.1687-.0802-.2186-.1593c-.0499-.079-.0678-.1741-.0499-.2658.0178-.0917.07-.1732.1459-.2277l1.0032-.6879-.528.3044c-.0816.0479-.1785.0623-.2706.0404-.092-.0219-.172-.0786-.2232-.1581-.0513-.0796-.0698-.1758-.0517-.2687s.0714-.1752.1488-.2296l2.2264-1.5833-1.3244.7641c-.0814.0481-.1783.0628-.2703.0412-.092-.0217-.1721-.078-.2236-.1573s-.0703-.1754-.0526-.2683c.0177-.0928.0705-.1753.1476-.2301l2.208-1.5979-.2867.165c-.0813.0462-.1771.0596-.268.0375-.0908-.0221-.1698-.078-.2207-.1564-.051-.0784-.0701-.1733-.0534-.2653s.0679-.1741.1432-.2296l.9665-.704c-.0793.0081-.1591-.0098-.2273-.051-.0683-.0413-.1212-.1036-.1508-.1777-.0296-.074-.0342-.1556-.0132-.2326.0209-.0769.0664-.1449.1295-.1936l1.1169-.8587-.4569.2632c-.081.0461-.1765.0596-.267.0378-.0906-.0219-.1695-.0773-.2207-.1552-.0511-.0778-.0707-.1722-.0548-.264s.0662-.1741.1406-.2302l.3278-.2442c-.0619.0035-.1238-.008-.1804-.0335-.0565-.0256-.1061-.0644-.1444-.1131-.0536-.0729-.0784-.163-.0696-.253s.0505-.1736.1172-.2347l2.4882-2.277-1.9 1.0941c-.0794.0461-.1731.0608-.2628.0412-.0896-.0197-.1686-.0722-.2214-.1473s-.0755-.1672-.0637-.2582c.0119-.091.0574-.1743.1277-.2333l2.3019-1.9463-1.7453 1.0076c-.0791.0456-.1724.06-.2615.0404-.0892-.0195-.1678-.0715-.2206-.146-.0528-.0744-.076-.1659-.0649-.2565.011-.0906.0554-.1738.1246-.2334l1.8208-1.5642-1.2701.7334c-.0791.0454-.1722.0598-.2613.0403s-.1677-.0716-.2205-.1459c-.0528-.0744-.076-.1659-.065-.2565.0109-.0905.0553-.1738.1244-.2334l.6006-.5177-.5559.3212c-.0686.0411-.1487.0587-.2282.0501-.0795-.0087-.154-.0431-.2121-.098-.0582-.0549-.0968-.1273-.1099-.2062-.0132-.0788-.0002-.1599.0369-.2307l.5947-1.1623-.1415.0807c-.0838.0438-.1813.0536-.2721.0272-.0909-.0263-.168-.0868-.2153-.1686-.0473-.0819-.0612-.1789-.0387-.2708.0225-.0918.0796-.1714.1594-.2222l1.2152-.701c.0685-.041.1485-.0584.2278-.0498.0793.0087.1537.043.2118.0977.058.0548.0966.127.1099.2057.0134.0787.0006.1596-.0362.2304l-.5947 1.163 2.8526-1.6478c.079-.0447.1717-.0585.2603-.0387.0886.0197.1667.0716.2192.1455.0526.074.0758.1649.0653.255-.0106.0901-.0542.1731-.1224.233l-.6006.5177 1.2944-.7458c.079-.0454.172-.0598.261-.0403s.1676.0714.2204.1457c.0528.0742.0761.1654.0653.2559s-.0548.1737-.1236.2334l-1.8209 1.565 1.9067-1.1c.0792-.0452.1724-.0592.2615-.0393.089.0199.1674.0722.2199.1468s.0753.166.064.2565-.056.1735-.1252.2329l-2.3012 1.9455 1.2467-.7216c.078-.0435.1693-.057.2566-.0379.0873.019.1646.0693.2175.1413s.0776.1609.0695.2499c-.008.089-.0483.172-.1132.2334l-2.4933 2.2785 2.2081-1.2724c.0809-.046.1764-.0595.267-.0377s.1695.0773.2206.1551c.0512.0779.0708.1723.0548.2641-.0159.0918-.0662.1741-.1406.2301l-.2141.1592c.0708-.013.1438-.0051.2101.0226.0664.0277.1233.0741.1639.1336.0519.0774.0723.1716.0572.2636-.0151.0919-.0647.1746-.1386.2314l-1.1147.858.7994-.462c.0812-.0463.1771-.0597.2679-.0376.0909.0221.1698.0781.2208.1565.0509.0784.07.1732.0533.2652s-.0679.1742-.1431.2297l-.7289.5309.4136-.2383c.0814-.0481.1782-.0628.2702-.0412.0921.0217.1722.078.2237.1573.0514.0793.0703.1754.0526.2683-.0177.0928-.0706.1753-.1476.2301l-2.2 1.5972 1.9067-1.1c.0814-.045.1768-.0574.267-.0346.0902.0227.1683.0789.2187.1571.0503.0782.069.1726.0524.2641-.0167.0915-.0675.1732-.1421.2287l-2.2279 1.5854 2.0203-1.166c.0819-.0451.1779-.0572.2684-.0339s.1686.0803.2185.1593.0678.1741.0499.2658c-.0178.0918-.07.1732-.1459.2278l-1.0032.6886.9181-.5302c.081-.0461.1765-.0596.2671-.0378.0905.0218.1694.0773.2206.1552.0511.0778.0707.1722.0548.264s-.0662.1741-.1406.2302l-3.9336 2.9113 4.2306-2.442c.0818-.047.1786-.0606.2703-.038.0916.0226.171.0796.2216.1593.0507.0796.0686.1757.0502.2683-.0184.0925-.0718.1744-.149.2286l-2.7984 1.9529 3.0521-1.76c.0817-.0464.1781-.0596.2693-.037.0912.0227.1702.0795.2208.1587.0505.0792.0687.1748.0508.2671-.0179.0922-.0706.1741-.1471.2286l-3.6784 2.5828 3.9263-2.2667c.0817-.0464.1781-.0596.2693-.0369.0912.0226.1702.0794.2207.1586.0506.0793.0688.1749.0508.2671-.0179.0923-.0705.1741-.147.2287l-4.2622 2.9876 4.3025-2.4838c.0826-.047.1802-.0601.2723-.0365.092.0236.1713.0821.2211.163.0499.0809.0663.178.046.2708-.0204.0928-.076.1741-.1551.2267l-.7942.5214.547-.316c.0819-.047.1787-.0606.2703-.038s.171.0796.2217.1592c.0506.0797.0686.1758.0502.2683-.0185.0926-.0719.1745-.1491.2287l-4.6933 3.2794 4.3193-2.4933c.0817-.0471.1783-.0609.2699-.0386s.1711.079.222.1584c.0508.0794.0692.1753.0512.2678s-.0709.1746-.1478.2291l-5.28 3.7466 4.8876-2.8211c.0822-.0455.1787-.0578.2696-.0342.0909.0235.1693.0811.2191.1607.0497.0797.067.1754.0483.2674-.0188.092-.0721.1734-.149.2272l-2.6987 1.8128 2.3071-1.3361c.0822-.0449.1785-.0566.269-.0328.0906.0239.1686.0815.2181.1611.0494.0795.0666.175.0478.2668-.0187.0918-.0718.1729-.1485.2268l-2.0064 1.3412 1.62-.935c.0822-.0461.1791-.0587.2705-.0353.0914.0235.1702.0813.22.1614.0499.08.067.1762.0477.2686-.0192.0923-.0733.1737-.151.2272l-1.6031 1.0751 1.2159-.7018c.0806-.0466.176-.0608.2667-.0396.0907.0211.1699.076.2216.1535s.072.1717.0568.2636c-.0153.0919-.0649.1745-.1389.2311l-4.0201 3.0859 3.6139-2.0863c.0797-.0448.1733-.0582.2623-.0375.0891.0206.1672.0738.2191.1491s.0738.1673.0614.2579c-.0125.0906-.0583.1732-.1285.2318l-2.4354 1.98 2.0211-1.1667c.078-.0447.1699-.0592.2579-.0406s.1662.0689.2195.1414c.0534.0724.0782.162.0698.2516s-.0494.1729-.1153.2342l-1.3266 1.2254.8969-.5133c.0755-.0436.1642-.0588.2499-.0429.0858.0159.1631.0618.218.1296.055.0677.084.1528.0818.2401-.0022.0872-.0354.1707-.0936.2357l-.6145.6849c.071.0174.1351.0556.1843.1098.0491.0542.0809.1218.0913.1941.0104.0724-.0011.1462-.033.212-.0318.0658-.0826.1206-.1458.1573l-1.5034.8683c-.0755.0435-.1642.0588-.2499.0429-.0858-.0159-.1631-.0619-.2181-.1296-.0549-.0678-.0839-.1529-.0817-.2401.0021-.0872.0353-.1708.0936-.2357l.3967-.44-1.7717 1.0135c-.0781.0447-.1699.0591-.2579.0405-.0881-.0186-.1662-.0689-.2196-.1413-.0533-.0725-.0782-.1621-.0698-.2516.0084-.0896.0495-.173.1154-.2343l1.3266-1.2217-3.1336 1.8084c-.0797.0447-.1733.0581-.2624.0374-.089-.0206-.1672-.0738-.219-.1491-.0519-.0753-.0738-.1673-.0614-.2578.0124-.0906.0583-.1733.1285-.2319l2.4361-1.98-4.4733 2.5836c-.0565.0329-.1209.0499-.1863.0491z" fill="#356854"/><path d="m32.626 39.9662c-.0788-.0001-.1554-.0256-.2185-.0727-.0632-.0471-.1095-.1132-.1321-.1886-.0226-.0755-.0203-.1562.0065-.2302.0268-.0741.0767-.1375.1424-.181l.3381-.22-1.0267.5911c-.0822.0469-.1794.0601-.2711.037-.0918-.0231-.1711-.0808-.2213-.1611-.0502-.0802-.0674-.1767-.0481-.2693.0194-.0927.0738-.1743.1519-.2277l3.0866-2.0915-2.695 1.5517c-.0806.0454-.1752.0586-.2651.0371-.0899-.0214-.1683-.076-.2196-.1529-.0514-.0768-.0718-.1702-.0573-.2614.0146-.0912.063-.1736.1357-.2307l4.2438-3.2626-3.8375 2.2147c-.0799.0444-.1735.0574-.2625.0364-.0889-.021-.1668-.0745-.2184-.1499-.0516-.0755-.0732-.1675-.0605-.258.0128-.0905.0588-.173.1292-.2313l2.4714-1.98-2.0592 1.1858c-.0777.0442-.1687.0586-.2562.0404-.0875-.0181-.1653-.0676-.2189-.1391-.0535-.0715-.0792-.1601-.072-.2491.0071-.089.0465-.1724.1107-.2345l1.551-1.4857-1.1146.6431c-.0759.0431-.1646.0577-.2503.0413-.0856-.0165-.1626-.0629-.2171-.131s-.083-.1534-.0802-.2406c.0027-.0872.0364-.1705.0951-.2351l.3784-.4107c-.0641.02-.1324.022-.1976.0059-.0652-.0162-.1246-.05-.1719-.0977-.0473-.0476-.0806-.1073-.0962-.1726-.0157-.0653-.0131-.1336.0074-.1976l.162-.5052c-.055-.0327-.1006-.0792-.1321-.1349-.0315-.0556-.0478-.1186-.0475-.1826.0004-.064.0175-.1268.0497-.1821.0321-.0553.0782-.1013.1336-.1333l.3667-.2119c.064-.0372.1379-.0541.2117-.0484.0739.0056.1443.0335.202.0799.0578.0464.1001.1093.1214.1802.0213.071.0206.1467-.002.2173l-.0777.2405 1.166-.6732c.0758-.0431.1645-.0577.2502-.0413.0856.0165.1626.0629.2171.131s.083.1534.0802.2406c-.0027.0872-.0364.1706-.0951.2351l-.3578.3894 1.6595-.9577c.0776-.0443.1687-.0587.2561-.0405.0875.0182.1653.0677.2189.1391.0536.0715.0792.1601.0721.2492-.0071.089-.0465.1724-.1108.2344l-1.5502 1.485 3.5933-2.0724c.0799-.0444.1735-.0574.2624-.0364.089.021.1669.0745.2185.1499.0516.0755.0731.1675.0604.258s-.0588.173-.1292.2313l-2.472 1.98 4.4872-2.5901c.0806-.0462.1757-.0602.2661-.039s.1695.0758.2211.153c.0517.0772.0722.1711.0573.2628s-.064.1743-.1375.2311l-4.2423 3.2626 6.7122-3.8764c.0822-.0468.1794-.0601.2711-.0369.0918.0231.1711.0808.2213.161s.0674.1768.0481.2694c-.0194.0926-.0738.1742-.1518.2277l-3.0852 2.0907 2.8652-1.6537c.0822-.0443.1783-.0555.2686-.0313.0903.0241.1679.0818.2171.1613.0491.0795.0661.1748.0473.2663-.0187.0916-.0716.1725-.148.2263l-.3667.2413c.0824-.0414.1775-.0502.2661-.0247.0887.0256.1645.0836.2122.1626.0478.0789.064.173.0455.2634s-.0704.1704-.1454.2242l-2.3408 1.6662 1.947-1.1235c.0799-.0469.1747-.0618.2652-.0417s.17.0738.2226.1502c.0525.0764.0741.1699.0605.2616-.0137.0917-.0615.1749-.134.2327l-2.508 2.0291 2.0981-1.2107c.0768-.0448.1672-.0602.2545-.0434.0873.0169.1655.0649.22.1352.0545.0702.0817.1578.0764.2466-.0053.0887-.0426.1725-.105.2358l-1.5928 1.6229 1.1506-.6637c.073-.0423.1584-.0581.2418-.0448.0834.0134.1596.0551.2158.1181.056.0631.0886.1436.0922.2279s-.022.1672-.0724.2349l-.4342.5866c.086-.0366.1826-.039.2703-.0068.0877.0323.1598.0967.2015.1803s.05.18.0231.2694c-.0269.0895-.0869.1653-.1678.212l-1.4967.8631c-.0731.0416-.1581.0569-.241.0432s-.1586-.0554-.2145-.1182c-.0558-.0627-.0884-.1428-.0922-.2267-.0039-.084.0212-.1667.071-.2343l.4297-.5772-1.9374 1.1154c-.0768.0443-.167.0593-.254.0422-.0869-.0171-.1647-.0651-.219-.1351-.0543-.0701-.0814-.1574-.0763-.2459.0051-.0884.0421-.1721.1041-.2354l1.5921-1.6236-3.8133 2.2c-.079.0398-.1697.0497-.2554.0279s-.1606-.0738-.211-.1465c-.0503-.0727-.0727-.1611-.063-.249s.0508-.1693.1158-.2293l2.5065-2.0284-4.5657 2.6356c-.0816.0465-.1779.06-.2691.0376-.0912-.0223-.1703-.0788-.2211-.1578-.0507-.079-.0693-.1744-.0518-.2667.0175-.0922.0698-.1742.146-.2291l2.3466-1.6691-3.9688 2.2866c-.0554.0331-.1187.0508-.1833.0513z" fill="#f9d050"/><path d="m13.7528 8.73565c-9.04205-2.7654-10.56005 11.94825-1.0069 10.61285 5.4289-.8111 6.314-8.8807 1.0069-10.61285zm-.4063 9.67565c-7.26001 2.3767-8.44215-10.36205-.8067-9.13152 4.4675.79642 5.1334 7.60252.8067 9.13152z" fill="#262626"/><path d="m31.0026 41.2049c.8067 4.0876 6.6733 1.8047 9.6448 2.3379 1.5452-.0235 3.0595-.8551 3.1482-2.5506.0286-3.3557-.0139-6.7158 0-10.073-1.8986-6.1938-3.4987-4.0062-3.5999-12.8546.2581-.1944.4519-.4619.5563-.7677s.1145-.6359.0291-.9476c-.0854-.3116-.2625-.5904-.5082-.8003s-.5488-.3411-.87-.3767c1.7322-7.38175-7.0715-13.13915-12.4886-7.26002-4.2724 3.00662.9467 20.51062-3.6476 18.86502-1.2467-6.6176 4.2372-25.24868-6.6-23.47255.4348-2.07167-1.0377-3.187068-2.9986-2.791068-2.4112.229534-7.40155-1.154266-6.86549 2.796938-3.74953-.54927-7.224796 2.14426-6.604396 6.105v20.87138c-.061413.6324.004432 1.2707.193651 1.8772.18922.6065.497982 1.169.908075 1.6543.41009.4852.91321.8835 1.47969 1.1712.56647.2877 1.18482.4591 1.81858.504.5522 2.0797-1.49673 8.1767 1.562 8.0791 1.5532.2582 2.8402-.5133 2.43687-2.2198h6.24722c-.1466 1.2518.1379 2.4486 1.6508 2.1868.7971 0 2.1156.0961 2.3466-.921.0792-2.3584-.0102-4.7476.0213-7.1134 1.2468-.1461 2.3928-.7566 3.2096-1.7099.8168-.9532 1.2445-2.1792 1.1977-3.4337 11.4679.6417 2.3423-15.3912 7.1772-20.72398 3.7209-2.255 5.6129 2.65538 4.9559 5.67238-1.3743.1899-2.104 2.0775-.7781 2.882-.0187.6921-.0817 1.3824-.1885 2.0665-.2449 2.64-.1401 5.4428-2.1061 7.4712-2.5931 3.8595-.8617 9.0669-1.3281 13.475zm11.7334-1.8876h-10.6715c0-2.4647.0125-4.9273-.0139-7.392h10.6854zm-1.4587 3.6747c-3.044-.4744-9.6946 1.8774-9.2113-3.1086h10.67c.0176 1.1939.1114 2.9092-1.4587 3.1086zm-32.84375-42.019251c2.33195.423871 7.68315-1.604533 7.17855 2.339331-2.5857 0-5.1712 0-7.75642 0-.0286-.74506-.16207-2.03866.57787-2.339331zm-1.02667 42.020051c-.01027.0102-.00807.0132 0 0zm.1232-.3902c-.00807.1188-.11147.264-.1144.3579-3.28827.8932-1.2298-5.4142-1.7556-7.4067.6226.0088 1.24667 0 1.87.0044.00342 2.3457.00513 4.6926.00513 7.0408zm7.33332-4.8715h-6.26485v-2.1758h6.27075zm-5.68332 3.0536h-.58667v-2.2447h6.27069c0 .7458-.0139 1.4923-.022 2.241zm8.08942 2.2132c-2.6158.6006-.8727-5.742-1.3442-7.4389h1.8714c-.0872 2.4515.1738 5.0541-.1026 7.4374-.1335-.0132-.2794-.0022-.4188-.0022zm4.5848-10.4698c-2.2851 4.18-8.294 1.6786-12.18435 2.3217-3.32494.1298-8.27714.4562-8.40694-4.0986.5918-5.6144-1.801796-23.01052 1.62874-26.03332 2.88713-1.45713 6.41886-.3784 9.55755-.693 3.143.29334 7.5394-1.14033 9.3294 2.31367.72 8.71275.7472 17.46885.0814 26.18585zm14.6102-20.1887c-.1408-5.35332-8.5016-4.72778-8.3952.4217-1.1147 4.8767 3.396 18.2263-4.7946 17.0317-.0048-.7539-.0068-1.5075-.0058-2.2609 1.628.261 3.3271-.2134 2.9333-2.1091.0154-4.3267-.0271-8.6592 0-12.988.88-9.97338 14.1775-6.62205 12.1323 2.64-.6989.0095-1.2753.0535-1.87.0608.0036-.9328.0264-1.8663 0-2.7962zm-3.4526 15.7623c2.72-2.6165 2.3042-6.6499 2.6745-10.1039-2.0856-2.3598.9687-2.5351 2.7551-2.3254 1.4183.1819 1.7527 1.6273.671 2.5762.5016 2.9282-.1114 6.2861 1.6867 8.8206.9805 1.2796 1.8568 2.376 1.9301 4.0729h-10.6575c.001-1.0849.3286-2.1444.9401-3.0404z" fill="#262626"/><path d="m12.0705 11.4907c-1.4307-.1159-.7055 1.6976-.869 2.585.179.1015.3908.1286.5896.0754.1988-.0533.3687-.1826.473-.36-.1379-.6827.2926-1.878-.1936-2.3004z" fill="#262626"/></g></svg>