<svg fill="none" height="24" viewBox="0 0 24 24" width="24" xmlns="http://www.w3.org/2000/svg"><path clip-rule="evenodd" d="m13.5886 23.9999c-.0898.0004-.1692-.058-.1957-.1438-.0263-.0857.0063-.1787.0807-.2289l.3197-.2163-.8477.4895c-.0943.053-.2134.0231-.2717-.0678-.0583-.0911-.0353-.2118.0523-.2753l2.3103-1.6318-3.019 1.7433c-.0947.0506-.2124.0193-.2693-.0717-.057-.0911-.0337-.2107.0534-.2736l2.1577-1.4563-2.6175 1.5093c-.0953.0544-.2163.0236-.2742-.0696-.0577-.0932-.0315-.2153.0592-.2766l2.423-1.6177-2.8073 1.625c-.0951.0532-.2152.0224-.2729-.07-.0575-.0927-.0323-.2141.0576-.2759l3.1511-2.1157-3.4925 2.0128c-.0958.0557-.21853.0249-.27642-.0696-.05808-.0944-.03007-.2178.06293-.2779l2.14809-1.3977-2.3199 1.3388c-.09581.0546-.21757.0232-.2749-.0709-.05752-.094-.02988-.2167.06237-.277l1.84253-1.1885-1.97307 1.1387c-.0958.0545-.21757.0231-.2749-.071-.05752-.0939-.02988-.2166.06238-.277l1.76729-1.1375-1.82071 1.0511c-.09617.0549-.21831.0231-.27564-.0716-.05734-.0945-.02876-.2175.06424-.2773l.92817-.5907-.93826.5422c-.0958.0519-.21532.0194-.27172-.0736s-.02988-.214.06032-.2747l.7952-.5045-.75598.4363c-.09581.0545-.21757.023-.27509-.071-.05733-.0941-.02969-.2168.06256-.2771l1.95571-1.2647-1.90678 1.1015c-.09618.0564-.21943.0252-.27733-.0699-.05789-.095-.02894-.219.06518-.2784l1.58053-1.0195-1.47483.851c-.09562.0504-.21383.0176-.26986-.0747-.05602-.0924-.03007-.2125.05883-.2738l.71228-.4528-.55111.3182c-.09543.0543-.21682.0231-.27453-.0704-.05752-.0936-.03081-.2159.0607-.2768l3.01462-1.9807-2.80079 1.6163c-.09487.0514-.21309.02-.27005-.0715-.05714-.0913-.03305-.2114.05472-.2739l3.86132-2.5886-3.50369 2.0227c-.09524.0541-.21626.0233-.27415-.0697-.05771-.0932-.03156-.2153.0592-.2767l3.49924-2.3324-2.92516 1.6886c-.09524.0525-.21476.0213-.2721-.0711-.05714-.0923-.03193-.2133.05752-.2751l2.82394-1.8681-1.88531 1.0884c-.09543.0543-.21682.0231-.27453-.0704-.05752-.0936-.03063-.2159.06088-.2768l1.62566-1.0649-1.0394.5999c-.09435.0521-.21312.022-.27102-.0689-.05789-.091-.03492-.2114.05229-.2747l3.38003-2.3552-3.1613 1.8252c-.0951.0541-.21593.0237-.27401-.069-.05808-.0928-.03249-.2147.05771-.2765l2.5359-1.7135-2.3196 1.3377c-.0951.0542-.21593.0237-.27401-.0689-.05808-.0928-.03249-.2148.05771-.2766l2.5703-1.7379-2.354 1.3584c-.09454.0529-.21387.0226-.27177-.0687-.05808-.0913-.03454-.2121.05342-.2751l3.32125-2.30826-3.1029 1.79096c-.09566.0525-.21574.0206-.27251-.0726-.05678-.0932-.03026-.2146.06032-.2755l.16599-.1065c-.09633.0275-.1983-.0192-.24069-.1099-.04221-.0908-.01233-.1989.07059-.2552l2.6138-1.77057-2.3975 1.38517c-.09435.0528-.2135.0231-.27177-.068-.05826-.09113-.03529-.21177.0523-.27527l3.60917-2.54116-3.3897 1.9583c-.09472.05416-.21518.02447-.27382-.0676-.05845-.09188-.03418-.21365.05509-.2764l3.41923-2.38578-3.2005 1.84606c-.0951.05416-.21593.02372-.27401-.0691-.05808-.09262-.03249-.21458.05771-.27639l2.5862-1.75437-2.3699 1.3676c-.09435.05285-.2135.02316-.27177-.06798-.05826-.09113-.03529-.21178.0523-.27509l3.35667-2.37046-3.1372 1.81114c-.09528.05509-.21723.02484-.2755-.06854s-.03175-.21626.05957-.27752l1.83153-1.23164-1.6156.93265c-.0951.05509-.21667.02502-.27513-.06779-.05845-.09301-.03287-.2157.05808-.27733l1.99905-1.36797-1.783 1.02882c-.09428.0536-.21418.02391-.27245-.0676-.05845-.09151-.03492-.2129.05342-.27584l2.13253-1.49515-1.9125 1.1039c-.0951.05192-.21387.02055-.27102-.07134-.05715-.09188-.03249-.21234.05603-.27452l.27769-.18526-.0566.03268c-.09317.05378-.21213.02596-.2717-.0635-.05976-.08945-.03978-.20991.04557-.27527l2.17173-1.65745-1.798 1.0378c-.0944.05528-.2156.02652-.27476-.06555-.0592-.09189-.03529-.21421.05416-.27715l.4316-.30795c-.0926.03436-.1967-.00243-.2469-.08759s-.0321-.19404.043-.25847l.9264-.79912c-.0735-.0282-.1241-.09599-.1303-.17443-.0064-.07843.0332-.153509.1014-.192727l1.3928-.804163c.091-.051544.2062-.025772.2667.059388.0605.085346.0469.202441-.0318.27154l-.6202.536362 1.7206-.9946559c.0943-.0552792.2155-.02633236.2747.0655505.0592.0918834.0353.2142064-.0541.2771424l-.4055.289282.8942-.515627c.0932-.0526649.211-.024465.2702.06443.0594.088895.0398.208604-.0446.274154l-2.1695 1.657254 2.8007-1.616354c.0954-.056774.2187-.026706.2773.067605.0587.09431.0312.218128-.062.278636l-.2765.183953.4271-.244648c.0945-.053598.2144-.023904.2726.067605.0585.091696.0349.212903-.0534.275833l-2.1353 1.49403 2.3955-1.3831c.095-.05509.2166-.02502.2751.06798.0584.09282.0328.21552-.0581.27715l-2.0005 1.3689 2.1499-1.24116c.0948-.05248.2144-.02167.2719.0704.0573.09207.0329.2129-.056.27528l-1.8315 1.23201 1.8522-1.06935c.0943-.05285.2135-.02316.2717.06798.0583.09113.0353.21178-.0523.27509l-3.3563 2.37028 3.3642-1.94224c.095-.05416.2159-.02372.2739.06891.0579.09282.0325.21477-.0577.27658l-2.5861 1.75437 2.4567-1.41616c.0947-.05416.2152-.02446.2738.06742.0584.09207.0342.21383-.0551.27658l-3.4193 2.38616 3.2006-1.84775c.0945-.05509.2159-.02595.2747.0663.059.09226.0346.21477-.0553.27733l-3.6092 2.54116 3.3898-1.9583c.0947-.05192.2137-.02092.271.07059.0573.0917.0334.21197-.0547.27472l-2.611 1.76893 2.3947-1.38272c.0956-.05248.2157-.02055.2725.07264s.0302.21458-.0603.27546l-.1674.1072c.0962-.02801.1984.01774.2415.10795.0431.09038.0144.1987-.068.25566l-3.3225 2.31145 3.1046-1.79209c.095-.05434.2159-.02371.274.06892.058.09281.0324.21476-.0578.27658l-2.5701 1.7383 2.3539-1.359c.095-.05416.2159-.02372.274.06909.058.09282.0324.21477-.0578.27659l-2.5359 1.71345 2.3197-1.33901c.0947-.05435.2151-.02447.2738.06742.0584.09207.0341.21383-.0551.27658l-3.378 2.35311 3.1593-1.82366c.0952-.05173.2144-.01999.2712.07208.0569.09228.0317.21288-.0574.27468l-1.6294 1.0677 1.4156-.8159c.095-.0512.2134-.0194.2702.0723.0568.0918.0323.2119-.056.2741l-2.8207 1.8661 2.6065-1.5047c.0952-.0542.2164-.0234.2741.0696.0579.0932.0318.2154-.059.2768l-3.5001 2.3328 3.285-1.9008c.095-.0533.2153-.0224.273.0702.0575.0924.0323.214-.0575.2758l-3.8632 2.5914 3.6477-2.1056c.0956-.0542.217-.0232.2745.0704.0577.0935.0308.2161-.0607.2769l-3.0112 1.9785 2.7974-1.615c.096-.0527.2162-.0204.2728.0732.0566.0935.0294.2151-.0618.2756l-.7177.4561.5067-.2925c.0962-.0564.2194-.0252.2773.0699.0579.095.029.219-.0652.2784l-1.5767 1.0135 1.4686-.8475c.0954-.0517.2148-.0196.2714.0731.0567.0926.0308.2132-.0587.2747l-1.9613 1.2691 2.0543-1.186c.096-.0549.2183-.0232.2757.0715.0573.0945.0287.2176-.0645.2773l-.7869.5005.8503-.4895c.0963-.0584.2216-.0278.2803.0686.0584.0964.0276.2218-.0686.2803l-.9302.592.9607-.5545c.0958-.0545.2175-.0231.2751.071.0573.0939.0297.2166-.0624.277l-1.7744 1.1423 1.7951-1.035c.0954-.0519.2148-.0197.2714.0729s.0308.2133-.0589.2747l-1.8358 1.1864 1.811-1.0456c.0956-.0534.2163-.0218.2734.0713.0572.0934.0304.2154-.0605.2763l-2.1488 1.3984 2.0892-1.21c.0949-.0525.2144-.0217.2719.0704.0576.0921.0329.2129-.056.2751l-3.1531 2.1174 3.0282-1.7482c.095-.0517.214-.0205.271.0715.0571.0919.0326.2124-.0559.2746l-2.4229 1.6176 2.2188-1.2815c.0951-.0541.2159-.0237.274.0691.058.0926.0326.2146-.0577.2764l-2.1582 1.4569 1.8678-1.0778c.0943-.053.2134-.0231.2717.0678.0582.0911.0353.2118-.0523.2753l-2.309 1.6294 1.8154-1.0484c.0952-.0564.2179-.0267.2768.067.0588.0938.0321.2174-.0602.2785l-.4921.3337c.076-.0112.1517.0218.195.0852.0607.0868.0446.2056-.0366.2734l-1.2313 1.0256c.0566.0118.1054.0473.1337.0975.0564.0975.0232.2222-.0741.2786l-1.6808.9706c-.0919.0538-.2093.028-.2702-.0592-.0609-.087-.0448-.2064.0372-.2742l.9946-.828-2.5473 1.4707c-.031.0179-.0661.0274-.102.0272z" fill="#e4e8eb" fill-rule="evenodd"/><path clip-rule="evenodd" d="m13.4701 22.3578c-.0887 0-.1673-.0572-.1944-.1418-.0271-.0844.0035-.1767.0756-.2282l.2734-.1959-.7601.4385c-.0939.0532-.2132.0239-.2717-.067-.0586-.0908-.0362-.2115.0512-.2753l1.0904-.7805-1.5381.8879c-.0945.0543-.2151.0246-.2736-.0675-.0586-.092-.0343-.2138.0549-.2765l1.213-.844-1.5316.8852c-.0952.0542-.2162.0234-.2741-.0696-.0579-.0932-.0318-.2154.0592-.2768l.3399-.226-.4738.2731c-.0943.0521-.2129.022-.2708-.0689-.0579-.091-.0351-.2115.0521-.2748l1.9125-1.3353-2.1237 1.2261c-.0945.0543-.215.025-.2736-.0667-.0588-.0917-.0353-.2134.0536-.2764l2.3768-1.6866-2.5404 1.4659c-.0941.0538-.214.0243-.2727-.0669-.0586-.0913-.0356-.2125.0525-.2758l2.4103-1.7176-2.4478 1.4121c-.0951.0532-.2154.0224-.27306-.0703-.05752-.0924-.03231-.214.05756-.2758l.6323-.4222-.5098.2937c-.094.0534-.21312.0245-.27195-.0661-.05882-.0906-.03697-.2112.04987-.2753l2.46908-1.7951-2.2887 1.3217c-.0941.054-.21381.025-.27283-.0659-.05882-.091-.03641-.2122.05136-.2759l2.47187-1.7898-2.0554 1.1831c-.0951.0526-.2148.0213-.2719-.0712-.05735-.0922-.03214-.2132.0573-.2751l.412-.2741h-.0021c-.0892 0-.1684-.0581-.1949-.1434-.0266-.0854.0056-.178.0791-.2288l1.0444-.7175c-.0928.0134-.183-.0381-.2183-.1253-.0353-.0871-.0068-.187.0694-.2419l.5594-.3937-.1261.0727c-.0926.0523-.2099.0246-.2693-.0635-.0596-.0882-.0415-.2071.0417-.2736l1.8064-1.4201-1.5788.9118c-.0947.0543-.2151.0246-.2736-.0675-.0586-.092-.0344-.2138.0549-.2764l.1726-.12c-.0934.0267-.1928-.0161-.2372-.1024-.0446-.0864-.0222-.1922.0536-.2528l1.935-1.5553-1.7053.9843c-.0928.0523-.2105.0243-.2697-.0644-.0592-.0885-.0401-.2078.0437-.2738l1.3463-1.0344-1.121.6469c-.0914.0521-.2073.0262-.2678-.0597-.0606-.0859-.0458-.204.0339-.2723l1.5817-1.3374-1.3463.778c-.0931.0527-.2109.0245-.2703-.0644-.0592-.0889-.0398-.2086.0447-.2741l.3553-.271-.093.053c-.0862.0491-.1953.029-.2584-.0476-.063-.0768-.0617-.1877.003-.2628l.7683-.87827c-.0992.03343-.2075-.01345-.2508-.10869-.0436-.09506-.0079-.20767.0823-.26052l1.0227-.59033c.0864-.04968.1961-.0297.2592.04725.0633.07713.0616.18843-.0037.26351l-.7618.87027 1.7829-1.02901c.093-.05267.2109-.02447.2703.06443.0592.08908.0397.2086-.0447.27434l-.3578.27247.5711-.32887c.0915-.05323.2086-.02746.2695.05901.0609.08666.0454.20543-.0357.27341l-1.5829 1.3349 1.833-1.05813c.093-.05341.2114-.02577.2711.06331.0596.08908.0402.20916-.0446.2749l-1.3463 1.03332 1.3148-.7592c.0924-.0534.2102-.0267.2706.0613.0601.0881.0424.2077-.0409.2743l-1.9346 1.5549 1.7564-1.0138c.0945-.0544.2151-.0245.2736.0674.0584.092.0344.2138-.0549.2766l-.1735.1202c.085-.0235.1754.0092.2256.0816.0598.0887.0409.2086-.0432.2746l-1.806 1.4197 1.5788-.9114c.0943-.0528.2134-.0231.2717.068s.0353.2118-.0523.2751l-.5597.3937.3403-.1958c.0948-.0541.2155-.0241.2738.0682.0582.0924.0334.2144-.0564.2766l-.9011.6193.6837-.3946c.095-.0525.2147-.0212.2719.0711.0573.0924.0321.2135-.0574.2753l-.1632.1085c.0949-.0241.1937.0226.2351.1113.0415.0887.0141.1944-.0653.2517l-2.4719 1.7919 2.2504-1.2994c.0937-.0534.2129-.0243.2719.0661.0588.0906.0368.2112-.05.2755l-2.4691 1.7951 2.5294-1.461c.0956-.0568.2189-.0267.2775.0676s.031.2181-.062.2786l-.6316.424.7478-.4313c.0939-.0519.2121-.022.2702.0682s.0362.2101-.0499.2742l-2.4115 1.7192 2.6196-1.5125c.0943-.0544.2149-.025.2736.0667.0588.0917.0351.2134-.0536.2765l-2.3754 1.6861 2.4678-1.4246c.0945-.0523.2131-.022.271.0689.0579.091.0349.2112-.0523.2745l-1.9129 1.3357 1.8856-1.0884c.0953-.0542.2165-.0233.2742.0699.0579.093.0317.2151-.0592.2765l-.3407.2264.1795-.1031c.0947-.0544.2152-.0247.2738.0674.0585.0921.0342.2138-.0551.2764l-1.2141.8449.9857-.5687c.0941-.0532.2133-.0237.2717.0671.0587.0907.0363.2116-.051.2752l-1.0897.7801.7551-.4363c.0941-.053.2133-.0237.2719.0671.0585.0909.036.2116-.0512.2753l-.405.29c.0902-.0118.1772.0375.2136.1208s.0131.1808-.057.2387l-.8159.6744c.0613.0377.0981.1047.0971.1766-.0009.0719-.0397.1379-.1019.1739l-1.39.8025c-.0919.054-.2098.028-.2708-.0594-.0609-.0874-.0443-.2069.0382-.2743l.3207-.2658-1.3133.758c-.0306.018-.0653.0275-.1008.0279z" fill="#eb5565" fill-rule="evenodd"/><g fill="#262626"><path d="m17.6004 14.2748c-.0459-.4273-.0459-.8584 0-1.2855v-5.95928c0-1.38011.2503-3.10292-.1871-4.4468-.656-2.01302-2.8947-2.956127-4.8442-2.359262-3.60976 1.103902-2.90271 5.288122-2.90271 8.213622 0 1.78312.2426 3.75782 0 5.52682-.11261.8329-.62506 1.3956-1.01594 2.1385-.70051 1.3338-.80621 2.901-.29133 4.3168 2.17328 5.8168 10.53308 3.7655 10.87338-1.9902-.0155-.7622-.1793-1.5139-.4828-2.2132-.2655-.57-1.0068-1.3594-1.1493-1.9415zm-5.966 8.9268c-1.629-.7846-2.74808-2.3426-2.97162-4.1368-.27098-2.2741 1.47592-3.4327 1.59432-5.4526.1864-3.176-.1726-6.38348 0-9.56072.1199-2.20314 1.7334-4.889591 4.7928-3.386222 1.2672.623012 1.8693 1.913102 1.9582 3.256422.0853 1.26769 0 2.57273 0 3.84265v5.52367c0 2.0197 1.5188 3.2306 1.632 5.3036-.1996 3.3935-3.3242 6.3537-7.0057 4.61z"/><path d="m15.7374 9.6473c-.5868-1.01314-1.8392-1.42605-2.9134-.96085-1.137.43944-1.4862 1.41445-1.5258 2.54825-.0474 1.3402.4034 3.2417-.2586 4.4554-.5007.9179-1.15099 1.1424-1.33083 2.3385-.14941 1.0076.12027 2.0323.74643 2.8357 2.3529 3.0023 6.8541 1.0016 7.1452-2.4327-.1427-1.8798-1.6318-2.7139-1.6318-4.5411 0-1.2178.3529-3.1128-.2312-4.2432zm.3283 6.4899c.5804.6887.9128 1.5525.944 2.4528-.1705 2.0136-1.593 4.0938-4.2184 3.3119-1.0038-.3184-1.8199-1.0568-2.2367-2.0237-.4169-.967-.3933-2.0673.0642-3.0157.2996-.6159.9274-.9382 1.193-1.5185.559-1.2238-.0558-3.1621.0771-4.4794.2387-2.3621 3.2426-2.39161 3.489-.071.0403.7797.0403 1.5609 0 2.3406 0 .5993-.1481 1.4135 0 1.999.1322.5246.3333.5625.6878 1.004z"/><path clip-rule="evenodd" d="m11.8886 3.91571c.0265-.90408.6299-1.94 1.6294-1.97306.1089-.00355.3427-.03791.3913-.15818.0485-.12046-.0389-.1664-.1575-.16322-1.316.01849-2.3906 1.05758-2.4532 2.37233-.0069.23176.5846.10776.59-.07787z" fill-rule="evenodd"/><path clip-rule="evenodd" d="m11.889 5.78434v-.40787c0-.11673-.5907-.02652-.5907.15818v.40805c0 .11672.5907.02652.5907-.15836z" fill-rule="evenodd"/><path clip-rule="evenodd" d="m8.35901 12.5938h-3.26371c-.32925 0-.46091.4104-.05864.4104h3.26371c.32925-.0024.46091-.4104.05864-.4104z" fill-rule="evenodd"/><path clip-rule="evenodd" d="m5.99175 10.5703c-.24782 0-.61778.3745-.21962.3745h2.44778c.24764 0 .61778-.3745.21962-.3745z" fill-rule="evenodd"/><path clip-rule="evenodd" d="m8.21993 8.90588c.24763 0 .61778-.37463.21962-.37463h-3.2639c-.24764 0-.61759.37463-.21944.37463z" fill-rule="evenodd"/><path clip-rule="evenodd" d="m6.07528 6.56445c-.11859 0-.66541.2284-.38677.2284h2.44797c.11859 0 .66541-.2284.38677-.2284z" fill-rule="evenodd"/><path clip-rule="evenodd" d="m8.35374 4.41406h-3.26371c-.34362 0-.44877.44877-.04818.44877h3.26371c.34363.00075.44877-.44877.04818-.44877z" fill-rule="evenodd"/></g></svg>