<svg fill="none" height="32" viewBox="0 0 32 32" width="32" xmlns="http://www.w3.org/2000/svg" xmlns:xlink="http://www.w3.org/1999/xlink"><clipPath id="a"><path d="m0 0h32v32h-32z"/></clipPath><g clip-path="url(#a)"><g fill="#3777d3"><path d="m15.6616 31.7069c-.0564-.0001-.1113-.0181-.1568-.0513-.0456-.0333-.0794-.0802-.0966-.1338-.0173-.0537-.017-.1115.0006-.1651.0177-.0535.0518-.1001.0976-.133l4.0347-2.8902-5.3835 3.1078c-.0597.0346-.1306.0448-.1977.0282-.067-.0165-.1251-.0584-.1619-.1169-.0367-.0585-.0494-.129-.0352-.1966.0141-.0676.054-.1271.1111-.1659l4.6107-3.151-5.5355 3.1936c-.0601.0326-.1304.0409-.1964.0232s-.1227-.0601-.1583-.1184c-.0357-.0583-.0476-.1281-.0333-.1949.0143-.0669.0537-.1256.1101-.1643l2.8987-1.8768-3.3877 1.9558c-.0602.0326-.1307.0408-.1968.0229s-.1228-.0605-.1583-.1191c-.0355-.0585-.0471-.1285-.0325-.1954.0147-.0669.0545-.1256.1113-.1639l1.6405-1.0405-1.9573 1.1312c-.0605.0349-.1324.0446-.2.0271-.0677-.0175-.1258-.0609-.1618-.1208s-.047-.1315-.0307-.1995.0586-.1268.1178-.1639l.9142-.5739-1.1456.6576c-.0606.035-.1324.0447-.2001.0272-.0676-.0175-.1257-.0609-.1617-.1208s-.0471-.1316-.0308-.1995c.0163-.068.0587-.1269.1179-.1639l.7904-.495-.9744.5627c-.0604.0327-.131.0409-.1972.0228s-.1229-.061-.1583-.1198-.0467-.129-.0317-.196c.0151-.0669.0554-.1255.1125-.1635l.7296-.456-.8741.5045c-.0603.0337-.1313.0427-.198.0251-.06679-.0176-.12414-.0604-.16-.1194-.03585-.059-.04743-.1296-.03229-.197.01515-.0673.05583-.1262.11349-.1642l3.8709-2.4672-4.09277 2.3648c-.06008.0342-.13107.0437-.19801.0265-.06695-.0171-.12462-.0596-.16085-.1185-.03624-.0588-.04821-.1294-.0334-.1969s.05525-.1267.1128-.1649l6.42403-4.2075-6.71097 3.8747c-.06031.0331-.13111.0417-.19759.0239-.06647-.0179-.12348-.0607-.1591-.1196-.03561-.0589-.04707-.1293-.03199-.1965.01509-.0671.05556-.1258.11295-.1638l2.8907-1.8203-2.95577 1.7067c-.06022.0343-.13143.0437-.19854.0264-.0671-.0173-.12483-.06-.16095-.1192-.03612-.0591-.0478-.13-.03257-.1976.01524-.0676.0562-.1266.1142-.1646l5.93173-3.8437-6.048 3.4901c-.06047.0368-.13307.0481-.20184.0313-.06876-.0167-.12805-.0601-.16483-.1206-.03677-.0605-.04802-.1331-.03127-.2018.01675-.0688.06014-.1281.12061-.1649l4.61973-2.9493-4.6224 2.6667c-.0604.0322-.13089.04-.19687.0217s-.1224-.0612-.15757-.12c-.03517-.0587-.04639-.1288-.03134-.1956s.05522-.1252.11218-.1632l.20427-.1275-.09067.0534c-.06004.0348-.13128.0448-.1986.0279-.06731-.0168-.1254-.0593-.16192-.1183s-.04859-.1299-.03366-.1977c.01494-.0678.05571-.1271.11365-.1653l6.80103-4.4858-6.74237 3.8933c-.05922.027-.12626.0314-.18851.0124-.06224-.019-.11539-.0601-.14942-.1156-.03404-.0555-.04661-.1215-.03535-.1856.01127-.0641.04558-.1218.09648-.1624l4.85337-3.1312-4.67043 2.6981c-.06039.0345-.13186.0441-.19918.0267-.06733-.0175-.12518-.0605-.16121-.12-.03604-.0595-.04741-.1307-.0317-.1984.01572-.0678.05728-.1267.11582-.1643l2.50667-1.5834-2.24534 1.296c-.06016.0331-.13077.0417-.19713.024-.06635-.0177-.12333-.0603-.15907-.1189s-.04749-.1288-.0328-.1958c.01469-.0671.05469-.1259.11167-.1643l3.376-2.1616-3.04427 1.76c-.06007.0326-.13036.0409-.19637.0232-.066-.0177-.12269-.0601-.15834-.1184-.03566-.0583-.04756-.1281-.03326-.1949.0143-.0669.05371-.1256.11011-.1643l3.82773-2.4746-3.41333 1.9701c-.05971.0323-.12948.0406-.1951.0232-.06561-.0174-.12213-.0591-.15804-.1167s-.0485-.1267-.03521-.1933c.0133-.0665.05147-.1255.10675-.1649l5.36743-3.6027-4.75783 2.7467c-.06039.0345-.13186.044-.19918.0266-.06733-.0174-.12518-.0605-.16121-.12-.03604-.0595-.04741-.1307-.0317-.1984.01572-.0678.05728-.1267.11582-.1642l.89173-.5675-.31413.1813c-.06033.037-.13285.0484-.20161.0318-.06877-.0165-.12814-.0597-.16506-.12-.03692-.0604-.04836-.1329-.0318-.2016.01655-.0688.05974-.1282.12007-.1651l1.8432-1.1936-1.09227.6304c-.06008.0342-.13107.0437-.19801.0265-.06695-.0172-.12462-.0597-.16085-.1185-.03624-.0588-.04821-.1295-.0334-.197s.05525-.1266.1128-.1649l1.99943-1.3141-1.03517.5979c-.06032.0369-.13285.0483-.20161.0318-.06876-.0166-.12814-.0598-.16505-.1201-.03692-.0603-.04836-.1328-.03181-.2016s.05974-.1281.12007-.1651l.87257-.5664c-.0562-.0025-.1102-.0227-.1541-.0578-.044-.035-.07581-.0831-.09084-.1373s-.01254-.1118.00712-.1645c.01965-.0526.05542-.0978.10232-.1289l1.1429-.7616c-.0467.002-.0931-.0081-.1348-.0293-.0416-.0213-.0771-.0528-.103-.0918-.0373-.0572-.0513-.1265-.039-.1937s.0499-.1271.1051-.1673l2.2571-1.6502-.4992.288c-.0586.0344-.1282.0451-.1944.03s-.1242-.055-.162-.1114c-.0379-.0565-.0528-.1252-.0416-.1922.0111-.0671.0474-.1273.1014-.1685l1.3334-1.0293c-.059.0153-.1215.01-.1771-.0151s-.1008-.0685-.1283-.123c-.0274-.0544-.0354-.1166-.0225-.1762.0128-.0596.0457-.113.0932-.1513l.7787-.62616c-.0521-.01446-.0985-.04463-.1328-.0864-.0405-.04808-.0627-.1089-.0627-.17173 0-.06284.0222-.12366.0627-.17174l1.0528-1.23627c-.0504.00475-.101-.00492-.146-.02785-.0451-.02294-.0827-.05821-.1085-.1017-.0257-.04349-.0386-.0934-.0371-.14393s.0174-.09958.0457-.14145l.4155-.61493c-.0262-.02069-.0481-.04623-.0646-.0752-.0176-.03032-.029-.06381-.0337-.09857-.0047-.03475-.0024-.07008.0066-.10396.009-.03389.0246-.06566.0459-.0935.0214-.02785.0479-.05122.0783-.06877l.4859-.28c.0522-.02989.1129-.04126.1724-.03227.0594.00899.1141.03782.1551.0818s.066.10053.0708.16047-.0108.11976-.0442.16973l-.1989.29547.1808-.10667c.0544-.03148.1182-.04271.1801-.03172.0619.011.118.04352.1582.09182.0403.0483.0622.10927.0618.17215-.0003.06287-.0228.12361-.0636.17148l-1.0064 1.18187 1.0544-.60907c.0582-.03366.127-.04409.1925-.02921.0656.01489.1231.05399.1611.10949.038.05549.0536.12328.0437.18979s-.0446.12682-.097.16887l-.3734.2976.3259-.18774c.0586-.03438.1281-.04509.1944-.02995.0662.01514.1242.055.162.11143.0379.05643.0527.12517.0416.1922s-.0474.12728-.1015.16846l-1.2773.9856 1.3285-.76694c.0591-.03331.1286-.04289.1944-.02681.0658.01609.1231.05664.1601.11342s.051.12552.0392.19225c-.0119.06673-.0487.12645-.103.16701l-2.2587 1.65333 2.391-1.38026c.0599-.03409.1307-.04365.1975-.02665.0669.017.1245.05922.1609.1178.0363.05859.0486.12898.0342.19641-.0144.0674-.0544.1267-.1116.1652l-.7653.5104.8075-.4666c.0603-.037.1328-.0485.2017-.032.0688.0165.1282.0596.1652.12.037.0603.0485.1328.032.2017-.0165.0688-.0597.1282-.12.1652l-.2.1296.2331-.1344c.0601-.036.132-.0469.2002-.0303.0681.0166.1269.0594.1637.1191.0368.0596.0487.1314.033.1997-.0158.0684-.0578.1278-.1169.1654l-1.999 1.3136 2.1206-1.2267c.0601-.0336.1309-.0426.1975-.0252s.1239.06.1599.1187.0479.1291.0331.1964c-.0147.0672-.0549.1262-.1121.1645l-1.8448 1.1952 1.9637-1.1339c.0605-.0367.133-.0478.2018-.031.0687.0168.1279.0602.1646.1206.0367.0605.0479.1331.0311.2018s-.0602.1279-.1207.1646l-.8981.5712.985-.5685c.06-.0356.1316-.0463.1994-.0298s.1264.059.1633.1182c.0368.0593.049.1306.0338.1988-.0151.0681-.0564.1276-.1149.1656l-5.3589 3.6032 5.6997-3.2928c.0299-.0183.0631-.0305.0977-.0359.0346-.0055.0699-.0041.1039.0041.0341.0082.0662.023.0945.0436s.0523.0466.0706.0765c.0183.0298.0305.063.036.0976.0054.0346.004.0699-.0042.104-.0082.034-.023.0661-.0436.0945-.0206.0283-.0466.0523-.0765.0705l-3.8298 2.4784 4.0384-2.3349c.0603-.0354.1321-.0456.2-.0285.0678.0171.1262.0601.1626.1199.0363.0597.0478.1314.0318.1995-.0159.0681-.058.1272-.1171.1646l-3.3707 2.1573 3.5504-2.0496c.03-.0181.0633-.0301.0979-.0354.0346-.0052.0699-.0036.1039.0048s.066.0234.0942.0441c.0282.0208.0521.0469.0702.0769s.0301.0632.0354.0979c.0052.0346.0036.0699-.0048.1039s-.0234.066-.0442.0942c-.0207.0282-.0469.052-.0768.0701l-2.5051 1.5819 2.6315-1.5195c.0603-.0353.1321-.0456.2-.0285.0678.0171.1262.0602.1626.1199.0363.0598.0478.1314.0318.1995-.0159.0681-.058.1272-.1171.1646l-4.8592 3.1328 5.0667-2.9248c.0599-.0335.1306-.0426.1971-.0254.0665.0173.1238.0595.1599.118s.0483.1286.0339.1958c-.0143.0673-.0541.1263-.1109.1649l-6.7974 4.4848 7.0848-4.0906c.0301-.018.0634-.0299.098-.0351.0347-.0051.07-.0034.104.0052.0339.0085.0659.0236.094.0445.0282.0209.0519.0471.0699.0771.018.0301.0299.0633.035.098.0052.0346.0034.07-.0051.1039-.0085.034-.0236.066-.0445.0941s-.0471.0519-.0771.0699l-.2107.1306.2133-.1237c.0603-.0337.1313-.0427.1981-.0251.0667.0176.1241.0604.1599.1194.0359.059.0475.1296.0323.197-.0151.0673-.0558.1262-.1135.1642l-4.6133 2.9456 4.6997-2.7136c.0605-.0339.1317-.0429.1986-.0252.067.0177.1244.0608.1602.1201.0357.0594.047.1303.0314.1977-.0156.0675-.0568.1263-.115.1639l-5.9312 3.84 6.0267-3.4779c.0603-.0322.1306-.04.1964-.0219.0659.0181.1223.0608.1576.1193s.0468.1283.0321.1951c-.0146.0667-.0543.1252-.1109.1635l-2.8896 1.8192 2.8464-1.6432c.0602-.036.1321-.0469.2002-.0303.0681.0167.1269.0594.1638.1191.0368.0597.0486.1315.0329.1998s-.0577.1277-.1169.1653l-6.4267 4.2096 6.4198-3.7067c.0604-.0367.133-.0478.2017-.031s.128.0602.1647.1206c.0367.0605.0479.1331.0311.2018-.0169.0687-.0603.1279-.1207.1646l-3.8694 2.4662 3.7387-2.1584c.0604-.0327.131-.0409.1972-.0228s.1229.061.1583.1198.0467.129.0317.196c-.0151.0669-.0554.1255-.1125.1635l-.7307.4555.5413-.312c.0604-.0327.131-.0409.1972-.0228.0663.0181.123.061.1583.1198.0354.0588.0468.129.0317.196-.015.0669-.0553.1255-.1125.1635l-.7963.4987.5766-.3328c.0604-.0339.1316-.0429.1986-.0252.0669.0177.1243.0608.1601.1201.0358.0594.047.1303.0314.1977-.0156.0675-.0568.1263-.1149.1639l-.9067.5691.6565-.3787c.0602-.0326.1307-.0408.1968-.0229s.1228.0605.1583.1191c.0355.0585.0471.1285.0325.1954-.0147.0669-.0545.1256-.1113.1639l-1.6368 1.0405 1.3515-.7803c.0601-.0336.1309-.0426.1975-.0252.0666.0175.1239.06.1599.1187s.0479.1291.0331.1964c-.0147.0673-.0549.1262-.1121.1645l-2.9003 1.8779 2.5291-1.4603c.0597-.0346.1306-.0448.1977-.0282.067.0165.1251.0584.1619.1169.0367.0585.0494.129.0352.1966-.0141.0676-.054.1271-.1111.1659l-4.6112 3.1531 4.0347-2.3291c.0592-.0334.129-.043.195-.0267.0661.0163.1234.0572.1603.1144s.0505.1263.0381.1932c-.0125.0669-.05.1265-.1049.1666l-4.0341 2.8896 3.0933-1.7845c.0592-.034.1291-.044.1955-.0279.0663.016.1239.0569.161.1141.0371.0573.0509.1266.0384.1937-.0124.0671-.0501.1269-.1053.167l-1.8955 1.3733.6091-.3509c.0304-.0193.0643-.0322.0998-.0381.0355-.0058.0718-.0044.1067.0041.0349.0086.0678.0241.0965.0457.0288.0216.0529.0488.0709.0799s.0295.0656.0339.1013c.0043.0357.0014.0719-.0086.1064-.0101.0346-.027.0667-.0497.0946-.0228.0278-.051.0508-.0828.0674l-5.0656 2.9238c-.0592.0339-.1292.0439-.1955.0279-.0663-.0161-.124-.0569-.1611-.1142s-.0508-.1266-.0384-.1937c.0125-.0671.0502-.1268.1054-.167l1.8944-1.3728-3.3456 1.9312c-.0405.0237-.0865.036-.1334.0358z"/><path d="m5.32542 13.5464c-.05425.0001-.10723-.0164-.15186-.0473-.04463-.0308-.07878-.0746-.09791-.1253-.01913-.0508-.02231-.1062-.00913-.1588s.0421-.1.0829-.1358l1.5056-1.3205-2.8256 1.6331c-.05953.0341-.12993.044-.19657.0276-.06663-.0164-.12437-.0579-.16119-.1158-.03683-.058-.0499-.1278-.03651-.1951.01339-.0674.05222-.1269.1084-.1663l.2288-.16-.60906.3514c-.05873.0342-.12829.0447-.19447.0293-.06617-.0154-.12399-.0555-.16163-.112-.03764-.0566-.05227-.1254-.0409-.1924.01136-.067.04787-.1271.10206-.1681l2.664-2.0266-3.25333 1.8789c-.05878.0337-.12817.0437-.19408.0281-.06592-.0156-.12341-.0558-.16082-.1122-.0374-.0565-.05191-.1251-.04057-.1919.01133-.0668.04766-.1268.1016-.1677l3.2784-2.48323-3.69653 2.13333c-.05994.0341-.13075.0436-.19758.0267-.06682-.017-.12447-.0593-.16083-.1179-.03637-.0585-.04863-.1289-.03421-.1964.01443-.0674.05441-.1266.11155-.1652l.34187-.2277-.3584.2069c-.05918.034-.12913.044-.19545.0279-.06632-.016-.12397-.0569-.161076-.1142-.037106-.0572-.050848-.1265-.038398-.1936.012449-.0671.050144-.1269.105324-.167l2.96693-2.14989-3.031463 1.75149c-.058954.0352-.129236.0464-.196202.0311s-.12545-.0559-.163266-.1132c-.037815-.0573-.052046-.1271-.039725-.1946.01232-.0676.05024-.1278.10586-.16813l3.365336-2.51893-3.286403 1.89653c-.058752.03297-.127806.04248-.193284.02663-.065478-.01586-.122526-.05592-.159679-.11212-.037152-.0562-.051655-.12438-.040593-.19084s.046868-.12627.100223-.1674l3.068796-2.3136-2.73653 1.57973c-.029696.01863-.062771.03123-.097336.03708s-.069944.00483-.104116-.003c-.034172-.00782-.066468-.0223-.095044-.04261-.028577-.0203-.052874-.04604-.071504-.07574-.01863-.02969-.031229-.06277-.037076-.09733-.005848-.03457-.004831-.06995.002994-.10412s.022304-.06647.04261-.09504c.020307-.02858.046043-.05288.075739-.07151l.346133-.23466c-.058937.01138-.119991.00255-.173285-.02507-.053295-.02762-.095711-.07241-.120387-.12713-.024677-.05472-.03017-.11617-.01559-.1744s.048379-.10983.095929-.14647l2.328533-1.80213-1.45387.83893c-.05897.03378-.12862.04377-.19472.02792-.06609-.01584-.12364-.05633-.16089-.11318-.03724-.05686-.05137-.12579-.0395-.19271s.04885-.12679.10338-.16736l.9616-.7104c-.05597 0-.11052-.01761-.15592-.05034-.04541-.03272-.07936-.07891-.09706-.132-.0177-.0531-.01824-.11042-.00156-.16384.01669-.05342.04977-.10024.09454-.13382l1.048-.8176c-.03871-.01976-.07231-.04824-.09813-.0832-.03859-.05376-.0558-.11994-.04831-.18568.00749-.06575.03915-.12636.08884-.17006l.7696-.67893c-.0097-.00725-.01879-.01528-.0272-.024-.04122-.04244-.06715-.09739-.07372-.15619s.00661-.11812.03745-.16861l.7168-1.173333c-.01038-.012004-.0195-.025051-.0272-.038933-.0354-.061183-.04506-.13392-.02686-.202226.0182-.068305.06277-.126588.12393-.162041l.33067-.192533c.05129-.029349.11087-.040829.1694-.032639.05852.008189.11266.035586.15393.077887.04126.0423.0673.097109.07404.155817.00673.058708-.00623.11799-.03684.168535l-.48.782396.4704-.27146c.05728-.03321.12486-.04392.1896-.03005.06474.01386.122.05131.16065.10507.03866.05375.05593.11996.04846.18574-.00746.06579-.03913.12644-.08884.17017l-.13707.12107.08267-.048c.05846-.03386.12759-.04426.19343-.02911s.12347.05472.16126.11072c.03778.056.0529.12426.04231.19098-.0106.06672-.04613.12693-.0994.16847l-.37334.29334.38347-.22134c.05898-.03378.12863-.04377.19472-.02792.0661.01585.12365.05633.16089.11319.03725.05685.05138.12578.0395.19271-.01187.06692-.04885.12678-.10338.16736l-.7056.5216.77494-.44747c.05851-.03339.12749-.0434.19308-.02802.06559.01539.12293.05503.16048.11096.03756.05593.05256.12401.04197.19054-.01058.06653-.04595.1266-.099.16812l-2.32907 1.8048 2.6016-1.5024c.05985-.03546.13119-.04613.1988-.02973.0676.0164.12612.05857.16307.11751s.04941.12999.03471.19798c-.0147.068-.05538.12756-.11338.16597l-.1808.1232.24427-.14133c.05878-.03368.12817-.04372.19408-.02809.06592.01562.12342.05575.16082.11223s.05191.12508.04058.19186c-.01134.06679-.04767.12676-.10161.16773l-3.0688 2.3136 3.38933-1.9568c.05885-.03396.12845-.04418.19458-.02856s.12381.05589.16125.11259c.03744.05671.05182.12557.04021.19252-.01162.06695-.04835.12694-.10271.16772l-3.36426 2.52053 3.62666-2.09493c.05919-.03396.12914-.04395.19546-.0279s.12396.05691.16107.11418c.03711.05726.05085.12657.0384.19366s-.05015.12685-.10533.16699l-2.96693 2.14934 3.06613-1.77014c.05994-.03409.13075-.04364.19758-.02664.06683.01699.12447.05921.16084.1178.03636.05858.04862.12898.0342.19641s-.0544.12665-.11155.16523l-.34133.22774.2336-.13494c.0588-.03447.12857-.04513.19499-.02976.06641.01536.12441.05557.1621.11238.03768.0568.05219.12587.04053.19303-.01166.06717-.0486.12731-.10322.16809l-3.28054 2.4816 3.17014-1.8288c.0587-.03342.1279-.04331.19361-.02768.06572.01563.12305.05562.16043.11188.03737.05627.052.12462.04093.19125-.01107.06664-.04701.12659-.10057.16775l-2.664 2.02666 2.35413-1.35893c.05957-.03537.13056-.04617.19795-.03012.06739.01606.12589.05771.16311.11614s.05024.12905.03631.19691c-.01394.06786-.05374.12764-.11097.16667l-.35733.2496c.05064-.01089.10337-.00657.15158.01241.0482.01897.08972.05177.11935.09422.03874.0538.05605.1201.04855.186-.00749.0659-.03925.1266-.08908.1703l-1.5056 1.3211.4224-.2443c.06132-.0354.13417-.0449.20253-.0266.06837.0184.12664.0632.162.1245s.04492.1341.02657.2025c-.01836.0684-.06312.1266-.12444.162l-2.7632 1.5947c-.04071.0227-.08673.0341-.13333.033z"/><path d="m26.7613 13.5567c-.056 0-.1105-.0176-.1559-.0503s-.0794-.0789-.0971-.132-.0182-.1104-.0016-.1639c.0167-.0534.0498-.1002.0946-.1338l.8229-.6096-1.4581.8416c-.0595.0362-.1309.0477-.1988.032-.0678-.0157-.1269-.0573-.1645-.116-.0375-.0587-.0506-.1297-.0365-.198.0142-.0682.0545-.1282.1123-.167l.9173-.6464-1.3237.7642c-.059.0347-.1291.0453-.1957.0298-.0666-.0156-.1247-.0562-.1623-.1134-.0375-.0572-.0516-.1267-.0394-.194s.0499-.1274.1051-.1677l2.5035-1.8533-2.9701 1.7146c-.0597.0341-.1302.0439-.1969.0273-.0667-.0167-.1243-.0584-.161-.1165s-.0495-.1282-.0358-.1955c.0138-.0673.0529-.1268.1094-.1659l1.2427-.8534-1.3995.808c-.0592.034-.1291.044-.1954.0279-.0664-.016-.124-.0569-.1611-.1142-.0371-.0572-.0509-.1265-.0384-.1936.0124-.0671.0501-.1269.1053-.167l2.872-2.08001-3.0544 1.76371c-.0599.0341-.1307.0437-.1976.0267-.0668-.017-.1244-.0592-.1608-.1178s-.0486-.129-.0342-.1964c.0144-.0675.0544-.1267.1115-.1653l.4267-.2842-.3701.2133c-.0597.0363-.1312.0477-.1992.0319-.068-.0159-.1271-.0578-.1645-.1168-.0375-.0589-.0503-.1302-.0357-.1985.0145-.0683.0553-.1282.1135-.1667l1.9973-1.39098-1.912 1.104c-.059.03466-.129.04531-.1957.02974-.0666-.01557-.1247-.05615-.1622-.11336-.0376-.05721-.0517-.12667-.0395-.19399.0123-.06733.0499-.12738.1052-.16772l3.064-2.2736-2.8576 1.6496c-.0585.03339-.1275.0434-.1931.02802-.0656-.01539-.1229-.05503-.1605-.11096-.0375-.05593-.0525-.12401-.042-.19054.0106-.06653.046-.1266.099-.16812l3.0934-2.39627-2.6027 1.50294c-.0596.03469-.1303.04493-.1973.02858-.0671-.01636-.1251-.05804-.162-.1163-.037-.05825-.0499-.12855-.0361-.19613.0138-.06757.0533-.12718.1101-.16629l.489-.3392c-.0601.01246-.1227.00376-.1772-.02463-.0545-.02838-.0975-.07471-.1218-.13116-.0243-.05644-.0283-.11953-.0114-.1786.0169-.05908.0536-.11051.104-.14561l.5867-.41226c-.0498-.00811-.0963-.03018-.1341-.06366-.0377-.03348-.0652-.07699-.0792-.12547-.0141-.04848-.014-.09995 0-.14842.0141-.04847.0416-.09195.0794-.12539l2.0064-1.76746-.0666.03893c-.0555.03248-.1209.04381-.1841.0319s-.12-.04626-.1598-.09672c-.0399-.05046-.0602-.11363-.0572-.17787.003-.06423.0292-.12522.0736-.17171l1.0864-1.14613c-.0227-.01267-.0434-.02867-.0613-.04747-.0412-.04298-.0669-.09852-.0729-.15777s.008-.1188.0398-.16916l.4421-.701337c-.0079-.010118-.015-.020815-.0213-.032-.0354-.061183-.0451-.13392-.0269-.202226.0182-.068305.0628-.126588.124-.162041l.3317-.1904c.0516-.029615.1117-.041113.1706-.032664.0589.00845.1133.036361.1545.079291s.0669.098411.0729.157615c.006.059203-.0079.118725-.0396.169091l-.1792.283731.0635-.036797c.0555-.032092.1207-.043117.1836-.031054.063.012062.1195.046401.1592.096731.0397.05034.06.11329.0571.17733-.003.06404-.0289.12489-.073.17139l-.7701.816.8085-.464c.0573-.03269.1246-.04301.189-.02896.0645.01405.1214.05147.1599.10504.0384.05357.0557.11948.0484.18502-.0073.06553-.0387.12604-.088.16984l-2.0053 1.76693 2.2597-1.3072c.0596-.03416.13-.04406.1966-.02763s.1244.05792.1612.11584c.0368.05791.0499.1278.0365.19511s-.0522.12687-.1084.16628l-.0219.01547.0534-.032c.0596-.03631.1312-.04775.1992-.03189.068.01587.1271.05778.1645.11674.0374.05895.0503.13024.0357.19854-.0146.06831-.0553.12818-.1136.16674l-.3536.24533.4219-.24373c.0586-.03363.1278-.04377.1935-.02838.0658.01539.1233.05517.1609.1113.0375.05613.0524.12443.0416.19111-.0108.06667-.0466.12675-.1.1681l-3.0933 2.39574 3.4666-2.00054c.059-.03378.1287-.04377.1948-.02792s.1236.05633.1609.11319c.0372.05685.0513.12578.0395.19271-.0119.06692-.0489.12678-.1034.16736l-3.0662 2.2752 3.3387-1.92747c.0595-.03416.1299-.04406.1966-.02763.0666.01643.1244.05792.1612.11584.0368.05791.0499.1278.0365.19511s-.0522.12687-.1084.16628l-1.9979 1.39147 2.088-1.20534c.06-.03564.1316-.04634.1994-.0298.0678.01653.1264.05898.1632.11824.0369.05926.0491.13061.0339.19872-.0151.06812-.0564.12759-.1149.16564l-.4267.28374.3819-.22027c.0592-.03315.1287-.04253.1945-.02622.0659.01631.123.05708.1598.11401.0368.05694.0506.12577.0385.19248-.0121.06672-.0492.12631-.1037.16666l-2.871 2.08 2.8603-1.65333c.0597-.0341.1302-.04386.1969-.02723.0666.01663.1243.05835.161.11647.0367.05813.0495.12816.0358.1955-.0138.06733-.0529.12678-.1094.16593l-1.2427.85333 1.0763-.62133c.059-.03466.1291-.04531.1957-.02974s.1247.05615.1623.11336c.0375.05721.0516.12667.0394.19399-.0122.06733-.0499.12738-.1052.16772l-2.5066 1.85441 2.248-1.29974c.0594-.03425.1297-.04431.1963-.02808.0666.01622.1244.05748.1614.1152s.0503.12747.0373.19477c-.0131.0673-.0516.12698-.1076.16664l-.9162.65067.5242-.30294c.0591-.03465.1291-.0453.1958-.02973.0666.01556.1247.05615.1622.11336.0376.05721.0517.12666.0395.19399-.0123.06736-.0499.12736-.1052.16776l-.8219.609.2075-.12c.0576-.0338.1258-.0448.1911-.0308.0653.0141.123.0521.1616.1066s.0553.1215.0469.1878c-.0084.0662-.0414.1269-.0924.17l-.9723.8299c.0456.0195.0848.0512.1133.0918.0285.0405.0452.0881.0481.1376.0029.0494-.008.0987-.0315.1423s-.0587.0798-.1016.1046l-1.8245 1.0528c-.0576.0332-.1255.0438-.1905.0295-.0649-.0142-.1222-.0522-.1606-.1065s-.0551-.1209-.0469-.1869.0408-.1265.0913-.1697l.5248-.4486-1.7424 1.0064c-.0406.0232-.0866.0354-.1333.0352z"/></g><g fill="#262626"><path d="m7.0931 22.6203c.24854 11.8976 17.4267 11.7178 17.8256.0229.1067-6.6245-6.2192-10.8432-8.6011-16.38294-1.0938-.16-1.2378 1.07306-1.561 1.8064-2.2768 5.01864-7.93016 8.51094-7.6635 14.55364zm5.8619-10.1462c1.2965-1.7192 2.3191-3.62871 3.0314-5.66078 1.863 5.82458 8.5126 9.38668 8.16 16.03738-.8533 4.673-3.3098 6.7653-5.7317 7.7045-7.144 2.7712-16.70826-7.3488-5.4597-18.0811z"/><path d="m4.49283 13.5307c4.224.1984 6.27577-4.8533 4.00267-8.09704-.90667-1.44853-2.23307-2.6208-2.89547-4.22346-.176-.409604-.1968-.915737-.74667-.869337-1.04213.309333-.97386 1.884797-1.7664 2.595737-3.379198 3.144-4.60693 9.8992 1.40587 10.5941zm-2.1904-8.67037c.8848-1.20267 1.992-2.2768 2.46613-3.7296 1.008 2.8592 4.0416 4.5696 3.91147 7.85387-1.34507 8.7365-11.50293 1.8768-6.3776-4.12427z"/><path d="m26.8126 13.5532c4.2789.2854 6.3786-4.8581 4.081-8.1285-.8693-1.40427-2.1472-2.536-2.8266-4.06347-.1952-.430929-.2203-1.087462-.8192-1.051195-1.0182.304-.9456 1.847995-1.7158 2.543995-3.3552 3.15574-4.7168 9.85387 1.2806 10.69917zm-2.152-8.61543c.8709-1.2048 1.993-2.27147 2.4864-3.70827 1.2176 2.86773 3.9829 4.4336 3.9338 7.72054-1.2933 8.65816-11.4624 2.02076-6.4202-4.01227z"/><path d="m14.164 29.0717c.3264.1701.897-.3147.44-.5435-.9097-.3709-1.7323-.9267-2.4159-1.6321-.6836-.7055-1.2133-1.5452-1.5553-2.466-.0416-.0813-.1118-.1444-.1971-.1771-.0852-.0326-.1795-.0327-.2648 0-.88535 1.5243 2.4693 4.2912 3.9931 4.8187z"/><path d="m4.43601 11.377c.19893.0688.91946-.2288.48853-.3621-1.24427-.0128-1.56427-1.34667-1.98773-2.13013-1.66507.128.46933 2.68803 1.4992 2.49223z"/><path d="m26.9477 11.4833c.3781.0944.7963-.4763.2667-.5723-.224-.0094-.4429-.0698-.64-.1765-.8294-.3536-.8534-1.3371-1.2587-1.93177-1.6933.1184.5467 2.91737 1.632 2.68057z"/></g></g></svg>