<svg fill="none" height="32" viewBox="0 0 32 32" width="32" xmlns="http://www.w3.org/2000/svg"><path d="m18.6735 9.31522c-.0837 0-.1664-.03947-.2181-.11307-.079-.11306-.0592-.26773.0453-.3568l1.0475-.8896c-.0864-.00106-.1664-.03306-.2208-.1024-.0816-.10453-.0736-.2544.0186-.34933l.8838-.912-.3376.19413c-.1152.06774-.264.03787-.3451-.0688-.0811-.10613-.0709-.25653.024-.35093l.3739-.3712-.0955.05493c-.1093.06507-.2501.04107-.3344-.05546-.0837-.09654-.088-.23787-.0101-.33867l.696-.89973-.6224.35946c-.1099.06454-.2502.04054-.3344-.05546-.0838-.096-.088-.23787-.0096-.33867l.5349-.688-.6176.35627c-.1115.06506-.2549.04-.3381-.05974-.0827-.09973-.0827-.24426.001-.34346l.3723-.44-.5237.30186c-.1099.06347-.2496.04107-.3334-.05493-.0837-.09547-.089-.23627-.0122-.3376l.4538-.59573-.8234.4752c-.1062.06293-.2416.04266-.327-.04747-.0848-.0896-.097-.22613-.0298-.32907l.5221-.7984-1.3221.7632c-.112.06614-.256.03947-.3403-.06186-.0821-.10134-.0795-.248.0075-.34507l.4234-.47787-1.6154.93227c-.128.07413-.2912.0304-.3643-.0976-.0741-.12747-.0304-.29067.0976-.36427l3.0357-1.75253c.1126-.0656.256-.04.3403.061867.0821.101333.0795.248003-.0075.345063l-.4229.47787.8688-.50133c.1067-.06187.2416-.04267.3269.04746.0848.0896.0971.22614.0299.32907l-.5221.7984 1.0048-.57973c.1088-.06507.249-.0416.3333.05493.0837.09547.0891.23627.0123.3376l-.4544.5968.6997-.40373c.1115-.06507.2549-.03947.3381.05973.0827.09973.0827.24427-.001.34347l-.3712.43893.4741-.2736c.1104-.064.2512-.04053.3344.05547.0837.096.088.23786.0096.33866l-.5355.68854.616-.3552c.1099-.064.2507-.04.3344.05546.0838.09654.088.23787.0102.33867l-.696.8992.6992-.4032c.1146-.06827.2634-.0384.345.0688.0811.10613.071.25653-.024.35093l-.3744.37174.2123-.12214c.1141-.0672.2613-.0384.344.06667.0816.10453.0736.2544-.0187.34933l-.8826.91147.6432-.3712c.1178-.06987.2714-.0368.3509.07733.0795.11307.0597.26774-.0448.3568l-.9184.78027.5467-.31573c.1269-.0752.2906-.03094.3642.0976.0742.12746.0304.29066-.0976.36426l-3.0954 1.7872c-.0416.02454-.088.03574-.1334.03574z" fill="#4d5159"/><path d="m16.7892 12.4432c-.0859 0-.1696-.0416-.2213-.1178-.0779-.1163-.0534-.2736.057-.3595l1.583-1.2331-2.8939 1.6704c-.1221.0731-.2816.0326-.3589-.088-.0763-.121-.0438-.2805.0736-.3621l1.1781-.816-1.8267 1.0549c-.1136.0662-.2586.0384-.3413-.0634-.0821-.1024-.0779-.2502.0112-.3467l.4827-.5285-1.0176.5877c-.104.0608-.2358.0427-.3216-.0416-.0854-.0848-.103-.2165-.0438-.3211l.5382-.9445-1.1638.6715c-.1146.0672-.2624.0378-.3445-.0683-.0811-.1056-.072-.2555.0219-.3504l.064-.064-.1782.1024c-.1082.0635-.2474.0421-.3317-.0523-.0837-.0938-.0912-.2336-.0171-.3354l.496-.68216-.7269.41976c-.1131.0656-.2576.0394-.3408-.063-.0827-.1018-.0784-.24903.0096-.34609l.2869-.31734-.3253.18773c-.1115.06561-.2555.03947-.3381-.05973-.0832-.10026-.0822-.2448.0016-.344l.4613-.5424-.4741.2736c-.1163.0672-.2656.03733-.3467-.07093-.0805-.10827-.0683-.25974.0299-.35307l.057-.05493c-.0997.0272-.2085-.00534-.2762-.08853-.0827-.10081-.08-.24747.0064-.34507l.7061-.80054-.5877.3392c-.1168.06934-.2688.03627-.3494-.07466-.07995-.11094-.06342-.26454.039-.35574l.1824-.16213c-.1008.0272-.2182-.008-.28535-.0992-.08054-.1088-.06613-.2608.03307-.3536l1.14448-1.06453-.7973.46026c-.1221.07307-.2821.03307-.35892-.08853-.0768-.12107-.04373-.28053.07412-.36213l1.7061-1.17494-1.2384.71467c-.1221.07093-.2773.0336-.3552-.08267-.0778-.11626-.0517-.27466.0598-.36l2.2592-1.72746-1.3664.7888c-.1211.06986-.2758.03466-.3536-.08054-.0784-.11573-.055-.272.0549-.35893l1.1291-.89653c-.039-.02294-.0731-.05547-.0971-.0976-.0741-.12747-.0304-.29067.0976-.36427l2.1477-1.239999c.12-.071467.2758-.034667.3536.080533.0784.115733.055.272-.0549.358936l-.4155.33013 1.8064-1.042666c.1211-.071467.2779-.034133.3552.082667.0779.1168.0518.274667-.0597.36l-2.2587 1.726929 3.4582-1.996263c.1248-.072533.2826-.032533.3589.088534.0768.121066.0437.280533-.0741.362133l-4.304 2.965336c.0709.10826.0544.2528-.0411.34186l-1.1445 1.06454.1328-.0768c.1173-.06827.2693-.03574.3493.07466.08.11094.0635.26454-.0389.35574l-.2827.25173c.0779 0 .1541.0336.2064.09813.0827.1008.08.24747-.0064.34507l-.7061.80053.4405-.2544c.1152-.06826.2651-.03786.3467.07094.0805.10826.0682.25973-.0299.35306l-.0779.0736c.0928-.01546.1899.016.2534.09174.0832.10026.0821.2448-.0016.344l-.4614.5424.456-.26294c.1126-.06666.2576-.04.3408.06294.0827.10186.0784.24906-.0096.34613l-.2858.3168.3461-.2c.1083-.06347.2475-.0416.3317.05227.0838.09386.0912.2336.0171.33546l-.4965.68267.8176-.472c.1146-.06667.2629-.03787.3445.06827.0811.1056.072.25546-.0219.3504l-.064.064.2891-.1664c.104-.06133.2347-.0432.3216.0416.0853.0848.1029.21653.0437.32107l-.5381.94449 1.6587-.95783c.113-.06613.2586-.03893.3413.06347.0827.10236.0779.25016-.0112.34666l-.4832.5291 5.9525-3.4363c.1243-.072.2816-.03253.359.088.0762.12107.0437.28054-.0736.36214l-1.175.81333.6059-.34933c.1205-.0704.2763-.03414.3547.0816.0778.11626.0533.2736-.0571.35946l-1.5845 1.2341.4778-.27569c.127-.07414.2912-.03094.3643.0976.0741.12746.0304.29069-.0976.36429l-3.8101 2.1994c-.0416.0246-.088.0358-.1334.0358z" fill="#4d5159"/><path d="m6.96557 31.7165c-.0912 0-.17974-.0469-.22987-.1307-.07467-.1258-.0336-.288.0912-.3642l.7456-.4528-1.5792.9114c-.12533.0742-.2864.032-.36213-.0933-.0752-.1243-.03574-.2864.08693-.3637l9.88-6.1947-11.50827 6.6443c-.12693.073-.288.0309-.36213-.0939-.0752-.1248-.0352-.2869.088-.3637l9.5397-5.9126-10.33383 5.9664c-.12747.0731-.28854.031-.3632-.0954-.07467-.1254-.03307-.288.09173-.3638l2.21547-1.3392-2.35574 1.36c-.12693.0736-.28799.0315-.36266-.0944-.07467-.1258-.03414-.288.09013-.3642l7.41867-4.5382-7.43574 4.2928c-.12533.0742-.2864.0315-.36213-.0933-.0752-.1243-.03573-.2864.08693-.3637l12.69707-7.9435-12.35093 7.1307c-.12693.073-.28854.0309-.36267-.095-.07467-.1253-.03413-.2874.09014-.3637l6.75466-4.1243-6.35093 3.6667c-.12694.0736-.28747.0315-.36213-.0939-.0752-.1248-.03574-.2869.088-.3637l10.81276-6.7125-10.36957 5.9872c-.12533.0741-.2864.032-.36213-.0934-.0752-.1242-.03626-.2858.08694-.3637l12.25066-7.6859-11.78347 6.8027c-.12693.0731-.28853.0309-.36266-.0944-.07467-.1253-.03414-.288.09013-.3643l5.71253-3.4912-5.31359 3.0672c-.12534.0736-.28587.0326-.36161-.0928-.0752-.1242-.0368-.2858.08534-.3637l11.14023-7.0405-10.67303 6.1621c-.1264.0731-.28854.0309-.36267-.0944-.07467-.1253-.03413-.288.09013-.3643l2.7696-1.6928-2.38666 1.3776c-.12533.0731-.28534.032-.36107-.0922-.07573-.1232-.0384-.2848.0832-.3632l9.2912-5.968-8.82293 5.0938c-.1264.0731-.28747.031-.36213-.0938-.07521-.1243-.03574-.2864.08746-.3638l3.5904-2.2346-3.19466 1.8442c-.12534.0731-.2848.0326-.36107-.0917-.07573-.1232-.0384-.2843.08266-.3632l6.5024-4.2117-6.05653 3.4965c-.12587.0725-.28587.0325-.36107-.0917-.07573-.1232-.03839-.2843.08267-.3632l4.47733-2.8912-4.05546 2.3413c-.12534.0736-.28427.032-.36054-.0907-.07573-.1226-.04-.2837.08054-.3632l3.91946-2.5712-3.49546 2.0176c-.1248.0726-.28373.0326-.36-.0896-.07627-.1221-.0416-.2821.07786-.3626l3.40854-2.2875-2.98027 1.7205c-.12373.0731-.28213.0331-.35893-.0885s-.0432-.2811.0752-.3621l2.58826-1.7744-2.16479 1.2496c-.12267.072-.28107.033-.35841-.0875-.07679-.12-.04533-.2789.072-.3616l1.78774-1.2565-1.3696.7904c-.1216.072-.27787.0336-.35627-.0843-.07787-.1179-.0496-.2763.06347-.3605l1.39626-1.0384-.97173.561c-.12.0704-.27413.0352-.35307-.0794-.0784-.1152-.05599-.2715.05227-.3584l.87733-.7078-.44906.2587c-.11147.0656-.25494.04-.33867-.0603-.08267-.0997-.0816-.2448.00267-.344l.6912-.809c-.10187.0112-.21334-.0331-.26934-.1307-.07413-.1275-.0304-.2907.0976-.3643l1.21334-.70025c.112-.0656.25493-.04.33866.06027.08267.09978.0816.24478-.00266.34398l-.65494.7664 2.06827-1.19358c.11947-.0704.27413-.03467.35307.07947.0784.11521.056.27151-.05227.35841l-.87627.7072 1.984-1.14508c.12214-.07093.2784-.03307.35627.08426.07787.11732.0496.27632-.06347.36052l-1.3968 1.039 2.57017-1.48378c.1237-.072.2805-.03307.3584.08698.0768.1205.0453.2794-.072.3621l-1.78723 1.2565 2.95413-1.70558c.1248-.072.2827-.03253.3589.08858.0768.1216.0432.281-.0752.3621l-2.5877 1.7739 3.8539-2.22458c.1242-.07307.2832-.03307.36.08958.0762.1222.0416.2822-.0779.3627l-3.4112 2.2891 4.7488-2.74138c.1253-.07307.2843-.032.3605.09068.0758.1227.04.2837-.0805.3632l-3.9147 2.568 5.2342-3.02188c.1258-.07307.2858-.03254.361.09178.0758.1232.0384.2842-.0826.3632l-4.4795 2.8928 5.7984-3.34725c.1253-.07307.2848-.03253.3611.09175.0757.1232.0384.2843-.0827.3632l-6.5003 4.2112 8.0806-4.66562c.1264-.07413.2864-.032.3621.09392.0752.1242.0357.2864-.0875.3637l-3.5872 2.2325 4.6592-2.68958c.1254-.07307.2854-.032.3611.09228.0757.1232.0384.2848-.0832.3632l-9.2965 5.9712 11.1322-6.42668c.1259-.07413.288-.03147.3627.09438.0747.1259.0341.288-.0901.3643l-2.7686 1.6923 3.7248-2.15045c.1264-.07253.2864-.03147.3616.09285.0752.1242.0368.2858-.0853.3637l-11.1376 7.0384 12.2251-7.0576c.1258-.0736.288-.0315.3626.0944.0747.1259.0342.288-.0901.3643l-5.7184 3.4954 5.9051-3.4096c.1258-.073.2869-.032.3621.0934.0752.1242.0363.2858-.0869.3637l-12.2491 7.6848 12.2576-7.0768c.1259-.0736.2869-.0315.3621.0939.0752.1253.0358.2869-.088.3637l-10.8128 6.7125 10.6827-6.1674c.1259-.0742.288-.0315.3627.0949.0746.1253.0341.2875-.0902.3637l-6.7552 4.1248 6.5942-3.8074c.1264-.0726.2874-.0315.3621.0933.0752.1243.0357.2864-.0869.3637l-12.7003 7.9451 12.5883-7.2672c.1258-.0741.2869-.032.3626.0944.0747.1253.0342.288-.0901.3643l-7.4144 4.5354 7.2571-4.1893c.1269-.0741.288-.0315.3632.0955.0746.1253.033.288-.0918.3637l-2.2016 1.3301 2.0198-1.1658c.1258-.0736.2874-.0315.3621.0938.0752.1248.0352.287-.088.3638l-9.5424 5.9141 9.4032-5.4288c.1259-.0725.2869-.0315.3621.0933s.0358.2864-.0869.3638l-9.8837 6.1968 9.7552-5.632c.1269-.0742.288-.031.3632.0949.0746.1259.0336.288-.0912.3643l-.736.4469.5482-.3168c.1264-.0725.287-.0315.3622.0933s.0357.2864-.087.3638l-7.2474 4.5418 7.1008-4.0997c.1264-.0741.2864-.032.3621.0939.0752.1248.0357.2869-.088.3637l-4.3296 2.6885 4.1627-2.4032c.1253-.073.2848-.032.361.0912.0758.1232.039.2843-.0821.3632l-7.9957 5.1952 7.8752-4.5461c.1258-.0736.2869-.0315.3621.0939.0752.1242.0357.2864-.0875.3637l-1.904 1.1856 1.7227-.9941c.1253-.0736.2843-.032.3611.0917.0757.1232.0384.2843-.0827.3632l-5.0656 3.2795 4.9157-2.8379c.1248-.0736.2832-.0325.36.0896.0763.1221.0411.2821-.0778.3627l-5.4326 3.6426 5.2992-3.0592c.1259-.073.2848-.0325.3606.0912.0757.1227.0394.2838-.0811.3632l-2.5509 1.663 2.3786-1.3728c.1243-.0731.2838-.0331.36.0901.0763.1221.0411.2827-.0789.3627l-2.4256 1.6122 2.2544-1.3008c.1221-.072.2795-.0336.3573.0859.0774.1189.0475.2779-.0677.3611l-3.4352 2.4853 3.2939-1.9013c.1226-.072.281-.0331.3578.0869.0774.12.0459.2789-.0704.3616l-1.6656 1.1803 1.488-.8587c.12-.0715.2758-.0352.3536.0805.0784.1158.055.272-.0549.359l-1.8645 1.48 1.7002-.9814c.1195-.0709.2747-.0346.3526.079.0789.1146.0565.2704-.0512.3584l-.847.6906.6432-.3712c.112-.0666.2571-.0389.3403.0624.0827.1019.0789.2486-.0085.3462l-.6998.7813.064-.0363c.127-.0746.2907-.0309.3643.0976.0741.1275.0304.2907-.0976.3643l-1.5093.8715c-.1131.0661-.2576.0384-.3403-.0624-.0827-.1019-.0789-.2486.0085-.3462l.6998-.7813-2.0726 1.1963c-.12.0704-.2746.0346-.3525-.079-.0789-.1146-.0565-.2704.0512-.3584l.8469-.6906-1.9541 1.128c-.1211.0698-.2757.0346-.3536-.0806-.0784-.1157-.0549-.272.0549-.3589l1.8646-1.48-3.3254 1.92c-.1221.072-.281.0331-.3578-.0869-.0774-.12-.0459-.279.0704-.3616l1.6656-1.1803-2.8214 1.6288c-.1221.0715-.2794.0331-.3573-.0859-.0773-.1189-.0475-.2778.0677-.361l3.4368-2.4864-5.081 2.9333c-.1254.0725-.2838.0325-.36-.0901-.0763-.1227-.0411-.2827.0789-.3627l2.4203-1.6096-3.5712 2.0619c-.1254.0725-.2848.032-.3606-.0912-.0757-.1232-.0394-.2838.0811-.3632l2.5509-1.663-3.6677 2.1174c-.1259.0725-.2837.032-.36-.0896-.0763-.1222-.0411-.2822.0779-.3627l5.4336-3.6432-7.0939 4.0955c-.1248.0725-.2848.0325-.3611-.0918-.0757-.1232-.0384-.2842.0827-.3632l5.0688-3.281-6.472 3.736c-.1264.073-.2875.0309-.3621-.0939-.0752-.1243-.0358-.2864.0874-.3637l1.9008-1.184-2.8426 1.641c-.1254.0726-.2843.032-.3611-.0912-.0757-.1232-.0389-.2842.0821-.3632l7.9968-5.1957-9.7872 5.6501c-.1269.0731-.2869.031-.3621-.0938s-.03573-.287.088-.3638l4.3301-2.6885-5.44957 3.1456c-.12533.0741-.2864.032-.36213-.0933-.0752-.1243-.03573-.2864.08693-.3638l7.24107-4.5381-8.6512 4.9947c-.04213.0245-.088.0357-.13333.0357z" fill="#757577"/><path d="m16.3422 28.5066c-.088 0-.1738-.0438-.225-.1232-.0768-.1206-.0448-.2795.072-.3616l1.5434-1.0806-2.561 1.4779c-.1222.0725-.2811.0331-.3579-.0869-.0773-.12-.0459-.279.0704-.3616l3.5563-2.519-4.6123 2.663c-.1253.073-.2853.032-.3611-.0923-.0757-.1232-.0384-.2848.0832-.3632l.2326-.1488-.6155.3552c-.1259.0731-.2848.0325-.3605-.0912-.0758-.1227-.0395-.2832.081-.3627l2.471-1.6181-2.9387 1.6965c-.1253.0736-.2848.032-.3611-.0917-.0757-.1232-.0384-.2843.0827-.3632l2.2789-1.4747-2.632 1.5195c-.1258.0731-.2858.0325-.361-.0917-.0758-.1232-.0384-.2848.0826-.3632l2.5707-1.6582-2.8704 1.6566c-.1259.0725-.2859.032-.3611-.0923-.0757-.1232-.0384-.2848.0832-.3632l2.559-1.6427-2.784 1.607c-.1254.073-.2859.0325-.3611-.0918-.0757-.1232-.0384-.2848.0827-.3632l3.2613-2.1045-3.4645 2c-.1254.072-.28323.032-.35949-.0896-.07627-.1221-.04214-.2816.07733-.3627l5.98456-4.0346-6.27469 3.6224c-.1248.0725-.28427.0325-.36054-.0907-.07573-.1221-.04-.2832.08-.3627l4.98613-3.2922-5.1008 2.9445c-.12533.0736-.28586.0325-.3616-.0928-.0752-.1237-.03733-.2853.08481-.3632l1.87039-1.1888-1.81173 1.0459c-.12586.0741-.28533.032-.36106-.0923-.07574-.1232-.03787-.2848.08373-.3632l2.43196-1.5589-2.33543 1.3482c-.12586.0726-.2848.032-.36053-.0912-.07627-.1232-.03947-.2842.0816-.3632l3.27836-2.1328-3.12796 1.8059c-.12533.0725-.28374.0325-.36-.0896-.07627-.1221-.04107-.2827.07786-.3627l4.3584-2.9216-4.12106 2.3792c-.12374.0731-.28267.0331-.35947-.089-.07626-.1222-.04213-.2816.0768-.3627l3.88903-2.6331-3.50769 2.0251c-.12534.0731-.2848.032-.36054-.0912-.07626-.1232-.03947-.2843.0816-.3632l.78987-.5141-.3456.1994c-.12533.072-.28373.0326-.36-.0901-.07627-.1221-.04107-.2821.0784-.3627l1.264-.8437-.66507.384c-.12267.0725-.2816.0331-.3584-.088-.0768-.1205-.0448-.28.07307-.3616l1.30506-.9077-.43146.249c-.12107.0704-.27573.0347-.35413-.081-.07787-.1158-.0544-.272.05546-.359l1.48533-1.1733c-.0555-.0213-.1045-.0608-.1365-.1163-.0742-.1274-.0304-.2906.0976-.3642l2.4197-1.3974c.12-.0709.2752-.0352.3541.0811.0779.1157.0544.272-.0554.3589l-.9552.7547 2.7584-1.592c.1242-.072.2816-.0331.3584.088.0768.1205.0448.28-.0731.3616l-1.304.9067 2.2693-1.3099c.1248-.0736.2832-.0325.36.0901.0763.1222.0411.2822-.0784.3627l-1.2688.8469 1.9392-1.1194c.1259-.0731.2854-.0326.3606.0912.0762.1232.0394.2842-.0816.3632l-.7862.5114 1.2603-.7274c.1248-.0726.2832-.0331.3595.089.0762.1222.0421.2816-.0768.3627l-3.888 2.632 4.5717-2.6389c.1248-.0736.2832-.0326.36.0896.0763.1221.0411.2826-.0779.3626l-4.3594 2.9222 4.9152-2.8374c.1253-.073.2848-.0325.3605.0912.0763.1232.0395.2843-.0816.3632l-3.2795 2.1339 3.6118-2.0853c.1258-.0726.2858-.0315.361.0922.0758.1232.0379.2848-.0837.3632l-2.4347 1.5606 2.6448-1.5264c.1264-.0731.2864-.032.3616.0928.0752.1237.0374.2853-.0848.3632l-1.8725 1.1904 2.0048-1.1574c.1243-.0736.2843-.033.3605.0907.0758.1221.04.2832-.08.3627l-4.9797 3.288 5.1979-3.0011c.1248-.0731.2832-.0325.3594.0896.0763.1221.0422.2816-.0773.3627l-5.9877 4.0368 6.1664-3.56c.1253-.0731.2853-.0326.361.0917.0758.1232.0384.2848-.0826.3632l-3.2582 2.1024 3.2256-1.8619c.1248-.073.2854-.032.3611.0923.0757.1232.0384.2848-.0832.3632l-2.5621 1.6453 2.457-1.4186c.1259-.0731.2859-.0326.3611.0917.0757.1232.0384.2848-.0827.3632l-2.5669 1.6555 2.3941-1.3819c.1254-.0731.2848-.0325.3611.0917.0757.1232.0384.2843-.0827.3632l-2.2778 1.4736 2.0389-1.177c.1253-.0731.2853-.0326.3605.0912.0758.1226.0395.2832-.081.3626l-2.4683 1.6166 2.1381-1.2342c.1248-.073.2854-.032.3611.0923.0757.1232.0384.2843-.0832.3632l-.3371.216c.1115-.0368.2406.0053.3072.1099.0774.12.0459.2789-.0704.3616l-3.5584 2.5205 2.8624-1.6528c.1222-.0725.2811-.0331.3584.0875.0768.1205.0448.2794-.072.3616l-1.544 1.081.6502-.3749c.12-.0709.2752-.0352.3541.0811.0779.1157.0544.2725-.0555.3589l-1.4816 1.1696c.0555.0213.104.0608.136.1163.0742.1274.0304.2906-.0976.3642l-2.4229 1.3984c-.1205.0704-.2757.0347-.3541-.081-.0779-.1158-.0544-.2726.0554-.359l.9462-.7472-2.7451 1.5851c-.0421.0245-.088.0357-.1333.0357z" fill="#4d5159"/><g fill="#262626"><path d="m29.5395 24.3082c-.9195-3.1914-.7157-12.6304-2.9685-14.1994-1.7206-.58671-3.7179-.1067-5.5152-.24858 2.192-3.03733 1.1477-7.4528-2.3723-8.985598-5.36-2.506672-11.50612 3.983998-7.8592 8.985598-2.08106.27148-4.94399-.84053-6.31626 1.23518-1.2496 5.8731-1.73226 11.9888-2.7104 17.9419-.42026 2.968 2.84534 2.808 4.90934 2.7024h20.68962c4.3397.1872 2.36-4.8309 2.1429-7.4315zm-16.248-22.92958c5.0901-2.95093 10.6107 3.99574 7.0933 8.4816h-2.649c5.0597-2.34666 1.1152-9.448532-3.6576-6.84266-2.8016 1.26666-2.9158 5.57386-.0907 6.84266h-2.2517c-2.02029-2.68213-1.4091-6.73493 1.5552-8.4816zm2.1659 8.4816c-4.9606-1.01386-2.4555-9.258665 2.1733-6.4816 3.1333 1.82187 1.5787 7.24268-2.1733 6.4816zm12.5066 21.33338h-22.22076c-2.69653.3936-3.6688-.831-2.99466-3.4038.71733-5.0069 1.43466-10.0138 2.152-15.0202-.07787-2.79258 2.34293-2.4294 4.4096-2.3627 5.35522.0011 10.71302-.0027 16.06722 0 2.8106.488 1.9813 7.6869 2.8138 10.0901-.1664 2.3398 3.0112 10.407-.2277 10.6971z"/><path d="m18.4736 13.4979c-12.77228-2.9733-14.05228 16.7162-.8555 14.7216 7.5654-1.3323 8.359-12.6421.8555-14.7216zm-.1136 14.2512c-11.69601 3.0938-12.75042-16.3093-.6917-13.9989 6.6592 1.624 7.2357 11.7882.6917 13.9989z"/><path d="m15.0925 17.4136c-1.2086.4459-1.9568 1.8464-2.9702 2.6539-.1173-.6277.4587-3.6997-.7776-2.4283v6.4c1.1803 1.0139.687-1.7376.7776-2.3477.7312.4293 2.5334 3.3915 3.1728 2.1675-1.0458-1.0464-2.0922-2.0923-3.1381-3.1387.3643-.5931 3.6197-3.1131 2.9355-3.3072z"/><path d="m20.4194 21.1241c-1.0501-.2022-2.6949.472-.5376.4176.2523 1.161-.5125 2.977-1.8656 1.9509-.9013-.6027-1.144-6.4288.8469-5.6304.6315.1963 1 .8032 1.0171 1.4411 1.9643.5274-.0805-3.032-2.2581-1.5894-1.5787.9947-.7558 3.2054-.9419 4.7638.4981 3.4085 5.3365 1.1589 3.7392-1.3536z"/></g></svg>