<svg fill="none" height="32" viewBox="0 0 32 32" width="32" xmlns="http://www.w3.org/2000/svg" xmlns:xlink="http://www.w3.org/1999/xlink"><clipPath id="a"><path d="m0 0h32v32h-32z"/></clipPath><g clip-path="url(#a)"><g fill="#d38332"><path d="m1.83638 20.5204c-.0688 0-.13654-.0266-.18774-.0773-.08533-.0848-.10346-.216-.0448-.3211l.33814-.5973-1.075738.6208c-.116266.0683-.266133.0373-.347733-.0725-.08-.1088-.066667-.2608.033067-.3536l.202133-.1883-.070933.0405c-.113067.0662-.2592.039-.341867-.0645-.082133-.1029-.077333-.2507.0128-.3472l.5984-.6459-.269867.1558c-.109333.064-.250133.041-.333866-.055-.083734-.0954-.088534-.2368-.0112-.3381l.3216-.4203c-.0768-.0122-.146667-.0576-.188267-.1296-.074133-.1274-.0304-.2906.0976-.3642l.883731-.5099c.1088-.0645.2496-.0411.33387.0549.08373.0955.08853.2368.0112.3382l-.2256.2949.64533-.3723c.1136-.0661.25867-.0389.34187.0646.08213.1029.07733.2506-.0128.3472l-.59893.6464.57013-.3291c.11627-.0683.26667-.0373.34773.0725.08.1088.06667.2608-.03306.3536l-.23787.2219c.088-.0203.1824.0043.24907.0699.08533.0848.10346.216.0448.321l-.33867.5984c.12267-.0576.27413-.0133.34453.1078.07414.1274.0304.2906-.0976.3642l-.82666.4779c-.0416.024-.08747.0357-.13334.0357z"/><path d="m11.4384 20.5209c-.0662 0-.1318-.0245-.1824-.0725-.0859-.08-.1088-.2075-.0566-.3126l.4224-.8538-1.3392.7728c-.1146.0672-.2629.0384-.34449-.0688-.0816-.1062-.072-.256.02293-.3504l.60266-.6016-.2805.1621c-.1163.0683-.2656.0379-.34723-.072-.08053-.1083-.0672-.2603.032-.3531l.17603-.1658c-.0742-.0022-.14616-.0342-.19736-.0944-.0832-.0987-.08427-.2427-.00213-.3424l.26769-.3238c-.057-.0208-.1077-.0608-.1408-.1178-.07409-.1275-.0304-.2907.0976-.3643l.8838-.5099c.1104-.065.2533-.0405.337.0582.0832.0992.0843.2426.0022.3424l-.095.1152.4528-.2614c.1163-.0677.2662-.0378.3472.072.0806.1083.0672.2603-.032.3531l-.0528.0496.0459-.0261c.1152-.0672.2629-.0384.3445.0688.0816.1061.072.256-.0229.3504l-.6021.601.3413-.1968c.1013-.0586.2304-.0448.3157.0363.0859.08.1088.2075.0566.3125l-.4326.8731c.1094-.0229.2304.0235.2896.1269.0742.1275.0304.2907-.0976.3643l-.6789.392c-.0416.024-.0875.0357-.1333.0357z"/><path d="m20.891 20.5199c-.0688 0-.1366-.0267-.1883-.0779-.0853-.0842-.1029-.216-.0437-.321l.4789-.8454-1.232.711c-.112.0656-.2571.0394-.3403-.0624-.0826-.1014-.0789-.248.008-.3451l.8256-.9275-.5168.2982c-.1061.0624-.2405.0426-.3253-.0459-.0853-.0885-.0992-.224-.0331-.3275l.4624-.7301c-.1162.0395-.2517-.0075-.3157-.1195-.0741-.1274-.0304-.2906.0976-.3642l.8837-.5099c.1062-.0624.2406-.0427.3254.0464.0853.0885.0992.2235.033.3269l-.456.7206 1.0107-.5835c.112-.0661.2571-.0395.3403.0624.0826.1013.0789.248-.008.3451l-.8256.928.6485-.3744c.1035-.0614.2347-.0432.3216.0416.0853.0842.1029.216.0437.321l-.4789.8448.1227-.0709c.1269-.0741.2901-.0309.3642.0976.0742.1275.0304.2907-.0976.3643l-.9717.5616c-.0416.0245-.0875.0357-.1333.0357z"/><path d="m29.6333 20.5311c-.0779 0-.1542-.0336-.2064-.0982-.0827-.1008-.08-.2474.0064-.345l.736-.8331-.6859.3957c-.1136.0667-.2597.039-.3424-.065-.0821-.103-.0763-.2512.0139-.3478l.6181-.6608-.2901.167c-.1083.0634-.2464.0416-.3312-.0523-.0843-.0939-.0918-.2336-.0182-.3349l.36-.4966c-.089-.0032-.1749-.0506-.2224-.1333-.0741-.1275-.0304-.2907.0976-.3643l.8838-.5098c.1082-.0635.2469-.0422.3312.0522.0842.0939.0917.2336.0181.335l-.3013.416.7594-.4384c.1142-.0667.2598-.0395.3424.065.0822.103.0763.2512-.0138.3478l-.6187.6613.5488-.3168c.1125-.0656.2565-.04.3397.0619.0827.1008.08.2474-.0064.345l-.736.8331.4054-.2336c.1264-.0747.2906-.0304.3642.0976.0742.1275.0304.2907-.0976.3643l-1.8208 1.0517c-.0416.0245-.0874.0357-.1333.0357z"/><path d="m15.2592 5.06411c-.0789 0-.1573-.0352-.2096-.10133-.0816-.10347-.0757-.25227.0155-.34827l.5424-.57333-.5248.30293c-.1158.0688-.2678.0368-.3483-.0736-.0805-.10987-.0651-.26293.0352-.35467l.2827-.25706c-.1078.04586-.2336.01493-.3094-.0768-.0826-.1008-.08-.24694.0059-.34454l.9301-1.0624-.5962.34454c-.1051.06133-.2379.0432-.3232-.04374-.0848-.0864-.1008-.2192-.039-.3232l.5126-.85813c-.127.0704-.2886.0272-.3611-.09973-.0741-.12747-.0304-.290671.0976-.364271l.8848-.510933c.1051-.061867.2379-.0432.3232.043733.0848.0864.1008.2192.0389.3232l-.5125.858131 1.1045-.637331c.1126-.066133.256-.039467.3398.061333.0826.100798.08.246938-.0059.344538l-.9301 1.06186.7077-.40853c.1173-.06773.2683-.03627.3483.0736.0805.10987.065.26293-.0352.35467l-.2816.256c.1082-.04747.2389-.01654.3152.07946.0816.10347.0757.25227-.0155.34827l-.5424.57333.2192-.1264c.0933-.0544.2096-.0464.2949.01814.0854.06506.1232.17493.0971.27893l-.1451.5632c.0502.0224.0939.05973.1227.11093.0736.12747.0293.29067-.0987.36427l-.2698.1552c-.0934.0528-.2091.0464-.2944-.0192-.0854-.06453-.1232-.1744-.0971-.2784l.1067-.41333-1.2523.72266c-.0416.02454-.0875.03574-.1333.03574z"/><path d="m15.6846 26.7081c-.0784 0-.1563-.0347-.2091-.1003-.0816-.1029-.0763-.2512.0133-.3477l.1707-.1835-.5771.3328c-.113.0656-.2576.0395-.3408-.0629s-.0784-.2496.0102-.3467l.9722-1.073-.6416.3701c-.112.0661-.256.0389-.3392-.0608-.0826-.1003-.081-.2459.0043-.3445l1.0757-1.2416-.7408.4277c-.1157.0677-.265.0373-.3461-.0704-.0805-.1072-.0693-.2581.0277-.352l.5563-.5381-.2373.137c-.1158.0672-.2662.0368-.3462-.0709-.081-.1077-.0688-.2587.0288-.352l.5248-.5045-.2074.12c-.1142.0677-.2619.0389-.3446-.0678-.0816-.105-.073-.2549.0208-.3498l.7382-.751-.4144.239c-.1131.0656-.2576.0389-.3408-.063-.0827-.1024-.0784-.2496.0101-.3466l.9696-1.071-.6389.3686c-.1126.0661-.2571.0389-.3398-.0614-.0826-.1008-.08-.2469.0059-.345l1.0437-1.1894-.7098.4102c-.1131.0666-.2592.0389-.3419-.0646-.0821-.1029-.0773-.2512.0128-.3472l.9019-.9717-.5734.3312c-.1125.0656-.256.0395-.3397-.0613-.0827-.1003-.08-.2464.0059-.3446l1.0506-1.2021-.7168.4133c-.113.0667-.2586.039-.3413-.064-.0827-.1024-.0779-.2501.0112-.3466l.9339-1.0182-.6043.3483c-.1136.0667-.2603.0389-.3429-.0656-.0816-.1035-.0758-.2523.0154-.3483l.8464-.8938-.5194.2997c-.1142.0677-.263.0384-.3446-.0683-.081-.1056-.072-.2554.0224-.3504l.6918-.6954-.3691.2128c-.1179.0698-.2693.0357-.3493-.0747-.08-.1109-.0635-.2645.0389-.3552l.2197-.1963c-.089.0166-.1866-.0181-.249-.0938-.0827-.1008-.08-.247.0058-.3446l1.0411-1.1888-.7072.4086c-.1125.0656-.256.0394-.3392-.0614-.0827-.1002-.0805-.2464.0048-.3445l1.0528-1.2091-.7184.4144c-.1131.0662-.2576.0395-.3413-.0634-.0822-.1019-.0779-.2496.0106-.3462l.9504-1.04584-.6197.35787c-.1157.0672-.2656.03733-.3467-.07094-.0805-.10773-.0682-.2592.0294-.35253l.185-.17653c-.0576 0-.1157-.01867-.1637-.056-.0859-.06667-.1221-.17814-.0933-.28267l.1386-.49013c-.0458-.02294-.0853-.05814-.1125-.1056-.0741-.12747-.0304-.29067.0976-.36427l.2699-.15573c.0938-.0544.2112-.04747.297.02026.0859.06667.1222.17814.0934.28267l-.0923.32587 1.1093-.64c.1152-.06774.2651-.03734.3467.07093.0805.10773.0683.2592-.0293.35253l-.0758.07254.1824-.10507c.1126-.06667.2571-.03947.3414.06347.0821.10186.0778.2496-.0107.34613l-.9515 1.04693.6219-.35893c.112-.06614.256-.03947.3392.06133.0827.10027.0805.2464-.0048.34453l-1.0523 1.20858.719-.415c.1125-.0656.2554-.0394.3397.0614.0827.1008.08.2469-.0059.3445l-1.041 1.1888.7082-.4091c.1174-.0688.2699-.0357.3494.0747.08.1109.0634.2645-.039.3552l-.2197.1963c.0917-.0171.1931.0208.2549.1002.0811.1056.072.2555-.0224.3504l-.6901.6939.368-.2123c.1136-.0672.2603-.0389.3429.0656.0816.1035.0758.2523-.0154.3483l-.8464.8944.5205-.3003c.1131-.0661.2587-.0389.3413.064.0827.1024.0779.2502-.0112.3467l-.9344 1.0192.6059-.3493c.1125-.0662.2555-.0395.3397.0613.0827.1003.08.2464-.0058.3445l-1.0502 1.2011.7174-.4133c.1136-.0662.2592-.039.3418.0645.0822.1029.0774.2512-.0128.3472l-.9024.9717.575-.3317c.1125-.0661.2565-.0395.3397.0613s.08.247-.0059.3451l-1.0437 1.1893.7109-.4106c.112-.0667.2576-.0395.3408.0629s.0784.2496-.0101.3467l-.9691 1.0704.639-.3686c.1152-.0666.2624-.0378.3445.0678.0816.105.0731.2549-.0208.3498l-.7392.752.4165-.24c.1152-.0682.2651-.0378.3462.071.081.1077.0688.2586-.0288.352l-.5243.504.2075-.12c.1152-.0683.2645-.0384.3461.0704.0805.1072.0693.2581-.0277.352l-.5568.5381.2389-.1376c.112-.0656.256-.0395.3392.0608s.0811.2459-.0043.3445l-1.0762 1.2416.7424-.4282c.112-.0667.2576-.0395.3408.0629s.0784.2496-.0102.3467l-.9722 1.073.6426-.3706c.1131-.0667.2587-.039.3424.0645.0816.1029.0763.2512-.0133.3477l-.2235.24c.0672-.0074.1414.0118.1979.0592.0859.0704.1195.1872.0827.2923l-.1094.3211c.0352.0224.0662.0538.0891.0928.0736.1274.0299.2906-.0981.3648l-.2704.1557c-.0971.0544-.2176.0459-.3024-.0256-.0859-.0704-.119-.1872-.0827-.2923l.0395-.1168-.7664.4422c-.0416.0245-.0875.0357-.1334.0357z"/><path d="m3.81162 7.71657c-.08373 0-.1664-.04-.21813-.11306-.07893-.11307-.0592-.26774.04587-.35734l.22186-.18773-.864.49867c-.1072.0624-.24266.04213-.32746-.048-.0848-.09014-.09654-.2272-.02827-.33014l.6848-1.0336-1.45813.84214c-.11414.0672-.26294.0384-.34454-.0688-.0816-.10614-.072-.256.02347-.35094l.07733-.07733-.17866.10293c-.10827.06454-.24854.04054-.3328-.05386-.08374-.09494-.09014-.23574-.01334-.33707l.5504-.73387-.695463.40107c-.094934.0544-.2112.04693-.297067-.02027-.085333-.06613-.122133-.17813-.093333-.28213l.204266-.728-.0624.03573c-.128533.0736-.2912.0304-.364266-.0976-.074134-.12746-.0304-.29066.0976-.36426l.629333-.3632c.0944-.0544.2112-.04747.29707.02026.08533.06614.12213.17814.09333.28214l-.20427.72746 1.25814-.72586c.1088-.06347.24853-.04054.3328.05386.08373.09494.09013.23574.01333.33707l-.5504.73387.81493-.4704c.1152-.06774.26294-.03787.34454.0688.0816.10613.072.256-.02347.35093l-.0768.07627.6736-.3888c.10667-.06187.24213-.04267.32747.048.0848.09013.09653.2272.02826.33013l-.6848 1.0336 2.45067-1.4144c.11947-.06933.27253-.03573.35147.07733.07893.11307.0592.26774-.04587.35734l-.22293.1888 1.08213-.62454c.10933-.06346.248-.04106.33227.05334.08373.0944.09066.23413.01546.336l-.79626 1.07786 2.54613-1.46986c.11307-.06614.25867-.03894.3424.06453.0816.10293.07627.2512-.01333.34773l-.75254.80907 2.12058-1.224c.1173-.06827.2682-.0368.3482.0736.0806.10987.0651.26293-.0352.35467l-.4928.448 1.5222-.87787c.1152-.06827.264-.03787.3456.06933.081.10667.0704.2576-.0256.35147l-.656.64427 1.8496-1.0672c.1088-.06507.2496-.0416.3338.05546.0838.096.0886.23734.0112.33814l-.8085 1.05066.7445-.42986c.103-.0608.2336-.0432.3195.03946.0853.0832.1051.2128.0485.31787l-.1962.3648c.08.0096.1552.05547.1989.1312.0736.12747.0299.29067-.0981.3648l-.6016.34667c-.103.0592-.2336.0432-.3195-.04-.0853-.0832-.1051-.2128-.0485-.31787l.1477-.27413-1.0944.63146c-.1099.064-.2501.0416-.3339-.05546-.0837-.096-.0885-.23734-.0112-.33814l.8086-1.05066-2.5008 1.44373c-.1158.06773-.2646.03733-.3456-.06933-.0811-.10667-.0704-.2576.0256-.35147l.656-.64427-1.84591 1.06507c-.11627.0688-.26827.0368-.34827-.0736-.08053-.10987-.06506-.26293.0352-.35467l.4928-.448-1.5184.87627c-.11306.06613-.25866.03893-.3424-.06453-.0816-.10294-.07626-.2512.01334-.34774l.75253-.80906-2.11573 1.22133c-.1088.06453-.248.0416-.33227-.05333-.08373-.0944-.09067-.23414-.01547-.336l.79627-1.07787-2.54133 1.46667c-.0416.02453-.088.03573-.13334.03573z"/><path d="m29.3286 4.91062c-.0923 0-.1819-.048-.231-.13333-.0741-.12747-.0304-.29067.0976-.36427l.6256-.36107c.1275-.07466.2907-.0304.3643.0976.0741.12747.0304.29067-.0976.36427l-.6256.36107c-.0421.02453-.088.03573-.1333.03573z"/><path d="m19.5357 7.73067c-.0741 0-.1466-.03094-.1989-.08907-.0843-.0944-.0907-.23467-.0149-.33653l.8021-1.08214-2.3739 1.3696c-.1162.06934-.2672.03734-.3482-.07306-.08-.10987-.0651-.2624.0346-.35414l.4016-.368-.088.05067c-.0917.05333-.2042.04693-.2901-.0144-.0848-.06187-.1259-.168-.104-.27093l.1696-.80854c-.0565-.02026-.1072-.06026-.1403-.11733-.0736-.12747-.0298-.29067.0982-.3648l.2666-.1536c.0923-.05173.2048-.04587.2902.01547.0848.06133.1258.16746.104.2704l-.144.68266 1.6778-.968c.1168-.06826.2678-.0368.3483.07307.08.10987.0651.2624-.0347.35413l-.4016.368 1.3782-.7952c.1093-.06346.2485-.04106.3322.05334.0843.0944.0907.23466.015.33653l-.8022 1.08267 2.551-1.47254c.1125-.06666.2576-.04.3408.06294.0826.1024.0784.2496-.0102.34666l-.7706.8512 2.1845-1.2608c.1136-.0672.2597-.0384.3424.06507s.0763.25227-.0144.34827l-.7435.7904 2.0854-1.20427c.1098-.06507.2517-.04053.3354.05653.0838.09707.0864.24054.0064.3408l-.801.99947 4.2672-2.46347c.1205-.07093.2773-.03413.3546.08214.0779.1168.0528.27413-.0581.36l-.9419.7248 1.5974-.92214c.1184-.06986.2709-.03573.3504.07627.0794.112.0613.26667-.0427.35627l-1.2544 1.08426.7749-.44746c.127-.0752.2907-.03094.3643.0976.0741.12746.0304.29066-.0976.36426l-3.2101 1.85387c-.1174.06933-.2704.03627-.3504-.07627-.0795-.112-.0614-.26666.0426-.35626l1.2555-1.08534-2.6336 1.52054c-.1211.07093-.2768.03466-.3547-.08214-.0778-.1168-.0528-.27413.0582-.36l.9424-.72533-2.0267 1.1696c-.1104.064-.2517.04053-.3355-.05653-.0837-.09707-.0864-.24054-.0064-.3408l.8011-.99947-2.4251 1.4c-.1136.06667-.2597.0384-.3424-.06507-.0826-.10346-.0762-.25226.0144-.34826l.744-.7904-2.0901 1.2064c-.1131.06613-.2581.03893-.3408-.06294-.0827-.1024-.0784-.2496.0101-.34666l.7712-.8512-2.1893 1.26346c-.0416.02454-.0875.03574-.1333.03574z"/></g><path d="m16.5408 9.25925c-.0789 0-.1568-.03467-.2091-.1008-.0821-.10294-.0762-.2512.0139-.34774l.8592-.91946-2.0672 1.19306c-.1173.06934-.2688.0368-.3499-.0752-.0794-.11093-.0624-.26506.04-.35573l1.5627-1.3808-2.1328 1.23147c-.1211.072-.2779.0336-.3563-.08427-.0778-.11787-.0496-.27627.0635-.36053l.5285-.39307-.6154.3552c-.12.0704-.2736.03467-.3526-.07893-.0789-.1136-.057-.26987.0507-.35787l1.5317-1.25547-1.5573.8992c-.1195.06987-.2736.03467-.3525-.0784-.0784-.11413-.0571-.26933.0496-.35786l1.1952-.98774-.944.54454c-.1131.0656-.2582.03946-.3408-.06294-.0827-.1024-.0784-.2496.0101-.34666l.9579-1.05654c-.1211.048-.2614.00107-.3275-.1152-.0741-.12746-.0304-.29066.0976-.36426l1.4304-.8256c.1125-.0672.2576-.03947.3408.06293s.0784.2496-.0101.34667l-.9504 1.04906 2.2314-1.288c.1195-.06986.2736-.03466.3526.0784.0784.11414.057.26934-.0496.35787l-1.1952.9872 1.6266-.93867c.12-.0704.2736-.0352.3526.07894.0789.11413.057.26986-.0507.35786l-1.5328 1.25547 1.7557-1.0128c.1222-.07093.279-.03307.3563.08427.0779.11786.0496.27626-.0635.36053l-.5253.39093.4597-.2656c.1179-.06826.2694-.03573.3499.0752.0795.11094.0624.26507-.04.35574l-1.5632 1.38133 1.3195-.7616c.1136-.06667.2597-.03947.3424.06507.0821.10293.0762.2512-.0139.34773l-.896.95787c.1067-.01707.2213.0288.2789.12906.0742.12747.0304.29067-.0976.36427l-1.4304.8256c-.0416.02453-.0874.03573-.1333.03573z" fill="#eda439"/><path d="m12.7059 29.065c-.0842 0-.1674-.0405-.2192-.1146-.0784-.1142-.057-.2694.0496-.3579l1.392-1.1488-1.512.8725c-.1136.0667-.2597.0379-.3424-.065-.0821-.1035-.0762-.2518.0144-.3478l1.0827-1.1536-.7552.4358c-.1099.065-.2507.0405-.3344-.0555s-.088-.2379-.0101-.3387l.312-.4032c-.0731-.0144-.1398-.0586-.1798-.1285-.0741-.1275-.0304-.2907.0976-.3643l.8832-.5098c.1099-.064.2512-.0406.3344.0554.0838.096.088.2379.0102.3387l-.2064.2667 1.1456-.6614c.1136-.0666.2597-.0384.3424.0651.0826.1035.0762.2517-.0144.3477l-1.0832 1.1536 2.7146-1.5669c.1195-.0704.2736-.0347.3526.0784.0784.1141.057.2693-.0496.3579l-1.3915 1.1488 2.7461-1.5856c.119-.0704.2731-.0352.352.0778.079.1142.0582.2694-.0485.3579l-1.4144 1.1755 2.2843-1.319c.1194-.0704.2736-.0346.3525.0784.0784.1142.0571.2694-.0496.3579l-1.0245.8453 1.04-.6005c.1162-.0677.2656-.0373.3466.0715.0806.1082.0683.2597-.0304.3525l-.6826.6491.3786-.2187c.104-.0619.2368-.0432.3222.0427.0848.0853.1018.2176.0416.3221l-.2875.4933c.1104-.0245.2331.0208.2939.1259.0741.1275.0304.2907-.0976.3643l-.7872.4549c-.1051.0613-.2363.0427-.3222-.0427-.0848-.0853-.1018-.2176-.0416-.3221l.2774-.4757-1.4614.8437c-.1162.0683-.2656.0379-.3466-.0715-.0806-.1082-.0683-.2597.0304-.3525l.6826-.6485-1.8629 1.0757c-.1189.0704-.2736.0352-.3525-.0784-.0784-.1141-.0571-.2693.0496-.3579l1.0256-.8458-2.2272 1.2853c-.1195.0699-.2731.0352-.352-.0779-.079-.1141-.0582-.2693.0485-.3578l1.4149-1.1755-2.7984 1.6149c-.0416.0246-.088.0358-.1333.0358z" fill="#eda439"/><path d="m15.7805 31.7174c-.0858 0-.1696-.0416-.2208-.1174-.0784-.1162-.0538-.273.056-.3594l1.0779-.8448-2.2272 1.2853c-.1173.0693-.2699.0368-.3499-.0758-.0794-.1109-.0624-.265.0406-.3557l1.5829-1.3909-3.1573 1.8224c-.1163.0683-.2662.0373-.3472-.072-.0806-.1083-.0672-.2603.0314-.3531l1.696-1.5962-3.3994 1.9626c-.1216.0715-.279.0336-.3563-.0848-.0779-.1184-.0491-.2768.0645-.3605l.376-.2773-.3642.2101c-.1158.0672-.2646.0379-.34564-.0699-.08107-.1066-.06987-.257.02613-.3514l1.14241-1.1179-.8224.4747c-.1072.0623-.2432.0421-.32854-.0491-.08427-.0912-.09547-.2283-.0256-.3312l.41124-.6075c-.1008.0123-.2128-.0331-.2688-.1306-.07417-.1275-.0304-.2907.0976-.3643l.8832-.5099c.1066-.0634.2432-.0426.3285.0491.0843.0912.0955.2283.0256.3312l-.3867.5707 1.6502-.952c.1146-.0678.264-.0379.3456.0698.081.1067.0698.2571-.0262.3515l-1.1429 1.1184 2.6672-1.5397c.1221-.071.2795-.0331.3563.0848.0778.1184.049.2768-.0646.3605l-.3765.2779 1.2528-.7227c.1163-.0683.2661-.0379.3472.072.0805.1083.0672.2603-.0315.3531l-1.696 1.5957 3.5008-2.0208c.1184-.0688.2704-.0363.3499.0757.0795.111.0624.2651-.0405.3558l-1.583 1.3909 3.1574-1.8224c.121-.0709.2762-.0341.3541.0811.0784.1162.0539.273-.056.3594l-1.0768.8443 2.1157-1.2213c.1168-.0678.2678-.0368.3478.073.0805.1094.0661.2619-.0336.3542l-1.6011 1.4757 1.9568-1.1296c.112-.0651.256-.0395.3392.0608.0832.1002.0811.2458-.0043.3445l-.9818 1.1333.6709-.3871c.1051-.0619.2379-.0432.3243.0442.0848.0875.1002.2214.0362.3254l-.2234.3658c.0864.0054.168.0528.2149.1328.0736.1275.0299.2907-.0981.3648l-.7088.4091c-.1046.0602-.239.0421-.3243-.0453-.0848-.087-.1003-.2209-.0363-.3249l.175-.2858-1.1366.6555c-.112.0656-.256.0394-.3392-.0608-.0832-.1003-.081-.2459.0043-.3446l.9819-1.1333-2.6656 1.5387c-.1158.0688-.2672.0373-.3478-.0731-.0805-.1094-.0661-.2619.0336-.3541l1.6011-1.4758-3.2955 1.9024c-.0416.0246-.0874.0358-.1328.0358z" fill="#d38332"/><path d="m6.49583 23.1843c-.08587 0-.17013-.0416-.22133-.1184-.07787-.1168-.0528-.2741.05813-.36l.95786-.7381-2.04426 1.1802c-.11627.0688-.26827.0368-.34827-.0736-.08053-.1098-.06507-.2624.0352-.3541l1.66774-1.5221-3.37814 1.9498c-.1184.0699-.27146.0363-.35093-.0773-.07947-.1125-.05973-.2672.0448-.3568l1.50027-1.2768-2.5696 1.4832c-.12107.0699-.27574.0341-.3536-.0805-.0784-.1158-.05494-.272.05493-.359l.87733-.696-1.1776.6795c-.1184.0693-.271998.0357-.350931-.0773-.079467-.1126-.060267-.2667.044267-.3563l.708804-.6059-.787738.455c-.110933.0645-.253333.0394-.336533-.0582s-.0848-.2421-.0032-.3418l.632001-.7691-.471468.272c-.0928.0539-.210666.0459-.295466-.0192-.085867-.0651-.1232-.176-.096-.28l.144-.5397c-.047467-.0224-.088534-.0587-.1168-.1078-.074134-.1274-.0304-.2906.0976-.3642l.2672-.1542c.093333-.0544.210133-.0469.295466.0192.085868.0651.123198.176.095998.28l-.101864.383 1.185064-.6843c.1104-.0656.25334-.0405.33654.0581.0832.0982.0848.2422.0032.3419l-.63254.7701 2.03147-1.1722c.11893-.0699.272-.0358.35093.0773.07947.1125.06027.2667-.04426.3563l-.70827.6048 1.80213-1.04c.12-.0715.27574-.0352.3536.0805.0784.1157.05494.272-.05493.3589l-.87733.696 1.97013-1.1376c.11733-.0698.27147-.0362.35093.0774.07947.1125.05974.2672-.0448.3568l-1.50133 1.2778 2.96853-1.7136c.11733-.0677.26827-.0362.34827.0736.08053.1099.06506.2624-.0352.3542l-1.66774 1.5221 3.38351-1.9531c.121-.0709.2768-.0346.3546.0822.0779.1168.0528.2741-.0581.36l-.95894.7386 2.04854-1.1824c.1211-.072.2773-.0336.3552.0827.0779.1173.0517.2752-.0603.36l-.857.6539.8032-.4635c.12-.0704.2741-.0352.353.0795.0784.1146.056.2704-.0517.3578l-.5344.4342.2059-.119c.1152-.0666.2624-.0378.3445.0672.0816.1056.0731.2555-.0203.3504l-.5781.5888c.0635.0182.1205.0603.1557.1222.0742.1274.0304.2906-.0976.3642l-1.2672.7318c-.1141.0672-.2624.0384-.3445-.0672s-.0731-.2555.0203-.3504l.3626-.3691-1.42184.8208c-.12.0709-.27413.0352-.35306-.0795-.0784-.1146-.05601-.2704.05173-.3578l.536-.4352-1.51254.873c-.12159.071-.27786.0331-.35519-.0826-.07787-.1174-.05174-.2752.06026-.36l.8576-.6539-1.89973 1.0965c-.0416.0246-.088.0358-.13334.0358z" fill="#eda439"/><path d="m26.9663 23.1847c-.0869 0-.1717-.0427-.2229-.1205-.0779-.1184-.0496-.2768.064-.3606l.5605-.416-1.4912.8608c-.1189.0699-.2725.0347-.3514-.0778-.0795-.1136-.0587-.2688.0469-.3574l1.4539-1.2192-2.8651 1.6544c-.1216.072-.2784.0342-.3568-.0848-.0773-.1184-.0485-.2768.0656-.3605l.4496-.3312-1.3451.7765c-.1189.0699-.2736.0358-.352-.0784-.0789-.1136-.0576-.2693.0491-.3578l1.3893-1.1483-2.6133 1.5088c-.1216.0709-.2779.0336-.3557-.0837-.0779-.1174-.0507-.2758.0618-.36l.6016-.4523-.9888.5707c-.1146.0677-.2624.0384-.3445-.0683-.0811-.1056-.072-.2555.0224-.3504l1.3445-1.3531-1.6901.9755c-.1136.0667-.2587.0384-.3413-.0635-.0822-.1024-.0779-.2501.0112-.3472l.6384-.6976-.5152.2976c-.0912.0539-.2054.0475-.2912-.0154-.0854-.063-.1254-.1702-.1024-.2736l.1568-.6992c-.055-.0208-.103-.0603-.1344-.1152-.0742-.1275-.0304-.2907.0976-.3643l.2672-.1541c.0922-.0528.2058-.047.2912.0154.0853.063.1253.1702.1024.2736l-.127.5664 1.4864-.8581c.1131-.0661.2582-.0384.3414.0635.0821.1024.0778.2501-.0112.3472l-.639.6981 1.9243-1.1109c.1152-.0667.2629-.0374.3445.0682.0811.1056.072.2555-.0224.3504l-1.3445 1.3531 3.0741-1.7744c.1211-.0715.2779-.0347.3558.0837.0778.1179.0506.2758-.0619.36l-.5995.4507 1.5526-.8965c.12-.0699.2736-.0352.352.0784.0789.1136.0576.2693-.0491.3578l-1.3899 1.1488 2.7499-1.5877c.1221-.0715.2789-.0336.3568.0848.0773.1184.0485.2768-.0656.3605l-.4496.3312 1.3477-.7781c.1195-.0704.2726-.0352.3515.0779.0795.1136.0587.2688-.0469.3573l-1.4539 1.2192 2.8699-1.6565c.1221-.071.2784-.0331.3562.0842.0779.1184.0496.2768-.064.3606l-.5605.416.4608-.2662c.1147-.0677.2635-.0378.3451.0694.0816.1066.0709.257-.0251.3514l-1.1419 1.1238.7142-.4118c.1269-.0752.2906-.0304.3642.0976.0742.1275.0304.2907-.0976.3643l-2.5226 1.456c-.1158.0672-.2635.0373-.3451-.0693-.0811-.1067-.0709-.2571.0251-.3515l1.1413-1.1232-2.6752 1.5445c-.0416.0246-.088.0358-.1333.0358z" fill="#eda439"/><path d="m31.8593 18.625c.1419-.9045-.3776-1.8832-1.3829-1.8528-1.2949-3.0219-2.5899-6.0432-3.8843-9.06505 2.0523.1488 4.5515-.36 5.1862-2.61813.1797-.62347-.128-.99787-.7648-1.02667-1.5862-.26987-1.6182.38187-2.6635 1.0672-3.1851.00853-6.3899-.0064-9.5813 0-.2758-.56747-.735-1.03627-1.3158-1.31627.2336-2.04-.1685-4.89813-2.6917-2.81226-.4475.87946-.1221 1.968-.2144 2.92533-.5301.2784-1 .70453-1.2661 1.24533-3.2171-.1168-6.52855.224-9.70455-.11093-.41174-.19253-.43894-.67467-.81334-.8704-.62826-.15733-1.3984-.1536-2.029329.024-.7706664.29547-.606933.98826-.2848 1.60533.934399 1.93973 3.206929 1.8768 5.049599 1.8112-1.3152 3.06882-2.62987 6.13762-3.94507 9.20642-1.588262.0906-1.452262 1.7546-1.412262 2.9248-.664533 4.8517 5.195202 3.1989 8.176532 3.4597 2.37542.3904 4.87092-.7445 4.34022-3.5141.0224-1.1318.2352-2.9323-1.3776-2.9259-1.30715-3.0507-2.61435-6.1008-3.92102-9.15145h5.84742c.2539.60693.768 1.0816 1.3403 1.3456v16.43465c-1.8848-.2987-3.0357.6907-2.6752 2.6379-1.8651-.2603-2.40745 1.4074-2.12479 2.9477.33009 1.5024 9.47149.2981 11.42879.6645 1.3973-.0245 1.0992-1.6288 1.0656-2.5888-.1749-1.081-1.2981-.9941-2.1216-.9994.2704-2.1766-.4571-2.959-2.6608-2.6603v-16.53865c.5173-.28107.9445-.69707 1.2277-1.20214 2.0016.00694 3.999-.01653 6.0011.01494-1.312 3.06235-2.6245 6.12475-3.9365 9.18715-2.12.0443-1.7046 4.5419-.7024 5.6192 2.1088 1.2747 4.929.3243 7.3034.6038 3.4683.3584 4.9467-.9515 4.5072-4.4715zm-.9984-1.0059c.4059.5552.1408 1.3094.2128 1.9515h-1.3472c.0555-.7488-.3029-2.3616.7782-2.1787.129.0384.2714.1264.3562.2272zm-15.5418-16.12262c.0096-.2976.1749-.647465.4565-.749865 1.3717.080534.7835 1.909865.904 2.822405-.4523-.07894-.9179-.056-1.3627.056-.0048-.7088-.0272-1.42134.0022-2.12854zm-14.397352 16.69172c-.0272-.2741.098662-.6357.289602-.7701.08373-.096.33653-.12.3776-.0971.0336.0059.11786.032.1312.0357.81813.3563.496 1.3846.55786 2.0891h-1.356262zm10.947152 2.7989c-.6474 2.983-4.93169 1.2016-7.12902 1.6587-1.88587.2651-4.255465-.184-3.821332-2.6251h10.959952c.0059.3222.016.647-.0096.9659zm.0054-2.3605v.8192h-1.3488c.0832-.6459-.263-1.5824.3456-2.0155.7344-.3253 1.1125.5835 1.0032 1.1963zm-1.7883-2.6224c.1371.3205.2747.6411.4117.9616-.95569.4704-.74395 1.6-.75675 2.48h-6.68587c-.03893-.8768.26293-2.1445-.79467-2.5189 1.328-3.0987 2.65547-6.1979 3.98347-9.29655h.25387c1.19626 2.79145 2.392 5.58295 3.58825 8.37435zm-2.88319-8.69279c-.23626-.25493-.61706.0608-.91733-.00213-2.21387.11627-5.18187-.00693-5.420265-2.87947.634665-.04426 1.326935-.11999 1.601595.59947 3.1808 1.20587 7.20854.11093 10.66609.4672-.2138.5792-.2309 1.216-.0469 1.80853-1.9611.00267-3.92212.00694-5.88319.0064zm13.37329 21.14879c1.2192.0757.9894 2.0395.8294 2.8123-3.431 0-6.8614 0-10.2918 0-.9776.2661-.817-2.8054-.0154-2.8123 3.1552.0139 6.3226-.0277 9.4778 0zm-2.385-2.6731c1.3552-.161 1.1637 1.384 1.1557 2.2854-2.2315-.0064-4.4624.0122-6.6939-.007-.504-3.448 1.8016-1.9861 4.0854-2.2778.3936.2384.976-.1179 1.4533 0zm-1.5168-2.2752v1.9003h-1.3547v-16.19145c.4416.0736.9152.08106 1.3547-.0464zm.4848-14.95409c-.1792-.01173-.3814.064-.4544.20534-3.5734.92906-4.0374-5.46453-.2902-4.74293 2.0294.4688 2.5238 3.46239.7446 4.53759zm1.7184-1.29653c.2074-.536.232-1.1696.0517-1.72107 3.3104-.1152 6.7285.3328 9.9883-.18399.6357-.12534.608-1.0448 1.1872-.88534.1834 0 .481-.064.6517 0 .5813.21814.1803 1.03254-.0357 1.39734-2.3083 2.86293-8.3974.81119-11.8432 1.39306zm6.8522.44213c1.3216 3.08429 2.6432 6.16849 3.9648 9.25329-.9962.4992-.7226 1.6998-.7541 2.6134h-6.6875c-.0592-.9062.3168-2.2662-.8122-2.6294 1.32-3.081 2.6405-6.1616 3.9605-9.24262.1093.0016.2187.00427.3285.00533zm-5.1946 9.59309c-.0027.0016-.0054.0032-.007.0037.0022-.0011.0064-.0037.0064-.0037zm.0042-.0022c.0086-.0048.0086-.0042 0 0zm-.4197.8299c-.0171-.2747.0997-.6267.3525-.7931 1.2139-.2789 1.0107 1.4544 1.008 2.2384h-1.3605zm10.9605 2.3584c.2384 3.1936-3.4213 2.1291-5.4645 2.2869-2.304.0374-5.9893.5595-5.496-2.8741 2.9563.0027 5.9211.0032 8.8981.0379.6.1749 1.3958-.1099 2.0795-.0454-.0384.1664-.0331.4155-.0171.5947z" fill="#262626"/></g></svg>