<svg fill="none" height="24" viewBox="0 0 24 24" width="24" xmlns="http://www.w3.org/2000/svg" xmlns:xlink="http://www.w3.org/1999/xlink"><clipPath id="a"><path d="m0 0h24v24h-24z"/></clipPath><g clip-path="url(#a)"><path d="m17.1432 8.64249c-.0394-.00008-.0779-.0118-.1107-.03368-.0327-.02189-.0583-.05296-.0735-.08932-.0151-.03636-.0192-.07639-.0117-.11506.0075-.03868.0262-.07428.0539-.10234l.8432-.8528-.0332.0192c-.0457.02391-.0989.02924-.1485.01487-.0495-.01438-.0916-.04733-.1174-.09199s-.0334-.09757-.0211-.14768c.0123-.0501.0434-.09352.087-.1212l1.322-.7624c.0419-.02419.0912-.03233.1387-.02292s.09.03574.1196.0741c.0295.03836.0442.08614.0412.13447-.003.04834-.0235.09394-.0575.12835l-.8432.8512 2.1028-1.214c.0459-.0261.1003-.03298.1512-.01915.051.01384.0944.04728.1208.09301.0264.04574.0337.10007.0202.15113s-.0467.0947-.0922.12141l-3.3916 1.96c-.0305.01706-.0651.02562-.1.0248z" fill="#e2e2e0"/><path d="m21.1524 11.3991c-.0401-.0001-.0792-.0122-.1123-.0348-.0332-.0225-.0587-.0546-.0734-.0919s-.0179-.0781-.0091-.1172.0292-.0747.0584-.1021l.96-.8968-.3624.2088c-.0426.0259-.0933.035-.1423.0254-.0489-.0096-.0925-.0371-.1222-.0772-.0298-.0401-.0434-.0898-.0383-.1394.005-.0496.0285-.0956.0656-.1288l.4344-.40601-.2212.1276c-.0422.02468-.092.03303-.1399.02349-.048-.00954-.0908-.03633-.1203-.07529-.0296-.03896-.0438-.08739-.0401-.13615.0037-.04875.0252-.09445.0603-.12845l.32-.3132-.2324.134c-.0404.02329-.0878.03169-.1338.02374-.046-.00796-.0878-.03176-.1181-.06729s-.0472-.08054-.0478-.12724c-.0006-.04669.0152-.09212.0445-.12841l.5124-.6308-.614.3544c-.0416.02379-.0904.03182-.1375.02261-.0471-.0092-.0893-.03502-.1189-.07275-.0297-.03773-.0448-.08486-.0425-.13278.0022-.04792.0216-.09345.0545-.12828l.2212-.2312-.338.1948c-.0395.02293-.0858.0316-.131.02457s-.0866-.02934-.1173-.06322c-.0308-.03387-.049-.07726-.0516-.12293-.0026-.04566.0105-.09085.0371-.12802l.4-.5556-.8332.48c-.0397.02318-.0863.03193-.1317.02478-.0455-.00715-.0871-.02976-.1178-.06402-.0308-.03426-.0488-.07807-.0509-.12404-.0022-.04598.0115-.0913.0388-.12832l.3544-.4832-1.254.724c-.0457.02391-.0988.02923-.1484.01486-.0495-.01437-.0916-.04733-.1174-.09199s-.0334-.09757-.0211-.14767.0434-.09353.0869-.1212l2.08-1.2c.0398-.02278.0861-.03125.1313-.02398s.0866.02983.1171.06392c.0306.03409.0486.07763.0509.12336s-.0111.09088-.0381.1279l-.3544.4832.812-.4688c.0396-.02293.0859-.03161.1311-.02458.0452.00704.0866.02935.1173.06322.0308.03388.049.07727.0516.12293.0026.04567-.0105.09086-.0372.12803l-.4.5564.7472-.4316c.0417-.02409.0907-.03232.138-.02318s.0897.03504.1194.07293c.0298.0379.0448.08525.0424.13335-.0024.04811-.022.09373-.0554.1285l-.2212.2312.342-.1972c.0405-.0233.0879-.0317.1339-.02374.046.00795.0878.03176.1181.06729s.0472.08054.0478.12723c.0006.0467-.0152.09213-.0446.12842l-.5128.6308.68-.3928c.0423-.02468.0921-.03304.14-.02349.048.00954.0908.03632.1203.07528.0296.03896.0438.0874.0401.13615-.0037.04876-.0252.09446-.0604.12846l-.32.3132.3248-.1876c.0427-.02592.0934-.03497.1424-.02539.0489.00958.0925.0371.1222.07717.0297.04008.0434.0898.0383.13942-.005.04962-.0285.09556-.0657.1288l-.4336.4084.3896-.2248c.0427-.02511.0931-.03355.1415-.02367.0485.00987.0916.03735.121.07713.0293.03978.0429.08904.0381.13827-.0048.04922-.0276.09492-.0642.12827l-.96.89721.8812-.51241c.0457-.02391.0989-.02924.1485-.01486.0495.01437.0916.04733.1174.09199s.0334.09756.0211.14767c-.0123.0501-.0434.09352-.087.1212l-2.4 1.38681c-.0308.018-.0659.0273-.1016.0272z" fill="#e2e2e0"/><path d="m19.2225 14.5846c-.0418-.0005-.0824-.014-.1161-.0388-.0336-.0247-.0587-.0594-.0717-.0991s-.0132-.0824-.0006-.1223c.0126-.0398.0373-.0747.0708-.0998l1.1435-.8308-1.9071 1.1012c-.0449.0252-.0978.0321-.1476.0193s-.0928-.0443-.12-.088-.0365-.0962-.026-.1466c.0105-.0503.04-.0947.0824-.1239l.1416-.0944-.5744.3316c-.0427.0269-.0938.0366-.1434.0274-.0495-.0092-.0937-.0368-.1237-.0772-.0301-.0405-.0438-.0907-.0384-.1408s.0295-.0963.0675-.1294l1.0491-.9968-1.8631 1.0756c-.0419.0239-.091.0318-.1382.0224-.0473-.0095-.0895-.0356-.119-.0737s-.0443-.0856-.0415-.1337c.0027-.0481.0227-.0936.0563-.1282l.8332-.8468-1.5536.8972c-.0432.025-.0942.0329-.1429.0222s-.0917-.0392-.1205-.0799-.0413-.0907-.0351-.1402c.0061-.0495.0305-.0949.0685-.1273l.402-.344-.8344.48c-.0423.0247-.0921.0331-.14.0235-.048-.0095-.0908-.0363-.1203-.0753-.0296-.0389-.0438-.0874-.0401-.1361.0037-.0488.0252-.0945.0604-.1285l.6276-.6096-1.2.694c-.0427.0259-.0934.035-.1424.0254-.0489-.0096-.0925-.0371-.1222-.0772-.0297-.04-.0434-.0898-.0383-.1394.005-.0496.0285-.0955.0656-.1288l.4953-.466-1.0041.5796c-.0418.0239-.0908.0318-.138.0224s-.0895-.0355-.119-.0735-.0443-.0854-.0417-.1335.0225-.0936.056-.1282l.5356-.5468-1.1416.6584c-.0426.0231-.0921.03-.1393.0194-.0473-.0106-.0891-.038-.1177-.0771s-.042-.0872-.0378-.1354c.0042-.0483.0258-.0933.0608-.1269l.2523-.228-.7352.4248c-.0402.0228-.0871.0308-.1327.0229-.0455-.008-.0869-.0315-.1171-.0665-.0302-.0351-.0473-.0795-.0484-.1257s.0138-.0914.0423-.1279l.5268-.666-1.4469.834c-.0384.0223-.0831.0311-.1271.0251-.0441-.006-.0848-.0265-.1159-.0582s-.0507-.0729-.0558-.117.0046-.0887.0276-.1267l.4572-.754-1.79195 1.0344c-.04308.0244-.09366.0319-.14197.0212-.04831-.0108-.09092-.0391-.11958-.0794-.02866-.0404-.04134-.0899-.03558-.1391.00575-.0492.02953-.0944.06673-.1271l.0244-.0212-.8088.4668c-.04044.0233-.08775.0318-.13376.0239-.046-.0079-.08779-.0317-.11813-.0671-.03035-.0355-.04732-.0805-.048-.1271-.00068-.0467.01499-.0921.04429-.1285l.438-.5416-2.8816 1.6676c-.04256.0234-.09219.0306-.13963.0201-.04743-.0105-.08942-.0379-.11813-.0771-.0287-.0392-.04216-.0875-.03787-.1359.0043-.0484.02606-.0936.06123-.1271l.5012-.456-.3304.1908c-.04591.0261-.10029.033-.15125.0192-.05097-.0139-.0944-.0473-.12081-.093-.0264-.0458-.03365-.1001-.02015-.1512.0135-.051.04665-.0947.09221-.1214l1.94-1.12c.04255-.0231.09204-.03.13929-.0194s.08904.038.11763.0771c.02858.0391.04201.0872.0378.1355-.00422.0482-.02579.0933-.06072.1268l-.5008.4556 2.208-1.2744c.04043-.0233.08775-.0317.13376-.0238.046.0079.08779.0316.11813.0671.03034.0354.04732.0804.048.1271.00068.0466-.01499.0921-.04429.1284l-.438.5412 1.71675-.9908c.0431-.0244.0937-.0319.142-.0211.0483.0107.0909.039.1196.0794.0287.0403.0413.0899.0356.139-.0058.0492-.0295.0945-.0668.1271l-.0248.0216.626-.36c.0385-.0221.0831-.0308.127-.0248s.0846.0264.1156.0581c.0311.0316.0507.0726.0559.1166.0052.0441-.0044.0885-.0272.1265l-.4585.7508 1.6757-.9672c.0402-.0232.0873-.0316.1332-.0238.0458.0077.0875.0312.1179.0664.0303.0352.0475.0798.0486.1263.001.0465-.0142.0918-.043.1283l-.5268.666 1.4572-.84c.0426-.0231.0921-.03.1393-.0194.0473.0106.0891.038.1177.0771s.042.0872.0378.1355c-.0042.0482-.0258.0933-.0607.1268l-.252.2284.7752-.4476c.0418-.0238.0908-.0318.138-.0224s.0895.0355.119.0735c.0295.0381.0443.0855.0417.1335-.0026.0481-.0225.0936-.056.1282l-.5347.5472 1.2319-.7116c.0427-.0255.0932-.0342.1419-.0245s.0921.0372.1216.0772c.0296.0399.0432.0894.0383.1388-.005.0494-.0281.0952-.0649.1285l-.4953.4656 1.1041-.6368c.0421-.0243.0917-.0325.1394-.0229s.0903.0362.1198.0749c.0295.0389.0439.0872.0403.1359-.0037.0487-.025.0944-.0599.1285l-.6276.6092 1.3124-.758c.0431-.0254.0943-.0336.1433-.0231.0489.0106.0922.0391.1211.0799.029.0409.0416.0912.0353.1409-.0064.0497-.0311.0952-.0693.1275l-.402.344.9571-.5528c.042-.0245.0914-.0328.139-.0236.0477.0093.0903.0355.12.0739.0298.0384.0445.0863.0415.1347-.003.0485-.0235.0942-.0576.1286l-.8348.846 2.0479-1.1816c.0427-.0268.0938-.0366.1434-.0274.0495.0093.0937.0369.1237.0773.0301.0404.0438.0907.0384.1408-.0054.05-.0295.0962-.0674.1293l-1.0493.9964 4.5061-2.6c.0449-.0267.0986-.0347.1495-.0223.0508.0124.0948.0442.1224.0887.0277.0444.0368.0979.0254.149-.0113.0511-.0423.0957-.0861.1242l-.2533.1684c.045-.0102.092-.0046.1333.0158.0413.0205.0742.0546.0933.0965.019.042.023.0892.0113.1338-.0118.0445-.0386.0836-.0758.1107l-1.1428.8276.6324-.3648c.0436-.0248.0949-.0322.1438-.0209s.0918.0406.1201.0821c.0283.0414.04.092.0327.1416-.0072.0497-.0329.0948-.0718.1264l-.8092.6472c.0424.0036.0825.0207.1146.0487.032.028.0543.0655.0636.107s.0051.0849-.012.1239-.0462.0715-.083.0928l-1.9884 1.1476c-.0437.0248-.095.0323-.1439.0209-.0489-.0113-.0918-.0406-.1201-.082-.0283-.0415-.04-.092-.0327-.1417.0072-.0496.0329-.0948.0719-.1264l.6207-.4992-1.6564.96c-.0305.0169-.065.0254-.0999.0248z" fill="#e2e2e0"/><g fill="#ccc"><path d="m13.1299 22.9669c-.0415-.0001-.0821-.013-.116-.0371-.0338-.0242-.0593-.0582-.0729-.0975s-.0146-.0819-.0029-.1218.0355-.0751.0682-.1008l1.7936-1.4116-2.5272 1.4592c-.0374.0226-.0813.0324-.1249.0277-.0435-.0047-.0843-.0236-.1161-.0537s-.0528-.0698-.0599-.113c-.007-.0433.0003-.0876.0209-.1262l.2044-.3948-.5148.2968c-.0382.022-.0826.0309-.1263.0251-.0438-.0058-.0844-.0259-.1155-.0572s-.051-.0719-.0566-.1157.0034-.0881.0256-.1262l.0824-.1404-.148.0852c-.0317.0183-.068.0276-.1046.0267-.0367-.0008-.0725-.0117-.1034-.0315-.0309-.0199-.0558-.0478-.0719-.0808-.016-.0331-.0227-.0699-.0193-.1064l.054-.56-.1328.0768c-.0324.0187-.0694.0279-.1068.0267-.0374-.0013-.0737-.0131-.1048-.0339-.031-.0209-.0555-.0501-.0708-.0843-.0153-.0341-.0207-.0719-.0156-.1089l.0564-.4112c-.0411-.0059-.0794-.0244-.1095-.0531-.0301-.0286-.0505-.0658-.0585-.1066-.0079-.0408-.003-.083.0141-.1208.0172-.0379.0456-.0694.0815-.0903l.2192-.1268c.0324-.0187.0694-.0279.1067-.0266s.0736.013.1046.0338.0556.0499.0709.084.0208.0717.0158.1088l-.0492.36.1152-.0664c.0318-.0184.0681-.0277.1048-.0268.0367.0008.0724.0118.1033.0316s.0558.0478.0719.0808c.016.033.0227.0698.0192.1064l-.054.56.466-.2688c.0382-.0221.0827-.0309.1264-.0252.0437.0058.0843.0259.1154.0572.0312.0313.0511.0719.0567.1157s-.0034.0882-.0257.1263l-.0824.1408.4516-.2608c.0375-.0216.0809-.0304.1238-.0253.0429.0052.083.0242.1142.0541.0313.0297.0522.0689.0594.1115s.0004.0864-.0194.1249l-.2044.3948 4.35-2.5112c.0438-.0251.0954-.0327.1445-.0214.0491.0114.0921.0409.1204.0826s.0399.0925.0323.1424c-.0076.0498-.0337.095-.0732.1264l-1.792 1.4104 1.2224-.7056c.0435-.0252.0948-.0331.1439-.0222.049.011.0921.04.1207.0813.0286.0412.0407.0918.0338.1415-.007.0498-.0324.0951-.0712.127l-.84.6936c.0261.0063.0507.0179.0722.034.0214.0162.0393.0366.0526.06.0266.0458.0338.1004.0202.1516-.0137.0513-.0471.095-.093.1216l-1.6632.96c-.0434.0246-.0944.0321-.1431.021-.0486-.0111-.0914-.0399-.1198-.0809-.0285-.041-.0406-.0912-.034-.1406.0066-.0495.0315-.0947.0697-.1267l.5808-.48-1.5668.9044c-.0301.0174-.0643.0265-.0992.0264z"/><path d="m14.5091 20.9772c-.0415-.0001-.0819-.0132-.1156-.0374-.0338-.0242-.0592-.0583-.0727-.0976-.0135-.0392-.0144-.0817-.0027-.1215.0118-.0398.0356-.075.0682-.1007l.6132-.48c-.0382-.0026-.0748-.0161-.1056-.0389-.0307-.0228-.0543-.054-.0678-.0898-.0136-.0358-.0166-.0747-.0087-.1122.0079-.0374.0264-.0718.0533-.0991l1.0092-1.024-.6556.3788c-.0413.0243-.09.033-.1372.0244s-.0897-.0339-.1198-.0712c-.0302-.0373-.0458-.0843-.0443-.1322.0016-.0479.0204-.0937.0529-.129l.8064-.886-.7772.4484c-.042.0234-.091.0308-.138.021-.0471-.0099-.089-.0363-.1182-.0745-.0291-.0383-.0435-.0857-.0405-.1337.0029-.0479.0231-.0932.0567-.1276l.5112-.5068-.6.3448c-.0428.0248-.0934.0328-.1418.0224-.0484-.0103-.0912-.0382-.1202-.0784-.029-.0401-.0421-.0895-.0368-.1387s.0287-.0947.0656-.1277l.2132-.1896-.3432.1976c-.0408.0236-.0887.032-.1352.0237-.0464-.0083-.0884-.0327-.1186-.069s-.0465-.0821-.0462-.1293c.0004-.0472.0174-.0927.048-.1286l.7152-.834-1.3888.802c-.0434.0246-.0944.0322-.1431.0211-.0486-.0111-.0914-.04-.1198-.081-.0285-.041-.0406-.0911-.034-.1406.0066-.0494.0315-.0946.0697-.1267l.1536-.1268-.7436.4296c-.0435.026-.0954.0344-.1449.0236-.0496-.0108-.0932-.04-.122-.0817-.0289-.0418-.0407-.0929-.0333-.1431.0075-.0502.0337-.0956.0734-.1272l.4184-.3408-1.4268.8236c-.0428.0244-.0932.0321-.1414.0216-.0481-.0104-.0908-.0383-.1196-.0783-.0289-.04-.042-.0892-.0368-.1383.0053-.049.0284-.0944.065-.1274l1.168-1.04-3.03037 1.7504c-.04346.0252-.09481.0331-.14382.0221-.04902-.0109-.09213-.0399-.12075-.0812-.02863-.0412-.04068-.0918-.03375-.1415.00692-.0498.03232-.0951.07112-.127l1.52997-1.2536-3.13077 1.8072c-.04438.0221-.09537.0268-.14308.0134s-.08874-.044-.11514-.086c-.0264-.0419-.03628-.0921-.02774-.141.00854-.0488.03489-.0927.07396-.1232l.0244-.0164-.664.3828c-.04436.0249-.09653.0319-.14589.0197s-.09221-.0428-.11983-.0855-.03793-.0943-.02885-.1444c.00909-.05.0369-.0947.07777-.125l.48-.346-1.1156.644c-.0434.0246-.09444.0322-.14309.0211s-.0914-.04-.11986-.081-.04057-.0911-.03396-.1406c.00662-.0494.03148-.0946.06971-.1267l.5708-.47-1.1864.6848c-.03917.0226-.08484.0312-.12955.0245s-.08583-.0284-.11664-.0615-.04951-.0756-.05303-.1207c-.00353-.0451.00833-.09.03362-.1275l.4496-.6652-1.2124.698c-.03312.0191-.07101.0283-.10919.0265-.03817-.0018-.07504-.0145-.10622-.0366s-.05539-.0527-.06974-.0881-.01825-.0742-.01125-.1118l.1076-.5764-.7436.4296c-.02647.0154-.05611.0245-.08664.0266-.03053.002-.06114-.0029-.08946-.0145-.02833-.0116-.05361-.0295-.07391-.0524s-.03508-.0502-.04319-.0797l-.1348-.4928-.332.1916c-.02493.0144-.05268.0232-.08133.0258-.02865.0027-.05754-.0009-.08469-.0104s-.05192-.0248-.07263-.0448c-.0207-.02-.03685-.0442-.04735-.071l-.1076-.2764-.0376.022c-.04599.0265-.10063.0337-.1519.0199-.05127-.0137-.09498-.0473-.1215-.0933s-.03368-.1006-.01992-.1519c.01377-.0512.04733-.095.09332-.1215l.24-.1384c.02511-.0143.05297-.023.08172-.0257.02876-.0027.05776.0007.08508.0101.02722.0096.05204.025.07275.0451s.03683.0444.04725.0713l.1068.276.3548-.2044c.02646-.0153.05607-.0243.08655-.0263.03048-.0021.06103.0029.0893.0145s.05351.0295.07379.0523c.02027.0229.03504.0501.04316.0795l.1348.4932.896-.5176c.03309-.019.07094-.0282.10907-.0264s.07495.0145.10612.0365c.03116.022.05537.0525.06976.0879s.01837.0741.01145.1116l-.108.5768 1.5844-.9148c.03918-.0225.08485-.0312.12956-.0245.04471.0068.08582.0284.11664.0615.03081.0331.0495.0757.05303.1207.00352.0451-.00833.0901-.03363.1275l-.4496.6652 2.53-1.4604c.04341-.0246.09444-.0321.14309-.021.04866.0111.09141.0399.11987.0809s.04057.0911.03395.1406c-.00661.0495-.03148.0947-.06971.1267l-.5712.47 2.41637-1.3948c.0444-.0254.0969-.0329.1466-.0209.0498.012.093.0427.1208.0856.0279.043.0382.095.0288.1453-.0093.0503-.0376.0951-.079.1252l-.47997.3456 1.73397-1c.0448-.0256.0977-.0329.1477-.0204s.0933.0438.1207.0874c.0275.0436.0371.0961.0269.1466-.0103.0505-.0397.0951-.0821.1244l-.0228.0152.7856-.4532c.0435-.0247.0946-.0323.1434-.0212.0487.0111.0915.0401.12.0812s.0405.0914.0337.1409c-.0068.0496-.0318.0948-.0703.1267l-1.5304 1.2528 2.6072-1.5048c.0429-.0244.0932-.0321.1414-.0216s.0908.0384.1197.0784c.0289.0399.0419.0892.0367.1382s-.0283.0944-.065.1274l-1.1684 1.04 1.8756-1.0828c.0435-.0253.095-.0332.1441-.0223.0492.011.0924.0401.121.0815s.0406.092.0335.1419c-.0071.0498-.0327.0951-.0718.1269l-.418.3408.6948-.4c.0434-.0246.0945-.0321.1431-.021.0487.0111.0914.0399.1199.0809s.0406.0911.0339.1406c-.0066.0495-.0314.0947-.0697.1267l-.154.1272.304-.1756c.0409-.0236.0888-.032.1352-.0237.0465.0083.0885.0328.1187.0691.0301.0363.0465.0821.0461.1292-.0003.0472-.0173.0928-.048.1286l-.7148.8336 1.0108-.5832c.0426-.0225.0918-.029.1387-.0181.0469.0108.0883.0381.1166.077.0284.0389.0418.0868.0377.1347-.0041.048-.0253.0928-.0598.1264l-.2128.1904.2536-.1464c.042-.0233.0911-.0308.1381-.0209.0471.0098.089.0363.1181.0745.0292.0382.0436.0856.0406.1336s-.0231.0933-.0568.1276l-.5112.5076.554-.32c.0413-.0237.0898-.032.1366-.0232.0468.0087.089.0339.1189.071s.0456.0837.0442.1313-.0197.0932-.0517.1285l-.8064.8856.82-.4732c.0419-.0241.0912-.0323.1387-.0229.0474.0093.0899.0356.1195.0739s.0443.086.0414.1343c-.0029.0482-.0232.0939-.0572.1283l-1.0092 1.0248.8924-.5132c.0438-.0247.0953-.032.1442-.0205.049.0115.0918.041.1199.0827.0282.0417.0396.0924.032.1421-.0075.0497-.0336.0947-.0729.1261l-.4192.328.1816-.1048c.0228-.0144.0483-.0242.0749-.0285.0266-.0044.0538-.0034.08.0031.0262.0064.0508.018.0724.0342s.0397.0366.0532.0599c.0135.0234.0221.0492.0254.076.0032.0268.001.0539-.0065.0798s-.0202.0501-.0373.0709c-.017.0209-.0382.0381-.0621.0506l-2.6568 1.5336c-.0302.0177-.0646.0269-.0996.0268z"/><path d="m9.57199 3.51398c-.03916.00001-.07745-.01148-.11014-.03303-.03268-.02155-.05832-.05222-.07374-.08821s-.01994-.07571-.01299-.11425c.00695-.03853.02505-.07417.05207-.10251l.93281-.972-.1044.06c-.0228.01447-.0482.02419-.0748.02856-.0267.00438-.0539.00333-.0801-.00309-.0262-.00641-.0508-.01806-.0724-.03425-.0216-.01618-.03966-.03656-.05316-.05991-.0135-.02336-.02214-.0492-.02539-.07598-.00325-.02677-.00105-.05393.00646-.07984.00752-.0259.02019-.05002.03727-.0709.01712-.02088.03822-.03809.06212-.05059l1.318-.76c.0416-.02379.0905-.03182.1376-.02262.047.00921.0892.03503.1189.07276.0296.03773.0447.08485.0425.13278-.0023.04792-.0216.09345-.0546.12828l-.9324.9716 2.2644-1.308c.0228-.01447.0482-.02419.0748-.02857.0266-.00437.0539-.00332.0801.0031.0262.00641.0508.01806.0724.03425.0216.01618.0396.03656.0531.05991.0135.02336.0222.0492.0254.07598.0033.02677.0011.05393-.0064.07984-.0076.0259-.0202.05002-.0373.0709s-.0382.03809-.0621.05059l-3.47801 2.0084c-.03032.01775-.06487.02701-.1.0268z"/><path d="m13.6095 6.13659c-.0414-.00001-.0817-.01284-.1155-.03673-.0337-.02389-.0593-.05766-.073-.09666-.0138-.039-.0151-.08131-.0039-.1211.0113-.0398.0346-.07512.0668-.10111l.4076-.3304c-.0308.00071-.0613-.00584-.0891-.01911-.0278-.01328-.0521-.0329-.0709-.05729-.0298-.03796-.045-.08544-.0425-.13367.0024-.04823.0222-.09395.0557-.12873l.7572-.788-.4932.2844c-.0407.0234-.0884.0317-.1347.02346-.0462-.00824-.0881-.0325-.1183-.06852-.0301-.03603-.0466-.08152-.0466-.1285s.0166-.09245.0468-.12844l.6212-.738-.6.346c-.0423.02548-.0925.03439-.141.02504-.0485-.00936-.0918-.03632-.1216-.07571-.0298-.03938-.044-.0884-.0398-.13761.0041-.04921.0264-.09513.0624-.12892l.132-.1272-.1312.0756c-.0413.02377-.0897.03201-.1366.02324-.0468-.00876-.0889-.03396-.1189-.07105-.0299-.03709-.0455-.08364-.0442-.13127.0014-.04763.0197-.0932.0517-.12852l.2888-.316-.4188.2432c-.04.02291-.0868.03127-.1323.02365-.0455-.00761-.087-.03072-.1174-.06542s-.0479-.07885-.0495-.12496c-.0016-.04612.0128-.09136.0408-.12807l.3736-.4868-.748.4304c-.039.0224-.0844.03101-.1289.02442-.0445-.00658-.0855-.02796-.1163-.0607-.0308-.03273-.0497-.07491-.0537-.11971-.0039-.0448.0074-.08962.0321-.12721l.3748-.568-1.3344.7708c-.0228.01447-.0482.02419-.0748.02857-.0266.00437-.0539.00332-.0801-.00309-.0262-.00642-.0508-.01807-.0724-.03425-.0216-.01619-.0396-.03657-.0531-.05992-.0135-.02336-.0222-.0492-.0254-.07597-.0033-.02678-.0011-.05394.0064-.07985.0075-.0259.0202-.05002.0373-.0709s.0382-.03809.0621-.05059l2.0684-1.1948c.039-.0224.0844-.031.1289-.02442s.0855.02797.1163.0607c.0308.03274.0497.07491.0537.11971.0039.0448-.0074.08962-.0321.12721l-.3752.5684.8824-.5092c.0401-.02313.0869-.03166.1325-.02414.0457.00752.0873.03063.1178.06539s.0481.07903.0496.12526c.0016.04623-.013.09157-.0411.12829l-.3732.4864.6712-.3876c.0413-.02376.0898-.03198.1367-.02316.0468.00881.089.03408.1189.07124.0298.03716.0455.08377.044.13143s-.0199.09323-.052.12849l-.2888.3164.43-.248c.0423-.02547.0926-.03439.141-.02503.0485.00935.0919.03632.1217.0757s.0439.0884.0397.13761c-.0041.04921-.0264.09513-.0624.12892l-.1324.1276.1692-.0976c.0408-.02364.0885-.03214.1349-.024s.0885.0324.1187.0685c.0303.0361.0469.08172.0468.12883s-.0168.09267-.0472.12867l-.6232.738.7244-.4188c.0417-.0238.0906-.03181.1377-.02256s.0893.03515.1189.07295.0446.085.0423.13295c-.0023.04796-.0218.09349-.0549.12826l-.7572.7884.7472-.4312c.0436-.0251.0951-.03285.1441-.0217.0491.01115.0921.04039.1206.08187.0285.04149.0403.09218.033.14197-.0072.04979-.033.09501-.0721.12666l-.28.2264.1456-.084c.0228-.01447.0482-.02418.0748-.02856.0267-.00438.0539-.00333.0801.00309s.0508.01807.0724.03425.0397.03656.0532.05992c.0135.02335.0221.04919.0253.07597.0033.02678.0011.05393-.0064.07984s-.0202.05002-.0373.0709-.0382.03809-.0621.05059l-2.338 1.35c-.0296.01741-.0633.02679-.0976.0272z"/><path d="m11.1943 9.37058c-.0419 0-.0828-.0132-.1169-.03775-.0341-.02454-.0595-.05918-.0728-.099s-.0137-.08281-.0012-.12288c.0126-.04007.0374-.07518.0709-.10036l1.8324-1.3472-2.68 1.54799c-.0425.02406-.0925.03167-.1403.02141s-.09021-.03769-.11917-.0771c-.02897-.03941-.04249-.08806-.03801-.13677.00448-.0487.02665-.09407.06232-.12754l1.11996-1.03039-1.93556 1.11519c-.04256.02342-.09219.03055-.13963.02005-.04743-.0105-.08942-.0379-.11812-.07709-.02871-.03919-.04217-.08749-.03787-.13588.00429-.04839.02606-.09356.06122-.12708l.71-.6476-1.2868.7424c-.04226.02507-.09227.03369-.14049.02424-.04822-.00946-.09127-.03633-.12094-.07549-.02967-.03917-.04388-.08789-.03993-.13686.00395-.04898.02579-.09478.06136-.12868l.6924-.6692-1.2844.7416c-.04098.02355-.08897.03184-.13548.02338-.0465-.00846-.08851-.03311-.11856-.06959-.03006-.03648-.04622-.08243-.04563-.12969.00059-.04727.01791-.09279.04887-.1285l.7532-.8652-1.5244.87999c-.04174.02382-.09066.03181-.1378.02251-.04715-.0093-.08938-.03526-.11895-.07314s-.04452-.08514-.0421-.13313c.00241-.048.02203-.09352.05525-.12823l.6092-.62961-1.2596.726c-.0426.02475-.09284.03289-.14107.02288-.04824-.01001-.09109-.03747-.12033-.07712s-.04282-.08869-.03813-.13773c.00469-.04905.02731-.09463.06353-.12802l.3868-.35761-.9276.53561c-.04201.02334-.09103.03078-.13808.02095-.04705-.00984-.08898-.03629-.11812-.07451-.02914-.03823-.04355-.08567-.04057-.13364.00298-.04798.02313-.09328.05677-.12761l.4572-.45759-1.1464.66079c-.04279.02277-.09239.02922-.13958.01815-.04719-.01106-.08876-.03889-.11697-.0783s-.04115-.08772-.03642-.13596c.00474-.04824.02683-.09311.06217-.12629l.1676-.1488-.7348.42281c-.04086.02359-.08875.03198-.1352.02368s-.08847-.03275-.11863-.06904-.04652-.08207-.04618-.12926c.00033-.04718.01734-.09273.04801-.12859l.3952-.4624-1.4104.814c-.03621.02081-.07802.02976-.11957.0256s-.08076-.02122-.11212-.04879-.05331-.06427-.06276-.10494c-.00946-.04068-.00594-.08329.01005-.12187l.152-.36359-1.193198.68839c-.022764.01448-.04822.02419-.074836.02857s-.053842.00333-.080042-.00309c-.026199-.00642-.050829-.01807-.072409-.03425-.02158-.01619-.039663-.03657-.053162-.05992s-.022135-.04919-.025387-.07597c-.003253-.02678-.001055-.05394.00646-.07984.007516-.02591.020194-.05003.037272-.0709.017078-.02088.038203-.03809.062104-.0506l1.705198-.9848c.03621-.0208.07802-.02975.11957-.02559s.08076.02122.11212.04879c.03137.02757.05331.06427.06277.10494.00945.04068.00593.08329-.01006.12186l-.152.364 1.9056-1.1c.04086-.02359.08875-.03198.1352-.02368s.08847.03275.11863.06904.04652.08207.04618.12926c-.00033.04718-.01734.09273-.04801.12858l-.3952.462 1.4276-.8244c.04291-.02482.09352-.03283.142-.02246.04847.01037.09137.03838.12037.07859s.04203.08976.03657.13903c-.00546.04928-.02903.09477-.06614.12764l-.1688.14961.7552-.43561c.04196-.02305.0908-.03029.13765-.02039.04685.00989.08859.03627.11764.07432.02905.03806.04348.08528.04068.13308-.00281.04779-.02266.093-.05597.12739l-.4568.458 1.16-.66999c.0426-.02475.09284-.03289.14108-.02288s.09108.03747.12032.07712.04282.08869.03813.13773c-.00468.04905-.02731.09463-.06353.12802l-.386.3568.9516-.5492c.04179-.02441.09102-.03284.13856-.02373.04754.00912.09016.03517.11995.07331.02979.03815.04474.08581.04208.13414-.00267.04833-.02278.09405-.05659.12869l-.61.62999 1.3248-.76439c.04093-.02333.08878-.03145.13512-.02294.04634.0085.08818.03309.11816.06943s.04617.0821.04572.12921c-.00046.0471-.01752.09254-.0482.1283l-.75.86599 1.65396-.95479c.0423-.02507.0923-.03369.1405-.02424s.0913.03633.121.07549c.0296.03917.0439.08788.0399.13686-.0039.04898-.0258.09478-.0614.12869l-.69316.66839 1.47996-.8532c.0426-.02372.0924-.03109.14-.02071s.0898.0378.1187.0771c.0288.03929.0423.08777.0379.13631s-.0263.09381-.0618.1273l-.71.64801 1.898-1.096c.0426-.02439.0927-.03227.1407-.02213.0481.01014.0907.03758.1198.07711.0291.03952.0426.08837.038.13724-.0045.04887-.0269.09434-.0629.12777l-1.12 1.03001 4.256-2.45721c.0443-.02558.0967-.03323.1465-.02136s.0931.04235.121.08518c.028.04283.0385.09474.0294.14507-.0092.05033-.0372.09525-.0785.12551l-1.8332 1.3472 1.3892-.8c.043-.02482.0936-.03283.142-.02246.0485.01037.0914.03838.1204.07859s.042.08976.0366.13903c-.0055.04928-.0291.09477-.0662.12765l-1.3408 1.19119.24-.1376c.046-.0261.1003-.03298.1513-.01915.051.01384.0944.04728.1208.09302.0264.04573.0336.10006.0201.15112-.0134.05106-.0466.09471-.0922.12142l-1.9396 1.11999c-.0428.02439-.0932.03208-.1413.02161-.0482-.01048-.0908-.03838-.1197-.07835-.0289-.03998-.042-.08921-.0367-.13824.0052-.04903.0283-.09441.0649-.12742l1.3396-1.19319-2.8256 1.63119c-.0303.01782-.0648.02722-.1.0272z"/></g><path d="m16.8045 11.6315c-3.7844-.582-9.95605-1.606-12.24005 2.0932.1844.24.566.084.7808-.0084 4.97685-2.7432 10.01485 1.3224 15.07645.6892 6.9516-1.6468 1.9228-11.90123-3.2476-6.78483-.4332.5224-.6764 1.956.4224 1.2268.1183-.2307.2853-.43297.4894-.59284s.4405-.27352.6929-.33312c.2523-.05959.5146-.06371.7687-.01206s.4939.15784.703.31122c.4799.32613.8111.82913.921 1.39889.1099.56974-.0104 1.15984-.3346 1.64114-.8992 1.2248-2.7848.5948-4.0324.3708zm4.7428-.6696c1.308-2.54803-2.3944-4.58483-4.1316-2.54323 2.2428-5.2936 8.6344 1.4944 4.5948 4.90643-4.3856 3.0644-10.7172-3.2524-16.96605.2 4.1248-5.29923 13.97325 1.1536 16.50285-2.5632z" fill="#262626"/><path d="m13.3424 21.2122c-1.5056.4964-1.8172-1.3772-2.6924-1.0456-.80604 4.5532 7.9876 3.3812 6.7396-2.2584-2.2164-6.764-9.76404-.8864-14.46565-1.72-.2544-.032-1.7132-.5724-1.6208.1916 3.4864 3.6272 8.73365.216 12.67165 1.2368 1.3924.8792.9692 3.236-.6324 3.5956zm2.0248-2.5412c-1.6164-4.3764-9.38764 1.1848-13.11445-2.1352 1.6872.35 3.52.0928 5.1684-.32 14.90405-5.566 8.94885 11.584 3.71645 4.806 1.5864 1.57 4.7624.0876 4.2296-2.3508z" fill="#262626"/><path d="m11.9528 6.75629c-3.87283-.2156-8.60323-2.0924-11.840029.9556-.0288005.2492.252.2752.430799.2524 3.9316-1.184 7.6104 1.5128 11.51363 1.362 6.2932-.24 4.9528-10.151999-1.19-7.9268-.99603.058-2.65363 3.21-.7936 2.2204 2.2408-3.185199 5.6092 2.5168 1.8792 3.1364zm1.7868-.6488c1.8484-2.4652-1.9572-5.122799-3.86763-2.9148.27523-1.6488 2.10443-2.197999 3.47603-1.6 3.5108 1.3404 2.8712 7.0328-.9124 7.4228-3.84003.218-7.42443-2.396-11.32283-1.4648-.684399.2592-.235599-.1824.062-.2972 3.8772-2.8944 9.25963 1.5636 12.56483-1.146z" fill="#262626"/></g></svg>