<svg fill="none" height="44" viewBox="0 0 44 44" width="44" xmlns="http://www.w3.org/2000/svg"><path d="m21.2946 39.1106c-.0775-.0001-.153-.0248-.2156-.0705-.0626-.0458-.1091-.1102-.1329-.184-.0237-.0738-.0234-.1533.0009-.2269.0243-.0737.0713-.1377.1342-.183l5.5477-3.9739-7.4023 4.2731c-.0821.0477-.1796.0616-.2718.0389-.0922-.0228-.172-.0804-.2226-.1608s-.068-.1773-.0485-.2703c.0194-.093.0742-.1748.1528-.2282l6.3397-4.3325-7.6113 4.3912c-.0826.0448-.1792.0562-.27.0319-.0908-.0244-.1687-.0827-.2177-.1629-.0491-.0802-.0654-.1761-.0458-.268.0197-.0919.0739-.1727.1514-.2258l3.9857-2.5806-4.6581 2.6891c-.0828.0449-.1797.0562-.2706.0316s-.1688-.0833-.2176-.1638c-.0489-.0805-.0649-.1767-.0447-.2687s.075-.1727.153-.2253l2.2557-1.4308-2.6913 1.5554c-.0833.048-.182.0614-.2751.0373-.093-.024-.1728-.0837-.2223-.1661-.0495-.0823-.0647-.1808-.0423-.2743.0224-.0934.0806-.1744.162-.2253l1.257-.7891-1.5752.9042c-.0833.048-.1821.0614-.2751.0373s-.1729-.0837-.2224-.1661-.0647-.1809-.0423-.2743c.0224-.0935.0806-.1744.1621-.2254l1.0868-.6805-1.3398.7737c-.083.0449-.1801.0561-.2712.0313-.091-.0249-.169-.0839-.2176-.1647-.0487-.0809-.0643-.1774-.0436-.2695s.0761-.1726.1547-.2249l1.0032-.627-1.2019.6938c-.0829.0463-.1805.0586-.2723.0345-.0918-.0242-.1706-.0831-.2199-.1642s-.0653-.1782-.0444-.2708c.0208-.0927.0767-.1736.156-.2258l5.3225-3.3924-5.6276 3.2516c-.0826.0469-.1802.06-.2722.0364-.0921-.0236-.1714-.082-.2212-.1629s-.0663-.178-.0459-.2709c.0203-.0928.0759-.1741.1551-.2267l8.833-5.7852-9.2276 5.3276c-.0829.0456-.1802.0574-.2717.0329-.0914-.0245-.1697-.0835-.2187-.1644-.049-.081-.0647-.1778-.044-.2701.0207-.0924.0764-.1731.1553-.2254l3.9747-2.5028-4.0642 2.3466c-.0828.0472-.1807.0602-.273.0364-.0922-.0238-.1716-.0826-.2213-.1639-.0496-.0813-.0657-.1788-.0448-.2718.021-.0929.0773-.1741.1571-.2262l8.1561-5.2851-8.316 4.7989c-.0831.0506-.183.066-.2775.043-.0946-.023-.1761-.0827-.2267-.1658-.0505-.0832-.066-.183-.043-.2776.0231-.0945.0827-.176.1659-.2266l6.3521-4.0553-6.3558 3.6666c-.083.0444-.18.0551-.2707.0299-.0907-.0251-.1683-.0842-.2167-.165-.0483-.0808-.0637-.177-.043-.2689.0206-.0918.0759-.1722.1542-.2244l.2809-.1753-.1247.0733c-.0826.0479-.1805.0617-.2731.0385-.0925-.0232-.1724-.0816-.2226-.1627-.0502-.0812-.0668-.1787-.0463-.2719s.0766-.1747.1563-.2272l9.3514-6.1681-9.2708 5.3534c-.0814.0371-.1736.0431-.2592.017s-.15863-.0827-.20543-.1589c-.04679-.0763-.06408-.1671-.04859-.2552.01548-.0881.06266-.1676.13262-.2233l6.6734-4.3054-6.4218 3.7099c-.0831.0474-.1813.0606-.2739.0366-.09258-.024-.17212-.0832-.22167-.165s-.06519-.1797-.04358-.2728c.02161-.0932.07875-.1742.15925-.2258l3.4467-2.1773-3.0874 1.782c-.0827.0455-.1798.0574-.27102.0331-.09123-.0243-.16958-.0829-.21872-.1635-.04915-.0806-.0653-.1771-.0451-.2693s.0752-.1731.15354-.2258l4.642-2.9722-4.1859 2.42c-.0826.0448-.1792.0562-.27.0319-.09073-.0244-.16867-.0827-.2177-.1629-.04902-.0802-.0654-.1761-.04573-.268.01966-.0919.07385-.1727.1514-.2258l5.26313-3.4027-4.6933 2.709c-.0821.0443-.1781.0558-.2683.0319s-.1679-.0813-.2173-.1605c-.04937-.0792-.06668-.1743-.0484-.2658.0183-.0915.0708-.1726.1468-.2268l7.3802-4.9536-6.542 3.7766c-.0831.0475-.1813.0606-.2739.0366s-.1721-.0831-.2217-.1649c-.0495-.0818-.0652-.1797-.0435-.2729.0216-.0931.0787-.1742.1592-.2258l1.2261-.7802-.4319.2493c-.083.0508-.1827.0665-.2772.0437-.0946-.0227-.1762-.0821-.227-.1651-.0507-.0829-.0665-.1826-.0437-.2772s.0821-.1762.1651-.2269l2.5344-1.6412-1.5019.8668c-.0826.0469-.1802.06-.2722.0364-.0921-.0236-.1714-.082-.2212-.163-.0498-.0809-.0663-.178-.0459-.2708.0203-.0928.0759-.1741.1551-.2267l2.7492-1.8069-1.4234.822c-.0829.0508-.1826.0665-.2772.0438-.0945-.0228-.1762-.0822-.2269-.1651-.0508-.083-.0665-.1827-.0438-.2773.0228-.0945.0822-.1762.1651-.2269l1.1998-.7788c-.0773-.0035-.1515-.0313-.2119-.0795-.0605-.0482-.1042-.1143-.1249-.1888-.0206-.0745-.0172-.1537.0098-.2261.027-.0725.0763-.1346.1407-.1773l1.5715-1.0472c-.0642.0027-.128-.0112-.1853-.0404s-.1061-.0726-.1417-.1261c-.0513-.0787-.0705-.174-.0536-.2664s.0687-.1747.1445-.2301l3.1035-2.2689-.6864.396c-.0806.0473-.1762.062-.2673.0412s-.1708-.0756-.2228-.1532-.0725-.1722-.0572-.2643c.0153-.0922.0652-.175.1395-.2316l1.8334-1.4154c-.0812.0212-.1671.0139-.2435-.0207-.0764-.0345-.1387-.0942-.1764-.1691-.0377-.07485-.0487-.16039-.031-.24235s.0629-.15538.1282-.20803l1.0707-.86093c-.0717-.01989-.1354-.06137-.1826-.1188-.0557-.0661-.0862-.14973-.0862-.23614 0-.0864.0305-.17003.0862-.23613l1.4476-1.69987c-.0692.00652-.1389-.00676-.2008-.0383s-.1136-.08003-.1491-.13983c-.0354-.0598-.0531-.12843-.051-.19791.0021-.06947.0238-.13692.0628-.19449l.5713-.84553c-.036-.02846-.0661-.06356-.0888-.1034-.0242-.04169-.0399-.08774-.0463-.13553-.0064-.04778-.0034-.09636.009-.14295s.0339-.09028.0632-.12857c.0293-.03828.0659-.07042.1076-.09455l.6681-.385c.0717-.0411.1553-.05673.237-.04437.0818.01237.1569.052.2133.11247s.0907.13823.0974.22065c.0066.08242-.0148.16467-.0608.23338l-.2735.40627.2486-.14667c.0748-.04329.1625-.05873.2477-.04361.0851.01511.1621.05983.2175.12624s.0855.15025.085.23671c-.0005.08645-.0314.16997-.0875.23579l-1.3838 1.62507 1.4498-.83747c.08-.04629.1746-.06063.2648-.04017.0901.02047.1692.07424.2214.15055s.0737.16951.0601.26096-.0613.17438-.1334.2322l-.5134.4092.4481-.25814c.0806-.04727.1762-.062.2672-.04118.0911.02082.1708.07562.2229.15321.052.07759.0725.17212.0572.26428s-.0652.17501-.1396.23163l-1.7563 1.3552 1.8267-1.05454c.0812-.0458.1767-.05898.2673-.03686.0905.02211.1692.07788.2201.15594.0509.07807.0702.17259.0539.26435-.0163.09175-.0669.17386-.1416.22964l-3.1057 2.27338 3.2876-1.89791c.0824-.04688.1797-.06001.2716-.03664s.1712.08142.2212.16197c.05.08056.0668.17735.047.27007-.0198.09271-.0748.17414-.1534.2272l-1.0523.70181 1.1103-.64168c.0829-.05086.1827-.06668.2773-.04399s.1763.08204.2272.16499.0667.18271.044.27733c-.0227.09465-.0821.17635-.165.22725l-.275.1782.3205-.1848c.0827-.0496.1816-.0645.2752-.0417.0937.0228.1746.0817.2252.1637.0506.0821.0669.1807.0453.2747s-.0794.1756-.1607.2273l-2.7486 1.8062 2.9158-1.6866c.0826-.0462.18-.0587.2716-.0347s.1704.0824.2199.1632c.0494.0807.0658.1775.0455.27s-.0755.1736-.1542.2263l-2.5366 1.6434 2.7001-1.5591c.0831-.0505.1829-.0659.2774-.0428.0945.0232.1759.0828.2264.166.0505.0831.0658.1829.0427.2774s-.0828.1759-.1659.2264l-1.2349.7854 1.3544-.7817c.0825-.0491.1809-.0638.2742-.041.0932.0227.1738.0811.2245.1626.0506.0814.0673.1795.0465.2732s-.0775.1754-.158.2278l-7.3685 4.9544 7.8371-4.5276c.0411-.0252.0867-.042.1343-.0495s.0961-.0055.143.0057c.0468.0113.0909.0317.1298.06.039.0283.072.064.0971.1051s.0419.0867.0494.1343c.0075.0475.0056.0961-.0057.1429-.0112.0469-.0316.091-.0599.1299-.0284.039-.0641.072-.1052.0971l-5.266 3.4078 5.5528-3.2105c.0829-.0487.1817-.0628.275-.0392.0932.0235.1735.0827.2235.1648.0501.0822.0658.1807.0439.2743-.022.0936-.0798.1749-.1611.2263l-4.6347 2.9664 4.8818-2.8182c.0412-.0249.087-.0415.1346-.0487s.0961-.005.1429.0065c.0467.0116.0908.0322.1295.0608.0388.0285.0716.0644.0965.1057.0249.0412.0414.0869.0486.1345s.005.0962-.0065.1429c-.0116.0468-.0322.0908-.0608.1296-.0285.0387-.0644.0715-.1056.0964l-3.4445 2.1751 3.6183-2.0893c.0829-.0486.1817-.0627.275-.0392.0932.0235.1735.0827.2235.1648.0501.0822.0658.1807.0439.2743-.022.0937-.0798.175-.1611.2264l-6.6814 4.3076 6.9667-4.0216c.0824-.0462.1795-.0587.271-.035.0915.0238.1703.0819.2199.1623.0497.0804.0664.1768.0466.2693-.0197.0924-.0744.1736-.1525.2267l-9.3464 6.1666 9.7416-5.6247c.0413-.0247.0871-.0411.1348-.0482.0476-.007.0962-.0046.1429.0071s.0907.0325.1293.0612c.0387.0287.0714.0647.0961.1061.0248.0413.0411.0871.0482.1347.007.0476.0046.0962-.0071.1429s-.0325.0907-.0612.1294c-.0287.0386-.0647.0713-.106.096l-.2897.1797.2933-.1701c.0829-.0464.1805-.0587.2723-.0346.0918.0242.1707.0831.22.1642s.0652.1782.0444.2708c-.0208.0927-.0768.1736-.1561.2258l-6.3433 4.0502 6.4621-3.7312c.0831-.0465.181-.0589.2731-.0346.0921.0244.171.0836.2202.1652s.0647.179.0432.2718c-.0214.0928-.0781.1736-.1581.2254l-8.1554 5.28 8.2867-4.7821c.0828-.0443.1795-.0551.2701-.0302.0906.025.1681.0837.2167.1641.0485.0804.0643.1764.0442.2682-.0202.0917-.0748.1722-.1526.2249l-3.9732 2.5014 3.9138-2.2594c.0827-.0495.1816-.0645.2753-.0417.0936.0229.1745.0817.2251.1637.0507.0821.0669.1808.0453.2747-.0216.094-.0793.1757-.1607.2274l-8.8367 5.7882 8.8272-5.0967c.0831-.0505.1829-.0659.2774-.0428.0945.0232.1759.0828.2264.166.0504.0831.0658.1829.0427.2774s-.0828.1759-.1659.2264l-5.3204 3.3909 5.1407-2.9678c.083-.0449.1801-.0562.2712-.0313.091.0248.169.0838.2176.1647.0487.0809.0643.1774.0436.2695-.0207.092-.0761.1726-.1547.2249l-1.0047.6262.7443-.429c.083-.0449.1801-.0562.2712-.0313.091.0248.169.0838.2177.1647.0486.0809.0642.1774.0435.2695-.0207.092-.0761.1726-.1547.2249l-1.0949.6856.7928-.4576c.083-.0465.181-.0589.273-.0346.0921.0244.1711.0836.2202.1652.0492.0816.0647.179.0433.2718-.0215.0928-.0782.1736-.1581.2254l-1.2467.7824.9027-.5206c.0828-.0449.1797-.0562.2706-.0316s.1688.0833.2176.1638c.0489.0805.0649.1767.0447.2687-.0202.0919-.075.1726-.153.2253l-2.2506 1.4308 1.8583-1.0729c.0826-.0462.18-.0586.2716-.0347.0916.024.1704.0825.2199.1632.0494.0808.0658.1775.0455.27s-.0755.1736-.1542.2263l-3.9879 2.5821 3.4775-2.0079c.0821-.0477.1796-.0616.2718-.0389.0922.0228.172.0804.2226.1608s.068.1773.0485.2703-.0742.1748-.1528.2282l-6.3404 4.3355 5.5477-3.2025c.0814-.046.1774-.0592.2682-.0368s.1696.0787.2203.1573.0694.1736.0524.2656c-.0171.092-.0687.174-.1442.2292l-5.5469 3.9732 4.2533-2.4538c.0814-.0467.1776-.0604.2687-.0383.0912.022.1705.0782.2215.1569.051.0788.0699.1741.0528.2663-.0171.0923-.0689.1745-.1448.2297l-2.6063 1.8883.8375-.4825c.0417-.0266.0884-.0444.1372-.0524s.0987-.0061.1467.0057c.0481.0117.0932.0331.1328.0627.0396.0297.0727.0671.0975.1099.0247.0428.0405.0902.0465.1393s.0019.0989-.0118.1464c-.0138.0474-.0371.0917-.0684.1299-.0313.0383-.07.0699-.1138.0928l-6.9652 4.0201c-.0814.0467-.1776.0605-.2688.0384s-.1704-.0783-.2215-.157c-.051-.0787-.0699-.174-.0528-.2663.0172-.0922.069-.1744.1449-.2296l2.6048-1.8876-4.6002 2.6554c-.0557.0325-.119.0494-.1834.0491z" fill="#de5f5f"/><g fill="#262626"><path d="m9.51254 26.616c.34173 16.3592 23.96166 16.1121 24.51016.0316.1467-9.1088-8.5514-14.9094-11.8264-22.52656-1.5041-.22-1.7021 1.47546-2.1465 2.4838-3.1306 6.90066-10.90393 11.70256-10.53726 20.01116zm8.06006-13.9509c1.7828-2.3639 3.1888-4.98951 4.1683-7.7836 2.5615 8.0087 11.7047 12.9067 11.22 22.0513-1.1734 6.4255-4.5511 9.3024-7.8812 10.5938-9.823 3.8104-22.97383-10.1046-7.5071-24.8615z"/><path d="m19.2348 35.4874c.4488.234 1.2335-.4326.605-.7472-1.2507-.51-2.3819-1.2742-3.3218-2.2442-.94-.97-1.6682-2.1246-2.1386-3.3908-.0572-.1117-.1536-.1984-.2709-.2433-.1172-.045-.2469-.045-.3641-.0001-1.2174 2.0958 3.3953 5.9004 5.4904 6.6256z"/></g></svg>