<svg fill="none" height="44" viewBox="0 0 44 44" width="44" xmlns="http://www.w3.org/2000/svg"><path d="m5.21824 22.365c-.1232 0-.24347-.0624-.3124-.1746-.10414-.1694-.05427-.3908.1122-.4994l9.71516-6.3257-11.59543 6.6946c-.17453.1005-.39527.0425-.49793-.1291-.1034-.1716-.04914-.3938.121-.5001l3.5332-2.1963-3.15774 1.8223c-.17233.1012-.39233.044-.4972-.1269-.1034-.1701-.05133-.3923.11587-.4994l8.13343-5.1986-6.76136 3.9028c-.16794.0983-.38574.0462-.49207-.1188-.1056-.165-.0638-.3828.09607-.4972l4.87593-3.4738c-.0198-.143.04693-.2904.17967-.3666l1.78346-1.0296c.1679-.099.385-.047.4921.1188.1056.165.0638.3828-.0961.4972l-.5588.3982 14.1834-8.18843c.1745-.10046.3931-.04326.4972.12687.1034.17013.0513.39233-.1159.4994l-8.1304 5.19716 8.5836-4.95589c.1731-.1012.3938-.04327.498.12906.1034.1716.0491.3938-.121.50014l-3.5303 2.19489 3.9578-2.28509c.1723-.10047.3916-.04474.4957.1254.1042.17013.0543.39086-.1122.4994l-9.7152 6.32569 10.7478-6.20543c.1738-.10046.393-.04326.4964.12687.1042.1694.0521.3916-.1151.4994l-7.0899 4.54516 7.6861-4.43736c.1723-.10047.3909-.044.4957.1254.1042.16867.0543.3894-.1107.49867l-7.9596 5.21689 8.3893-4.8429c.1709-.1005.3909-.0455.495.1239.1049.1687.0558.3894-.1085.4994l-7.1515 4.7374 7.3458-4.2402c.1709-.099.3894-.0454.4943.1225.1049.1672.0587.3872-.1049.4987l-6.699 4.5481 7.0914-4.0942c.1738-.1005.393-.0433.4972.1269.1034.1701.0513.3923-.1166.5001l-.388.2479.608-.3513c.1679-.099.385-.0462.4913.1181.1063.1642.0645.3828-.0939.4972l-5.9627 4.2797 7.4125-4.2797c.1724-.1005.3916-.0448.4965.1254.1041.1694.0535.3908-.1129.4994l-.531.3446 1.0304-.5947c.1679-.0997.385-.0462.492.1188.1056.165.0638.3835-.096.4972l-4.411 3.1409 4.9683-2.8681c.1679-.0975.3828-.0455.4899.1159.107.1635.0682.3806-.0888.4964l-3.8632 2.8549 4.2695-2.4647c.1665-.099.3821-.0477.4891.1151.1071.1621.0697.3799-.0858.4957l-2.7023 2.0226 3.1577-1.8224c.1643-.0953.374-.0484.4833.1064.1085.1554.0814.3681-.0631.4906l-2.6744 2.2704 3.66-2.1135c.1665-.099.3821-.0469.4892.1144.107.1621.0696.3784-.0844.495l-.7524.5683 1.2694-.7326c.1636-.0968.3755-.0484.484.1071.1086.1555.08.3689-.066.4913l-1.174.9812 1.6507-.9526c.1621-.0938.3725-.0491.4818.1049s.0843.3659-.0587.4899l-.6358.5507.7891-.4554c.1577-.0931.3623-.0521.4745.0953.1114.1467.0975.3535-.0345.4833l-.3733.3674.2244-.1291c.1372-.0792.3066-.0623.4254.0418.118.1042.1569.2714.0968.4166l-.275.6592c.1158.0096.2258.0741.2889.1819.1012.1753.0411.3997-.1349.5016l-.6857.3953c-.1379.0762-.3073.0616-.4253-.0433-.1181-.1041-.157-.2706-.0968-.4158l.2339-.561-1.7666 1.0201c-.1584.0931-.363.0513-.4745-.0954-.1114-.1466-.0975-.3534.0345-.4832l.3733-.3674-1.642.9474c-.1628.0961-.3725.0492-.4818-.1048-.1092-.154-.0843-.366.0587-.4899l.6351-.55-1.9837 1.1455c-.1643.0968-.3755.0484-.484-.1071s-.0799-.3689.066-.4913l1.1733-.9812-2.7382 1.581c-.1672.0976-.3821.047-.4892-.1144-.107-.1613-.0696-.3784.0844-.495l.7524-.5683-2.0424 1.1785c-.1635.096-.3725.0498-.4832-.1064-.1086-.1554-.0814-.3681.063-.4906l2.676-2.2711-4.9698 2.8688c-.168.0968-.3821.0469-.4892-.1151-.107-.1621-.0696-.3799.0858-.4958l2.7024-2.0225-4.5643 2.6349c-.1672.0997-.3828.0462-.4899-.1159-.107-.1635-.0682-.3806.0888-.4965l3.8624-2.8541-6.006 3.4679c-.1686.0976-.3857.0455-.492-.1188-.1056-.165-.0638-.3835.096-.4972l4.4118-3.1416-6.5113 3.7591c-.1723.1005-.3916.0447-.4965-.1254-.1041-.1694-.0535-.3909.113-.4994l.5287-.3439-1.6793.9694c-.168.0983-.3858.0455-.4914-.118-.1063-.165-.0645-.3828.0939-.4972l5.9635-4.2805-8.4818 4.8972c-.1723.1012-.3916.044-.4972-.1269-.1034-.1701-.0513-.3923.1166-.5001l.3821-.2442-1.5099.8712c-.1709.1005-.3887.0455-.4943-.1225-.1049-.1672-.0587-.3872.1049-.4986l6.7004-4.5489-8.9576 5.1715c-.1724.099-.3916.0447-.495-.124-.1049-.1686-.0558-.3894.1085-.4994l7.1529-4.7388-9.2898 5.3629c-.1724.1005-.3909.0447-.49576-.1254-.10414-.1687-.05427-.3894.11073-.4987l7.96183-5.2184-10.12296 5.844c-.17307.1019-.39234.044-.49647-.1269-.10413-.1694-.05207-.3916.11513-.4994l7.0818-4.5401-8.95106 5.1678c-.05794.0338-.121.0492-.18334.0492z" fill="#fab849"/><path d="m13.66 12.4144c-.121 0-.2391-.0601-.3088-.1687-.1063-.165-.063-.3828.0968-.4972l3.377-2.39429-1.8406 1.06189c-.1665.0968-.3784.0476-.4862-.11-.1078-.1577-.0763-.37329.074-.49282l5.4575-4.37727c-.0689-.1672-.0051-.36373.1562-.45613l1.4989-.86533c.165-.09827.3777-.04694.4862.11.1078.1584.0763.37326-.074.4928l-3.3184 2.662 4.491-2.59234c.1701-.099.3864-.04546.492.11954.1064.165.0631.38353-.0968.4972l-3.374 2.39213 3.6916-2.13107c.1752-.10193.3996-.04253.5008.1342.102.17527.0418.39967-.1342.50087l-10.5064 6.06542c-.0572.0337-.121.0491-.1834.0491z" fill="#fab849"/><path d="m20.7363 39.9448c-.1144 0-.2273-.0536-.2985-.1533-.1092-.154-.0843-.3659.0572-.4899l1.3266-1.1564-3.0323 1.7504c-.1591.0939-.3659.0514-.4774-.0982-.1107-.1496-.0924-.3586.0433-.4862l1.5671-1.4762-3.5691 2.0606c-.1599.0939-.366.0521-.4774-.099-.1108-.1488-.0924-.3578.0432-.4854l1.5606-1.4674-3.531 2.0379c-.1599.0953-.3682.0513-.4782-.1005-.1107-.1503-.0909-.36.0462-.4862l1.4931-1.3772-2.1487 1.2401c-.1569.0917-.3593.0521-.473-.0917-.1122-.1437-.1012-.3498.0257-.4803l.9739-1.0061-.715.4121c-.1262.0733-.2824.0645-.399-.0205-.1173-.0851-.173-.231-.143-.3733l.2325-1.0868c-.0777-.0286-.1467-.0836-.1914-.1613-.1019-.1753-.0418-.3997.1342-.5009l.3674-.2119c.1269-.0726.2823-.0646.3989.0205.1174.0851.1731.231.143.3733l-.1958.9137 2.2712-1.3105c.1576-.0924.36-.0528.473.0917.1122.1437.1012.3498-.0257.4803l-.9731 1.0054 2.7368-1.5803c.1606-.0939.3681-.0513.4781.1005.1107.1503.0909.36-.0462.4862l-1.4945 1.3786 3.4078-1.9675c.1598-.0939.3659-.0513.4774.099.1107.1489.0924.3579-.0433.4855l-1.5605 1.4674 3.5596-2.0548c.1598-.0939.3659-.0514.4774.0982.1107.1496.0924.3586-.0433.4862l-1.5664 1.4755 3.5728-2.0621c.1628-.0961.3718-.0499.4818.1041.1093.154.0843.3659-.0572.4899l-1.3259 1.1557 3.036-1.7527c.1577-.0931.3623-.052.4745.0946.1115.1467.0975.3535-.0337.4833l-1.6574 1.639 3.8464-2.2198c.1628-.0953.3718-.0499.481.1041.11.154.0851.3652-.0564.4899l-1.3391 1.1704 2.7551-1.5906c.1606-.0931.3689-.0499.4789.1012.1107.1511.0895.3608-.0484.4869l-1.3075 1.1946.877-.506c.1511-.088.3462-.0564.4606.077.1151.1328.1195.3278.0117.4664l-.5515.7018c.1738-.0894.3887-.0271.4862.1423.102.1753.0418.3997-.1342.5009l-1.6272.9386c-.1504.0895-.3447.0572-.4606-.077-.1151-.1327-.1195-.3278-.0117-.4664l.55-.7003-2.1553 1.2437c-.1591.0946-.3688.0506-.4788-.1012-.1108-.151-.0895-.3608.0484-.4869l1.3075-1.1946-3.0881 1.7827c-.1635.0961-.3718.0499-.481-.1041-.11-.154-.0851-.3652.0564-.4899l1.3391-1.1696-3.0551 1.7629c-.1591.0924-.3622.0521-.4744-.0946-.1115-.1467-.0976-.3535.0337-.4833l1.6566-1.639-3.8397 2.2169c-.0572.0337-.1203.0491-.1834.0491z" fill="#c0cfd1"/><path d="m13.3613 37.0124c-.1247 0-.2464-.0638-.3154-.1789-.1026-.1716-.0476-.3946.1225-.5002l4.3897-2.7045-5.5154 3.1834c-.1723.1012-.3945.0433-.4979-.1283s-.0491-.3938.1195-.5002l7.9156-4.9514-8.9239 5.1516c-.1731.1012-.3931.0448-.4972-.1276-.1034-.1701-.0513-.3916.1166-.4994l10.0137-6.3712-11.08952 6.402c-.1738.1012-.39526.0433-.49866-.1298-.10267-.1716-.04767-.3945.12246-.5001l2.93632-1.8121-3.45038 1.9918c-.17453.1004-.396.0432-.49867-.1298-.10267-.1716-.04767-.3946.12247-.5002l1.98733-1.2254-2.40826 1.3904c-.17234.1005-.39161.044-.49647-.1254-.10413-.1694-.05354-.3908.11293-.4994l9.85305-6.4012-10.69125 6.1724c-.17233.0998-.39087.044-.49573-.1246-.10413-.1687-.055-.3894.11-.4994l9.51798-6.2649-10.25791 5.9217c-.17234.1019-.39234.044-.49647-.1269-.10413-.1694-.05207-.3916.11513-.4994l5.68335-3.6425-6.05662 3.4966c-.17233.0997-.39086.0454-.49499-.124-.10487-.1679-.05647-.3894.10853-.4994l7.37738-4.895-7.81078 4.5093c-.17234.099-.39013.0447-.495-.1239-.10487-.1687-.05647-.3894.10853-.4994l5.89747-3.9153-6.17467 3.564c-.17307.1012-.39233.044-.49647-.1269-.10413-.1694-.0528-.3916.11514-.4994l1.5158-.9731-1.54073.8895c-.17014.0998-.38794.0455-.49354-.1217-.1056-.1665-.06013-.3857.10267-.4979l5.07467-3.4958-5.20374 3.0037c-.17087.1005-.38866.0455-.49426-.1225-.10487-.1672-.05867-.3864.10486-.4979l3.0008-2.0431-2.9678 1.7131c-.1672.099-.3828.0469-.4906-.1166-.10633-.1635-.06673-.3821.09094-.4965l3.62193-2.6495-3.56107 2.0555c-.17086.099-.386465.0455-.492798-.1202-.1056-.165-.0616-.3836.099-.4972l1.003198-.7055-.781.451c-.166465.0968-.378398.0469-.486198-.1107-.1078-.1577-.076267-.3733.0748-.4928l1.914738-1.5276-1.647072.9504c-.155466.0902-.353466.0536-.468599-.0858-.112934-.14-.107801-.3417.012466-.4759l1.508465-1.683-1.106598.6387c-.1408.0792-.3168.0609-.434867-.0498-.117333-.1108-.148866-.286-.076267-.4305l.382067-.7671c-.124666 0-.2618-.0616-.3322-.1833-.101933-.1753-.0418-.3997.1342-.5009l.851405-.4913c.13933-.0829.31606-.0616.43486.0499.11734.1107.14887.286.07627.4304l-.3476.6989 2.04307-1.1792c.154-.0917.35273-.0535.4686.0858.11293.1401.1078.3417-.01247.4759l-1.5092 1.683 3.89033-2.2454c.165-.0976.37767-.0477.4862.1107.1078.1584.07627.3733-.0748.4928l-1.91326 1.5268 3.69013-2.1303c.16866-.099.38646-.0455.4928.1202.1056.165.0616.3836-.099.4972l-1.00614.707 2.29462-1.3244c.1679-.0976.3843-.0462.4906.1166s.0667.382-.0909.4964l-3.62125 2.6496 5.65185-3.2626c.1716-.099.3894-.0455.4942.1224.1049.1672.0587.3865-.1048.498l-3.0023 2.0438 4.6156-2.6642c.1716-.099.3887-.0455.4935.1217.1056.1665.0602.3857-.1026.4979l-5.074 3.4958 7.128-4.1147c.1738-.1005.3931-.0433.4965.1269.1041.1694.0528.3916-.1152.4994l-1.5179.9746 2.772-1.6009c.1708-.1005.3901-.0455.495.1239.1048.168.0564.3894-.1086.4994l-5.893 3.9124 7.8561-4.5357c.1709-.1005.3909-.0455.4951.1239.1048.168.0564.3894-.1086.4994l-7.3802 4.8972 9.5619-5.5198c.1738-.1004.3931-.0432.4965.1269.1041.1694.052.3916-.1152.4994l-5.6782 3.6388 7.3876-4.2643c.1724-.1005.3909-.044.4957.1246.1042.1687.0551.3894-.1099.4994l-9.518 6.2649 11.9321-6.8889c.1723-.1005.3916-.0448.4964.1254.1042.1694.0536.3908-.1129.4994l-9.8545 6.402 12.1718-7.0268c.1731-.102.3946-.044.4987.1298.1027.1716.0477.3945-.1224.5001l-1.9859 1.2247 3.212-1.8539c.1738-.1019.3953-.044.4987.1298.1026.1716.0476.3945-.1225.5001l-2.9385 1.8136 4.2321-2.4428c.1738-.1004.3938-.044.4972.1276.1034.1702.0513.3916-.1166.4994l-10.0174 6.3734 12.1257-7.0004c.1745-.1004.3945-.0432.4979.1284.1035.1716.0492.3938-.1195.5001l-7.9097 4.9478 9.658-5.5763c.1738-.1019.3952-.044.4986.1298.1027.1716.0477.3946-.1224.5002l-4.3941 2.7074 5.7815-3.3374c.1738-.1004.3953-.0432.498.1284.1034.1708.0491.3938-.1195.5001l-8.5654 5.3687 10.002-5.7742c.173-.1012.3945-.044.4986.1298.1027.1716.0477.3945-.1232.5001l-3.2919 2.0247 3.1166-1.7988c.1731-.1005.3931-.0448.4965.1261.1042.1694.0528.3909-.1137.4994l-10.8907 7.0341 10.494-6.0588c.1723-.0997.3916-.0447.4965.1262.1041.1694.0528.3908-.1137.4994l-8.6636 5.6107 8.1532-4.7073c.1723-.1004.3924-.0447.4965.1262.1041.1708.0528.3916-.1144.4994l-5.7259 3.6864 5.0879-2.937c.1738-.1004.3931-.0432.4964.1269.1042.1694.0521.3916-.1151.4994l-3.0697 1.9675 2.3136-1.3354c.1738-.1004.3931-.0432.4965.1269.1041.1694.0528.3916-.1144.4994l-1.2613.8096.3982-.2295c.1716-.1012.3908-.0455.495.1246.1048.168.0557.3887-.1093.4987l-2.1105 1.3955.9181-.5294c.1716-.1005.3894-.0455.495.1239.1049.1679.0565.3887-.1078.4987l-1.276.8506c.1129.0118.22.0763.2809.1819.1019.1753.0418.3997-.1342.5009l-8.7186 5.0328c-.1723.0998-.3909.0455-.495-.1239-.1049-.1679-.0565-.3887.1078-.4987l.3872-.2588-1.5261.8807c-.1731.0997-.3916.0455-.495-.1247-.1048-.1679-.0557-.3886.1093-.4986l2.1069-1.3934-3.4944 2.0167c-.1723.1012-.3923.0433-.4964-.1269-.1042-.1701-.0528-.3916.1144-.4994l1.251-.803-2.4757 1.4293c-.1723.1012-.3931.044-.4965-.1269-.1041-.1694-.052-.3916.1152-.4994l3.0682-1.9668-4.4902 2.5924c-.1723.1004-.3923.0447-.4964-.1262-.1042-.1708-.0528-.3916.1144-.4994l5.7317-3.6908-7.4763 4.3164c-.1724.1004-.3916.0447-.4965-.1262-.1041-.1694-.0528-.3908.1137-.4994l8.6635-5.6107-10.8012 6.2363c-.1723.1004-.3931.0447-.4965-.1262-.1041-.1694-.0528-.3908.1137-.4994l10.8929-7.0356-13.2696 7.6604c-.1746.1005-.396.0433-.4987-.1298-.1027-.1716-.0477-.3945.1232-.5001l3.2905-2.024-4.5966 2.6532c-.173.1012-.3938.044-.4979-.1283-.1034-.1709-.0491-.3938.1195-.5002l8.5676-5.3694-10.3899 5.9979c-.0579.0337-.121.0491-.1833.0491z" fill="#d9e3e5"/><g fill="#262626"><path d="m41.899 20.3144h-.3168c-.3293-1.9668-2.4501-2.3672-3.9014-3.2802-1.5693-.9871-2.1105-2.8916-4.0641-3.3162-.9621-.209-1.6434-.4884-2.3122-1.2598-1.0971-2.70237-3.3528-3.88303-5.6283-5.41423-.9959-1.056-1.661-2.82994-3.3345-2.87394-1.4527-.03813-2.3459.93134-3.1431 2.01227-1.0215 1.72773-2.9524 2.22933-4.4264 3.42687-1.2972 1.20703-1.6228 3.59843-3.5361 4.05163-2.01299.1533-3.07486 1.7644-4.29366 3.138-1.41167 1.251-3.949 1.4468-4.4682 3.5126-3.61387-.4854-2.101734 4.271-1.767334 6.3844 1.384534 5.1737 6.054404 9.1029 11.224394 10.1611-.2112 1.3765.1423 3.0881 1.8407 3.0463 4.4278.019 8.8594-.0125 13.288 0 2.3782.1892 5.7581.1364 5.0079-3.1988 6.4981-1.5371 11.9123-7.2006 11.7297-14.1152.2603-1.5166-.1592-2.6305-1.8986-2.2748zm-34.54223-3.1475c1.4718-1.0164 2.11787-3.1401 4.16023-3.1827 3.0968-.8668 3.2552-4.96097 6.5076-5.7999 3.9152-3.08147 2.9692-5.88793 7.1008-.35053 4.2174 1.6786 3.6909 4.15873 6.6374 6.08223 1.9991.1848 3.1262 1.5716 4.312 3.0375 1.3596 1.2225 3.8412 1.4117 4.3832 3.3609h-36.97249c.3586-1.8964 2.48013-2.2125 3.87126-3.1475zm22.80443 22.1269c-5.3401-.0022-10.6854.0029-16.0226 0-1.2173-.1401-1.1748-1.356-1.1476-2.3232h18.018c.0344.825.1694 2.2161-.8478 2.3232zm12.5738-17.237c.4092 6.6777-4.2856 12.911-10.8299 14.3344-9.2033-1.0149-20.9939 3.2047-27.66059-5.1399-2.277-2.7441-3.556671-7.3971-2.81894-10.5006 13.04163-.0095 26.14623.0066 39.20763 0 1.0142-.0389 2.42-.1863 2.1018 1.3061z"/><path d="m10.6581 17.834c.2251.0096 1.0303-.1342.8096-.4326-.242-.1606-1.4029.2559-.8096.4326z"/><path d="m14.3284 15.6492c.2361.0257 1.0472-.1401.803-.4569-.2559-.1892-1.4161.2552-.803.4569z"/><path d="m18.6617 17.3216c-.2669-.0645-1.0758.1599-.7883.5126.2926.2581 1.4373-.2589.7883-.5126z"/><path d="m21.5821 15.6838c.3073.1642 1.0516-.0367.9284-.465-.2302-.4084-1.3999.044-.9284.465z"/><path d="m26.0863 17.3309c-.3044-.1958-1.2665.1599-.8397.5449.3043.195 1.2665-.1599.8397-.5449z"/><path d="m17.9249 12.0501c.3704.2963 1.2863-.1943.8177-.6277-.3703-.2963-1.2863.1943-.8177.6277z"/><path d="m21.665 9.79201c.2713.09314 1.2672-.31753.6702-.51186-.2713-.09314-1.2672.31753-.6702.51186z"/><path d="m25.2522 12.0296c.3153.1642.8426.0227.9504-.3381.0022-.6703-1.4982-.1525-.9504.3381z"/><path d="m28.9997 15.6662c.2809.1005 1.2687-.3219.6666-.525-.2809-.1005-1.2687.3226-.6666.525z"/><path d="m32.6546 17.8202c.2171-.0036 1.0142-.1305.8147-.4114-.231-.1356-1.3889.2582-.8147.4114z"/></g></svg>