<?xml version="1.0" encoding="UTF-8"?>
<svg id="Calque_2" data-name="Calque 2" xmlns="http://www.w3.org/2000/svg" viewBox="0 0 198.49 40.23">
  <defs>
    <style>
      .cls-1 {
        fill: #fff;
      }
    </style>
  </defs>
  <g id="Calque_1" data-name="Calque 1">
    <g>
      <g>
        <path class="cls-1" d="M45.88,10.18h-6.43c-.12,0-.13-.04-.13-.09s.01-.07.13-.07h.71c.13,0,.14-.19.14-.63V.79c0-.45-.01-.63-.14-.63h-.71c-.12,0-.13-.03-.13-.07s.01-.09.13-.09h3.23c.12,0,.13.04.13.09s-.01.07-.13.07h-.92c-.13,0-.14.19-.14.63v9.14s.03.09.13.09h1.51c2.09,0,2.57-1.79,2.57-3.16v-.42c0-.12.04-.13.09-.13s.1.03.1.13v3.65s-.01.09-.13.09Z"/>
        <path class="cls-1" d="M49.69,10.35c-1.96,0-2.85-1.37-2.85-3.19,0-1.66.78-3.23,2.61-3.23,1.31,0,2.42.82,2.42,2.21,0,.43-.13.56-.42.56h-3.19s-.1,0-.1.09c-.01.56,0,1.17.06,1.7.09.79.45,1.69,1.59,1.69,1.08,0,1.9-.81,1.9-2.13,0-.14,0-.23.13-.23.06,0,.1.04.1.16,0,1.02-.55,2.38-2.25,2.38ZM50.52,5.15c-.13-.62-.45-1.07-1.08-1.07-.95,0-1.12.88-1.21,1.76-.01.19-.03.4-.04.61,0,.09.04.09.09.09h2.25s.12-.03.12-.12c0-.38-.03-.85-.12-1.27Z"/>
        <path class="cls-1" d="M59.67,10.35c-.84,0-1.3-.45-1.53-.84h-.01v4.07c0,.4.01.56.13.56h.78c.1,0,.12.03.12.07s-.01.07-.12.07h-2.74c-.1,0-.12-.03-.12-.07s.01-.07.12-.07h.63c.12,0,.13-.16.13-.56V4.8c0-.4-.01-.55-.13-.55h-.63c-.1,0-.12-.03-.12-.07s.01-.07.12-.07h1.69c.1,0,.12.03.12.07v.61h.03c.23-.39.71-.85,1.54-.85,1.36,0,2.62,1.1,2.62,3.22s-1.27,3.2-2.62,3.2ZM60.94,5.97c-.12-1.23-.38-1.89-1.41-1.89-.97,0-1.4.89-1.4,1.21v3.71c0,.32.43,1.21,1.4,1.21,1.04,0,1.3-.66,1.41-1.89.06-.61.07-1.64,0-2.35Z"/>
        <path class="cls-1" d="M65.89,10.35c-1.96,0-2.86-1.37-2.86-3.19,0-1.66.78-3.23,2.61-3.23,1.31,0,2.42.82,2.42,2.21,0,.43-.13.56-.42.56h-3.19s-.1,0-.1.09c-.01.56,0,1.17.06,1.7.09.79.45,1.69,1.59,1.69,1.08,0,1.9-.81,1.9-2.13,0-.14,0-.23.13-.23.06,0,.1.04.1.16,0,1.02-.55,2.38-2.25,2.38ZM66.71,5.15c-.13-.62-.45-1.07-1.08-1.07-.95,0-1.12.88-1.21,1.76-.01.19-.03.4-.04.61,0,.09.04.09.09.09h2.25s.12-.03.12-.12c0-.38-.03-.85-.12-1.27Z"/>
        <path class="cls-1" d="M70.92,10.35c-.97,0-1.43-.71-1.43-1.57v-4.4s-.03-.1-.14-.1h-.43c-.13,0-.14-.04-.14-.09s.03-.09.14-.09h.43c.12,0,.14-.04.14-.09v-1.31c0-.09.03-.13.12-.19.25-.14.59-.48.74-.72.03-.04.07-.09.13-.09.07,0,.09.04.09.12v2.19s.03.09.14.09h1.07c.13,0,.14.04.14.09s-.03.09-.14.09h-1.07c-.12,0-.14.06-.14.1v4.89c0,.45.03.91.58.91.43,0,.74-.35.74-.95,0-.1-.04-.2.1-.2.06,0,.09.04.09.14,0,.79-.39,1.18-1.14,1.18Z"/>
        <path class="cls-1" d="M75.23,10.18h-2.6c-.1,0-.12-.03-.12-.07s.01-.07.12-.07h.63c.12,0,.13-.16.13-.56v-4.67c0-.4-.01-.55-.13-.55h-.63c-.1,0-.12-.03-.12-.07s.01-.07.12-.07h1.72c.1,0,.12.03.12.07v5.29c0,.4.01.56.13.56h.63c.1,0,.12.03.12.07s-.01.07-.12.07ZM73.93,1.51c-.38,0-.68-.29-.68-.69s.3-.71.68-.71.66.3.66.71-.29.69-.66.69Z"/>
        <path class="cls-1" d="M77.88,10.35c-.97,0-1.43-.71-1.43-1.57v-4.4s-.03-.1-.14-.1h-.43c-.13,0-.14-.04-.14-.09s.03-.09.14-.09h.43c.12,0,.14-.04.14-.09v-1.31c0-.09.03-.13.12-.19.25-.14.59-.48.74-.72.03-.04.07-.09.13-.09.07,0,.09.04.09.12v2.19s.03.09.14.09h1.07c.13,0,.14.04.14.09s-.03.09-.14.09h-1.07c-.12,0-.14.06-.14.1v4.89c0,.45.03.91.58.91.43,0,.74-.35.74-.95,0-.1-.04-.2.1-.2.06,0,.09.04.09.14,0,.79-.39,1.18-1.14,1.18Z"/>
      </g>
      <g>
        <path class="cls-1" d="M135.25,39.86h-1.73c-.1,0-.12-.03-.12-.07v-.62h-.03c-.24.4-.72.87-1.58.87-1.39,0-2.69-1.12-2.69-3.29s1.3-3.28,2.69-3.28c.86,0,1.33.46,1.56.86h.01v-4.16c0-.41-.01-.58-.13-.58h-.65c-.1,0-.12-.03-.12-.07s.01-.07.12-.07h1.76c.1,0,.12.03.12.07v9.64c0,.41.01.56.13.56h.65c.1,0,.12.03.12.07s-.01.07-.12.07ZM133.38,34.85c0-.32-.44-1.24-1.43-1.24-1.06,0-1.33.68-1.45,1.93-.06.62-.07,1.68,0,2.41.12,1.25.38,1.93,1.45,1.93.99,0,1.43-.92,1.43-1.24v-3.79Z"/>
        <path class="cls-1" d="M142.15,39.86h-1.73c-.1,0-.12-.03-.12-.07v-.6h-.03c-.24.38-.65.86-1.61.86s-2.18-.58-2.18-2.29v-3.38c0-.41-.01-.58-.13-.58h-.65c-.1,0-.12-.03-.12-.07s.01-.07.12-.07h1.76c.1,0,.12.03.12.07v4.82c0,1.21.86,1.34,1.28,1.34,1.02,0,1.42-.92,1.42-1.24v-4.28c0-.41-.02-.58-.13-.58h-.65c-.1,0-.12-.03-.12-.07s.01-.07.12-.07h1.76c.1,0,.12.03.12.07v5.43c0,.41.01.56.13.56h.65c.1,0,.12.03.12.07s-.01.07-.12.07Z"/>
      </g>
      <g>
        <path class="cls-1" d="M35.41,39.58h-11.33c-.43,0-.49-.16-.49-.33s.05-.27.49-.27h2.66c.49,0,.54-.71.54-2.39V3.3h-.05l-9.6,36.39c-.11.43-.22.54-.54.54h-.54c-.33,0-.43-.16-.54-.49L4.61,3.3h-.05v23.1c0,10.52,1.03,12.58,4.72,12.58h.49c.43,0,.49.11.49.27s-.05.33-.49.33H.49c-.43,0-.49-.16-.49-.33s.05-.27.49-.27h.11c2.55,0,3.31-1.79,3.31-12.2V4.28c0-1.68-.05-2.39-.54-2.39H.7c-.43,0-.49-.11-.49-.27s.05-.33.49-.33h7.97c.33,0,.54.11.65.43l9.38,31.24h.05L26.95,1.73c.11-.33.27-.43.6-.43h7.86c.43,0,.49.16.49.33s-.05.27-.49.27h-2.66c-.49,0-.54.71-.54,2.39v32.32c0,1.68.05,2.39.54,2.39h2.66c.43,0,.49.11.49.27s-.05.33-.49.33Z"/>
        <path class="cls-1" d="M62.2,39.58h-6.34c-.38,0-.43-.11-.43-.27v-2.22h-.11c-.87,1.41-2.39,3.14-5.91,3.14s-8.03-2.11-8.03-8.41v-12.42c0-1.52-.05-2.11-.49-2.11h-2.39c-.38,0-.43-.11-.43-.27s.05-.27.43-.27h6.45c.38,0,.43.11.43.27v17.73c0,4.45,3.15,4.93,4.72,4.93,3.74,0,5.21-3.36,5.21-4.56v-15.73c0-1.52-.05-2.11-.49-2.11h-2.39c-.38,0-.43-.11-.43-.27s.05-.27.43-.27h6.45c.38,0,.43.11.43.27v19.96c0,1.52.05,2.06.49,2.06h2.39c.38,0,.43.11.43.27s-.05.27-.43.27Z"/>
        <path class="cls-1" d="M72.99,40.23c-1.74,0-3.63-.27-5.21-.92-.6-.27-1.36-.49-1.36.05v.11c0,.33-.16.49-.33.49s-.27-.05-.27-.49v-8.03c0-.38.11-.49.27-.49s.33.05.33.49v.81c0,4.88,3.25,7.43,6.45,7.43s4.77-1.74,4.77-3.9c0-6.83-11.77-5.53-11.77-13.29,0-2.6,1.84-6.4,6.56-6.4,1.3,0,2.55.27,3.9.87.65.27,1.41.6,1.41,0v-.16c0-.33.16-.43.33-.43s.27,0,.27.43v7.21c0,.38-.11.43-.27.43s-.33,0-.33-.43v-.49c0-4.45-2.5-6.89-5.48-6.89-2.71,0-3.69,1.9-3.69,3.53,0,6.83,11.88,5.53,11.88,13.34,0,3.47-2.98,6.72-7.48,6.72Z"/>
        <path class="cls-1" d="M94.35,40.23c-7.38,0-10.74-5.15-10.74-11.98,0-6.24,2.93-12.15,9.82-12.15,4.93,0,9.11,3.09,9.11,8.3,0,1.63-.49,2.12-1.57,2.12h-11.99c-.16,0-.38,0-.38.33-.05,2.12,0,4.39.22,6.4.33,2.98,1.68,6.34,5.96,6.34s7.16-3.04,7.16-8.03c0-.54,0-.87.49-.87.22,0,.38.16.38.6,0,3.85-2.06,8.95-8.46,8.95ZM97.44,20.65c-.49-2.33-1.68-4.01-4.07-4.01-3.58,0-4.23,3.31-4.55,6.62-.05.71-.11,1.52-.16,2.28,0,.33.16.33.33.33h8.46c.16,0,.43-.11.43-.43,0-1.41-.11-3.2-.43-4.77ZM98.91,6.01l-5.31,6.94c-.11.16-.27.38-.43.27-.16-.11-.11-.33,0-.54l3.47-7.97c.54-1.25,1.25-4.07,2.87-4.07.92,0,1.68.76,1.68,1.68,0,1.08-1.57,2.82-2.28,3.69Z"/>
        <path class="cls-1" d="M116.59,40.23c-7.38,0-10.74-5.15-10.74-11.98,0-6.24,2.93-12.15,9.82-12.15,4.93,0,9.11,3.09,9.11,8.3,0,1.63-.49,2.12-1.57,2.12h-11.99c-.16,0-.38,0-.38.33-.05,2.12,0,4.39.22,6.4.33,2.98,1.68,6.34,5.96,6.34s7.16-3.04,7.16-8.03c0-.54,0-.87.49-.87.22,0,.38.16.38.6,0,3.85-2.06,8.95-8.46,8.95ZM119.68,20.65c-.49-2.33-1.68-4.01-4.07-4.01-3.58,0-4.23,3.31-4.55,6.62-.05.71-.11,1.52-.16,2.28,0,.33.16.33.33.33h8.46c.16,0,.43-.11.43-.43,0-1.41-.11-3.2-.43-4.77Z"/>
      </g>
      <path class="cls-1" d="M171.65,40.09h-9.76c-.38,0-.43-.11-.43-.27s.05-.27.43-.27h2.39c.43,0,.49-.6.49-2.12v-17.57c0-1.52-.05-2.06-.49-2.06h-2.39c-.38,0-.43-.11-.43-.27s.05-.27.43-.27h6.45c.38,0,.43.11.43.27v19.9c0,1.52.05,2.12.49,2.12h2.39c.38,0,.43.11.43.27s-.05.27-.43.27Z"/>
      <path class="cls-1" d="M166.77,13.06c-1.41,0-2.55-1.08-2.55-2.6s1.14-2.66,2.55-2.66,2.49,1.14,2.49,2.66-1.08,2.6-2.49,2.6Z"/>
      <path class="cls-1" d="M198.06,40.09h-9.76c-.38,0-.44-.11-.44-.27s.05-.27.44-.27h2.38c.44,0,.49-.6.49-2.12v-15.35c0-4.5-3.26-4.94-4.88-4.94-3.91,0-5.42,3.36-5.42,4.56v15.73c0,1.52.05,2.12.49,2.12h2.38c.38,0,.44.11.44.27s-.05.27-.44.27h-9.76c-.38,0-.43-.11-.43-.27s.05-.27.43-.27h2.39c.43,0,.49-.6.49-2.12v-17.57c0-1.52-.05-2.06-.49-2.06h-2.39c-.38,0-.43-.11-.43-.27s.05-.27.43-.27h6.35c.38,0,.44.11.44.27v2.22h.11c.87-1.41,2.5-3.15,6.08-3.15s8.24,2.17,8.24,8.4v12.42c0,1.52.05,2.12.49,2.12h2.39c.38,0,.43.11.43.27s-.05.27-.43.27Z"/>
      <g>
        <path class="cls-1" d="M149.3,30.92c-.31,0-.56.25-.56.56s.25.56.56.56.56-.25.56-.56-.25-.56-.56-.56Z"/>
        <path class="cls-1" d="M147.09,18.22c-.92,0-1.68.75-1.68,1.68s.75,1.68,1.68,1.68,1.68-.75,1.68-1.68-.75-1.68-1.68-1.68Z"/>
        <path class="cls-1" d="M151.58,24.25c-.55,0-1,.45-1,1s.45,1,1,1,1-.45,1-1-.45-1-1-1Z"/>
        <path class="cls-1" d="M164.83,1.15h-9.98c-.44,0-.49.16-.49.33s.05.27.49.27h1.36c4.23,0,3.18,5.45,2.14,9.16-.26-.34-.65-.65-1.26-.77-1.61-.32-3.79,4.63-7.24,5.33-2.99.61-4.19-.01-4.3-.31l-3.34-10.48c-.76-2.39-.49-2.93.54-2.93h2.33c.43,0,.49-.11.49-.27s-.05-.33-.49-.33h-11.33c-.43,0-.49.16-.49.33s.05.27.49.27h.98c.92,0,1.3.43,2.11,2.93l11.77,35.09c.05.22.22.33.49.33h.76c.27,0,.43-.05.49-.33l1.08-3.53h0s7.38-24.13,7.38-24.13c2.71-8.84,4.07-10.36,5.86-10.36h.16c.44,0,.49-.11.49-.27s-.05-.33-.49-.33ZM144.81,19.89c0-1.25,1.02-2.28,2.28-2.28s2.28,1.02,2.28,2.28-1.02,2.28-2.28,2.28-2.28-1.02-2.28-2.28ZM149.3,32.54c-.58,0-1.06-.48-1.06-1.06s.48-1.06,1.06-1.06,1.06.48,1.06,1.06-.48,1.06-1.06,1.06ZM151.58,26.75c-.83,0-1.5-.67-1.5-1.5s.67-1.5,1.5-1.5,1.5.67,1.5,1.5-.67,1.5-1.5,1.5Z"/>
      </g>
    </g>
  </g>
</svg>
