<svg fill="none" height="385" viewBox="0 0 174 385" width="174" xmlns="http://www.w3.org/2000/svg"><path d="m58.8207 140.665c21.4866-7.014 42.3453-16.975 59.2413-31.987 16.896-15.013 29.604-35.4696 32.429-57.6576 2.903-2.8593 5.809-5.7211 8.713-8.5805 1.554 2.3076 2.67 4.9095 3.268 7.629-2.278 1.3537-4.61 2.7514-6.265 4.8211-2.273 2.8373-3.002 6.5672-3.83 10.1082-7.203 30.7439-26.941 57.2458-49.911 78.9108-5.9052 5.569-13.078 11.234-21.1508 10.393-7.5897-.795-13.301-7.082-22.4945-13.637z" fill="#ffba8c"/><path d="m51.7821 139.923c-7.1753-.26-14.2033 2.864-19.6204 7.572-5.4194 4.708-9.3652 10.903-12.4574 17.382-6.0301 12.636-9.0537 26.695-8.7472 40.692.103 4.716.591 9.483 2.2266 13.907 1.6357 4.424 4.5097 8.512 8.5658 10.918 4.029 2.39 8.8648 2.9 13.4432 2.275 1.0275-.14 2.05-.338 3.0579-.583.5101-.125 1.0619-.157 1.5401-.395.4634-.231.8239-.805.3261-1.19-.6915-.532-1.8956-.792-2.7244-1.025-.9368-.262-1.8932-.446-2.8619-.544-2.695-.275-5.7578-.02-7.749-2.739 1.1722-.263 2.3664-.417 3.568-.469.613-.027 1.2261-.024 1.8392.005.2575.013.7601.069.8631-.257.1226-.39-.6841-.569-.9514-.682-1.0545-.441-2.1653-.76-3.2934-.939-1.3217-.211-2.6803-.24-3.9603-.635-4.3136-1.327-6.3735-6.234-7.1067-10.685-1.5155-9.201.3384-18.919 5.1325-26.918 4.7942-7.999 12.4893-14.216 21.3297-16.685 7.5186 7.018 11.5036 17.17 12.9357 27.355 1.4321 10.184.5419 20.535.3384 31.102 7.7148-3.304 15.1426-7.438 21.4743-12.946 6.3318-5.508 11.5452-12.452 14.2746-20.388 2.1408-6.229 2.7098-12.889 2.7662-19.476.0711-8.406-.6695-16.817-2.2071-25.084-.4683-2.508-1.0226-5.046-2.2536-7.283-1.231-2.236-3.2394-4.164-5.726-4.738-2.1138-.488-4.3135.032-6.4396.469-8.8036 1.805-17.899 2.334-27.583 1.984z" fill="#ffba8c"/><path d="m67.8549 285.172c-9.8311 32.774-23.9414 64.261-41.6221 93.489-3.1512 2.482-6.8614 4.24-10.7678 5.14-.8117.187-4.5784 1.371-4.8677-.019-.1643-.783 1.2114-1.727 1.6969-2.114 1.8343-1.467 3.953-2.484 5.8462-3.85 5.4636-3.936 8.2665-10.52 10.5496-16.857 9.6716-26.842 14.5737-55.117 19.8583-83.153.3188-1.69.8436-3.64 2.4351-4.287 1.0741-.437 2.2928-.113 3.3939.25 4.777 1.577 9.3284 3.828 13.4776 11.401z" fill="#ffba8c"/><path d="m97.2028 275.508c-2.8569 33.372-9.4412 67.098-26.6781 96.16 3.2591.507 6.5181 1.015 9.7772 1.52.8999.14 8.5877 1.265 8.2199 2.153-.2305.557-1.3365.802-1.8539.851-7.5063.699-15.0592.912-22.4601 1.258 13.7988-32.139 13.6516-68.418 11.6261-103.985 2.5233-.888 4.8947-2.156 7.4009-3.088 2.5062-.931 5.2331-1.527 7.8546-.993 2.6214.532 6.442 2.274 6.1134 6.124z" fill="#ffba8c"/><path d="m48.1698 92.084c2.8054-3.2223 7.4058-4.3405 11.6727-4.1321 2.1556.1055 4.3356.515 6.2312 1.545 3.4429 1.871 5.4979 5.4807 8.1365 8.3769 2.3174 2.5452 5.1743 4.6002 8.4407 6.3902-1.3291 1.315-2.7661 2.519-4.2375 3.787 1.2923 3.484 2.1457 7.131 2.5283 10.826.0441.417.076.861-.1104 1.236-.1741.348-.5101.581-.8387.787-3.671 2.291-8.1586 2.923-12.4844 2.818-3.698-.091-7.4376-.699-10.7629-2.322-5.7113-2.791-9.7158-8.436-11.4397-14.557-1.4003-4.968-.8927-10.4391 2.8642-14.755z" fill="#ffba8c"/><path d="m68.5628 120.854c-.6449 9.196.6597 18.527 3.8059 27.19-8.8919-.314-17.541-2.825-26.1974-5.316 6.2238-3.975 9.8286-11.7 8.8771-19.025-.3973-3.063-1.5155-6.003-1.8711-9.071-.1226-1.071.032-2.442 1.0546-2.783.5223-.174 1.0888.005 1.6062.191 2.7097.979 5.3361 2.188 7.8423 3.613 1.692.958 3.4086 2.109 4.8824 5.201z" fill="#ffba8c"/><path d="m65.0663 82.0908c.8607-2.0648 1.7239-4.1369 2.8005-6.0962.7945-1.4444 1.7705-2.8863 3.2443-3.6269.4684.3703.9023.7773 1.3021 1.2187-1.9815.9809-3.6146 2.5626-4.9413 4.3307-1.3242 1.7681-2.3664 3.7299-2.4056 4.1737z" fill="#009954"/><path d="m94.6699 216.894c4.5686 10.709 5.6791 22.563 5.8851 34.201.206 11.641-.431 23.328 1.092 34.469-6.5259 3.129-14.6085-.265-21.3963 2.244-4.083 1.508-7.3421 5.049-11.636 5.768-3.747.627-7.4426-1.028-11.0817-2.117-4.3013-1.29-8.8305-1.814-13.3108-1.547-3.8377.23-7.8399 1.013-11.9523-.782 9.3897-13.341 10.53-30.546 14.0637-46.473 1.437-6.479 3.5288-13.215 8.448-17.668 4.9609-4.491 11.9105-5.876 18.4899-7.087 5.4563-1.001 10.9077-2.004 21.3984-1.008z" fill="#b02b45"/><path d="m93.6201 211.231c2.5405-3.036 3.7005-6.974 4.5833-10.834 2.8346-12.384 3.4826-25.317 1.3658-37.845-.0907-.537-.1863-1.072-.2869-1.607-1.4419-7.638-3.9309-15.091-7.4891-22.006-1.6357-3.181-3.5141-7.286-6.0767-9.829-1.8441-1.829-5.4023-.076-6.6358 1.825-.9098 1.4-.6278 3.151-.667 4.733-.0588 2.398-.2109 4.796-.4513 7.182-.488 4.848-1.3462 9.657-2.5527 14.378-1.8539 7.246-4.5343 14.282-7.9846 20.917-1.719 3.309-3.6318 6.516-5.7284 9.599-1.0471 1.54-2.1384 3.045-3.2762 4.519-.4954.643-3.4724 3.465-3.394 4.139.9442 8.056 1.16 16.198.775 24.29 6.4175-.868 12.9233-.883 19.3507-1.682 6.4249-.8 13.534-1.884 18.4679-7.779z" fill="#b02b45"/><path d="m68.1411 188.874c8.0826-16.337 13.1146-34.177 15.2652-52.243 1.1599 19.873-4.0903 39.499-15.2652 52.243z" fill="#96253b"/><path d="m64.2892 210.73c13.4923-18.419 21.8152-40.582 24.2528-62.604 2.8397 23.209-6.219 47.559-24.2528 62.604z" fill="#96253b"/><path d="m87.8214 205.966c7.0649-16.695 8.9237-35.55 4.6495-52.878.3555 19.113-2.9452 38.287-4.6495 52.878z" fill="#96253b"/><path d="m46.6945 160.953c1.5915 2.658 3.4699 5.145 5.5911 7.401.6327.674 1.3046 1.339 2.1359 1.741 1.1844.576 2.5626.559 3.8795.503 3.4748-.15 6.9398-.496 10.7923-.643-3.6097 1.776-7.2709 3.568-11.2191 4.334-1.3977.269-2.9132.392-4.181-.253-1.0349-.527-1.7632-1.496-2.418-2.455-1.8833-2.736-3.4968-5.66-4.5807-10.628z" fill="#e8a487"/><path d="m69.7898 116.182c2.4253-.691 4.7402-1.763 7.06-3.112-.0515.537.0858 1.072.1471 1.607.0614.537.0295 1.123-.304 1.547-.2722.346-.6989.53-1.1207.657-1.6111.496-3.3939.4-5.7824-.699z" fill="#fff"/><path d="m67.0776 107.001c-.0368 0-.0711-.005-.1079-.012-.2746-.061-.4488-.331-.3875-.606.2281-1.044.5126-2.344 1.3243-3.327.8362-1.011 2.4326-1.617 3.6513-.878.2404.144.3164.456.1717.696s-.461.319-.6964.172c-.7406-.442-1.7951-.008-2.3444.657-.6547.792-.9 1.91-1.1158 2.896-.0515.238-.2624.402-.4953.402z" fill="#a66144"/><path d="m47.5162 265.769c2.2537-10.442 4.6103-21.141 10.4148-30.109.9048-1.397 1.9421-2.793 3.4184-3.568.3065-.162.6891-.289.9858-.115.2869.169.3654.54.412.868 1.5473 10.844-2.0967 21.69-3.0285 32.605.5002-8.688 1.0005-17.376 1.5007-26.065.0442-.76-.1741-1.812-.9343-1.787-.4414.014-.7504.421-.9883.792-5.0394 7.83-8.6466 16.577-11.7806 27.379z" fill="#96253b"/><path d="m74.2887 274.44c.8853-10.498 1.7681-21.033 1.3144-31.56-.1814-4.206-.5886-8.453-1.9716-12.428-.4439-1.273-1.5842-2.774-2.8078-2.207-.6229.289-.9 1.005-1.1207 1.652-.5934 1.751-1.1869 3.502-1.8662 5.442.9613-1.005 1.925-2.011 2.8863-3.014 1.2163.866 1.4812 2.533 1.6308 4.02 1.28 12.822 1.5375 25.719 1.9348 38.095z" fill="#96253b"/><path d="m83.1982 277.134c2.4498-12.119 1.8049-24.613 1.9349-36.975.0319-2.948.1103-5.922.8313-8.779.2378-.939.7111-2.018 1.6699-2.173.8363-.135 1.5818.525 2.1115 1.187 1.7779 2.229 2.7146 5.005 3.4331 7.764 3.031 11.643 2.7269 23.86 2.364 36.087-.0221-12.153-.1471-24.782-5.4391-35.724-.282-.584-.645-1.217-1.2703-1.386-.6817-.184-1.4027.299-1.7239.927-.3237.628-.3433 1.364-.358 2.07-.2453 11.839-.4905 23.679-3.5534 37.002z" fill="#96253b"/><path d="m150.662 31.6045c5.999.5689 12.164 1.1232 18.253-.3384-.268 6.0276-1.347 9.8164-3.309 14.2427-.877 1.9814-2.643 3.5754-3.303 5.6402-.963 3.0113-1.047 6.2238-1.125 9.3847-.064 2.6264-.128 5.2503-.194 7.8767-.017.6989-.025 1.4419.336 2.0427.392.6547 1.135 1.0005 1.849 1.2678.954.3556 1.932.6327 2.921.8755.721.179 1.792.3653.887 1.2187-.848.7994-2.415.4341-3.435.3973-3.036-.1104-6.077-.0981-9.11.0858-.579.0344-2.139-.2084-1.312-1.1427.274-.3115 1.115-.4169 1.488-.5248.67-.1938 1.346-.3777 1.957-.721.844-.4733 1.562-1.3389 1.621-1.9569.775-4.4827 1.177-9.0316 1.199-13.583.005-1.258-.019-2.5282-.341-3.7446-.483-1.8269-1.601-3.4062-2.636-4.9854-3.114-4.7451-5.726-10.1621-5.746-16.0353z" fill="#fc0"/><g fill="#009954"><path d="m149.655 22.8816c-.113 0-.229-.0368-.322-.1153-1.123-.9196-1.846-2.3492-1.979-3.9235-.132-1.5744.339-3.1071 1.293-4.2008.858-.9833 2.011-1.6307 3.124-2.2585 1.378-.7749 2.68-1.5057 3.308-2.78573 1.052-2.15308-.388-4.75492-2.17-6.26305-2.546-2.15063-5.92-2.883872-8.591-1.86864-2.918 1.10842-4.674 4.53668-3.685 7.19492.265.71606.833 1.4272 1.508 1.4272h.034c.694-.0245 1.194-.76998 1.378-1.09122.319-.55911.422-1.29235.246-1.7828-.086-.24277-.231-.40218-.444-.48311-.263-.10054-.393-.39479-.292-.65718.1-.26239.397-.38991.657-.29182.491.18882.851.56401 1.037 1.0888.275.77245.15 1.80238-.321 2.62879-.566.98824-1.376 1.57184-2.224 1.60134-1.246.049-2.163-1.0962-2.531-2.08932-1.194-3.20999.805-7.1802 4.277-8.499506 3.014-1.140297 6.785-.340881 9.61 2.042706 2.075 1.75336 3.72 4.8432 2.428 7.48432-.765 1.5645-2.268 2.4081-3.722 3.2271-1.087.6107-2.114 1.1869-2.857 2.0403-.775.8877-1.155 2.1457-1.045 3.4479.11 1.3021.696 2.4767 1.609 3.2247.215.1765.25.4978.071.716-.103.1251-.25.1864-.397.1864z"/><path d="m162.416 9.16175c-.877 0-1.741-.385-2.239-1.0937-.426-.60816-.524-1.4223-.262-2.1825.243-.70625.753-1.22368 1.398-1.42231.267-.08583.552.06866.635.33841.081.26729-.069.55176-.338.63514-.331.10054-.599.38502-.734.77984-.154.44631-.103.93185.133 1.26781.48.68172 1.618.8681 2.396.38746.878-.54194 1.255-1.68715 1.42-2.55279.174-.93186.142-1.62833-.099-2.19234-.328-.77246-1.133-1.40515-2.209-1.73375-1.211-.36784-2.533-.33104-3.723.10792-.576.21334-1.042.49291-1.385.83132-.871.86074-1.109 2.17515-1.307 3.67838-.039.2771-.304.46346-.572.43648-.279-.03678-.473-.29427-.436-.57138.174-1.30459.414-3.09226 1.599-4.26689.449-.44386 1.037-.801899 1.751-1.06429 1.393-.5174245 2.942-.5615699 4.37-.127521 1.363.416882 2.4 1.257991 2.849 2.307551.321.75775.375 1.64059.162 2.77843-.292 1.55227-.924 2.63863-1.883 3.22962-.466.29182-.998.42911-1.526.42911z"/><path d="m165.552 16.6944c1.513-2.158 3.49-3.9874 5.758-5.3288.287-.1692.601-.3359.935-.304.635.0637.968.7945 1.53 1.101-2.281 1.0864-4.458 2.391-6.491 3.8893-.412.3016-.854.6744-1.732.6425z"/><path d="m64.8733 89.2853c-.1177 0-.2379-.0417-.3336-.1251-.2109-.1839-.2329-.5051-.049-.716 1.1992-1.3757 3.2198-2.1237 5.6647-2.0648.9956.0171 1.9888.1471 2.9476.2697.922.1202 1.8784.2428 2.8103.2624 2.8961.0441 5.8805-.9392 8.1635-2.7367 1.1207-.8804 2.5798-2.3566 3.1659-4.3797.5175-1.7951.1545-3.7569-.9245-5.0002-1.1697-1.3463-3.1978-1.7705-4.6225-.9686-.7259.4095-1.2556 1.1942-1.4248 2.0967-.1495.8019.0221 1.5719.4709 2.1163.179.2158.1471.537-.0687.716-.2158.1766-.537.1471-.716-.0687-.6401-.7773-.8902-1.8514-.6867-2.95.2207-1.1943.9417-2.2414 1.9226-2.7956 1.8245-1.0348 4.4116-.5125 5.8879 1.182 1.3217 1.518 1.7557 3.7986 1.1353 5.9492-.6596 2.283-2.2756 3.9211-3.514 4.8971-2.5013 1.9667-5.655 3.0237-8.811 2.9525-.9883-.0196-1.9716-.1471-2.9206-.2697-.9318-.1202-1.8956-.2453-2.8348-.2624-1.2531-.0295-3.5313.1692-4.8776 1.7166-.103.1201-.2451.179-.3849.179z"/><path d="m73.8682 87.8836c-.2256 0-.434-.1545-.4929-.3826-.0711-.2722.0932-.5493.3654-.618.9809-.2526 1.9936-.5149 2.8225-1.0569.6646-.4365 1.3757-1.2384 1.3831-2.1849 0-.3311-.0834-.694-.2501-1.0815-.4243-.976-1.2335-1.6994-2.1139-1.8882-.4684-.103-.9294-.0441-1.2703.1569-.3506.2036-.5811.5763-.5787.9294.0025.336.255.6646.5517.7185.1373.0295.2943-.022.4194-.1201.1055-.0834.1692-.1913.1741-.2943.0147-.2795.2134-.4929.5346-.4806.2796.0147.4953.255.4806.5346-.0196.3948-.2231.7749-.5591 1.0397-.3531.2796-.8117.3973-1.2335.3237-.7675-.1398-1.3757-.8901-1.3855-1.7092-.0098-.7185.4144-1.4321 1.0839-1.8196.5665-.3286 1.2777-.4242 1.9937-.2722 1.2114.26 2.2708 1.1845 2.8324 2.4768.2256.5174.3383 1.0177.3334 1.491-.0073 1.1452-.694 2.2781-1.8416 3.0309-.9687.6327-2.1139.9294-3.1266 1.1894-.0393.0098-.0809.0172-.1226.0172z"/><path d="m36.2749 108.443c-1.8711.133-3.8525.245-5.5126-.628-1.9618-1.03-3.0703-3.345-2.9624-5.559.3752.302 1.0153.157 1.2262-.275.0564 1.896.9858 3.723 2.4032 4.986 1.4174 1.26 3.286 1.967 4.8456 1.476z"/><path d="m36.3041 133.824c-1.025 0-2.0501-.223-2.9771-.697-1.459-.743-2.82-2.302-2.5675-4.112.1619-1.17 1.03-2.188 2.158-2.536 1.1305-.346 2.4179.005 3.21.88.1888.209.1717.53-.0367.719-.2085.186-.5297.172-.7185-.037-.5224-.578-1.4076-.821-2.1556-.591-.7454.231-1.3438.93-1.4517 1.705-.1815 1.307.9196 2.506 2.0231 3.067 2.4547 1.249 5.8437.388 7.4058-1.883.9318-1.361 1.3487-3.158 1.312-5.66-.0295-1.761-.2477-3.558-.461-5.297-.3139-2.575-.6401-5.238-.363-7.884.0294-.279.2771-.493.5591-.453.2796.029.4831.279.4537.559-.2649 2.531.0539 5.135.3605 7.656.2158 1.765.4389 3.59.4659 5.404.0441 2.722-.4291 4.709-1.4885 6.251-1.2752 1.857-3.5067 2.909-5.7285 2.909z"/><path d="m47.2342 132.463c-1.383 0-2.6827-.564-3.4258-1.518-.5027-.645-.743-1.348-.976-2.028-.1594-.465-.309-.907-.5395-1.309-.1373-.245-.0515-.557.1938-.694.2452-.14.5566-.052.6939.194.2747.488.4463.993.6156 1.481.2133.628.4169 1.221.8166 1.734.6327.811 1.9029 1.248 3.1388 1.093 1.0741-.135 1.8907-.684 2.2487-1.503.26-.606.1128-1.42-.3702-2.03-.3679-.466-.8706-.768-1.3806-.822-.5248-.066-1.0496.177-1.2997.564-.2453.385-.1913.942.1226 1.216.1863.162.3065.121.3531.103.2011-.076.3825-.35.4193-.637.0368-.28.2918-.469.5689-.439.2796.037.4734.292.439.571-.0883.662-.5174 1.248-1.0692 1.457-.4659.179-.9711.071-1.3806-.287-.694-.606-.8288-1.717-.309-2.531.4562-.711 1.3683-1.133 2.2634-1.027.7774.083 1.5327.522 2.0698 1.201.7185.91.9171 2.112.5051 3.066-.5027 1.157-1.616 1.925-3.053 2.106-.2158.027-.4316.039-.645.039z"/></g><path d="m62.4893 106.854c-.1251-2.813 1.2483-5.481 2.9035-7.7618 1.6528-2.2781 3.6293-4.3405 4.9977-6.8001.7479-1.3414 1.3144-2.8789 1.0594-4.3944-.2526-1.5008-1.2776-2.7613-2.4228-3.7667-1.5768-1.383-3.8476-2.4449-5.726-1.5106-.3605-2.5062-2.6804-4.5489-5.2087-4.7058-2.5282-.157-5.0295 1.5032-5.981 3.85-.1471.3605-.3801.8117-.7651.7553-.2059-.0294-.3556-.206-.4954-.3605-1.0152-1.0986-2.6533-1.4861-4.1271-1.2212-1.4738.2648-2.7907 1.1084-3.8746 2.1384-3.3743 3.2051-5.3875 6.9349-3.823 11.3171-1.5179.0073-3.6636 1.2752-4.4655 2.5651-.8019 1.2898-1.6161 2.8249-1.7902 4.3352-.2673 2.332.2649 4.748 1.0496 6.957.7847 2.212 3.1855 3.948 5.3925 4.743-1.8882 2.273-.7161 7.612 1.6136 9.431 2.3296 1.82 6.1282 1.293 7.8766-1.091-.9882 1.511-.0564 3.615 1.3537 4.745 1.4002 1.121 3.2516 1.665 5.0368 1.481.9711-.1 1.9937-.463 2.5234-1.285.3482-.542.4365-1.209.439-1.854.0049-1.822-.4292-3.622-.8583-5.392-1.0913-4.497-2.413-6.614-2.2218-8.703.2624-2.889 1.9545-3.978 3.0605-4.341 1.101-.36 2.3443-.122 4.4532.869z" fill="#7d3b33"/><path d="m157.71 16.9638c.064.0908.127.1815.198.2673-.304-.3752.954-2.2879 1.175-2.6141.488-.7258 1.359-1.204 2.273-1.0471.891.152 1.58.9392 1.815 1.8098.233.8705.076 1.8073-.231 2.6557.92-1.4002 3.019-1.8514 4.432-.9514 1.412.8975 1.895 2.9893 1.02 4.4165.586-.3997 1.187-.8093 1.873-.9981.685-.1888 1.482-.1275 2.019.3384.605.5248.738 1.4248.632 2.2193-.296 2.2168-2.31 4.0806-4.605 4.2252 1.059.7995 1.393 2.391.802 3.5803-.591 1.1869-2.006 1.8809-3.318 1.6872-1.312-.1938-2.445-1.2237-2.832-2.4915-.032 1.2384-.557 2.4572-1.435 3.3302-1.064 1.0593-2.818 1.562-4.105.7871-1.153-.694-1.594-2.1506-1.69-3.492-.497 1.6921-1.888 3.1708-3.627 3.4724-1.738.2992-3.693-.8141-4.053-2.5405-.393-1.876 1.086-3.698 2.641-4.7427-.954-.7038-1.717-1.7165-1.94-2.8814-.223-1.1648.16-2.4694 1.096-3.1953.692-.5346 1.643-.716 2.484-.4708.839.2452 1.545.9098 1.793 1.7656-.498-1.0569-.696-2.2511-.569-3.411.108-.9809.486-1.9864 1.27-2.5823.54-.4095 1.276-.5076 1.894-.2084.448.2158.701.6596.988 1.0716z" fill="#173096"/><path d="m62.0353 78.6511c-1.0618-.2403-2.234-.0613-3.1511.5174-.9123.5739-1.3316 2.0232-.5248 2.7343-2.0967.282-3.7813 3.3179-1.5621 4.6936-.8631.1889-1.5203.9466-1.7827 1.7902-.3384 1.0912-.2526 2.386.5149 3.2566.1962.2231 2.6313 1.8097 2.7465 1.356-.179.7161-.3604 1.4518-.2819 2.1874.098.9049.6522 1.6921 1.5841 1.8785 1.4812.2967 2.9182-1.285 3.3915-2.5307.9514.6572 2.4988.2084 3.1855-.6597.2844-.3605.5223-.9417.6449-1.3757.0883-.3065.1962-1.9103-.2452-2.0427.7504.2231 1.5767.0196 2.256-.3703 1.7386-1.003 2.5896-3.0874 2.0697-5.0639-.1839-.7038-.4708-1.0864-1.1182-1.4469-.2134-.1201-1.6798-.7577-1.8662-.4659.694-1.0863 1.4935-2.0403.5199-3.2394-1.0471-1.285-2.9672-1.0324-4.1468-.0858-.0564.0441-.1226.0931-.1912.076-.0442-.0123-.0736-.0466-.103-.0809-.5052-.5861-1.1967-.9589-1.9398-1.1281z" fill="#173096"/><path d="m34.9602 116.3c-1.0545-.223-2.1065-.635-2.8642-1.405-.7553-.77-1.1575-1.949-.7897-2.965.3678-1.015 1.6259-1.682 2.6019-1.223-1.3978-1.172-1.3463-3.48-.2968-4.973.6131-.873 1.5744-1.567 2.6412-1.594 1.0667-.027 2.1677.782 2.2241 1.849.1594-1.202 1.3905-2.102 2.6019-2.058s2.3075.908 2.8127 2.011c.6253 1.366.3801 3.085-.5984 4.223.412-1.165 2.1065-1.44 3.1144-.726.6352.451 1.4321 1.248 1.5449 2.045.0565.4-.2599 2.418-.9956 2.256.9638.209 1.719 1.141 1.7288 2.126.0098.986-.7307 1.93-1.6896 2.156.6916.302 1.3513.716 1.8246 1.304.6498.81.7405 2.053.1005 2.919-.3507.473-.9711.76-1.545.63.0859.591-.0661 1.214-.4168 1.699-.5199.721-1.3904 1.052-2.261.915-1.2506-.196-2.3885-1.177-2.5994-2.423.3555 1.209-.5174 2.575-1.7239 2.936-1.2065.36-2.5749-.189-3.362-1.17-.7897-.981-1.0448-2.32-.8854-3.568.1349-1.082.6278-2.197 1.5867-2.715-.6695.486-1.518.716-2.3419.635-.2624-.027-.5322-.086-.7455-.24-.4316-.309-.542-.927-.4022-1.44.1349-.51.4733-.941.7357-1.204z" fill="#173096"/><path d="m147.423 18.7345c1.604 1.6553 4.029 2.3444 5.544 4.0781 1.594 1.822 1.869 4.4116 2.075 6.8246.13 1.5474.235 3.2149-.576 4.5416-1.484-1.0324-2.97-2.0648-4.454-3.0948-1.11-.7724-2.619-1.5498-3.71-.7528-.424.309-.677.8142-.767 1.3316-.263 1.4861.654 3.21-.238 4.4263-.282.385-.707.6376-1.116.8804-2.234 1.3193-4.471 2.6386-6.705 3.9579-.144-1.8686-.289-3.7348-.431-5.6034-.101-1.2972-.179-2.6926.351-3.7225.37-.8093 1.115-1.3708 1.736-2.0084.623-.6376 1.169-1.4983.976-2.3689-.26-1.1672-1.717-1.6651-2.896-1.4738-1.18.1937-2.237.8436-3.397 1.1305-.203.0515-.431.0883-.618-.0074-.247-.125-.336-.4266-.439-.6866-.404-1.0275-1.417-1.7852-2.516-1.8833 2.144-2.2414 4.331-4.517 7.046-6.0105 2.714-1.4958 6.81-2.9893 10.135.4414z" fill="#009954"/><path d="m150.542 50.5286c.005-1.3831.24-2.7661.718-4.0634.753-2.0402 1.874-3.9456 3.306-5.5837.206-.2379.89-1.2188 1.288-.9711.112.0686.171.1986.213.3237.419 1.2899-.415 3.0849-.684 4.3331-.38 1.7681-.621 3.5656-.711 5.3704-.057 1.079-.089 2.2512-.765 3.0948-.435.5444-1.229.9024-1.886 1.0814-1.673.4537-1.381-1.7264-1.447-2.6607-.025-.3065-.034-.6155-.032-.9245z" fill="#ffba8c"/><path d="m162.955 38.7894c1.415-1.2605 3.438-1.5989 5.36-2.1384.253-.0711.518-.1398.773-.0809.64.1471.839.9515.875 1.6062.219 4.0634-1.106 8.193-3.646 11.3711-.059.0736-.123.1496-.211.1864-.231.0957-.461-.1226-.613-.3188-.797-1.0128-1.594-2.0255-2.391-3.0383-.866-1.1011-1.768-2.2929-1.864-3.6907-.056-.8166.209-1.5939.555-2.3222.301-.6499.698-1.16 1.162-1.5744z" fill="#ffba8c"/><path d="m57.0742 215.816c12.6487 1.079 25.5524-.964 37.49-5.775-.233 2.268-.4635 4.534-.3949 7.004-13.6664 3.452-27.6515 5.645-41.7176 6.545 1.1697-1.778 2.1433-3.684 4.6225-7.774z" fill="#fc0"/><path d="m62.7734 205.61c-2.0133 2.44-2.825 6.616-4.056 10.54-1.2507 3.975-3.0702 7.979-6.393 10.478-4.0757 3.061-9.5736 3.274-14.6669 3.048-4.1272-.193-8.2739-.601-12.3079-1.483-2.2266-.479-4.4116-1.099-6.5353-1.92-.3653-.133-.7307-.275-1.0986-.427-6.2802-2.622-11.97426-7.104-15.00279-13.203-.9245-1.859-1.59645-3.853-1.981452-5.905-1.920108-10.123 3.658752-20.898 12.481942-26.224 8.8232-5.327 20.2262-5.489 29.7704-1.597 1.2899.53 2.5625 1.128 3.7911 1.8 2.6337 1.432 5.0934 3.203 7.2563 5.275 1.0667 1.027 2.0721 2.124 2.977 3.293 3.6121 4.635 5.8069 10.449 5.7652 16.325z" fill="#7d3b33"/><g fill="#a34d43"><path d="m56.9714 197.203c-.1619 0-.3212-.076-.4193-.221-4.4656-6.528-10.8881-11.945-18.5759-15.665-3.9138-1.898-8.1733-3.369-12.6658-4.375-.2722-.061-.4463-.333-.385-.608.0613-.272.3164-.454.6082-.385 4.5685 1.023 8.904 2.519 12.8865 4.451 7.8447 3.799 14.4046 9.333 18.9707 16.006.1594.233.098.549-.1325.706-.0883.061-.1888.091-.2869.091z"/><path d="m45.1914 192.394c-.1055 0-.2109-.032-.3017-.098-8.6883-6.383-18.9877-10.66-29.785-12.369-.2771-.044-.4659-.304-.4218-.581.0442-.28.3164-.474.5812-.422 10.9567 1.734 21.4082 6.074 30.2265 12.553.2256.167.2746.483.1078.709-.0981.139-.2525.208-.407.208z"/><path d="m38.7263 195.04c-.0735 0-.1496-.017-.2207-.051-9.8948-4.76-20.4811-7.737-31.46232-8.845-.27956-.027-.48309-.277-.45366-.557.02698-.28.27708-.505.55664-.454 11.09884 1.123 21.79814 4.13 31.80084 8.944.2526.12.358.424.2378.676-.0907.179-.2698.287-.4586.287z"/><path d="m32.1188 199.756c-.0319 0-.0662-.003-.0981-.01-9.8335-1.972-19.5469-4.721-28.87036-8.173-.26239-.096-.39723-.39-.30159-.653.09809-.264.39234-.397.65227-.299 9.27688 3.433 18.93878 6.17 28.71828 8.129.2747.057.4537.324.3997.599-.049.24-.2623.407-.5002.407z"/><path d="m28.7751 206.025c-.0123 0-.027 0-.0393-.002-10.346-.814-19.92943-4.671-27.940934-8.338-.255034-.117-.36536-.419-.250105-.674.115256-.255.416868-.363.674359-.25 7.92812 3.629 17.40848 7.45 27.59518 8.249.2795.022.4904.268.4659.547-.0196.267-.2428.468-.5051.468z"/><path d="m27.4537 213.566c-.0269 0-.0539 0-.0808-.005-9.1445-1.435-18.05358-4.012-26.486874-7.658-.203537-.086-.409469-.174-.615458-.282-.2476771-.13-.3433113-.439-.2108897-.687.1324217-.25.4389497-.343.6866277-.213.179014.095.360484.169.539494.245 8.35973 3.614 17.1902 6.167 26.2488 7.59.2772.044.466.304.4218.581-.0417.252-.2574.429-.5027.429z"/><path d="m28.9179 219.229c-8.8453-.061-17.8573-1.952-26.05758-5.469-.25749-.11-.37767-.409-.26732-.667.11035-.257.41199-.375.66702-.267 8.07528 3.465 16.94998 5.326 25.66278 5.388.2796.002.5076.23.5052.512-.0025.277-.2306.503-.5101.503z"/><path d="m27.9392 225.63c-4.7819 0-9.8924-.686-15.6772-2.084-.2722-.066-.4414-.341-.3752-.613.0638-.273.3384-.447.6131-.376 8.2125 1.987 15.0298 2.514 21.4645 1.668.2575-.037.5321.157.5689.439.0368.277-.1594.532-.4389.569-2.006.265-4.0487.397-6.1552.397z"/><path d="m42.9764 231.629c-5.3239-.937-10.1695-4.188-13.1711-8.683-3.0015-4.495-4.1491-10.16-3.2786-15.494.564-3.452 1.9741-6.805 4.2988-9.419 1.9299-2.168 4.4263-3.766 7.0208-5.069 2.7073-1.358 5.6353-2.442 8.6663-2.466 3.8426-.032 7.5798 1.689 10.3975 4.298 3.5827 3.321 5.753 8.044 6.2631 12.902.51 4.858-.5886 9.826-2.8054 14.178-1.5695 3.081-3.7348 5.92-6.5966 7.86-2.8618 1.942-6.4151 2.663-10.7948 1.893z"/></g><path d="m48.2322 228.622c-.2747 0-.5371-.007-.7847-.02-5.3165-.233-10.3289-2.349-13.7522-5.802-3.7446-3.781-5.5176-9.169-4.625-14.061.748-4.093 2.7637-7.398 5.9958-9.821 2.6288-1.972 6.7927-4.336 11.7045-4.404.0687 0 .1374-.003.2036-.003 4.517 0 8.6736 2.09 10.8831 5.486 1.5302 2.352 2.2462 5.451 2.1898 9.478-.0907 6.569-2.0672 12.345-5.5641 16.258-1.0275 1.15-1.9765 1.889-2.9893 2.32-1.0814.461-2.2463.569-3.2615.569zm-1.2653-33.093c-.0589 0-.1202 0-.1815 0-4.6421.064-8.6025 2.32-11.1087 4.201-3.0212 2.266-4.907 5.358-5.6059 9.191-.8338 4.571.8314 9.615 4.3479 13.163 3.2443 3.277 8.0115 5.28 13.0754 5.503 1.052.049 2.4154.037 3.5999-.471.873-.372 1.7068-1.027 2.6313-2.062 3.3326-3.73 5.2183-9.269 5.3066-15.594.0515-3.818-.6106-6.731-2.028-8.909-1.9912-3.063-5.9173-5.022-10.037-5.022z" fill="#7d3b33"/><path d="m44.7494 202.395c-.5665 1.108-1.1134 2.518-.3655 3.514.3899.517 1.0447.767 1.6872.861 1.0422.149 2.1555-.071 3.004-.697.8485-.625 1.3978-1.675 1.3267-2.724-.0957-1.41-1.3659-2.622-2.7784-2.722-1.4125-.101-2.4621.959-2.874 1.768z" fill="#7d3b33"/><path d="m31.6566 218.647-.9686-.314c2.3664-7.31 5.157-14.611 8.2935-21.7l.9294.412c-3.1217 7.055-5.9001 14.323-8.2543 21.602z" fill="#7d3b33"/><path d="m46.7347 194.793-10.6452 29.514.955.344 10.6452-29.513z" fill="#7d3b33"/><path d="m53.0545 196.553-11.674 30.398.9477.364 11.674-30.398z" fill="#7d3b33"/><path d="m48.3955 228.288-.9466-.368c3.3816-8.674 6.7976-17.644 10.1523-26.664l.954.356c-3.3572 9.022-6.7732 17.997-10.1597 26.676z" fill="#7d3b33"/><path d="m54.0336 185.992c-.8141-.314-1.6577-.569-2.5209-.763-3.5582-.782-7.6019-.568-11.7095.621-4.6641 1.351-8.6687 3.72-11.5967 6.839-6.1085 6.545-7.3175 16.183-7.2562 23.103.0294 3.151.3139 7.155 2.2978 10.093.5787.863 1.3021 1.626 2.104 2.308-2.2266-.478-4.4116-1.099-6.5353-1.92-1.6356-3.436-1.9004-7.308-1.9323-10.44-.0711-7.673 1.3315-18.396 8.3548-25.917 3.4257-3.659 8.0703-6.413 13.426-7.97 2.7441-.792 5.4784-1.209 8.1121-1.231 2.6313 1.434 5.0909 3.205 7.2562 5.277z" fill="#fc0"/><path d="m37.3899 229.476c-.9367-.262-1.8931-.446-2.8617-.544-2.6951-.275-5.7579-.02-7.7492-2.739 1.1722-.263 2.3664-.417 3.568-.469.6131-.027 1.2262-.024 1.8392.005.2575.013.7603.069.8633-.257.1226-.39-.6842-.569-.9515-.682-1.0569-.441-2.1629-.76-3.2934-.939-1.3218-.211-2.6803-.24-3.9604-.635-4.3135-1.327-6.3734-6.234-7.1066-10.685-1.5155-9.201.3384-18.919 5.1301-26.918 3.7642-6.283 9.3259-11.457 15.8219-14.589v-27.95c-2.3419 1.209-4.5489 2.7-6.5303 4.424-5.4195 4.708-9.3652 10.902-12.4575 17.381-6.0301 12.637-9.0537 26.695-8.7471 40.693.103 4.715.5909 9.483 2.2266 13.906 1.6332 4.424 4.5097 8.512 8.5657 10.918 4.0291 2.391 8.8649 2.901 13.4433 2.276 1.0274-.14 2.0501-.339 3.0579-.584.5101-.125 1.0618-.157 1.54-.395.4635-.23.824-.804.3262-1.189-.6916-.535-1.8956-.795-2.7245-1.028z" fill="#ffba8c"/><path d="m59.5075 217.291c.385 3.502-1.8122 7.129-5.0933 8.411-2.1752.851-4.7893.805-6.5205 2.369-.9172.829-1.4395 1.997-1.9299 3.132-.8387 1.949-1.6602 3.975-1.6602 6.099 0 1.378.3507 2.729.7014 4.065.3923 1.506.7871 3.012 1.1795 4.518.0392.149.0809.306.1888.416.2011.209.5395.182.8264.135 3.7421-.581 7.9624-1.469 9.9242-4.71.5886-.974 1.1526-2.264 2.288-2.318.8583-.039 1.5596.731 1.8539 1.54.2967.809.3212 1.692.5885 2.511.5297 1.626 1.9741 2.825 3.5533 3.475 1.5817.65 3.3106.831 5.0124 1.003 1.9937.204 3.9874.407 5.9835.611.1619-2.465.3237-4.929.4856-7.394.0711-1.091.1398-2.214-.2109-3.249-.976-2.879-4.5171-3.774-6.9448-5.603-.7577-.572-1.4861-1.44-1.2825-2.367.1079-.498.4733-.905.8877-1.201 1.5204-1.097 3.6318-.913 5.3974-.275.3286.118.6818.252 1.0153.147.4168-.13.6351-.576.8043-.978.8019-1.891 1.6038-3.784 2.4056-5.675.1227-.292.2501-.596.2403-.912-.0122-.366-.201-.699-.3849-1.013-1.03-1.758-2.3051-3.696-4.3135-4.039-1.0251-.174-2.0648.111-3.085.314-1.9323.388-3.9236.488-5.8854.299-1.9177-.186-4.0217-.603-6.0252.689z" fill="#009954"/><path d="m69.0099 240.783c-.1275 0-.255-.046-.353-.142-3.3694-3.247-6.4765-6.807-9.2303-10.581-.1643-.226-.1153-.545.1104-.711.2256-.162.5467-.116.711.11 2.7196 3.727 5.7849 7.241 9.1126 10.446.2011.197.2085.518.0123.719-.0981.108-.2305.159-.363.159z" fill="#00bd68"/><path d="m51.5378 240.612c-.0245 0-.0539-.003-.0784-.008-.2771-.044-.4684-.304-.4218-.581.5322-3.379 1.3757-6.734 2.5038-9.968.0932-.265.3825-.41.6474-.312.2648.093.4046.383.3114.648-1.1109 3.175-1.9373 6.471-2.4596 9.791-.0417.251-.2575.43-.5028.43z" fill="#00bd68"/><path d="m64.0388 222.513c-.179 0-.3556-.096-.4463-.265-.1349-.248-.0442-.554.2035-.689 2.4645-1.344 5.1056-2.332 7.8497-2.938.2648-.051.5444.113.6057.388.0613.274-.1129.544-.3875.605-2.6509.584-5.2012 1.538-7.5799 2.838-.0784.039-.1618.061-.2452.061z" fill="#00bd68"/><path d="m59.3338 224.321c-.0417 0-.0858-.005-.1275-.017-.2722-.071-.4341-.351-.363-.62.6597-2.526.4218-5.116.1717-7.86-.2183-2.383-.4439-4.848-.0196-7.251.3605-2.031 1.2114-4.159 2.6018-6.506 1.6676-2.815 3.3694-4.659 5.3557-5.804 2.597-1.496 5.6868-1.577 7.8742-.209 1.2752.8 2.207 2.205 2.4964 3.757.255 1.363-.0171 2.663-.7675 3.666-.4316.579-.9613.981-1.5351 1.162-.878.282-1.9226.057-2.7956-.593-1.0177-.758-1.6749-1.967-1.7559-3.235-.0171-.279.1962-.522.4758-.539.2844 0 .5198.196.5395.476.0613.973.564 1.903 1.3463 2.484.6106.456 1.3144.623 1.8784.441.4684-.149.8191-.52 1.03-.804.5762-.773.7822-1.79.5811-2.869-.2378-1.28-1.0005-2.43-2.0402-3.083-1.8711-1.174-4.5489-1.086-6.8246.228-1.8294 1.055-3.4136 2.784-4.9904 5.442-1.3291 2.241-2.1383 4.259-2.4743 6.167-.3997 2.271-.1815 4.665.0319 6.982.2501 2.71.5052 5.51-.1986 8.208-.0589.225-.2649.377-.4905.377z" fill="#009954"/><path d="m62.2375 202.228c-.1226 0-.2427-.044-.3408-.13-.2085-.188-.2257-.51-.0368-.718 1.025-1.136 2.0844-2.308 2.6362-3.72.5762-1.479.4168-3.046-.4072-3.995-.434-.503-1.0985-.89-1.9176-1.126-1.1059-.316-2.158-.252-2.9598.167-.8706.459-1.4199 1.437-1.2753 2.276.0761.446.3434.821.6818.956.3041.123.7185-.01.8288-.267.1104-.257.412-.378.6695-.262.2575.11.3752.412.2624.667-.3311.765-1.3095 1.128-2.1359.806-.6695-.267-1.1722-.929-1.3071-1.728-.2207-1.276.5371-2.683 1.8024-3.348 1.0373-.542 2.3542-.632 3.7152-.243 1.0103.29 1.8441.785 2.4056 1.437 1.0668 1.231 1.2973 3.206.5837 5.03-.618 1.587-1.7926 2.886-2.8274 4.034-.103.108-.2404.164-.3777.164z" fill="#009954"/><path d="m31.1274 241.983c-1.415 0-2.8814-.561-4.0487-1.574-2.7294-2.369-3.3841-6.883-1.5277-10.501 1.5228-2.959 4.5464-5.365 8.5191-6.768 1.849-.655 3.5263-.986 5.1252-1.01.0637-.003.1275-.003.1913-.003 4.3306 0 8.4063 2.271 11.6923 4.101.2452.137.3335.446.1962.691-.1374.243-.4488.329-.6915.196-3.3449-1.863-7.1312-3.972-11.1897-3.972-.0589 0-.1201.002-.1814.002-1.4861.025-3.058.336-4.8015.952-3.7275 1.319-6.5525 3.546-7.9552 6.275-1.6503 3.212-1.0961 7.197 1.2875 9.267 1.1673 1.01 2.668 1.481 4.0241 1.278 1.4444-.226 2.6803-1.293 3.0089-2.592.3409-1.352-.4021-2.874-1.6258-3.326-.2649-.098-.3997-.387-.3016-.652.0956-.265.3923-.4.6523-.302 1.719.631 2.7342 2.661 2.2634 4.527-.4242 1.682-2.001 3.058-3.8353 3.345-.2648.047-.5322.066-.8019.066z" fill="#009954"/><path d="m39.4535 223.385c-.0957 0-.1913-.027-.2772-.084-1.6405-1.069-3.4969-2.28-4.799-3.989-.3507-.459-.7529-1.079-.7627-1.827-.0073-.493.1619-.947.3238-1.332.3629-.885.895-2.013 1.7802-2.896.9442-.944 2.1359-1.422 3.2861-1.339.6277.054 1.2801.282 1.9299.682.8387.517 1.4762 1.189 1.8416 1.944.439.905.4733 1.943.0956 2.776-.2501.555-.7969 1.165-1.5718 1.207-1.182.071-1.8662-1.224-2.1163-1.709-.1276-.25-.0295-.557.2207-.685.2525-.127.5567-.026.6842.221.4095.797.7994 1.224 1.1549 1.155.3017-.014.569-.319.7014-.61.2551-.562.2232-1.278-.0834-1.913-.282-.581-.7847-1.109-1.459-1.523-.5126-.316-1.0128-.498-1.4812-.535-.8338-.063-1.7632.324-2.4841 1.045-.7578.755-1.231 1.768-1.5596 2.565-.1276.307-.2502.63-.2478.929.0074.449.3016.891.5567 1.227 1.1942 1.569 2.8986 2.68 4.5465 3.754.2354.154.3016.468.1471.704-.0981.154-.2599.233-.4266.233z" fill="#009954"/><path d="m63.1467 281.634c-2.2831 0-4.1198-1.559-5.0345-2.523-2.3493-2.47-3.644-5.841-3.5509-9.25.0859-3.21 1.3562-6.195 2.5848-9.083 1.0397-2.445 2.1163-4.976 2.4351-7.59.434-3.563-.5297-7.408-2.7171-10.824-.1496-.238-.081-.552.1544-.702.2355-.154.5493-.083.7038.155 2.3125 3.617 3.3326 7.7 2.8692 11.496-.336 2.756-1.4395 5.353-2.5087 7.864-1.2458 2.928-2.4228 5.697-2.5037 8.713-.0859 3.139 1.1083 6.246 3.2737 8.522.8411.885 2.5773 2.361 4.5906 2.197 1.8098-.135 3.4405-1.778 3.5631-3.585.0417-.623-.1103-1.418-.6694-1.778-.233-.147-.5935-.155-.8755-.02-.1103.054-.3016.177-.3237.395-.0269.28-.2526.493-.5567.454-.2795-.027-.483-.277-.4536-.557.0515-.517.3777-.959.8926-1.206.6033-.29 1.3365-.258 1.8638.081.9318.598 1.1966 1.787 1.1353 2.7-.1569 2.327-2.1751 4.36-4.4998 4.531-.1276.005-.2526.01-.3728.01z" fill="#009954"/><path d="m65.4196 267.377c-.3188 0-.64-.027-.9612-.078-1.8172-.302-3.5141-1.425-4.6544-3.08-.9981-1.452-1.567-3.281-1.6455-5.29-.0098-.279.2085-.515.488-.527.3041-.005.515.208.5273.488.0686 1.815.5762 3.458 1.4664 4.75.9833 1.432 2.4376 2.398 3.9825 2.653 1.6381.275 3.3424-.314 4.3257-1.503 1.0226-1.231 1.16-3.1.3238-4.348-.287-.429-.6475-.718-1.0129-.819-.3016-.086-.6645-.054-1.0765.081-.3605.118-1.0103.405-1.3316 1.01-.2452.461-.1961 1.048.1129 1.364.1962.201.1913.522-.0098.718-.2011.194-.5224.192-.7185-.009-.6131-.628-.7309-1.7-.2821-2.548.3605-.682 1.0398-1.217 1.9128-1.501.6032-.201 1.1623-.233 1.6577-.098.77.208 1.2899.785 1.5915 1.233 1.0937 1.634.9318 3.973-.385 5.564-1.0128 1.229-2.6362 1.94-4.3111 1.94z" fill="#009954"/><path d="m52.4601 212.839c-1.0619-.241-2.2341-.062-3.1512.517-.9122.574-1.3315 2.023-.5248 2.734-2.0966.285-3.7813 3.318-1.562 4.694-.8632.189-1.5205.946-1.7829 1.79-.3384 1.091-.2525 2.386.5151 3.257.1986.223 2.6337 1.809 2.7465 1.356-.179.716-.3605 1.451-.282 2.187.0981.905.6523 1.692 1.5841 1.879 1.4812.296 2.9182-1.285 3.3915-2.531.9515.657 2.4988.208 3.1854-.66.2845-.36.5223-.941.645-1.376.0882-.306.1962-1.91-.2452-2.042.7504.223 1.5768.019 2.256-.37 1.7411-1.001 2.5896-3.088 2.0697-5.064-.1839-.704-.4708-1.087-1.1182-1.447-.2133-.12-1.6798-.758-1.8661-.466.694-1.086 1.4934-2.04.5199-3.237-1.0472-1.285-2.9673-1.033-4.1468-.086-.0564.044-.1226.093-.1913.076-.0441-.012-.0736-.049-.103-.081-.5051-.588-1.1943-.964-1.9397-1.13z" fill="#173096"/><g fill="#2044d4"><path d="m51.9075 218.69c-.1643 0-.3286-.081-.4242-.228-.5174-.792-.6033-1.819-.2208-2.682.3826-.864 1.1992-1.494 2.1335-1.641.26-.049.5371.145.5812.422.0442.277-.1447.537-.4218.581-.586.093-1.1206.505-1.3634 1.049-.2403.542-.184 1.217.1422 1.715.1545.235.0883.551-.1472.703-.0858.054-.1839.081-.2795.081z"/><path d="m50.0514 224.977c-.1373 0-.2722-.054-.3728-.162-.6792-.731-1.0323-1.437-1.074-2.151-.0564-.902.5248-1.956 1.5572-2.084.2673-.037.5321.162.5664.441.0344.278-.1618.533-.4414.567-.4144.051-.694.579-.667 1.015.027.471.2918.969.8044 1.521.1912.206.1789.527-.027.718-.0981.091-.2207.135-.3458.135z"/><path d="m55.2702 222.389c-.1103 0-.2182-.005-.3261-.017-.2795-.032-.4806-.282-.4487-.562.0319-.279.2869-.488.5616-.448.591.066 1.2138-.152 1.6307-.564.4193-.412.6425-1.035.5836-1.624-.0294-.279.1766-.527.4561-.556.2551-.047.5272.174.5567.456.0907.9-.2403 1.814-.8803 2.447-.5665.554-1.3464.868-2.1336.868z"/><path d="m37.5615 110.753c-.0417 0-.0858-.005-.13-.017-.9392-.247-1.6013-1.196-1.5081-2.165s.9269-1.773 1.8956-1.837c.2869-.019.5198.196.5394.476.0172.279-.1961.522-.4757.539-.4684.03-.9049.452-.949.92-.0466.468.2992.964.7553 1.081.2698.072.434.351.3629.621-.0564.23-.2623.382-.4904.382z"/><path d="m38.8783 115.874c-.5566 0-1.1133-.165-1.5718-.476-.1128-.076-.1889-.194-.2134-.326-.0245-.133.0024-.27.0809-.383l.3556-.515c.1594-.23.4758-.289.7087-.127.2306.159.287.475.1276.708l-.0173.025c.2992.091.6155.105.9172.034.2771-.066.5469.106.6106.378.0638.272-.1055.547-.3777.61-.2059.05-.4119.072-.6204.072z"/><path d="m40.179 121.553c-.2991 0-.5615-.056-.7847-.172-.3826-.198-.6474-.588-.7087-1.049s.0908-.91.4096-1.199c.2084-.192.5297-.174.7185.032.1888.205.1741.527-.0319.718-.0711.064-.103.186-.0858.314.0171.127.0809.235.1642.279.0859.042.1962.054.3605.059.4439-.014.8828-.223 1.1722-.561.1839-.214.5052-.238.7161-.054.2133.181.2378.502.0564.716-.4709.552-1.1869.892-1.9128.915-.0294.002-.0515.002-.0736.002z"/><path d="m45.0611 119.772c-.0491 0-.1005-.007-.152-.024-.2673-.084-.4169-.368-.3336-.638.3017-.959.1055-2.047-.5076-2.842-.2501-.326-.6694-.611-.9465-.488-.26.108-.5567-.007-.667-.265-.1104-.26.0073-.556.2648-.669.8019-.336 1.6553.154 2.1531.802.8141 1.052 1.074 2.496.6743 3.766-.0687.219-.2697.358-.4855.358z"/><path d="m62.0035 83.7841s-.0049 0-.0098 0c-.4757-.0073-.9171-.3016-1.1501-.7724-.2354-.4709-.2035-1.003.0785-1.388.542-.7357 1.5842-.6597 1.9766-.6302.2795.0196.4904.2624.4683.5444-.0221.2771-.2893.4781-.5444.4683-.5934-.0466-.9441.027-1.0839.2183-.0638.0858-.0392.2281.0123.3335.0515.103.1496.2084.255.2109.2796.0025.5052.2354.5003.515 0 .2795-.2257.5002-.5028.5002z"/><path d="m59.2047 90.7401c-.3384 0-.6841-.1079-.9808-.3139-.3875-.2673-.6499-.6719-.721-1.106-.0687-.4365.0515-.9024.3359-1.2776.2845-.3752.699-.6204 1.1379-.6719.2502-.027.5297.1667.564.4463.0319.2771-.1668.5297-.4463.564-.1643.0196-.3261.1202-.4463.2747-.1177.1544-.1692.3384-.1447.5027.027.1618.1349.3212.2943.4316.1643.1128.3482.1569.5076.1226.282-.0613.5444.1226.6008.3972.0564.2747-.1226.5444-.3973.6008-.0956.0197-.1986.0295-.3041.0295z"/><path d="m63.3278 88.9379c-.2673 0-.5345-.0392-.7871-.1202-.2673-.0858-.4145-.3702-.3311-.6375.0858-.2673.3654-.4095.6376-.3311.488.157 1.0446.0638 1.4566-.2329.412-.2968.6744-.797.6842-1.3046 0-.0295 0-.0564-.0025-.0761-.1349.0074-.3703-.0932-.4634-.2746-.13-.2501-.032-.5567.2182-.6842.3654-.1839.819-.0564 1.0667.2967.1839.2624.2011.5567.1962.7553-.0147.8264-.4389 1.6357-1.1084 2.1138-.4512.3262-1.0103.4954-1.567.4954z"/></g><path d="m46.2845 96.5495c-.0907 0-.1839-.0245-.2672-.076-2.6289-1.6234-4.1272-4.8874-3.6392-7.9404.358-2.2389 1.6749-4.1983 2.9132-5.8192.2281-.2992.4611-.5959.6941-.8926 1.0373-1.3242 2.1089-2.6975 2.7882-4.2252.9073-2.0378.9146-4.1345.0196-5.6108-.8485-1.3978-2.5945-2.4988-4.343-2.7367-.9563-.1324-2.3247-.0687-3.4306.9711-.8755.8239-1.9251 1.9446-2.2439 3.2983-.2648 1.1231.1373 2.6263 1.2506 3.1021.5077.2133 1.1992.0735 1.6872-.3458.1815-.1545.591-.5763.4537-1.1329-.0662-.2722.0981-.5493.3703-.6155.2746-.0663.5469.1005.6155.3702.1913.77-.103 1.5744-.7822 2.1531-.7848.667-1.8883.873-2.7442.5052-1.6233-.6916-2.2118-2.7122-1.8415-4.2694.3825-1.616 1.5547-2.8814 2.5356-3.8034 1.0912-1.0251 2.6091-1.469 4.2644-1.2384 2.0697.282 4.0609 1.5449 5.0762 3.2173 1.0667 1.7583 1.0814 4.2081.0417 6.55-.7308 1.6405-1.8417 3.0628-2.9158 4.4385l-.6866.8853c-1.1623 1.5204-2.3958 3.3449-2.7171 5.3607-.4242 2.6582.8779 5.5003 3.1708 6.9153.2379.1471.3114.461.1642.6989-.098.1545-.2648.2403-.434.2403z" fill="#009954"/><path d="m56.9149 75.0364c-.8828 0-1.7411-.4047-2.2267-1.106-.3531-.5125-.4782-1.1746-.3457-1.8146.125-.5984.4561-1.0913.9343-1.388.233-.1521.5518-.0785.6989.1618.1496.2379.076.5518-.1619.6989-.2378.1496-.407.4096-.4757.7332-.076.3654-.0074.7504.1863 1.03.3875.5616 1.2213.8117 1.9447.5812.6915-.2207 1.2874-.851 1.5572-1.6406.2648-.7749.2133-1.6455-.1374-2.3885-.5493-1.1624-1.8931-1.9691-3.2737-1.9691-.0073 0-.0098 0-.0172 0-2.9255.0122-5.1006 2.8715-5.2257 5.4292-.0123.2796-.282.4635-.5322.4831-.2795-.0122-.4953-.2525-.483-.5321.1471-3.0138 2.744-6.3808 6.236-6.3955h.0221c1.7853 0 3.4699 1.0226 4.1933 2.5479.4635.9785.5297 2.1261.1815 3.1512-.3776 1.1059-1.2041 1.9569-2.2119 2.2806-.282.0931-.5738.1373-.8632.1373z" fill="#009954"/><path d="m52.7981 111.121c.1668-2.158-.4488-5.407 2.1334-6.43.4145-.164.8902-.208 1.2997-.034 1.1649.497 1.3365 2.084 2.6019 2.567.6989.267 1.5155.147 2.1874.478.5591-2.094.7014-3.685.0785-5.809-.6033-2.0551-1.4787-4.24-3.3449-5.2896-1.8466-1.0397-4.0167-.6817-6.0276-.9441-1.2139-.1594-2.2634-.8484-3.3718-1.3781-.7308-.3483-1.4886-.6254-2.337-.6376-1.9152-.0246-3.7152.8705-5.2209 1.9863-2.0893 1.5473-3.5533 3.8329-4.4606 6.2701.922 1.02 1.9716 1.604 3.0726 1.474.9221-.11 1.7092-.701 2.5871-1.005 1.0079-.346 1.8932-.356 2.6632.363 1.4468 1.351 1.079 2.876.1618 4.406-.9858 1.643-1.7018 2.857-1.0667 4.848.3041.952.8142 1.822 1.3218 2.683l1.1109 1.884c.0368.063.0809.132.1544.149.0662.015.1325-.02.1913-.056.6401-.378 1.2825-.753 1.9226-1.131 1.6871-.991 3.492-2.119 4.1712-3.955.1055-.29.1472-.13.1717-.439z" fill="#009954"/><path d="m68.4264 123.73c-2.0967-.306-6.2901-.677-8.1857-2.688 2.3959 3.779 8.1857 5.498 8.1857 5.498z" fill="#e8a487"/></svg>