<svg fill="none" height="160" viewBox="0 0 160 160" width="160" xmlns="http://www.w3.org/2000/svg" xmlns:xlink="http://www.w3.org/1999/xlink"><linearGradient id="a" gradientUnits="userSpaceOnUse" x1="151.539" x2="81.4885" y1="45.5029" y2="45.5029"><stop offset="0" stop-color="#00c0ff"/><stop offset="1" stop-color="#c6f1ff"/></linearGradient><path d="m44.9902 32.5032c-14.8546.0013-25.0333 9.9331-31.2207 20.8692-6.18738 10.936-8.76949 22.8437-8.7695 29.1209v20.0047h109.99v-12.4901c-4.167-.0004-8.62-2.1603-11.977-5.5174-3.3575-3.3571-5.5179-7.8304-5.5179-11.997 0-5.9167 1.1822-9.2003 2.1777-10.9425.8962-1.5528 2.8222-4.0627 2.8222-4.0627.034-6.9928.005-24.9903.005-24.9903z" fill="#539ffb"/><path d="m18.1201 55.8281c5.6778-10.0352 14.207-18.2771 26.8164-18.3056 9.5483.3883 15.0586 6.5092 15.0586 12.4756 0 5.4932 4.5117 9.9999 10.0049 9.9999 2.9928 0 5.6614-1.365 7.5-3.4718 1.8386 2.1074 4.5117 3.4718 7.5049 3.4718s5.6614-1.3644 7.5-3.4718c1.8385 2.1068 4.5071 3.4718 7.5001 3.4718s5.661-1.365 7.5-3.4718c1.833 2.106 4.493 3.4718 7.485 3.4718 5.493 0 10.005-4.5067 10.005-9.9999 0-24.1666-23.662-44.99517-49.995-44.99517-21.9363 0-39.6042 9.11667-51.6016 23.38387-11.9974 14.2671-18.3984 33.5855-18.3984 54.1087v12.5025h5l.0049-12.5025c0-4.7708 2.4276-16.6148 8.1152-26.6674z" fill="#68b1fc"/><path d="m5.00163 92.5351v54.9799c0 4.112 3.38335 7.491 7.49517 7.491h134.9952c4.112 0 7.51-3.379 7.51-7.491v-55.0142c0-1.6803-1.269-2.5086-2.53-2.4951-.031-.0005-1.591-.0189-2.475 0-7.616-.2079-10.89 5-17.5 5-6.611 0-9.884-5.2078-17.5-5-7.616-.2079-10.89 5-17.5002 5-6.6105 0-9.8838-5.2078-17.5-5-7.6163-.2079-10.8895 5-17.5 5s-9.8838-5.2078-17.5001-5c-7.6162-.2079-10.8894 5-17.4999 5s-9.8838-5.2078-17.50005-5c-.89273-.0284-2.51952-.0188-2.51952-.0188-1.39347.0473-2.49126 1.1742-2.4756 2.5482z" fill="#418ffb"/><path d="m149.997 90.0066c-2.155-.0567-3.943.3364-5.577.9034.335.4025.581.907.581 1.5917v55.0143c0 4.112-3.398 7.491-7.509 7.491h10c4.111 0 7.509-3.379 7.509-7.491v-55.0143c0-1.6804-1.269-2.5086-2.529-2.4951-.031-.0005-1.591-.0189-2.475 0z" fill="#2b84fb"/><path d="m9.99645 110.01c7.61625-.208 10.88955 5 17.50005 5s9.8837-5.208 17.5-5c7.6162-.208 10.8895 5 17.4999 5 6.6106 0 9.8838-5.208 17.5001-5 7.6162-.208 10.8894 5 17.4999 5 6.6106 0 9.8836-5.208 17.4996-5 7.617-.208 10.89 5 17.5 5 6.611 0 9.884-5.208 17.5-5 1.897-.047 5.001-.005 5.001-.005s.01 25.24.005 37.51c0 4.111-3.399 7.49-7.51 7.49h-134.9954c-4.11137 0-7.49526-3.379-7.49502-7.49 0-12.275-.005-37.51-.005-37.51s3.10382-.047 4.99987.005z" fill="#539ffb"/><path d="m154.997 110.005s-3.104-.047-5 .005c-1.895-.057-3.52.233-4.996.689v36.816c0 4.112-3.398 7.49-7.509 7.49h10c4.111 0 7.509-3.378 7.509-7.49.005-12.269-.004-37.51-.004-37.51z" fill="#418ffb"/><path d="m5.00164 147.516c-.00024 4.111 3.38365 7.49 7.49496 7.49h134.9954c4.111 0 7.51-3.379 7.51-7.49.005-12.27-.005-17.51-.005-17.51s-3.104-.047-5.001.005c-7.616-.208-10.889 5-17.5 5-6.61 0-9.883-5.208-17.5-5-7.616-.208-10.889 5-17.4996 5-6.6105 0-9.8838-5.208-17.5-5-7.6162-.208-10.8894 5-17.5 5-6.6105 0-9.8838-5.208-17.5-5-7.6162-.208-10.8895 5-17.5 5s-9.8838-5.208-17.49996-5c-1.89605-.057-4.99986-.005-4.99986-.005s.00506 5.235.00506 17.51z" fill="#68b1fc"/><path d="m154.997 130.005s-3.104-.047-5 .005c-1.895-.057-3.52.233-4.996.689v16.816c0 4.112-3.398 7.49-7.509 7.49h10c4.111 0 7.509-3.378 7.509-7.49.005-12.269-.004-17.51-.004-17.51z" fill="#539ffb"/><path d="m75 5.00293c-1.8647 0-3.6862.09435-5.4883.22001 24.4635 2.20375 45.4833 21.99886 45.4833 44.77546 0 3.6482-2.01 6.8274-4.956 8.5743 1.464.8711 3.13 1.4256 4.951 1.4256 5.493 0 10.005-4.5066 10.005-9.9999 0-24.1666-23.662-44.99547-49.995-44.99547z" fill="#539ffb"/><path d="m149.758 56.8128-6.029 1.6143 2.544 1.4675c.551.3294.95.8624 1.112 1.4838.161.6214.071 1.2814-.25 1.8372-.321.5559-.848.9629-1.467 1.1333s-1.281.0904-1.841-.2227l-2.544-1.4676 1.614 6.0292c.158.6229.064 1.2829-.261 1.837-.326.5541-.856.9576-1.477 1.1233s-1.282.0801-1.84-.2382-.969-.8437-1.142-1.4624l-2.887-10.7377-.868-.5136 1.615 6.0292c.158.6232.064 1.2837-.261 1.8383s-.856.9586-1.477 1.1243c-.622.1658-1.283.08-1.841-.2388-.559-.3188-.969-.8448-1.142-1.4641l-2.886-10.7377-9.54-5.5156v11.019l7.876 7.8637c.448.4613.695 1.08.69 1.7225s-.262 1.2573-.716 1.7116c-.455.4543-1.07.7118-1.712.7168s-1.261-.2428-1.723-.6899l-4.414-4.4149v1.0151l7.876 7.8637c.446.4615.693 1.08.688 1.7222s-.263 1.2566-.717 1.7107-1.068.7115-1.71.7167c-.643.0053-1.261-.2421-1.723-.6888l-4.414-4.4148v2.9352c-.007.6445-.267 1.2604-.725 1.7139s-1.077.7079-1.721.7079c-.645 0-1.264-.2544-1.722-.708-.458-.4535-.718-1.0694-.724-1.7139v-2.9351l-4.403 4.4149c-.346.3351-.782.5617-1.255.6517s-.963.0396-1.407-.1451c-.445-.1846-.826-.4954-1.096-.8941-.27-.3986-.418-.8676-.425-1.3491.001-.3209.064-.6385.188-.9345s.306-.5645.534-.7899l7.864-7.8637v-1.0151l-4.403 4.415c-.461.4474-1.08.6954-1.723.6905-.642-.0049-1.257-.2624-1.712-.7169-.454-.4544-.712-1.0693-.717-1.7119-.005-.6427.243-1.2615.691-1.7228l7.864-7.8637v-11.019l-9.393 5.43-2.886 10.75c-.175.6193-.586 1.1449-1.146 1.4626-.559.3177-1.2217.402-1.843.2346s-1.1516-.573-1.4758-1.1289c-.3242-.5558-.4162-1.217-.256-1.8402l1.6144-6.017-.8683.5015-2.8862 10.7498c-.1758.618-.5878 1.142-1.1468 1.4585-.5591.3166-1.2203.4004-1.8407.2333-.6204-.1672-1.15-.5718-1.4743-1.1264-.3244-.5546-.4174-1.2146-.2589-1.8372l1.6143-6.0171-2.6783 1.541c-.5605.3136-1.2219.3941-1.8413.2238-.6193-.1702-1.1468-.5774-1.4682-1.1335s-.411-1.2164-.2494-1.838c.1616-.6217.5614-1.1547 1.113-1.4839l2.6783-1.5531-6.0293-1.6143c-.6171-.1765-1.1401-.5886-1.456-1.1474s-.3994-1.2194-.2324-1.8392.571-1.1491 1.1249-1.4735 1.2131-.418 1.8354-.2606l10.75 2.8862.8682-.5136-6.017-1.6143c-.619-.1733-1.1448-.5835-1.4635-1.1418-.3186-.5584-.4043-1.2197-.2386-1.8408s.5696-1.1519 1.124-1.4772c.5544-.3254 1.2146-.4192 1.8377-.261l10.7498 2.8862 9.393-5.4299-9.393-5.43-10.7497 2.8861c-.6214.1533-1.2781.0567-1.829-.269-.551-.3258-.9521-.8548-1.1171-1.4732s-.0808-1.2769.2346-1.8338c.3153-.557.8367-.9679 1.4518-1.1446l6.017-1.6143-.8682-.5136-10.75 2.8862c-.4656.1166-.9552.0947-1.4085-.0633-.4533-.1579-.8506-.4448-1.143-.8256-.2923-.3807-.467-.8386-.5026-1.3173s.0695-.9573.3024-1.3771c.1573-.2796.3694-.5244.6237-.7199s.5455-.3374.8561-.4174l6.0293-1.6144-2.6783-1.5532c-.5612-.3243-.9705-.8583-1.1379-1.4844-.1674-.6262-.0793-1.2932.2451-1.8543.3243-.5611.8583-.9704 1.4844-1.1379.6262-.1674 1.2932-.0792 1.8543.2451l2.6783 1.541-1.6143-6.017c-.1588-.6228-.066-1.2829.2584-1.8378.3243-.5548.854-.9595 1.4745-1.1267s1.2819-.0833 1.8411.2334c.5591.3168.9711.841 1.1466 1.4592l2.8863 10.7499.8682.5014-1.6143-6.017c-.1592-.6229-.0667-1.2835.2576-1.8387.3242-.5552.8542-.9603 1.475-1.1275.6208-.1673 1.2822-.0833 1.8422.2339.559.3171.971.8418 1.146 1.4604l2.886 10.7499 9.393 5.43v-10.86l-7.864-7.8637c-.448-.4611-.697-1.0802-.693-1.7233.005-.6431.263-1.2586.717-1.7134.455-.4547 1.071-.7122 1.714-.7168.643-.0045 1.262.2442 1.723.6925l4.403 4.415v-1.0151l-7.864-7.8637c-.451-.4607-.701-1.0805-.697-1.7248.003-.6443.261-1.2612.716-1.7168.456-.4556 1.073-.7132 1.717-.7168.645-.0036 1.264.247 1.725.6974l4.403 4.4149v-3.0941c.007-.6436.268-1.2582.726-1.7106.458-.4523 1.076-.706 1.72-.706.643 0 1.261.2537 1.719.706.458.4524.719 1.067.726 1.7106v3.0941l4.415-4.4149c.345-.3351.781-.5617 1.253-.6516.473-.09.961-.0394 1.405.1455.444.1848.824.4958 1.093.8944.269.3987.415.8674.42 1.3483.002.3201-.06.6374-.182.9335-.121.296-.301.5649-.528.7909l-7.876 7.8637v1.0151l4.415-4.415c.462-.4472 1.08-.695 1.723-.6899.642.005 1.257.2625 1.711.7168.455.4543.712 1.069.717 1.7115s-.243 1.2612-.69 1.7226l-7.876 7.8637v10.86l9.54-5.5156 2.886-10.7376c.173-.6189.583-1.1444 1.142-1.4629.558-.3184 1.219-.404 1.84-.2384.621.1657 1.152.5694 1.477 1.1236s.419 1.2143.262 1.8373l-1.615 6.0292.868-.5136 2.887-10.7377c.174-.6182.584-1.1432 1.142-1.4611.558-.318 1.219-.4034 1.839-.2379.621.1656 1.151.5689 1.477 1.1226.325.5537.42 1.2133.262 1.8361l-1.614 6.0292 2.544-1.4676c.56-.3111 1.22-.3897 1.838-.2188s1.144.5776 1.464 1.1325c.321.5549.411 1.2136.251 1.8342-.16.6205-.558 1.1534-1.107 1.4836l-2.544 1.4676 6.029 1.6143c.615.1788 1.135.5914 1.448 1.1493.314.5578.396 1.2164.23 1.8344-.167.6179-.569 1.146-1.12 1.4707-.552.3248-1.208.4204-1.83.2663l-10.75-2.874-.868.5014 6.017 1.6143c.621.1717 1.149.5816 1.469 1.1405.32.559.407 1.2218.241 1.8441-.166.6224-.572 1.154-1.128 1.4791-.556.3252-1.218.4175-1.841.257l-10.75-2.874-9.54 5.5034 9.54 5.5034 10.75-2.874c.624-.1609 1.286-.0687 1.842.2564s.962.8569 1.128 1.4795c.166.6225.079 1.2855-.241 1.8446-.32.559-.849.9689-1.47 1.1402l-6.017 1.6143.868.5015 10.75-2.874c.207-.0593.421-.0881.636-.0856.589.008 1.154.2274 1.594.6182.44.3907.724.9267.802 1.51.077.5832-.058 1.1748-.382 1.6665-.323.4917-.812.8508-1.378 1.0115z" fill="url(#a)"/></svg>