<svg fill="none" height="1080" viewBox="0 0 1920 1080" width="1920" xmlns="http://www.w3.org/2000/svg" xmlns:xlink="http://www.w3.org/1999/xlink"><clipPath id="a"><path d="m-40-10h1966v1180h-1966z"/></clipPath><g clip-path="url(#a)"><g fill="#f9e1b0" fill-opacity=".75" opacity=".5"><path d="m942.513 577.552 983.487-256.719v509.239z"/><path d="m943.488 578.654 186.272 591.346h-366.108z"/><path d="m1797.16 1166.19-237.59-1.09h-136.82l-479.263-586.446z"/><path d="m941.537 577.552-201.214-586.30907 389.437-1.24293z"/><path d="m1402.89-8.92773h141.82l245.74.1711-847.419 586.33963z"/><path d="m943.488 578.328-983.488-256.719v509.237z"/><path d="m88.6333 1170h373.0917l480.787-590.568z"/><path d="m483.113-8.15137h-141.827l-245.7381.1711 847.4211 586.34027z"/></g><g fill="#fff"><path d="m1572.8 450.819c.78 2.365 1.19 4.85 1.19 7.411v38.551c-216.17.631-433.11 11.466-649.16 9.164-31.986-.341-82.959-.555-147.841 1.961v-47.179c44.999-2.573 68.743-3.828 72.449-3.746 98.932 2.29 198.302-.801 397.052-6.981 0 0 94.49-2.939 326.31.819z" opacity=".27"/><path d="m777 461v46.988c-19.787 1.401-41.962 3.668-66.033 7.261-31.015 4.623-56.223 10.106-72.322 13.919-35.051 17.173-41.383 14.729-42.448 11.595-2.354-6.934 16.773-29.878 35.005-44.507 27.754-22.266 53.642-25.432 71.905-27.385 31.194-3.343 55.733-5.968 73.893-7.871z" opacity=".27"/><path d="m1573 451c42.39 1.513 94.95 4.117 158.95 8.455 2.94.194 13.57 1.167 22.26 13.902 6.1 8.957 11.7 24.403 9.16 32.444-2.68 8.504-13.6 6.006-16.91 5.341-57.42-11.574-115.11-14.762-172.92-14.398v-38.369c0-2.548-.19-5.021-.54-7.375z" opacity=".27"/></g></g></svg>