<svg fill="none" height="44" viewBox="0 0 44 44" width="44" xmlns="http://www.w3.org/2000/svg" xmlns:xlink="http://www.w3.org/1999/xlink"><clipPath id="a"><path d="m0 0h44v44h-44z"/></clipPath><g clip-path="url(#a)"><path d="m35.4397 32.2413-32.75869 10.9465c-.26029.0872-.53972.1-.80691.0371-.26719-.0628-.51155-.199-.70565-.3931-.194091-.1941-.330224-.4384-.393107-.7056s-.050024-.5466.037133-.8069l10.946424-32.75875z" fill="#e02626"/><path d="m35.4398 32.2418s-4.8246-1.0926-13.7016-9.9784c-8.6416-8.6336-9.9176-13.44936-9.9784-13.70089v-.0088s4.8334 1.0934 13.7133 9.97329c8.8799 8.88 9.9667 13.7148 9.9667 13.7148z" fill="#bd0034"/><path d="m14.2708 39.3132-4.8547 1.6206c-1.01934-.9093-2.10467-1.9286-3.26334-3.0873-1.15866-1.1587-2.178-2.244-3.08733-3.2633l1.62067-4.8547c1.232 1.4887 2.73533 3.1533 4.58333 5.0013 1.84797 1.848 3.51267 3.3514 5.00137 4.5834z" fill="#f78401"/><path d="m27.4852 34.8993-5.214 1.738c-2.8676-2.0598-5.5496-4.3663-8.0153-6.8933-2.527-2.4658-4.83358-5.1478-6.89335-8.0154l1.738-5.214c2.34235 3.6901 5.11955 7.0853 8.27195 10.1127 3.0274 3.1524 6.4227 5.9297 10.1127 8.272z" fill="#f89f00"/><path d="m18.7241 14.9647c-.145-.0001-.2867-.0431-.4073-.1237-.1206-.0805-.2145-.1951-.27-.329-.0555-.134-.07-.2814-.0418-.4237.0283-.1422.0982-.2729.2007-.3754 1.4336-1.3527 2.3804-3.1409 2.6934-5.08687.3129-1.94601-.0255-3.9409-.9628-5.67482-.0561-.08263-.0948-.17586-.1136-.27398-.0189-.09812-.0174-.19905.0041-.2966.0216-.09755.0629-.18966.1213-.27068.0585-.08103.1329-.14925.2186-.20049.0858-.05124.1811-.08442.2802-.09749.099-.01307.1997-.00577.2958.02146.0962.02723.1857.07382.2632.1369.0775.06309.1412.14134.1874.22995 1.0996 2.01595 1.5044 4.33803 1.1518 6.60714-.3526 2.26908-1.443 4.35888-3.1025 5.94608-.0682.0676-.1491.1211-.2381.1574-.089.0362-.1843.0545-.2804.0538z" fill="#2167d8"/><path d="m17.4973 7.60189c-.1944-.00005-.3809-.07734-.5184-.21487l-1.2276-1.22687c-.0681-.06813-.1221-.14901-.1589-.23801-.0369-.08901-.0558-.18439-.0558-.28071.0001-.09633.0191-.1917.056-.28068.0368-.08897.0909-.16981.159-.2379.1376-.1375.3242-.21472.5188-.21465.0963.00004.1917.01904.2806.05594.089.03689.1698.09094.2379.15908l1.2269 1.22687c.1025.10255.1723.23321.2006.37544s.0138.28965-.0417.42363-.1495.2485-.27.32909c-.1206.08058-.2623.1236-.4074.12364z" fill="#23af6f"/><path d="m26.0868 6.37517c-.1944 0-.381-.07726-.5185-.21478-.1375-.13753-.2148-.32406-.2148-.51855v-1.22687c0-.19449.0773-.38101.2148-.51854s.3241-.21479.5185-.21479c.1945 0 .3811.07726.5186.21479s.2148.32405.2148.51854v1.22687c0 .19449-.0773.38102-.2148.51855-.1375.13752-.3241.21478-.5186.21478z" fill="#d3374e"/><path d="m27.3144 11.284h-1.2276c-.1944 0-.381-.0772-.5185-.2147-.1375-.1376-.2148-.3241-.2148-.5186s.0773-.381.2148-.5185c.1375-.13756.3241-.21482.5185-.21482h1.2276c.1945 0 .3811.07726.5186.21482.1375.1375.2148.324.2148.5185s-.0773.381-.2148.5186c-.1375.1375-.3241.2147-.5186.2147z" fill="#23af6f"/><path d="m29.7681 26.0085c-.145 0-.2868-.043-.4073-.1236-.1206-.0806-.2146-.1951-.2701-.3291s-.07-.2814-.0417-.4236c.0283-.1423.0981-.2729.2006-.3755 1.5874-1.6595 3.6772-2.7499 5.9465-3.1025 2.2692-.3526 4.5914.0522 6.6075 1.1519.1602.103.274.2642.3174.4497.0434.1854.013.3805-.0849.5439-.0978.1634-.2554.2823-.4394.3316-.1839.0492-.3798.025-.5463-.0676-1.7298-.9546-3.7293-1.3029-5.6799-.9894-1.9507.3135-3.7404 1.2708-5.0839 2.7194-.1375.1375-.324.2148-.5185.2148z" fill="#2167d8"/><path d="m38.3587 28.4628c-.1944.0002-.3809-.0768-.5185-.2141l-1.2276-1.2276c-.1336-.1383-.2075-.3235-.2058-.5158.0016-.1923.0788-.3762.2147-.5122.136-.136.3199-.2131.5122-.2148.1923-.0016.3775.0723.5158.2059l1.2276 1.2268c.1026.1026.1724.2333.2007.3755.0282.1422.0137.2896-.0418.4236s-.1494.2485-.27.3291-.2623.1236-.4073.1236z" fill="#23af6f"/><path d="m39.5847 18.6464h-1.2261c-.1945 0-.381-.0773-.5186-.2148-.1375-.1376-.2148-.3241-.2148-.5186s.0773-.381.2148-.5185c.1376-.1376.3241-.2148.5186-.2148h1.2261c.1945 0 .381.0772.5186.2148.1375.1375.2147.324.2147.5185s-.0772.381-.2147.5186c-.1376.1375-.3241.2148-.5186.2148z" fill="#d3374e"/><path d="m33.4496 18.6464c-.1945 0-.381-.0772-.5185-.2148-.1375-.1375-.2148-.324-.2148-.5185v-1.2276c0-.1945.0773-.381.2148-.5186.1375-.1375.324-.2148.5185-.2148s.3811.0773.5186.2148c.1375.1376.2148.3241.2148.5186v1.2276c0 .1945-.0773.381-.2148.5185-.1375.1376-.3241.2148-.5186.2148z" fill="#d3374e"/><path d="m27.3145 16.1922c-.145 0-.2868-.043-.4074-.1236-.1205-.0806-.2145-.1951-.27-.3291s-.07-.2814-.0417-.4236c.0283-.1423.0981-.2729.2006-.3755.3097-.3005.681-.5301 1.0882-.6729.4073-.1429.8406-.1955 1.2702-.1543h.0161c.2334.0384.4725.0225.6987-.0464.2263-.0689.4336-.1891.6059-.351.1634-.1747.2842-.3846.3532-.6136.0689-.2289.0841-.4707.0443-.7064-.0474-.4302.0025-.8655.1458-1.2738.1434-.4083.3767-.7792.6826-1.0853.306-.30604.6767-.53949 1.085-.68306.4082-.14357.8435-.19361 1.2737-.14641.2369.04764.482.03599.7134-.03394.2314-.06992.4419-.19595.6128-.36686.1709-.17092.2969-.38142.3668-.6128.07-.23137.0816-.47644.034-.7134-.0409-.42995.0121-.86364.1553-1.27109s.3732-.77894.6741-1.08878c.0674-.07142.1486-.12856.2386-.16801.09-.03946.1869-.06043.2852-.06167.0982-.00124.1957.01728.2867.05445.0909.03717.1735.09224.2427.16194.0693.06969.1238.1526.1604.24378.0366.09119.0545.1888.0527.28703-.0019.09824-.0235.1951-.0635.28483-.0401.08973-.0977.1705-.1696.23752-.1633.17469-.2842.38458-.3535.61345s-.0851.47061-.0461.70655c.0473.43035-.0027.86583-.1463 1.27428-.1435.40846-.377.77945-.6831 1.08559-.3062.3061-.6772.5396-1.0856.6832-.4085.1435-.8439.1935-1.2743.1462-.2364-.0476-.4809-.0359-.7117.034s-.4407.1958-.611.3665c-.1704.1707-.2958.3809-.3652.6118s-.0805.4755-.0325.7118c.0416.4295-.0109.863-.1537 1.2703-.1429.4073-.3727.7786-.6735 1.0881-.3109.2987-.6824.5272-1.0893.6699s-.8397.1963-1.2691.1573h-.0169c-.2332-.0386-.4722-.0228-.6984.0461s-.4334.1892-.6054.3513c-.0681.0683-.1491.1226-.2381.1596-.0891.037-.1847.056-.2811.056z" fill="#bf2cba"/><g fill="#d3374e"><path d="m29.769 7.60151c-.1205.00005-.2392-.0296-.3455-.08633-.1063-.05672-.197-.13878-.2641-.2389-.0671-.10013-.1084-.21524-.1204-.33515s.0057-.24093.0517-.35236c.3895-.86556.5934-1.80309.5987-2.75224.0053-.94914-.1881-1.88889-.5679-2.75876-.0918-.171538-.1117-.372521-.0553-.558733.0563-.186211.1844-.342396.3559-.4341961.1716-.09180023.3726-.1116958.5588-.0553099.1862.056386.3424.184435.4342.355977.4816 1.061202.7334 2.212222.739 3.377582.0055 1.16536-.2353 2.31874-.7068 3.38448-.0553.13436-.1494.24924-.2701.33006-.1208.08082-.2629.12394-.4082.12388z"/><path d="m37.1308 14.964c-.1699.0002-.3346-.0586-.4659-.1664-.1314-.1078-.2212-.2578-.2542-.4245s-.0071-.3397.0733-.4893c.0804-.1497.2103-.2669.3674-.3314 1.0658-.472 2.2193-.7131 3.3849-.7076 1.1655.0056 2.3167.2577 3.3779.7398.1716.0918.2996.248.356.4342s.0365.3872-.0553.5588c-.0918.1715-.248.2996-.4342.3559-.1862.0564-.3872.0365-.5587-.0553-.87-.3801-1.8099-.5737-2.7592-.5684s-1.887.2094-2.7526.5992c-.0887.0363-.1836.055-.2794.055z"/></g></g></svg>