<svg fill="none" height="44" viewBox="0 0 44 44" width="44" xmlns="http://www.w3.org/2000/svg" xmlns:xlink="http://www.w3.org/1999/xlink"><clipPath id="a"><path d="m0 0h44v44h-44z"/></clipPath><g clip-path="url(#a)"><path d="m22.0017 43.9966c12.1493 0 21.9983-9.849 21.9983-21.9983 0-12.14933-9.849-21.9983-21.9983-21.9983-12.14932 0-21.99828203 9.84897-21.99828203 21.9983 0 12.1493 9.84896203 21.9983 21.99828203 21.9983z" fill="#f4d44e"/><path d="m14.8438 38.8315c-13.875459-8.011-14.718056-27.6283-1.8849-36.88716-4.06281 1.82794-7.61041 4.90208-10.00808 9.05486-6.07454 10.5215-2.469611 23.9754 8.05188 30.0499 7.7429 4.4704 17.0736 3.6981 23.8829-1.2146-6.2305 2.8033-13.6731 2.674-20.0418-1.003z" fill="#e8c842"/><g fill="#656566"><path d="m25.91 33.0758c-1.5222-3.3645-6.2989-3.3402-7.8169.0008-.152.3346-.5464.4825-.881.3306-.3345-.1519-.4824-.5463-.3306-.8809 2.0127-4.4314 8.2747-4.3445 10.2408.0009.1514.3348.0028.729-.3319.8804-.334.1513-.7287.0035-.8804-.3318z"/><path d="m32.0969 16.5808c-1.1349-1.0854-2.566-1.6647-4.031-1.6367-.3675.0032-.6713-.2842-.6787-.6516-.0075-.3673.2842-.6712.6516-.6787 1.8187-.0391 3.5867.6752 4.9777 2.0055.2656.2539.2749.675.021.9405-.2536.2654-.6748.2751-.9406.021z"/><path d="m10.9659 16.5596c-.254-.2654-.2446-.6866.0209-.9405 1.3911-1.3304 3.1599-2.0421 4.9778-2.0054.3673.0074.6591.3112.6516.6787-.0075.3673-.3088.659-.6787.6515-1.4648-.0297-2.8961.5514-4.031 1.6367-.2648.2535-.6861.2452-.9406-.021z"/><path d="m28.2561 24.1516c1.0598 0 1.919-.8592 1.919-1.9191 0-1.0598-.8592-1.919-1.919-1.919-1.0599 0-1.9191.8592-1.9191 1.919 0 1.0599.8592 1.9191 1.9191 1.9191z"/></g><path d="m28.2565 22.2329c-.355-.6147-.3293-1.3435.0008-1.9175-.3264-.0004-.6573.0806-.9603.2556-.9179.53-1.2323 1.7036-.7024 2.6214.5299.9179 1.7036 1.2323 2.6214.7024.303-.1749.5387-.4209.7015-.7038-.6622-.001-1.3061-.3433-1.661-.9581z" fill="#4f4f51"/><path d="m15.7474 24.1525c1.0599 0 1.9191-.8591 1.9191-1.919s-.8592-1.919-1.9191-1.919c-1.0598 0-1.919.8591-1.919 1.919s.8592 1.919 1.919 1.919z" fill="#656566"/><path d="m15.747 22.2329c-.355-.6147-.3294-1.3435.0008-1.9175-.3264-.0004-.6573.0806-.9603.2556-.9179.53-1.2324 1.7036-.7024 2.6214.5299.9179 1.7036 1.2323 2.6213.7024.3031-.1749.5387-.4209.7016-.7038-.6622-.001-1.3061-.3433-1.661-.9581z" fill="#4f4f51"/></g></svg>