<svg fill="none" height="44" viewBox="0 0 44 44" width="44" xmlns="http://www.w3.org/2000/svg"><path d="m22 44c12.1503 0 22-9.8497 22-22 0-12.15026-9.8497-22-22-22-12.15026 0-22 9.84974-22 22 0 12.1503 9.84974 22 22 22z" fill="#ffda24"/><path d="m44 22c0 12.1498-9.8502 22-22 22-12.14984 0-22-9.8502-22-22 0-.8723.0507031-1.7325.149531-2.5781 1.276169 10.9347 10.572869 19.4219 21.850469 19.4219s20.5743-8.4872 21.8505-19.4219c.0988.8456.1495 1.7058.1495 2.5781z" fill="#ffc024"/><path d="m13.4252 19.5415h17.1505c1.3148 0 2.3822 1.0673 2.3822 2.3822v.0421c0 6.0242-4.8907 10.9149-10.9149 10.9149h-.0421c-6.0475 0-10.9571-4.9096-10.9571-10.957 0-1.3149 1.0674-2.3822 2.3822-2.3822z" fill="#473535"/><path d="m28.7718 30.5603c-1.8545 1.4532-4.1903 2.3203-6.7297 2.3203h-.0421c-2.5515 0-4.8985-.8714-6.7607-2.3341 1.5288-2.0711 3.9883-3.4152 6.7607-3.4152 2.7723 0 5.243 1.3493 6.7718 3.429z" fill="#ff7e27"/><path d="m31.7659 19.8613v.6334c0 1.5778-1.2796 2.8582-2.8583 2.8582h-13.8153c-1.5787 0-2.8583-1.2804-2.8583-2.8582v-.6334c.3506-.2028.7571-.3188 1.1911-.3188h17.1505c.4332 0 .8405.116 1.1911.3188z" fill="#fff"/><g fill="#ff7e27"><path d="m35.866.766735.5165 4.705075c.0309.28102.1985.52938.4468.66344l4.1689 2.24125c.6273.33774.5955 1.24781-.0542 1.54l-4.3149 1.9456c-.2578.116-.4417.3524-.4924.6299l-.8439 4.657c-.1272.7013-1.0029.9522-1.4816.4245l-3.1831-3.5028c-.1899-.2097-.471-.3119-.752-.2733l-4.6896.6368c-.7055.0963-1.2151-.6591-.8619-1.2779l2.3469-4.10949c.1401-.24578.1504-.54484.0275-.79922l-2.0547-4.26335c-.3094-.64196.2518-1.35954.9487-1.2143l4.6338.9625c.2767.05758.5646-.02492.7691-.22086l3.422-3.271641c.5148-.492422 1.3707-.1804692 1.4481.526796z"/><path d="m8.13398.766735-.51648 4.705075c-.03094.28102-.19852.52938-.44687.66344l-4.16883 2.24125c-.62735.33774-.59555 1.24781.05414 1.54l4.31492 1.9456c.25781.116.44172.3524.49242.6299l.84391 4.657c.12719.7013 1.00289.9522 1.48151.4245l3.1832-3.5028c.1899-.2097.4709-.3119.7519-.2733l4.6896.6368c.7056.0963 1.2152-.6591.862-1.2779l-2.347-4.10949c-.14-.24578-.1504-.54484-.0275-.79922l2.0548-4.26335c.3094-.64196-.2518-1.35954-.9487-1.2143l-4.6338.9625c-.2767.05758-.5646-.02492-.7691-.22086l-3.42207-3.271641c-.51476-.492422-1.3707-.1804692-1.44805.526796z"/></g></svg>