<svg width="1675" height="906" viewBox="0 0 1675 906" fill="none" xmlns="http://www.w3.org/2000/svg">
<path d="M139.609 225.362L63.4764 283.529C63.4764 283.529 59.0545 286.807 57.2966 283.837C57.2966 283.837 55.0149 280.816 60.3638 277.656L139.609 225.362Z" fill="#F05A28"/>
<path d="M139.609 225.362L87.9607 306.062C87.9607 306.062 84.927 310.655 82.2607 308.464C82.2607 308.464 79.0826 306.405 83.028 301.606L139.609 225.362Z" fill="#F05A28"/>
<path d="M139.609 225.362L118.676 318.86C118.676 318.86 117.395 324.213 114.142 323.066C114.142 323.066 110.45 322.218 112.517 316.36L139.609 225.362Z" fill="#F05A28"/>
<path d="M139.609 225.362L151.916 320.379C151.916 320.379 152.544 325.849 149.094 325.884C149.094 325.884 145.335 326.35 145.273 320.138L139.609 225.362Z" fill="#F05A28"/>
<path d="M139.609 225.362L183.671 310.439C183.671 310.439 186.132 315.364 182.9 316.578C182.9 316.578 179.53 318.3 177.344 312.485L139.609 225.362Z" fill="#F05A28"/>
<path d="M139.609 225.362L210.111 290.237C210.111 290.237 214.108 294.024 211.486 296.269C211.486 296.269 208.909 299.042 204.867 294.324L139.609 225.362Z" fill="#F05A28"/>
<path d="M139.609 225.362L228.048 262.211C228.048 262.211 233.099 264.404 231.404 267.409C231.404 267.409 229.928 270.895 224.518 267.844L139.609 225.362Z" fill="#F05A28"/>
<path d="M139.609 225.362L235.317 229.74C235.317 229.74 240.813 230.073 240.249 233.476C240.249 233.476 240.056 237.259 233.927 236.242L139.609 225.362Z" fill="#F05A28"/>
<path d="M139.609 225.362L231.043 196.743C231.043 196.743 236.32 195.174 236.956 198.566C236.956 198.566 238.065 202.186 231.959 203.328L139.609 225.362Z" fill="#F05A28"/>
<path d="M139.609 225.363L215.741 167.195C215.741 167.195 220.162 163.918 221.92 166.888C221.92 166.888 224.2 169.909 218.852 173.07L139.609 225.363Z" fill="#F05A28"/>
<path d="M139.609 225.362L191.255 144.666C191.255 144.666 194.29 140.073 196.956 142.262C196.956 142.262 200.133 144.321 196.19 149.121L139.609 225.362Z" fill="#F05A28"/>
<path d="M139.609 225.362L160.541 131.867C160.541 131.867 161.821 126.514 165.076 127.66C165.076 127.66 168.765 128.507 166.701 134.366L139.609 225.362Z" fill="#F05A28"/>
<path d="M139.609 225.362L127.299 130.345C127.299 130.345 126.673 124.876 130.123 124.839C130.123 124.839 133.88 124.374 133.945 130.586L139.609 225.362Z" fill="#F05A28"/>
<path d="M139.609 225.362L95.5451 140.287C95.5451 140.287 93.0849 135.363 96.3147 134.146C96.3147 134.146 99.6861 132.423 101.872 138.24L139.609 225.362Z" fill="#F05A28"/>
<path d="M139.609 225.362L69.104 160.488C69.104 160.488 65.1084 156.702 67.7283 154.455C67.7283 154.455 70.3071 151.684 74.3505 156.402L139.609 225.362Z" fill="#F05A28"/>
<path d="M139.609 225.363L51.1667 188.515C51.1667 188.515 46.1173 186.324 47.8107 183.316C47.8107 183.316 49.2859 179.83 54.6984 182.881L139.609 225.363Z" fill="#F05A28"/>
<path d="M139.609 225.362L43.8977 220.985C43.8977 220.985 38.4029 220.652 38.9669 217.249C38.9669 217.249 39.1601 213.466 45.2902 214.482L139.609 225.362Z" fill="#F05A28"/>
<path d="M139.609 225.362L48.1736 253.984C48.1736 253.984 42.8955 255.551 42.2612 252.159C42.2612 252.159 41.15 248.539 47.2576 247.399L139.609 225.362Z" fill="#F05A28"/>
<path d="M139.608 225.362L74.6729 258.994C74.6729 258.994 70.9136 260.871 69.9871 258.405C69.9871 258.405 68.6726 255.834 73.1111 254.165L139.608 225.362Z" fill="#D6DE23"/>
<path d="M139.609 225.362L2.71323 240.964C2.71323 240.964 0.0220504 241.273 0.00387325 239.573C0.00387325 239.573 -0.224771 237.727 2.83139 237.696L139.609 225.362Z" fill="#ADADDF"/>
<path d="M139.609 225.362L44.769 325.309C44.769 325.309 42.9068 327.275 41.8009 325.986C41.8009 325.986 40.438 324.718 42.759 322.73L139.609 225.362Z" fill="#ADADDF"/>
<path d="M139.609 225.362L131.202 362.886C131.202 362.886 131.038 365.59 129.362 365.314C129.362 365.314 127.504 365.218 128.004 362.203L139.609 225.362Z" fill="#ADADDF"/>
<path d="M139.609 225.362L221.567 336.116C221.567 336.116 223.18 338.292 221.719 339.159C221.719 339.159 220.233 340.28 218.68 337.649L139.609 225.362Z" fill="#ADADDF"/>
<path d="M139.609 225.362L273.585 257.523C273.585 257.523 276.218 258.152 275.655 259.754C275.655 259.754 275.238 261.568 272.357 260.552L139.609 225.362Z" fill="#ADADDF"/>
<path d="M139.609 225.362L262.913 163.88C262.913 163.88 265.336 162.669 265.933 164.259C265.933 164.259 266.78 165.917 263.919 166.991L139.609 225.362Z" fill="#ADADDF"/>
<path d="M139.609 225.362L194.545 99.006C194.545 99.006 195.624 96.5219 197.104 97.3557C197.104 97.3557 198.818 98.0813 197.316 100.742L139.609 225.362Z" fill="#ADADDF"/>
<path d="M139.609 225.362L100.473 93.256C100.473 93.256 99.7006 90.6586 101.37 90.3458C101.37 90.3458 103.15 89.8009 103.71 92.8035L139.609 225.362Z" fill="#ADADDF"/>
<path d="M139.609 225.363L24.7125 149.319C24.7125 149.319 22.4523 147.825 23.53 146.513C23.53 146.513 24.5422 144.952 26.9019 146.892L139.609 225.363Z" fill="#ADADDF"/>
<path d="M139.608 225.362L111.482 292.866C111.482 292.866 109.81 296.72 107.515 295.427C107.515 295.427 104.853 294.3 107.181 290.169L139.608 225.362Z" fill="#D6DE23"/>
<path d="M139.609 225.362L161.453 295.151C161.453 295.151 162.65 299.18 160.06 299.664C160.06 299.664 157.299 300.512 156.427 295.85L139.609 225.362Z" fill="#D6DE23"/>
<path d="M139.609 225.362L201.2 264.782C201.2 264.782 204.708 267.099 203.036 269.135C203.036 269.135 201.463 271.558 197.801 268.549L139.609 225.362Z" fill="#D6DE23"/>
<path d="M139.609 225.363L212.129 215.97C212.129 215.97 216.304 215.49 216.332 218.126C216.332 218.126 216.685 220.991 211.945 221.04L139.609 225.363Z" fill="#D6DE23"/>
<path d="M139.609 225.363L189.124 171.552C189.124 171.552 192.014 168.5 193.729 170.501C193.729 170.501 195.842 172.469 192.242 175.554L139.609 225.363Z" fill="#D6DE23"/>
<path d="M139.609 225.362L142.951 152.313C142.951 152.313 143.203 148.116 145.803 148.547C145.803 148.547 148.686 148.697 147.913 153.375L139.609 225.362Z" fill="#D6DE23"/>
<path d="M139.609 225.362L95.2128 167.254C95.2128 167.254 92.7082 163.877 94.977 162.537C94.977 162.537 97.2831 160.798 99.6954 164.879L139.609 225.362Z" fill="#D6DE23"/>
<path d="M139.609 225.361L68.2476 209.386C68.2476 209.386 64.1587 208.408 65.036 205.924C65.036 205.924 65.6827 203.108 70.1557 204.684L139.609 225.361Z" fill="#D6DE23"/>
<path d="M24.8781 197.496L22.4605 194.38L26.2423 195.496L26.3925 191.555L28.5728 194.84L31.221 191.918L30.7794 195.837L34.6861 195.3L31.8294 198.019L35.1668 200.118L31.2315 200.364L32.4388 204.117L29.2655 201.776L27.7769 205.429L26.8513 201.595L23.3641 203.435L25.1187 199.904L21.2646 199.072L24.8781 197.496Z" fill="#F6F0AC"/>
<path d="M33.8081 277.762L29.9541 276.93L33.5685 275.353L31.1509 272.239L34.9323 273.353L35.0815 269.413L37.2628 272.697L39.9104 269.776L39.4694 273.694L43.3756 273.157L40.5198 275.876L43.8568 277.975L39.9205 278.221L41.1273 281.976L37.9554 279.634L36.4668 283.285L35.5407 279.453L32.0541 281.293L33.8081 277.762Z" fill="#F6F0AC"/>
<path d="M92.2434 333.51L88.7557 335.35L90.5103 331.819L86.6572 330.986L90.2702 329.41L87.8517 326.296L91.6339 327.41L91.7846 323.47L93.9654 326.755L96.6126 323.833L96.1715 327.751L100.077 327.215L97.2206 329.934L100.558 332.033L96.6226 332.279L97.8295 336.033L94.6576 333.692L93.169 337.343L92.2434 333.51Z" fill="#F6F0AC"/>
<path d="M172.841 338.653L171.353 342.305L170.427 338.472L166.939 340.313L168.694 336.781L164.84 335.951L168.454 334.372L166.037 331.257L169.818 332.372L169.968 328.433L172.148 331.717L174.796 328.796L174.355 332.715L178.262 332.177L175.404 334.895L178.742 336.995L174.806 337.241L176.014 340.995L172.841 338.653Z" fill="#F6F0AC"/>
<path d="M237.888 290.787L239.095 294.541L235.922 292.2L234.433 295.852L233.508 292.019L230.022 293.86L231.776 290.328L227.922 289.496L231.535 287.919L229.117 284.805L232.9 285.92L233.049 281.979L235.231 285.265L237.878 282.343L237.436 286.261L241.343 285.723L238.486 288.442L241.823 290.541L237.888 290.787Z" fill="#F6F0AC"/>
<path d="M256.95 212.309L260.287 214.408L256.352 214.654L257.559 218.408L254.386 216.067L252.898 219.718L251.971 215.884L248.484 217.725L250.24 214.194L246.385 213.363L250 211.786L247.581 208.67L251.363 209.786L251.514 205.845L253.693 209.13L256.341 206.209L255.899 210.128L259.807 209.59L256.95 212.309Z" fill="#F6F0AC"/>
<path d="M221.105 139.937L225.012 139.4L222.156 142.118L225.494 144.217L221.558 144.464L222.766 148.217L219.591 145.876L218.103 149.527L217.178 145.694L213.691 147.536L215.445 144.004L211.59 143.173L215.205 141.594L212.788 138.48L216.569 139.596L216.72 135.655L218.901 138.942L221.548 136.018L221.105 139.937Z" fill="#F6F0AC"/>
<path d="M147.128 107.537L149.776 104.615L149.336 108.533L153.242 107.996L150.385 110.714L153.722 112.813L149.787 113.061L150.994 116.814L147.821 114.472L146.333 118.125L145.407 114.291L141.919 116.132L143.675 112.6L139.82 111.768L143.433 110.193L141.016 107.078L144.8 108.193L144.949 104.251L147.128 107.537Z" fill="#F6F0AC"/>
<path d="M69.6329 130.269L69.7822 126.329L71.9639 129.613L74.6111 126.691L74.1696 130.61L78.0748 130.073L75.2191 132.792L78.556 134.892L74.6211 135.137L75.8285 138.891L72.6556 136.549L71.1675 140.202L70.2419 136.367L66.7542 138.208L68.5088 134.678L64.6543 133.845L68.2696 132.269L65.8502 129.153L69.6329 130.269Z" fill="#F6F0AC"/>
<path d="M361.576 98.0166C357.801 110.561 351.742 130.752 351.091 133.305C350.139 137.041 350.188 140.279 351.202 140.538C352.215 140.796 353.808 137.976 354.76 134.24C355.411 131.688 359.758 111.061 362.448 98.2393C362.567 97.6754 361.742 97.4653 361.576 98.0166Z" fill="#66BB6A"/>
<path d="M344.169 84.5631C332.629 90.7639 314.067 100.757 311.803 102.102C308.488 104.07 306.232 106.395 306.766 107.294C307.3 108.193 310.42 107.326 313.736 105.357C316 104.013 333.661 92.5001 344.629 85.337C345.11 85.0221 344.676 84.2906 344.169 84.5631Z" fill="#66BB6A"/>
<path d="M341.372 62.7413C328.828 58.9658 308.637 52.9077 306.084 52.2572C302.348 51.3047 299.11 51.3538 298.851 52.3666C298.593 53.3797 301.412 54.9732 305.149 55.9257C307.701 56.5766 328.33 60.923 341.15 63.6134C341.713 63.732 341.924 62.9075 341.372 62.7413Z" fill="#66BB6A"/>
<path d="M354.826 45.334C348.625 33.7944 338.631 15.2322 337.287 12.9679C335.318 9.65214 332.993 7.39723 332.094 7.93133C331.195 8.46472 332.063 11.5851 334.031 14.9009C335.375 17.1656 346.888 34.8254 354.051 45.7941C354.367 46.2756 355.098 45.8411 354.826 45.334Z" fill="#66BB6A"/>
<path d="M376.647 42.5377C380.423 29.9933 386.482 9.80156 387.132 7.24962C388.085 3.51307 388.036 0.2745 387.022 0.0163955C386.009 -0.241709 384.416 2.57816 383.463 6.31471C382.813 8.8663 378.466 29.4943 375.775 42.3157C375.657 42.8786 376.482 43.0886 376.647 42.5377Z" fill="#66BB6A"/>
<path d="M394.055 55.991C405.596 49.7902 424.157 39.7964 426.421 38.4519C429.737 36.4835 431.992 34.1591 431.458 33.26C430.924 32.3608 427.804 33.2277 424.489 35.1964C422.224 36.541 404.564 48.0533 393.596 55.2171C393.114 55.5316 393.548 56.2631 394.055 55.991Z" fill="#66BB6A"/>
<path d="M396.852 77.8124C409.396 81.5879 429.588 87.6467 432.139 88.2972C435.877 89.25 439.114 89.2006 439.372 88.1871C439.63 87.1743 436.812 85.5811 433.074 84.6283C430.523 83.9778 409.894 79.6304 397.074 76.9403C396.51 76.8221 396.3 77.6465 396.852 77.8124Z" fill="#66BB6A"/>
<path d="M383.399 95.2206C389.599 106.76 399.592 125.322 400.937 127.587C402.905 130.902 405.23 133.157 406.129 132.623C407.028 132.09 406.162 128.969 404.192 125.653C402.848 123.389 391.336 105.73 384.172 94.7609C383.858 94.279 383.126 94.7135 383.399 95.2206Z" fill="#66BB6A"/>
<path d="M371.871 91.8724C371.83 91.4305 372.478 91.3376 372.562 91.7728C373.844 98.3878 375.579 107.384 375.689 108.143C375.864 109.356 375.514 110.41 374.908 110.498C374.301 110.585 373.668 109.672 373.494 108.46C373.384 107.7 372.509 98.5799 371.871 91.8724Z" fill="#66BB6A"/>
<path d="M355.793 87.4984C356.075 87.1568 356.6 87.5485 356.351 87.9164C352.581 93.5004 347.447 101.089 346.987 101.704C346.253 102.685 345.26 103.182 344.769 102.816C344.279 102.448 344.476 101.356 345.21 100.374C345.67 99.7597 351.5 92.6927 355.793 87.4984Z" fill="#66BB6A"/>
<path d="M347.516 73.0356C347.958 72.9939 348.052 73.642 347.616 73.7261C341.001 75.0082 332.006 76.7445 331.246 76.8532C330.033 77.0282 328.978 76.6782 328.892 76.0718C328.804 75.4655 329.716 74.8322 330.929 74.6575C331.688 74.5481 340.809 73.6739 347.516 73.0356Z" fill="#66BB6A"/>
<path d="M351.89 56.9577C352.233 57.2407 351.84 57.7646 351.472 57.5159C345.889 53.745 338.3 48.6117 337.686 48.1519C336.705 47.4176 336.207 46.4252 336.574 45.9342C336.94 45.4436 338.034 45.641 339.015 46.3754C339.63 46.8355 346.697 52.6663 351.89 56.9577Z" fill="#66BB6A"/>
<path d="M366.352 48.6811C366.395 49.1226 365.747 49.2163 365.662 48.7804C364.38 42.1654 362.645 33.17 362.535 32.4097C362.36 31.197 362.71 30.1429 363.316 30.0555C363.923 29.9686 364.556 30.8807 364.731 32.0934C364.84 32.8537 365.715 41.9739 366.352 48.6811Z" fill="#66BB6A"/>
<path d="M382.431 53.0557C382.149 53.3979 381.624 53.0055 381.872 52.638C385.644 47.0544 390.777 39.4659 391.237 38.8508C391.971 37.8699 392.963 37.372 393.454 37.7388C393.944 38.106 393.747 39.1987 393.013 40.1799C392.554 40.7947 386.723 47.8617 382.431 53.0557Z" fill="#66BB6A"/>
<path d="M390.707 67.5182C390.266 67.56 390.173 66.9119 390.608 66.8274C397.223 65.5463 406.219 63.8097 406.979 63.7003C408.192 63.5253 409.245 63.8757 409.333 64.4816C409.42 65.0883 408.509 65.7217 407.296 65.8967C406.535 66.0057 397.415 66.88 390.707 67.5182Z" fill="#66BB6A"/>
<path d="M386.333 83.5963C385.992 83.314 386.384 82.7898 386.751 83.0381C392.335 86.8093 399.924 91.943 400.539 92.4027C401.52 93.1367 402.017 94.1295 401.65 94.6201C401.283 95.1107 400.191 94.9137 399.209 94.179C398.594 93.7192 391.528 87.8884 386.333 83.5963Z" fill="#66BB6A"/>
<path d="M1011.79 796.666C1008.01 809.211 1001.95 829.402 1001.3 831.955C1000.35 835.691 1000.4 838.929 1001.41 839.188C1002.43 839.446 1004.02 836.626 1004.97 832.89C1005.62 830.338 1009.97 809.711 1012.66 796.889C1012.78 796.325 1011.95 796.115 1011.79 796.666Z" fill="#87BFFF"/>
<path d="M994.381 783.213C982.841 789.414 964.279 799.407 962.015 800.751C958.7 802.72 956.444 805.045 956.978 805.944C957.512 806.843 960.633 805.976 963.949 804.007C966.213 802.663 983.873 791.15 994.841 783.987C995.323 783.672 994.889 782.94 994.381 783.213Z" fill="#87BFFF"/>
<path d="M991.585 761.391C979.041 757.616 958.849 751.558 956.296 750.907C952.56 749.955 949.322 750.004 949.064 751.017C948.805 752.03 951.625 753.623 955.361 754.576C957.914 755.226 978.542 759.573 991.362 762.263C991.926 762.382 992.136 761.557 991.585 761.391Z" fill="#87BFFF"/>
<path d="M1005.04 743.984C998.838 732.444 988.843 713.882 987.499 711.618C985.53 708.302 983.206 706.047 982.307 706.581C981.408 707.115 982.275 710.235 984.243 713.551C985.588 715.815 997.101 733.475 1004.26 744.444C1004.58 744.926 1005.31 744.491 1005.04 743.984Z" fill="#87BFFF"/>
<path d="M1026.86 741.188C1030.64 728.643 1036.69 708.451 1037.34 705.9C1038.3 702.163 1038.25 698.924 1037.23 698.666C1036.22 698.408 1034.63 701.228 1033.68 704.965C1033.03 707.516 1028.68 728.144 1025.99 740.966C1025.87 741.528 1026.69 741.739 1026.86 741.188Z" fill="#87BFFF"/>
<path d="M1044.27 754.641C1055.81 748.44 1074.37 738.446 1076.63 737.102C1079.95 735.133 1082.2 732.809 1081.67 731.91C1081.14 731.011 1078.02 731.878 1074.7 733.846C1072.44 735.191 1054.78 746.703 1043.81 753.867C1043.33 754.182 1043.76 754.913 1044.27 754.641Z" fill="#87BFFF"/>
<path d="M1047.06 776.462C1059.61 780.238 1079.8 786.297 1082.35 786.947C1086.09 787.9 1089.33 787.85 1089.58 786.837C1089.84 785.824 1087.02 784.231 1083.29 783.278C1080.73 782.628 1060.11 778.28 1047.29 775.59C1046.72 775.472 1046.51 776.296 1047.06 776.462Z" fill="#87BFFF"/>
<path d="M1033.61 793.871C1039.81 805.41 1049.8 823.972 1051.15 826.237C1053.12 829.552 1055.44 831.807 1056.34 831.273C1057.24 830.74 1056.37 827.619 1054.4 824.303C1053.06 822.039 1041.55 804.379 1034.38 793.411C1034.07 792.929 1033.34 793.363 1033.61 793.871Z" fill="#87BFFF"/>
<path d="M1022.08 790.522C1022.04 790.08 1022.69 789.987 1022.77 790.423C1024.06 797.038 1025.79 806.033 1025.9 806.793C1026.08 808.006 1025.73 809.06 1025.12 809.148C1024.51 809.234 1023.88 808.322 1023.71 807.11C1023.6 806.35 1022.72 797.23 1022.08 790.522Z" fill="#87BFFF"/>
<path d="M1006.01 786.148C1006.29 785.807 1006.81 786.198 1006.56 786.566C1002.79 792.15 997.659 799.739 997.199 800.353C996.465 801.335 995.472 801.832 994.982 801.466C994.491 801.098 994.688 800.006 995.422 799.024C995.883 798.41 1001.71 791.343 1006.01 786.148Z" fill="#87BFFF"/>
<path d="M997.728 771.686C998.17 771.644 998.264 772.292 997.828 772.376C991.214 773.658 982.218 775.394 981.458 775.503C980.245 775.678 979.191 775.328 979.104 774.722C979.017 774.115 979.928 773.482 981.141 773.307C981.901 773.198 991.021 772.324 997.728 771.686Z" fill="#87BFFF"/>
<path d="M1002.1 755.608C1002.44 755.891 1002.05 756.414 1001.68 756.166C996.101 752.395 988.512 747.262 987.898 746.802C986.917 746.068 986.419 745.075 986.786 744.584C987.152 744.094 988.246 744.291 989.227 745.025C989.842 745.485 996.909 751.316 1002.1 755.608Z" fill="#87BFFF"/>
<path d="M1016.56 747.331C1016.61 747.773 1015.96 747.866 1015.87 747.43C1014.59 740.815 1012.86 731.82 1012.75 731.06C1012.57 729.847 1012.92 728.793 1013.53 728.705C1014.14 728.618 1014.77 729.531 1014.94 730.743C1015.05 731.504 1015.93 740.624 1016.56 747.331Z" fill="#87BFFF"/>
<path d="M1032.64 751.706C1032.36 752.048 1031.84 751.655 1032.08 751.288C1035.86 745.704 1040.99 738.116 1041.45 737.501C1042.18 736.52 1043.18 736.022 1043.67 736.389C1044.16 736.756 1043.96 737.849 1043.23 738.83C1042.77 739.445 1036.94 746.512 1032.64 751.706Z" fill="#87BFFF"/>
<path d="M1040.92 766.168C1040.48 766.21 1040.39 765.562 1040.82 765.477C1047.44 764.196 1056.43 762.46 1057.19 762.35C1058.4 762.175 1059.46 762.526 1059.55 763.132C1059.63 763.738 1058.72 764.372 1057.51 764.547C1056.75 764.656 1047.63 765.53 1040.92 766.168Z" fill="#87BFFF"/>
<path d="M1036.55 782.246C1036.2 781.964 1036.6 781.44 1036.96 781.688C1042.55 785.459 1050.14 790.593 1050.75 791.053C1051.73 791.787 1052.23 792.779 1051.86 793.27C1051.5 793.761 1050.4 793.564 1049.42 792.829C1048.81 792.369 1041.74 786.538 1036.55 782.246Z" fill="#87BFFF"/>
<path d="M1542.05 800.047C1549.06 820.217 1560.36 852.666 1561.94 856.657C1564.26 862.5 1567.42 866.729 1569 866.101C1570.59 865.473 1569.99 860.227 1567.68 854.384C1566.1 850.394 1552.12 819.004 1543.41 799.506C1543.03 798.65 1541.74 799.16 1542.05 800.047Z" fill="#AB47BC"/>
<path d="M1506.2 798.93C1496.9 818.149 1481.95 849.086 1480.24 853.025C1477.75 858.795 1476.99 864.019 1478.56 864.696C1480.12 865.372 1483.41 861.245 1485.91 855.476C1487.61 851.535 1499.92 819.455 1507.55 799.51C1507.89 798.636 1506.61 798.085 1506.2 798.93Z" fill="#AB47BC"/>
<path d="M1481.65 772.795C1461.48 779.8 1429.03 791.107 1425.04 792.688C1419.2 795.003 1414.97 798.163 1415.6 799.746C1416.23 801.332 1421.47 800.74 1427.31 798.425C1431.31 796.844 1462.69 782.861 1482.19 774.157C1483.05 773.775 1482.54 772.487 1481.65 772.795Z" fill="#AB47BC"/>
<path d="M1482.77 736.951C1463.55 727.645 1432.62 712.696 1428.68 710.99C1422.91 708.496 1417.68 707.739 1417.01 709.303C1416.33 710.87 1420.46 714.159 1426.22 716.653C1430.17 718.358 1462.25 730.666 1482.19 738.299C1483.06 738.635 1483.62 737.36 1482.77 736.951Z" fill="#AB47BC"/>
<path d="M1508.91 712.399C1501.9 692.229 1490.59 659.781 1489.01 655.788C1486.7 649.945 1483.54 645.718 1481.95 646.345C1480.37 646.973 1480.96 652.218 1483.28 658.061C1484.86 662.053 1498.84 693.441 1507.54 712.938C1507.93 713.796 1509.21 713.284 1508.91 712.399Z" fill="#AB47BC"/>
<path d="M1544.75 713.518C1554.06 694.299 1569.01 663.362 1570.71 659.42C1573.21 653.653 1573.96 648.429 1572.4 647.751C1570.83 647.075 1567.54 651.205 1565.05 656.971C1563.34 660.912 1551.03 692.992 1543.4 712.935C1543.07 713.812 1544.34 714.363 1544.75 713.518Z" fill="#AB47BC"/>
<path d="M1569.3 739.652C1589.47 732.644 1621.92 721.339 1625.91 719.759C1631.76 717.444 1635.98 714.284 1635.35 712.698C1634.73 711.114 1629.48 711.707 1623.64 714.022C1619.65 715.602 1588.26 729.583 1568.76 738.29C1567.9 738.671 1568.41 739.96 1569.3 739.652Z" fill="#AB47BC"/>
<path d="M1568.18 775.493C1587.4 784.802 1618.34 799.751 1622.28 801.457C1628.05 803.951 1633.27 804.706 1633.95 803.141C1634.63 801.578 1630.5 798.288 1624.73 795.79C1620.79 794.087 1588.71 781.78 1568.76 774.147C1567.89 773.812 1567.34 775.086 1568.18 775.493Z" fill="#AB47BC"/>
<path d="M1580.31 814.633C1579.23 813.407 1580.96 811.733 1582.15 812.847C1600.25 829.797 1624.84 852.863 1626.81 854.891C1629.95 858.128 1631.18 862.025 1629.56 863.595C1627.94 865.164 1624.09 863.812 1620.95 860.574C1618.98 858.546 1596.69 833.25 1580.31 814.633Z" fill="#AB47BC"/>
<path d="M1522.95 836.3C1523.05 834.673 1525.46 834.708 1525.51 836.341C1526.33 861.123 1527.41 894.821 1527.36 897.646C1527.29 902.155 1525.41 905.781 1523.15 905.747C1520.9 905.712 1519.13 902.028 1519.2 897.519C1519.24 894.695 1521.37 861.045 1522.95 836.3Z" fill="#AB47BC"/>
<path d="M1467.07 811.06C1468.29 809.98 1469.97 811.71 1468.85 812.901C1451.9 830.998 1428.84 855.59 1426.81 857.556C1423.57 860.695 1419.68 861.926 1418.11 860.308C1416.54 858.687 1417.89 854.831 1421.13 851.693C1423.16 849.727 1448.45 827.435 1467.07 811.06Z" fill="#AB47BC"/>
<path d="M1445.4 753.695C1447.03 753.799 1446.99 756.209 1445.36 756.26C1420.58 757.072 1386.88 758.151 1384.06 758.108C1379.55 758.038 1375.92 756.152 1375.95 753.899C1375.99 751.645 1379.67 749.874 1384.18 749.943C1387.01 749.987 1420.65 752.114 1445.4 753.695Z" fill="#AB47BC"/>
<path d="M1470.64 697.812C1471.72 699.036 1469.99 700.713 1468.8 699.598C1450.7 682.649 1426.11 659.582 1424.14 657.554C1421.01 654.317 1419.77 650.419 1421.39 648.849C1423.01 647.28 1426.87 648.634 1430.01 651.871C1431.97 653.9 1454.26 679.195 1470.64 697.812Z" fill="#AB47BC"/>
<path d="M1528.01 676.147C1527.9 677.774 1525.49 677.737 1525.44 676.108C1524.63 651.323 1523.55 617.627 1523.59 614.802C1523.66 610.294 1525.55 606.666 1527.8 606.701C1530.05 606.735 1531.83 610.42 1531.75 614.929C1531.71 617.753 1529.59 651.401 1528.01 676.147Z" fill="#AB47BC"/>
<path d="M1583.89 701.387C1582.66 702.467 1580.99 700.737 1582.1 699.545C1599.05 681.447 1622.12 656.856 1624.14 654.89C1627.38 651.752 1631.28 650.519 1632.85 652.138C1634.42 653.757 1633.07 657.614 1629.83 660.753C1627.8 662.719 1602.5 685.008 1583.89 701.387Z" fill="#AB47BC"/>
<path d="M1605.55 758.751C1603.93 758.647 1603.96 756.238 1605.6 756.186C1630.38 755.372 1664.07 754.295 1666.9 754.338C1671.41 754.408 1675.03 756.292 1675 758.548C1674.96 760.802 1671.28 762.573 1666.77 762.503C1663.95 762.46 1630.3 760.334 1605.55 758.751Z" fill="#AB47BC"/>
<g opacity="0.5">
<path d="M1156.02 134.465L1137.62 195.748C1137.62 195.748 1136.51 199.254 1134.4 198.336C1134.4 198.336 1131.98 197.596 1133.64 193.791L1156.02 134.465Z" fill="#F05A28"/>
<path d="M1156.02 134.465L1159.69 198.346C1159.69 198.346 1159.85 202.02 1157.55 201.879C1157.55 201.879 1155.02 202.01 1155.28 197.868L1156.02 134.465Z" fill="#F05A28"/>
<path d="M1156.02 134.465L1181.32 193.238C1181.32 193.238 1182.72 196.635 1180.51 197.289C1180.51 197.289 1178.18 198.275 1177.01 194.298L1156.02 134.465Z" fill="#F05A28"/>
<path d="M1156.02 134.465L1199.89 181.04C1199.89 181.04 1202.37 183.751 1200.52 185.124C1200.52 185.124 1198.67 186.847 1196.2 183.512L1156.02 134.465Z" fill="#F05A28"/>
<path d="M1156.02 134.465L1213.18 163.225C1213.18 163.225 1216.44 164.925 1215.16 166.847C1215.16 166.847 1214.02 169.099 1210.56 166.809L1156.02 134.465Z" fill="#F05A28"/>
<path d="M1156.02 134.465L1219.56 141.941C1219.56 141.941 1223.21 142.424 1222.67 144.664C1222.67 144.664 1222.36 147.173 1218.33 146.204L1156.02 134.465Z" fill="#F05A28"/>
<path d="M1156.02 134.466L1218.29 119.756C1218.29 119.756 1221.88 118.963 1222.14 121.254C1222.14 121.254 1222.71 123.717 1218.58 124.185L1156.02 134.466Z" fill="#F05A28"/>
<path d="M1156.02 134.466L1209.5 99.3454C1209.5 99.3454 1212.6 97.3725 1213.63 99.4338C1213.63 99.4338 1215.01 101.555 1211.3 103.406L1156.02 134.466Z" fill="#F05A28"/>
<path d="M1156.02 134.465L1194.26 83.1699C1194.26 83.1699 1196.5 80.2541 1198.18 81.8411C1198.18 81.8411 1200.19 83.3638 1197.34 86.3731L1156.02 134.465Z" fill="#F05A28"/>
<path d="M1156.02 134.465L1174.41 73.1815C1174.41 73.1815 1175.52 69.6757 1177.64 70.5944C1177.64 70.5944 1180.05 71.3358 1178.4 75.1392L1156.02 134.465Z" fill="#F05A28"/>
<path d="M1156.02 134.465L1152.35 70.5852C1152.35 70.5852 1152.19 66.9115 1154.49 67.0507C1154.49 67.0507 1157.01 66.9217 1156.76 71.0614L1156.02 134.465Z" fill="#F05A28"/>
<path d="M1156.02 134.465L1130.72 75.6942C1130.72 75.6942 1129.31 72.2971 1131.52 71.6409C1131.52 71.6409 1133.85 70.6554 1135.03 74.633L1156.02 134.465Z" fill="#F05A28"/>
<path d="M1156.02 134.466L1112.14 87.8917C1112.14 87.8917 1109.66 85.1794 1111.51 83.8073C1111.51 83.8073 1113.36 82.0843 1115.83 85.4191L1156.02 134.466Z" fill="#F05A28"/>
<path d="M1156.02 134.466L1098.86 105.707C1098.86 105.707 1095.6 104.007 1096.87 102.084C1096.87 102.084 1098.02 99.8321 1101.48 102.122L1156.02 134.466Z" fill="#F05A28"/>
<path d="M1156.02 134.465L1092.47 126.991C1092.47 126.991 1088.82 126.508 1089.36 124.267C1089.36 124.267 1089.67 121.756 1093.71 122.725L1156.02 134.465Z" fill="#F05A28"/>
<path d="M1156.02 134.465L1093.74 149.176C1093.74 149.176 1090.15 149.968 1089.89 147.679C1089.89 147.679 1089.33 145.214 1093.45 144.746L1156.02 134.465Z" fill="#F05A28"/>
<path d="M1156.02 134.465L1102.53 169.588C1102.53 169.588 1099.43 171.56 1098.4 169.497C1098.4 169.497 1097.02 167.376 1100.74 165.525L1156.02 134.465Z" fill="#F05A28"/>
<path d="M1156.02 134.465L1117.77 185.762C1117.77 185.762 1115.53 188.676 1113.86 187.091C1113.86 187.091 1111.84 185.567 1114.69 182.559L1156.02 134.465Z" fill="#F05A28"/>
<path d="M1156.02 134.465L1134.07 178.092C1134.07 178.092 1132.77 180.579 1131.3 179.608C1131.3 179.608 1129.58 178.733 1131.33 176.092L1156.02 134.465Z" fill="#D6DE23"/>
<path d="M1156.02 134.465L1088.08 196.525C1088.08 196.525 1086.74 197.746 1086.07 196.835C1086.07 196.835 1085.22 195.925 1086.86 194.713L1156.02 134.465Z" fill="#ACACF4"/>
<path d="M1156.02 134.465L1143.87 225.676C1143.87 225.676 1143.63 227.468 1142.53 227.204C1142.53 227.204 1141.29 227.053 1141.77 225.069L1156.02 134.465Z" fill="#ACACF4"/>
<path d="M1156.02 134.465L1205.34 212.147C1205.34 212.147 1206.31 213.673 1205.29 214.179C1205.29 214.179 1204.25 214.856 1203.34 213.03L1156.02 134.465Z" fill="#ACACF4"/>
<path d="M1156.02 134.465L1243.73 162.27C1243.73 162.27 1245.46 162.815 1245.01 163.856C1245.01 163.856 1244.64 165.045 1242.77 164.23L1156.02 134.465Z" fill="#ACACF4"/>
<path d="M1156.02 134.465L1241.08 99.3824C1241.08 99.3824 1242.75 98.6913 1243.08 99.7792C1243.08 99.7792 1243.56 100.924 1241.61 101.503L1156.02 134.465Z" fill="#ACACF4"/>
<path d="M1156.02 134.465L1198.63 52.9114C1198.63 52.9114 1199.47 51.3073 1200.41 51.9329C1200.41 51.9329 1201.52 52.4981 1200.39 54.1989L1156.02 134.465Z" fill="#ACACF4"/>
<path d="M1156.02 134.465L1136.24 44.5985C1136.24 44.5985 1135.85 42.8329 1136.98 42.7038C1136.98 42.7038 1138.19 42.4259 1138.42 44.4529L1156.02 134.465Z" fill="#ACACF4"/>
<path d="M1156.02 134.466L1083.1 78.3378C1083.1 78.3378 1081.67 77.2347 1082.45 76.4113C1082.45 76.4113 1083.2 75.4194 1084.68 76.8239L1156.02 134.466Z" fill="#ACACF4"/>
<path d="M1156.02 134.465L1064.08 138.337C1064.08 138.337 1062.28 138.414 1062.34 137.281C1062.34 137.281 1062.28 136.041 1064.32 136.166L1156.02 134.465Z" fill="#ACACF4"/>
<path d="M1156.02 134.465L1167.25 181.995C1167.25 181.995 1167.85 184.735 1166.1 184.934C1166.1 184.934 1164.22 185.367 1163.86 182.221L1156.02 134.465Z" fill="#D6DE23"/>
<path d="M1156.02 134.465L1195.17 163.658C1195.17 163.658 1197.39 165.369 1196.18 166.644C1196.18 166.644 1195.02 168.184 1192.72 166.005L1156.02 134.465Z" fill="#D6DE23"/>
<path d="M1156.02 134.465L1204.77 131.663C1204.77 131.663 1207.58 131.541 1207.47 133.298C1207.47 133.298 1207.57 135.225 1204.41 135.031L1156.02 134.465Z" fill="#D6DE23"/>
<path d="M1156.02 134.465L1191.56 100.978C1191.56 100.978 1193.64 99.0835 1194.68 100.497C1194.68 100.497 1196 101.908 1193.45 103.793L1156.02 134.465Z" fill="#D6DE23"/>
<path d="M1156.02 134.465L1161.72 85.9624C1161.72 85.9624 1162.09 83.1794 1163.8 83.5914C1163.8 83.5914 1165.72 83.8267 1164.98 86.9072L1156.02 134.465Z" fill="#D6DE23"/>
<path d="M1156.02 134.465L1129.21 93.6436C1129.21 93.6436 1127.7 91.2739 1129.28 90.49C1129.28 90.49 1130.9 89.4415 1132.31 92.2747L1156.02 134.465Z" fill="#D6DE23"/>
<path d="M1156.02 134.466L1109.24 120.425C1109.24 120.425 1106.56 119.578 1107.27 117.965C1107.27 117.965 1107.83 116.121 1110.74 117.383L1156.02 134.466Z" fill="#D6DE23"/>
<path d="M1156.02 134.465L1111.16 153.776C1111.16 153.776 1108.56 154.848 1108.07 153.161C1108.07 153.161 1107.31 151.384 1110.35 150.485L1156.02 134.465Z" fill="#D6DE23"/>
<path d="M1119.31 204.251L1116.9 205.311L1118.24 203.041L1115.71 202.303L1118.19 201.425L1116.73 199.235L1119.2 200.158L1119.49 197.541L1120.78 199.832L1122.69 198.013L1122.2 200.601L1124.83 200.429L1122.8 202.104L1124.92 203.664L1122.29 203.639L1122.91 206.196L1120.91 204.487L1119.75 206.847L1119.31 204.251Z" fill="#DCD367"/>
</g>
<g opacity="0.5">
<path d="M315.767 665.825L298.576 723.093C298.576 723.093 297.541 726.369 295.565 725.51C295.565 725.51 293.306 724.819 294.852 721.263L315.767 665.825Z" fill="#2871F0"/>
<path d="M315.767 665.825L319.199 725.52C319.199 725.52 319.347 728.953 317.197 728.821C317.197 728.821 314.838 728.944 315.075 725.073L315.767 665.825Z" fill="#2871F0"/>
<path d="M315.767 665.825L339.409 720.746C339.409 720.746 340.722 723.921 338.657 724.532C338.657 724.532 336.481 725.454 335.381 721.737L315.767 665.825Z" fill="#2871F0"/>
<path d="M315.767 665.825L356.767 709.348C356.767 709.348 359.086 711.882 357.355 713.164C357.355 713.164 355.626 714.774 353.32 711.658L315.767 665.825Z" fill="#2871F0"/>
<path d="M315.767 665.825L369.18 692.701C369.18 692.701 372.226 694.289 371.038 696.085C371.038 696.085 369.964 698.189 366.731 696.05L315.767 665.825Z" fill="#2871F0"/>
<path d="M315.767 665.825L375.15 672.811C375.15 672.811 378.556 673.263 378.052 675.356C378.052 675.356 377.764 677.701 373.995 676.795L315.767 665.825Z" fill="#2871F0"/>
<path d="M315.767 665.826L373.957 652.08C373.957 652.08 377.312 651.34 377.556 653.481C377.556 653.481 378.086 655.782 374.234 656.22L315.767 665.826Z" fill="#2871F0"/>
<path d="M315.767 665.826L365.746 633.008C365.746 633.008 368.646 631.164 369.606 633.09C369.606 633.09 370.893 635.073 367.423 636.802L315.767 665.826Z" fill="#2871F0"/>
<path d="M315.768 665.826L351.508 617.893C351.508 617.893 353.601 615.168 355.164 616.651C355.164 616.651 357.05 618.074 354.381 620.886L315.768 665.826Z" fill="#2871F0"/>
<path d="M315.767 665.826L332.958 608.559C332.958 608.559 333.993 605.282 335.968 606.141C335.968 606.141 338.228 606.834 336.681 610.388L315.767 665.826Z" fill="#2871F0"/>
<path d="M315.767 665.826L312.336 606.133C312.336 606.133 312.188 602.7 314.337 602.83C314.337 602.83 316.697 602.709 316.461 606.578L315.767 665.826Z" fill="#2871F0"/>
<path d="M315.767 665.826L292.126 610.906C292.126 610.906 290.813 607.732 292.877 607.119C292.877 607.119 295.053 606.198 296.154 609.915L315.767 665.826Z" fill="#2871F0"/>
<path d="M315.767 665.827L274.766 622.305C274.766 622.305 272.449 619.77 274.179 618.488C274.179 618.488 275.907 616.878 278.214 619.994L315.767 665.827Z" fill="#2871F0"/>
<path d="M315.767 665.827L262.355 638.953C262.355 638.953 259.309 637.364 260.496 635.567C260.496 635.567 261.569 633.463 264.803 635.602L315.767 665.827Z" fill="#2871F0"/>
<path d="M315.767 665.826L256.384 658.841C256.384 658.841 252.978 658.39 253.48 656.296C253.48 656.296 253.77 653.95 257.54 654.855L315.767 665.826Z" fill="#2871F0"/>
<path d="M315.767 665.825L257.575 679.572C257.575 679.572 254.221 680.312 253.977 678.173C253.977 678.173 253.446 675.87 257.299 675.432L315.767 665.825Z" fill="#2871F0"/>
<path d="M315.767 665.825L265.787 698.646C265.787 698.646 262.888 700.489 261.927 698.562C261.927 698.562 260.64 696.58 264.111 694.85L315.767 665.825Z" fill="#2871F0"/>
<path d="M315.767 665.825L280.026 713.76C280.026 713.76 277.933 716.484 276.371 715.002C276.371 715.002 274.483 713.579 277.153 710.767L315.767 665.825Z" fill="#2871F0"/>
<path d="M315.767 665.825L295.255 706.593C295.255 706.593 294.042 708.918 292.671 708.01C292.671 708.01 291.065 707.192 292.698 704.724L315.767 665.825Z" fill="#D6DE23"/>
<path d="M315.767 665.825L252.282 723.819C252.282 723.819 251.034 724.959 250.404 724.108C250.404 724.108 249.612 723.258 251.146 722.125L315.767 665.825Z" fill="#ACACF4"/>
<path d="M315.767 665.825L304.413 751.059C304.413 751.059 304.19 752.733 303.16 752.487C303.16 752.487 302.007 752.346 302.453 750.491L315.767 665.825Z" fill="#ACACF4"/>
<path d="M315.767 665.825L361.856 738.416C361.856 738.416 362.762 739.843 361.814 740.315C361.814 740.315 360.84 740.948 359.99 739.241L315.767 665.825Z" fill="#ACACF4"/>
<path d="M315.767 665.825L397.733 691.808C397.733 691.808 399.345 692.317 398.924 693.291C398.924 693.291 398.582 694.401 396.835 693.639L315.767 665.825Z" fill="#ACACF4"/>
<path d="M315.767 665.826L395.258 633.042C395.258 633.042 396.82 632.396 397.123 633.413C397.123 633.413 397.575 634.483 395.747 635.024L315.767 665.826Z" fill="#ACACF4"/>
<path d="M315.767 665.826L355.588 589.617C355.588 589.617 356.37 588.118 357.254 588.702C357.254 588.702 358.289 589.23 357.235 590.82L315.767 665.826Z" fill="#ACACF4"/>
<path d="M315.768 665.826L297.285 581.848C297.285 581.848 296.921 580.199 297.974 580.078C297.974 580.078 299.107 579.818 299.322 581.712L315.768 665.826Z" fill="#ACACF4"/>
<path d="M315.767 665.826L247.631 613.377C247.631 613.377 246.29 612.346 247.019 611.576C247.019 611.576 247.719 610.65 249.102 611.962L315.767 665.826Z" fill="#ACACF4"/>
<path d="M315.768 665.825L229.858 669.444C229.858 669.444 228.169 669.516 228.233 668.457C228.233 668.457 228.173 667.298 230.076 667.415L315.768 665.825Z" fill="#ACACF4"/>
<path d="M315.767 665.825L326.259 710.241C326.259 710.241 326.824 712.801 325.191 712.987C325.191 712.987 323.433 713.391 323.098 710.452L315.767 665.825Z" fill="#D6DE23"/>
<path d="M315.767 665.825L352.353 693.105C352.353 693.105 354.433 694.704 353.3 695.896C353.3 695.896 352.215 697.335 350.069 695.298L315.767 665.825Z" fill="#D6DE23"/>
<path d="M315.767 665.826L361.329 663.207C361.329 663.207 363.948 663.093 363.848 664.735C363.848 664.735 363.941 666.536 360.988 666.354L315.767 665.826Z" fill="#D6DE23"/>
<path d="M315.767 665.826L348.985 634.534C348.985 634.534 350.92 632.763 351.898 634.084C351.898 634.084 353.125 635.403 350.748 637.164L315.767 665.826Z" fill="#D6DE23"/>
<path d="M315.767 665.825L321.099 620.502C321.099 620.502 321.442 617.901 323.042 618.286C323.042 618.286 324.831 618.506 324.141 621.384L315.767 665.825Z" fill="#D6DE23"/>
<path d="M315.767 665.826L290.718 627.68C290.718 627.68 289.31 625.465 290.781 624.733C290.781 624.733 292.295 623.753 293.615 626.401L315.767 665.826Z" fill="#D6DE23"/>
<path d="M315.767 665.827L272.058 652.706C272.058 652.706 269.556 651.914 270.212 650.407C270.212 650.407 270.74 648.684 273.454 649.864L315.767 665.827Z" fill="#D6DE23"/>
<path d="M315.767 665.825L273.849 683.87C273.849 683.87 271.425 684.873 270.958 683.296C270.958 683.296 270.255 681.635 273.093 680.795L315.767 665.825Z" fill="#D6DE23"/>
<path d="M281.469 731.038L279.216 732.028L280.465 729.907L278.104 729.218L280.423 728.398L279.057 726.351L281.361 727.214L281.63 724.768L282.842 726.909L284.619 725.209L284.17 727.627L286.626 727.467L284.726 729.032L286.711 730.49L284.25 730.466L284.834 732.856L282.963 731.258L281.875 733.465L281.469 731.038Z" fill="#DCD367"/>
</g>
</svg>
