<svg fill="none" height="960" viewBox="0 0 1740 960" width="1740" xmlns="http://www.w3.org/2000/svg" xmlns:xlink="http://www.w3.org/1999/xlink"><clipPath id="a"><path d="m-113-110h1966v1180h-1966z"/></clipPath><g clip-path="url(#a)"><g fill="#e1d3ec" opacity=".5"><path d="m869.513 477.552 983.487-256.719v509.239z"/><path d="m870.488 478.654 186.272 591.346h-366.108z"/><path d="m1724.16 1066.19-237.59-1.09h-136.82l-479.263-586.446z"/><path d="m868.537 477.552-201.214-586.309 389.437-1.243z"/><path d="m1329.89-108.928h141.82l245.74.171-847.419 586.34z"/><path d="m870.488 478.328-983.488-256.719v509.237z"/><path d="m15.6333 1070h373.0917l480.787-590.568z"/><path d="m410.113-108.151h-141.827l-245.7381.171 847.4211 586.34z"/></g><g fill="#fff"><path d="m395.264 549.16c8.312-3.108 9.12-14.377 9.12-14.377s.81 11.269 9.121 14.377c-8.313 3.107-9.121 14.376-9.121 14.376s-.808-11.267-9.12-14.376z"/><path d="m377.861 82.3144c13.896-5.1959 15.248-24.0366 15.248-24.0366s1.353 18.8407 15.249 24.0366c-13.896 5.196-15.249 24.0366-15.249 24.0366s-1.352-18.8406-15.248-24.0366z"/><path d="m241.619 655.01c15.892-5.942 17.439-27.49 17.439-27.49s1.547 21.546 17.438 27.49c-15.891 5.943-17.438 27.49-17.438 27.49s-1.547-21.549-17.439-27.49z"/><path d="m780.256 838.089c14.682-5.489 16.111-25.396 16.111-25.396s1.43 19.907 16.112 25.396c-14.682 5.489-16.112 25.396-16.112 25.396s-1.429-19.905-16.111-25.396z"/><path d="m219.28 705.483c10.687-3.996 11.729-18.489 11.729-18.489s1.04 14.493 11.729 18.489c-10.687 3.996-11.729 18.486-11.729 18.486s-1.042-14.49-11.729-18.486z"/><path d="m125.242 186.365c10.687-3.997 11.729-18.487 11.729-18.487s1.04 14.492 11.729 18.487c-10.687 3.996-11.729 18.486-11.729 18.486s-1.04-14.49-11.729-18.486z"/><path d="m645.746 896.408c6.948-2.598 7.625-12.018 7.625-12.018s.676 9.42 7.624 12.018c-6.948 2.598-7.624 12.018-7.624 12.018s-.677-9.42-7.625-12.018z"/><path d="m608.52 315.292c6.948-2.598 7.624-12.019 7.624-12.019s.677 9.421 7.624 12.019c-6.947 2.598-7.624 12.018-7.624 12.018s-.676-9.42-7.624-12.018z"/><path d="m379.509 159.431c6.948-2.598 7.624-12.018 7.624-12.018s.676 9.42 7.624 12.018c-6.948 2.598-7.624 12.019-7.624 12.019s-.676-9.421-7.624-12.019z"/><path d="m680.759 380.015c11.969-4.475 13.135-20.703 13.135-20.703s1.165 16.228 13.134 20.703c-11.969 4.476-13.134 20.703-13.134 20.703s-1.166-16.229-13.135-20.703z"/><path d="m483.184 867.645c6.948-2.598 7.624-12.018 7.624-12.018s.676 9.42 7.624 12.018c-6.948 2.598-7.624 12.019-7.624 12.019s-.676-9.419-7.624-12.019z"/><path d="m539.048 105.383c6.002-2.244 6.588-10.384 6.588-10.384s.584 8.14 6.588 10.384c-6.002 2.244-6.588 10.384-6.588 10.384s-.586-8.138-6.588-10.384z"/><path d="m710.518 428.239c6.948-2.598 7.624-12.018 7.624-12.018s.677 9.42 7.624 12.018c-6.947 2.598-7.624 12.018-7.624 12.018s-.676-9.422-7.624-12.018z"/><path d="m816.454 906.576c6.948-2.598 7.624-12.018 7.624-12.018s.677 9.42 7.624 12.018c-6.947 2.598-7.624 12.018-7.624 12.018s-.676-9.42-7.624-12.018z"/><path d="m1178.32 410.84c8.31 3.108 9.12 14.377 9.12 14.377s.81-11.269 9.12-14.377c-8.31-3.107-9.12-14.376-9.12-14.376s-.81 11.267-9.12 14.376z"/><path d="m1160.92 877.685c13.89 5.196 15.24 24.037 15.24 24.037s1.36-18.841 15.25-24.037c-13.89-5.196-15.25-24.037-15.25-24.037s-1.35 18.841-15.24 24.037z"/><path d="m1563.31 121.911c14.68 5.489 16.11 25.396 16.11 25.396s1.43-19.907 16.11-25.396c-14.68-5.489-16.11-25.3954-16.11-25.3954s-1.43 19.9064-16.11 25.3954z"/><path d="m1428.8 63.5915c6.95 2.598 7.62 12.0183 7.62 12.0183s.68-9.4203 7.63-12.0183c-6.95-2.5979-7.63-12.0183-7.63-12.0183s-.67 9.4204-7.62 12.0183z"/><path d="m1391.57 644.709c6.95 2.598 7.63 12.018 7.63 12.018s.67-9.42 7.62-12.018c-6.95-2.598-7.62-12.019-7.62-12.019s-.68 9.421-7.63 12.019z"/><path d="m1162.56 800.569c6.95 2.598 7.63 12.018 7.63 12.018s.67-9.42 7.62-12.018c-6.95-2.598-7.62-12.018-7.62-12.018s-.68 9.42-7.63 12.018z"/><path d="m1463.81 579.985c11.97 4.476 13.14 20.703 13.14 20.703s1.16-16.228 13.13-20.703c-11.97-4.476-13.13-20.703-13.13-20.703s-1.17 16.229-13.14 20.703z"/><path d="m1266.24 92.3542c6.95 2.598 7.62 12.0188 7.62 12.0188s.68-9.4208 7.63-12.0188c-6.95-2.5979-7.63-12.0183-7.63-12.0183s-.67 9.4204-7.62 12.0183z"/><path d="m1322.1 854.616c6 2.244 6.59 10.384 6.59 10.384s.58-8.14 6.59-10.384c-6.01-2.244-6.59-10.384-6.59-10.384s-.59 8.138-6.59 10.384z"/><path d="m1493.57 531.76c6.95 2.598 7.63 12.019 7.63 12.019s.67-9.421 7.62-12.019c-6.95-2.597-7.62-12.018-7.62-12.018s-.68 9.422-7.63 12.018z"/><path d="m1599.51 53.4241c6.95 2.5979 7.62 12.0183 7.62 12.0183s.68-9.4204 7.63-12.0183c-6.95-2.598-7.63-12.0183-7.63-12.0183s-.67 9.4203-7.62 12.0183z"/></g><path d="m1279.08 667.25c2.2-.267 4.22-1.502 6.02-2.877 1.51-1.154 2.97-2.47 3.86-4.138 1.33-2.464 1.26-5.457.24-7.931-1.02-2.473-2.92-4.467-5.06-6.038-3.82-2.793-9.66-2.49-13.42.842-5.53 4.897-4.41 13.434.75 17.517 2.14 1.689 4.81 2.967 7.61 2.625z" fill="#ff8500"/><path d="m1251.44 501.676c1.76 1.35 4.07 1.881 6.31 2.16 1.89.234 3.85.311 5.66-.252 2.67-.83 4.72-3.017 5.72-5.501.99-2.484 1.04-5.233.6-7.858-.77-4.663-5.16-8.538-10.17-8.791-7.38-.374-12.55 6.509-11.72 13.04.35 2.703 1.36 5.487 3.6 7.202z" fill="#ff8500"/><path d="m1657.06 888.666c1.76 1.349 4.06 1.88 6.31 2.159 1.89.234 3.85.311 5.66-.252 2.67-.83 4.72-3.017 5.71-5.5 1-2.484 1.04-5.234.61-7.859-.77-4.663-5.16-8.538-10.17-8.791-7.38-.374-12.55 6.509-11.72 13.041.34 2.704 1.36 5.487 3.6 7.202z" fill="#ff8500"/><path d="m1122.35 270.213c1.76 1.35 4.06 1.881 6.31 2.16 1.89.234 3.85.311 5.66-.252 2.67-.83 4.71-3.017 5.71-5.499 1-2.484 1.04-5.233.61-7.858-.77-4.663-5.16-8.538-10.18-8.791-7.37-.374-12.55 6.511-11.71 13.041.34 2.7 1.36 5.483 3.6 7.199z" fill="#ff8500"/><path d="m1100.7 148.53c1.76 1.349 4.06 1.88 6.31 2.159 1.89.234 3.85.311 5.66-.251 2.67-.83 4.71-3.017 5.71-5.499s1.04-5.234.61-7.859c-.77-4.663-5.16-8.537-10.18-8.791-7.37-.374-12.54 6.51-11.71 13.041.34 2.702 1.36 5.487 3.6 7.2z" fill="#edbdff"/><path d="m1676.48 348.442c1.77 1.349 4.07 1.88 6.32 2.159 1.89.234 3.85.311 5.65-.251 2.68-.83 4.72-3.017 5.72-5.499 1-2.484 1.04-5.233.61-7.859-.77-4.663-5.16-8.537-10.18-8.791-7.37-.374-12.55 6.512-11.71 13.041.34 2.702 1.36 5.485 3.59 7.2z" fill="#edbdff"/><path d="m1128.58 434.739c2.91 2.227 6.71 3.104 10.42 3.562 3.11.385 6.35.513 9.33-.415 4.41-1.371 7.79-4.978 9.43-9.076 1.65-4.099 1.72-8.638 1-12.968-1.27-7.694-8.5-14.09-16.79-14.507-12.17-.615-20.7 10.744-19.33 21.52.57 4.46 2.25 9.054 5.94 11.884z" fill="#edbdff"/><path d="m1410.51 465.189c1.77 1.349 4.07 1.88 6.32 2.159 1.89.235 3.85.311 5.65-.251 2.68-.83 4.72-3.017 5.72-5.501s1.04-5.233.61-7.859c-.77-4.663-5.16-8.537-10.18-8.791-7.37-.373-12.55 6.51-11.71 13.041.34 2.704 1.36 5.487 3.59 7.202z" fill="#edbdff"/><path d="m644.771 834.694c1.762 1.349 4.066 1.88 6.315 2.159 1.887.234 3.847.311 5.654-.251 2.672-.83 4.719-3.017 5.717-5.501.999-2.484 1.04-5.233.606-7.859-.771-4.663-5.157-8.537-10.176-8.791-7.377-.374-12.549 6.51-11.716 13.041.346 2.702 1.363 5.485 3.6 7.202z" fill="#edbdff"/><path d="m138.794 418.198c1.761 1.349 4.065 1.88 6.314 2.159 1.888.234 3.846.311 5.655-.252 2.671-.83 4.718-3.017 5.717-5.5.998-2.484 1.04-5.234.605-7.859-.77-4.663-5.157-8.537-10.174-8.791-7.376-.372-12.549 6.511-11.715 13.041.344 2.704 1.36 5.487 3.598 7.202z" fill="#edbdff"/><path d="m366.309 899.962c1.761 1.349 4.066 1.88 6.315 2.159 1.887.234 3.845.311 5.654-.252 2.672-.83 4.718-3.017 5.717-5.499.999-2.483 1.04-5.233.606-7.858-.771-4.663-5.157-8.538-10.176-8.791-7.377-.374-12.549 6.509-11.716 13.041.344 2.7 1.363 5.485 3.6 7.2z" fill="#edbdff"/><path d="m1082.15 348.054c1.76 1.349 4.06 1.88 6.31 2.16 1.89.234 3.85.31 5.66-.252 2.67-.83 4.72-3.017 5.72-5.501.99-2.484 1.04-5.233.6-7.859-.77-4.663-5.16-8.537-10.17-8.791-7.38-.373-12.55 6.51-11.72 13.041.35 2.705 1.36 5.487 3.6 7.202z" fill="#d787ff"/><path d="m1553.69 214.257c1.76 1.35 4.06 1.881 6.31 2.16 1.89.234 3.85.311 5.66-.252 2.67-.83 4.72-3.017 5.71-5.501 1-2.484 1.04-5.233.61-7.858-.77-4.663-5.16-8.538-10.18-8.791-7.37-.374-12.55 6.509-11.71 13.041.34 2.704 1.36 5.487 3.6 7.201z" fill="#d787ff"/><path d="m749.502 897.783c1.761 1.349 4.066 1.88 6.315 2.159 1.887.234 3.847.311 5.654-.252 2.672-.829 4.718-3.016 5.717-5.5s1.04-5.234.606-7.859c-.771-4.663-5.157-8.537-10.176-8.791-7.377-.374-12.549 6.512-11.716 13.041.346 2.704 1.363 5.487 3.6 7.202z" fill="#d787ff"/><path d="m541.379 438.013c1.762 1.349 4.066 1.88 6.315 2.16 1.887.234 3.847.31 5.654-.252 2.67-.83 4.719-3.017 5.717-5.501.999-2.484 1.04-5.233.606-7.859-.771-4.663-5.157-8.537-10.174-8.791-7.377-.373-12.549 6.51-11.716 13.041.343 2.703 1.359 5.487 3.598 7.202z" fill="#d787ff"/><path d="m89.1717 870.547c1.7616 1.349 4.0657 1.88 6.3148 2.159 1.8874.234 3.8475.311 5.6545-.252 2.672-.83 4.718-3.017 5.717-5.501.997-2.483 1.04-5.233.605-7.858-.77-4.663-5.156-8.538-10.1756-8.791-7.3765-.374-12.549 6.509-11.7154 13.041.344 2.704 1.3604 5.487 3.5997 7.202z" fill="#d787ff"/><path d="m952.226 127.923c1.762 1.35 4.066 1.881 6.315 2.16 1.887.234 3.847.311 5.654-.252 2.672-.83 4.719-3.017 5.717-5.501.997-2.484 1.04-5.233.606-7.858-.771-4.663-5.157-8.538-10.174-8.791-7.377-.374-12.549 6.509-11.716 13.041.344 2.702 1.361 5.487 3.598 7.201z" fill="#edbdff"/><path d="m986.511 645.432c-1.138 1.903-1.402 4.255-1.421 6.521-.016 1.902.131 3.859.896 5.591 1.131 2.559 3.535 4.345 6.115 5.053 2.581.708 5.316.434 7.873-.295 4.546-1.298 7.886-6.101 7.566-11.116-.47-7.375-7.898-11.727-14.289-10.152-2.645.649-5.293 1.979-6.74 4.398z" fill="#ff8500"/><path d="m1305.6 546.607c-.5 1.125-.49 2.434-.35 3.683.12 1.048.33 2.114.87 3.017.79 1.334 2.23 2.156 3.7 2.374s2.95-.114 4.31-.686c2.42-1.017 3.94-3.883 3.43-6.622-.75-4.028-5.13-5.93-8.54-4.638-1.41.537-2.78 1.444-3.42 2.872z" fill="#ff8500"/><path d="m575.499 740.095c-1.545-.486-3.258-.273-4.87.097-1.352.31-2.715.747-3.814 1.585-1.624 1.237-2.483 3.247-2.548 5.2-.065 1.952.594 3.848 1.546 5.54 1.692 3.005 5.668 4.566 9.173 3.487 5.153-1.588 6.981-7.6 4.779-11.871-.91-1.764-2.302-3.42-4.266-4.038z" fill="#ff8500"/><path d="m540.719 286.627c-1.546-.485-3.258-.273-4.87.097-1.353.311-2.715.747-3.814 1.585-1.624 1.237-2.483 3.247-2.548 5.2s.594 3.849 1.545 5.54c1.693 3.005 5.668 4.567 9.173 3.487 5.153-1.587 6.982-7.599 4.78-11.871-.912-1.764-2.304-3.42-4.266-4.038z" fill="#ff8500"/><path d="m1533.01 112.898c-1.18-.37-2.48-.209-3.7.073-1.03.236-2.06.568-2.9 1.203-1.23.94-1.88 2.467-1.93 3.949-.05 1.483.45 2.925 1.17 4.209 1.29 2.283 4.31 3.469 6.97 2.649 3.91-1.205 5.3-5.772 3.63-9.015-.69-1.343-1.75-2.6-3.24-3.068z" fill="#ff8500"/><path d="m678.991 905.885c-1.173-.37-2.475-.208-3.698.075-1.026.236-2.062.568-2.898 1.203-1.234.941-1.885 2.467-1.934 3.95-.049 1.482.45 2.922 1.174 4.208 1.285 2.283 4.303 3.469 6.967 2.649 3.912-1.205 5.302-5.772 3.629-9.015-.694-1.343-1.749-2.6-3.24-3.07z" fill="#ff8500"/><path d="m422.389 931.653c-1.174-.37-2.475-.209-3.698.074-1.026.236-2.062.569-2.898 1.204-1.235.94-1.885 2.466-1.934 3.949-.05 1.483.45 2.925 1.173 4.209 1.286 2.283 4.304 3.469 6.968 2.649 3.914-1.206 5.302-5.772 3.629-9.015-.692-1.344-1.75-2.6-3.24-3.07z" fill="#ff8500"/><path d="m1005.37 47.3352c-.5 1.123-.48 2.4347-.35 3.6836.12 1.0482.33 2.1141.87 3.0168.79 1.3334 2.23 2.1555 3.7 2.3738s2.96-.1141 4.32-.6864c2.41-1.0167 3.93-3.8822 3.42-6.6217-.75-4.0278-5.13-5.9295-8.54-4.6374-1.41.5369-2.78 1.4435-3.42 2.8713z" fill="#ff8500"/><path d="m1197.38 658.426c-.5 1.125-.49 2.435-.35 3.684.12 1.048.33 2.114.87 3.016.79 1.334 2.23 2.156 3.7 2.374 1.46.218 2.95-.114 4.31-.686 2.41-1.017 3.94-3.882 3.43-6.622-.75-4.028-5.13-5.929-8.54-4.637-1.41.537-2.78 1.443-3.42 2.871z" fill="#d787ff"/><path d="m581.584 483.571c-.499 1.123-.49 2.435-.35 3.684.118 1.048.328 2.114.865 3.017.792 1.333 2.233 2.155 3.702 2.374 1.467.218 2.955-.115 4.313-.687 2.415-1.017 3.938-3.882 3.427-6.622-.751-4.025-5.127-5.929-8.538-4.637-1.414.537-2.784 1.444-3.419 2.871z" fill="#d787ff"/><path d="m7.28583 822.796c-.50133 1.123-.48953 2.435-.34994 3.684.11796 1.048.32832 2.114.86307 3.016.7923 1.334 2.23334 2.156 3.70194 2.374 1.4667.218 2.9549-.114 4.3135-.686 2.4142-1.017 3.9378-3.882 3.4267-6.622-.7491-4.026-5.1273-5.93-8.5384-4.637-1.41154.536-2.77988 1.443-3.41687 2.871z" fill="#d787ff"/><path d="m1418.54 857.008c.43 1.153 1.35 2.083 2.33 2.875.81.667 1.71 1.281 2.73 1.55 1.49.399 3.1-.024 4.3-.895s2.03-2.149 2.6-3.51c1.02-2.415.1-5.529-2.18-7.129-3.35-2.353-7.81-.647-9.35 2.664-.63 1.373-.97 2.98-.43 4.445z" fill="#edbdff"/><path d="m1591.18 885.686c.43 1.152 1.35 2.083 2.33 2.877.81.667 1.71 1.28 2.73 1.55 1.49.399 3.1-.024 4.3-.895s2.03-2.15 2.6-3.511c1.02-2.415.1-5.528-2.18-7.129-3.35-2.352-7.81-.647-9.35 2.665-.63 1.371-.97 2.978-.43 4.443z" fill="#edbdff"/><path d="m1191.14 845.825c-.5 1.125-.49 2.435-.35 3.684.12 1.048.33 2.114.86 3.017.8 1.333 2.24 2.155 3.71 2.373 1.46.219 2.95-.114 4.31-.686 2.41-1.017 3.94-3.882 3.43-6.622-.76-4.025-5.13-5.929-8.54-4.637-1.42.537-2.79 1.443-3.42 2.871z" fill="#edbdff"/><path d="m1046.6 712.729c-1.18-.37-2.48-.209-3.7.075-1.03.236-2.06.568-2.9 1.203-1.23.94-1.88 2.466-1.93 3.949s.45 2.925 1.17 4.209c1.29 2.283 4.31 3.469 6.97 2.649 3.91-1.206 5.3-5.772 3.63-9.015-.69-1.343-1.75-2.6-3.24-3.07z" fill="#edbdff"/><path d="m44.6476 432.529c-1.1737-.37-2.4752-.209-3.6981.074-1.0262.236-2.0623.569-2.8979 1.204-1.2326.94-1.8853 2.466-1.9345 3.949-.0491 1.483.4502 2.925 1.1737 4.209 1.2858 2.283 4.3055 3.469 6.9675 2.649 3.9123-1.206 5.3023-5.772 3.6292-9.017-.694-1.344-1.7497-2.6-3.2399-3.068z" fill="#edbdff"/><path d="m792.264 526.37c-1.173-.37-2.475-.209-3.698.072-1.026.236-2.062.569-2.898 1.204-1.232.94-1.885 2.466-1.934 3.949s.45 2.923 1.174 4.209c1.285 2.283 4.305 3.469 6.967 2.649 3.912-1.206 5.302-5.772 3.629-9.015-.692-1.342-1.747-2.598-3.24-3.068z" fill="#edbdff"/><path d="m1557.3 568.379c-1.17-.369-2.47-.208-3.69.073-1.03.236-2.07.569-2.9 1.204-1.24.94-1.89 2.466-1.94 3.949s.45 2.924 1.18 4.208c1.28 2.284 4.3 3.47 6.96 2.65 3.92-1.206 5.31-5.773 3.63-9.018-.69-1.339-1.75-2.598-3.24-3.066z" fill="#edbdff"/><path d="m30.0482 912.164c-1.1737-.369-2.4752-.208-3.698.075-1.0263.236-2.0624.569-2.8979 1.204-1.2347.94-1.8854 2.466-1.9346 3.949-.0491 1.483.4503 2.924 1.1737 4.209 1.2858 2.283 4.3036 3.469 6.9676 2.649 3.9123-1.206 5.3022-5.773 3.6292-9.016-.6921-1.345-1.7498-2.602-3.24-3.07z" fill="#edbdff"/><path d="m268.443 112.205c-2.2.292-4.203 1.546-5.99 2.941-1.5 1.17-2.939 2.501-3.82 4.177-1.301 2.476-1.205 5.471-.155 7.931 1.05 2.463 2.964 4.437 5.125 5.987 3.842 2.753 9.681 2.389 13.41-.981 5.479-4.954 4.272-13.48-.934-17.51-2.154-1.665-4.84-2.916-7.636-2.545z" fill="#ff8500"/><path d="m607.714 714.615c3.151 2.415 7.276 3.365 11.301 3.863 3.377.419 6.883.556 10.119-.451 4.779-1.486 8.444-5.398 10.229-9.841 1.785-4.445 1.86-9.367 1.085-14.063-1.378-8.345-9.227-15.28-18.209-15.734-13.202-.667-22.458 11.651-20.966 23.339.618 4.838 2.436 9.817 6.441 12.887z" fill="#ff8500"/><path d="m941.62 851.778c2.579 1.977 5.953 2.753 9.246 3.16 2.764.343 5.632.457 8.28-.367 3.913-1.216 6.911-4.417 8.372-8.054 1.46-3.636 1.521-7.664.888-11.507-1.126-6.828-7.549-12.502-14.9-12.874-10.803-.544-18.376 9.535-17.157 19.099.505 3.955 1.993 8.032 5.271 10.543z" fill="#ff8500"/><path d="m734.161 532.795c1.762 1.349 4.066 1.88 6.315 2.159 1.887.234 3.845.311 5.654-.252 2.672-.83 4.719-3.017 5.717-5.499.997-2.483 1.04-5.233.606-7.858-.771-4.663-5.157-8.538-10.174-8.791-7.377-.374-12.549 6.511-11.716 13.041.344 2.7 1.361 5.485 3.598 7.2z" fill="#ff8500"/><path d="m46.0357 348.444c1.7615 1.349 4.0657 1.88 6.3148 2.159 1.8874.234 3.8475.311 5.6542-.251 2.6718-.83 4.7184-3.017 5.7171-5.499.9968-2.484 1.0401-5.233.6056-7.859-.7707-4.663-5.1568-8.537-10.1741-8.791-7.3764-.374-12.5489 6.512-11.7154 13.041.3421 2.7 1.3605 5.483 3.5978 7.2z" fill="#ff8500"/><path d="m608.821 136.634c-.502 1.123-.49 2.435-.35 3.683.118 1.049.328 2.115.865 3.017.792 1.334 2.233 2.156 3.702 2.374 1.466.218 2.955-.114 4.313-.686 2.414-1.017 3.936-3.883 3.427-6.622-.751-4.026-5.127-5.93-8.538-4.638-1.414.537-2.784 1.444-3.419 2.872z" fill="#ff8500"/><path d="m213.82 94.4465c-.501 1.125-.49 2.4348-.35 3.6836.118 1.0482.328 2.1139.865 3.0169.792 1.333 2.233 2.155 3.702 2.374 1.467.218 2.955-.114 4.313-.687 2.415-1.016 3.936-3.8819 3.427-6.6214-.751-4.0278-5.127-5.9295-8.538-4.6374-1.414.5369-2.782 1.4435-3.419 2.8713z" fill="#ff8500"/><path d="m1149.1 330.338c-.5 1.123-.49 2.435-.35 3.684.12 1.048.33 2.114.87 3.017.79 1.333 2.23 2.155 3.7 2.373 1.46.219 2.95-.114 4.31-.686 2.42-1.017 3.94-3.882 3.43-6.622-.75-4.028-5.13-5.929-8.54-4.637-1.41.537-2.78 1.443-3.42 2.871z" fill="#edbdff"/><path d="m420.515 19.2727c-.499 1.1249-.489 2.4347-.349 3.6836.117 1.0482.328 2.1141.865 3.0168.792 1.3334 2.233 2.1555 3.7 2.3738 1.466.2183 2.954-.1141 4.313-.6864 2.414-1.0167 3.938-3.8822 3.427-6.6217-.751-4.0278-5.128-5.9295-8.539-4.6374-1.411.5369-2.782 1.4435-3.417 2.8713z" fill="#edbdff"/><path d="m1718.69 176.273c-.5 1.125-.49 2.434-.35 3.683.12 1.048.33 2.114.87 3.017.79 1.334 2.23 2.156 3.7 2.374s2.95-.114 4.31-.686c2.42-1.017 3.94-3.883 3.43-6.622-.75-4.028-5.13-5.93-8.54-4.638-1.41.537-2.78 1.444-3.42 2.872z" fill="#d787ff"/><path d="m1721.09 702.265c-.5 1.123-.49 2.435-.35 3.683.12 1.049.33 2.115.87 3.017.79 1.334 2.23 2.156 3.7 2.374 1.46.218 2.95-.114 4.31-.686 2.42-1.017 3.94-3.882 3.43-6.62-.75-4.028-5.13-5.93-8.54-4.637-1.41.532-2.78 1.439-3.42 2.869z" fill="#d787ff"/><path d="m1433.12 506.62c-.5 1.123-.49 2.435-.35 3.684.12 1.048.33 2.114.87 3.017.79 1.333 2.23 2.155 3.7 2.373 1.47.219 2.96-.114 4.31-.686 2.42-1.017 3.94-3.882 3.43-6.622-.75-4.026-5.13-5.929-8.54-4.637-1.41.537-2.78 1.443-3.42 2.871z" fill="#d787ff"/><path d="m1495.42 448.111c-.51 1.123-.49 2.434-.35 3.683.11 1.048.32 2.114.86 3.017.79 1.333 2.23 2.155 3.7 2.374 1.47.218 2.96-.114 4.32-.687 2.41-1.016 3.93-3.88 3.42-6.619-.75-4.028-5.12-5.93-8.53-4.638-1.42.535-2.79 1.442-3.42 2.87z" fill="#d787ff"/><path d="m1714.85 376.648c-.5 1.125-.49 2.434-.35 3.683.12 1.048.33 2.114.86 3.017.79 1.334 2.23 2.156 3.7 2.374s2.96-.114 4.32-.686c2.41-1.017 3.93-3.881 3.42-6.622-.75-4.028-5.12-5.93-8.54-4.638-1.41.537-2.78 1.444-3.41 2.872z" fill="#d787ff"/><path d="m1673.43 201.573c-.5 1.122-.49 2.434-.35 3.683.12 1.048.33 2.114.87 3.017.79 1.333 2.23 2.155 3.7 2.374 1.47.218 2.96-.114 4.31-.687 2.42-1.016 3.94-3.882 3.43-6.621-.75-4.028-5.13-5.93-8.54-4.638-1.41.537-2.78 1.444-3.42 2.872z" fill="#ff8500"/><path d="m193.146 753.411c-.502 1.125-.49 2.435-.35 3.684.118 1.048.328 2.114.865 3.017.792 1.333 2.233 2.155 3.702 2.374 1.466.218 2.955-.114 4.313-.687 2.414-1.017 3.936-3.882 3.427-6.622-.751-4.027-5.128-5.929-8.539-4.637-1.413.537-2.783 1.444-3.418 2.871z" fill="#ff8500"/><path d="m1161.18 186.943c-.5 1.123-.49 2.434-.35 3.683.12 1.048.33 2.114.87 3.017.79 1.333 2.23 2.156 3.7 2.374s2.95-.114 4.31-.687c2.42-1.016 3.94-3.88 3.43-6.619-.75-4.028-5.13-5.93-8.54-4.638-1.41.535-2.78 1.442-3.42 2.87z" fill="#ff8500"/><g fill="#d787ff"><path d="m980.904 725.764c2.108-1.249 4.423-2.252 6.883-2.977l.725-.215 8.285 8.673-1.527.895c-15.958 9.458-17.679 27.097-17.694 27.274l-.15 1.697-12.508-5.288.02-.842c.02-.816.633-20.129 15.966-29.217z"/><path d="m1383.6 487.945c.25.044 25.28 4.6 28.48 27.337l.11.749-9.8 6.923-.58-1.455c-6.98-17.38-24.27-21.659-24.44-21.701l-1.66-.393 7.07-11.603z"/><path d="m931.748 59.776c7.825 3.127 17.71 9.674 20.37 23.0965l.147.7414-9.393 7.4596-.665-1.4199c-5.019-10.7321-13.722-16.0421-20.139-18.6067-3.203-1.2803-5.454-1.6952-5.476-1.6992l-1.675-.3028 6.409-11.9751.836.0964c.173.0177 4.335.5133 9.586 2.6098z"/><path d="m727.892 884.704c4.557 1.821 10.315 5.635 11.862 13.452l.085.433-5.471 4.344-.388-.828c-2.923-6.25-7.992-9.343-11.731-10.836-1.866-.745-3.177-.987-3.189-.989l-.975-.177 3.734-6.974.487.055c.102.01 2.527.299 5.586 1.52z"/><path d="m344.646 642.891c7.824 3.127 17.709 9.672 20.369 23.096l.148.742-9.394 7.459-.664-1.42c-5.02-10.732-13.723-16.042-20.14-18.606-3.203-1.281-5.454-1.696-5.475-1.7l-1.675-.302 6.409-11.975.835.096c.173.016 4.335.511 9.587 2.61z"/><path d="m460.553 172.537c2.271 0 4.573.366 6.844 1.09l.719.23 1.581 9.363-1.565-.104c-.584-.04-1.174-.059-1.754-.059h-.002c-12.637.002-20.246 9.22-20.32 9.312l-1.074 1.326-5.839-9.006.488-.686c.332-.468 8.294-11.468 20.92-11.468z"/><path d="m1398.44 794.038c3.21-.155 6.48.162 9.73.942l1.03.248 2.81 12.017-2.21-.028c-.83-.01-1.66.006-2.48.045-17.77.864-27.98 13.326-28.09 13.452l-1.43 1.782-8.8-11.253.64-.923c.45-.631 10.99-15.418 28.8-16.282z"/><path d="m1251.41 388.933c7.4-6.852 15.91-10.268 24.64-9.876l1.03.047 3.41 11.226-2.2.424c-7.26 1.41-13.94 4.907-19.87 10.398-4.61 4.268-7 8.209-7.03 8.248l-1.29 2.148-8.92-9.318.57-1.092c.14-.261 3.42-6.421 9.66-12.205z"/><path d="m668.004 51.6651c5.875 1.8742 13.574 6.1517 16.902 15.8729l.246.7159-7.034 7.3219-.85-1.3196c-4.653-7.2334-11.292-10.5591-16.044-12.0754-3.736-1.1918-6.496-1.3294-6.523-1.3294l-1.701-.0767 4.013-10.7577.841-.0157c.191-.004 4.709-.0728 10.15 1.6638z"/></g></g></svg>