<svg fill="none" height="960" viewBox="0 0 1740 960" width="1740" xmlns="http://www.w3.org/2000/svg" xmlns:xlink="http://www.w3.org/1999/xlink"><clipPath id="a"><path d="m-113-110h1966v1180h-1966z"/></clipPath><clipPath id="b"><path d="m0 0h126.236v126.236h-126.236z" transform="matrix(.8978947 -.4402103 .4402103 .8978947 119.599 406.555)"/></clipPath><clipPath id="c"><path d="m0 0h109.907v109.907h-109.907z" transform="matrix(.94109342 -.33814668 .33814668 .94109342 1548.24 808.769)"/></clipPath><clipPath id="d"><path d="m0 0h78.8877v78.8877h-78.8877z" transform="matrix(.98450869 .1753358 -.1753358 .98450869 43.7969 782.965)"/></clipPath><clipPath id="e"><path d="m0 0h56.4299v56.4299h-56.4299z" transform="matrix(.98450869 .1753358 -.1753358 .98450869 1238.89 850)"/></clipPath><clipPath id="f"><path d="m0 0h78.8877v78.8877h-78.8877z" transform="matrix(.98450869 .1753358 -.1753358 .98450869 1264.83 113)"/></clipPath><g clip-path="url(#a)"><g fill="#ddd" opacity=".5"><path d="m869.513 477.552 983.487-256.719v509.239z"/><path d="m870.487 478.654 186.273 591.346h-366.109z"/><path d="m1724.16 1066.19-237.59-1.09h-136.82l-479.263-586.446z"/><path d="m868.537 477.552-201.214-586.309 389.437-1.243z"/><path d="m1329.89-108.928h141.82l245.74.171-847.419 586.34z"/><path d="m870.488 478.328-983.488-256.719v509.237z"/><path d="m15.6334 1070h373.0916l480.787-590.568z"/><path d="m410.113-108.151h-141.827l-245.7382.171 847.4212 586.34z"/></g><g clip-path="url(#b)"><path d="m212.185 447.538 16.219 33.083 11.512-5.643c.47-.231 1.012-.265 1.507-.096.495.17.902.529 1.132.998.231.47.265 1.012.095 1.507-.169.495-.528.902-.998 1.133l-26.565 13.024c-.47.23-1.012.264-1.507.095s-.902-.528-1.132-.998c-.231-.47-.265-1.011-.096-1.506.17-.495.529-.903.998-1.133l11.512-5.644-16.22-33.083c-9.688 1.001-19.433-1.27-27.682-6.45-8.248-5.18-14.526-12.972-17.832-22.134l-7.679-20.949c-.167-.46-.159-.966.024-1.42.182-.455.526-.826.966-1.042l19.959-9.785 2.334 17.396c.044.309.16.604.339.861.179.256.416.467.691.614.276.147.582.228.895.234.313.007.622-.061.904-.196l7.651-3.751 5.639 18.851c.137.45.431.837.828 1.09.398.253.872.355 1.339.289.466-.067.893-.298 1.203-.653.311-.354.484-.807.489-1.278l.244-32.346c.007-.337-.074-.67-.234-.967s-.393-.548-.678-.728c-.285-.181-.612-.285-.948-.302-.337-.018-.673.052-.975.202l-4.233 2.075-1.727-8.138 12.893-6.321c.441-.215.945-.26 1.416-.126s.876.437 1.137.852l11.858 18.899c5.218 8.225 7.533 17.96 6.576 27.653-.956 9.693-5.13 18.787-11.854 25.833z" fill="#ccc"/></g><g clip-path="url(#c)"><path d="m1624.4 853.152 10.85 30.19 10.5-3.775c.43-.154.91-.131 1.32.063s.73.544.88.973c.16.428.13.901-.06 1.312-.2.412-.55.73-.97.884l-24.25 8.711c-.42.154-.9.131-1.31-.063s-.73-.544-.88-.972c-.16-.429-.13-.901.06-1.313s.54-.73.97-.884l10.51-3.775-10.85-30.189c-8.48-.068-16.69-2.971-23.33-8.249-6.64-5.277-11.32-12.624-13.3-20.87l-4.63-18.867c-.1-.414-.04-.851.16-1.227.2-.375.54-.663.94-.808l18.21-6.545.35 15.278c0 .272.07.539.2.778.14.239.32.444.54.598.23.154.49.253.76.289s.54.007.8-.083l6.98-2.509 3.06 16.855c.08.404.29.767.61 1.024s.72.391 1.13.378c.41-.012.81-.172 1.11-.448.3-.277.5-.652.54-1.059l3.33-27.966c.04-.291 0-.587-.11-.859-.11-.273-.28-.512-.51-.696-.23-.183-.51-.305-.8-.352-.29-.048-.58-.02-.86.081l-3.86 1.387-.71-7.208 11.76-4.227c.41-.144.85-.134 1.24.027.4.162.72.463.9.847l8.44 17.496c3.73 7.62 4.79 16.266 3.03 24.561-1.76 8.296-6.25 15.763-12.75 21.212z" fill="#ccc"/></g><g clip-path="url(#d)"><path d="m75.3453 837.812-4.0372 22.669 7.8879 1.405c.3219.057.6078.24.7948.508.1871.268.2599.6.2026.922-.0573.321-.2401.607-.5082.794s-.5996.26-.9214.203l-18.2029-3.242c-.3219-.057-.6078-.24-.7948-.508-.1871-.268-.2599-.6-.2026-.922.0573-.321.2401-.607.5082-.794s.5996-.26.9214-.203l7.8879 1.405 4.0372-22.669c-5.2545-3.072-9.3294-7.815-11.5756-13.473-2.2463-5.657-2.5345-11.903-.8188-17.743l3.8634-13.398c.0854-.293.2764-.545.5363-.707.2598-.162.5703-.222.8717-.169l13.6764 2.436-5.2462 9.633c-.0924.172-.1429.363-.1473.559-.0044.195.0373.389.1219.565.0845.176.2095.33.3647.448.1551.119.3362.199.5283.235l5.2424.934-4.1168 11.586c-.0974.278-.0921.581.0149.856.1069.274.3085.501.5682.639.2597.139.5604.18.8477.116s.5423-.229.7188-.464l12.0656-16.218c.1277-.168.21-.366.239-.575.029-.208.0038-.421-.0732-.617-.0771-.196-.2033-.369-.3666-.502-.1633-.134-.3582-.222-.5658-.258l-2.9004-.517 2.1339-4.741 8.8345 1.574c.3012.054.5719.217.76.459.188.241.2803.544.259.849l-.9994 13.907c-.4061 6.074-2.833 11.836-6.8943 16.37-4.0612 4.534-9.523 7.579-15.5152 8.648z" fill="#ccc"/></g><g clip-path="url(#e)"><path d="m1261.46 889.234-2.89 16.215 5.65 1.005c.23.041.43.172.56.364.14.191.19.428.15.659-.04.23-.17.434-.36.568-.2.134-.43.186-.66.145l-13.02-2.319c-.23-.041-.44-.172-.57-.363-.14-.192-.19-.429-.15-.66.04-.23.17-.434.37-.568.19-.134.42-.186.66-.145l5.64 1.005 2.89-16.215c-3.76-2.198-6.68-5.591-8.29-9.638-1.6-4.047-1.81-8.515-.58-12.692l2.76-9.584c.06-.21.2-.39.39-.506.18-.115.4-.158.62-.12l9.78 1.742-3.75 6.891c-.07.123-.1.26-.11.399 0 .14.03.279.09.405s.15.236.26.32c.11.085.24.143.38.168l3.75.668-2.94 8.288c-.07.199-.07.416.01.612.07.196.22.359.4.458.19.099.4.128.61.082.21-.045.39-.163.51-.332l8.63-11.601c.1-.12.15-.261.18-.41.02-.15 0-.302-.06-.442-.05-.14-.14-.264-.26-.359-.12-.096-.26-.159-.4-.185l-2.08-.37 1.53-3.391 6.32 1.126c.21.039.41.155.54.328.14.173.2.389.19.608l-.72 9.948c-.29 4.344-2.03 8.466-4.93 11.71-2.91 3.243-6.81 5.421-11.1 6.186z" fill="#ccc"/></g><g clip-path="url(#f)"><path d="m1296.38 167.848-4.04 22.668 7.89 1.405c.32.057.61.24.8.508.18.268.26.6.2.922s-.24.607-.51.794c-.27.188-.6.26-.92.203l-18.2-3.242c-.33-.057-.61-.24-.8-.508s-.26-.6-.2-.921c.06-.322.24-.608.51-.795.26-.187.6-.26.92-.203l7.89 1.405 4.03-22.669c-5.25-3.072-9.33-7.815-11.57-13.472-2.25-5.658-2.54-11.904-.82-17.744l3.86-13.397c.09-.294.28-.546.54-.708s.57-.222.87-.168l13.68 2.435-5.25 9.633c-.09.172-.14.364-.15.559 0 .195.04.389.12.565.09.176.21.33.37.448.15.119.34.2.53.235l5.24.934-4.12 11.586c-.09.278-.09.582.02.856s.31.501.57.64c.26.138.56.179.84.115.29-.064.55-.228.72-.464l12.07-16.218c.13-.168.21-.366.24-.574.03-.209 0-.422-.08-.618-.07-.196-.2-.369-.36-.502-.17-.133-.36-.222-.57-.258l-2.9-.517 2.14-4.74 8.83 1.573c.3.054.57.217.76.459.19.241.28.544.26.849l-1 13.907c-.41 6.074-2.83 11.837-6.89 16.371-4.07 4.534-9.53 7.578-15.52 8.648z" fill="#ccc"/></g><path d="m153 126.667c-22.24 0-40.333 18.093-40.333 40.333s18.093 40.334 40.333 40.334 40.333-18.094 40.333-40.334-18.093-40.333-40.333-40.333z" fill="#ccc"/><path d="m170.259 179.075c1.432 1.431 1.432 3.753 0 5.184-.715.717-1.654 1.075-2.592 1.075s-1.878-.358-2.593-1.075l-12.074-12.074-12.074 12.074c-.715.717-1.654 1.075-2.593 1.075-.938 0-1.877-.358-2.592-1.075-1.432-1.431-1.432-3.753 0-5.184l12.074-12.075-12.074-12.074c-1.432-1.431-1.432-3.753 0-5.185 1.43-1.432 3.754-1.432 5.185 0l12.074 12.074 12.074-12.074c1.431-1.432 3.755-1.432 5.185 0 1.432 1.432 1.432 3.754 0 5.185l-12.074 12.074z" fill="#ebebeb"/><path d="m1440.5 570.875c-23.5 0-42.62 19.121-42.62 42.625s19.12 42.625 42.62 42.625 42.62-19.121 42.62-42.625-19.12-42.625-42.62-42.625z" fill="#ccc"/><path d="m1458.74 626.26c1.51 1.513 1.51 3.967 0 5.48-.76.757-1.75 1.135-2.74 1.135s-1.98-.378-2.74-1.135l-12.76-12.761-12.76 12.761c-.76.757-1.75 1.135-2.74 1.135s-1.98-.378-2.74-1.135c-1.51-1.513-1.51-3.967 0-5.48l12.76-12.76-12.76-12.76c-1.51-1.513-1.51-3.967 0-5.48s3.97-1.513 5.48 0l12.76 12.761 12.76-12.761c1.51-1.513 3.97-1.513 5.48 0s1.51 3.967 0 5.48l-12.76 12.76z" fill="#ebebeb"/><path d="m314 804.083c-12.636 0-22.917 10.28-22.917 22.917 0 12.636 10.281 22.916 22.917 22.916s22.917-10.28 22.917-22.916c0-12.637-10.281-22.917-22.917-22.917z" fill="#ccc"/><path d="m323.806 833.86c.814.813.814 2.133 0 2.946-.406.407-.94.61-1.473.61s-1.066-.203-1.473-.61l-6.86-6.86-6.86 6.86c-.407.407-.94.61-1.473.61s-1.067-.203-1.473-.61c-.814-.813-.814-2.133 0-2.946l6.86-6.86-6.86-6.861c-.814-.813-.814-2.132 0-2.946.812-.813 2.133-.813 2.946 0l6.86 6.861 6.86-6.861c.813-.813 2.134-.813 2.946 0 .814.814.814 2.133 0 2.946l-6.86 6.861z" fill="#ebebeb"/><path d="m553 65.083c-12.636 0-22.917 10.2804-22.917 22.9167s10.281 22.9163 22.917 22.9163 22.917-10.28 22.917-22.9163-10.281-22.9167-22.917-22.9167z" fill="#ccc"/><path d="m562.806 94.86c.814.8133.814 2.1327 0 2.946-.406.4069-.94.6103-1.473.6103s-1.066-.2034-1.473-.6103l-6.86-6.8604-6.86 6.8604c-.407.4069-.94.6103-1.473.6103s-1.067-.2034-1.473-.6103c-.814-.8133-.814-2.1327 0-2.946l6.86-6.8603-6.86-6.8604c-.814-.8133-.814-2.1326 0-2.9459.812-.8138 2.133-.8138 2.946 0l6.86 6.8603 6.86-6.8603c.813-.8138 2.134-.8138 2.946 0 .814.8133.814 2.1326 0 2.9459l-6.86 6.8604z" fill="#ebebeb"/><path d="m1543 282.25c-13.65 0-24.75 11.103-24.75 24.75s11.1 24.75 24.75 24.75 24.75-11.103 24.75-24.75-11.1-24.75-24.75-24.75z" fill="#ccc"/><path d="m1553.59 314.409c.88.879.88 2.303 0 3.182-.44.439-1.01.659-1.59.659s-1.15-.22-1.59-.659l-7.41-7.409-7.41 7.409c-.44.439-1.01.659-1.59.659s-1.15-.22-1.59-.659c-.88-.879-.88-2.303 0-3.182l7.41-7.409-7.41-7.409c-.88-.879-.88-2.303 0-3.182s2.3-.879 3.18 0l7.41 7.409 7.41-7.409c.88-.879 2.3-.879 3.18 0s.88 2.303 0 3.182l-7.41 7.409z" fill="#ebebeb"/></g></svg>