<svg fill="none" height="162" viewBox="0 0 100 162" width="100" xmlns="http://www.w3.org/2000/svg" xmlns:xlink="http://www.w3.org/1999/xlink"><linearGradient id="a" gradientUnits="userSpaceOnUse" x1="-7.67482" x2="93.3137" y1="23.7762" y2="124.765"><stop offset="0" stop-color="#ffed87"/><stop offset="1" stop-color="#ff9d2b"/></linearGradient><path d="m36.0694 114.799c-11.7995 0-17.6795-1.421-17.6795-4.262v-8.485c0-6.7087 5.6038-15.2722 16.7719-25.73 4.1831-3.8674 8.011-8.2873 11.5233-13.1807 3.5122-4.9329 5.2486-9.3923 5.2486-13.4175 0-7.4586-4.3015-11.1682-12.865-11.1682-8.5636 0-17.206 2.8414-25.8485 8.4846-5.68271-5.6827-9.62904-12.0757-11.87845-19.258-.907656-2.3678-1.34175-4.4989-1.34175-6.3931 0-1.8548.355171-3.6306 1.10497-5.2486 1.1839-3.8674 6.74823-7.5375 16.65353-10.97081s20.4025-5.16969 31.4522-5.16969c16.693 0 29.2423 3.59116 37.6085 10.734 8.3663 7.1429 12.5494 16.9298 12.5494 29.3212 0 5.6828-1.3812 11.2076-4.1437 16.6536-2.7624 5.4459-6.1168 10.2209-10.0631 14.3251s-7.8532 7.9321-11.7601 11.5233c-9.3922 8.9582-14.0884 15.7459-14.0884 20.3628v6.709c0 1.776-2.7624 3.118-8.2873 3.907-5.4854.829-10.4577 1.263-14.9566 1.263zm21.9416 45.185c0 .908-6.1562 1.342-18.4688 1.342-12.3125 0-18.4688-.395-18.4688-1.105v-35.122c0-1.184 6.1563-1.776 18.4688-1.776 12.3126 0 18.4688.394 18.4688 1.105z" fill="url(#a)"/></svg>