<svg fill="none" height="52" viewBox="0 0 78 52" width="78" xmlns="http://www.w3.org/2000/svg"><path d="m19.5939 38.2505c-1.9707 8.067-6.1851 10.9896-9.62607 12.6558-.56728.2754-1.14816-.2859-.93929-.8811 1.49586-4.2524.67297-11.0017 2.02706-16.5364 2.3186-9.4993 7.7496-11.868 11.3689-13.4465-2.5828 3.955-1.2831 11.8737-2.8306 18.2082zm20.4192-17.3936c-8.5374-4.7596-13.9694-2.3931-17.5886-.8146 4.6557.798 9.5757 7.1403 15.27 10.3139 8.5383 4.7617 13.9693 2.393 17.5886.8145-4.6557-.7979-9.5748-7.1381-15.27-10.3138zm28.6669-19.66687c.2088-.595188-.3699-1.157472-.9393-.881123-3.4441 1.665003-7.6554 4.588803-9.6261 12.655793-1.5485 6.3324-.2487 14.2511-2.8315 18.206 3.6193-1.5784 9.0503-3.9471 11.3698-13.4443 1.3532-5.5369.5291-12.28311 2.0271-16.53637z" fill="#747cca"/><path d="m22.4245 20.0423c-2.4954 3.8227-1.3753 11.3411-2.692 17.5571l-8.8196-3.4629c.0459-.216.0898-.4363.1418-.6499 2.3195-9.4971 7.7505-11.8658 11.3698-13.4443zm31.7553 11.5816c.375-.1559.7611-.3039 1.1033-.4532-4.6557-.7979-9.5748-7.1381-15.27-10.3138-7.7311-4.3118-12.891-2.7692-16.4884-1.269zm14.5002-30.43387c.2088-.595188-.3699-1.157472-.9393-.881123-3.4441 1.665003-7.6554 4.588803-9.6261 12.655793-.0519.2136-.0907.4342-.1365.6502l8.8165 3.4616c1.1447-5.4078.4452-11.79844 1.8854-15.88647z" fill="#9ea8ff"/></svg>