<svg fill="none" height="960" viewBox="0 0 1740 960" width="1740" xmlns="http://www.w3.org/2000/svg" xmlns:xlink="http://www.w3.org/1999/xlink"><clipPath id="a"><path d="m-113-110h1966v1180h-1966z"/></clipPath><g clip-path="url(#a)"><g opacity=".5"><g fill="#f9e1b0" fill-opacity=".75"><path d="m869.513 477.552 983.487-256.719v509.239z"/><path d="m870.487 478.654 186.273 591.346h-366.109z"/><path d="m1724.16 1066.19-237.59-1.09h-136.82l-479.263-586.446z"/><path d="m868.537 477.552-201.214-586.309 389.437-1.243z"/><path d="m1329.89-108.928h141.82l245.74.171-847.419 586.34z"/><path d="m870.488 478.328-983.488-256.719v509.237z"/></g><g fill="#f9c900"><path d="m275.274 663 4.009 26.36c.4 2.623 2.479 4.664 5.097 5.001l24.62 3.169-24.408 2.818c-2.608.301-4.707 2.295-5.154 4.896l-4.428 25.756-3.341-25.633c-.358-2.744-2.551-4.878-5.29-5.147l-27.379-2.69 27.907-3.517c2.683-.338 4.797-2.462 5.134-5.16z"/><path d="m1447.27 397 4.01 26.36c.4 2.623 2.48 4.664 5.1 5.001l24.62 3.169-24.41 2.818c-2.61.301-4.7 2.295-5.15 4.896l-4.43 25.756-3.34-25.633c-.36-2.744-2.55-4.878-5.29-5.147l-27.38-2.69 27.91-3.517c2.68-.338 4.79-2.462 5.13-5.16z"/><path d="m1076.27 812 4.01 26.36c.4 2.623 2.48 4.664 5.1 5.001l24.62 3.169-24.41 2.818c-2.61.301-4.7 2.295-5.15 4.896l-4.43 25.756-3.34-25.633c-.36-2.744-2.55-4.878-5.29-5.147l-27.38-2.69 27.91-3.517c2.68-.338 4.79-2.462 5.13-5.16z"/><path d="m-17.7264 248 4.0098 26.36c.3993 2.623 2.4785 4.664 5.09664 5.001l24.61996 3.169-24.40796 2.818c-2.60824.301-4.70694 2.295-5.15454 4.896l-4.4275 25.756-3.3411-25.633c-.3578-2.744-2.5507-4.878-5.2903-5.147l-27.3786-2.69 27.9072-3.517c2.6828-.338 4.7964-2.462 5.1337-5.16z"/><path d="m1134.87 32 2.75 17.8318c.28 1.7746 1.7 3.1549 3.5 3.3827l16.88 2.1439-16.74 1.9066c-1.79.2037-3.22 1.5525-3.53 3.3122l-3.04 17.4228-2.29-17.34c-.24-1.8564-1.75-3.2997-3.63-3.4819l-18.77-1.8197 19.14-2.379c1.84-.2287 3.29-1.6657 3.52-3.4906z"/><path d="m1472.87 674 2.75 17.832c.28 1.774 1.7 3.155 3.5 3.383l16.88 2.143-16.74 1.907c-1.79.204-3.22 1.552-3.53 3.312l-3.04 17.423-2.29-17.34c-.24-1.856-1.75-3.3-3.63-3.482l-18.77-1.82 19.14-2.379c1.84-.228 3.29-1.665 3.52-3.49z"/></g><path d="m323.295 363 8.103 52.972c.806 5.272 5.007 9.372 10.298 10.05l49.747 6.369-49.319 5.664c-5.271.605-9.512 4.611-10.415 9.839l-8.947 51.758-6.752-51.512c-.722-5.514-5.153-9.802-10.689-10.342l-55.321-5.406 56.39-7.068c5.421-.68 9.691-4.948 10.373-10.369z" fill="#ffdb49"/><path d="m653.282 812 2.464 15.893c.245 1.582 1.522 2.812 3.13 3.016l15.124 1.91-14.993 1.7c-1.603.181-2.892 1.383-3.167 2.952l-2.72 15.529-2.052-15.455c-.22-1.655-1.567-2.941-3.25-3.103l-16.818-1.622 17.143-2.121c1.648-.204 2.946-1.485 3.154-3.111z" fill="#ffdb49"/><path d="m15.6333 1070h373.0917l480.787-590.568z" fill="#f9e1b0" fill-opacity=".75"/><path d="m410.113-108.151h-141.827l-245.7381.171 847.4211 586.34z" fill="#f9e1b0" fill-opacity=".75"/></g><path d="m1620.86 205 5.84 37.989c.58 3.781 3.61 6.722 7.43 7.207l35.87 4.568-35.57 4.061c-3.8.434-6.85 3.308-7.51 7.057l-6.45 37.118-4.87-36.942c-.52-3.955-3.71-7.029-7.71-7.418l-39.89-3.876 40.66-5.069c3.91-.487 6.99-3.548 7.49-7.436z" fill="#f9c900"/><path d="m222.856 71 5.843 37.989c.581 3.781 3.611 6.722 7.426 7.207l35.875 4.568-35.566 4.061c-3.8.434-6.859 3.308-7.511 7.057l-6.451 37.118-4.869-36.942c-.521-3.955-3.717-7.029-7.708-7.418l-39.895-3.876 40.665-5.069c3.909-.487 6.989-3.548 7.48-7.436z" fill="#f9c900"/><path d="m101.491 571.954c1.274-9.953 5.938-14.032 9.843-16.499.644-.407 1.418.188 1.248.931-1.22 5.308.682 13.3-.194 20.129-1.498 11.719-7.698 15.299-11.829 17.684 2.565-5.098-.068-14.43.932-22.245zm-22.1603 23.649c10.895 4.559 17.0964.982 21.2283-1.404-5.6982-.327-12.4644-7.276-19.7312-10.315-10.8965-4.561-17.0964-.981-21.2281 1.404 5.698.328 12.4628 7.274 19.731 10.315zm-31.7552 27.496c-.1702.743.6009 1.34 1.2471.931 3.9096-2.466 8.5699-6.546 9.8434-16.499 1.0015-7.813-1.6317-17.144.9337-22.243-4.1317 2.386-10.3316 5.965-11.8302 17.682-.8747 6.831 1.0285 14.82-.194 20.129z" fill="#e58cd3"/><path d="m100.559 594.199c2.478-4.928.115-13.803.854-21.444l11.058 2.963c-.026.265-.049.536-.082.799-1.499 11.717-7.699 15.297-11.83 17.682zm-39.696-9.604c-.4291.238-.8726.468-1.2633.693 5.698.328 12.4628 7.274 19.731 10.315 9.8663 4.13 15.8526 1.579 19.9686-.709zm-13.2875 38.504c-.1702.743.6009 1.34 1.2471.931 3.9096-2.466 8.5699-6.546 9.8434-16.499.0334-.264.0501-.534.0758-.799l-11.0544-2.962c-.6419 6.648 1.0636 14.226-.1119 19.329z" fill="#f1b3f7"/><path d="m1654.03 610.123c3.14 11.581-.15 18.219-3.34 22.729-.53.744-1.65.439-1.8-.46-1.08-6.423-6.83-14.387-8.98-22.334-3.7-13.635 1.52-20.422 5-24.945-.51 6.806 6.66 15.917 9.12 25.01zm13.7-36.255c-14.13-.062-19.35 6.723-22.82 11.245 6.44-2.239 17.09 2.35 26.51 2.391 14.13.065 19.34-6.722 22.82-11.245-6.45 2.24-17.09-2.348-26.51-2.391zm22.53-44.886c-.15-.899-1.27-1.206-1.8-.459-3.19 4.51-6.48 11.148-3.34 22.728 2.46 9.092 9.63 18.202 9.12 25.008 3.48-4.523 8.7-11.31 5-24.943-2.15-7.949-7.9-15.908-8.98-22.334z" fill="#f99f10"/><path d="m1644.91 585.113c-.49 6.578 6.17 15.307 8.84 24.09l-13.57 1.774c-.09-.305-.19-.614-.27-.921-3.7-13.633 1.52-20.42 5-24.943zm48.25-7.511c.37-.459.75-.915 1.08-1.343-6.45 2.24-17.09-2.348-26.51-2.391-12.79-.059-18.25 5.494-21.75 9.903zm-2.9-48.62c-.15-.899-1.27-1.206-1.8-.459-3.19 4.51-6.48 11.148-3.34 22.728.08.307.18.613.28.918l13.57-1.774c-2.33-7.64-7.67-15.236-8.71-21.413z" fill="#f9c900"/><path d="m169.174 294.795c27.694 3.544 39.046 16.522 45.909 27.39 1.134 1.791-.522 3.943-2.589 3.47-14.77-3.395-37.009 1.898-56.01-.54-32.609-4.166-42.569-21.418-49.207-32.914 14.187 7.138 40.152-.189 61.897 2.594zm-65.804-61.662c-12.6836 30.316-2.73 47.572 3.907 59.068.912-15.855 20.246-34.682 28.702-54.902 12.69-30.319 2.73-47.571-3.907-59.067-.912 15.855-20.239 34.678-28.702 54.901zm-76.5078-88.359c-2.0671-.473-3.7275 1.672-2.5897 3.47 6.8605 10.879 18.2156 23.846 45.9088 27.39 21.739 2.786 47.7037-4.54 61.8907 2.598-6.638-11.497-16.598-28.748-49.2005-32.918-19.0078-2.434-41.2353 2.862-56.0093-.54z" fill="#f99f10"/><path d="m107.277 292.201c13.712 6.896 38.407.32 59.67 2.376l-8.245 30.77c-.739-.071-1.491-.135-2.224-.228-32.603-4.17-42.563-21.422-49.201-32.918zm26.725-110.454c-.663-1.194-1.303-2.428-1.93-3.515-.912 15.855-20.239 34.678-28.702 54.901-11.4916 27.454-4.3932 44.111 1.975 55.564zm-107.1398-36.973c-2.0671-.473-3.7275 1.672-2.5897 3.47 6.8605 10.879 18.2156 23.846 45.9088 27.39.7332.093 1.4847.139 2.2236.211l8.2419-30.759c-18.4978-1.787-39.5844 2.959-53.7846-.312z" fill="#f9c900"/><path d="m1754.46 857.347c26.66-11.155 43.55-5.397 55.32.792 1.95 1.019 1.58 3.806-.52 4.451-15 4.601-32.19 20.854-50.49 28.502-31.38 13.142-49.24 2.833-61.14-4.037 16.41-.943 35.9-20.948 56.83-29.708zm-90.9-21.216c4.32 33.738 22.17 44.054 34.07 50.924-7.39-14.683.2-41.566-2.68-64.066-4.32-33.746-22.17-44.055-34.07-50.925 7.38 14.684-.2 41.559 2.68 64.067zm-114.31-39.609c-2.09.645-2.47 3.428-.52 4.451 11.78 6.2 28.67 11.947 55.32.792 20.93-8.753 40.42-28.758 56.83-29.701-11.9-6.87-29.76-17.179-61.14-4.044-18.3 7.655-35.48 23.905-50.49 28.502z" fill="#e58cd3"/><path d="m1697.63 887.055c15.86-.914 34.6-19.589 54.72-28.75l8.53 31.848c-.7.318-1.4.65-2.11.946-31.38 13.135-49.24 2.826-61.14-4.044zm-33.2-112.839c-1.22-.727-2.43-1.502-3.55-2.152 7.38 14.684-.2 41.559 2.68 64.067 3.91 30.555 18.89 41.812 30.53 48.783zm-115.18 22.306c-2.09.645-2.47 3.428-.52 4.451 11.78 6.2 28.67 11.947 55.32.792.71-.296 1.41-.644 2.11-.962l-8.53-31.837c-17.51 7.972-33.95 23.139-48.38 27.556z" fill="#f1b3f7"/><path d="m470.594 271.25c-1.971 8.067-6.185 10.99-9.626 12.656-.567.276-1.148-.286-.939-.881 1.495-4.252.673-11.001 2.027-16.536 2.318-9.5 7.749-11.868 11.368-13.447-2.582 3.955-1.283 11.874-2.83 18.208zm20.419-17.393c-8.537-4.76-13.969-2.393-17.589-.815 4.656.798 9.576 7.141 15.271 10.314 8.538 4.762 13.969 2.393 17.588.815-4.656-.798-9.575-7.138-15.27-10.314zm28.667-19.667c.209-.595-.37-1.157-.939-.881-3.444 1.665-7.656 4.589-9.626 12.656-1.549 6.332-.249 14.251-2.832 18.206 3.619-1.579 9.05-3.947 11.37-13.445 1.353-5.536.529-12.283 2.027-16.536z" fill="#747cca"/><path d="m473.424 253.042c-2.495 3.823-1.375 11.341-2.691 17.557l-8.82-3.462c.046-.216.09-.437.142-.65 2.319-9.498 7.75-11.866 11.369-13.445zm31.756 11.582c.375-.156.761-.304 1.103-.453-4.656-.798-9.575-7.138-15.27-10.314-7.731-4.312-12.891-2.769-16.488-1.269zm14.5-30.434c.209-.595-.37-1.157-.939-.881-3.444 1.665-7.656 4.589-9.626 12.656-.052.213-.091.434-.137.65l8.817 3.462c1.144-5.408.445-11.799 1.885-15.887z" fill="#9ea8ff"/><path d="m161.781 818.623c16.407 26.397 9.702 44.001 5.234 55.732-3.235-14.665-24.116-29.334-35.051-46.94-16.406-26.398-9.702-44.001-5.234-55.732 3.235 14.665 24.11 29.332 35.051 46.94zm-52.162 67.461c-25.3212 7.472-33.968 21.295-38.7414 32.473-.7893 1.843 1.0808 3.603 2.9394 2.85 13.2787-5.39 34.836-3.793 52.208-8.926 29.817-8.792 36.522-26.395 40.99-38.126-12.171 8.797-37.513 5.861-57.396 11.729zm58.094-152.53c-29.803 8.798-36.515 26.398-40.983 38.129 12.171-8.797 37.52-5.858 57.397-11.729 25.321-7.472 33.974-21.292 38.741-32.473.789-1.843-1.081-3.603-2.94-2.85-13.288 5.394-34.835 3.793-52.215 8.923z" fill="#9dd8fc"/><path d="m126.729 771.686c3.129 14.171 22.697 28.349 33.881 45.176l-27.467 12.315c-.389-.585-.81-1.166-1.18-1.76-16.406-26.397-9.701-44.001-5.234-55.731zm40.285 102.671c-12.171 8.797-37.513 5.861-57.396 11.729-25.3212 7.472-33.9749 21.293-38.7414 32.473-.2733.634-.2313 1.254.017 1.769l94.6944-42.457c.525-1.253 1.003-2.405 1.426-3.514zm55.836-148.643c-.475-.982-1.702-1.576-2.923-1.081-13.278 5.39-34.835 3.793-52.208 8.926-26.995 7.97-34.969 23.113-39.567 34.62z" fill="#d4ebf9"/><path d="m1496.45 251.005c8.6 2.575 10.51 7.664 11.79 11.056-3.51-2.554-10.83-1.737-16.56-3.456-8.59-2.575-10.5-7.664-11.78-11.055 3.5 2.554 10.82 1.737 16.55 3.455zm1.61 24.561c-4.05 6.455-3.28 11.098-2.17 14.428.18.549.92.573 1.18.055 1.84-3.704 6.81-7.478 9.59-11.908 4.77-7.6 2.85-12.689 1.58-16.08-.96 4.228-7 8.436-10.18 13.505zm-16.58-44.096c-4.77 7.598-2.85 12.688-1.58 16.08.95-4.229 7-8.438 10.18-13.506 4.05-6.455 3.28-11.098 2.17-14.428-.18-.549-.92-.572-1.18-.054-1.84 3.706-6.81 7.477-9.59 11.908z" fill="#9de8fc"/><path d="m1479.9 247.55c3.39 2.467 10.33 1.794 15.96 3.297l-3.58 7.913c-.2-.052-.4-.097-.6-.155-8.59-2.575-10.5-7.664-11.78-11.055zm28.34 14.51c-.96 4.229-7 8.437-10.18 13.506-4.05 6.455-3.28 11.098-2.17 14.428.06.189.19.315.34.379l12.37-27.28c-.13-.371-.24-.712-.36-1.033zm-16.33-42.823c-.29-.122-.67-.016-.84.324-1.84 3.704-6.81 7.478-9.59 11.908-4.31 6.883-3.15 11.682-1.94 15.05z" fill="#d4f2f9"/><path d="m463.612 121.574c4.817 11.51 2.331 18.804-.342 23.889-.44.84-1.643.679-1.922-.226-1.986-6.476-9.004-13.901-12.307-21.8-5.675-13.552-1.223-21.263 1.743-26.4007.408 7.0857 9.046 15.4987 12.828 24.5377zm9.162-39.2497c-14.569 1.8653-19.023 9.5738-21.99 14.712 6.341-3.1903 17.948.086 27.664-1.1595 14.572-1.8636 19.023-9.5738 21.99-14.712-6.341 3.1903-17.945-.0842-27.664 1.1595zm17.103-49.358c-.279-.9059-1.48-1.0691-1.922-.2269-2.678 5.0864-5.159 12.3792-.342 23.8898 3.779 9.0369 12.417 17.4496 12.825 24.5356 2.966-5.1381 7.418-12.8484 1.746-26.3992-3.306-7.9009-10.322-15.3208-12.307-21.7993z" fill="#fc5696"/><path d="m450.784 97.0363c.395 6.8477 8.459 14.9367 12.415 23.6267l-13.747 3.683c-.138-.302-.286-.606-.411-.909-5.675-13.552-1.223-21.263 1.743-26.4007zm48.729-14.3403c.316-.5261.644-1.0453.925-1.5312-6.341 3.1903-17.945-.0842-27.664 1.1595-13.196 1.6901-18.06 8.1581-21.07 13.1821zm-11.903-26.0685c.128.3046.276.6088.413.9108l13.762-3.6874c-3.44-7.5571-10.001-14.6574-11.908-20.8846-.279-.9059-1.48-1.0691-1.922-.2269-2.676 5.0833-5.162 12.3774-.345 23.8881z" fill="#fc92c3"/><path d="m1110.06 238.845c2.95 7.032 1.43 11.488-.2 14.594-.27.513-1.01.415-1.18-.138-1.21-3.956-5.5-8.492-7.52-13.317-3.46-8.28-.74-12.99 1.07-16.129.25 4.329 5.52 9.468 7.83 14.99zm5.6-23.977c-8.9 1.139-11.62 5.848-13.43 8.987 3.87-1.949 10.96.053 16.9-.708 8.9-1.138 11.62-5.849 13.43-8.987-3.87 1.948-10.96-.052-16.9.708zm10.45-30.153c-.17-.553-.9-.653-1.17-.138-1.64 3.107-3.16 7.562-.21 14.594 2.31 5.52 7.58 10.66 7.83 14.989 1.81-3.139 4.53-7.85 1.07-16.128-2.02-4.826-6.31-9.359-7.52-13.317z" fill="#fc5696"/><path d="m1102.23 223.855c.24 4.184 5.17 9.125 7.58 14.434l-8.4 2.25c-.08-.184-.17-.37-.25-.555-3.46-8.28-.74-12.99 1.07-16.129zm29.77-8.76c.19-.321.39-.639.56-.935-3.87 1.948-10.96-.052-16.9.708-8.06 1.032-11.03 4.984-12.87 8.053zm-7.28-15.925c.08.186.17.372.26.556l8.4-2.252c-2.1-4.617-6.11-8.955-7.27-12.759-.17-.553-.9-.653-1.17-.138-1.64 3.105-3.16 7.561-.22 14.593z" fill="#fc92c3"/><path d="m1353.55 83.7004c10.56-3.454 16.85-.7284 21.17 2.0051.72.4502.49 1.5063-.34 1.6891-5.88 1.3014-12.97 6.9995-20.21 9.367-12.43 4.0694-18.96-.4292-23.31-3.4272 6.32.1433 14.4-6.9218 22.69-9.634zm-34.17-10.9242c.62 13.0587 7.14 17.5601 11.48 20.5582-2.37-5.8528 1.36-15.9186.95-24.6278-.62-13.0612-7.14-17.5601-11.49-20.5581 2.38 5.8527-1.35 15.9159-.94 24.6277zm-42.58-18.6905c-.82.1827-1.05 1.2371-.34 1.689 4.33 2.7379 10.62 5.4592 21.18 2.0051 8.28-2.7096 16.36-9.7747 22.68-9.6313-4.35-2.9981-10.87-7.4969-23.3-3.4299-7.24 2.3702-14.33 8.0674-20.22 9.3671z" fill="#fc5696"/><path d="m1330.86 93.3344c6.11.1374 13.86-6.4411 21.85-9.332l2.29 12.4598c-.28.1004-.56.2103-.83.2994-12.43 4.0694-18.96-.4292-23.31-3.4272zm-9.25-44.2566c-.44-.3178-.88-.6458-1.29-.9293 2.38 5.8527-1.35 15.9159-.94 24.6277.56 11.8284 5.95 16.6047 10.19 19.6331zm-23.98 8.7046c.28-.0917.56-.2016.84-.302l-2.29-12.4728c-6.95 2.5133-13.72 7.8294-19.38 9.0781-.82.1827-1.05 1.2371-.34 1.689 4.32 2.7362 10.62 5.4618 21.17 2.0077z" fill="#fc92c3"/></g></svg>