<svg fill="none" height="1080" viewBox="0 0 1920 1080" width="1920" xmlns="http://www.w3.org/2000/svg" xmlns:xlink="http://www.w3.org/1999/xlink"><clipPath id="a"><path d="m-40-10h1966v1180h-1966z"/></clipPath><g clip-path="url(#a)"><g fill="#f9e1b0" fill-opacity=".75" opacity=".5"><path d="m942.513 577.552 983.487-256.719v509.239z"/><path d="m943.487 578.654 186.273 591.346h-366.109z"/><path d="m1797.16 1166.19-237.59-1.09h-136.82l-479.263-586.446z"/><path d="m941.537 577.552-201.214-586.30907 389.437-1.24293z"/><path d="m1402.89-8.92773h141.82l245.74.1711-847.419 586.33963z"/><path d="m943.488 578.328-983.488-256.719v509.237z"/><path d="m88.6333 1170h373.0917l480.787-590.568z"/><path d="m483.113-8.15137h-141.827l-245.7381.1711 847.4211 586.34027z"/></g><path d="m242.174 394.795c27.694 3.544 39.046 16.522 45.909 27.39 1.134 1.791-.522 3.943-2.589 3.47-14.77-3.395-37.009 1.898-56.01-.54-32.609-4.166-42.569-21.418-49.207-32.914 14.187 7.138 40.152-.189 61.897 2.594zm-65.804-61.662c-12.684 30.316-2.73 47.572 3.907 59.068.912-15.855 20.246-34.682 28.702-54.902 12.69-30.319 2.73-47.571-3.907-59.067-.912 15.855-20.239 34.678-28.702 54.901zm-76.5078-88.359c-2.0671-.473-3.7275 1.672-2.5897 3.47 6.8605 10.879 18.2155 23.846 45.9085 27.39 21.739 2.786 47.704-4.54 61.891 2.598-6.638-11.497-16.598-28.748-49.201-32.918-19.007-2.434-41.235 2.862-56.0088-.54z" fill="#f99f10"/><path d="m180.277 392.201c13.712 6.896 38.407.32 59.67 2.376l-8.245 30.77c-.739-.071-1.491-.135-2.224-.228-32.603-4.17-42.563-21.422-49.201-32.918zm26.725-110.454c-.663-1.194-1.303-2.428-1.93-3.515-.912 15.855-20.239 34.678-28.702 54.901-11.492 27.454-4.393 44.111 1.975 55.564zm-107.1398-36.973c-2.0671-.473-3.7275 1.672-2.5897 3.47 6.8605 10.879 18.2155 23.846 45.9085 27.39.734.093 1.485.139 2.224.211l8.242-30.759c-18.498-1.787-39.585 2.959-53.7848-.312z" fill="#f9c900"/><path d="m1827.46 957.347c26.66-11.155 43.55-5.397 55.32.792 1.95 1.019 1.58 3.806-.52 4.451-15 4.601-32.19 20.854-50.49 28.502-31.38 13.138-49.24 2.833-61.14-4.037 16.41-.943 35.9-20.948 56.83-29.708zm-90.9-21.216c4.32 33.738 22.17 44.054 34.07 50.924-7.39-14.683.2-41.566-2.68-64.066-4.32-33.746-22.17-44.055-34.07-50.925 7.38 14.684-.2 41.559 2.68 64.067zm-114.31-39.609c-2.09.645-2.47 3.428-.52 4.451 11.78 6.2 28.67 11.947 55.32.792 20.93-8.753 40.42-28.758 56.83-29.701-11.9-6.87-29.76-17.179-61.14-4.044-18.3 7.655-35.48 23.905-50.49 28.502z" fill="#e58cd3"/><path d="m1770.63 987.055c15.86-.914 34.6-19.589 54.72-28.75l8.53 31.848c-.7.318-1.4.65-2.11.946-31.38 13.131-49.24 2.826-61.14-4.044zm-33.2-112.839c-1.22-.727-2.43-1.502-3.55-2.152 7.38 14.684-.2 41.559 2.68 64.067 3.91 30.555 18.89 41.812 30.53 48.783zm-115.18 22.306c-2.09.645-2.47 3.428-.52 4.451 11.78 6.2 28.67 11.947 55.32.792.71-.296 1.41-.644 2.11-.962l-8.53-31.837c-17.51 7.972-33.95 23.139-48.38 27.556z" fill="#f1b3f7"/><path d="m174.491 671.954c1.274-9.953 5.938-14.032 9.843-16.499.644-.407 1.418.188 1.248.931-1.22 5.308.682 13.3-.194 20.129-1.498 11.719-7.698 15.299-11.829 17.684 2.565-5.098-.068-14.43.932-22.245zm-22.16 23.649c10.895 4.559 17.096.982 21.228-1.404-5.698-.327-12.464-7.276-19.731-10.315-10.897-4.561-17.097-.981-21.228 1.404 5.698.328 12.462 7.274 19.731 10.315zm-31.756 27.496c-.17.743.601 1.34 1.248.931 3.909-2.466 8.569-6.546 9.843-16.499 1.001-7.813-1.632-17.144.934-22.243-4.132 2.386-10.332 5.965-11.831 17.682-.874 6.831 1.029 14.82-.194 20.129z" fill="#e58cd3"/><path d="m173.559 694.199c2.478-4.928.115-13.803.854-21.444l11.058 2.963c-.026.265-.049.536-.082.799-1.499 11.717-7.699 15.297-11.83 17.682zm-39.696-9.604c-.429.238-.873.468-1.263.693 5.698.328 12.462 7.274 19.731 10.315 9.866 4.13 15.852 1.579 19.968-.709zm-13.288 38.504c-.17.743.601 1.34 1.248.931 3.909-2.466 8.569-6.546 9.843-16.499.033-.264.05-.534.076-.799l-11.055-2.962c-.642 6.648 1.064 14.226-.112 19.329z" fill="#f1b3f7"/><path d="m1727.03 710.123c3.14 11.581-.15 18.219-3.34 22.729-.53.744-1.65.439-1.8-.46-1.08-6.423-6.83-14.387-8.98-22.334-3.7-13.635 1.52-20.422 5-24.945-.51 6.806 6.66 15.917 9.12 25.01zm13.7-36.255c-14.13-.062-19.35 6.723-22.82 11.245 6.44-2.239 17.09 2.35 26.51 2.391 14.13.065 19.34-6.722 22.82-11.245-6.45 2.24-17.09-2.348-26.51-2.391zm22.53-44.886c-.15-.899-1.27-1.206-1.8-.459-3.19 4.51-6.48 11.148-3.34 22.728 2.46 9.092 9.63 18.202 9.12 25.008 3.48-4.523 8.7-11.31 5-24.943-2.15-7.949-7.9-15.908-8.98-22.334z" fill="#f99f10"/><path d="m1717.91 685.113c-.49 6.578 6.17 15.307 8.84 24.09l-13.57 1.774c-.09-.305-.19-.614-.27-.921-3.7-13.633 1.52-20.42 5-24.943zm48.25-7.511c.37-.459.75-.915 1.08-1.343-6.45 2.24-17.09-2.348-26.51-2.391-12.79-.059-18.25 5.494-21.75 9.903zm-2.9-48.62c-.15-.899-1.27-1.206-1.8-.459-3.19 4.51-6.48 11.148-3.34 22.728.08.307.18.613.28.918l13.57-1.774c-2.33-7.64-7.67-15.236-8.71-21.413z" fill="#f9c900"/><path d="m543.594 371.25c-1.971 8.067-6.185 10.99-9.626 12.656-.567.276-1.148-.286-.939-.881 1.495-4.252.673-11.001 2.027-16.536 2.318-9.5 7.749-11.868 11.368-13.447-2.582 3.955-1.283 11.874-2.83 18.208zm20.419-17.393c-8.537-4.76-13.969-2.393-17.589-.815 4.656.798 9.576 7.141 15.271 10.314 8.538 4.762 13.969 2.393 17.588.815-4.656-.798-9.575-7.138-15.27-10.314zm28.667-19.667c.209-.595-.37-1.157-.939-.881-3.444 1.665-7.656 4.589-9.626 12.656-1.549 6.332-.249 14.251-2.832 18.206 3.619-1.579 9.05-3.947 11.37-13.445 1.353-5.536.529-12.283 2.027-16.536z" fill="#747cca"/><path d="m546.424 353.042c-2.495 3.823-1.375 11.341-2.691 17.557l-8.82-3.462c.046-.216.09-.437.142-.65 2.319-9.498 7.75-11.866 11.369-13.445zm31.756 11.582c.375-.156.761-.304 1.103-.453-4.656-.798-9.575-7.138-15.27-10.314-7.731-4.312-12.891-2.769-16.488-1.269zm14.5-30.434c.209-.595-.37-1.157-.939-.881-3.444 1.665-7.656 4.589-9.626 12.656-.052.213-.091.434-.137.65l8.817 3.462c1.144-5.408.445-11.799 1.885-15.887z" fill="#9ea8ff"/><path d="m1172.59 922.25c-1.97 8.067-6.18 10.99-9.62 12.656-.57.276-1.15-.286-.94-.881 1.49-4.252.67-11.001 2.03-16.536 2.31-9.5 7.75-11.868 11.36-13.447-2.58 3.955-1.28 11.874-2.83 18.208zm20.42-17.393c-8.53-4.76-13.97-2.393-17.59-.815 4.66.798 9.58 7.141 15.27 10.314 8.54 4.762 13.97 2.393 17.59.815-4.65-.798-9.57-7.138-15.27-10.314zm28.67-19.667c.21-.595-.37-1.157-.94-.881-3.44 1.665-7.65 4.589-9.63 12.656-1.54 6.332-.24 14.251-2.83 18.206 3.62-1.579 9.05-3.947 11.37-13.445 1.36-5.536.53-12.283 2.03-16.536z" fill="#747cca"/><path d="m1175.42 904.042c-2.49 3.823-1.37 11.341-2.69 17.557l-8.82-3.462c.05-.216.09-.437.14-.65 2.32-9.498 7.76-11.866 11.37-13.445zm31.76 11.582c.37-.156.76-.304 1.1-.453-4.65-.798-9.57-7.138-15.27-10.314-7.73-4.312-12.89-2.769-16.49-1.269zm14.5-30.434c.21-.595-.37-1.157-.94-.881-3.44 1.665-7.65 4.589-9.63 12.656-.05.213-.09.434-.13.65l8.81 3.462c1.15-5.408.45-11.799 1.89-15.887z" fill="#9ea8ff"/><path d="m234.781 918.623c16.407 26.397 9.702 44.001 5.234 55.732-3.235-14.665-24.116-29.334-35.051-46.94-16.406-26.398-9.702-44.001-5.234-55.732 3.235 14.665 24.11 29.332 35.051 46.94zm-52.162 67.461c-25.321 7.472-33.968 21.296-38.741 32.476-.79 1.84 1.08 3.6 2.939 2.85 13.279-5.39 34.836-3.8 52.208-8.93 29.817-8.79 36.522-26.394 40.99-38.125-12.171 8.797-37.513 5.861-57.396 11.729zm58.094-152.53c-29.803 8.798-36.515 26.398-40.983 38.129 12.171-8.797 37.52-5.858 57.397-11.729 25.321-7.472 33.974-21.292 38.741-32.473.789-1.843-1.081-3.603-2.94-2.85-13.288 5.394-34.835 3.793-52.215 8.923z" fill="#9dd8fc"/><path d="m199.729 871.686c3.129 14.171 22.697 28.349 33.881 45.176l-27.467 12.315c-.389-.585-.81-1.166-1.18-1.76-16.406-26.397-9.701-44.001-5.234-55.731zm40.285 102.671c-12.171 8.797-37.513 5.861-57.396 11.729-25.321 7.472-33.975 21.294-38.741 32.474-.274.63-.232 1.25.017 1.77l94.694-42.459c.525-1.253 1.003-2.405 1.426-3.514zm55.836-148.643c-.475-.982-1.702-1.576-2.923-1.081-13.278 5.39-34.835 3.793-52.208 8.926-26.995 7.97-34.969 23.113-39.567 34.62z" fill="#d4ebf9"/><path d="m1569.45 351.005c8.6 2.575 10.51 7.664 11.79 11.056-3.51-2.554-10.83-1.737-16.56-3.456-8.59-2.575-10.5-7.664-11.78-11.055 3.5 2.554 10.82 1.737 16.55 3.455zm1.61 24.561c-4.05 6.455-3.28 11.098-2.17 14.428.18.549.92.573 1.18.055 1.84-3.704 6.81-7.478 9.59-11.908 4.77-7.6 2.85-12.689 1.58-16.08-.96 4.228-7 8.436-10.18 13.505zm-16.58-44.096c-4.77 7.598-2.85 12.688-1.58 16.08.95-4.229 7-8.438 10.18-13.506 4.05-6.455 3.28-11.098 2.17-14.428-.18-.549-.92-.572-1.18-.054-1.84 3.706-6.81 7.477-9.59 11.908z" fill="#9de8fc"/><path d="m1552.9 347.55c3.39 2.467 10.33 1.794 15.96 3.297l-3.58 7.913c-.2-.052-.4-.097-.6-.155-8.59-2.575-10.5-7.664-11.78-11.055zm28.34 14.51c-.96 4.229-7 8.437-10.18 13.506-4.05 6.455-3.28 11.098-2.17 14.428.06.189.19.315.34.379l12.37-27.28c-.13-.371-.24-.712-.36-1.033zm-16.33-42.823c-.29-.122-.67-.016-.84.324-1.84 3.704-6.81 7.478-9.59 11.908-4.31 6.883-3.15 11.682-1.94 15.05z" fill="#d4f2f9"/><path d="m536.612 221.574c4.817 11.51 2.331 18.804-.342 23.889-.44.84-1.643.679-1.922-.226-1.986-6.476-9.004-13.901-12.307-21.8-5.675-13.552-1.223-21.263 1.743-26.401.408 7.086 9.046 15.499 12.828 24.538zm9.162-39.25c-14.569 1.866-19.023 9.574-21.99 14.712 6.341-3.19 17.948.086 27.664-1.159 14.572-1.864 19.023-9.574 21.99-14.712-6.341 3.19-17.945-.084-27.664 1.159zm17.103-49.358c-.279-.906-1.48-1.069-1.922-.227-2.678 5.087-5.159 12.38-.342 23.89 3.779 9.037 12.417 17.45 12.825 24.536 2.966-5.138 7.418-12.849 1.746-26.399-3.306-7.901-10.322-15.321-12.307-21.8z" fill="#fc5696"/><path d="m523.784 197.036c.395 6.848 8.459 14.937 12.415 23.627l-13.747 3.683c-.138-.302-.286-.606-.411-.909-5.675-13.552-1.223-21.263 1.743-26.401zm48.729-14.34c.316-.526.644-1.045.925-1.531-6.341 3.19-17.945-.084-27.664 1.159-13.196 1.69-18.06 8.158-21.07 13.182zm-11.903-26.069c.128.305.276.609.413.911l13.762-3.687c-3.44-7.557-10.001-14.658-11.908-20.885-.279-.906-1.48-1.069-1.922-.227-2.676 5.084-5.162 12.378-.345 23.888z" fill="#fc92c3"/><path d="m1183.06 338.845c2.95 7.032 1.43 11.488-.2 14.594-.27.513-1.01.415-1.18-.138-1.21-3.956-5.5-8.492-7.52-13.317-3.46-8.28-.74-12.99 1.07-16.129.25 4.329 5.52 9.468 7.83 14.99zm5.6-23.977c-8.9 1.139-11.62 5.848-13.43 8.987 3.87-1.949 10.96.053 16.9-.708 8.9-1.138 11.62-5.849 13.43-8.987-3.87 1.948-10.96-.052-16.9.708zm10.45-30.153c-.17-.553-.9-.653-1.17-.138-1.64 3.107-3.16 7.562-.21 14.594 2.31 5.52 7.58 10.66 7.83 14.989 1.81-3.139 4.53-7.85 1.07-16.128-2.02-4.826-6.31-9.359-7.52-13.317z" fill="#fc5696"/><path d="m1175.23 323.855c.24 4.184 5.17 9.125 7.58 14.434l-8.4 2.25c-.08-.184-.17-.37-.25-.555-3.46-8.28-.74-12.99 1.07-16.129zm29.77-8.76c.19-.321.39-.639.56-.935-3.87 1.948-10.96-.052-16.9.708-8.06 1.032-11.03 4.984-12.87 8.053zm-7.28-15.925c.08.186.17.372.26.556l8.4-2.252c-2.1-4.617-6.11-8.955-7.27-12.759-.17-.553-.9-.653-1.17-.138-1.64 3.105-3.16 7.561-.22 14.593z" fill="#fc92c3"/><path d="m706.065 973.845c2.942 7.032 1.424 11.488-.209 14.594-.269.513-1.004.415-1.174-.138-1.214-3.956-5.501-8.492-7.519-13.317-3.466-8.28-.747-12.99 1.065-16.129.249 4.329 5.526 9.468 7.837 14.99zm5.596-23.977c-8.899 1.139-11.62 5.848-13.433 8.987 3.874-1.949 10.965.053 16.9-.708 8.902-1.138 11.621-5.849 13.433-8.987-3.873 1.948-10.962-.052-16.9.708zm10.449-30.153c-.171-.553-.905-.653-1.174-.138-1.636 3.107-3.152 7.562-.209 14.594 2.308 5.52 7.585 10.66 7.834 14.989 1.812-3.139 4.532-7.85 1.067-16.128-2.019-4.826-6.306-9.359-7.518-13.317z" fill="#fc5696"/><path d="m698.228 958.855c.242 4.184 5.168 9.125 7.584 14.434l-8.398 2.25c-.084-.184-.174-.37-.251-.555-3.466-8.28-.747-12.99 1.065-16.129zm29.768-8.76c.193-.321.394-.639.565-.935-3.873 1.948-10.962-.052-16.9.708-8.061 1.032-11.032 4.984-12.871 8.053zm-7.271-15.925c.078.186.168.372.252.556l8.407-2.252c-2.101-4.617-6.109-8.955-7.274-12.759-.171-.553-.905-.653-1.174-.138-1.635 3.105-3.154 7.561-.211 14.593z" fill="#fc92c3"/><path d="m917.64 1066.68c17.51 7.18 22.666 17.66 25.253 25.98.428 1.38-1.034 2.49-2.304 1.82-9.075-4.81-24.563-5.25-36.576-10.18-20.619-8.45-24.114-21.49-26.443-30.18 8.036 7.16 26.321 6.92 40.07 12.56zm-32.266-51.92c-13.622 17.63-10.133 30.67-7.804 39.36 3.378-10.22 19.34-19.15 28.423-30.91 13.628-17.62 10.133-30.667 7.804-39.358-3.378 10.22-19.334 19.158-28.423 30.908zm-34.59-71.271c-1.271-.673-2.734.441-2.304 1.818 2.583 8.326 7.742 18.808 25.252 25.986 13.744 5.638 32.03 5.396 40.065 12.559-2.328-8.692-5.823-21.734-26.437-30.184-12.018-4.928-27.5-5.36-36.576-10.179z" fill="#757cca"/><path d="m877.57 1054.12c7.767 6.92 25.09 6.95 38.65 12.02l-10.792 18.7c-.471-.18-.957-.35-1.415-.54-20.619-8.45-24.114-21.49-26.443-30.18zm36.878-67.635c-.225-.903-.43-1.811-.651-2.633-3.378 10.22-19.334 19.158-28.423 30.908-12.338 15.97-10.618 28.12-8.458 36.73zm-40.721-15.191c.464.19.949.357 1.42.534l10.804-18.713c-11.793-4.415-26.444-4.993-35.167-9.626-1.271-.673-2.734.441-2.304 1.818 2.581 8.321 7.737 18.809 25.247 25.987z" fill="#9ea8ff"/><path d="m1426.55 183.7c10.56-3.454 16.85-.728 21.17 2.006.72.45.49 1.506-.34 1.689-5.88 1.301-12.97 6.999-20.21 9.367-12.43 4.069-18.96-.43-23.31-3.428 6.32.144 14.4-6.921 22.69-9.634zm-34.17-10.924c.62 13.059 7.14 17.56 11.48 20.558-2.37-5.852 1.36-15.918.95-24.627-.62-13.062-7.14-17.56-11.49-20.559 2.38 5.853-1.35 15.916-.94 24.628zm-42.58-18.69c-.82.182-1.05 1.237-.34 1.689 4.33 2.738 10.62 5.459 21.18 2.005 8.28-2.71 16.36-9.775 22.68-9.632-4.35-2.998-10.87-7.496-23.3-3.429-7.24 2.37-14.33 8.067-20.22 9.367z" fill="#fc5696"/><path d="m1403.86 193.334c6.11.138 13.86-6.441 21.85-9.332l2.29 12.46c-.28.101-.56.21-.83.3-12.43 4.069-18.96-.43-23.31-3.428zm-9.25-44.256c-.44-.318-.88-.646-1.29-.93 2.38 5.853-1.35 15.916-.94 24.628.56 11.829 5.95 16.605 10.19 19.633zm-23.98 8.704c.28-.091.56-.201.84-.302l-2.29-12.472c-6.95 2.513-13.72 7.829-19.38 9.078-.82.182-1.05 1.237-.34 1.689 4.32 2.736 10.62 5.461 21.17 2.007z" fill="#fc92c3"/><path d="m516.312 853.625c2.382 0 4.313-1.931 4.313-4.313 0-2.381-1.931-4.312-4.313-4.312-2.381 0-4.312 1.931-4.312 4.312 0 2.382 1.931 4.313 4.312 4.313z" fill="#74cc5e"/></g></svg>