<svg fill="none" height="300" viewBox="0 0 334 300" width="334" xmlns="http://www.w3.org/2000/svg"><path d="m289.327 210.469c-14.319 38.614-49.45 67.739-88.87 80.022-59.317 18.483-143.1835 7.571-180.4294-47.307-36.0613-53.132-19.102956-125.261 16.6776-174.1457 25.1329-34.3369 64.0948-59.34911 106.4558-63.38507 98.964-9.42949 177.575 111.25877 147.339 201.48977-.374 1.117-.765 2.225-1.173 3.326z" fill="#f5dbda"/><path d="m230.739 278.795c-26.069-1.587-50.207-17.55-64.913-39.214-22.129-32.599-30.935-85.504-4.481-118.204 25.612-31.6598 72.506-34.6365 108.756-21.9142 25.462 8.9362 47.809 27.9812 58.051 52.9472 23.928 58.326-34.855 128.236-95.178 126.485-.747-.022-1.492-.055-2.235-.1z" fill="#f9ecec"/><path d="m325.106 299.999h-320.39244c-2.39104 0-4.325865-1.937-4.325865-4.325 0-2.389 1.934825-4.326 4.325865-4.326h320.39244c2.391 0 4.326 1.937 4.326 4.326s-1.935 4.325-4.326 4.325z" fill="#b4ba42"/><path d="m132.398 115.033c-.825 0-1.494-.668-1.494-1.494v-24.6497c0-3.983 3.239-7.2217 7.22-7.2217h4.856c1.715 0 3.112-1.3947 3.112-3.1103v-28.6354c0-1.7155-1.397-3.1103-3.112-3.1103h-1.121c-2.746 0-4.979-2.235-4.979-4.9807v-17.1802c0-2.7457 2.233-4.9808 4.979-4.9808h9.213c.826 0 1.494.6681 1.494 1.4941 0 .8256-.668 1.4941-1.494 1.4941h-9.213c-1.098 0-1.991.8929-1.991 1.9929v17.1803c0 1.1.893 1.9929 1.991 1.9929h1.121c3.362 0 6.099 2.7369 6.099 6.0981v28.6354c0 3.3612-2.737 6.0981-6.099 6.0981h-4.856c-2.334 0-4.232 1.8995-4.232 4.2339v24.6493c0 .826-.668 1.494-1.494 1.494z" fill="#6f7bbd"/><path d="m168.376 95.9844h-7.097v15.6866h7.097z" fill="#6f7bbd"/><path d="m168.376 2.24219h-7.097v15.68611h7.097z" fill="#6f7bbd"/><path d="m174.725 21.6621h-19.172v72.2061h19.172z" fill="#fff"/><path d="m219.703 109.803h-97.427c-11.049 0-20.006 8.957-20.006 20.006v142.245c0 11.049 8.957 20.007 20.006 20.007h97.427c11.05 0 20.007-8.958 20.007-20.007v-142.245c0-11.049-8.957-20.006-20.007-20.006z" fill="#b6bff0"/><path d="m226.951 233.595c.317-1.575.489-3.2.489-4.865v-51.036c-14.917 6.967-33.525-3.231-49.533.857v49.003c15.605 3.413 33.211 14.231 49.044 6.041z" fill="#de5f5f"/><path d="m177.907 227.555v1.176c0 13.621 11.145 24.766 24.767 24.766 11.957 0 22-8.589 24.278-19.901-15.834 8.19-33.44-2.628-49.045-6.041z" fill="#cc3e3e"/><path d="m202.674 140.404c-13.622 0-24.767 11.145-24.767 24.767v13.381c16.008-4.089 34.616 6.109 49.533-.858v-12.523c0-13.622-11.144-24.767-24.766-24.767z" fill="#dce2fd"/><path d="m202.673 254.81c-14.381 0-26.081-11.699-26.081-26.079v-63.561c0-14.38 11.7-26.082 26.081-26.082 14.382 0 26.082 11.702 26.082 26.082v63.56c0 14.381-11.7 26.08-26.082 26.08zm0-113.092c-12.931 0-23.451 10.52-23.451 23.452v63.561c0 12.929 10.52 23.449 23.451 23.449 12.932 0 23.452-10.52 23.452-23.449v-63.561c0-12.932-10.52-23.452-23.452-23.452z" fill="#6f7bbd"/><path d="m221.026 225.76h-10.944c-.536 0-.973-.433-.973-.973s.437-.973.973-.973h10.944c.536 0 .973.433.973.973s-.437.973-.973.973z" fill="#3c251d"/><path d="m221.026 221.504h-6.445c-.536 0-.973-.433-.973-.973 0-.539.437-.972.973-.972h6.445c.535 0 .973.433.973.972 0 .54-.437.973-.973.973z" fill="#3c251d"/><path d="m221.026 217.492h-6.445c-.536 0-.973-.433-.973-.972 0-.54.437-.973.973-.973h6.445c.535 0 .973.433.973.973 0 .539-.437.972-.973.972z" fill="#3c251d"/><path d="m221.026 212.627h-10.944c-.536 0-.973-.433-.973-.973 0-.539.437-.972.973-.972h10.944c.536 0 .973.433.973.972 0 .54-.437.973-.973.973z" fill="#3c251d"/><path d="m221.026 208.371h-6.445c-.536 0-.973-.433-.973-.972 0-.54.437-.973.973-.973h6.445c.535 0 .973.433.973.973 0 .539-.437.972-.973.972z" fill="#3c251d"/><path d="m221.026 204.358h-6.445c-.536 0-.973-.433-.973-.973s.437-.973.973-.973h6.445c.535 0 .973.433.973.973s-.437.973-.973.973z" fill="#3c251d"/><path d="m221.026 199.981h-10.944c-.536 0-.973-.433-.973-.973s.437-.973.973-.973h10.944c.536 0 .973.433.973.973 0 .539-.437.973-.973.973z" fill="#3c251d"/><path d="m221.026 195.725h-6.445c-.536 0-.973-.433-.973-.973s.437-.973.973-.973h6.445c.535 0 .973.433.973.973s-.437.973-.973.973z" fill="#3c251d"/><path d="m221.026 191.713h-6.445c-.536 0-.973-.433-.973-.973 0-.539.437-.972.973-.972h6.445c.535 0 .973.433.973.972 0 .54-.437.973-.973.973z" fill="#3c251d"/><path d="m221.026 187.455h-10.944c-.536 0-.973-.433-.973-.972 0-.54.437-.973.973-.973h10.944c.536 0 .973.433.973.973 0 .539-.437.972-.973.972z" fill="#3c251d"/><path d="m221.026 183.199h-6.445c-.536 0-.973-.433-.973-.972 0-.54.437-.973.973-.973h6.445c.535 0 .973.433.973.973 0 .539-.437.972-.973.972z" fill="#3c251d"/><path d="m221.026 179.188h-6.445c-.536 0-.973-.434-.973-.973 0-.54.437-.973.973-.973h6.445c.535 0 .973.433.973.973s-.437.973-.973.973z" fill="#3c251d"/><path d="m221.026 174.446h-10.944c-.536 0-.973-.434-.973-.973 0-.54.437-.973.973-.973h10.944c.536 0 .973.433.973.973 0 .539-.437.973-.973.973z" fill="#3c251d"/><path d="m221.026 170.19h-6.445c-.536 0-.973-.433-.973-.973s.437-.973.973-.973h6.445c.535 0 .973.434.973.973s-.437.973-.973.973z" fill="#3c251d"/><path d="m221.026 166.176h-6.445c-.536 0-.973-.433-.973-.973s.437-.973.973-.973h6.445c.535 0 .973.434.973.973 0 .54-.437.973-.973.973z" fill="#3c251d"/><path d="m172.028 84.0193h-8.416c-.412 0-.748-.3329-.748-.7479s.337-.748.748-.748h8.416c.413 0 .748.333.748.748s-.335.7479-.748.7479z" fill="#b6bff0"/><path d="m172.028 80.7479h-4.956c-.412 0-.748-.333-.748-.748s.336-.7479.748-.7479h4.956c.412 0 .748.3329.748.7479s-.336.748-.748.748z" fill="#b6bff0"/><path d="m172.028 77.6619h-4.956c-.412 0-.748-.3333-.748-.7479 0-.4147.336-.748.748-.748h4.956c.412 0 .748.333.748.748s-.336.7479-.748.7479z" fill="#b6bff0"/><path d="m172.028 73.9197h-8.416c-.412 0-.748-.3329-.748-.7479s.337-.748.748-.748h8.416c.413 0 .748.333.748.748s-.335.7479-.748.7479z" fill="#b6bff0"/><path d="m172.028 70.6483h-4.956c-.412 0-.748-.3334-.748-.748s.336-.748.748-.748h4.956c.412 0 .748.333.748.748s-.336.748-.748.748z" fill="#b6bff0"/><path d="m172.028 67.5623h-4.956c-.412 0-.748-.3329-.748-.7479s.336-.748.748-.748h4.956c.412 0 .748.3333.748.748 0 .415-.336.7479-.748.7479z" fill="#b6bff0"/><path d="m172.028 64.1951h-8.416c-.412 0-.748-.3329-.748-.7479s.337-.748.748-.748h8.416c.413 0 .748.3333.748.748 0 .4146-.335.7479-.748.7479z" fill="#b6bff0"/><path d="m172.028 60.9217h-4.956c-.412 0-.748-.333-.748-.748s.336-.7479.748-.7479h4.956c.412 0 .748.3329.748.7479s-.336.748-.748.748z" fill="#b6bff0"/><path d="m172.028 57.8377h-4.956c-.412 0-.748-.3333-.748-.7479 0-.4147.336-.748.748-.748h4.956c.412 0 .748.333.748.748s-.336.7479-.748.7479z" fill="#b6bff0"/><path d="m172.028 54.5643h-8.416c-.412 0-.748-.333-.748-.748s.337-.7479.748-.7479h8.416c.413 0 .748.3333.748.7479s-.335.748-.748.748z" fill="#b6bff0"/><path d="m172.028 51.2908h-4.956c-.412 0-.748-.3329-.748-.7479s.336-.748.748-.748h4.956c.412 0 .748.333.748.748s-.336.7479-.748.7479z" fill="#b6bff0"/><path d="m172.028 48.2049h-4.956c-.412 0-.748-.3333-.748-.748 0-.4146.336-.7479.748-.7479h4.956c.412 0 .748.3329.748.7479 0 .4151-.336.748-.748.748z" fill="#b6bff0"/><path d="m172.028 44.5584h-8.416c-.412 0-.748-.3329-.748-.7479s.337-.748.748-.748h8.416c.413 0 .748.3333.748.748 0 .4146-.335.7479-.748.7479z" fill="#b6bff0"/><path d="m172.028 41.285h-4.956c-.412 0-.748-.3334-.748-.748 0-.415.336-.7479.748-.7479h4.956c.412 0 .748.3333.748.7479s-.336.748-.748.748z" fill="#b6bff0"/><path d="m172.028 38.199h-4.956c-.412 0-.748-.3333-.748-.7479 0-.4147.336-.748.748-.748h4.956c.412 0 .748.333.748.748s-.336.7479-.748.7479z" fill="#b6bff0"/><path d="m179.58 23.1553h-28.384c-1.65 0-2.988-1.3363-2.988-2.9878 0-1.6516 1.338-2.9878 2.988-2.9878h28.384c1.65 0 2.988 1.3362 2.988 2.9878 0 1.6515-1.338 2.9878-2.988 2.9878z" fill="#b6bff0"/><path d="m179.58 97.8525h-28.384c-1.65 0-2.988-1.3362-2.988-2.9878 0-1.6515 1.338-2.9877 2.988-2.9877h28.384c1.65 0 2.988 1.3362 2.988 2.9877 0 1.6516-1.338 2.9878-2.988 2.9878z" fill="#b6bff0"/><path d="m172.484 2.98816h-14.566c-.826 0-1.494-.66813-1.494-1.49408 0-.825957.668-1.49408 1.494-1.49408h14.566c.825 0 1.494.668123 1.494 1.49408 0 .82595-.669 1.49408-1.494 1.49408z" fill="#b6bff0"/><path d="m174.002 98.9045c2.026-4.8913-.296-10.4988-5.188-12.5249-4.891-2.0261-10.498.2966-12.524 5.1879-2.026 4.8912.296 10.4985 5.187 12.5245 4.892 2.026 10.499-.296 12.525-5.1875z" fill="#dce2fd"/><path d="m164.952 100.529c2.819 0 5.104-2.2853 5.104-5.1043 0-2.8191-2.285-5.1044-5.104-5.1044s-5.104 2.2853-5.104 5.1044c0 2.819 2.285 5.1043 5.104 5.1043z" fill="#b6bff0"/><path d="m167.193 95.0502c0-1.1689-.948-2.1166-2.117-2.1166s-2.116.9477-2.116 2.1166c0 1.1688.947 2.1162 2.116 2.1162s2.117-.9474 2.117-2.1162z" fill="#6f7bbd"/><path d="m181.324 106.504c-1.65 0-2.988-1.336-2.988-2.988v-16.3075c0-1.6516 1.338-2.9878 2.988-2.9878s2.988 1.3362 2.988 2.9878v16.3075c0 1.652-1.338 2.988-2.988 2.988z" fill="#dce2fd"/><path d="m239.71 127.669h-138.187c-1.6501 0-2.9878-1.336-2.9878-2.988 0-1.651 1.3377-2.988 2.9878-2.988h138.187c1.651 0 2.988 1.337 2.988 2.988 0 1.652-1.338 2.988-2.988 2.988z" fill="#dce2fd"/><path d="m239.71 280.048h-138.187c-1.6501 0-2.9878-1.336-2.9878-2.988 0-1.651 1.3377-2.988 2.9878-2.988h138.187c1.651 0 2.988 1.337 2.988 2.988 0 1.652-1.338 2.988-2.988 2.988z" fill="#dce2fd"/><g fill="#6f7bbd"><path d="m111.793 130.812c0-.877-.71-1.587-1.587-1.587-.876 0-1.587.71-1.587 1.587s.711 1.587 1.587 1.587c.877 0 1.587-.71 1.587-1.587z"/><path d="m121.785 118.021c0-.877-.711-1.587-1.587-1.587-.877 0-1.588.71-1.588 1.587 0 .876.711 1.587 1.588 1.587.876 0 1.587-.711 1.587-1.587z"/><path d="m127.106 130.812c0-.877-.711-1.587-1.587-1.587-.877 0-1.587.71-1.587 1.587s.71 1.587 1.587 1.587 1.587-.71 1.587-1.587z"/><path d="m137.096 118.021c0-.877-.711-1.587-1.587-1.587-.877 0-1.587.71-1.587 1.587 0 .876.711 1.587 1.587 1.587.877 0 1.587-.711 1.587-1.587z"/><path d="m144.38 130.812c0-.877-.71-1.587-1.587-1.587s-1.587.71-1.587 1.587.711 1.587 1.587 1.587c.877 0 1.587-.71 1.587-1.587z"/><path d="m154.371 118.021c0-.877-.711-1.587-1.588-1.587-.876 0-1.587.71-1.587 1.587 0 .876.711 1.587 1.587 1.587.877 0 1.588-.711 1.588-1.587z"/><path d="m159.879 130.812c0-.877-.71-1.587-1.587-1.587s-1.587.71-1.587 1.587.711 1.587 1.587 1.587c.877 0 1.587-.71 1.587-1.587z"/><path d="m169.87 118.021c0-.877-.711-1.587-1.588-1.587-.876 0-1.587.71-1.587 1.587 0 .876.711 1.587 1.587 1.587.877 0 1.588-.711 1.588-1.587z"/><path d="m173.137 130.812c0-.877-.711-1.587-1.587-1.587-.877 0-1.587.71-1.587 1.587s.711 1.587 1.587 1.587c.877 0 1.587-.71 1.587-1.587z"/><path d="m183.128 118.021c0-.877-.71-1.587-1.587-1.587-.876 0-1.587.71-1.587 1.587 0 .876.711 1.587 1.587 1.587.877 0 1.587-.711 1.587-1.587z"/><path d="m187.89 130.812c0-.877-.711-1.587-1.587-1.587s-1.587.71-1.587 1.587.711 1.587 1.587 1.587 1.587-.71 1.587-1.587z"/><path d="m197.881 118.021c0-.877-.71-1.587-1.587-1.587s-1.587.71-1.587 1.587c0 .876.711 1.587 1.587 1.587.877 0 1.587-.711 1.587-1.587z"/><path d="m203.203 130.812c0-.877-.711-1.587-1.588-1.587-.876 0-1.587.71-1.587 1.587s.711 1.587 1.587 1.587c.877 0 1.588-.71 1.588-1.587z"/><path d="m213.193 118.021c0-.877-.711-1.587-1.587-1.587-.877 0-1.587.71-1.587 1.587 0 .876.71 1.587 1.587 1.587.876 0 1.587-.711 1.587-1.587z"/><path d="m218.703 130.812c0-.877-.711-1.587-1.588-1.587-.876 0-1.587.71-1.587 1.587s.711 1.587 1.587 1.587c.877 0 1.588-.71 1.588-1.587z"/><path d="m228.693 118.021c0-.877-.711-1.587-1.587-1.587-.877 0-1.587.71-1.587 1.587 0 .876.71 1.587 1.587 1.587.876 0 1.587-.711 1.587-1.587z"/><path d="m114.003 283.191c0-.877-.71-1.587-1.587-1.587-.876 0-1.587.71-1.587 1.587 0 .876.711 1.587 1.587 1.587.877 0 1.587-.711 1.587-1.587z"/><path d="m123.995 270.4c0-.877-.711-1.588-1.588-1.588-.876 0-1.587.711-1.587 1.588 0 .876.711 1.587 1.587 1.587.877 0 1.588-.711 1.588-1.587z"/><path d="m129.316 283.191c0-.877-.711-1.587-1.587-1.587-.877 0-1.587.71-1.587 1.587 0 .876.71 1.587 1.587 1.587.876 0 1.587-.711 1.587-1.587z"/><path d="m139.306 270.4c0-.877-.711-1.588-1.587-1.588-.877 0-1.587.711-1.587 1.588 0 .876.711 1.587 1.587 1.587.877 0 1.587-.711 1.587-1.587z"/><path d="m146.589 283.191c0-.877-.71-1.587-1.587-1.587s-1.587.71-1.587 1.587c0 .876.711 1.587 1.587 1.587.877 0 1.587-.711 1.587-1.587z"/><path d="m156.58 270.4c0-.877-.711-1.588-1.588-1.588-.876 0-1.587.711-1.587 1.588 0 .876.711 1.587 1.587 1.587.877 0 1.588-.711 1.588-1.587z"/><path d="m162.088 283.191c0-.877-.71-1.587-1.587-1.587-.876 0-1.587.71-1.587 1.587 0 .876.711 1.587 1.587 1.587.877 0 1.587-.711 1.587-1.587z"/><path d="m172.08 270.4c0-.877-.711-1.588-1.588-1.588-.876 0-1.587.711-1.587 1.588 0 .876.711 1.587 1.587 1.587.877 0 1.588-.711 1.588-1.587z"/><path d="m175.347 283.191c0-.877-.711-1.587-1.587-1.587s-1.587.71-1.587 1.587c0 .876.711 1.587 1.587 1.587s1.587-.711 1.587-1.587z"/><path d="m185.337 270.4c0-.877-.71-1.588-1.587-1.588-.876 0-1.587.711-1.587 1.588 0 .876.711 1.587 1.587 1.587.877 0 1.587-.711 1.587-1.587z"/><path d="m190.1 283.191c0-.877-.711-1.587-1.587-1.587-.877 0-1.587.71-1.587 1.587 0 .876.711 1.587 1.587 1.587s1.587-.711 1.587-1.587z"/><path d="m200.09 270.4c0-.877-.71-1.588-1.587-1.588s-1.587.711-1.587 1.588c0 .876.711 1.587 1.587 1.587.877 0 1.587-.711 1.587-1.587z"/><path d="m205.413 283.191c0-.877-.711-1.587-1.588-1.587-.876 0-1.587.71-1.587 1.587 0 .876.711 1.587 1.587 1.587.877 0 1.588-.711 1.588-1.587z"/><path d="m215.403 270.4c0-.877-.711-1.588-1.587-1.588-.877 0-1.587.711-1.587 1.588 0 .876.71 1.587 1.587 1.587.876 0 1.587-.711 1.587-1.587z"/><path d="m220.912 283.191c0-.877-.711-1.587-1.588-1.587-.876 0-1.587.71-1.587 1.587 0 .876.711 1.587 1.587 1.587.877 0 1.588-.711 1.588-1.587z"/><path d="m230.903 270.4c0-.877-.711-1.588-1.587-1.588-.877 0-1.587.711-1.587 1.588 0 .876.71 1.587 1.587 1.587.876 0 1.587-.711 1.587-1.587z"/></g><path d="m187.672 205.912c-1.65 0-2.987-1.336-2.987-2.988v-44.321c0-1.652 1.337-2.988 2.987-2.988s2.988 1.336 2.988 2.988v44.321c0 1.652-1.338 2.988-2.988 2.988z" fill="#fff"/><path d="m187.423 232.057c-1.65 0-2.987-1.336-2.987-2.988v-15.937c0-1.651 1.337-2.987 2.987-2.987s2.988 1.336 2.988 2.987v15.937c0 1.652-1.338 2.988-2.988 2.988z" fill="#fff"/><path d="m114.221 251.973c-1.65 0-2.988-1.336-2.988-2.988v-104.323c0-1.652 1.338-2.988 2.988-2.988s2.988 1.336 2.988 2.988v104.323c0 1.652-1.338 2.988-2.988 2.988z" fill="#fff"/><path d="m33.3849 165.322c.7226 1.628 1.6828 3.15 2.8407 4.504.5798-6.128 1.1596-12.255 1.7394-18.383 5.8833 4.773 15.0725 3.505 20.9219 8.32-.4286-1.407-.8576-2.814-1.2862-4.221 4.3358 2.002 7.8257 5.768 9.4916 10.244-.1354-2.055-.5787-4.09-1.3101-6.015 6.6562 6.215 7.1242 16.359 8.4722 25.365.1049.701.2399 1.447.7288 1.96 1.0898 1.142 3.1883.255 3.8222-1.19.6343-1.446.3128-3.104.1185-4.671-1.0798-8.713 2.4944-17.868 9.1926-23.546.0533 2.562.1063 5.125.1596 7.687.6832-1.675 1.3668-3.349 2.05-5.023 1.5309 10.247 17.4669 13.016 19.3719 23.2-.085-1.696-.17-3.393-.255-5.089 2.411 4.657 3.566 9.959 3.309 15.197.253-.688.507-1.378.76-2.066.96 4.321-.206 9.063-3.061 12.446.901-.005 1.802-.011 2.703-.017-2.25 3.812-4.612 7.746-8.256 10.258-3.644 2.513-8.9605 3.179-12.3497.332-1.9429-1.632-3.3568-4.363-5.8884-4.535-2.3369-.159-4.2449 2.328-4.0893 4.666.1556 2.337 1.8554 4.328 3.8439 5.566-1.9576-1.483-4.6029-2.338-6.9023-1.474s-3.7597 3.888-2.4253 5.95c1.4724 2.275 4.8329 2.006 7.3137 3.096 3.8123 1.674 5.1551 6.892 3.444 10.688-1.7108 3.796-5.7078 6.161-9.7893 6.985-4.082.824-8.3004.341-12.4361-.145 1.011-.212 1.9415-.789 2.5802-1.601-3.4186.241-6.8836-.19-10.1388-1.261.8513-.104 1.6622-.516 2.2479-1.142-3.0239-1.86-6.7729-2.502-10.2437-1.756 1.4783-2.083 2.9565-4.166 4.4344-6.248-3.7979.212-7.7868.09-11.1285-1.728-5.9767-3.251-8.0237-10.693-9.3927-17.358-1.369-6.664-3.1246-14.1-8.8842-17.722 2.9715.075 5.8872 1.454 7.8301 3.704-.6066-1.255-1.2133-2.51-1.82-3.765 2.6206-.23 5.3222.699 7.2456 2.494-.3109-.647-.1972-1.474.2767-2.013 3.1986.935 6.0704 2.95 8.0369 5.641 1.2402 1.697 2.4727 3.872 4.5705 4.01 2.6655.176 4.1935-3.463 3.0971-5.899-1.0967-2.436-3.6644-3.802-6.0565-4.991-3.448-1.713-6.8957-3.427-10.3438-5.141.9658-.038 1.9316-.077 2.8973-.115-2.9197-1.323-5.5616-3.255-7.7066-5.637 1.7778.404 3.6107.564 5.4318.476-5.5237-4.575-5.5786-12.875-5.168-20.037z" fill="#999924"/><path d="m84.3394 203.605c.8771-.484 1.8281-.806 2.7998-.814.2652-.002.4065.363.1265.479-1.6074.661-3.0624 1.178-4.4358 2.157-2.0478 2.716-3.4102 5.799-2.9341 9.959.4599.401.9172.802 1.3999 1.194.1611.132-.0335.383-.1987.255-.4444-.342-.8565-.705-1.2873-1.056-.1122.081-.2881.079-.3532-.081-.0382-.094-.0541-.188-.089-.282-.2793-.232-.5695-.457-.8433-.692.0239.136-.1162.262-.27.17-4.8741-2.916-8.6547 2.677-12.2436 4.396-.0442.021-.0916.035-.1358.056-1.0338 1.949-1.9477 3.897-2.7726 5.985-.0827.209-.3815.105-.3645-.103.1482-1.835.8259-3.712 1.8189-5.346-1.6953.599-3.5062.916-5.2839.982-.4029.014-.8024-.017-1.2038-.028-1.1725.749-2.6927.961-3.8303 1.874-1.7516 1.406-2.5297 3.439-3.8737 5.151-.1424.182-.5136.062-.4441-.19.4893-1.773 1.7108-3.547 3.0077-4.831.6081-.602 1.2781-1.122 2.0353-1.522.4933-.262 1.0294-.419 1.5672-.57-5.1157-.532-10.0141-2.972-13.9503-6.168-.2042-.166-.003-.556.2447-.414 3.8457 2.196 7.6455 4.661 12.0857 5.46 5.5823 1.005 9.5462-.84 13.755-3.48-3.2843-.29-6.9148-2.154-9.1436-4.372-.2215-.22.0291-.547.298-.383 1.6291 1.001 3.2177 2.049 4.9888 2.788 1.5239.637 3.1313.931 4.6883 1.437.4021-.259.8024-.515 1.213-.784 2.3469-1.539 4.7376-2.397 6.9583-.867-2.7888-2.495-5.2748-5.192-7.4932-8.102-4.1887-2.007-8.2257-3.499-10.2673-8.004-.0905-.2.1972-.359.3282-.189 1.5828 2.044 3.0857 3.837 5.363 5.13 1.2697.722 2.5735 1.378 3.8535 2.079-2.4705-3.384-4.6187-7.034-6.455-11.007-1.2479-2.701-2.4098-5.377-3.6194-8.018-4.3222-4.422-10.4854-6.256-15.7458-9.397-.1692-.101-.0011-.356.1703-.288 3.8635 1.532 7.7868 3.429 11.3931 5.505 1.245.717 2.4149 1.53 3.4079 2.51-1.5787-3.349-3.2858-6.631-5.416-9.813-3.909-5.84-8.3401-11.311-12.2035-17.19-.1497-.228.1634-.473.3385-.259 3.7799 4.618 7.5476 9.321 10.9504 14.254-1.0162-3.493-1.965-7.056-2.7391-10.584-.0379-.173.2307-.235.2955-.078 1.5672 3.81 3.0194 8.13 3.5172 12.246 2.3351 3.509 4.4557 7.147 6.2448 10.964-.0463-2.053.1019-4.108-.0864-6.164-.2509-2.744-.9864-5.371-1.6751-8.031-.0519-.2.2575-.259.3381-.089 1.1188 2.369 1.6986 4.846 1.9793 7.447.283 2.622-.1269 5.129-.128 7.717.0136.031.0298.06.0434.09 1.9054 4.237 3.735 8.277 5.7449 12.117-1.2788-6.117.383-13.882 1.7343-19.391.056-.229.3819-.186.3635.053-.5154 6.701-2.7928 14.558-1.0809 21.232 3.2273 5.857 7.0061 11.218 12.3279 16.03-.9834-3.478.3267-6.937 2.4591-9.873 1.007-1.387 2.1158-2.628 3.2475-3.827.8135-2.634.3378-5.591.6891-8.34.0272-.212.3573-.212.3786.004.2156 2.209.2097 4.54.0441 6.756-.0117.157-.0364.313-.0537.47 2.607-2.698 5.2192-5.308 6.9329-8.957.1174-.25.5666-.156.4912.138-1.3639 5.285-5.6176 8.682-9.0024 12.499z" fill="#000" opacity=".21"/><path d="m148.197 255.563c5.861-19.802-4.251-44.623-24.054-50.484-19.802-5.861-41.7953 9.456-47.6564 29.259-5.8612 19.802 2.9782 48.925 22.7805 54.786 19.8019 5.861 43.0689-13.759 48.9299-33.561z" fill="#6f7bbd"/><path d="m123.521 211.92c2.32.411 6.078 2.255 8.04 3.559 2.077 1.38 4.34 3.037 4.735 5.499.235 1.457-.249 2.957-.029 4.416.487 3.227 3.999 4.934 6.013 7.503 2.26 2.883 2.496 7.193.565 10.307-.487.785-1.102 1.509-1.407 2.381-.382 1.093-.235 2.29-.133 3.443.293 3.285.188 6.605-.312 9.864-.208 1.362-.501 2.753-1.267 3.898-1.694 2.531-5.128 3.154-7.519 5.043-2.644 2.09-3.85 5.607-6.49 7.704-1.249.992-2.747 1.607-4.224 2.209-2.05.836-4.157 1.684-6.37 1.731-1.441.03-2.865-.283-4.266-.619-1.059-.255-2.149-.541-3.005-1.215-1.517-1.195-1.93-3.299-2.244-5.205z" fill="#b6bff0"/><path d="m119.544 210.743c-2.17-.918-6.326-1.416-8.682-1.39-2.493.027-5.293.185-6.965 2.036-.99 1.094-1.401 2.615-2.38 3.72-2.1644 2.442-6.0399 1.962-9.1267 3.021-3.4657 1.189-6.0098 4.675-6.0845 8.339-.0187.924.1031 1.865-.1162 2.764-.2745 1.125-1.0486 2.048-1.7623 2.96-2.0331 2.596-3.7519 5.439-5.1073 8.445-.5662 1.256-1.0772 2.582-1.0577 3.959.043 3.047 2.5852 5.438 3.562 8.323 1.081 3.194.1781 6.8 1.2517 9.996.5077 1.512 1.4304 2.843 2.3413 4.153 1.2645 1.816 2.5706 3.675 4.4017 4.918 1.192.81 2.557 1.323 3.9156 1.803 1.0269.363 2.0968.717 3.1814.617 1.923-.177 3.415-1.718 4.716-3.146z" fill="#b6bff0"/><path d="m125.9 206.652c-4.526 3.301-14.897 48.353-16.941 47.748-2.617-.774 14.216-46.448 12.024-49.32z" fill="#a8542e"/><path d="m123.319 210.762c.768 2.411 2.32 5.6 1.196 5.969-1.123.37-1.982-3.316-2.412-3.443-.43-.128 1.216-2.526 1.216-2.526z" fill="#a8542e"/><path d="m120.905 210.047c-1.957 1.604-4.995 3.435-4.254 4.357.742.921 3.468-1.704 3.898-1.576.431.127.356-2.781.356-2.781z" fill="#a8542e"/><path d="m118.987 223.285c.769 2.411 2.32 5.6 1.197 5.97-1.123.369-1.982-3.316-2.412-3.444-.43-.127 1.215-2.526 1.215-2.526z" fill="#a8542e"/><path d="m117.148 222.74c-1.957 1.605-4.995 3.435-4.254 4.357.742.921 3.468-1.704 3.899-1.576.43.127.355-2.781.355-2.781z" fill="#a8542e"/><path d="m111.274 227.476c3.157.379-4.545 6.922-5.611 13.158s2.556 17.057-8.2815 15.331c-11.024-1.756-2.9775-30.519 13.8925-28.489z" fill="#f2d171"/><path d="m122.112 230.684c-2.855-1.4.045 8.28-2.455 14.092-2.5 5.811-11.428 12.918-1.397 17.369 10.203 4.527 19.109-23.982 3.852-31.461z" fill="#f2d171"/><path d="m128.624 205.353s-3.276-5.532.828-14.262c0 0-2.593-1.119-2.948-1.107-.354.013-2.475 7.574-4.638 9.742-2.162 2.167-5.743 4.383-5.357 4.264.387-.12 12.115 1.363 12.115 1.363z" fill="#999924"/><path d="m98.7575 290.843c-20.8148-6.161-30.1453-36.229-23.9928-57.016 5.8115-19.634 28.3813-36.836 49.8873-30.47 21.507 6.365 31.078 33.081 25.266 52.715-6.152 20.787-30.346 40.932-51.1605 34.771zm24.8765-84.044c-19.537-5.783-40.0965 10.038-45.4271 28.047-5.6563 19.11 3.1857 47.114 21.5693 52.555 18.3838 5.441 41.0438-13.238 46.6998-32.348 5.331-18.009-3.306-42.471-22.842-48.254z" fill="#49647a"/><path d="m69.3453 233.718c-16.1648-11.605-35.9862-9.625-44.2664 4.424-8.2845 14.051-1.8906 34.847 14.2738 46.452 16.1673 11.607 35.9862 9.625 44.266-4.424 8.2853-14.051 1.894-34.846-14.2734-46.452z" fill="#e2798b"/><path d="m77.0024 263.855c-8.2827 14.047-28.1016 16.029-44.2663 4.424-4.3686-3.137-7.9965-6.96-10.8416-11.124 1.5868 10.158 7.7379 20.46 17.4588 27.439 16.1673 11.607 35.9862 9.625 44.266-4.424 6.0458-10.25 4.2471-24.084-3.4319-35.328 1.0519 6.735.1174 13.412-3.185 19.013z" fill="#e2798b" opacity=".64"/><path d="m52.3792 232.719c-6.285-3.22-13.2748-1.532-15.607 3.778-2.3351 5.309.8664 12.227 7.154 15.45 6.2875 3.222 13.2767 1.528 15.6089-3.782 2.3347-5.309-.8687-12.223-7.1559-15.446z" fill="#fff" opacity=".58"/><path d="m283.159 127.314.588-40.8343c.02-1.3605-1.091-2.4793-2.481-2.4996l-9.04-.1302c-1.389-.0199-2.532 1.0662-2.552 2.4271l-.585 40.663c-.016 1.06-.717 2.011-1.758 2.309-11.805 3.379-20.511 13.948-20.694 26.622l-1.922 133.446c-.019 1.36 1.09 2.48 2.481 2.5l52.559.758c1.391.02 2.533-1.068 2.553-2.428l1.922-133.446c.18-12.494-7.98-23.179-19.424-27.042-1.009-.341-1.662-1.3-1.647-2.345z" fill="#999924"/><path d="m256.9 161.095c-2.656-.655-5.229-1.597-7.789-2.564-.007.203-.03.401-.033.605l-1.838 127.63c-.019 1.301.994 2.372 2.264 2.39l48.021.692c1.27.018 2.314-1.023 2.333-2.324l1.839-127.63c.006-.443-.019-.876-.034-1.313-15.061 1.139-30.161 6.116-44.763 2.514z" fill="#b64959" opacity=".67"/><path d="m279.035 73.3905-4.843-.0699c-1.496-.0217-2.726 1.1736-2.747 2.6696l-.128 8.8846c-.022 1.4959 1.173 2.7258 2.669 2.7475l4.843.0699c1.496.0217 2.726-1.1736 2.748-2.6695l.128-8.8846c.021-1.496-1.174-2.7259-2.67-2.7476z" fill="#d9a27f"/><path d="m279.49 94.4881-6.33-.0912c-3.172-.0457-5.705-2.6541-5.659-5.8259.045-3.1717 2.653-5.7059 5.824-5.6602l6.331.0912c3.171.0456 5.705 2.6541 5.66 5.8258-.046 3.1714-2.655 5.7059-5.826 5.6603z" fill="#49647a"/><path d="m283.359 113.458.014-.941.352-24.4585c.016-1.1247-1.097-2.0522-2.487-2.0725l-9.04-.1302c-1.389-.0199-2.53.8752-2.546 1.9999l-.351 24.3523-.015 1.048z" fill="#49647a"/><path d="m249.102 171.844-1.214 84.344 52.825.76 1.215-84.343z" fill="#fff"/><path d="m260 177.262 2.589.02 2.543 8.33h.035l2.202-8.282 2.819.028-3.81 12.577-2.478-.028z" fill="#202646"/><path d="m271.404 177.365 2.785.028-.117 12.611-2.785-.027z" fill="#202646"/><path d="m276.719 177.422 3.783.034 5.291 8.811h.034l.083-8.763 2.784.028-.117 12.611-3.641-.034-5.432-9.031h-.034l-.083 8.976-2.784-.021z" fill="#202646"/><path d="m301.555 198.569c-3.801-.361-7.627-.295-11.27.772-5.119 1.499-9.837 5.307-11.119 10.485-1.604 6.478 2.106 14.281-2.02 19.527-2.495 3.174-6.975 3.979-11.01 3.837-4.033-.141-8.112-.99-12.069-.189-2.133.431-4.11 1.338-5.882 2.575l-.297 20.612 52.825.761z" fill="#de5f5f"/><path d="m258.473 202.081c2.715-1.392 6.166-1.493 8.825-.121 4.592 2.369 7.263 8.327 6.895 13.373-.439 6.023-5.858 10.542-11.783 8.266-4.658-1.789-7.425-7.014-8.198-11.752-.621-3.804.695-7.938 4.261-9.766z" fill="#de5f5f"/><path d="m269.253 164.796c.159-.076.316-.154.471-.236 8.851-4.676 13.958-26.979 1.395-30.483-2.285-.637-4.781-.176-6.893.905-7.68 3.932-18.479 20.722-10.067 28.243 3.875 3.465 10.505 3.748 15.094 1.571z" fill="#fff" opacity=".3"/></svg>