<svg fill="none" height="337" viewBox="0 0 1400 337" width="1400" xmlns="http://www.w3.org/2000/svg"><g fill="#e1d3ec"><path d="m122.475 30.2483c1.367-1.3668 1.367-3.5829 0-4.9497l-22.274-22.27391c-1.3668-1.36683-3.5829-1.36683-4.9497 0-1.3669 1.36684-1.3669 3.58291 0 4.94975l19.7987 19.79896-19.7987 19.799c-1.3669 1.3669-1.3669 3.5829 0 4.9498 1.3668 1.3668 3.5829 1.3668 4.9497 0zm-122.475-2.4749.00000031 3.5h119.99999969v-3.5-3.5h-120.00000031z"/><path d="m571.475 29.2483c1.367-1.3668 1.367-3.5829 0-4.9497l-22.274-22.27391c-1.367-1.366833-3.583-1.366833-4.95 0-1.367 1.36684-1.367 3.58291 0 4.94975l19.799 19.79896-19.799 19.799c-1.367 1.3669-1.367 3.5829 0 4.9498 1.367 1.3668 3.583 1.3668 4.95 0zm-122.475-2.4749v3.5h120v-3.5-3.5h-120z"/><path d="m1020.47 28.2483c1.37-1.3668 1.37-3.5829 0-4.9497l-22.269-22.27391c-1.367-1.366833-3.583-1.366833-4.95 0-1.367 1.36684-1.367 3.58291 0 4.94975l19.799 19.79896-19.799 19.799c-1.367 1.3669-1.367 3.5829 0 4.9498 1.367 1.3668 3.583 1.3668 4.95 0zm-122.47-2.4749v3.5h120v-3.5-3.5h-120z"/><path d="m674.525 313.248c-1.367-1.367-1.367-3.583 0-4.949l22.274-22.274c1.367-1.367 3.583-1.367 4.95 0s1.367 3.583 0 4.949l-19.799 19.799 19.799 19.799c1.367 1.367 1.367 3.583 0 4.95s-3.583 1.367-4.95 0zm122.475-2.475v3.5h-120v-3.5-3.5h120z"/><path d="m218.525 313.248c-1.367-1.367-1.367-3.583 0-4.949l22.274-22.274c1.367-1.367 3.583-1.367 4.95 0s1.367 3.583 0 4.949l-19.799 19.799 19.799 19.799c1.367 1.367 1.367 3.583 0 4.95s-3.583 1.367-4.95 0zm122.475-2.475v3.5h-120v-3.5-3.5h120z"/><path d="m1385.8 26.0139v-3.5zm10 10.0028-3.5-.001zm-.08 265.2433 3.5.001zm-10 9.997v3.5zm-268.69-2.552c-1.37 1.366-1.37 3.582-.01 4.949l22.27 22.281c1.37 1.367 3.58 1.368 4.95.001 1.37-1.366 1.37-3.582 0-4.95l-19.79-19.804 19.8-19.794c1.37-1.366 1.37-3.582.01-4.949-1.37-1.368-3.59-1.368-4.95-.002zm212.04-282.6764v3.5l56.73-.0147v-3.5-3.5l-56.73.0147zm66.73 9.9881-3.5-.001-.08 265.2433 3.5.001 3.5.001.08-265.2433zm-10.08 275.2403v-3.5l-266.22-.077v3.5 3.5l266.22.077zm10-9.997-3.5-.001c0 3.59-2.91 6.499-6.5 6.498v3.5 3.5c7.45.002 13.5-6.04 13.5-13.496zm-9.92-275.2461v3.5c3.59-.001 6.5 2.9106 6.5 6.5018l3.5.001 3.5.001c0-7.4587-6.05-13.5058-13.5-13.5038z"/></g></svg>