<svg fill="none" height="381" viewBox="0 0 503 381" width="503" xmlns="http://www.w3.org/2000/svg" xmlns:xlink="http://www.w3.org/1999/xlink"><mask id="a" height="78" maskUnits="userSpaceOnUse" width="78" x="158" y="267"><path d="m224.265 333.308c15.01-15.011 15.01-39.348 0-54.358-15.011-15.011-39.348-15.011-54.359 0-15.011 15.01-15.011 39.347 0 54.358s39.348 15.011 54.359 0z" fill="#fff"/></mask><mask id="b" height="78" maskUnits="userSpaceOnUse" width="78" x="59" y="267"><path d="m125.118 333.308c15.011-15.011 15.011-39.348 0-54.358-15.011-15.011-39.3479-15.011-54.3586 0-15.0107 15.01-15.0107 39.347 0 54.358s39.3476 15.011 54.3586 0z" fill="#fff"/></mask><mask id="c" height="77" maskUnits="userSpaceOnUse" width="78" x="108" y="182"><path d="m147.336 258.891c21.229 0 38.438-17.209 38.438-38.438 0-21.228-17.209-38.437-38.438-38.437-21.228 0-38.438 17.209-38.438 38.437 0 21.229 17.21 38.438 38.438 38.438z" fill="#fff"/></mask><path d="m5.56677 263.3c10.41023-30.513 32.36643-55.747 53.60533-79.769 25.2641-28.576 50.5299-57.151 75.7939-85.7291 27.161-30.7195 55.314-62.2429 89.766-80.5464 53.334-28.3323 114.099-19.53412 159.217 10.1134 45.118 29.6476 76.802 77.5801 102.934 127.8271 10.433 20.062 20.392 43.183 14.215 67.731-6.004 23.861-25.984 42.492-46.516 53.968-46.96 26.246-99.131 24.467-148.804 38.883-72.602 21.068-145.644 77.63-214.8208 62.765-49.8665-10.716-109.624-44.206-85.39043-115.243z" fill="#e1d3ec"/><path d="m273.384 37h-7.132c-9.744 0-17.643 7.899-17.643 17.6422h42.417c0-9.7438-7.899-17.6422-17.642-17.6422z" fill="#b6bff0"/><path d="m291.022 50.8867h-42.417v17.6423h42.417z" fill="#6f7bbd"/><path d="m206.451 96.144v156.332c0 1.783.658 3.503 1.848 4.831l55.445 53.126.893-.714 62.807-52.353c1.357-1.358 2.12-3.199 2.12-5.12v-156.1014c0-18.397-14.913-33.3106-33.31-33.3106h-56.493c-18.396 0-33.31 14.9131-33.31 33.31z" fill="#b6bff0"/><path d="m206.84 254.754c.31.934.79 1.809 1.457 2.553l55.802 53.772 63.343-53.713c.745-.745 1.29-1.643 1.649-2.612z" fill="#b6bff0"/><path d="m319.085 264.141h-103.792v8.753h103.792z" fill="#6f7bbd"/><path d="m223.888 272.203h-7.622v84.796h7.622z" fill="#6f7bbd"/><path d="m319.638 272.203h-7.622v84.796h7.622z" fill="#6f7bbd"/><path d="m317.26 320.795h-97.897v3.93h97.897z" fill="#6f7bbd"/><path d="m329.625 96.1208h-123.622c-1.659 0-3.003-1.3433-3.003-3.0028s1.344-3.0028 3.003-3.0028h123.622c1.658 0 3.003 1.3433 3.003 3.0028s-1.345 3.0028-3.003 3.0028z" fill="#dce2fd"/><path d="m329.625 256.279h-123.622c-1.659 0-3.003-1.343-3.003-3.003 0-1.659 1.344-3.003 3.003-3.003h123.622c1.658 0 3.003 1.344 3.003 3.003 0 1.66-1.345 3.003-3.003 3.003z" fill="#dce2fd"/><g fill="#6f7bbd"><path d="m217.264 101.563c0-1.244-1.009-2.2525-2.252-2.2525-1.244 0-2.252 1.0085-2.252 2.2525 0 1.243 1.008 2.252 2.252 2.252 1.243 0 2.252-1.009 2.252-2.252z"/><path d="m230.401 101.563c0-1.244-1.009-2.2525-2.252-2.2525-1.245 0-2.253 1.0085-2.253 2.2525 0 1.243 1.009 2.252 2.253 2.252 1.243 0 2.252-1.009 2.252-2.252z"/><path d="m242.787 101.563c0-1.244-1.008-2.2525-2.252-2.2525-1.243 0-2.252 1.0085-2.252 2.2525 0 1.243 1.009 2.252 2.252 2.252 1.244 0 2.252-1.009 2.252-2.252z"/><path d="m255.926 101.563c0-1.244-1.008-2.2525-2.252-2.2525s-2.252 1.0085-2.252 2.2525c0 1.243 1.008 2.252 2.252 2.252s2.252-1.009 2.252-2.252z"/><path d="m269.44 101.563c0-1.244-1.009-2.2525-2.252-2.2525-1.245 0-2.252 1.0085-2.252 2.2525 0 1.243 1.008 2.252 2.252 2.252 1.243 0 2.252-1.009 2.252-2.252z"/><path d="m282.578 101.563c0-1.244-1.008-2.2525-2.252-2.2525-1.243 0-2.252 1.0085-2.252 2.2525 0 1.243 1.009 2.252 2.252 2.252 1.244 0 2.252-1.009 2.252-2.252z"/><path d="m296.842 101.563c0-1.244-1.008-2.2525-2.252-2.2525s-2.252 1.0085-2.252 2.2525c0 1.243 1.008 2.252 2.252 2.252s2.252-1.009 2.252-2.252z"/><path d="m309.981 101.563c0-1.244-1.009-2.2525-2.252-2.2525-1.244 0-2.252 1.0085-2.252 2.2525 0 1.243 1.008 2.252 2.252 2.252 1.243 0 2.252-1.009 2.252-2.252z"/><path d="m323.307 101.563c0-1.244-1.009-2.2525-2.252-2.2525-1.244 0-2.252 1.0085-2.252 2.2525 0 1.243 1.008 2.252 2.252 2.252 1.243 0 2.252-1.009 2.252-2.252z"/><path d="m316.737 84.8615c0-1.2437-1.009-2.2521-2.252-2.2521-1.244 0-2.253 1.0084-2.253 2.2521 0 1.2436 1.009 2.252 2.253 2.252s2.252-1.0084 2.252-2.252z"/><path d="m302.848 84.8615c0-1.2437-1.009-2.2521-2.252-2.2521-1.244 0-2.252 1.0084-2.252 2.2521 0 1.2436 1.008 2.252 2.252 2.252 1.243 0 2.252-1.0084 2.252-2.252z"/><path d="m289.332 84.8615c0-1.2437-1.008-2.2521-2.252-2.2521-1.243 0-2.252 1.0084-2.252 2.2521 0 1.2436 1.009 2.252 2.252 2.252 1.244 0 2.252-1.0084 2.252-2.252z"/><path d="m275.446 84.8615c0-1.2437-1.009-2.2521-2.252-2.2521-1.245 0-2.253 1.0084-2.253 2.2521 0 1.2436 1.009 2.252 2.253 2.252 1.243 0 2.252-1.0084 2.252-2.252z"/><path d="m263.432 84.8615c0-1.2437-1.009-2.2521-2.252-2.2521-1.244 0-2.252 1.0084-2.252 2.2521 0 1.2436 1.008 2.252 2.252 2.252 1.243 0 2.252-1.0084 2.252-2.252z"/><path d="m249.545 84.8615c0-1.2437-1.008-2.2521-2.252-2.2521s-2.252 1.0084-2.252 2.2521c0 1.2436 1.008 2.252 2.252 2.252s2.252-1.0084 2.252-2.252z"/><path d="m237.534 84.8615c0-1.2437-1.009-2.2521-2.253-2.2521-1.243 0-2.252 1.0084-2.252 2.2521 0 1.2436 1.009 2.252 2.252 2.252 1.244 0 2.253-1.0084 2.253-2.252z"/><path d="m223.645 84.8615c0-1.2437-1.009-2.2521-2.252-2.2521-1.244 0-2.252 1.0084-2.252 2.2521 0 1.2436 1.008 2.252 2.252 2.252 1.243 0 2.252-1.0084 2.252-2.252z"/><path d="m217.264 243.768c0-1.244-1.009-2.252-2.252-2.252-1.244 0-2.252 1.008-2.252 2.252s1.008 2.252 2.252 2.252c1.243 0 2.252-1.008 2.252-2.252z"/><path d="m230.401 243.768c0-1.244-1.009-2.252-2.252-2.252-1.245 0-2.253 1.008-2.253 2.252s1.009 2.252 2.253 2.252c1.243 0 2.252-1.008 2.252-2.252z"/><path d="m242.787 243.768c0-1.244-1.008-2.252-2.252-2.252-1.243 0-2.252 1.008-2.252 2.252s1.009 2.252 2.252 2.252c1.244 0 2.252-1.008 2.252-2.252z"/><path d="m255.926 243.768c0-1.244-1.008-2.252-2.252-2.252s-2.252 1.008-2.252 2.252 1.008 2.252 2.252 2.252 2.252-1.008 2.252-2.252z"/><path d="m269.44 243.768c0-1.244-1.009-2.252-2.252-2.252-1.245 0-2.252 1.008-2.252 2.252s1.008 2.252 2.252 2.252c1.243 0 2.252-1.008 2.252-2.252z"/><path d="m282.578 243.768c0-1.244-1.008-2.252-2.252-2.252-1.243 0-2.252 1.008-2.252 2.252s1.009 2.252 2.252 2.252c1.244 0 2.252-1.008 2.252-2.252z"/><path d="m296.842 243.768c0-1.244-1.008-2.252-2.252-2.252s-2.252 1.008-2.252 2.252 1.008 2.252 2.252 2.252 2.252-1.008 2.252-2.252z"/><path d="m309.981 243.768c0-1.244-1.009-2.252-2.252-2.252-1.244 0-2.252 1.008-2.252 2.252s1.008 2.252 2.252 2.252c1.243 0 2.252-1.008 2.252-2.252z"/><path d="m323.307 243.768c0-1.244-1.009-2.252-2.252-2.252-1.244 0-2.252 1.008-2.252 2.252s1.008 2.252 2.252 2.252c1.243 0 2.252-1.008 2.252-2.252z"/></g><path d="m215.513 178.201c-1.659 0-3.003-1.344-3.003-3.003v-59.558c0-1.66 1.344-3.003 3.003-3.003 1.658 0 3.002 1.343 3.002 3.003v59.558c0 1.66-1.344 3.003-3.002 3.003z" fill="#f0f0f0"/><path d="m215.384 228.252c-1.659 0-3.003-1.342-3.003-3.002v-36.036c0-1.66 1.344-3.003 3.003-3.003 1.658 0 3.002 1.343 3.002 3.003v36.036c0 1.659-1.344 3.002-3.002 3.002z" fill="#f0f0f0"/><path d="m230.777 341.076 7.005 16.345h-9.699l-9.28-9.999z" fill="#c28b69"/><path d="m164.738 341.076-7.006 16.345h9.7l9.28-9.999z" fill="#c28b69"/><path d="m232.055 341.1c19.313-19.313 19.313-50.625 0-69.938s-50.625-19.313-69.938 0c-19.312 19.313-19.312 50.625 0 69.938 19.313 19.313 50.625 19.313 69.938 0z" fill="#d9a27f"/><g mask="url(#a)"><path d="m236.245 252.037h-78.616v104.031h78.616z" fill="#d9a27f"/><g fill="#000"><path d="m236.229 251.941h-13.438v103.862h13.438z" opacity=".28"/><path d="m209.745 251.941h-13.216v103.862h13.216z" opacity=".1"/><path d="m170.78 252.006h-13.147v103.862h13.147z" opacity=".28"/><path d="m183.991 251.941h-13.216v103.862h13.216z" opacity=".1"/></g></g><path d="m197.089 351.513c-25.024 0-45.382-20.358-45.382-45.383 0-25.024 20.358-45.382 45.382-45.382 25.025 0 45.383 20.358 45.383 45.382s-20.359 45.383-45.383 45.383zm0-86.454c-22.646 0-41.071 18.425-41.071 41.071 0 22.647 18.425 41.072 41.071 41.072 22.647 0 41.072-18.425 41.072-41.072 0-22.646-18.425-41.071-41.072-41.071z" fill="#dce2fd"/><path d="m171.785 318.805c0-21.255 17.219-38.485 38.46-38.485 7.057 0 13.665 1.91 19.35 5.23-6.82-10.755-18.817-17.9-32.488-17.9-21.241 0-38.461 17.231-38.461 38.485 0 14.194 7.684 26.583 19.11 33.255-3.776-5.954-5.971-13.011-5.971-20.585z" fill="#d9a27f" opacity=".41"/><path d="m131.628 341.076 7.006 16.345h-9.7l-9.28-9.999z" fill="#c28b69"/><path d="m65.5892 341.076-7.0052 16.345h9.6991l9.2802-9.999z" fill="#c28b69"/><path d="m132.907 341.098c19.313-19.313 19.313-50.625 0-69.938s-50.625-19.313-69.9379 0-19.3129 50.625 0 69.938c19.313 19.313 50.6249 19.313 69.9379 0z" fill="#d9a27f"/><g mask="url(#b)"><path d="m137.097 252.039h-78.6165v104.031h78.6165z" fill="#d9a27f"/><g fill="#000"><path d="m137.081 251.943h-13.438v103.862h13.438z" opacity=".28"/><path d="m110.596 251.943h-13.2151v103.862h13.2151z" opacity=".1"/><path d="m71.6329 252.006h-13.1466v103.862h13.1466z" opacity=".28"/><path d="m84.8425 251.943h-13.2155v103.862h13.2155z" opacity=".1"/></g></g><path d="m97.941 351.513c-25.0243 0-45.3824-20.358-45.3824-45.383 0-25.024 20.3581-45.382 45.3824-45.382 25.024 0 45.382 20.358 45.382 45.382s-20.358 45.383-45.382 45.383zm0-86.454c-22.6469 0-41.0717 18.425-41.0717 41.071 0 22.647 18.4248 41.072 41.0717 41.072 22.647 0 41.072-18.425 41.072-41.072 0-22.646-18.425-41.071-41.072-41.071z" fill="#dce2fd"/><path d="m72.6368 318.805c0-21.255 17.2193-38.485 38.4602-38.485 7.057 0 13.665 1.91 19.35 5.23-6.82-10.755-18.817-17.9-32.4887-17.9-21.2412 0-38.4603 17.231-38.4603 38.485 0 14.194 7.6837 26.583 19.11 33.255-3.7757-5.954-5.9712-13.011-5.9712-20.585z" fill="#d9a27f" opacity=".41"/><path d="m147.335 269.908c27.313 0 49.454-22.141 49.454-49.454s-22.141-49.454-49.454-49.454-49.4541 22.141-49.4541 49.454 22.1411 49.454 49.4541 49.454z" fill="#d9a27f"/><g mask="url(#c)"><path d="m186.491 166.361h-78.616v104.031h78.616z" fill="#d9a27f"/><g fill="#000"><path d="m186.475 166.266h-13.438v103.861h13.438z" opacity=".28"/><path d="m159.991 166.266h-13.216v103.861h13.216z" opacity=".1"/><path d="m121.028 166.33h-13.147v103.862h13.147z" opacity=".28"/><path d="m134.237 166.266h-13.216v103.861h13.216z" opacity=".1"/></g></g><path d="m147.336 265.837c-25.025 0-45.383-20.358-45.383-45.382 0-25.025 20.359-45.383 45.383-45.383s45.382 20.359 45.382 45.383-20.358 45.382-45.382 45.382zm0-86.454c-22.647 0-41.072 18.425-41.072 41.072s18.425 41.072 41.072 41.072c22.646 0 41.071-18.425 41.071-41.072s-18.424-41.072-41.071-41.072z" fill="#dce2fd"/><path d="m122.031 233.127c0-21.255 17.219-38.485 38.46-38.485 7.057 0 13.665 1.911 19.351 5.23-6.821-10.755-18.817-17.899-32.489-17.899-21.241 0-38.46 17.23-38.46 38.485 0 14.193 7.683 26.582 19.11 33.254-3.776-5.953-5.972-13.011-5.972-20.585z" fill="#d9a27f" opacity=".41"/><path d="m418.185 186.148 5.156-15.57h-57.141l5.155 15.569c0 1.833-.789 3.593-2.209 4.75-9.13 7.442-14.976 18.755-14.976 31.453 0 22.423 12.459 134.69 40.6 134.69 26.853 0 40.601-112.267 40.601-134.69 0-12.698-5.846-24.011-14.976-31.452-1.42-1.158-2.21-2.918-2.21-4.75z" fill="#cf936d"/><path d="m423.341 173.156h-57.142c-1.425 0-2.578-1.153-2.578-2.578s1.153-2.578 2.578-2.578h57.142c1.425 0 2.578 1.153 2.578 2.578s-1.153 2.578-2.578 2.578z" fill="#b07769"/><path d="m429.346 216.127-4.854-6.021c.151-.124 14.845-12.361 9.846-20.799-5.206-8.783-14.941-6.115-15.349-5.994l-2.2-7.414c5.46-1.636 17.546-1.764 24.2 9.466 8.486 14.319-10.818 30.098-11.643 30.762z" fill="#cf936d"/><path d="m361.626 216.127 4.854-6.021c-.151-.124-14.846-12.361-9.846-20.799 5.206-8.783 14.941-6.115 15.349-5.994l2.2-7.414c-5.46-1.636-17.546-1.764-24.2 9.466-8.486 14.319 10.818 30.098 11.643 30.762z" fill="#cf936d"/><path d="m377.171 262.606c16.358.09 33.29.185 49.469-4.092l.492-.13c1.674-.444 3.391-.877 5.068-.878.067-.5.127-.982.192-1.477-1.929-.037-3.813.434-5.645.926l-.483.13c-15.988 4.226-32.804 4.136-49.087 4.041-4.9-.026-9.964-.052-14.832-1.114-1.717-.373-3.394-.88-5.085-1.463.068.535.144 1.086.215 1.627 1.506.499 3.01.948 4.555 1.282 5.018 1.096 10.163 1.122 15.141 1.148z" fill="#b07769"/><path d="m393.399 286.95c-6.427.608-13.001.579-19.381.553l-12.231-.055c.093.494.19.988.284 1.483l11.941.052c6.392.029 13.027.058 19.526-.558 7.169-.682 14.334-2.166 21.301-3.606l13.509-2.803c.096-.524.195-1.05.289-1.573l-14.139 2.933c-6.889 1.425-14.01 2.9-21.099 3.574z" fill="#b07769"/><path d="m369.136 179.445c2.748.03 5.488.079 8.188.136 12.445.263 25.296.538 37.692-1.989 1.553-.315 3.097-.677 4.642-1.036.605-.141 1.228-.27 1.841-.41l.542-1.638c-.909.202-1.826.398-2.719.605-1.532.356-3.062.714-4.601 1.027-12.237 2.493-25.007 2.224-37.365 1.961-2.872-.063-5.787-.115-8.711-.143z" fill="#b07769"/><path d="m422.346 309.839c.137-.53.268-1.069.402-1.603-8.072 1.822-16.265 3.338-24.498 3.967-6.233.471-12.601.44-18.762.419-3.951-.012-8.032-.017-12.068.097.13.489.256.987.388 1.473 3.897-.104 7.838-.109 11.674-.089 6.192.02 12.593.055 18.878-.425 8.078-.616 16.092-2.077 23.986-3.839z" fill="#b07769"/><path d="m411.253 206.435-54.055.691c-.203.499-.442.98-.626 1.489l54.699-.699c6.905-.09 13.99-.211 21-.967-.196-.474-.382-.952-.595-1.418-6.804.708-13.701.819-20.423.904z" fill="#b07769"/><path d="m364.775 195.114h59.991c-.452-.497-.887-1.008-1.363-1.481h-57.265c-.476.473-.911.984-1.363 1.481z" fill="#b07769"/><path d="m385.304 187.819c10.888.073 22.009.139 32.946-1.08-.018-.197-.063-.391-.063-.59l.309-.934c-10.989 1.261-22.198 1.202-33.183 1.123-4.604-.028-9.286-.054-13.978.012-.016.508-.102 1.003-.235 1.485 4.765-.071 9.525-.042 14.204-.016z" fill="#b07769"/><path d="m425.127 298.169c.116-.529.224-1.062.339-1.591-19.878 4.547-40.244 6.035-60.585 4.352l-.234-.02c-.034-.003-.069-.005-.104-.008.113.504.223 1.009.338 1.511 20.223 1.66 40.474.206 60.246-4.244z" fill="#b07769"/><path d="m364.366 273.392-.382-.017c-1.528-.067-3.077-.115-4.629-.12.078.496.15.984.228 1.482 1.451.012 2.903.056 4.338.118l.381.018c20.342.899 44.055.844 66.254-5.976.084-.539.159-1.065.241-1.602-22.185 6.959-46.019 6.996-66.431 6.097z" fill="#b07769"/><path d="m355.825 230.834v-1.104h-45.656v1.104c0 6.314-2.92 12.316-8.003 16.063-12.829 9.458-21.166 24.642-21.166 41.806 0 28.717 34.876 64.679 51.997 64.679 18.389 0 51.997-35.962 51.997-64.679 0-17.164-8.336-32.348-21.166-41.806-5.083-3.747-8.003-9.749-8.003-16.063z" fill="#b07769"/><path d="m355.826 233.533h-45.656c-2.101 0-3.805-1.704-3.805-3.804 0-2.101 1.704-3.805 3.805-3.805h45.656c2.1 0 3.804 1.704 3.804 3.805 0 2.1-1.704 3.804-3.804 3.804z" fill="#834f45"/><path d="m281.641 296.789c5.428 26.95 35.602 56.591 51.145 56.591 10.008 0 24.516-10.661 35.668-24.999-9.754-1.394-19.718-2.763-28.367-7.438-1.95-1.054-3.827-2.279-5.399-3.841-1.798-1.786-3.15-3.962-4.729-5.943-6.011-7.545-15.228-12.061-24.7-13.886-7.764-1.496-15.733-1.316-23.618-.484z" fill="#b07769" opacity=".5"/><path d="m373.783 357.39c-1.085 0-2.095-.681-2.461-1.762l-11.049-32.498c-.465-1.361.264-2.836 1.622-3.298 1.376-.47 2.841.264 3.298 1.622l11.05 32.498c.464 1.361-.264 2.836-1.623 3.298-.279.097-.561.14-.837.14z" fill="#3c251d"/><path d="m296.438 357.39c1.084 0 2.095-.681 2.46-1.762l11.05-32.498c.464-1.361-.264-2.836-1.623-3.298-1.376-.47-2.841.264-3.298 1.622l-11.049 32.498c-.464 1.361.264 2.836 1.622 3.298.279.097.561.14.838.14z" fill="#3c251d"/><path d="m333.702 359.807c-1.637 0-2.962-1.325-2.962-2.961v-35.529c0-1.637 1.325-2.962 2.962-2.962s2.962 1.325 2.962 2.962v35.529c0 1.636-1.325 2.961-2.962 2.961z" fill="#3c251d"/><path d="m374.65 322.544h-83.63c-1.637 0-2.961-1.324-2.961-2.961s1.324-2.962 2.961-2.962h83.63c1.637 0 2.962 1.325 2.962 2.962s-1.325 2.961-2.962 2.961z" fill="#3c251d"/><path d="m355.224 251.506c4.335 2.102 8.313 5.736 10.958 8.787 4.576 5.278 8.445 15.092 1.052 19.805-2.742 1.748-6.181 2.145-9.402 1.695-10.943-1.527-19.075-10.538-19.221-21.684-.034-2.577.634-5.257 2.352-7.177 1.141-1.275 2.683-2.147 4.311-2.672 3.242-1.045 6.696-.331 9.95 1.246z" fill="#fff" opacity=".29"/></svg>