<svg fill="none" height="381" viewBox="0 0 497 381" width="497" xmlns="http://www.w3.org/2000/svg"><path d="m191.14 102.251c52.43-6.0474 66.614-2.9828 83.819-16.3971 25.888-20.1842 15.739-44.2468 40.088-65.5854 25.092-21.99155 70.51-26.79009 96.574-10.93113 51.74 31.48213 116.773 156.28063 68.178 240.48063-43.281 74.992-205.918 143.34-306.881 129.35-8.698-1.205-152.5521-20.171-171.23993-111.132-12.65527-61.6 48.89093-127.156 96.53083-149.39 16.1601-7.54 41.7501-10.491 92.9311-16.395z" fill="#e1d3ec"/><path d="m397.985 355.862c-21.703-.866-40.039.118-62.191 4.501-21.678 4.289-41.608-1.079-63.443-2.172-43.197-2.161-87.907-2.331-131.525-.884-2.567-2.714-3.39-4.453-3.39-4.453l-14.967-170.086c153.958 35.792 294.016 0 294.016 0l-18.176 171.291s-.012.672-.324 1.803z" fill="#cb8e61"/><path d="m421.022 185.006c-.042-3.656-2.955-6.62-6.09-7.547s-6.446-.291-9.64.333c-90.259 17.644-183.49 22.134-273.181 1.118-6.626-1.553-15.28-2.244-18.378 4.545-2.069 4.533-.127 10.361 3.315 13.666 3.441 3.304 8.006 4.635 12.433 5.659 14.296 3.307 28.911 4.42 43.471 5.524 79.399 6.021 160.43 11.885 237.447-10.707 4.669-1.37 9.894-3.387 11.81-8.382-1.369-.41-1.17-2.61-1.187-4.209z" fill="#eedcd2"/><path d="m134.793 322.834c.038.02.076.046.114.066 13.964 7.506 30.014 8.252 45.537 8.973 7.182.332 14.612.679 21.813 1.678 10.099 1.403 20.113 4.17 29.798 6.845 8.977 2.481 18.264 5.047 27.522 6.492 16.022 2.495 32.513 1.746 48.463 1.021 17.487-.791 35.566-1.611 52.919-5.93 13.902-3.458 27.274-9.154 40.291-15.665l-.441 4.162c-12.631 6.229-25.617 11.668-39.16 15.037-17.628 4.386-35.852 5.213-53.478 6.015-7.671.347-15.463.7-23.285.7-8.588 0-17.215-.428-25.747-1.756-9.425-1.47-18.791-4.057-27.85-6.559-9.594-2.651-19.513-5.393-29.427-6.772-7.07-.982-14.431-1.325-21.551-1.654-15.265-.708-31.011-1.504-45.159-8.554z" fill="#cb8e61"/><path d="m350.471 234.08c20.645-2.788 42.19-6.282 62.15-14.906l-.428 4.028c-19.837 8.28-41.023 11.728-61.34 14.468-89.461 12.071-161.368 9.678-224.218-7.542l-.336-3.823c62.726 17.386 134.582 19.854 224.172 7.775z" fill="#cb8e61"/><path d="m372.144 279.205c-25.148 7.58-51.155 15.415-77.514 18.475-40.857 4.754-81.975-1.869-121.745-8.269-13.784-2.22-27.904-4.513-41.748-8.153l-.334-3.791c14.058 3.773 28.472 6.098 42.533 8.36 39.582 6.365 80.496 12.949 120.967 8.256 26.105-3.032 51.984-10.832 77.01-18.373 11.937-3.599 24.12-7.261 36.417-10.446l-.41 3.871c-11.863 3.104-23.641 6.592-35.176 10.07z" fill="#cb8e61"/><g fill="#eedcd2"><path d="m411.667 197.09c-5.871-3.963-11.001-9.467-15.992-14.86-.735-.794-1.464-1.575-2.193-2.357 1.324-.24 2.646-.49 3.967-.736.148.16.299.318.447.478 5.547 5.996 11.262 12.148 17.859 15.894-1.32.64-2.711 1.144-4.088 1.581z"/><path d="m350.723 186.57c1.488-.193 2.977-.37 4.465-.572 8.47 7.556 17.962 13.765 27.947 18.273-1.933.405-3.871.771-5.808 1.144-9.548-4.875-18.571-11.259-26.604-18.845z"/><path d="m132.113 178.796c1.43.334 2.87.607 4.302.93 1.412 2.245 2.801 4.515 4.159 6.808 3.615 6.107 7.355 12.419 12.044 17.511.851.924 1.744 1.801 2.663 2.647-1.783-.18-3.564-.375-5.343-.586-4.711-5.259-8.44-11.498-12.029-17.561-1.653-2.792-3.311-5.587-5.062-8.291-.348-.536-.698-1.01-1.046-1.524.101.024.211.042.312.066z"/><path d="m322.911 203.76c-4.247-3.91-8.584-7.948-11.53-13.099 1.238-.096 2.476-.187 3.713-.29 2.603 3.889 6.143 7.177 9.847 10.586 3.496 3.221 7.041 6.522 9.783 10.433-1.318.119-2.637.21-3.956.318-2.277-2.786-5.022-5.335-7.857-7.948z"/><path d="m173.024 203.245c-5.196-5.347-10.571-10.878-14.725-17.543-.349-.56-.679-1.148-.99-1.751 1.466.266 2.93.544 4.397.796 3.851 5.845 8.723 10.926 13.479 15.822 2.475 2.548 5.034 5.181 7.442 7.916.128.146.254.31.382.461-1.639-.122-3.277-.245-4.915-.369-1.678-1.811-3.385-3.599-5.07-5.332z"/><path d="m190.29 191.044c-.589-.781-1.204-1.587-1.823-2.396 1.544.187 3.091.361 4.637.533 5.768 7.608 12.076 15.279 18.977 21.818-1.745-.114-3.489-.229-5.233-.347-5.968-6.089-11.475-12.882-16.558-19.608z"/><path d="m220.781 191.607c1.224.077 2.447.131 3.671.198 4.153 8.466 11.781 14.87 19.547 20.95-1.961-.083-3.921-.177-5.882-.271-7.003-5.752-13.727-12.328-17.336-20.877z"/><path d="m263.549 192.745c1.545-.013 3.091.014 4.639-.009 7.044 7.485 15.08 15.145 23.99 20.834-2.048.03-4.098.016-6.148.027-8.4-6.148-15.904-13.708-22.481-20.852z"/></g><path d="m398.037 355.862c-21.727-.869-40.074.113-62.245 4.5-21.677 4.288-41.608-1.08-63.443-2.172-10.712-.535-21.554-.9-32.419-1.208 5.537-6.37 12.578-11.043 18.008-17.589 16.116-19.423 16.233-49.055 30.095-70.175 27.896-42.503 79.949-60.253 125.519-58.646l-15.245 143.677s-.006.593-.27 1.613z" fill="#e6a677" opacity=".58"/><path d="m230.468 181.872c.953 1.825 2.677 3.216 4.587 4.139 6.385 3.085 14.546.947 19.603-3.791s7.432-11.541 8.312-18.263c.272-2.078.404-4.259-.42-6.212-1.107-2.623-3.851-4.43-6.755-5.019s-5.94-.096-8.724.843c-9.894 3.336-17.147 12.702-17.58 22.699-.081 1.909.079 3.885.977 5.604z" fill="#e2798b"/><path d="m236.314 166.141c.985-1.905 2.266-3.608 3.304-4.635 2.094-2.075 5.154-4.22 8.219-4.665 4.471-.649 5.74 3.8 4.649 7.163-1.372 4.226-9.366 14.886-15.188 11.766-3.597-1.926-2.795-6.12-.984-9.629z" fill="#fff" opacity=".3"/><path d="m183.927 99.8597c-.425 2.4623.198 5.0203 1.341 7.2433 3.815 7.428 13.126 10.885 21.383 9.641s15.473-6.369 21.209-12.438c1.773-1.876 3.489-3.95 4.13-6.4509.86-3.36-.428-7.0277-2.757-9.5979-2.33-2.5694-5.572-4.1564-8.901-5.1279-11.831-3.4546-25.547.8785-33.246 10.5026-1.47 1.8372-2.759 3.9087-3.159 6.2278z" fill="#dc3c5e"/><path d="m200.948 88.2488c2.324-1.2175 4.782-2.03 6.516-2.3403 3.502-.6265 7.972-.6637 11.209.9909 4.719 2.413 2.682 7.6964-.807 10.2861-4.383 3.2545-19.748 8.3675-23.003 1.291-2.012-4.3719 1.806-7.9855 6.085-10.2277z" fill="#fff" opacity=".3"/><path d="m135.031 202.219c.257 1.949 1.323 3.727 2.7 5.13 4.603 4.691 12.408 5.115 18.323 2.252 5.915-2.864 10.142-8.402 13.036-14.303.894-1.824 1.7-3.784 1.597-5.813-.138-2.726-1.963-5.182-4.314-6.569-2.351-1.388-5.159-1.822-7.888-1.776-9.698.167-18.996 6.628-22.535 15.66-.674 1.725-1.16 3.582-.919 5.419z" fill="#dc3c5e"/><path d="m145.113 189.516c1.462-1.457 3.12-2.643 4.351-3.281 2.486-1.288 5.837-2.36 8.656-1.873 4.111.711 3.813 5.159 1.797 7.92-2.535 3.47-12.889 10.902-16.989 6.344-2.533-2.817-.507-6.425 2.185-9.11z" fill="#fff" opacity=".3"/><path d="m217.768 162.853c1.175 2.206 3.235 3.844 5.499 4.9 7.568 3.529 17.043.553 22.804-5.491 5.762-6.045 8.321-14.518 9.132-22.828.252-2.57.336-5.26-.691-7.629-1.38-3.181-4.647-5.29-8.062-5.892s-6.95.132-10.175 1.404c-11.465 4.524-19.645 16.355-19.828 28.679-.037 2.353.215 4.779 1.321 6.857z" fill="#dc3c5e"/><path d="m224.1 143.243c1.089-2.386 2.533-4.536 3.713-5.844 2.383-2.641 5.892-5.411 9.464-6.088 5.208-.987 6.836 4.436 5.668 8.621-1.469 5.259-10.473 18.718-17.383 15.123-4.27-2.221-3.468-7.418-1.462-11.812z" fill="#fff" opacity=".3"/><path d="m163.873 175.308c1.175 2.206 3.235 3.845 5.5 4.901 7.567 3.529 17.043.553 22.804-5.492 5.761-6.044 8.32-14.518 9.132-22.828.251-2.569.335-5.259-.692-7.629-1.38-3.181-4.646-5.29-8.061-5.892-3.416-.603-6.95.132-10.176 1.405-11.464 4.523-19.645 16.355-19.828 28.678-.036 2.353.216 4.78 1.321 6.857z" fill="#dc3c5e"/><path d="m170.207 155.698c1.089-2.386 2.533-4.535 3.713-5.844 2.383-2.641 5.892-5.411 9.463-6.088 5.209-.987 6.837 4.436 5.669 8.621-1.469 5.259-10.473 18.718-17.384 15.123-4.268-2.22-3.467-7.417-1.461-11.812z" fill="#fff" opacity=".3"/><path d="m199.799 197.637c.759 1.426 2.09 2.484 3.553 3.167 4.889 2.28 11.011.357 14.732-3.548 3.722-3.905 5.376-9.379 5.9-14.748.162-1.66.217-3.398-.447-4.928-.891-2.055-3.002-3.417-5.208-3.807-2.207-.389-4.49.085-6.574.907-7.406 2.922-12.691 10.566-12.81 18.528-.022 1.52.141 3.088.854 4.429z" fill="#dc3c5e"/><path d="m203.886 184.968c.704-1.541 1.637-2.931 2.399-3.775 1.539-1.706 3.806-3.496 6.113-3.933 3.365-.638 4.417 2.866 3.662 5.569-.948 3.397-6.765 12.092-11.23 9.769-2.757-1.434-2.239-4.791-.944-7.63z" fill="#fff" opacity=".3"/><path d="m184.864 135.747c-.174 2.493.705 4.975 2.065 7.071 4.546 7.004 14.159 9.504 22.247 7.433 8.09-2.072 14.751-7.9 19.845-14.516 1.575-2.047 3.072-4.283 3.458-6.836.517-3.429-1.136-6.949-3.713-9.27-2.576-2.322-5.962-3.572-9.373-4.203-12.119-2.242-25.328 3.454-32.016 13.806-1.276 1.977-2.349 4.168-2.513 6.515z" fill="#e2798b"/><path d="m200.626 122.477c2.188-1.446 4.552-2.503 6.247-2.986 3.421-.977 7.864-1.465 11.251-.146 4.939 1.925 3.446 7.387.236 10.315-4.033 3.681-18.802 10.319-22.756 3.608-2.442-4.147.992-8.129 5.022-10.791z" fill="#fff" opacity=".3"/><path d="m147.235 121.522c-.174 2.492.704 4.974 2.065 7.07 4.546 7.004 14.159 9.504 22.247 7.433 8.089-2.072 14.752-7.899 19.845-14.516 1.575-2.046 3.072-4.283 3.458-6.836.517-3.429-1.136-6.949-3.713-9.27-2.576-2.321-5.962-3.572-9.373-4.203-12.119-2.2427-25.328 3.453-32.016 13.805-1.276 1.977-2.35 4.169-2.513 6.517z" fill="#e2798b"/><path d="m162.995 108.252c2.188-1.445 4.553-2.502 6.247-2.986 3.421-.976 7.865-1.465 11.251-.145 4.939 1.924 3.446 7.386.236 10.315-4.033 3.68-18.802 10.319-22.756 3.607-2.442-4.147.992-8.128 5.022-10.791z" fill="#fff" opacity=".3"/><path d="m190.746 179.005c.674 1.812 2.086 3.28 3.715 4.323 5.441 3.483 13.013 2.174 18.052-1.87 5.038-4.044 7.871-10.278 9.346-16.568.457-1.944.798-3.999.253-5.921-.731-2.582-3.02-4.534-5.578-5.347-2.557-.813-5.342-.613-7.947.032-9.256 2.291-16.745 10.525-18.151 19.957-.268 1.801-.324 3.688.31 5.394z" fill="#e2798b"/><path d="m197.614 164.619c1.081-1.718 2.409-3.218 3.448-4.1 2.099-1.781 5.075-3.545 7.883-3.696 4.094-.222 4.787 4.104 3.461 7.193-1.666 3.882-9.954 13.278-14.884 9.812-3.045-2.144-1.897-6.045.092-9.209z" fill="#fff" opacity=".3"/><path d="m170.227 204.177c.498 1.339 1.541 2.424 2.743 3.194 4.02 2.574 9.614 1.606 13.336-1.381 3.723-2.987 5.815-7.593 6.905-12.24.338-1.436.589-2.954.187-4.374-.54-1.908-2.231-3.35-4.12-3.95-1.889-.601-3.948-.453-5.871.023-6.838 1.693-12.37 7.775-13.409 14.744-.198 1.33-.24 2.724.229 3.984z" fill="#e2798b"/><path d="m175.301 193.551c.798-1.269 1.779-2.378 2.548-3.029 1.55-1.315 3.749-2.618 5.823-2.731 3.025-.164 3.536 3.032 2.557 5.314-1.231 2.868-7.353 9.809-10.995 7.248-2.251-1.581-1.403-4.465.067-6.802z" fill="#fff" opacity=".3"/><path d="m132.299 163.59c-.174 2.492.705 4.975 2.066 7.071 4.546 7.004 14.158 9.504 22.247 7.432 8.089-2.071 14.751-7.899 19.844-14.516 1.575-2.046 3.073-4.282 3.458-6.836.518-3.429-1.135-6.949-3.712-9.269-2.576-2.322-5.963-3.573-9.373-4.204-12.119-2.242-25.328 3.454-32.016 13.806-1.277 1.977-2.351 4.169-2.514 6.516z" fill="#e2798b"/><path d="m148.062 150.321c2.188-1.446 4.552-2.503 6.246-2.986 3.421-.977 7.865-1.466 11.252-.146 4.938 1.924 3.445 7.386.236 10.315-4.033 3.68-18.803 10.319-22.756 3.608-2.443-4.147.991-8.129 5.022-10.791z" fill="#fff" opacity=".3"/><path d="m106.434 187.43c-.234 1.794.294 3.628 1.186 5.202 2.983 5.262 9.824 7.487 15.763 6.341 5.939-1.147 11.009-5.07 14.98-9.633 1.228-1.412 2.408-2.963 2.797-4.793.523-2.457-.519-5.073-2.281-6.864s-4.156-2.843-6.595-3.447c-8.665-2.149-18.463 1.396-23.749 8.591-1.009 1.375-1.881 2.912-2.101 4.603z" fill="#e2798b"/><path d="m118.41 178.52c1.645-.95 3.4-1.611 4.646-1.888 2.517-.557 5.751-.718 8.142.384 3.488 1.606 2.171 5.491-.277 7.469-3.076 2.486-14.043 6.644-16.611 1.619-1.586-3.104 1.07-5.834 4.1-7.584z" fill="#fff" opacity=".3"/><path d="m156.594 105.71c1.572-1.205 3.32-2.181 5.171-2.887-2.695 6.293-5.39 12.585-8.085 18.878 8.285-1.53 16.585 4.599 24.86 3.012-1.167 1.145-2.335 2.291-3.502 3.436 5.3.353 10.712-1.467 14.722-4.952-1.226 1.936-2.742 3.687-4.481 5.177 9.808-2.527 15.664-12.184 21.774-20.262.476-.629 1.005-1.285 1.755-1.526 1.672-.535 3.25 1.448 3.1 3.197s-1.347 3.198-2.37 4.624c-5.693 7.935-7.075 18.778-3.555 27.888 1.416-2.474 2.831-4.948 4.247-7.422-.224 1.998-.448 3.998-.672 5.997 6.949-9.193 23.987-3.415 31.267-12.348-.986 1.612-1.972 3.223-2.957 4.835 4.834-3.265 8.783-7.828 11.321-13.081-.12.808-.239 1.615-.359 2.423 3.238-3.709 4.624-8.961 3.636-13.784.877.485 1.754.97 2.631 1.456-.168-4.92-.381-10.02-2.603-14.4132s-7.059-7.874-11.885-6.8975c-2.766.5597-5.6 2.4747-8.164 1.2953-2.367-1.089-2.906-4.5335-1.51-6.7334 1.396-2.2 4.115-3.2399 6.716-3.3904-2.701.4067-5.74-.1665-7.525-2.2337-1.786-2.0672-1.603-5.7984.798-7.1021 2.649-1.4382 5.788.613 8.79.87 4.615.394 8.703-3.9865 9.053-8.6045s-2.295-9.055-5.843-12.032c-3.547-2.9769-7.924-4.7507-12.222-6.4772.874.7449 1.476 1.8042 1.667 2.9372-3.21-2.0554-6.823-3.4783-10.572-4.164.776.5538 1.349 1.3874 1.587 2.3115-3.942.2072-7.945-1.1608-10.938-3.737.335 2.8205.671 5.6419 1.006 8.4624-3.597-2.2286-7.556-4.2324-11.788-4.2358-7.567-.0059-13.528 6.172-18.411 11.9517-4.884 5.7797-10.556 12.1073-18.109 12.579 2.942 1.5084 6.523 1.7139 9.619.5513-1.261.9022-2.521 1.8051-3.781 2.7072 2.436 1.62 5.57 2.1501 8.403 1.4213-.648.4659-.978 1.335-.801 2.1128 3.621.7897 7.499.3501 10.851-1.231 2.115-.9977 4.476-2.4654 6.598-1.4838 2.697 1.2471 2.252 5.6149-.116 7.4098-2.367 1.795-5.601 1.762-8.57 1.6504-4.28-.1615-8.559-.323-12.838-.4845.922.5513 1.845 1.1034 2.768 1.6546-3.555-.2621-7.164.2182-10.526 1.4027 1.95.5521 3.826 1.3714 5.557 2.4265-7.832 1.5261-12.303 9.6021-15.714 16.8154z" fill="#82801e"/><path d="m226.732 95.4419c.599.9402 1.356 1.7603 2.301 2.2854.258.1428.591-.1387.378-.4-1.217-1.5015-2.363-2.7808-3.184-4.4675-.554-3.7421-.243-7.4791 2.435-11.288.662-.1463 1.323-.2951 2.003-.4219.228-.0423.171-.3914-.058-.3542-.617.098-1.213.2333-1.82.3466-.066-.1395-.239-.23-.388-.1091-.087.0711-.153.1547-.236.2283-.396.0778-.799.1429-1.192.2275.096-.1201.026-.3171-.173-.3095-6.312.2536-7.028-7.2204-9.617-10.8103-.032-.044-.071-.0829-.103-.126.028-2.4536.172-4.8421.479-7.321.03-.2486-.316-.3061-.411-.0939-.832 1.8702-1.169 4.0643-1.069 6.1881-1.336-1.4872-2.937-2.7605-4.638-3.7708-.386-.2292-.792-.411-1.19-.6139-.746-1.3553-2.118-2.3707-2.743-3.868-.962-2.3056-.64-4.7051-1.041-7.0928-.042-.2528-.468-.3339-.534-.0515-.466 1.9928-.218 4.3753.366 6.3191.273.9114.651 1.7763 1.177 2.5702.343.5175.783.9563 1.227 1.39-5.279-2.2024-11.362-2.4265-16.907-1.401-.287.0533-.298.5412.019.5344 4.925-.0981 9.947-.4827 14.709 1.1 5.986 1.9894 8.875 5.9023 11.58 10.7198-3.361-1.4652-7.899-1.5777-11.257-.5969-.334.0972-.263.5504.087.5318 2.124-.1099 4.233-.2883 6.357-.0676 1.827.1902 3.553.7575 5.343 1.0923.256.4667.51.9301.767 1.4111 1.473 2.7521 3.351 4.8624 6.335 4.5504-4.052.9529-7.915 2.2625-11.631 3.9239-5.159-.2689-9.895-.9605-14.287 2.3521-.194.1463.002.4549.22.3593 2.634-1.1549 5.056-2.1052 7.969-2.1568 1.624-.0287 3.245.0245 4.869.0212-4.214 1.9894-8.254 4.4108-12.163 7.3142-2.656 1.9725-5.214 3.9678-7.802 5.9032-6.575 2.0189-13.57.5279-20.378.7969-.219.008-.191.347.012.372 4.589.56 9.43.796 14.057.688 1.598-.037 3.173-.209 4.664-.637-3.324 2.43-6.738 4.727-10.512 6.701-6.926 3.622-14.165 6.606-21.067 10.292-.268.142-.092.548.193.432 6.149-2.497 12.332-5.085 18.281-8.091-2.852 2.871-5.675 5.846-8.308 8.879-.13.148.099.352.246.233 3.559-2.887 7.277-6.333 9.954-10.087 4.147-2.184 8.155-4.609 11.934-7.385-1.138 1.981-2.087 4.067-3.365 5.974-1.705 2.546-3.822 4.721-5.91 6.951-.157.168.114.391.283.267 2.354-1.717 4.237-3.827 5.896-6.218 1.673-2.411 2.606-5.077 3.982-7.605.03-.023.061-.043.09-.065 4.116-3.1238 8.053-6.0948 12.06-8.775-4.505 5.2936-7.015 13.761-8.627 19.86-.067.252.274.385.383.142 3.063-6.819 5.021-15.7044 10.244-21.31 6.269-4.0025 12.814-7.2271 20.573-9.0939-2.812 2.8738-3.374 6.949-2.854 10.9515.245 1.8896.668 3.693 1.135 5.466-.608 3.0054-2.647 5.6394-3.766 8.5114-.086.222.236.397.372.198 1.386-2.043 2.621-4.322 3.639-6.575.072-.159.131-.324.198-.4874 1.11 4.0224 2.271 7.9614 2.003 12.4374-.019.307.471.454.553.126 1.478-5.887-.869-11.468-2.142-16.9971z" fill="#000" opacity=".21"/><path d="m253.952 131.446s4.019-2.908 7.277-10.437c3.26-7.529 12.206-21.488 25.379-23.403l-4.197-7.3033s-15.967 18.3593-18.348 22.8723c-2.381 4.512-8.703 13.919-13.241 13.665-4.537-.253 3.13 4.606 3.13 4.606z" fill="#60844d"/><path d="m278.283 96.038c-1.677 1.7416-3.456 3.5493-5.765 4.264-1.976.611-4.212.315-5.96-.7874-1.734-1.0941-2.91-2.8603-4.075-4.547-4.015-5.8118-8.868-11.5408-15.531-13.8879-4.731-1.6656-9.97-1.4415-14.823-.175-.747.1953-1.525.4354-2.056.9951-.532.5597-.7 1.538-.157 2.0867.47-1.209 1.755-1.8753 2.98-2.3057 4.581-1.6131 9.787-1.3688 14.197.6655 2.604 1.2014 4.9 2.9786 7.057 4.8691 2.478 2.172 4.811 4.5224 6.803 7.1468 1.123 1.4796 2.14 3.0488 3.427 4.3881 1.286 1.3397 2.897 2.4587 4.732 2.7527 1.831.294 3.718-.266 5.324-1.194s2.977-2.2055 4.331-3.4721c-.163-.2663-.324-.5326-.484-.7989z" fill="#60844d"/><path d="m273.072 253.163c-.589 0-1.177-.106-1.736-.318l.665-1.736-.395.107c-.897-3.086-1.795-5.748-3.723-7.137-1.09-.781-2.585-1.186-4.156-1.601-.907-.251-1.823-.492-2.701-.809-2.353-.849-4.542-2.209-6.345-3.945l-.878-.838.145-1.215c.559-4.938.241-10.059-.907-14.92-1.253.087-2.497.56-3.462 1.341-1.34 1.099-2.189 2.855-2.199 4.591l-.029 3.684-3.394-1.427c-2.478-1.042-4.736-2.478-6.713-4.263-.501-.453-1.002-.955-1.398-1.601-.521-.82-.733-1.707-.897-2.411l-1.775-7.31c-.588-2.459-1.263-5.246-.926-8.168.077-.733.261-1.698.974-2.556.598-.762 1.428-1.119 1.929-1.341 3.395-1.495 7.165-2.372 10.897-2.526l.077 1.678 1.929-1.726c2.305 2.536 4.687 5.169 6.557 8.284l.425.704c.492.829.954 1.611 1.514 2.122 1.34 1.234 3.713 1.35 6.231 1.37l7.753.048c4.071.029 9.028.057 13.493 1.871-.241-1.418-.55-2.826-.917-4.195-.28-1.022-.637-2.199-1.234-3.019-1.312-1.774-4.128-2.401-6.848-3.009-8.39-1.9-13.357-5.314-15.324-10.28l-1.399-3.53 3.8.154c1.871-.019 3.935-1.206 6.047-2.556l1.35-.858c4.543-2.797 8.873-3.095 11.872-.868l-2.95 3.954c-1.495-1.119-4.253-.154-6.336 1.119l-1.254.8c-1.466.946-3.047 1.958-4.793 2.624 1.948 1.996 5.13 3.51 9.509 4.494 3.819.858 7.889 1.764 10.299 5.024 1.061 1.438 1.602 3.096 2.025 4.668.646 2.421 1.128 4.909 1.427 7.407l.454 3.751-3.617-1.09-1.274 1.273-1.639-.8c-3.761-1.939-8.525-1.968-12.73-1.996l-7.754-.049c-2.662-.019-6.684-.048-9.529-2.671-1.09-.994-1.803-2.189-2.431-3.241l-.385-.656c-1.254-2.083-2.845-4.003-4.485-5.844-3.018.164-6.046.887-8.785 2.092-.212 1.987.328 4.224.849 6.385l1.764 7.29c.097.396.193.82.309.994.096.164.396.444.512.54.79.724 1.648 1.37 2.565 1.939.674-1.813 1.813-3.453 3.327-4.688 2.469-2.035 5.844-2.912 8.997-2.276l1.504.28.415 1.475c1.543 5.536 2.102 11.448 1.61 17.186 1.11.887 2.382 1.6 3.723 2.083.742.27 1.524.473 2.305.685 1.842.492 3.924 1.051 5.747 2.363 3.472 2.488 4.697 6.703 5.594 9.779l.637 2.199-2.151.801c-.566.208-1.164.315-1.761.315z" fill="#8fbb5e"/><path d="m263.245 174.001c-4.878-3.166-10.721-4.822-16.535-4.688-.391.01-.797.03-1.142.212-.516.271-.799.854-.902 1.428-.504 2.81 2.352 4.966 4.833 6.379 2.182 1.242 4.364 2.485 6.547 3.727 2.392 1.362 4.919 2.862 6.139 5.331-.561.188-1.121.376-1.681.563-1.621-3.441-5.523-5.659-9.308-5.293 1.102 2.181 2.203 4.363 3.306 6.545-4.438-3.824-5.208-11.499-10.706-13.52-.567-.208-1.184-.341-1.775-.215-1.128.241-1.878 1.389-2.027 2.532s.174 2.29.493 3.398c1.128 3.915 2.256 7.829 3.385 11.744-.595.34-1.224-.386-1.511-1.007-3.108-6.708-3.912-14.459-2.247-21.661-.959-.647-2.154.358-2.868 1.269-2.679 3.42-5.357 6.84-8.037 10.26-1.509 1.926-3.07 3.967-3.455 6.385-.231 1.446-.423 3.43-1.88 3.585-.98-4.94 2.145-9.707 5.416-13.536 3.272-3.829 7.029-7.748 7.682-12.742.829-6.346-3.585-12.041-5.592-18.119-1.023-3.094-1.425-6.391-1.179-9.64.022-.292.056-.598.229-.833.173-.234.456-.356.728-.456 2.702-1 5.782-.934 8.44.178-2.516.63-5.334 1.493-6.483 3.818-.501 1.014-.602 2.184-.531 3.313.3 4.763 3.393 8.85 4.825 13.403.753 2.396 1.072 4.991 2.462 7.083 1.924 2.897 5.5 4.214 8.926 4.816 3.425.602 6.981.683 10.229 1.924 1.837.702 3.664 1.93 4.219 3.817z" fill="#999924"/><path d="m238.256 216.447c4.29-4.29 4.29-11.245 0-15.535s-11.245-4.29-15.535 0-4.29 11.245 0 15.535 11.245 4.29 15.535 0z" fill="#49647a"/><path d="m228.758 205.991c0-2.93 2.375-5.305 5.305-5.305s5.306 2.375 5.306 5.305-2.375 5.305-5.306 5.305c-2.93 0-5.305-2.375-5.305-5.305z" fill="#fff" opacity=".3"/><path d="m273.956 223.688c4.29-4.29 4.289-11.246-.001-15.536s-11.245-4.29-15.535 0-4.29 11.246 0 15.536 11.246 4.29 15.536 0z" fill="#49647a"/><path d="m264.455 213.231c0-2.93 2.375-5.305 5.305-5.305s5.306 2.375 5.306 5.305c0 2.931-2.375 5.306-5.306 5.306-2.93 0-5.305-2.375-5.305-5.306z" fill="#fff" opacity=".3"/><path d="m293.979 224.487c3.559-3.559 3.559-9.329 0-12.888-3.559-3.558-9.328-3.558-12.887 0-3.559 3.559-3.559 9.329 0 12.887 3.559 3.559 9.328 3.559 12.887.001z" fill="#49647a"/><path d="m286.1 215.813c0-2.431 1.97-4.401 4.4-4.401 2.431 0 4.401 1.971 4.401 4.401 0 2.431-1.971 4.401-4.401 4.401s-4.4-1.971-4.4-4.401z" fill="#fff" opacity=".3"/><path d="m283.469 256.695c1.157-4.898-1.876-9.806-6.774-10.963-4.898-1.156-9.806 1.877-10.962 6.775-1.157 4.898 1.876 9.806 6.774 10.962 4.898 1.157 9.806-1.876 10.962-6.774z" fill="#324c5e"/><path d="m273.119 252.262c0-2.431 1.97-4.401 4.401-4.401s4.401 1.971 4.401 4.401c0 2.431-1.971 4.401-4.401 4.401s-4.401-1.97-4.401-4.401z" fill="#fff" opacity=".3"/><path d="m270.26 178.049c3.559-3.559 3.559-9.328 0-12.887s-9.328-3.559-12.887 0c-3.558 3.559-3.558 9.328 0 12.887 3.559 3.559 9.329 3.559 12.887 0z" fill="#62538c"/><path d="m262.383 169.373c0-2.43 1.97-4.4 4.401-4.4 2.43 0 4.4 1.97 4.4 4.4 0 2.431-1.97 4.401-4.4 4.401-2.431 0-4.401-1.97-4.401-4.401z" fill="#fff" opacity=".3"/><path d="m292.7 181.97c.905-5.58-2.884-10.838-8.465-11.744-5.58-.905-10.838 2.884-11.744 8.465-.905 5.58 2.884 10.838 8.465 11.744 5.58.905 10.838-2.884 11.744-8.465z" fill="#49647a"/><path d="m285.873 182.782c2.73 0 4.944-2.214 4.944-4.944s-2.214-4.943-4.944-4.943-4.943 2.213-4.943 4.943 2.213 4.944 4.943 4.944z" fill="#fff" opacity=".3"/><path d="m293.16 201.073c1.394-5.905-2.262-11.821-8.166-13.216-5.905-1.394-11.821 2.262-13.216 8.167-1.394 5.904 2.262 11.821 8.167 13.215 5.904 1.394 11.821-2.262 13.215-8.166z" fill="#324c5e"/><path d="m280.684 195.755c0-2.931 2.375-5.306 5.305-5.306s5.305 2.375 5.305 5.306c0 2.93-2.375 5.305-5.305 5.305s-5.305-2.375-5.305-5.305z" fill="#fff" opacity=".3"/><path d="m230.892 199.6c3.12-3.12 3.12-8.178 0-11.298s-8.178-3.12-11.298 0c-3.119 3.12-3.12 8.178 0 11.298s8.178 3.12 11.298 0z" fill="#324c5e"/><path d="m227.847 195.852c2.131 0 3.859-1.727 3.859-3.858 0-2.132-1.728-3.859-3.859-3.859s-3.859 1.727-3.859 3.859c0 2.131 1.728 3.858 3.859 3.858z" fill="#fff" opacity=".3"/><path d="m279.688 242.379c6.067 0 10.986-4.918 10.986-10.985s-4.919-10.986-10.986-10.986-10.985 4.919-10.985 10.986 4.918 10.985 10.985 10.985z" fill="#324c5e"/><path d="m277.941 228.714c0-2.93 2.375-5.306 5.306-5.306 2.93 0 5.305 2.375 5.305 5.306 0 2.93-2.375 5.305-5.305 5.305s-5.306-2.376-5.306-5.305z" fill="#fff" opacity=".3"/><path d="m267.717 201.471c4.29-4.29 4.29-11.246 0-15.536s-11.245-4.29-15.535 0-4.29 11.246 0 15.536 11.245 4.29 15.535 0z" fill="#49647a"/><path d="m258.217 191.012c0-2.93 2.375-5.305 5.305-5.305s5.306 2.375 5.306 5.305c0 2.931-2.375 5.306-5.306 5.306-2.929 0-5.305-2.375-5.305-5.306z" fill="#fff" opacity=".3"/><path d="m269.941 241.772c1.395-5.904-2.262-11.821-8.166-13.215-5.904-1.395-11.821 2.262-13.215 8.166-1.395 5.905 2.262 11.821 8.166 13.215 5.905 1.395 11.821-2.262 13.215-8.166z" fill="#49647a"/><path d="m257.467 236.452c0-2.931 2.375-5.306 5.305-5.306s5.306 2.375 5.306 5.306c0 2.93-2.375 5.305-5.306 5.305-2.929 0-5.305-2.376-5.305-5.305z" fill="#fff" opacity=".3"/><path d="m244.36 206.178c4.619 0 8.363-3.744 8.363-8.363s-3.744-8.364-8.363-8.364-8.364 3.745-8.364 8.364 3.745 8.363 8.364 8.363z" fill="#324c5e"/><path d="m243.029 195.771c0-2.23 1.809-4.039 4.04-4.039s4.04 1.809 4.04 4.039c0 2.231-1.809 4.04-4.04 4.04s-4.04-1.809-4.04-4.04z" fill="#fff" opacity=".3"/><path d="m255.722 226.056c5.605-2.322 8.267-8.749 5.945-14.354s-8.748-8.267-14.354-5.945c-5.605 2.322-8.267 8.748-5.945 14.353 2.322 5.606 8.748 8.267 14.354 5.946z" fill="#324c5e"/><path d="m249.725 213.231c0-2.93 2.374-5.305 5.305-5.305 2.93 0 5.305 2.375 5.305 5.305 0 2.931-2.375 5.306-5.305 5.306s-5.305-2.375-5.305-5.306z" fill="#fff" opacity=".3"/><path d="m239.241 237.887c4.964 0 8.988-4.024 8.988-8.987 0-4.964-4.024-8.988-8.988-8.988-4.963 0-8.987 4.024-8.987 8.988 0 4.963 4.024 8.987 8.987 8.987z" fill="#49647a"/><path d="m237.812 226.702c0-2.398 1.944-4.341 4.341-4.341s4.341 1.944 4.341 4.341-1.944 4.341-4.341 4.341-4.341-1.944-4.341-4.341z" fill="#fff" opacity=".3"/><path d="m298.725 132.788c-.694 0-1.495-.106-2.276-.511-1.022-.56-1.572-1.37-1.909-1.852-2.565-3.762-4.379-7.889-5.391-12.287l1.438-.337-2.045-1.6c2.498-3.299 5.082-6.713 8.323-9.615l.666-.579c.954-.829 1.842-1.61 2.391-2.478 1.254-2.036.849-5.0057.29-8.1306l-1.688-9.2487c-.945-5.198-1.996-11.0234-.723-16.7321-.096-.1251-.173-.2604-.26-.3957-1.804.6654-3.607 1.4272-5.372 2.2668-1.263.6172-2.594 1.302-3.481 2.2659-1.958 2.112-2.084 5.7095-2.199 9.1904l-.02.6941c-.337 9.5471-3.211 16.1056-8.535 19.4719l-3.202 2.035-.559-3.752c-.376-2.527-2.411-4.677-4.571-6.9531l-1.302-1.3984c-4.205-4.6095-5.526-9.4803-3.627-13.3763l4.437 2.1602c-1.408 2.8932 1.812 6.7697 2.835 7.8985l1.244 1.3214c1.601 1.6876 3.337 3.5299 4.533 5.7189 2.324-2.8544 3.597-7.3101 3.81-13.2995l.028-.6848c.135-4.1758.289-8.9114 3.501-12.3829 1.476-1.5912 3.337-2.5652 4.967-3.3557 2.768-1.3215 5.603-2.4494 8.439-3.3464l3.558-1.1287-.357 3.7226 1.505 1.0129-.269 2.2853c-1.486 5.034-.444 10.7918.482 15.8739l1.687 9.2581c.559 3.1054 1.398 7.792-.954 11.602-.936 1.514-2.219 2.622-3.338 3.606l-.626.541c-2.267 2.035-4.263 4.465-6.153 6.924.878 3.732 2.431 7.243 4.61 10.444h.048c2.941 0 5.535-1.157 8.034-2.285l8.303-3.732c.482-.232 1.003-.462 1.263-.704.203-.184.425-.521.608-.83.81-1.33 1.486-2.738 2.016-4.204-2.46-.299-4.822-1.293-6.732-2.893-2.874-2.421-4.571-6.095-4.552-9.838l.01-1.514 1.359-.674c6.268-3.1059 13.241-5.0928 20.233-5.7675.917-1.6495 1.543-3.4715 1.843-5.3231.154-.9647.221-1.9481.299-2.9322.183-2.3817.366-4.8412 1.475-7.2229 2.112-4.5326 6.77-6.8958 10.165-8.6214l2.015-1.0222 1.196 1.9091c.713 1.1473.983 2.5077.752 3.8385l-1.764-.3086c-3.559 1.8127-6.606 3.5392-7.889 6.2879-.734 1.5717-.878 3.4816-1.023 5.5066-.087 1.1185-.173 2.2371-.347 3.337-.473 2.922-1.572 5.7772-3.193 8.2554l-.665 1.0221-1.215.0873c-6.24.462-12.479 2.073-18.169 4.658.337 1.745 1.291 3.403 2.652 4.541 1.717 1.447 4.176 2.093 6.403 1.708l3.617-.646-.771 3.597c-.666 3.106-1.843 6.066-3.502 8.805-.376.608-.829 1.282-1.494 1.89-.83.762-1.784 1.206-2.556 1.553l-8.304 3.742c-2.787 1.244-5.931 2.652-9.364 2.902-.204.02-.416.029-.638.029z" fill="#8fbb5e"/><path d="m255.21 103.321c-2.678 6.533-3.339 13.877-1.87 20.784.099.464.215.943.51 1.315.441.555 1.199.761 1.907.755 3.467-.032 5.395-3.925 6.522-7.204.991-2.883 1.982-5.766 2.973-8.649 1.087-3.161 2.308-6.515 4.979-8.525.35.626.7 1.252 1.051 1.879-3.74 2.708-5.51 7.863-4.22 12.297 2.355-1.806 4.71-3.612 7.065-5.418-3.563 6.156-12.546 8.803-13.719 15.817-.121.724-.142 1.491.142 2.167.541 1.291 2.079 1.928 3.477 1.849 1.398-.08 2.693-.722 3.943-1.353 4.417-2.227 8.834-4.455 13.251-6.682.539.632-.185 1.546-.862 2.029-7.304 5.219-16.37 7.922-25.339 7.558-.555 1.29.912 2.49 2.16 3.136 4.683 2.426 9.367 4.852 14.051 7.279 2.638 1.367 5.425 2.769 8.395 2.685 1.777-.051 4.189-.267 4.702 1.435-5.674 2.282-12.065-.373-17.371-3.414-5.305-3.04-10.827-6.641-16.932-6.295-7.759.439-13.559 6.988-20.358 10.752-3.462 1.916-7.305 3.139-11.238 3.576-.352.039-.727.069-1.046-.086-.317-.154-.526-.463-.708-.766-1.801-2.999-2.417-6.689-1.688-10.11 1.319 2.859 2.983 6.027 6.015 6.874 1.323.369 2.74.225 4.072-.113 5.616-1.429 9.797-6.041 14.906-8.773 2.688-1.438 5.714-2.404 7.896-4.532 3.022-2.948 3.789-7.512 3.736-11.735-.053-4.222-.757-8.483-.007-12.639.425-2.349 1.48-4.806 3.605-5.893z" fill="#999924"/><path d="m314.968 142.044c4.152-6.085 2.586-14.384-3.499-18.537-6.085-4.152-14.384-2.586-18.536 3.499-4.153 6.085-2.586 14.384 3.499 18.536 6.084 4.153 14.383 2.586 18.536-3.498z" fill="#62538c"/><path d="m299.95 137.383c3.557 0 6.441-2.884 6.441-6.441 0-3.558-2.884-6.442-6.441-6.442-3.558 0-6.442 2.884-6.442 6.442 0 3.557 2.884 6.441 6.442 6.441z" fill="#fff" opacity=".3"/><path d="m309.593 102.675c6.799-2.835 10.012-10.6449 7.176-17.4435-2.835-6.7985-10.645-10.0113-17.443-7.176-6.799 2.8354-10.012 10.6453-7.176 17.4439 2.835 6.7986 10.645 10.0116 17.443 7.1756z" fill="#49647a"/><path d="m301.743 93.0445c-3.496.6595-6.865-1.6393-7.525-5.1354-.659-3.4961 1.64-6.8645 5.136-7.5248 3.496-.6595 6.865 1.6394 7.525 5.1354.659 3.4961-1.641 6.8645-5.136 7.5248z" fill="#fff" opacity=".3"/><path d="m305.222 74.9599c5.882-1.6549 9.309-7.765 7.654-13.6474-1.654-5.8823-7.764-9.3094-13.647-7.6546-5.882 1.6549-9.309 7.765-7.655 13.6474 1.655 5.8823 7.765 9.3094 13.648 7.6546z" fill="#49647a"/><path d="m299.949 66.6374c-2.9.547-5.694-1.3604-6.242-4.2604-.547-2.9 1.36-5.6943 4.26-6.2422s5.695 1.3604 6.242 4.2604c.547 2.9008-1.36 5.6951-4.26 6.2422z" fill="#fff" opacity=".3"/><path d="m351.638 82.2392c5.882-1.6548 9.309-7.765 7.655-13.6474-1.655-5.8823-7.765-9.3094-13.648-7.6546-5.882 1.6549-9.309 7.765-7.655 13.6474 1.655 5.8823 7.765 9.3094 13.648 7.6546z" fill="#49647a"/><path d="m346.363 73.9184c-2.9.547-5.694-1.3604-6.242-4.2604-.547-2.9 1.36-5.6943 4.26-6.2422 2.9-.547 5.695 1.3604 6.242 4.2604s-1.36 5.6952-4.26 6.2422z" fill="#fff" opacity=".3"/><path d="m261.346 109.341c3.445-5.048 2.146-11.9322-2.902-15.3769-5.048-3.4448-11.932-2.1453-15.377 2.9023-3.444 5.0476-2.145 11.9316 2.903 15.3766 5.047 3.445 11.932 2.145 15.376-2.902z" fill="#49647a"/><path d="m249.885 105.395c-2.9.547-5.695-1.36-6.243-4.26-.547-2.9004 1.361-5.6947 4.261-6.2426 2.9-.547 5.694 1.3604 6.242 4.2604.547 2.9002-1.36 5.6952-4.26 6.2422z" fill="#fff" opacity=".3"/><path d="m264.273 89.8028c6.037-3.2673 8.281-10.8094 5.014-16.8457s-10.809-8.281-16.846-5.0137c-6.036 3.2673-8.281 10.8094-5.013 16.8457 3.267 6.0363 10.809 8.281 16.845 5.0137z" fill="#49647a"/><path d="m255.806 81.3592c-3.257.6147-6.397-1.5278-7.011-4.7854-.615-3.2576 1.527-6.3969 4.785-7.0116s6.397 1.5278 7.012 4.7854c.614 3.2577-1.528 6.3969-4.786 7.0116z" fill="#fff" opacity=".3"/><path d="m292.513 79.6383c2.597-6.8936-.886-14.587-7.78-17.1837-6.893-2.5967-14.587.8866-17.184 7.7802-2.596 6.8936.887 14.587 7.781 17.1837 6.893 2.5968 14.587-.8866 17.183-7.7802z" fill="#49647a"/><path d="m277.239 77.6149c-3.496.6594-6.864-1.6394-7.525-5.1355-.659-3.496 1.64-6.8653 5.136-7.5248s6.864 1.6394 7.525 5.1355c.659 3.4961-1.64 6.8644-5.136 7.5248z" fill="#fff" opacity=".3"/><path d="m289.357 153.686c-5.265.993-10.338-2.469-11.332-7.734-.993-5.265 2.469-10.337 7.734-11.331 5.265-.993 10.338 2.469 11.331 7.734.994 5.264-2.469 10.337-7.733 11.331z" fill="#453c6b"/><path d="m285.516 146.109c-2.542.48-4.993-1.192-5.473-3.735-.48-2.542 1.192-4.992 3.735-5.472 2.542-.479 4.992 1.192 5.472 3.735.481 2.542-1.192 4.991-3.734 5.472z" fill="#fff" opacity=".3"/><path d="m330.997 78.237c4.153-6.0848 2.586-14.3838-3.499-18.5363-6.084-4.1525-14.383-2.5861-18.536 3.4987-4.152 6.0847-2.586 14.3837 3.499 18.5362s14.384 2.5861 18.536-3.4986z" fill="#49647a"/><path d="m317.177 73.4723c-3.496.6594-6.866-1.6394-7.525-5.1355-.66-3.496 1.639-6.8644 5.135-7.5248 3.496-.6594 6.866 1.6395 7.525 5.1355.66 3.4961-1.639 6.8645-5.135 7.5248z" fill="#fff" opacity=".3"/><path d="m292.624 104.379c.849-7.3173-4.395-13.937-11.712-14.7856s-13.937 4.3952-14.786 11.7126c-.848 7.317 4.396 13.937 11.713 14.785 7.317.849 13.937-4.395 14.785-11.712z" fill="#49647a"/><path d="m275.444 105.604c3.557 0 6.441-2.884 6.441-6.4416 0-3.5577-2.884-6.4417-6.441-6.4417-3.558 0-6.442 2.884-6.442 6.4417 0 3.5576 2.884 6.4416 6.442 6.4416z" fill="#fff" opacity=".3"/><path d="m337.888 106.189c7.029-2.205 10.94-9.6902 8.735-16.7193-2.205-7.0292-9.691-10.9401-16.72-8.7353s-10.94 9.6904-8.735 16.7196c2.205 7.029 9.69 10.94 16.72 8.735z" fill="#49647a"/><path d="m331.022 96.1559c-3.496.6594-6.864-1.6394-7.524-5.1355s1.639-6.8644 5.135-7.5248c3.496-.6594 6.865 1.6394 7.525 5.1355.66 3.496-1.64 6.8653-5.136 7.5248z" fill="#fff" opacity=".3"/><path d="m289.759 130.472c-5.511 1.04-10.822-2.584-11.862-8.096-1.04-5.511 2.584-10.822 8.095-11.862 5.512-1.04 10.822 2.585 11.862 8.096 1.041 5.511-2.584 10.822-8.095 11.862z" fill="#49647a"/><path d="m285.737 122.544c-2.662.502-5.227-1.248-5.729-3.911-.502-2.661 1.248-5.226 3.91-5.729 2.662-.502 5.227 1.248 5.729 3.911.502 2.661-1.248 5.226-3.91 5.729z" fill="#fff" opacity=".3"/><path d="m320.013 113.492c3.077-6.693.145-14.6132-6.548-17.6902s-14.613-.1455-17.69 6.5482c-3.077 6.693-.146 14.613 6.547 17.69 6.694 3.077 14.614.146 17.691-6.548z" fill="#49647a"/><path d="m305.061 110.619c-3.496.659-6.864-1.64-7.524-5.136s1.639-6.865 5.135-7.5245c3.496-.6594 6.865 1.6394 7.525 5.1355.66 3.496-1.639 6.864-5.136 7.525z" fill="#fff" opacity=".3"/><path d="m328.138 130.326c-5.923 1.118-11.63-2.777-12.748-8.7-1.117-5.922 2.778-11.63 8.701-12.747 5.922-1.118 11.629 2.777 12.747 8.7 1.118 5.921-2.778 11.629-8.7 12.747z" fill="#49647a"/><path d="m323.816 121.803c-2.861.539-5.617-1.342-6.157-4.202-.54-2.861 1.342-5.617 4.202-6.157s5.616 1.342 6.157 4.202c.539 2.86-1.342 5.616-4.202 6.157z" fill="#fff" opacity=".3"/><path d="m417.639 173.522c-.278 2.118-1.437 4.048-2.932 5.574-5 5.095-13.479 5.556-19.905 2.446-6.425-3.111-11.016-9.126-14.159-15.536-.972-1.982-1.847-4.111-1.735-6.315.15-2.961 2.132-5.629 4.687-7.136 2.553-1.506 5.603-1.979 8.567-1.928 10.535.181 20.634 7.199 24.478 17.01.733 1.872 1.261 3.891.999 5.885z" fill="#b4ba42"/><path d="m406.687 159.722c-1.588-1.584-3.388-2.872-4.726-3.565-2.7-1.4-6.34-2.564-9.403-2.034-4.465.773-4.142 5.603-1.951 8.602 2.753 3.769 14 11.842 18.454 6.891 2.751-3.059.55-6.978-2.374-9.894z" fill="#fff" opacity=".3"/><path d="m286.718 188.439c-1.035 1.982-2.907 3.493-4.983 4.496-6.935 3.351-15.8 1.029-21.292-4.118-5.493-5.146-8.074-12.536-9.029-19.837-.295-2.259-.439-4.628.455-6.749 1.203-2.849 4.183-4.812 7.337-5.452 3.155-.64 6.452-.105 9.477.916 10.747 3.625 18.626 13.797 19.096 24.657.089 2.072-.085 4.22-1.061 6.087z" fill="#d5e06f"/><path d="m280.368 171.351c-1.069-2.069-2.462-3.919-3.589-5.035-2.275-2.253-5.598-4.585-8.929-5.067-4.855-.705-6.235 4.128-5.049 7.781 1.491 4.59 10.174 16.17 16.497 12.781 3.908-2.093 3.038-6.649 1.07-10.46z" fill="#fff" opacity=".3"/><path d="m337.272 99.3525c.462 2.6755-.215 5.4535-1.455 7.8685-4.145 8.067-14.259 11.824-23.228 10.472-8.969-1.351-16.808-6.919-23.038-13.51-1.927-2.039-3.79-4.2911-4.486-7.0085-.935-3.6491.465-7.6338 2.994-10.4256 2.53-2.7918 6.052-4.5149 9.669-5.5709 12.851-3.7522 27.75.9545 36.113 11.4089 1.597 1.9962 2.997 4.2469 3.431 6.7656z" fill="#b4ba42"/><path d="m318.781 86.739c-2.524-1.3224-5.195-2.2059-7.079-2.5424-3.804-.6806-8.66-.7204-12.175 1.0771-5.126 2.621-2.912 8.3602.876 11.1731 4.762 3.5349 21.452 9.0892 24.989 1.4026 2.184-4.749-1.964-8.6746-6.611-11.1104z" fill="#fff" opacity=".3"/><path d="m389.975 204.438c-.278 2.118-1.437 4.049-2.932 5.574-5 5.095-13.479 5.556-19.905 2.446-6.425-3.111-11.016-9.126-14.159-15.536-.972-1.982-1.847-4.111-1.735-6.315.15-2.961 2.133-5.629 4.687-7.136 2.553-1.506 5.603-1.979 8.568-1.928 10.535.181 20.634 7.199 24.478 17.01.733 1.873 1.26 3.891.998 5.885z" fill="#b4ba42"/><path d="m379.025 190.64c-1.588-1.584-3.388-2.872-4.726-3.565-2.7-1.4-6.34-2.564-9.403-2.034-4.465.773-4.142 5.603-1.951 8.602 2.753 3.769 14 11.842 18.453 6.89 2.752-3.058.552-6.977-2.373-9.893z" fill="#fff" opacity=".3"/><path d="m300.513 167.779c-1.275 2.396-3.513 4.176-5.973 5.323-8.221 3.833-18.513.601-24.771-5.965-6.257-6.566-9.038-15.77-9.919-24.797-.272-2.792-.364-5.714.752-8.287 1.498-3.457 5.047-5.746 8.757-6.401 3.71-.654 7.549.143 11.053 1.526 12.453 4.914 21.339 17.766 21.539 31.153.036 2.555-.237 5.191-1.438 7.448z" fill="#b4ba42"/><path d="m293.637 146.478c-1.182-2.592-2.752-4.927-4.033-6.348-2.588-2.87-6.401-5.878-10.28-6.614-5.657-1.071-7.426 4.82-6.156 9.365 1.594 5.712 11.375 20.331 18.882 16.427 4.637-2.412 3.766-8.057 1.587-12.83z" fill="#fff" opacity=".3"/><path d="m359.054 181.306c-1.275 2.396-3.513 4.176-5.973 5.323-8.221 3.834-18.513.601-24.771-5.965-6.257-6.566-9.038-15.77-9.919-24.797-.272-2.791-.364-5.713.752-8.286 1.498-3.457 5.047-5.747 8.757-6.401 3.71-.655 7.549.142 11.053 1.526 12.454 4.914 21.34 17.766 21.539 31.152.036 2.555-.237 5.192-1.438 7.448z" fill="#b4ba42"/><path d="m352.177 160.009c-1.183-2.592-2.752-4.927-4.034-6.348-2.588-2.87-6.4-5.878-10.279-6.613-5.657-1.072-7.427 4.819-6.157 9.364 1.595 5.712 11.376 20.331 18.882 16.427 4.638-2.412 3.767-8.057 1.588-12.83z" fill="#fff" opacity=".3"/><path d="m320.033 205.562c-.824 1.548-2.27 2.698-3.86 3.439-5.31 2.476-11.96.388-16.003-3.854-4.043-4.241-5.839-10.188-6.408-16.02-.176-1.803-.235-3.691.485-5.353.969-2.233 3.261-3.713 5.658-4.136 2.397-.422 4.876.093 7.141.986 8.045 3.175 13.786 11.478 13.914 20.126.025 1.651-.152 3.354-.927 4.812z" fill="#b4ba42"/><path d="m315.588 191.801c-.764-1.674-1.778-3.183-2.605-4.101-1.673-1.854-4.136-3.797-6.642-4.272-3.655-.692-4.798 3.113-3.978 6.051 1.031 3.69 7.35 13.134 12.199 10.612 2.996-1.56 2.433-5.206 1.026-8.29z" fill="#fff" opacity=".3"/><path d="m336.256 138.335c.189 2.707-.765 5.403-2.243 7.68-4.939 7.609-15.38 10.323-24.167 8.074-8.787-2.25-16.022-8.58-21.556-15.768-1.71-2.223-3.338-4.652-3.756-7.425-.561-3.725 1.234-7.547 4.032-10.069 2.799-2.523 6.478-3.881 10.182-4.566 13.164-2.436 27.512 3.751 34.777 14.997 1.387 2.147 2.552 4.527 2.731 7.077z" fill="#d5e06f"/><path d="m319.133 123.92c-2.377-1.57-4.945-2.719-6.785-3.244-3.716-1.061-8.543-1.591-12.221-.158-5.365 2.09-3.742 8.023-.257 11.204 4.381 3.999 20.425 11.209 24.719 3.919 2.652-4.504-1.078-8.828-5.456-11.721z" fill="#fff" opacity=".3"/><path d="m410.67 227.801c-.557 1.854-1.872 3.412-3.431 4.559-5.211 3.832-12.861 3.013-18.156-.701s-8.528-9.76-10.409-15.949c-.581-1.914-1.055-3.944-.635-5.9.564-2.627 2.724-4.725 5.227-5.702s5.299-.957 7.942-.481c9.396 1.691 17.41 9.433 19.424 18.765.384 1.781.562 3.663.038 5.409z" fill="#d5e06f"/><path d="m402.878 213.87c-1.191-1.646-2.615-3.059-3.71-3.873-2.212-1.644-5.299-3.214-8.114-3.184-4.106.043-4.518 4.41-2.994 7.411 1.915 3.77 10.802 12.622 15.503 8.841 2.906-2.338 1.506-6.163-.685-9.195z" fill="#fff" opacity=".3"/><path d="m377.129 122.886c.189 2.707-.765 5.403-2.243 7.68-4.939 7.608-15.38 10.323-24.167 8.073-8.787-2.249-16.023-8.58-21.556-15.767-1.71-2.222-3.338-4.652-3.756-7.425-.561-3.725 1.234-7.548 4.032-10.07 2.799-2.522 6.478-3.88 10.182-4.565 13.164-2.4361 27.512 3.751 34.777 14.997 1.387 2.147 2.553 4.527 2.731 7.077z" fill="#d5e06f"/><path d="m360.008 108.467c-2.377-1.571-4.945-2.719-6.785-3.244-3.716-1.061-8.543-1.591-12.221-.158-5.365 2.09-3.742 8.023-.257 11.204 4.381 3.999 20.425 11.209 24.719 3.919 2.653-4.504-1.078-8.828-5.456-11.721z" fill="#fff" opacity=".3"/><path d="m329.866 185.324c-.732 1.968-2.266 3.563-4.035 4.696-5.91 3.783-14.135 2.361-19.609-2.031-5.473-4.393-8.55-11.166-10.153-17.997-.496-2.113-.866-4.344-.275-6.433.794-2.804 3.28-4.925 6.058-5.807 2.779-.883 5.805-.666 8.634.034 10.054 2.49 18.189 11.433 19.715 21.679.293 1.955.354 4.005-.335 5.859z" fill="#d5e06f"/><path d="m322.405 169.694c-1.173-1.866-2.616-3.495-3.745-4.454-2.28-1.935-5.512-3.851-8.562-4.016-4.448-.241-5.201 4.458-3.76 7.814 1.809 4.216 10.812 14.423 16.167 10.658 3.308-2.326 2.061-6.565-.1-10.002z" fill="#fff" opacity=".3"/><path d="m355.407 208.6c-.541 1.454-1.674 2.633-2.98 3.469-4.366 2.795-10.443 1.745-14.487-1.5-4.043-3.245-6.316-8.248-7.501-13.296-.366-1.56-.64-3.209-.203-4.751.587-2.072 2.423-3.638 4.476-4.291 2.052-.652 4.288-.491 6.378.026 7.428 1.839 13.437 8.446 14.565 16.015.216 1.445.261 2.959-.248 4.328z" fill="#d5e06f"/><path d="m349.895 197.055c-.867-1.379-1.933-2.582-2.767-3.291-1.684-1.428-4.072-2.844-6.325-2.966-3.286-.179-3.842 3.294-2.777 5.772 1.337 3.115 7.987 10.655 11.943 7.874 2.444-1.718 1.522-4.85-.074-7.389z" fill="#fff" opacity=".3"/><path d="m393.354 168.579c.189 2.708-.766 5.403-2.244 7.68-4.938 7.609-15.379 10.324-24.166 8.074s-16.024-8.58-21.556-15.768c-1.712-2.222-3.338-4.651-3.756-7.425-.561-3.725 1.234-7.547 4.032-10.069 2.799-2.522 6.477-3.881 10.181-4.566 13.165-2.436 27.512 3.752 34.778 14.997 1.387 2.147 2.553 4.527 2.731 7.077z" fill="#d5e06f"/><path d="m376.233 154.165c-2.378-1.571-4.945-2.72-6.785-3.245-3.716-1.061-8.543-1.591-12.222-.158-5.364 2.09-3.742 8.023-.256 11.205 4.381 3.998 20.424 11.208 24.719 3.918 2.653-4.503-1.078-8.828-5.456-11.72z" fill="#fff" opacity=".3"/><path d="m421.449 194.473c.255 1.95-.319 3.941-1.289 5.651-3.239 5.716-10.671 8.134-17.122 6.888-6.451-1.244-11.959-5.507-16.272-10.463-1.334-1.533-2.616-3.219-3.039-5.206-.568-2.669.564-5.512 2.478-7.456 1.914-1.945 4.514-3.088 7.163-3.744 9.413-2.334 20.057 1.517 25.798 9.332 1.097 1.491 2.043 3.162 2.283 4.998z" fill="#d5e06f"/><path d="m408.443 184.795c-1.788-1.032-3.694-1.751-5.048-2.051-2.732-.606-6.246-.78-8.844.417-3.787 1.744-2.357 5.964.302 8.112 3.342 2.7 15.255 7.217 18.044 1.759 1.723-3.371-1.163-6.336-4.454-8.237z" fill="#fff" opacity=".3"/><path d="m261.207 133.662s-4.364-3.159-7.905-11.337c-3.54-8.178-13.259-23.3413-27.568-25.4212l4.559-7.9331s17.344 19.9423 19.931 24.8443c2.586 4.902 9.454 15.12 14.383 14.844 4.928-.275-3.4 5.003-3.4 5.003z" fill="#95573e"/><path d="m234.779 95.2012c1.821 1.8922 3.754 3.8554 6.262 4.6316 2.145.6632 4.574.3422 6.474-.8557 1.884-1.1887 3.16-3.1063 4.426-4.9384 4.361-6.3132 9.633-12.5368 16.87-15.0851 5.138-1.8093 10.831-1.5658 16.102-.1902.811.2122 8.578 3.228 9.155 3.8359.578.6079.761 1.6707.171 2.2668-.511-1.3131-8.829-4.7914-10.158-5.2598-4.977-1.7518-10.631-1.4872-15.422.7229-2.829 1.3046-5.323 3.2348-7.666 5.2885-2.69 2.3589-5.225 4.9131-7.389 7.7632-1.22 1.6072-2.325 3.3117-3.722 4.7668-1.398 1.4551-3.148 2.6713-5.14 2.9903-1.989.32-4.038-.289-5.783-1.2968-1.744-1.0078-3.233-2.3961-4.705-3.7717.175-.2892.35-.5783.525-.8683z" fill="#95573e"/><path d="m388.756 150.743c-.278 2.118-1.437 4.048-2.932 5.573-5 5.096-13.479 5.557-19.904 2.446-6.426-3.11-11.017-9.126-14.16-15.535-.972-1.982-1.846-4.111-1.735-6.315.15-2.962 2.133-5.629 4.687-7.136 2.553-1.507 5.603-1.979 8.568-1.929 10.535.182 20.634 7.2 24.478 17.011.733 1.872 1.259 3.89.998 5.885z" fill="#b4ba42"/><path d="m377.806 136.942c-1.587-1.583-3.388-2.871-4.726-3.564-2.699-1.4-6.34-2.565-9.402-2.034-4.465.772-4.142 5.603-1.952 8.601 2.753 3.77 14 11.842 18.454 6.892 2.751-3.059.55-6.979-2.374-9.895z" fill="#fff" opacity=".3"/><path d="m381.653 245.137c-1.171 1.223-2.816 1.914-4.488 2.187-5.585.912-11.221-2.769-13.87-7.771s-2.762-11-1.765-16.571c.308-1.723.747-3.494 1.852-4.851 1.485-1.823 4.004-2.598 6.342-2.364 2.34.234 4.51 1.362 6.381 2.785 6.65 5.057 9.813 14.279 7.67 22.353-.41 1.541-1.019 3.079-2.122 4.232z" fill="#b4ba42"/><path d="m381.121 231.18c-.273-1.757-.82-3.425-1.35-4.495-1.069-2.161-2.85-4.613-5.056-5.71-3.216-1.601-5.275 1.638-5.281 4.584-.008 3.701 3.395 14.136 8.564 13.059 3.193-.666 3.624-4.204 3.123-7.438z" fill="#fff" opacity=".3"/></svg>