<svg fill="none" height="300" viewBox="0 0 340 300" width="340" xmlns="http://www.w3.org/2000/svg"><path d="m294.363 208.911c-14.568 39.286-50.311 68.917-90.416 81.414-60.35 18.805-145.6764 7.703-183.5709-48.13-36.689-54.057-19.435264-127.442 16.9682-177.177 25.5704-34.9347 65.2107-60.38231 108.3087-64.488534 100.687-9.593526 180.667 113.195534 149.904 204.997534-.38 1.136-.778 2.264-1.194 3.384z" fill="#f5dbda"/><path d="m234.755 278.423c-26.522-1.614-51.08-17.855-66.042-39.896-22.515-33.167-31.474-86.993-4.56-120.262 26.058-32.2103 73.769-35.2388 110.649-22.2949 25.906 9.0919 48.642 28.4679 59.062 53.8689 24.345 59.342-35.462 130.468-96.835 128.687-.759-.023-1.517-.057-2.274-.103z" fill="#f9ecec"/><path d="m330.766 299.999h-325.97021c-2.43276 0-4.401259-1.97-4.401259-4.4 0-2.431 1.968499-4.402 4.401259-4.402h325.97021c2.432 0 4.401 1.971 4.401 4.402 0 2.43-1.968 4.4-4.401 4.4z" fill="#b4ba42"/><path d="m186.632 77.9505-6.469-1.5401c-4.956-1.1801-8.454-5.609-8.454-10.7041v-32.1204h-39.495v32.1204c0 5.0951-3.498 9.524-8.455 10.7041l-6.468 1.5401c-31.7715 7.5646-54.1933 35.9515-54.1933 68.6115l2.8524 61.46 41.2509 62.533h89.521l41.689-63.85 2.414-60.144c0-32.659-22.422-61.0462-54.193-68.6105z" fill="#b6bff0"/><path d="m240.161 149.823-9.774-9.774c8.555-8.554 19.825-32.103 17.825-52.3032-1.084-10.9403-5.895-19.3291-14.303-24.9351-27.967-18.6385-62.486 9.6404-62.834 9.926l-8.847-10.618c1.735-1.4446 42.891-35.1156 79.348-10.8092 11.85 7.9008 18.903 20.0291 20.392 35.073 2.316 23.3995-9.515 51.1495-21.807 63.4405z" fill="#b6bff0"/><path d="m210.133 106.641c-17.27 3.888-30.643 17.271-46.539 25.06-18.734 9.178-40.466 10.284-61.223 8.202-11.5821-1.162-23.2654-3.35-34.1142-7.451-1.1613 4.952-1.7861 10.094-1.7861 15.355l2.7176 58.558 39.3027 59.581h85.294l39.721-60.835 2.299-57.304c0-15.792-5.51-30.53-14.888-42.165-3.617-.103-7.243.201-10.784.999z" fill="#de5f5f"/><path d="m60.6836 182.348s86.2304 19.531 181.0184 0l-6.527 80.646c-1.294 15.998-14.622 28.342-30.673 28.408l-104.309.427c-15.8564.065-29.1886-11.882-30.8561-27.651z" fill="#cb8e61"/><path d="m57.8893 183.57c.0253-1.995 1.8193-3.612 3.7493-4.118s3.9683-.159 5.9346.182c55.5708 9.628 112.9708 12.078 168.1908.61 4.08-.847 9.408-1.224 11.315 2.481 1.274 2.473.078 5.653-2.041 7.456s-4.929 2.53-7.655 3.089c-8.802 1.805-17.799 2.411-26.764 3.014-48.884 3.286-98.773 6.485-146.1907-5.842-2.8747-.747-6.0913-1.848-7.2711-4.574.8439-.224.7212-1.425.7321-2.298z" fill="#f9edae"/><path d="m63.65 190.165c3.6148-2.163 6.7732-5.167 9.8463-8.11.4522-.433.901-.859 1.3498-1.286-.8149-.131-1.6286-.267-2.4423-.402-.091.087-.1836.174-.275.262-3.4153 3.271-6.9337 6.629-10.995 8.673.8122.349 1.6682.624 2.5162.863z" fill="#eedcd2"/><path d="m101.173 184.426c-.916-.106-1.834-.202-2.7493-.313-5.2146 4.124-11.0589 7.512-17.2069 9.972 1.1899.221 2.3833.42 3.5755.624 5.8786-2.66 11.434-6.144 16.3807-10.283z" fill="#eedcd2"/><path d="m235.764 180.181c-.881.183-1.768.332-2.649.508-.87 1.225-1.725 2.464-2.561 3.715-2.225 3.333-4.528 6.777-7.415 9.556-.523.504-1.074.982-1.639 1.444 1.098-.098 2.194-.205 3.29-.319 2.9-2.871 5.196-6.275 7.405-9.583 1.019-1.524 2.039-3.049 3.117-4.524.215-.293.43-.552.644-.832-.062.012-.13.022-.192.035z" fill="#eedcd2"/><path d="m118.295 193.804c2.615-2.134 5.285-4.337 7.099-7.148-.762-.052-1.525-.101-2.286-.158-1.603 2.122-3.782 3.916-6.063 5.777-2.152 1.757-4.335 3.558-6.023 5.693.812.065 1.624.114 2.436.174 1.402-1.521 3.091-2.912 4.837-4.338z" fill="#eedcd2"/><path d="m210.577 193.524c3.199-2.918 6.508-5.936 9.066-9.573.214-.305.418-.626.61-.955-.902.145-1.804.297-2.708.434-2.371 3.19-5.37 5.963-8.299 8.635-1.523 1.39-3.099 2.827-4.582 4.319-.079.08-.156.169-.235.252 1.009-.067 2.018-.134 3.026-.202 1.033-.988 2.084-1.964 3.122-2.91z" fill="#eedcd2"/><path d="m199.949 186.864c.362-.426.741-.866 1.122-1.307-.951.101-1.903.196-2.855.29-3.551 4.152-7.435 8.338-11.684 11.906 1.075-.062 2.149-.124 3.222-.189 3.675-3.323 7.065-7.029 10.195-10.7z" fill="#eedcd2"/><path d="m181.173 187.174c-.753.041-1.507.071-2.26.108-2.557 4.619-7.254 8.114-12.035 11.432 1.207-.045 2.414-.097 3.622-.148 4.311-3.139 8.451-6.728 10.673-11.392z" fill="#eedcd2"/><path d="m154.842 187.794c-.952-.007-1.904.008-2.857-.005-4.336 4.084-9.284 8.265-14.769 11.368 1.26.017 2.523.009 3.785.015 5.171-3.354 9.791-7.48 13.841-11.378z" fill="#eedcd2"/><path d="m167.727 291.249c-3.525-4.299-8.68-6.96-12.48-11.02-9.922-10.599-9.994-26.769-18.528-38.293-16.29-21.998-45.9523-31.826-72.9045-32.036l5.74 54.28c1.6674 15.769 14.9996 27.716 30.8565 27.651l67.52-.277c-.076-.096-.126-.21-.204-.305z" fill="#cb8e61" opacity=".58"/><path d="m160.729 258.811c-23.841-.209-48.474-.454-72.6317 1.725l-3.0976.286c-5.255.495-10.6161.951-15.9255.87l.2633 2.487c.0041.04.0189.075.0234.115 5.3287.057 10.66-.38 15.8844-.87l3.0874-.286c24.0253-2.168 48.6013-1.934 72.3713-1.714 17.044.168 34.665.331 51.985-.388 7.392-.306 15.147-.806 22.815-2.09l.217-2.684c-7.744 1.342-15.627 1.853-23.144 2.161-17.259.715-34.844.546-51.848.388z" fill="#cb8e61"/><path d="m62.5771 200.254c28.3546 7.681 58.0599 7.546 86.8539 7.278l32.491-.281c11.492-.102 23.372-.204 34.961-2.143 3.373-.567 6.767-1.296 10.048-2 4.355-.934 8.812-1.88 13.291-2.46l.215-2.651c-4.761.584-9.466 1.572-14.057 2.559-3.251.7-6.614 1.419-9.926 1.975-11.39 1.904-23.168 2.006-34.553 2.108l-32.49.28c-28.935.267-58.8178.417-87.1278-7.446z" fill="#cb8e61"/><path d="m232.962 271.902c-16.98.786-34.535 1.596-51.8 1.8-11.62.138-23.449 0-34.885-.122-24.179-.273-49.0195-.507-73.5534 1.725.4601.872 1.0494 1.656 1.587 2.476 23.9634-2.088 48.2624-1.865 71.9414-1.588 11.456.127 23.316.26 34.941.122 16.9-.199 34.044-.98 50.663-1.753.436-.849.748-1.764 1.106-2.66z" fill="#cb8e61"/><path d="m170.532 242.823c-10.472.046-21.3.092-31.935.985-4.455.372-8.961.898-13.319 1.403-4.889.577-9.951 1.164-14.932 1.536-14.379 1.052-28.863.326-43.0784-2.135l.2837 2.68c14.2018 2.396 28.6495 3.135 42.9897 2.058 5.036-.372 10.124-.964 15.043-1.541 4.333-.505 8.818-1.031 13.228-1.398 10.532-.883 21.31-.929 31.73-.975l66.078-.282.212-2.615z" fill="#cb8e61"/><path d="m65.8834 217.436c6.6085 1.398 13.4467 2.837 20.351 3.613 8.3231.939 16.6816.883 24.7446.852 21.504-.097 43.014-.235 64.518-.408 20.985-.177 42.65-.407 63.531-6.095l.223-2.755c-20.829 5.844-42.651 6.061-63.775 6.237-21.504.173-43.003.311-64.508.408-8.011.036-16.2783.077-24.4432-.832-6.7818-.765-13.5535-2.194-20.1008-3.572l-2.3527-.496.2886 2.726z" fill="#cb8e61"/><path d="m122.589 236.934c6.461-.168 13.181-.332 19.667-.296 4.705.031 9.41.169 14.121.312 12.839.372 26.102.775 39.053-1.159 3.424-.51 6.859-1.189 10.186-1.847 3.475-.684 7.068-1.393 10.62-1.908 7.109-1.026 14.347-1.262 21.51-.785l.211-2.603c-7.375-.491-14.8-.25-22.094.805-3.618.521-7.246 1.235-10.752 1.929-3.296.648-6.705 1.322-10.068 1.827-12.717 1.893-25.873 1.5-38.589 1.128-4.726-.143-9.456-.281-14.177-.312-6.527-.03-13.262.133-19.754.296-18.919.477-38.402.906-56.7437-3.796l.2931 2.773c18.4161 4.539 37.7706 4.109 56.5166 3.636z" fill="#cb8e61"/><path d="m169.193 14.1172h-35.477c-.304 0-.551.2467-.551.5508v46.3633c0 .3041.247.5508.551.5508h35.477c.304 0 .55-.2467.55-.5508v-46.3633c0-.3045-.246-.5508-.55-.5508z" fill="#cb8e61"/><path d="m176.273 39.1797h-48.516c-.144 0-.262.1178-.262.2618v6.7172c0 .144.118.2618.262.2618h48.516c.144 0 .262-.1178.262-.2618v-6.7172c0-.144-.118-.2618-.262-.2618z" fill="#dce2fd"/><g fill="#b83535"><path d="m188.25 174.802c1.323 0 2.395-1.073 2.395-2.395 0-1.323-1.072-2.395-2.395-2.395-1.322 0-2.395 1.072-2.395 2.395 0 1.322 1.073 2.395 2.395 2.395z"/><path d="m195.029 163.858c2.255-.366 3.787-2.491 3.421-4.746-.366-2.256-2.491-3.787-4.746-3.421-2.256.366-3.787 2.491-3.421 4.746s2.491 3.787 4.746 3.421z"/><path d="m171.377 149.98c1.984 0 3.592-1.609 3.592-3.593s-1.608-3.592-3.592-3.592-3.593 1.608-3.593 3.592 1.609 3.593 3.593 3.593z"/><path d="m160.927 180.463c1.623 0 2.939-1.316 2.939-2.94 0-1.623-1.316-2.939-2.939-2.939-1.624 0-2.94 1.316-2.94 2.939 0 1.624 1.316 2.94 2.94 2.94z"/><path d="m215.921 138.955c5.91-1.396 9.57-7.318 8.174-13.228-1.395-5.91-7.317-9.569-13.227-8.174-5.91 1.396-9.57 7.318-8.174 13.228 1.395 5.91 7.317 9.569 13.227 8.174z"/><path d="m216.665 171.754c1.864 0 3.375-1.511 3.375-3.375s-1.511-3.375-3.375-3.375-3.375 1.511-3.375 3.375 1.511 3.375 3.375 3.375z"/><path d="m151.673 160.649c0-.841-.683-1.524-1.525-1.524-.841 0-1.524.682-1.524 1.524s.682 1.524 1.524 1.524 1.525-.682 1.525-1.524z"/><path d="m138.622 174.181c2.574-.607 4.169-3.187 3.561-5.762-.608-2.574-3.188-4.169-5.763-3.561-2.574.608-4.168 3.188-3.56 5.763.607 2.574 3.187 4.168 5.762 3.56z"/><path d="m119.012 175.454c1.804 0 3.266-1.462 3.266-3.266s-1.462-3.266-3.266-3.266-3.266 1.462-3.266 3.266 1.462 3.266 3.266 3.266z"/><path d="m150.584 142.251c0-.541-.439-.98-.98-.98s-.98.439-.98.98.439.98.98.98.98-.438.98-.98z"/><path d="m92.3496 170.957c.9434-2.278-.1381-4.889-2.4157-5.833-2.2775-.943-4.8887.139-5.8321 2.416-.9434 2.278.1381 4.889 2.4157 5.832 2.2776.944 4.8887-.138 5.8321-2.415z"/><path d="m77.753 156.293c1.5032 0 2.7217-1.218 2.7217-2.722 0-1.503-1.2185-2.721-2.7217-2.721s-2.7218 1.218-2.7218 2.721c0 1.504 1.2186 2.722 2.7218 2.722z"/><path d="m104.861 146.822c0-.901-.731-1.633-1.633-1.633s-1.633.731-1.633 1.633c0 .903.731 1.634 1.633 1.634s1.633-.731 1.633-1.634z"/><path d="m111.827 158.253c3.247 0 5.879-2.632 5.879-5.878 0-3.247-2.632-5.879-5.879-5.879s-5.879 2.632-5.879 5.879c0 3.246 2.632 5.878 5.879 5.878z"/><path d="m103.336 177.304c0-.782-.633-1.415-1.415-1.415s-1.415.633-1.415 1.415c0 .781.633 1.415 1.415 1.415.781 0 1.415-.634 1.415-1.415z"/><path d="m183.244 129.95c0-.361-.293-.653-.653-.653-.361 0-.653.292-.653.653s.292.653.653.653c.36 0 .653-.292.653-.653z"/><path d="m189.557 140.835c1.804 0 3.266-1.462 3.266-3.266s-1.462-3.266-3.266-3.266-3.266 1.462-3.266 3.266 1.462 3.266 3.266 3.266z"/></g><path d="m149.694 96.9998c-4.456-5.8224-11.506-9.7734-19.774-10.7941-8.993-1.1106-18.205 1.3343-26.077 5.8198-17.8374 10.1625-35.5717 39.1415-23.2224 59.1555 4.1576 6.738 11.4925 10.317 19.0677 11.746 26.2527 4.951 49.6167-21.474 54.4867-45.111 1.654-8.027-.236-15.27-4.481-20.8162z" fill="#fff" opacity=".44"/><path d="m203.664 203.57c15.784 1.899 50.563 9.456 74.127 30.381s30.277 38.663 30.277 38.663-13.199 18.023-23.895 20.416l-88.105-50.323-14.872-14.208-4.076-11.073 4.014-9.73s8.327-2.874 10.815-3.44c2.489-.566 11.715-.686 11.715-.686z" fill="#334a59"/><path d="m305.197 273.702c-.051-.005-.102-.018-.153-.04-.85-.364-85.221-36.373-93.635-35.518-8.368.825-11.939 3.838-11.973 3.867-.185.163-.49.157-.68-.012-.19-.168-.193-.435-.008-.597.151-.131 3.803-3.238 12.526-4.099 8.681-.86 90.685 34.112 94.171 35.602.242.102.348.356.237.566-.087.165-.287.254-.485.231z" fill="#3c251d"/><path d="m211.293 238.142c-.205-.023-.383-.163-.424-.352-4.423-20.094-6.234-30.58-5.389-31.165.206-.142.509-.108.677.077.141.155.142.366.019.514-.441 1.505 3.214 19.42 5.637 30.439.052.23-.119.447-.381.484-.046.009-.094.008-.139.003z" fill="#3c251d"/><path d="m201.93 252.286c17.241 6.767 50.532 27.525 69.902 27.743 19.369.219 16.392-13.416 9.843-24.063-6.549-10.646-16.284-61.547-34.408-61.342-18.125.205-36.387 32.932-44.617 37.09s-18.977 13.406-.72 20.572z" fill="#fff"/><path d="m246.235 249.255c-3.592-2.53-10.718-29.44-23.954-32.429-1.737-.392-3.905-.102-6.347.681-5.621 6.648-10.329 12.567-13.523 14.18-8.23 4.159-18.978 13.407-.72 20.573 13.517 5.305 36.9 19.208 55.705 25.072 1.852-.455 3.245-1.025 4.03-1.738 8.108-7.354-11.599-23.81-15.191-26.339z" fill="#fff9e7"/><path d="m228.96 254.084c-15.079-6.538-52.955-27.073-49.907-36.014 0 0-.697-4.392 5.211-9.45 5.907-5.059 19.401-5.047 19.401-5.047-3.147-.039-13.366.286-16.238-.041-2.872-.326-80.426-46.394-80.426-46.394-9.7657-1.534-10.2266 6.796-10.2266 6.796l79.3516 48.394s-.242 2.838-.36 4.946c-.778 6.137 15.619 34.665 17.344 36.558 1.724 1.894 59.014 31.105 91.065 39.2 0 0-39.965-32.336-55.215-38.948z" fill="#49647a"/><path d="m246.158 207.23c.092-.81-.584-1.552-1.509-1.657s-1.75.466-1.842 1.276.584 1.552 1.509 1.657 1.75-.466 1.842-1.276z" fill="#fbece2"/><path d="m254.589 225.588c.058-.506-.365-.97-.943-1.035-.577-.066-1.093.291-1.151.798-.057.506.365.969.943 1.035.578.065 1.094-.292 1.151-.798z" fill="#fbece2"/><path d="m231.627 210.035c.058-.506-.364-.969-.942-1.035-.579-.066-1.094.292-1.151.798-.058.506.364.97.942 1.035.578.066 1.094-.291 1.151-.798z" fill="#fbece2"/><path d="m264.428 221.402c.093-.81-.583-1.552-1.508-1.657-.926-.105-1.751.466-1.842 1.276-.092.811.583 1.552 1.508 1.657.926.105 1.751-.466 1.842-1.276z" fill="#fbece2"/><path d="m253.552 242.447c.093-.81-.583-1.552-1.508-1.657s-1.75.466-1.842 1.276.583 1.552 1.508 1.657c.926.105 1.751-.466 1.842-1.276z" fill="#fbece2"/><path d="m248.475 214.177c.109-.961-.693-1.842-1.792-1.967-1.098-.125-2.078.554-2.187 1.516-.109.961.693 1.842 1.792 1.967s2.078-.554 2.187-1.516z" fill="#fbece2"/><path d="m271.6 240.039c.109-.962-.693-1.843-1.792-1.968-1.098-.124-2.078.554-2.187 1.516s.693 1.843 1.792 1.967c1.098.125 2.078-.553 2.187-1.515z" fill="#fbece2"/><path d="m44.3541 239.634c-.2123.204-.397.416-.5629.611-1.5352 1.813-2.7425 3.854-3.5891 6.072l-.428 1.12 1.1986-.026c2.1283-.05 4.2355.878 5.6355 2.48 1.2923 1.479 1.9348 3.477 1.7637 5.429-5.085 1.533-10.5455 2.117-15.8266 1.689l-.3966-.031-.2678.295c-1.4453 1.607-2.5593 3.543-3.2238 5.598-.2588.806-.4545 1.636-.6479 2.466-.3846 1.65-.7494 3.208-1.6183 4.502-1.3826 2.07-3.878 3.158-6.607 4.084.0095-.124.0344-.248.0733-.366l-1.5265-.512c-.2425.725-.2112 1.545.0865 2.249l.2893.679.7027-.229c3.342-1.089 6.4963-2.287 8.3201-5.008 1.032-1.538 1.4472-3.315 1.8491-5.033.1836-.786.3665-1.575.6132-2.336.5541-1.718 1.46-3.342 2.631-4.721 5.5296.394 11.2361-.275 16.5273-1.942l.4748-.15.0794-.492c.4076-2.569-.371-5.271-2.0837-7.23-1.4453-1.656-3.5083-2.723-5.6838-2.976.7419-1.65 1.7082-3.183 2.8815-4.569.2407-.281.504-.572.7998-.775.3804-.256.8715-.391 1.3897-.534l6.8805-1.898c2.1691-.598 4.4119-1.218 6.6376-1.037.2886.024.6082.067.7892.201.1575.119.2878.373.4177.645 1.38 2.893 2.2005 5.98 2.437 9.174l.0827.343c-1.9201 1.868-3.9566 3.713-6.2099 5.176l-.5788.369c-.9606.603-1.9541 1.226-2.7361 2.149-1.8578 2.168-1.939 5.191-1.8657 8.103l.1945 7.372c.1077 4.169.23 8.894-1.6508 12.861l-.255.535.4352.402c.4091.379.598 1.019.4571 1.559l-.3101 1.186 1.211-.187c2.2828-.35 4.5622-.868 6.7751-1.537 1.2497-.378 2.6829-.862 3.8792-1.808 2.5865-2.064 3.2235-5.465 3.7977-8.487l.1004-.53c1.1088-5.796 3.2366-9.676 6.3226-11.53.3743 2.306 1.7501 4.297 3.087 6.233.275.399.5493.796.8122 1.194.9678 1.462 3.0262 5.141 1.2353 7.715l1.3221.921c2.3553-3.385-.0646-7.789-1.2145-9.526-.2682-.406-.5477-.811-.8295-1.219-1.4363-2.078-2.9201-4.227-2.9008-6.581l.0109-1.239-1.1374.495c-4.1595 1.811-6.9542 6.264-8.2895 13.233l-.1028.534c-.5455 2.88-1.1034 5.861-3.214 7.523-.9746.773-2.2385 1.195-3.3458 1.53-1.8241.552-3.6937.997-5.5723 1.326-.065-.552-.2716-1.086-.6003-1.538 1.8178-4.194 1.6954-8.92 1.587-13.107l-.1945-7.373c-.0688-2.705-.0095-5.278 1.4785-7.013.6312-.742 1.4748-1.269 2.3723-1.835l.5954-.379c2.7667-1.801 5.1364-4.095 7.4313-6.316l-.6354-.67.0612-.004c-.252-3.394-1.1231-6.675-2.5915-9.749-.2096-.439-.4525-.898-.9002-1.238-.5115-.383-1.1102-.476-1.6289-.519-2.5098-.203-5 .483-7.197 1.089l-6.8794 1.899c-.5908.163-1.2613.348-1.8563.748-.2081.141-.3974.298-.5677.461z" fill="#a8542e"/><path d="m91.5948 262.414c2.8589-4.736 4.2536-10.343 3.9461-15.867-.0208-.371-.0529-.756-.2365-1.079-.2739-.482-.8368-.734-1.3856-.814-2.6882-.392-4.6495 2.39-5.9161 4.794-1.1136 2.113-2.2276 4.226-3.3413 6.339-1.2213 2.317-2.5702 4.766-4.8795 6.002-.1957-.526-.3917-1.053-.5874-1.58 3.2219-1.647 5.2112-5.426 4.7454-9.014-2.0402 1.115-4.0805 2.23-6.1208 3.345 3.4981-4.338 10.7722-5.307 12.5238-10.598.1806-.546.2882-1.137.1503-1.695-.2636-1.065-1.3787-1.742-2.4705-1.848-1.0917-.107-2.1721.235-3.2155.573-3.6873 1.194-7.3745 2.387-11.0622 3.581-.3415-.555.3286-1.175.9108-1.468 6.2825-3.162 13.6268-4.166 20.5273-2.805.5852-.933-.4072-2.038-1.2953-2.688-3.3348-2.442-6.6693-4.883-10.0042-7.325-1.8789-1.375-3.8675-2.796-6.1778-3.088-1.3822-.175-3.2748-.297-3.4674-1.677 4.6672-1.084 9.2962 1.74 13.0382 4.732 3.7425 2.992 7.5847 6.443 12.3535 6.909 6.0599.593 11.3379-3.78 17.0549-5.877 2.91-1.068 6.033-1.553 9.13-1.419.278.013.571.034.8.193.228.157.352.422.456.678 1.035 2.538 1.068 5.469.091 8.031-.676-2.373-1.584-5.025-3.831-6.046-.979-.445-2.094-.504-3.166-.402-4.519.431-8.31 3.5-12.595 5.001-2.254.79-4.713 1.175-6.658 2.56-2.6947 1.92-3.8371 5.361-4.3036 8.636-.4665 3.276-.434 6.66-1.5137 9.787-.6112 1.769-1.7233 3.543-3.4999 4.129z" fill="#a8542e"/><path d="m58.9505 242.746c5.7245-.739 9.7661-5.978 9.0273-11.703-.7387-5.724-5.9782-9.766-11.7026-9.027-5.7245.739-9.7661 5.978-9.0274 11.702.7388 5.725 5.9783 9.767 11.7027 9.028z" fill="#6f7bbd"/><path d="m60.5398 240.716c2.7844-.133 4.9338-2.498 4.8009-5.283-.133-2.784-2.498-4.934-5.2824-4.801-2.7845.133-4.9339 2.498-4.8009 5.283.1329 2.784 2.4979 4.934 5.2824 4.801z" fill="#fff" opacity=".3"/><path d="m60.3412 272.607c3.3552-4.696 2.2678-11.223-2.4287-14.579-4.6965-3.355-11.2236-2.267-14.5787 2.429-3.3551 4.697-2.2678 11.224 2.4287 14.579s11.2236 2.268 14.5787-2.429z" fill="#6f7bbd"/><path d="m59.3686 270.937c.6275-2.716-1.0655-5.426-3.7814-6.054-2.7159-.627-5.4261 1.066-6.0536 3.782-.6275 2.715 1.0655 5.426 3.7814 6.053 2.7158.628 5.4261-1.065 6.0536-3.781z" fill="#fff" opacity=".3"/><path d="m56.813 292.856c3.2741-3.493 3.0959-8.98-.3979-12.254-3.4939-3.274-8.9803-3.096-12.2544.398s-3.0959 8.98.3979 12.254c3.4939 3.274 8.9804 3.096 12.2544-.398z" fill="#6f7bbd"/><path d="m52.5452 285.438c2.3111-.075 4.2456 1.737 4.3208 4.049.0752 2.311-1.7373 4.245-4.0488 4.32-2.3111.076-4.2456-1.737-4.3208-4.048-.0752-2.312 1.7377-4.246 4.0488-4.321z" fill="#fff" opacity=".3"/><path d="m24.0152 275.989c.1853-4.784-3.5429-8.813-8.3271-8.998-4.7842-.186-8.8128 3.543-8.9981 8.327-.18529 4.784 3.5429 8.813 8.3271 8.998s8.8128-3.543 8.9981-8.327z" fill="#6f7bbd"/><path d="m17.4846 274.221c2.3112-.075 4.2457 1.738 4.3208 4.049.0752 2.311-1.7373 4.245-4.0488 4.321-2.3111.075-4.2456-1.738-4.3208-4.049-.0748-2.311 1.7377-4.246 4.0488-4.321z" fill="#fff" opacity=".3"/><path d="m100.017 269.025c3.385-3.386 3.385-8.875 0-12.261-3.386-3.385-8.8752-3.385-12.2608 0-3.3856 3.386-3.3856 8.875 0 12.261 3.3856 3.385 8.8748 3.385 12.2608 0z" fill="#6f7bbd"/><path d="m95.9671 261.451c2.3111-.075 4.2459 1.738 4.3209 4.049s-1.7374 4.246-4.0489 4.321c-2.3112.075-4.2457-1.737-4.3208-4.049-.0752-2.311 1.7377-4.245 4.0488-4.321z" fill="#fff" opacity=".3"/><path d="m94.6596 285.717c2.6434-4.684.9892-10.624-3.6948-13.268-4.6839-2.643-10.6239-.989-13.2673 3.695s-.9893 10.624 3.6947 13.267c4.6839 2.644 10.6239.99 13.2674-3.694z" fill="#6f7bbd"/><path d="m89.1911 288.77c2.5792-.308 4.4209-2.648 4.1133-5.227-.3075-2.579-2.6478-4.421-5.227-4.114-2.5793.308-4.4209 2.648-4.1133 5.228.3075 2.579 2.6477 4.42 5.227 4.113z" fill="#fff" opacity=".3"/><path d="m77.5578 287.424c3.3014-4.735 2.1396-11.249-2.5949-14.551-4.7346-3.301-11.2491-2.139-14.5505 2.595-3.3015 4.735-2.1397 11.249 2.5949 14.551 4.7345 3.301 11.249 2.139 14.5505-2.595z" fill="#49647a"/><path d="m71.6126 289.76c2.7875 0 5.0473-2.259 5.0473-5.047 0-2.787-2.2598-5.047-5.0473-5.047s-5.0472 2.26-5.0472 5.047c0 2.788 2.2597 5.047 5.0472 5.047z" fill="#fff" opacity=".3"/><path d="m77.1011 231.952c2.8141-3.115 2.5704-7.921-.5442-10.735-3.1147-2.814-7.9209-2.571-10.735.544-2.8141 3.114-2.5704 7.921.5442 10.735 3.1147 2.814 7.9209 2.57 10.735-.544z" fill="#49647a"/><path d="m74.4265 232.819c1.9455-.57 3.0609-2.609 2.4913-4.554-.5697-1.946-2.6087-3.061-4.5543-2.492-1.9455.57-3.0609 2.609-2.4912 4.554.5696 1.946 2.6086 3.061 4.5542 2.492z" fill="#fff" opacity=".3"/><path d="m45.3091 286.87c3.889-4.265 3.5839-10.876-.6814-14.765s-10.8757-3.584-14.7647.682c-3.889 4.265-3.584 10.875.6814 14.764 4.2653 3.889 10.8757 3.584 14.7647-.681z" fill="#49647a"/><path d="m44.5897 285.659c1.3843-2.419.545-5.503-1.8745-6.887-2.4196-1.384-5.5032-.545-6.8875 1.874-1.3842 2.42-.545 5.504 1.8746 6.888 2.4195 1.384 5.5031.545 6.8874-1.875z" fill="#fff" opacity=".3"/><path d="m80.1465 267.29c4.0812-4.081 4.0812-10.698 0-14.779s-10.6981-4.081-14.7793 0-4.0812 10.698 0 14.779 10.6981 4.081 14.7793 0z" fill="#6f7bbd"/><path d="m79.829 265.739c1.3843-2.419.545-5.503-1.8745-6.887-2.4196-1.384-5.5032-.545-6.8875 1.874-1.3843 2.42-.545 5.504 1.8746 6.888 2.4195 1.384 5.5031.545 6.8874-1.875z" fill="#fff" opacity=".3"/><path d="m38.1417 266.606c3.3015-4.735 2.1397-11.25-2.5949-14.551-4.7345-3.301-11.249-2.14-14.5504 2.595-3.3015 4.735-2.1397 11.249 2.5948 14.55 4.7346 3.302 11.2491 2.14 14.5505-2.594z" fill="#6f7bbd"/><path d="m32.1986 268.942c2.7875 0 5.0472-2.26 5.0472-5.047 0-2.788-2.2597-5.047-5.0472-5.047s-5.0472 2.259-5.0472 5.047c0 2.787 2.2597 5.047 5.0472 5.047z" fill="#fff" opacity=".3"/><path d="m72.5633 251.911c3.7229-2.334 4.8486-7.244 2.5143-10.967s-7.2446-4.849-10.9675-2.514c-3.7229 2.334-4.8486 7.244-2.5144 10.967 2.3343 3.723 7.2447 4.849 10.9676 2.514z" fill="#49647a"/><path d="m70.2689 243.863c2.1211-.068 3.8966 1.595 3.9657 3.716.0688 2.122-1.5949 3.897-3.716 3.966s-3.8966-1.594-3.9657-3.716c-.0692-2.121 1.5945-3.897 3.716-3.966z" fill="#fff" opacity=".3"/><path d="m59.0456 259.573c3.9046-4.251 3.6243-10.861-.626-14.766s-10.8612-3.624-14.7658.626c-3.9045 4.25-3.6243 10.861.626 14.766 4.2504 3.904 10.8612 3.624 14.7658-.626z" fill="#49647a"/><path d="m54.0374 260.864c2.7876 0 5.0473-2.26 5.0473-5.047 0-2.788-2.2597-5.047-5.0473-5.047-2.7875 0-5.0472 2.259-5.0472 5.047 0 2.787 2.2597 5.047 5.0472 5.047z" fill="#fff" opacity=".3"/><path d="m46.7467 243.868c1.4313-4.5-1.0562-9.309-5.5561-10.74-4.5-1.431-9.3082 1.056-10.7396 5.556-1.4313 4.5 1.0563 9.308 5.5562 10.74 4.4999 1.431 9.3082-1.057 10.7395-5.556z" fill="#6f7bbd"/><path d="m43.9756 246.72c1.5012-1.718 1.3261-4.327-.391-5.828-1.7172-1.501-4.3262-1.326-5.8274.391-1.5012 1.718-1.3261 4.327.3911 5.828s4.3262 1.326 5.8273-.391z" fill="#fff" opacity=".3"/><path d="m73.2886 186.214c.5556 1.251 1.2938 2.421 2.1838 3.462.4457-4.711.8915-9.422 1.3376-14.133 4.5233 3.67 11.5885 2.695 16.0857 6.396-.3294-1.081-.6592-2.163-.9889-3.245 3.3337 1.539 6.0165 4.435 7.2975 7.876-.1039-1.58-.445-3.145-1.0071-4.625 5.1178 4.779 5.4768 12.577 6.5138 19.502.081.539.184 1.112.56 1.507.838.878 2.452.196 2.939-.915s.24-2.387.091-3.591c-.83-6.699 1.918-13.738 7.068-18.103.04 1.97.081 3.94.122 5.91.526-1.287 1.051-2.575 1.576-3.862 1.177 7.878 13.429 10.007 14.894 17.837-.066-1.304-.131-2.608-.196-3.913 1.854 3.581 2.742 7.657 2.544 11.684.195-.529.39-1.059.584-1.588.739 3.322-.158 6.968-2.352 9.569.693-.004 1.385-.009 2.078-.013-1.73 2.93-3.546 5.955-6.348 7.887-2.802 1.931-6.889 2.444-9.495.255-1.494-1.255-2.581-3.355-4.528-3.487-1.797-.122-3.263 1.79-3.144 3.588.12 1.797 1.427 3.328 2.956 4.279-1.505-1.14-3.539-1.797-5.307-1.133s-2.891 2.989-1.865 4.575c1.132 1.749 3.716 1.542 5.623 2.38 2.931 1.287 3.964 5.298 2.648 8.217-1.315 2.919-4.388 4.737-7.526 5.371-3.138.633-6.382.262-9.5613-.112.7771-.163 1.4926-.607 1.9833-1.231-2.6281.185-5.292-.146-7.7947-.97.6547-.079 1.278-.396 1.7283-.878-2.3248-1.429-5.2074-1.924-7.8755-1.35 1.1366-1.601 2.2729-3.202 3.4092-4.804-2.92.164-5.9867.07-8.5558-1.328-4.5951-2.499-6.1688-8.221-7.2212-13.345-1.0525-5.124-2.4022-10.84-6.8303-13.625 2.2847.057 4.5263 1.118 6.02 2.847-.4666-.964-.9331-1.929-1.3996-2.894 2.0149-.178 4.0918.537 5.5704 1.917-.2391-.497-.1515-1.133.2127-1.548 2.4592.719 4.6672 2.269 6.179 4.337.9534 1.306 1.9012 2.978 3.5139 3.084 2.0493.135 3.2241-2.663 2.381-4.536-.8432-1.873-2.8173-2.923-4.6563-3.837-2.6511-1.318-5.3018-2.635-7.9525-3.953.7423-.029 1.485-.059 2.2276-.089-2.2446-1.017-4.2758-2.502-5.9251-4.333 1.3667.31 2.7761.434 4.1761.366-4.2471-3.518-4.2894-9.899-3.9736-15.405z" fill="#b4ba42"/><path d="m112.464 215.646c.674-.373 1.406-.62 2.152-.626.204-.002.313.279.097.368-1.235.508-2.354.906-3.41 1.658-1.574 2.088-2.622 4.459-2.256 7.657.354.308.705.616 1.076.919.124.1-.025.293-.153.196-.341-.264-.658-.543-.989-.813-.087.063-.222.061-.272-.062-.029-.072-.042-.144-.068-.217-.215-.178-.438-.351-.649-.532.019.105-.089.201-.207.131-3.747-2.242-6.654 2.058-9.4134 3.38-.034.016-.0706.027-.1042.042-.7948 1.499-1.4975 2.996-2.1317 4.602-.0639.161-.2932.081-.2803-.079.1137-1.411.635-2.854 1.3985-4.11-1.3033.461-2.6957.704-4.0625.754-.3097.012-.6168-.012-.9255-.021-.9017.576-2.0705.738-2.945 1.441-1.3467 1.081-1.9447 2.644-2.9782 3.96-.1092.139-.3952.048-.3415-.146.3762-1.363 1.3154-2.727 2.3123-3.714.4676-.463.9825-.863 1.5646-1.171.3793-.2.7914-.321 1.205-.437-3.9328-.409-7.699-2.285-10.7256-4.743-.1572-.127-.0023-.427.1881-.318 2.9567 1.688 5.8779 3.584 9.2917 4.198 4.2917.773 7.3395-.646 10.5757-2.675-2.5253-.223-5.3169-1.656-7.0301-3.362-.1703-.169.0224-.421.229-.294 1.2526.77 2.4739 1.575 3.8357 2.143 1.1718.49 2.4075.716 3.6044 1.105.31-.199.617-.396.933-.603 1.804-1.183 3.642-1.843 5.35-.667-2.144-1.918-4.056-3.991-5.761-6.229-3.2209-1.543-6.3245-2.69-7.8941-6.154-.0695-.153.1514-.276.2523-.145 1.2168 1.572 2.3723 2.95 4.1232 3.945.9762.554 1.9786 1.058 2.9626 1.597-1.8992-2.601-3.5507-5.407-4.9624-8.462-.9595-2.076-1.8525-4.134-2.783-6.164-3.3231-3.4-8.0617-4.81-12.1056-7.225-.1303-.077-.0011-.274.1311-.221 2.9703 1.178 5.9867 2.636 8.7594 4.233.9573.551 1.8567 1.176 2.6202 1.929-1.2137-2.574-2.5261-5.098-4.1641-7.544-3.0054-4.49-6.4124-8.696-9.3827-13.216-.1152-.176.1254-.364.2603-.199 2.9061 3.55 5.8031 7.166 8.4191 10.958-.7812-2.685-1.5107-5.425-2.106-8.137-.0291-.133.1775-.181.227-.06 1.2051 2.93 2.3213 6.251 2.7044 9.415 1.7954 2.698 3.4259 5.495 4.8013 8.43-.0355-1.579.0782-3.159-.0665-4.739-.193-2.11-.7586-4.13-1.2878-6.175-.0397-.154.198-.199.2599-.068.8606 1.821 1.3059 3.725 1.522 5.725.2176 2.016-.0978 3.943-.0986 5.933.0106.024.0231.046.0333.069 1.4649 3.258 2.8717 6.364 4.4167 9.316-.9833-4.703.2947-10.673 1.3335-14.908.0431-.176.2935-.143.2795.04-.3962 5.153-2.1472 11.193-.8311 16.324 2.4811 4.503 5.3861 8.625 9.4781 12.325-.756-2.674.252-5.334 1.891-7.591.774-1.066 1.627-2.021 2.497-2.942.625-2.026.259-4.299.53-6.412.02-.163.274-.163.29.003.166 1.698.162 3.49.034 5.194-.009.121-.028.241-.041.361 2.005-2.074 4.013-4.08 5.33-6.886.091-.193.436-.12.378.106-1.048 4.064-4.319 6.675-6.921 9.61z" fill="#000" opacity=".21"/></svg>