<svg width="330" height="293" viewBox="0 0 330 293" fill="none" xmlns="http://www.w3.org/2000/svg">
<path d="M286.187 203.107C272.023 241.301 237.273 270.109 198.281 282.259C139.608 300.541 56.652 289.747 19.8101 235.466C-15.8598 182.911 0.914702 111.565 36.3069 63.2115C61.1671 29.2475 99.7064 4.50689 141.607 0.514755C239.498 -8.81223 317.256 110.565 287.348 199.816C286.978 200.921 286.591 202.018 286.187 203.107Z" fill="#E1D3EC"/>
<path d="M228.236 270.69C202.45 269.121 178.574 253.331 164.027 231.902C142.138 199.657 133.428 147.327 159.595 114.982C184.928 83.6665 231.314 80.7222 267.17 93.3064C292.356 102.146 314.461 120.984 324.592 145.678C348.26 203.371 290.114 272.522 230.446 270.79C229.708 270.768 228.971 270.735 228.236 270.69Z" fill="#F8F0FF"/>
<path d="M244.584 264.273L253.277 284.558H241.24L229.723 272.15L244.584 264.273Z" fill="#C28B69"/>
<path d="M162.627 264.273L153.933 284.558H165.97L177.487 272.15L162.627 264.273Z" fill="#C28B69"/>
<path d="M202.773 282.282C236.67 282.282 264.148 254.803 264.148 220.907C264.148 187.011 236.67 159.533 202.773 159.533C168.877 159.533 141.398 187.011 141.398 220.907C141.398 254.803 168.877 282.282 202.773 282.282Z" fill="#D9A27F"/>
<mask id="mask0_1279_35224" style="mask-type:luminance" maskUnits="userSpaceOnUse" x="155" y="173" width="96" height="96">
<path d="M236.499 254.637C255.128 236.008 255.128 205.805 236.499 187.176C217.87 168.547 187.666 168.547 169.037 187.176C150.408 205.805 150.408 236.008 169.037 254.637C187.666 273.266 217.87 273.266 236.499 254.637Z" fill="white"/>
</mask>
<g mask="url(#mask0_1279_35224)">
<path d="M251.368 153.777H153.802V282.884H251.368V153.777Z" fill="#D9A27F"/>
<g opacity="0.28">
<path d="M251.35 153.66H234.673V282.556H251.35V153.66Z" fill="black"/>
</g>
<g opacity="0.1">
<path d="M218.481 153.66H202.08V282.556H218.481V153.66Z" fill="black"/>
</g>
<g opacity="0.28">
<path d="M170.125 153.736H153.81V282.632H170.125V153.736Z" fill="black"/>
</g>
<g opacity="0.1">
<path d="M186.519 153.66H170.118V282.556H186.519V153.66Z" fill="black"/>
</g>
</g>
<path d="M202.775 277.232C171.719 277.232 146.453 251.967 146.453 220.911C146.453 189.855 171.719 164.59 202.775 164.59C233.831 164.59 259.097 189.855 259.097 220.911C259.097 251.967 233.831 277.232 202.775 277.232ZM202.775 169.94C174.669 169.94 151.803 192.805 151.803 220.911C151.803 249.017 174.669 271.882 202.775 271.882C230.881 271.882 253.747 249.017 253.747 220.911C253.747 192.805 230.881 169.94 202.775 169.94Z" fill="#DCE2FD"/>
<g opacity="0.41">
<path d="M171.371 236.635C171.371 210.257 192.741 188.873 219.102 188.873C227.86 188.873 236.061 191.245 243.117 195.365C234.653 182.017 219.764 173.15 202.797 173.15C176.435 173.15 155.065 194.534 155.065 220.912C155.065 238.526 164.601 253.902 178.782 262.182C174.096 254.793 171.371 246.035 171.371 236.635Z" fill="#D9A27F"/>
</g>
<path d="M121.534 264.273L130.228 284.558H118.191L106.674 272.15L121.534 264.273Z" fill="#C28B69"/>
<path d="M39.5793 264.273L30.8857 284.558H42.9229L54.4399 272.15L39.5793 264.273Z" fill="#C28B69"/>
<path d="M79.7273 282.282C113.624 282.282 141.102 254.803 141.102 220.907C141.102 187.011 113.624 159.533 79.7273 159.533C45.831 159.533 18.3525 187.011 18.3525 220.907C18.3525 254.803 45.831 282.282 79.7273 282.282Z" fill="#D9A27F"/>
<mask id="mask1_1279_35224" style="mask-type:luminance" maskUnits="userSpaceOnUse" x="32" y="173" width="96" height="96">
<path d="M113.453 254.637C132.082 236.008 132.082 205.805 113.453 187.176C94.824 168.547 64.6205 168.547 45.9915 187.176C27.3625 205.805 27.3625 236.008 45.9915 254.637C64.6205 273.266 94.8241 273.266 113.453 254.637Z" fill="white"/>
</mask>
<g mask="url(#mask1_1279_35224)">
<path d="M128.322 153.777H30.7559V282.884H128.322V153.777Z" fill="#D9A27F"/>
<g opacity="0.28">
<path d="M128.302 153.66H111.625V282.556H128.302V153.66Z" fill="black"/>
</g>
<g opacity="0.1">
<path d="M95.4355 153.66H79.0342V282.556H95.4355V153.66Z" fill="black"/>
</g>
<g opacity="0.28">
<path d="M47.0784 153.736H30.7627V282.632H47.0784V153.736Z" fill="black"/>
</g>
<g opacity="0.1">
<path d="M63.4726 153.66H47.0713V282.556H63.4726V153.66Z" fill="black"/>
</g>
</g>
<path d="M79.7268 277.232C48.6705 277.232 23.4053 251.967 23.4053 220.911C23.4053 189.855 48.6709 164.59 79.7268 164.59C110.783 164.59 136.049 189.855 136.049 220.911C136.049 251.967 110.783 277.232 79.7268 277.232ZM79.7268 169.94C51.6208 169.94 28.7549 192.805 28.7549 220.911C28.7549 249.017 51.6208 271.882 79.7268 271.882C107.833 271.882 130.699 249.017 130.699 220.911C130.699 192.805 107.833 169.94 79.7268 169.94Z" fill="#DCE2FD"/>
<g opacity="0.41">
<path d="M48.325 236.635C48.325 210.257 69.695 188.873 96.0559 188.873C104.814 188.873 113.015 191.245 120.071 195.365C111.607 182.017 96.7177 173.15 79.7508 173.15C53.3896 173.15 32.0195 194.534 32.0195 220.912C32.0195 238.526 41.5552 253.902 55.7357 262.182C51.0498 254.793 48.325 246.035 48.325 236.635Z" fill="#D9A27F"/>
</g>
<path d="M141.027 175.954C174.923 175.954 202.402 148.475 202.402 114.579C202.402 80.6833 174.923 53.2051 141.027 53.2051C107.131 53.2051 79.6523 80.6833 79.6523 114.579C79.6523 148.475 107.131 175.954 141.027 175.954Z" fill="#D9A27F"/>
<mask id="mask2_1279_35224" style="mask-type:luminance" maskUnits="userSpaceOnUse" x="93" y="66" width="96" height="97">
<path d="M141.027 162.276C167.373 162.276 188.73 140.919 188.73 114.574C188.73 88.2282 167.373 66.8711 141.027 66.8711C114.682 66.8711 93.3242 88.2282 93.3242 114.574C93.3242 140.919 114.682 162.276 141.027 162.276Z" fill="white"/>
</mask>
<g mask="url(#mask2_1279_35224)">
<path d="M189.622 47.4453H92.0557V176.551H189.622V47.4453Z" fill="#D9A27F"/>
<g opacity="0.28">
<path d="M189.604 47.3281H172.927V176.224H189.604V47.3281Z" fill="black"/>
</g>
<g opacity="0.1">
<path d="M156.735 47.3281H140.334V176.224H156.735V47.3281Z" fill="black"/>
</g>
<g opacity="0.28">
<path d="M108.379 47.4102H92.0625V176.306H108.379V47.4102Z" fill="black"/>
</g>
<g opacity="0.1">
<path d="M124.773 47.3281H108.372V176.224H124.773V47.3281Z" fill="black"/>
</g>
</g>
<path d="M141.028 170.902C109.972 170.902 84.7061 145.637 84.7061 114.581C84.7061 83.5255 109.972 58.2598 141.028 58.2598C172.084 58.2598 197.35 83.5252 197.35 114.581C197.35 145.637 172.084 170.902 141.028 170.902ZM141.028 63.6097C112.922 63.6097 90.056 86.4754 90.056 114.581C90.056 142.687 112.922 165.553 141.028 165.553C169.134 165.553 192 142.687 192 114.581C192 86.4754 169.134 63.6097 141.028 63.6097Z" fill="#DCE2FD"/>
<g opacity="0.41">
<path d="M109.625 130.307C109.625 103.929 130.995 82.5451 157.356 82.5451C166.115 82.5451 174.315 84.9169 181.37 89.0365C172.906 75.6891 158.018 66.8223 141.051 66.8223C114.69 66.8223 93.3193 88.2061 93.3193 114.584C93.3193 132.198 102.855 147.574 117.036 155.854C112.35 148.465 109.625 139.706 109.625 130.307Z" fill="#D9A27F"/>
</g>
<path d="M321.577 291.667H4.66182C2.29663 291.667 0.382812 289.751 0.382812 287.388C0.382812 285.025 2.29663 283.109 4.66182 283.109H321.577C323.942 283.109 325.856 285.025 325.856 287.388C325.856 289.751 323.943 291.667 321.577 291.667Z" fill="#B4BA42"/>
<path d="M225.41 135.168L229.946 134.088C233.421 133.261 235.874 130.155 235.874 126.582V104.059H263.57V126.582C263.57 130.155 266.023 133.261 269.499 134.088L274.034 135.168C296.313 140.473 312.037 160.379 312.037 183.281L310.037 226.378L281.11 270.229H218.335L189.101 225.455L187.408 183.281C187.407 160.379 203.131 140.473 225.41 135.168Z" fill="#B6BFF0"/>
<path d="M187.872 185.566L194.726 178.712C188.727 172.713 180.824 156.201 182.226 142.035C182.986 134.363 186.36 128.481 192.256 124.55C211.867 111.48 236.074 131.31 236.317 131.51L242.522 124.064C241.304 123.051 212.445 99.4402 186.879 116.485C178.569 122.025 173.624 130.53 172.58 141.079C170.956 157.488 179.253 176.948 187.872 185.566Z" fill="#B6BFF0"/>
<path d="M208.928 155.288C221.038 158.015 230.416 167.399 241.562 172.861C254.7 179.297 269.939 180.073 284.495 178.612C292.616 177.797 300.809 176.263 308.416 173.387C309.231 176.86 309.669 180.465 309.669 184.155L307.763 225.218L280.203 266.998H220.391L192.538 224.338L190.926 184.155C190.926 173.081 194.79 162.746 201.366 154.588C203.902 154.516 206.445 154.729 208.928 155.288Z" fill="#DE5F5F"/>
<path d="M313.727 208.377C313.727 208.377 253.259 222.073 186.79 208.377L191.367 264.929C192.275 276.147 201.621 284.803 212.876 284.849L286.021 285.149C297.141 285.194 306.489 276.816 307.659 265.759L313.727 208.377Z" fill="#CB8E61"/>
<path d="M315.687 209.231C315.669 207.832 314.411 206.698 313.058 206.343C311.704 205.988 310.275 206.231 308.896 206.47C269.928 213.222 229.677 214.94 190.955 206.898C188.094 206.304 184.358 206.04 183.02 208.637C182.127 210.372 182.965 212.602 184.451 213.866C185.937 215.131 187.908 215.64 189.819 216.032C195.992 217.297 202.301 217.723 208.587 218.146C242.866 220.45 277.851 222.694 311.101 214.049C313.117 213.525 315.373 212.753 316.2 210.842C315.609 210.685 315.695 209.842 315.687 209.231Z" fill="#F9EDAE"/>
<path d="M311.649 213.857C309.114 212.34 306.9 210.234 304.745 208.17C304.427 207.866 304.113 207.568 303.798 207.268C304.369 207.177 304.94 207.081 305.51 206.986C305.574 207.048 305.639 207.108 305.703 207.17C308.098 209.464 310.565 211.818 313.414 213.251C312.844 213.496 312.244 213.69 311.649 213.857Z" fill="#EEDCD2"/>
<path d="M285.338 209.832C285.98 209.758 286.624 209.69 287.266 209.613C290.922 212.504 295.02 214.881 299.332 216.606C298.497 216.761 297.661 216.9 296.824 217.043C292.702 215.178 288.806 212.735 285.338 209.832Z" fill="#EEDCD2"/>
<path d="M190.956 206.854C191.574 206.982 192.196 207.087 192.814 207.21C193.423 208.07 194.023 208.938 194.609 209.816C196.17 212.152 197.785 214.568 199.809 216.516C200.176 216.87 200.562 217.205 200.959 217.529C200.189 217.46 199.42 217.386 198.652 217.305C196.618 215.293 195.008 212.905 193.459 210.585C192.745 209.517 192.029 208.447 191.273 207.413C191.123 207.208 190.972 207.027 190.821 206.83C190.865 206.839 190.912 206.845 190.956 206.854Z" fill="#EEDCD2"/>
<path d="M273.33 216.408C271.496 214.912 269.623 213.367 268.352 211.396C268.886 211.359 269.421 211.325 269.955 211.285C271.079 212.773 272.607 214.031 274.206 215.336C275.715 216.568 277.246 217.831 278.429 219.328C277.861 219.374 277.291 219.409 276.722 219.45C275.739 218.384 274.554 217.408 273.33 216.408Z" fill="#EEDCD2"/>
<path d="M208.618 216.217C206.374 214.171 204.054 212.055 202.261 209.504C202.11 209.289 201.967 209.064 201.833 208.834C202.466 208.936 203.098 209.042 203.732 209.138C205.394 211.375 207.498 213.319 209.551 215.193C210.62 216.168 211.725 217.176 212.765 218.222C212.82 218.278 212.874 218.341 212.93 218.399C212.221 218.352 211.514 218.305 210.808 218.257C210.082 217.564 209.345 216.88 208.618 216.217Z" fill="#EEDCD2"/>
<path d="M216.073 211.543C215.819 211.245 215.554 210.936 215.286 210.627C215.953 210.698 216.62 210.765 217.288 210.831C219.779 213.742 222.501 216.677 225.481 219.179C224.728 219.136 223.975 219.092 223.222 219.047C220.645 216.717 218.268 214.117 216.073 211.543Z" fill="#EEDCD2"/>
<path d="M229.236 211.76C229.764 211.789 230.293 211.809 230.821 211.835C232.614 215.075 235.908 217.525 239.26 219.852C238.414 219.82 237.567 219.784 236.721 219.748C233.697 217.547 230.794 215.031 229.236 211.76Z" fill="#EEDCD2"/>
<path d="M247.701 212.195C248.368 212.19 249.036 212.2 249.704 212.191C252.745 215.055 256.214 217.987 260.061 220.163C259.177 220.175 258.292 220.169 257.407 220.174C253.781 217.822 250.541 214.929 247.701 212.195Z" fill="#EEDCD2"/>
<g opacity="0.58">
<path d="M238.666 284.74C241.138 281.725 244.753 279.859 247.418 277.012C254.376 269.58 254.426 258.24 260.41 250.16C271.833 234.734 292.634 227.842 311.534 227.695L307.508 265.758C306.339 276.815 296.99 285.193 285.871 285.148L238.523 284.953C238.576 284.886 238.612 284.806 238.666 284.74Z" fill="#CB8E61"/>
</g>
<path d="M243.574 261.996C260.293 261.85 277.566 261.678 294.506 263.206L296.678 263.406C300.363 263.753 304.123 264.074 307.846 264.016L307.662 265.761C307.659 265.789 307.648 265.814 307.645 265.841C303.908 265.882 300.17 265.575 296.507 265.231L294.342 265.031C277.494 263.51 260.26 263.674 243.592 263.828C231.64 263.946 219.284 264.061 207.139 263.557C201.955 263.342 196.517 262.991 191.14 262.091L190.987 260.209C196.418 261.15 201.946 261.509 207.217 261.724C219.32 262.226 231.651 262.107 243.574 261.996Z" fill="#CB8E61"/>
<path d="M312.401 220.929C292.518 226.315 271.688 226.22 251.496 226.033L228.712 225.836C220.654 225.764 212.323 225.692 204.196 224.333C201.831 223.935 199.451 223.424 197.15 222.93C194.097 222.275 190.971 221.612 187.83 221.205L187.68 219.346C191.018 219.756 194.317 220.448 197.537 221.141C199.816 221.631 202.175 222.136 204.497 222.526C212.484 223.86 220.743 223.932 228.726 224.003L251.51 224.2C271.8 224.387 292.755 224.493 312.607 218.979L312.401 220.929Z" fill="#CB8E61"/>
<path d="M192.922 271.176C204.829 271.727 217.139 272.295 229.246 272.438C237.394 272.535 245.689 272.438 253.708 272.352C270.664 272.161 288.083 271.997 305.287 273.562C304.965 274.173 304.551 274.723 304.174 275.298C287.37 273.834 270.331 273.99 253.726 274.184C245.693 274.274 237.376 274.367 229.225 274.27C217.373 274.13 205.351 273.583 193.698 273.041C193.392 272.445 193.173 271.804 192.922 271.176Z" fill="#CB8E61"/>
<path d="M236.699 250.778C244.042 250.81 251.635 250.842 259.093 251.468C262.217 251.729 265.376 252.098 268.432 252.453C271.86 252.857 275.41 253.268 278.903 253.53C288.986 254.267 299.143 253.758 309.111 252.032L308.912 253.912C298.953 255.592 288.822 256.11 278.767 255.355C275.235 255.094 271.667 254.679 268.217 254.274C265.179 253.919 262.034 253.551 258.942 253.293C251.556 252.674 243.998 252.642 236.691 252.61L190.355 252.412L190.207 250.578L236.699 250.778Z" fill="#CB8E61"/>
<path d="M310.084 232.982C305.45 233.962 300.655 234.971 295.813 235.515C289.977 236.174 284.115 236.134 278.461 236.113C263.382 236.045 248.299 235.948 233.219 235.827C218.504 235.702 203.312 235.541 188.669 231.553L188.513 229.621C203.118 233.719 218.421 233.871 233.233 233.995C248.313 234.116 263.389 234.213 278.469 234.281C284.087 234.306 289.884 234.335 295.609 233.698C300.365 233.161 305.114 232.159 309.705 231.193L311.355 230.845L311.152 232.756L310.084 232.982Z" fill="#CB8E61"/>
<path d="M270.32 246.657C265.79 246.539 261.077 246.425 256.529 246.45C253.229 246.472 249.93 246.568 246.627 246.668C237.624 246.929 228.323 247.212 219.241 245.856C216.84 245.498 214.432 245.022 212.099 244.56C209.662 244.081 207.143 243.583 204.652 243.222C199.667 242.503 194.591 242.337 189.569 242.672L189.421 240.847C194.592 240.502 199.799 240.672 204.914 241.411C207.451 241.776 209.995 242.277 212.454 242.764C214.765 243.218 217.156 243.691 219.514 244.045C228.431 245.373 237.657 245.097 246.574 244.836C249.887 244.735 253.205 244.639 256.515 244.618C261.092 244.596 265.815 244.711 270.367 244.825C283.634 245.16 297.296 245.46 310.158 242.163L309.952 244.108C297.037 247.291 283.465 246.989 270.32 246.657Z" fill="#CB8E61"/>
<path d="M237.787 90.4102H262.367C262.663 90.4102 262.902 90.65 262.902 90.9456V123.159C262.902 123.454 262.662 123.694 262.367 123.694H237.787C237.491 123.694 237.252 123.454 237.252 123.159V90.9456C237.252 90.65 237.491 90.4102 237.787 90.4102Z" fill="#CB8E61"/>
<path d="M232.7 107.982H266.669C266.784 107.982 266.878 108.077 266.878 108.192V112.85C266.878 112.965 266.784 113.059 266.669 113.059H232.7C232.584 113.059 232.49 112.965 232.49 112.85V108.192C232.49 108.077 232.585 107.982 232.7 107.982Z" fill="#DCE2FD"/>
<path d="M222.594 201.406C222.594 200.478 223.346 199.727 224.273 199.727C225.201 199.727 225.953 200.478 225.953 201.406C225.953 202.334 225.201 203.086 224.273 203.086C223.346 203.086 222.594 202.334 222.594 201.406Z" fill="#B83535"/>
<path d="M219.999 195.452C221.601 195.452 222.9 194.154 222.9 192.551C222.9 190.949 221.601 189.65 219.999 189.65C218.397 189.65 217.098 190.949 217.098 192.551C217.098 194.154 218.397 195.452 219.999 195.452Z" fill="#B83535"/>
<path d="M236.106 185.679C237.497 185.679 238.625 184.551 238.625 183.16C238.625 181.768 237.497 180.641 236.106 180.641C234.715 180.641 233.587 181.768 233.587 183.16C233.587 184.551 234.715 185.679 236.106 185.679Z" fill="#B83535"/>
<path d="M241.373 204.989C241.373 203.85 242.296 202.928 243.434 202.928C244.572 202.928 245.495 203.851 245.495 204.989C245.495 206.127 244.572 207.05 243.434 207.05C242.296 207.05 241.373 206.127 241.373 204.989Z" fill="#B83535"/>
<path d="M206.638 178.198C210.896 178.198 214.348 174.746 214.348 170.488C214.348 166.229 210.896 162.777 206.638 162.777C202.38 162.777 198.928 166.229 198.928 170.488C198.928 174.746 202.38 178.198 206.638 178.198Z" fill="#B83535"/>
<path d="M201.983 198.58C201.983 197.272 203.043 196.213 204.35 196.213C205.657 196.213 206.717 197.272 206.717 198.58C206.717 199.887 205.657 200.946 204.35 200.946C203.043 200.946 201.983 199.887 201.983 198.58Z" fill="#B83535"/>
<path d="M249.925 193.162C249.925 192.572 250.403 192.094 250.994 192.094C251.584 192.094 252.062 192.572 252.062 193.162C252.062 193.753 251.584 194.231 250.994 194.231C250.403 194.231 249.925 193.753 249.925 193.162Z" fill="#B83535"/>
<path d="M259.849 202.777C261.704 202.777 263.208 201.273 263.208 199.418C263.208 197.562 261.704 196.059 259.849 196.059C257.994 196.059 256.49 197.562 256.49 199.418C256.49 201.273 257.994 202.777 259.849 202.777Z" fill="#B83535"/>
<path d="M270.535 201.249C270.535 199.984 271.561 198.959 272.825 198.959C274.09 198.959 275.116 199.984 275.116 201.249C275.116 202.514 274.09 203.539 272.825 203.539C271.561 203.539 270.535 202.514 270.535 201.249Z" fill="#B83535"/>
<path d="M250.687 180.259C250.687 179.88 250.994 179.572 251.374 179.572C251.753 179.572 252.061 179.88 252.061 180.259C252.061 180.639 251.753 180.947 251.374 180.947C250.994 180.947 250.687 180.639 250.687 180.259Z" fill="#B83535"/>
<path d="M294.431 202.318C296.159 202.318 297.56 200.917 297.56 199.188C297.56 197.46 296.159 196.059 294.431 196.059C292.702 196.059 291.301 197.46 291.301 199.188C291.301 200.917 292.702 202.318 294.431 202.318Z" fill="#B83535"/>
<path d="M301.759 190.11C302.813 190.11 303.667 189.255 303.667 188.201C303.667 187.147 302.813 186.293 301.759 186.293C300.705 186.293 299.851 187.147 299.851 188.201C299.851 189.255 300.705 190.11 301.759 190.11Z" fill="#B83535"/>
<path d="M283.896 184.611C284.529 184.611 285.041 184.098 285.041 183.465C285.041 182.833 284.529 182.32 283.896 182.32C283.264 182.32 282.751 182.833 282.751 183.465C282.751 184.098 283.264 184.611 283.896 184.611Z" fill="#B83535"/>
<path d="M277.864 191.479C280.141 191.479 281.987 189.633 281.987 187.357C281.987 185.08 280.141 183.234 277.864 183.234C275.588 183.234 273.742 185.08 273.742 187.357C273.742 189.633 275.588 191.479 277.864 191.479Z" fill="#B83535"/>
<path d="M283.819 204.84C283.819 204.292 284.264 203.848 284.812 203.848C285.36 203.848 285.804 204.292 285.804 204.84C285.804 205.388 285.36 205.832 284.812 205.832C284.264 205.832 283.819 205.388 283.819 204.84Z" fill="#B83535"/>
<path d="M227.785 171.63C227.785 171.377 227.99 171.172 228.243 171.172C228.496 171.172 228.701 171.377 228.701 171.63C228.701 171.883 228.496 172.088 228.243 172.088C227.99 172.088 227.785 171.883 227.785 171.63Z" fill="#B83535"/>
<path d="M221.066 176.976C221.066 175.711 222.092 174.686 223.357 174.686C224.622 174.686 225.647 175.711 225.647 176.976C225.647 178.241 224.622 179.266 223.357 179.266C222.092 179.266 221.066 178.241 221.066 176.976Z" fill="#B83535"/>
<g opacity="0.44">
<path d="M249.598 148.529C246.473 144.447 241.529 141.676 235.731 140.96C229.425 140.182 222.965 141.896 217.445 145.041C204.937 152.167 192.501 172.488 201.161 186.523C204.076 191.248 209.22 193.758 214.532 194.76C232.941 198.231 249.325 179.701 252.74 163.127C253.9 157.498 252.574 152.418 249.598 148.529Z" fill="white"/>
</g>
<path d="M41.9555 51.5543L43.1759 220.619C43.188 222.284 43.5218 223.931 44.1598 225.469L52.8203 246.353C53.6679 248.397 54.112 250.585 54.1278 252.798L54.3275 280.499C54.3433 282.692 55.9497 284.649 58.1331 284.854C60.639 285.089 62.757 283.092 62.7394 280.637L62.5381 252.737C62.5223 250.524 62.9344 248.33 63.7526 246.274L72.1109 225.267C72.7264 223.72 73.0367 222.068 73.0246 220.403L71.8042 51.3383C71.7447 43.0959 65.0146 36.4624 56.7724 36.5219C48.5295 36.5821 41.896 43.3122 41.9555 51.5543Z" fill="#B6BFF0"/>
<path d="M67.2394 68.7825L46.79 68.9297L47.8919 221.967L68.3413 221.82L67.2394 68.7825Z" fill="white"/>
<path d="M57.6907 68.8361L56.3535 68.8457L57.8627 278.448L59.1999 278.438L57.6907 68.8361Z" fill="#DE5F5F"/>
<path d="M54.1416 254.725L54.3278 280.499C54.3436 282.692 55.95 284.649 58.1334 284.854C60.6393 285.089 62.7573 283.092 62.7396 280.637L62.5523 254.664L54.1416 254.725Z" fill="#6F7BBD"/>
<path d="M55.2438 71.7889L46.8125 71.8496L46.8187 72.7152L55.25 72.6545L55.2438 71.7889Z" fill="#454D77"/>
<path d="M52.0789 73.3411L46.8223 73.3789L46.8285 74.2445L52.0852 74.2067L52.0789 73.3411Z" fill="#454D77"/>
<path d="M52.0897 74.7883L46.833 74.8262L46.8392 75.6918L52.0959 75.654L52.0897 74.7883Z" fill="#454D77"/>
<path d="M52.0994 76.1457L46.8428 76.1836L46.849 77.0492L52.1057 77.0114L52.0994 76.1457Z" fill="#454D77"/>
<path d="M52.1102 77.4661L46.8535 77.5039L46.8597 78.3695L52.1164 78.3317L52.1102 77.4661Z" fill="#454D77"/>
<path d="M55.3102 81.0936L46.8789 81.1543L46.8851 82.0199L55.3164 81.9592L55.3102 81.0936Z" fill="#454D77"/>
<path d="M52.1473 82.6379L46.8906 82.6758L46.8969 83.5414L52.1535 83.5036L52.1473 82.6379Z" fill="#454D77"/>
<path d="M52.1561 84.0872L46.8994 84.125L46.9056 84.9906L52.1623 84.9528L52.1561 84.0872Z" fill="#454D77"/>
<path d="M52.1668 85.4426L46.9102 85.4805L46.9164 86.3461L52.173 86.3083L52.1668 85.4426Z" fill="#454D77"/>
<path d="M52.1756 86.7649L46.9189 86.8027L46.9252 87.6684L52.1818 87.6305L52.1756 86.7649Z" fill="#454D77"/>
<path d="M55.3785 90.6522L46.9473 90.7129L46.9535 91.5785L55.3848 91.5178L55.3785 90.6522Z" fill="#454D77"/>
<path d="M52.2147 92.2082L46.958 92.2461L46.9642 93.1117L52.2209 93.0739L52.2147 92.2082Z" fill="#454D77"/>
<path d="M52.2254 93.6457L46.9688 93.6836L46.975 94.5492L52.2316 94.5114L52.2254 93.6457Z" fill="#454D77"/>
<path d="M52.2352 95.0071L46.9785 95.0449L46.9847 95.9106L52.2414 95.8727L52.2352 95.0071Z" fill="#454D77"/>
<path d="M52.244 96.3215L46.9873 96.3594L46.9935 97.225L52.2502 97.1872L52.244 96.3215Z" fill="#454D77"/>
<path d="M55.4616 101.978L47.0303 102.039L47.0365 102.905L55.4678 102.844L55.4616 101.978Z" fill="#454D77"/>
<path d="M52.2967 103.523L47.04 103.561L47.0463 104.426L52.3029 104.388L52.2967 103.523Z" fill="#454D77"/>
<path d="M52.3084 104.966L47.0518 105.004L47.058 105.87L52.3147 105.832L52.3084 104.966Z" fill="#454D77"/>
<path d="M52.3172 106.325L47.0605 106.363L47.0668 107.229L52.3234 107.191L52.3172 106.325Z" fill="#454D77"/>
<path d="M52.327 107.648L47.0703 107.686L47.0765 108.551L52.3332 108.513L52.327 107.648Z" fill="#454D77"/>
<path d="M55.528 111.275L47.0967 111.336L47.1029 112.202L55.5342 112.141L55.528 111.275Z" fill="#454D77"/>
<path d="M52.3651 112.82L47.1084 112.857L47.1146 113.723L52.3713 113.685L52.3651 112.82Z" fill="#454D77"/>
<path d="M52.3758 114.269L47.1191 114.307L47.1254 115.172L52.382 115.134L52.3758 114.269Z" fill="#454D77"/>
<path d="M52.3846 115.624L47.1279 115.662L47.1342 116.528L52.3908 116.49L52.3846 115.624Z" fill="#454D77"/>
<path d="M52.3953 116.939L47.1387 116.977L47.1449 117.842L52.4016 117.804L52.3953 116.939Z" fill="#454D77"/>
<path d="M55.5964 120.834L47.165 120.895L47.1713 121.76L55.6026 121.699L55.5964 120.834Z" fill="#454D77"/>
<path d="M52.4334 122.388L47.1768 122.426L47.183 123.291L52.4397 123.254L52.4334 122.388Z" fill="#454D77"/>
<path d="M52.4442 123.827L47.1875 123.865L47.1937 124.731L52.4504 124.693L52.4442 123.827Z" fill="#454D77"/>
<path d="M52.4529 125.187L47.1963 125.225L47.2025 126.09L52.4592 126.052L52.4529 125.187Z" fill="#454D77"/>
<path d="M52.4608 126.509L47.2041 126.547L47.2103 127.413L52.467 127.375L52.4608 126.509Z" fill="#454D77"/>
<path d="M55.6754 131.742L47.2441 131.803L47.2504 132.668L55.6816 132.608L55.6754 131.742Z" fill="#454D77"/>
<path d="M52.5125 133.288L47.2559 133.326L47.2621 134.192L52.5188 134.154L52.5125 133.288Z" fill="#454D77"/>
<path d="M52.5213 134.73L47.2646 134.768L47.2709 135.633L52.5275 135.595L52.5213 134.73Z" fill="#454D77"/>
<path d="M52.5321 136.093L47.2754 136.131L47.2816 136.996L52.5383 136.959L52.5321 136.093Z" fill="#454D77"/>
<path d="M52.5399 137.411L47.2832 137.449L47.2894 138.315L52.5461 138.277L52.5399 137.411Z" fill="#454D77"/>
<path d="M55.7418 141.039L47.3105 141.1L47.3168 141.965L55.748 141.905L55.7418 141.039Z" fill="#454D77"/>
<path d="M52.579 142.583L47.3223 142.621L47.3285 143.487L52.5852 143.449L52.579 142.583Z" fill="#454D77"/>
<path d="M52.5887 144.029L47.332 144.066L47.3383 144.932L52.5949 144.894L52.5887 144.029Z" fill="#454D77"/>
<path d="M52.5994 145.386L47.3428 145.424L47.349 146.289L52.6057 146.252L52.5994 145.386Z" fill="#454D77"/>
<path d="M52.6072 146.708L47.3506 146.746L47.3568 147.612L52.6135 147.574L52.6072 146.708Z" fill="#454D77"/>
<path d="M55.8112 150.603L47.3799 150.664L47.3861 151.53L55.8174 151.469L55.8112 150.603Z" fill="#454D77"/>
<path d="M52.6473 152.154L47.3906 152.191L47.3969 153.057L52.6535 153.019L52.6473 152.154Z" fill="#454D77"/>
<path d="M52.658 153.591L47.4014 153.629L47.4076 154.495L52.6643 154.457L52.658 153.591Z" fill="#454D77"/>
<path d="M52.6668 154.954L47.4102 154.992L47.4164 155.858L52.673 155.82L52.6668 154.954Z" fill="#454D77"/>
<path d="M52.6766 156.275L47.4199 156.312L47.4262 157.178L52.6828 157.14L52.6766 156.275Z" fill="#454D77"/>
<path d="M55.8844 160.73L47.4531 160.791L47.4594 161.657L55.8907 161.596L55.8844 160.73Z" fill="#454D77"/>
<path d="M52.7196 162.271L47.4629 162.309L47.4691 163.174L52.7258 163.136L52.7196 162.271Z" fill="#454D77"/>
<path d="M52.7303 163.72L47.4736 163.758L47.4799 164.623L52.7365 164.586L52.7303 163.72Z" fill="#454D77"/>
<path d="M52.7391 165.077L47.4824 165.115L47.4887 165.981L52.7453 165.943L52.7391 165.077Z" fill="#454D77"/>
<path d="M52.7498 166.394L47.4932 166.432L47.4994 167.297L52.7561 167.259L52.7498 166.394Z" fill="#454D77"/>
<path d="M55.9499 170.025L47.5186 170.086L47.5248 170.952L55.9561 170.891L55.9499 170.025Z" fill="#454D77"/>
<path d="M52.7879 171.572L47.5312 171.609L47.5375 172.475L52.7941 172.437L52.7879 171.572Z" fill="#454D77"/>
<path d="M52.7977 173.009L47.541 173.047L47.5472 173.913L52.8039 173.875L52.7977 173.009Z" fill="#454D77"/>
<path d="M52.8085 174.37L47.5518 174.408L47.558 175.274L52.8147 175.236L52.8085 174.37Z" fill="#454D77"/>
<path d="M52.8163 175.689L47.5596 175.727L47.5658 176.592L52.8225 176.554L52.8163 175.689Z" fill="#454D77"/>
<path d="M56.0182 179.588L47.5869 179.648L47.5931 180.514L56.0245 180.453L56.0182 179.588Z" fill="#454D77"/>
<path d="M52.8553 181.134L47.5986 181.172L47.6049 182.038L52.8615 182L52.8553 181.134Z" fill="#454D77"/>
<path d="M52.867 182.577L47.6104 182.615L47.6166 183.481L52.8732 183.443L52.867 182.577Z" fill="#454D77"/>
<path d="M52.8758 183.935L47.6191 183.973L47.6254 184.838L52.882 184.8L52.8758 183.935Z" fill="#454D77"/>
<path d="M52.8856 185.259L47.6289 185.297L47.6351 186.163L52.8918 186.125L52.8856 185.259Z" fill="#454D77"/>
<path d="M56.1061 191.502L47.6748 191.562L47.681 192.428L56.1124 192.367L56.1061 191.502Z" fill="#454D77"/>
<path d="M52.9403 193.052L47.6836 193.09L47.6898 193.956L52.9465 193.918L52.9403 193.052Z" fill="#454D77"/>
<path d="M52.951 194.497L47.6943 194.535L47.7006 195.401L52.9572 195.363L52.951 194.497Z" fill="#454D77"/>
<path d="M52.9608 195.859L47.7041 195.896L47.7103 196.762L52.967 196.724L52.9608 195.859Z" fill="#454D77"/>
<path d="M52.9725 197.173L47.7158 197.211L47.7221 198.077L52.9788 198.039L52.9725 197.173Z" fill="#454D77"/>
<path d="M56.1725 200.801L47.7412 200.861L47.7474 201.727L56.1788 201.666L56.1725 200.801Z" fill="#454D77"/>
<path d="M53.0086 202.351L47.752 202.389L47.7582 203.254L53.0148 203.216L53.0086 202.351Z" fill="#454D77"/>
<path d="M53.0204 203.786L47.7637 203.824L47.7699 204.69L53.0266 204.652L53.0204 203.786Z" fill="#454D77"/>
<path d="M53.0301 205.154L47.7734 205.191L47.7797 206.057L53.0363 206.019L53.0301 205.154Z" fill="#454D77"/>
<path d="M53.0399 206.468L47.7832 206.506L47.7894 207.372L53.0461 207.334L53.0399 206.468Z" fill="#454D77"/>
<path d="M56.2409 210.363L47.8096 210.424L47.8158 211.289L56.2471 211.229L56.2409 210.363Z" fill="#454D77"/>
<path d="M53.077 211.909L47.8203 211.947L47.8265 212.813L53.0832 212.775L53.077 211.909Z" fill="#454D77"/>
<path d="M53.0887 213.355L47.832 213.393L47.8383 214.258L53.0949 214.22L53.0887 213.355Z" fill="#454D77"/>
<path d="M53.0975 214.71L47.8408 214.748L47.8471 215.614L53.1037 215.576L53.0975 214.71Z" fill="#454D77"/>
<path d="M53.1082 216.032L47.8516 216.07L47.8578 216.936L53.1145 216.898L53.1082 216.032Z" fill="#454D77"/>
<path d="M151.162 235.114C150.955 235.312 150.776 235.518 150.615 235.707C149.122 237.47 147.948 239.454 147.125 241.611L146.709 242.7L147.874 242.674C149.944 242.625 151.992 243.528 153.353 245.086C154.61 246.523 155.234 248.466 155.068 250.364C150.124 251.853 144.816 252.422 139.681 252.006L139.296 251.975L139.035 252.263C137.63 253.825 136.547 255.707 135.901 257.705C135.649 258.488 135.459 259.296 135.271 260.103C134.897 261.706 134.542 263.222 133.697 264.48C132.353 266.492 129.927 267.55 127.274 268.45C127.283 268.33 127.307 268.209 127.345 268.094L125.861 267.597C125.626 268.301 125.656 269.098 125.945 269.782L126.227 270.443L126.91 270.221C130.159 269.162 133.225 267.997 134.999 265.351C136.002 263.857 136.406 262.129 136.796 260.459C136.975 259.694 137.153 258.927 137.392 258.187C137.931 256.517 138.812 254.938 139.95 253.598C145.326 253.981 150.874 253.33 156.019 251.709L156.48 251.564L156.557 251.085C156.954 248.587 156.197 245.96 154.532 244.056C153.126 242.446 151.12 241.409 149.006 241.162C149.727 239.559 150.666 238.068 151.807 236.721C152.041 236.448 152.297 236.164 152.585 235.967C152.955 235.719 153.432 235.587 153.936 235.448L160.625 233.603C162.734 233.021 164.914 232.419 167.078 232.595C167.359 232.618 167.669 232.66 167.845 232.79C167.998 232.906 168.125 233.153 168.251 233.417C169.593 236.23 170.391 239.231 170.621 242.336L170.701 242.67C168.834 244.486 166.854 246.279 164.664 247.702L164.101 248.061C163.167 248.647 162.201 249.252 161.441 250.15C159.635 252.257 159.556 255.197 159.627 258.028L159.816 265.195C159.921 269.248 160.04 273.842 158.211 277.699L157.963 278.218L158.386 278.609C158.784 278.978 158.968 279.6 158.831 280.125L158.529 281.278L159.707 281.097C161.926 280.756 164.142 280.253 166.294 279.603C167.508 279.235 168.902 278.764 170.065 277.845C172.58 275.838 173.199 272.532 173.757 269.593L173.855 269.078C174.933 263.443 177.002 259.671 180.002 257.869C180.366 260.11 181.703 262.046 183.003 263.929C183.271 264.316 183.537 264.702 183.793 265.089C184.734 266.511 186.735 270.087 184.994 272.59L186.279 273.485C188.569 270.194 186.217 265.912 185.099 264.224C184.838 263.829 184.566 263.435 184.292 263.039C182.896 261.018 181.453 258.929 181.472 256.64L181.483 255.436L180.377 255.917C176.333 257.678 173.616 262.007 172.317 268.782L172.218 269.302C171.687 272.101 171.145 274.999 169.093 276.616C168.145 277.367 166.916 277.777 165.84 278.103C164.066 278.64 162.249 279.072 160.422 279.393C160.359 278.856 160.158 278.337 159.839 277.897C161.606 273.819 161.487 269.225 161.382 265.154L161.193 257.986C161.126 255.356 161.183 252.855 162.63 251.168C163.244 250.447 164.064 249.934 164.937 249.384L165.516 249.016C168.205 247.265 170.509 245.034 172.741 242.876L172.123 242.224L172.182 242.22C171.937 238.92 171.09 235.731 169.663 232.742C169.459 232.315 169.223 231.869 168.788 231.539C168.29 231.166 167.708 231.075 167.204 231.033C164.764 230.836 162.343 231.503 160.207 232.093L153.519 233.938C152.944 234.097 152.292 234.277 151.714 234.666C151.512 234.802 151.328 234.955 151.162 235.114Z" fill="#A8542E"/>
<path d="M197.091 257.263C199.871 252.659 201.227 247.208 200.928 241.837C200.908 241.476 200.876 241.102 200.697 240.788C200.431 240.319 199.884 240.075 199.35 239.997C196.737 239.615 194.83 242.321 193.599 244.657C192.516 246.712 191.433 248.766 190.35 250.821C189.162 253.073 187.851 255.454 185.606 256.656C185.415 256.144 185.225 255.631 185.035 255.119C188.167 253.517 190.101 249.844 189.648 246.355C187.665 247.439 185.681 248.523 183.698 249.607C187.098 245.39 194.17 244.448 195.873 239.304C196.049 238.774 196.154 238.199 196.02 237.656C195.763 236.621 194.679 235.963 193.618 235.859C192.556 235.755 191.506 236.088 190.492 236.417C186.907 237.577 183.322 238.737 179.737 239.898C179.405 239.358 180.056 238.756 180.622 238.471C186.73 235.396 193.87 234.42 200.579 235.743C201.148 234.837 200.183 233.763 199.32 233.13C196.078 230.757 192.836 228.383 189.594 226.009C187.767 224.671 185.834 223.29 183.587 223.007C182.243 222.837 180.404 222.718 180.216 221.377C184.754 220.322 189.254 223.068 192.893 225.977C196.531 228.886 200.267 232.241 204.903 232.694C210.795 233.271 215.926 229.019 221.484 226.98C224.314 225.942 227.35 225.471 230.361 225.601C230.631 225.613 230.916 225.634 231.139 225.788C231.36 225.941 231.481 226.198 231.582 226.447C232.587 228.915 232.62 231.764 231.67 234.254C231.013 231.948 230.13 229.369 227.946 228.377C226.993 227.944 225.909 227.886 224.868 227.986C220.474 228.405 216.788 231.388 212.622 232.849C210.431 233.616 208.041 233.99 206.149 235.337C203.529 237.203 202.419 240.549 201.965 243.733C201.512 246.918 201.543 250.208 200.494 253.248C199.899 254.968 198.819 256.694 197.091 257.263Z" fill="#A8542E"/>
<path d="M173.429 231.968C175.592 226.791 173.148 220.84 167.97 218.677C162.793 216.514 156.842 218.957 154.679 224.135C152.515 229.313 154.959 235.263 160.137 237.427C165.314 239.59 171.265 237.146 173.429 231.968Z" fill="#6F7BBD"/>
<g opacity="0.3">
<path d="M170.304 234.511C172.097 232.479 171.902 229.378 169.87 227.586C167.838 225.793 164.737 225.987 162.944 228.019C161.152 230.052 161.346 233.152 163.378 234.945C165.41 236.738 168.511 236.544 170.304 234.511Z" fill="white"/>
</g>
<path d="M166.801 267.03C169.992 262.414 168.838 256.085 164.223 252.894C159.608 249.702 153.279 250.856 150.087 255.471C146.895 260.087 148.049 266.416 152.665 269.607C157.28 272.799 163.609 271.645 166.801 267.03Z" fill="#6F7BBD"/>
<g opacity="0.3">
<path d="M161.018 269.376C163.728 269.376 165.925 267.18 165.925 264.469C165.925 261.759 163.728 259.562 161.018 259.562C158.308 259.562 156.111 261.759 156.111 264.469C156.111 267.18 158.308 269.376 161.018 269.376Z" fill="white"/>
</g>
<path d="M161.449 288.267C165.434 285.862 166.716 280.681 164.311 276.696C161.906 272.71 156.726 271.428 152.74 273.833C148.754 276.238 147.473 281.418 149.878 285.404C152.283 289.39 157.463 290.671 161.449 288.267Z" fill="#6F7BBD"/>
<g opacity="0.3">
<path d="M159.125 279.649C161.372 279.576 163.253 281.338 163.326 283.585C163.399 285.832 161.637 287.713 159.389 287.786C157.143 287.859 155.262 286.097 155.189 283.849C155.116 281.602 156.878 279.721 159.125 279.649Z" fill="white"/>
</g>
<path d="M128.978 276.116C132.269 272.825 132.269 267.488 128.978 264.196C125.686 260.905 120.349 260.905 117.058 264.196C113.766 267.488 113.766 272.825 117.058 276.116C120.349 279.408 125.686 279.408 128.978 276.116Z" fill="#6F7BBD"/>
<g opacity="0.3">
<path d="M125.038 268.739C127.285 268.665 129.166 270.428 129.239 272.675C129.312 274.922 127.55 276.802 125.303 276.876C123.056 276.949 121.175 275.187 121.102 272.939C121.029 270.692 122.791 268.811 125.038 268.739Z" fill="white"/>
</g>
<path d="M203.51 265.04C207.55 262.727 208.95 257.577 206.636 253.538C204.323 249.498 199.173 248.098 195.134 250.411C191.094 252.724 189.694 257.874 192.008 261.914C194.321 265.954 199.471 267.353 203.51 265.04Z" fill="#6F7BBD"/>
<g opacity="0.3">
<path d="M201.342 256.328C203.589 256.255 205.47 258.017 205.543 260.265C205.616 262.512 203.854 264.392 201.606 264.465C199.359 264.538 197.479 262.776 197.406 260.529C197.332 258.282 199.095 256.401 201.342 256.328Z" fill="white"/>
</g>
<path d="M198.743 281.795C202.319 277.98 202.124 271.988 198.309 268.413C194.493 264.837 188.502 265.032 184.926 268.847C181.351 272.663 181.545 278.654 185.361 282.23C189.176 285.805 195.168 285.611 198.743 281.795Z" fill="#6F7BBD"/>
<g opacity="0.3">
<path d="M195.915 282.533C198.264 281.606 199.417 278.95 198.49 276.601C197.563 274.252 194.907 273.1 192.558 274.027C190.209 274.954 189.056 277.609 189.983 279.958C190.91 282.307 193.566 283.46 195.915 282.533Z" fill="white"/>
</g>
<path d="M182.556 282.581C186.333 278.432 186.032 272.007 181.883 268.229C177.734 264.451 171.308 264.753 167.53 268.902C163.753 273.051 164.054 279.476 168.203 283.254C172.352 287.032 178.778 286.73 182.556 282.581Z" fill="#49647A"/>
<g opacity="0.3">
<path d="M182.527 279.826C183.014 277.16 181.249 274.604 178.583 274.116C175.917 273.628 173.36 275.394 172.873 278.06C172.385 280.726 174.15 283.282 176.816 283.77C179.482 284.258 182.039 282.492 182.527 279.826Z" fill="white"/>
</g>
<path d="M177.51 230.134C181.592 230.134 184.9 226.826 184.9 222.745C184.9 218.664 181.592 215.355 177.51 215.355C173.429 215.355 170.121 218.664 170.121 222.745C170.121 226.826 173.429 230.134 177.51 230.134Z" fill="#49647A"/>
<g opacity="0.3">
<path d="M180.25 228.553C182.159 228.061 183.306 226.114 182.813 224.206C182.321 222.298 180.374 221.15 178.466 221.643C176.558 222.136 175.41 224.082 175.903 225.99C176.396 227.899 178.342 229.046 180.25 228.553Z" fill="white"/>
</g>
<path d="M151.705 281.376C155.672 277.408 155.672 270.975 151.705 267.007C147.737 263.039 141.304 263.039 137.336 267.007C133.368 270.975 133.368 277.408 137.336 281.376C141.304 285.344 147.737 285.344 151.705 281.376Z" fill="#49647A"/>
<g opacity="0.3">
<path d="M147.612 282.307C150.309 282.033 152.272 279.625 151.998 276.929C151.724 274.233 149.317 272.269 146.62 272.543C143.924 272.817 141.96 275.225 142.234 277.921C142.508 280.617 144.916 282.581 147.612 282.307Z" fill="white"/>
</g>
<path d="M185.962 262.009C189.93 258.041 189.93 251.608 185.962 247.64C181.995 243.672 175.561 243.672 171.594 247.64C167.626 251.608 167.626 258.041 171.594 262.009C175.561 265.976 181.995 265.976 185.962 262.009Z" fill="#6F7BBD"/>
<g opacity="0.3">
<path d="M181.581 262.942C184.288 262.816 186.38 260.52 186.254 257.812C186.128 255.105 183.831 253.013 181.124 253.139C178.417 253.265 176.325 255.562 176.451 258.269C176.577 260.976 178.874 263.068 181.581 262.942Z" fill="white"/>
</g>
<path d="M143.935 262.675C147.903 258.707 147.903 252.274 143.935 248.306C139.967 244.338 133.534 244.338 129.566 248.306C125.598 252.274 125.598 258.707 129.566 262.675C133.534 266.642 139.967 266.642 143.935 262.675Z" fill="#6F7BBD"/>
<g opacity="0.3">
<path d="M144.179 259.466C144.604 256.79 142.779 254.275 140.103 253.85C137.426 253.424 134.912 255.249 134.486 257.925C134.061 260.602 135.886 263.116 138.562 263.542C141.238 263.967 143.753 262.143 144.179 259.466Z" fill="white"/>
</g>
<path d="M180.218 245.714C183.105 242.564 182.891 237.67 179.741 234.784C176.591 231.898 171.698 232.111 168.811 235.261C165.925 238.411 166.139 243.305 169.288 246.191C172.438 249.077 177.332 248.864 180.218 245.714Z" fill="#49647A"/>
<g opacity="0.3">
<path d="M176.357 239.227C178.419 239.159 180.145 240.777 180.213 242.839C180.28 244.902 178.662 246.628 176.6 246.695C174.538 246.762 172.811 245.145 172.744 243.082C172.677 241.02 174.295 239.294 176.357 239.227Z" fill="white"/>
</g>
<path d="M165.505 254.482C169.295 250.343 169.011 243.916 164.872 240.127C160.733 236.337 154.306 236.621 150.517 240.76C146.727 244.899 147.011 251.326 151.15 255.115C155.289 258.905 161.716 258.621 165.505 254.482Z" fill="#49647A"/>
<g opacity="0.3">
<path d="M165.416 251.78C165.925 249.118 164.18 246.548 161.518 246.039C158.856 245.529 156.286 247.274 155.777 249.936C155.267 252.598 157.012 255.169 159.674 255.678C162.336 256.187 164.907 254.442 165.416 251.78Z" fill="white"/>
</g>
<path d="M152.706 241.089C155.118 237.182 153.905 232.06 149.998 229.649C146.091 227.238 140.969 228.45 138.557 232.357C136.146 236.264 137.359 241.386 141.266 243.798C145.173 246.209 150.295 244.996 152.706 241.089Z" fill="#6F7BBD"/>
<g opacity="0.3">
<path d="M147.737 243.362C149.954 243.362 151.752 241.564 151.752 239.347C151.752 237.13 149.954 235.332 147.737 235.332C145.519 235.332 143.722 237.13 143.722 239.347C143.722 241.564 145.519 243.362 147.737 243.362Z" fill="white"/>
</g>
<path d="M179.292 183.177C179.832 184.394 180.549 185.531 181.415 186.543C181.848 181.963 182.281 177.383 182.715 172.803C187.112 176.37 193.981 175.422 198.354 179.021C198.033 177.97 197.713 176.918 197.392 175.867C200.633 177.363 203.242 180.178 204.487 183.523C204.386 181.987 204.055 180.466 203.508 179.027C208.483 183.673 208.833 191.255 209.841 197.987C209.919 198.511 210.02 199.069 210.386 199.452C211.2 200.306 212.769 199.643 213.243 198.563C213.717 197.482 213.476 196.243 213.331 195.072C212.524 188.559 215.196 181.715 220.202 177.472C220.242 179.387 220.282 181.302 220.322 183.218C220.833 181.966 221.343 180.714 221.854 179.463C222.998 187.122 234.91 189.192 236.334 196.804C236.27 195.536 236.207 194.268 236.143 193C237.946 196.482 238.809 200.444 238.617 204.36C238.806 203.845 238.996 203.33 239.185 202.815C239.903 206.045 239.031 209.59 236.897 212.119C237.571 212.114 238.245 212.11 238.918 212.106C237.236 214.955 235.471 217.896 232.747 219.774C230.022 221.652 226.048 222.15 223.515 220.022C222.063 218.802 221.006 216.76 219.113 216.632C217.366 216.513 215.94 218.372 216.057 220.119C216.173 221.866 217.443 223.355 218.93 224.28C217.467 223.171 215.489 222.532 213.77 223.178C212.052 223.824 210.96 226.084 211.958 227.626C213.058 229.326 215.57 229.125 217.424 229.94C220.274 231.192 221.278 235.091 219.999 237.929C218.72 240.766 215.732 242.534 212.681 243.15C209.63 243.766 206.477 243.405 203.386 243.042C204.141 242.883 204.837 242.451 205.315 241.845C202.759 242.025 200.169 241.703 197.736 240.902C198.372 240.824 198.978 240.517 199.416 240.048C197.156 238.658 194.353 238.178 191.759 238.736C192.865 237.179 193.969 235.622 195.074 234.065C192.235 234.224 189.254 234.133 186.756 232.774C182.288 230.344 180.758 224.781 179.735 219.8C178.712 214.818 177.4 209.26 173.095 206.553C175.316 206.609 177.495 207.64 178.947 209.321C178.494 208.383 178.04 207.445 177.587 206.507C179.546 206.335 181.565 207.03 183.003 208.371C182.77 207.888 182.856 207.27 183.21 206.867C185.6 207.565 187.747 209.072 189.217 211.083C190.144 212.352 191.065 213.978 192.633 214.081C194.626 214.212 195.768 211.492 194.948 209.671C194.129 207.85 192.209 206.829 190.422 205.94C187.844 204.659 185.267 203.378 182.69 202.097C183.412 202.069 184.134 202.04 184.856 202.011C182.673 201.022 180.699 199.578 179.095 197.798C180.424 198.1 181.794 198.22 183.155 198.154C179.026 194.734 178.985 188.53 179.292 183.177Z" fill="#999924"/>
<g opacity="0.21">
<path d="M217.379 211.794C218.035 211.432 218.746 211.191 219.472 211.185C219.671 211.184 219.776 211.457 219.567 211.543C218.365 212.037 217.277 212.424 216.251 213.155C214.72 215.185 213.702 217.49 214.058 220.599C214.401 220.898 214.743 221.198 215.104 221.492C215.224 221.59 215.079 221.778 214.956 221.683C214.624 221.427 214.316 221.155 213.993 220.893C213.91 220.954 213.778 220.952 213.729 220.832C213.701 220.762 213.689 220.692 213.663 220.621C213.454 220.448 213.237 220.28 213.033 220.104C213.05 220.206 212.946 220.299 212.831 220.231C209.188 218.051 206.362 222.232 203.679 223.517C203.646 223.533 203.61 223.543 203.578 223.558C202.805 225.015 202.122 226.471 201.505 228.032C201.443 228.188 201.22 228.111 201.233 227.955C201.344 226.584 201.85 225.18 202.592 223.96C201.325 224.407 199.972 224.644 198.643 224.693C198.342 224.704 198.043 224.68 197.743 224.673C196.866 225.232 195.73 225.39 194.88 226.073C193.571 227.124 192.989 228.644 191.984 229.924C191.878 230.059 191.6 229.971 191.652 229.782C192.018 228.457 192.931 227.13 193.9 226.171C194.355 225.721 194.856 225.332 195.422 225.033C195.791 224.838 196.191 224.721 196.593 224.608C192.77 224.21 189.108 222.386 186.165 219.997C186.013 219.873 186.163 219.581 186.348 219.687C189.223 221.329 192.063 223.171 195.382 223.769C199.554 224.52 202.517 223.141 205.663 221.168C203.209 220.951 200.495 219.558 198.829 217.9C198.663 217.735 198.851 217.491 199.052 217.614C200.269 218.362 201.457 219.145 202.781 219.697C203.92 220.173 205.121 220.393 206.285 220.771C206.586 220.577 206.885 220.386 207.192 220.185C208.946 219.035 210.733 218.393 212.393 219.537C210.309 217.672 208.45 215.656 206.792 213.481C203.661 211.98 200.644 210.865 199.118 207.498C199.05 207.349 199.265 207.23 199.363 207.356C200.546 208.885 201.669 210.225 203.372 211.192C204.321 211.731 205.295 212.221 206.252 212.745C204.406 210.216 202.8 207.488 201.427 204.518C200.495 202.499 199.626 200.499 198.722 198.525C195.491 195.219 190.884 193.849 186.952 191.501C186.826 191.426 186.951 191.235 187.08 191.286C189.968 192.431 192.9 193.849 195.596 195.401C196.527 195.937 197.401 196.545 198.143 197.277C196.963 194.774 195.687 192.321 194.095 189.942C191.173 185.577 187.861 181.488 184.973 177.093C184.861 176.922 185.095 176.74 185.226 176.899C188.051 180.351 190.868 183.866 193.411 187.554C192.652 184.943 191.942 182.279 191.364 179.642C191.335 179.514 191.536 179.467 191.585 179.584C192.756 182.432 193.842 185.661 194.214 188.738C195.96 191.361 197.545 194.08 198.882 196.933C198.847 195.399 198.958 193.862 198.817 192.325C198.63 190.275 198.08 188.311 197.565 186.323C197.527 186.173 197.758 186.129 197.818 186.256C198.654 188.027 199.088 189.878 199.298 191.822C199.509 193.782 199.203 195.656 199.202 197.591C199.212 197.614 199.224 197.635 199.234 197.658C200.658 200.825 202.026 203.844 203.528 206.715C202.572 202.142 203.815 196.338 204.825 192.22C204.867 192.05 205.11 192.082 205.096 192.26C204.711 197.269 203.009 203.142 204.288 208.13C206.701 212.508 209.525 216.516 213.503 220.113C212.769 217.513 213.748 214.927 215.342 212.733C216.094 211.696 216.923 210.768 217.769 209.872C218.377 207.903 218.021 205.693 218.284 203.639C218.304 203.48 218.551 203.48 218.567 203.642C218.728 205.293 218.723 207.035 218.6 208.691C218.591 208.809 218.572 208.925 218.56 209.042C220.508 207.026 222.461 205.075 223.742 202.347C223.829 202.16 224.166 202.231 224.109 202.451C223.089 206.402 219.909 208.941 217.379 211.794Z" fill="black"/>
</g>
</svg>
