<svg fill="none" height="196" viewBox="0 0 198 196" width="198" xmlns="http://www.w3.org/2000/svg"><path d="m192.846 137.046c-9.544 25.772-32.96 45.21-59.235 53.408-39.5367 12.336-95.4363 5.053-120.262-31.573-24.036-35.462-12.732694-83.6025 11.1162-116.229 16.752-22.9172 42.7216-39.61098 70.9561-42.304662 65.9637-6.293448 118.3607 74.256362 98.2067 134.478662-.249.745-.51 1.485-.782 2.22z" fill="#dbdff7"/><path d="m96.8914 76.6517h-4.8159c-.4978 0-.9017-.4038-.9017-.9016s.4039-.9017.9017-.9017h4.8159c2.0615 0 3.7386-1.6764 3.7386-3.7382v-29.0617c0-3.7312 3.033-6.7647 6.764-6.7647h13.22c2.301 0 4.175-1.8738 4.175-4.1772v-6.652c0-3.0078 2.446-5.4546 5.454-5.4546h4.901c3.008 0 5.454 2.4466 5.454 5.4546v6.4783c0 .4978-.403.9016-.901.9016s-.902-.4038-.902-.9016v-6.4783c0-2.0122-1.639-3.6513-3.651-3.6513h-4.901c-2.012 0-3.651 1.6389-3.651 3.6513v6.652c0 3.2967-2.681 5.9805-5.978 5.9805h-13.22c-2.735 0-4.961 2.226-4.961 4.9614v29.0619c0 3.0549-2.4868 5.5413-5.5416 5.5413z" fill="#6f7bbd"/><path d="m140.281 27.9023h-3.16c-4.317 0-7.816 3.4994-7.816 7.8163h18.792c0-4.3169-3.5-7.8163-7.816-7.8163z" fill="#b6bff0"/><path d="m148.097 34.0547h-18.792v7.8162h18.792z" fill="#6f7bbd"/><path d="m110.627 54.1035v69.2605c0 .79.291 1.552.818 2.14l24.565 23.537.395-.317 27.826-23.194c.602-.601.94-1.417.94-2.268v-69.1585c0-8.1505-6.608-14.7578-14.758-14.7578h-25.028c-8.151 0-14.758 6.6073-14.758 14.7578z" fill="#b6bff0"/><path d="m110.803 124.373c.137.414.35.801.645 1.131l24.723 23.823 28.063-23.797c.33-.33.571-.727.731-1.157z" fill="#b6bff0"/><path d="m160.528 128.535h-45.983v3.878h45.983z" fill="#6f7bbd"/><path d="m118.353 132.105h-3.376v37.568h3.376z" fill="#6f7bbd"/><path d="m160.775 132.105h-3.377v37.568h3.377z" fill="#6f7bbd"/><path d="m159.719 153.635h-43.371v1.741h43.371z" fill="#6f7bbd"/><path d="m165.197 54.0946h-54.769c-.735 0-1.33-.5949-1.33-1.3305 0-.7355.595-1.3305 1.33-1.3305h54.769c.735 0 1.331.595 1.331 1.3305 0 .7356-.596 1.3305-1.331 1.3305z" fill="#dce2fd"/><path d="m165.197 125.051h-54.769c-.735 0-1.33-.595-1.33-1.33s.595-1.33 1.33-1.33h54.769c.735 0 1.331.595 1.331 1.33s-.596 1.33-1.331 1.33z" fill="#dce2fd"/><g fill="#6f7bbd"><path d="m115.418 56.5076c0-.551-.447-.9978-.998-.9978s-.998.4468-.998.9978.447.9979.998.9979.998-.4469.998-.9979z"/><path d="m120.24 57.5055c.551 0 .998-.4468.998-.9979s-.447-.9978-.998-.9978-.998.4467-.998.9978.447.9979.998.9979z"/><path d="m125.728 57.5055c.551 0 .998-.4468.998-.9979s-.447-.9978-.998-.9978-.998.4467-.998.9978.447.9979.998.9979z"/><path d="m132.548 56.5076c0-.551-.446-.9978-.997-.9978s-.998.4468-.998.9978.447.9979.998.9979.997-.4469.997-.9979z"/><path d="m137.537 57.5055c.551 0 .998-.4468.998-.9979s-.447-.9978-.998-.9978-.998.4467-.998.9978.447.9979.998.9979z"/><path d="m143.355 57.5055c.551 0 .998-.4468.998-.9979s-.447-.9978-.998-.9978-.998.4467-.998.9978.447.9979.998.9979z"/><path d="m149.676 57.5055c.551 0 .997-.4468.997-.9979s-.446-.9978-.997-.9978c-.552 0-.998.4467-.998.9978s.446.9979.998.9979z"/><path d="m155.498 57.5055c.551 0 .998-.4468.998-.9979s-.447-.9978-.998-.9978-.998.4467-.998.9978.447.9979.998.9979z"/><path d="m162.398 56.5076c0-.551-.447-.9978-.998-.9978s-.998.4468-.998.9978.447.9979.998.9979.998-.4469.998-.9979z"/><path d="m158.49 50.1051c.551 0 .998-.4468.998-.9979s-.447-.9978-.998-.9978-.998.4467-.998.9978.447.9979.998.9979z"/><path d="m152.336 50.1051c.551 0 .998-.4468.998-.9979s-.447-.9978-.998-.9978-.998.4467-.998.9978.447.9979.998.9979z"/><path d="m147.347 49.1072c0-.551-.447-.9978-.998-.9978s-.997.4468-.997.9978c0 .5511.446.9979.997.9979s.998-.4468.998-.9979z"/><path d="m141.195 49.1072c0-.551-.447-.9978-.998-.9978s-.998.4468-.998.9978c0 .5511.447.9979.998.9979s.998-.4468.998-.9979z"/><path d="m134.877 50.1051c.551 0 .998-.4468.998-.9979s-.447-.9978-.998-.9978-.998.4467-.998.9978.447.9979.998.9979z"/><path d="m128.722 50.1051c.552 0 .998-.4468.998-.9979s-.446-.9978-.998-.9978c-.551 0-.997.4467-.997.9978s.446.9979.997.9979z"/><path d="m123.4 50.1051c.551 0 .998-.4468.998-.9979s-.447-.9978-.998-.9978-.998.4467-.998.9978.447.9979.998.9979z"/><path d="m117.246 50.1051c.551 0 .998-.4468.998-.9979s-.447-.9978-.998-.9978-.998.4467-.998.9978.447.9979.998.9979z"/><path d="m115.418 119.508c0-.551-.447-.998-.998-.998s-.998.447-.998.998.447.997.998.997.998-.446.998-.997z"/><path d="m120.24 120.505c.551 0 .998-.446.998-.997s-.447-.998-.998-.998-.998.447-.998.998.447.997.998.997z"/><path d="m125.728 120.505c.551 0 .998-.446.998-.997s-.447-.998-.998-.998-.998.447-.998.998.447.997.998.997z"/><path d="m132.548 119.508c0-.551-.446-.998-.997-.998s-.998.447-.998.998.447.997.998.997.997-.446.997-.997z"/><path d="m137.537 120.505c.551 0 .998-.446.998-.997s-.447-.998-.998-.998-.998.447-.998.998.447.997.998.997z"/><path d="m143.355 120.505c.551 0 .998-.446.998-.997s-.447-.998-.998-.998-.998.447-.998.998.447.997.998.997z"/><path d="m149.676 120.505c.551 0 .997-.446.997-.997s-.446-.998-.997-.998c-.552 0-.998.447-.998.998s.446.997.998.997z"/><path d="m155.498 120.505c.551 0 .998-.446.998-.997s-.447-.998-.998-.998-.998.447-.998.998.447.997.998.997z"/><path d="m162.398 119.508c0-.551-.447-.998-.998-.998s-.998.447-.998.998.447.997.998.997.998-.446.998-.997z"/></g><path d="m142.829 64.732c-.065-2.1377-1.85-3.8182-3.988-3.7536-2.137.0644-3.818 1.8497-3.753 3.9872.064 2.1377 1.85 3.8182 3.987 3.7537 2.138-.0646 3.818-1.8498 3.754-3.9873z" fill="#f0f0f0"/><path d="m139.087 69.1514c-2.372.0716-4.361-1.8005-4.433-4.1736-.071-2.3728 1.801-4.3612 4.173-4.4328 2.373-.0717 4.362 1.8004 4.433 4.1732.072 2.3729-1.8 4.3614-4.173 4.4332zm-.234-7.7411c-1.895.0572-3.39 1.6459-3.333 3.5413.057 1.8958 1.645 3.3916 3.541 3.3342 1.895-.0571 3.391-1.6458 3.334-3.5418-.057-1.8954-1.646-3.3911-3.542-3.3337z" fill="#3c251d"/><path d="m138.314 65.4594.846.582 1.5-3.266z" fill="#e2798b"/><path d="m114.641 90.4594c-.735 0-1.33-.595-1.33-1.3305v-26.3863c0-.7353.595-1.3305 1.33-1.3305s1.33.595 1.33 1.3305v26.3865c0 .7353-.595 1.3303-1.33 1.3303z" fill="#f0f0f0"/><path d="m114.586 112.634c-.735 0-1.33-.595-1.33-1.331v-15.9647c0-.7353.595-1.3305 1.33-1.3305s1.331.595 1.331 1.3305v15.9647c0 .736-.596 1.331-1.331 1.331z" fill="#f0f0f0"/><path d="m89.8412 52.2383h-1.1745c-.6466 0-1.1706.524-1.1706 1.1706v21.0781c0 .6466.524 1.1706 1.1706 1.1706h1.1745c.6466 0 1.1706-.524 1.1706-1.1706v-21.0781c.0002-.6464-.524-1.1706-1.1706-1.1706z" fill="#b6bff0"/><path d="m106.256 155.584h10.679l5.252 13.481h-10.679z" fill="#dba485"/><path d="m60.3027 155.584h10.6796l5.2521 13.481h-10.6795z" fill="#dba485"/><path d="m79.9477 73.1702c4.0685-.1228 7.267-3.5204 7.1442-7.5888-.1226-4.0685-3.5204-7.267-7.5888-7.1444-4.0685.1228-7.267 3.5204-7.1442 7.589.1226 4.0684 3.5204 7.267 7.5888 7.1442z" fill="#f0f0f0"/><path d="m71.535 66.0491c-.1364-4.5147 3.4268-8.2997 7.9436-8.4359 4.516-.1365 8.3008 3.4269 8.437 7.9417.1364 4.5166-3.4267 8.3016-7.9425 8.438-4.5168.1362-8.3018-3.4267-8.4381-7.9438zm14.7335-.4447c-.1088-3.6075-3.1327-6.4529-6.7402-6.3439-3.6085.1088-6.4551 3.1316-6.3461 6.7391.1087 3.6075 3.1326 6.4551 6.7409 6.3462 3.6078-.109 6.4544-3.1337 6.3454-6.7414z" fill="#3c251d"/><path d="m78.5588 64.5762-1.1076 1.6093 6.2161 2.8553z" fill="#e2798b"/><path d="m93.5833 73.9902h-22.8663c-.0487 0-.0881.0395-.0881.0882v4.7386h23.0619v-4.7192c0-.0593-.0483-.1076-.1075-.1076z" fill="#6f7bbd"/><path d="m29 121.154c0-18.225 7.4718-33.0017 17.6997-36.4819v-.1597c40.3673-14.7496 82.5983 0 82.5983 0l-6.437 36.5466 6.437 36.546s-41.8123 14.599-81.9965.213c-10.5346-3.096-18.3015-18.085-18.3015-36.664z" fill="#cf936d"/><path d="m47.3015 157.816c-10.5346-3.096-18.3015-18.085-18.3015-36.664 0-6.77 1.0327-13.062 2.8532-18.478 3.178-.719 6.5063-.721 9.7616-.412 7.6942.729 15.2248 3.137 21.9146 7.008 9.4817 5.485 17.1571 13.837 22.5443 23.376 5.3871 9.537 8.5495 20.233 10.0389 31.085.0029.021.0045.042.0072.063-14.3388 1.015-31.7249.142-48.8183-5.978z" fill="#cf936d" opacity=".28"/><path d="m92.7116 154.988c-10.2553.97-21.5591.548-34.5552-1.291-5.6509-.799-11.821-1.888-19.4162-3.43-.5882-.12-1.1772-.258-1.7656-.389.3459.479.7027.936 1.0664 1.379.1587.033.318.073.4767.105 7.6181 1.545 13.8089 2.64 19.4816 3.442 8.5357 1.207 16.349 1.807 23.6212 1.807 3.8766 0 7.5995-.17 11.1957-.51 10.9368-1.036 22.3998-5.649 32.1708-10.025l-.456-1.019c-9.688 4.339-21.044 8.912-31.8194 9.931z" fill="#cf936d"/><path d="m107.696 100.459c-20.4594-1.0646-41.6137-2.1654-61.9671 2.809-5.1941 1.269-10.3194 2.939-15.3315 4.669-.0931.421-.1806.846-.2646 1.275 5.188-1.798 10.4952-3.547 15.8624-4.86 20.1907-4.9337 41.2643-3.838 61.6418-2.778 3.782.198 7.692.401 11.51.919l.507.07 2.642-11.7348-.361-.2041c-14.742-8.3753-33.445-7.1719-48.092-5.1816-13.5177 1.8322-26.8285 5.7483-39.6837 11.6518-.2594.517-.5123 1.0434-.7543 1.5844 13.1319-6.1753 26.7523-10.254 40.5884-12.1298 14.3535-1.9466 32.6346-3.1434 47.0296 4.8446l-2.234 9.9255c-3.7-.476-7.457-.671-11.093-.86z" fill="#cf936d"/><path d="m88.2961 118.648c1.2591-.215 2.5182-.439 3.7773-.663 5.6649-1.006 11.5176-2.044 17.3376-2.242l4.616 21.472c-26.5391 7.765-54.5876 9.04-81.6739 3.815.1548.415.3146.825.4784 1.228 27.2192 5.138 55.3766 3.763 82.0085-4.118l.497-.147-5.029-23.393-.463.012c-6.055.159-12.111 1.234-17.967 2.273-1.2569.223-2.5129.447-3.7697.661-19.4961 3.329-39.3434 4.582-59.1063 3.776.0008.376.0074.75.0146 1.123 19.8203.801 39.7258-.461 59.2795-3.797z" fill="#cf936d"/><path d="m126.193 155.154c10.547 0 19.097-15.223 19.097-34.002 0-18.778-8.55-34.0016-19.097-34.0016s-19.097 15.2236-19.097 34.0016c0 18.779 8.55 34.002 19.097 34.002z" fill="#dba485"/><path d="m137.546 127.033c0-18.779-8.55-34.002-19.097-34.002-2.195 0-4.302.6682-6.265 1.8822 3.3-4.8496 7.532-7.7628 12.146-7.7628 10.547 0 19.097 15.2236 19.097 34.0016 0 14.87-5.363 27.502-12.831 32.12 4.244-6.236 6.95-15.675 6.95-26.239z" fill="#cf936d" opacity=".28"/><path d="m103.834 121.153c0-20.895 9.82-37.2624 22.357-37.2624s22.358 16.3674 22.358 37.2624c0 20.894-9.821 37.262-22.358 37.262s-22.357-16.368-22.357-37.262zm6.521 0c0 16.663 7.252 30.741 15.836 30.741s15.837-14.078 15.837-30.741-7.253-30.7414-15.837-30.7414c-8.584-.0002-15.836 14.0774-15.836 30.7414z" fill="#b07769"/><path d="m133.412 131.982h6.521v-11.372c0-1.8-1.461-3.26-3.261-3.26h-12.731v6.521h9.471z" fill="#b6bff0"/><path d="m132.732 128.838h8.019c.052 0 .095.043.095.095v3.652c0 .053-.042.096-.095.096h-8.019c-.052 0-.095-.043-.095-.096v-3.652c0-.052.043-.095.095-.095z" fill="#dce2fd"/><path d="m135.905 126.071c.001.402.014.817.185 1.18.2.426.619.741 1.083.816.464.074.961-.094 1.284-.436.44-.465.524-1.154.567-1.793.087-1.316.093-2.641-.075-3.949-.124-.964-.351-1.939-.886-2.75-.206-.312-.552-.626-.908-.511-.311.1-.433.467-.507.786-.502 2.18-.752 4.419-.743 6.657z" fill="#fff" opacity=".46"/><path d="m131.316 100.969h-2.795v16.418h2.795z" fill="#dce2fd"/><path d="m132.893 99.6773c.26-1.6084-.834-3.1229-2.442-3.3828s-3.123.8333-3.383 2.4417c-.26 1.6088.834 3.1228 2.442 3.3828s3.123-.833 3.383-2.4417z" fill="#3c251d"/><path d="m59.1619 155.584h-10.6793l-5.2521 13.481h10.6793z" fill="#dba485"/><path d="m102.758 155.584h-10.6797l-5.2521 13.481h10.6795z" fill="#dba485"/></svg>