<svg fill="none" height="196" viewBox="0 0 198 196" width="198" xmlns="http://www.w3.org/2000/svg"><path d="m192.846 137.046c-9.544 25.772-32.96 45.21-59.235 53.408-39.5367 12.336-95.4363 5.053-120.262-31.573-24.036-35.462-12.732694-83.6025 11.1162-116.229 16.752-22.9172 42.7216-39.61098 70.9561-42.304662 65.9637-6.293448 118.3607 74.256362 98.2067 134.478662-.249.745-.51 1.485-.782 2.22z" fill="#d5e3ec"/><path d="m53.1324 142.442c5.4272-.045 9.7909-4.48 9.7467-9.907l-.6886-84.6366-19.6534.16.6886 84.6366c.0443 5.427 4.4796 9.791 9.9067 9.747z" fill="#b6bff0"/><path d="m45.2091 140.526 15.8137-.129c.185-.001.3338-.153.3322-.338l-.5356-65.8363-16.4835.134.5356 65.8373c.0015.185.1526.333.3376.332z" fill="#f9edae"/><path d="m41.9974 49.9654 20.7628-.169c1.0897-.0088 1.974-.9076 1.9651-1.9973-.0088-1.0897-.9077-1.974-1.9973-1.965l-20.7629.1688c-1.0897.0088-1.974.9077-1.965 1.9973.0088 1.0897.9076 1.974 1.9973 1.9652z" fill="#d0d8f7"/><g fill="#fff"><path d="m47.9704 42.7064c1.208 0 2.1872-.9792 2.1872-2.1872 0-1.2079-.9792-2.1872-2.1872-2.1872s-2.1872.9793-2.1872 2.1872c0 1.208.9792 2.1872 2.1872 2.1872z"/><path d="m51.4824 33.8124c-.0036-.445.3542-.8087.7993-.8124.445-.0036.8086.3542.8122.7992.0037.4451-.3541.8088-.7992.8123-.4449.0036-.8086-.3542-.8123-.7991z"/><path d="m56.7493 55.3585c1.1688-1.1688 1.1688-3.0638 0-4.2326s-3.0638-1.1688-4.2326 0-1.1688 3.0638 0 4.2326 3.0638 1.1688 4.2326 0z"/><path d="m54.0317 67.6736c.2032-1.3838-.7539-2.6704-2.1377-2.8736-1.3839-.2033-2.6705.7538-2.8737 2.1377-.2032 1.3838.7539 2.6704 2.1377 2.8736 1.3839.2033 2.6705-.7538 2.8737-2.1377z"/><path d="m60.0098 63.3291c-.0032-.3815.3036-.6932.6851-.6963.3815-.003.6932.3037.6962.685.0032.3815-.3036.6932-.6851.6963-.3813.0031-.6931-.3036-.6962-.685z"/></g><path d="m104.808 46.1889.437-30.3935c.015-1.0129-.812-1.8453-1.846-1.8603l-6.7291-.097c-1.0341-.015-1.8847.7937-1.8991 1.8063l-.436 30.2654c-.0113.7895-.5333 1.4976-1.3081 1.7187-8.7867 2.5147-15.2666 10.3818-15.4023 19.8146l-1.4308 99.3249c-.0148 1.013.8112 1.846 1.8464 1.861l39.12.564c1.035.015 1.886-.794 1.9-1.807l1.431-99.3253c.134-9.2991-5.94-17.2525-14.457-20.1274-.752-.253-1.238-.9665-1.226-1.7444z" fill="#999924"/><path d="m85.2624 71.3322c-1.9766-.4877-3.8915-1.189-5.7968-1.9084-.0053.151-.0223.2986-.0246.4499l-1.3685 94.9963c-.0139.968.7402 1.766 1.6858 1.779l35.7417.515c.946.014 1.723-.761 1.737-1.73l1.369-94.9962c.005-.3291-.014-.652-.025-.9772-11.211.848-22.4499 4.5525-33.3186 1.8716z" fill="#b64959" opacity=".67"/><path d="m79.4588 79.3323-.9041 62.7767 39.3183.567.904-62.7775z" fill="#fff"/><path d="m87 83.1152 1.9856.0159 1.9511 6.3895h.0264l1.6899-6.3527 2.1623.021-2.9228 9.6476-1.901-.021z" fill="#202646"/><path d="m95.7479 83.1953 2.1359.021-.0897 9.6739-2.1359-.021z" fill="#202646"/><path d="m99.8241 83.2383 2.9019.0263 4.058 6.7585h.026l.064-6.7216 2.136.021-.09 9.6739-2.793-.0264-4.167-6.9271h-.026l-.064 6.8851-2.1356-.0158z" fill="#202646"/><path d="m118.5 99.2251c-2.829-.2687-5.676-.2192-8.388.5748-3.81 1.1151-7.322 3.9501-8.276 7.8041-1.194 4.822 1.567 10.63-1.504 14.534-1.8572 2.362-5.1916 2.961-8.1946 2.856-3.0024-.105-6.0385-.737-8.9832-.141-1.5872.321-3.059.996-4.3784 1.917l-.2211 15.341 39.3183.567z" fill="#de5f5f"/><path d="m86.4329 101.839c2.0206-1.035 4.589-1.111 6.5684-.09 3.4172 1.763 5.4059 6.198 5.1319 9.954-.3269 4.482-4.3606 7.846-8.7706 6.152-3.467-1.331-5.5267-5.22-6.1021-8.747-.462-2.832.5177-5.908 3.1724-7.269z" fill="#de5f5f"/><path d="m94.4563 74.0881c.1187-.0563.2355-.1148.3503-.1756 6.5884-3.4811 10.3894-20.081 1.0383-22.6887-1.7005-.4742-3.5583-.1312-5.1302.6733-5.7161 2.9261-13.7544 15.4233-7.4933 21.0215 2.8845 2.5791 7.8193 2.7898 11.2349 1.1695z" fill="#fff" opacity=".3"/><path d="m82.7575 161.87c.2115.027.4148.035.6005.039 1.7207.039 3.4207-.211 5.0559-.745l.826-.27-.5613-.663c-.9979-1.176-1.435-2.786-1.1704-4.304.244-1.402 1.0771-2.674 2.2548-3.468 3.18 2.167 5.9978 4.976 8.1626 8.146l.1626.238.2887.016c1.5637.082 3.1621-.173 4.6231-.735.571-.221 1.128-.489 1.684-.758 1.105-.535 2.149-1.04 3.274-1.14 1.796-.164 3.546.746 5.311 1.861-.075.051-.156.094-.24.126l.407 1.092c.519-.193.966-.584 1.227-1.073l.251-.472-.449-.292c-2.136-1.386-4.248-2.617-6.612-2.405-1.337.12-2.527.695-3.678 1.252-.526.255-1.054.511-1.595.719-1.221.471-2.548.701-3.8584.669-2.2974-3.295-5.2747-6.204-8.6246-8.425l-.3009-.199-.3136.18c-1.633.941-2.8005 2.611-3.1232 4.467-.2745 1.569.0648 3.218.9131 4.558-1.2674.334-2.5715.488-3.8866.459-.2678-.008-.552-.023-.8011-.098-.3173-.098-.6173-.313-.9343-.539l-4.2039-3.012c-1.3256-.949-2.6965-1.93-3.6084-3.266-.1179-.174-.2398-.373-.2466-.536-.0048-.143.0792-.332.1731-.529 1.001-2.096 2.3662-3.965 4.0574-5.553l.1558-.203c1.9271.23 3.894.537 5.7453 1.14l.4716.157c.7771.267 1.5807.543 2.4573.563 2.0673.059 3.8075-1.273 5.4144-2.641l4.0645-3.469c2.2995-1.96 4.9051-4.182 7.9971-4.931l.417-.099.028-.428c.027-.404.302-.802.67-.969l.81-.365-.657-.598c-1.238-1.126-2.568-2.174-3.953-3.116-.782-.531-1.7085-1.118-2.7861-1.361-2.3413-.516-4.5472.674-6.5116 1.728l-.3441.185c-3.7701 2.017-6.9253 2.585-9.3757 1.692 1.1279-1.262 1.6225-2.944 2.1043-4.579.0993-.337.1983-.672.3023-1.002.3829-1.211 1.5173-4.047 3.7832-4.211l-.0837-1.164c-2.9801.216-4.3583 3.586-4.813 5.025-.1061.335-.207.677-.3082 1.022-.5167 1.756-1.0511 3.571-2.386 4.633l-.703.558.7974.415c2.9156 1.518 6.6971 1.063 11.2315-1.36l.3475-.185c1.8708-1.005 3.8041-2.049 5.7023-1.618.8792.197 1.6929.717 2.3869 1.188 1.142.776 2.244 1.627 3.285 2.535-.281.288-.488.647-.593 1.038-3.191.888-5.7965 3.11-8.1062 5.079l-4.0645 3.469c-1.4924 1.271-2.969 2.41-4.6243 2.362-.7056-.017-1.3867-.252-2.1146-.5l-.4846-.163c-2.2752-.738-4.6476-1.028-6.944-1.308l-.0879.663-.0303-.033c-1.7972 1.689-3.2484 3.674-4.311 5.902-.1522.319-.2995.664-.287 1.071.0169.463.2372.843.4493 1.155 1.0295 1.506 2.5508 2.596 3.8931 3.558l4.2042 3.01c.3611.258.7708.552 1.2671.705.1747.054.3495.089.5192.11z" fill="#a8542e"/><path d="m74.0647 124.879c-3.9707.548-7.7645 2.317-10.7361 5.007-.2.181-.4021.374-.5005.625-.1468.374-.0317.806.173 1.151 1.0038 1.694 3.465 1.53 5.3961 1.149 1.698-.335 3.396-.671 5.0937-1.006 1.8618-.368 3.8561-.724 5.6045.013-.2076.351-.4154.701-.623 1.052-2.3958-1.065-5.4308-.463-7.2402 1.434 1.5577.641 3.1155 1.282 4.6736 1.924-4.038.006-7.8977-3.65-11.6763-2.227-.39.147-.772.356-1.0234.688-.4796.634-.3532 1.571.0843 2.234.4374.664 1.1223 1.116 1.7882 1.55 2.3526 1.534 4.705 3.067 7.0576 4.6-.1569.446-.8116.351-1.2416.156-4.6439-2.098-8.556-5.778-10.9338-10.285-.7918.095-.9623 1.158-.9238 1.954.1442 2.992.2881 5.982.4323 8.973.0812 1.686.187 3.453 1.0754 4.888.5316.858 1.3253 1.979.6357 2.717-2.7375-2.135-3.2561-6.03-3.2759-9.501-.0198-3.472.1736-7.208-1.7365-10.107-2.4275-3.684-7.2959-4.665-11.0819-6.93-1.9273-1.153-3.6237-2.691-4.9592-4.496-.1199-.162-.2412-.338-.2562-.539-.0149-.199.0775-.39.1742-.566.9589-1.739 2.5947-3.093 4.4825-3.71-1.0282 1.462-2.1086 3.182-1.6599 4.912.1957.755.6702 1.41 1.2159 1.967 2.3026 2.35 5.7583 3.087 8.5566 4.817 1.472.91 2.8087 2.119 4.4756 2.584 2.3091.643 4.7683-.281 6.8257-1.511 2.0577-1.23 3.9491-2.79 6.2028-3.606 1.2744-.462 2.781-.644 3.9206.089z" fill="#a8542e"/><path d="m75.2999 164.792c3.9071-1.49 5.8662-5.866 4.3758-9.773s-5.866-5.866-9.7731-4.376c-3.9071 1.491-5.8663 5.866-4.3758 9.773 1.4904 3.907 5.866 5.867 9.7731 4.376z" fill="#49647a"/><path d="m70.4935 157.108c-1.3205-1.528-1.1522-3.837.3761-5.158 1.5281-1.32 3.8375-1.152 5.158.377 1.3205 1.528 1.152 3.837-.3761 5.158-1.5284 1.32-3.8374 1.152-5.158-.377z" fill="#fff" opacity=".3"/><path d="m95.4028 152.919c4.1521-.497 7.1152-4.266 6.6182-8.418-.498-4.152-4.2667-7.115-8.4188-6.618-4.1522.497-7.1151 4.266-6.6179 8.418.4972 4.153 4.2663 7.115 8.4185 6.618z" fill="#49647a"/><path d="m92.3744 144.794c-1.3205-1.528-1.1523-3.837.3761-5.158 1.5281-1.32 3.8374-1.152 5.1579.376 1.3206 1.528 1.152 3.838-.376 5.158-1.5284 1.321-3.8375 1.152-5.158-.376z" fill="#fff" opacity=".3"/><path d="m112.836 137.373c.262-3.459-2.33-6.476-5.789-6.738s-6.475 2.33-6.737 5.789 2.33 6.476 5.789 6.738 6.475-2.33 6.737-5.789z" fill="#49647a"/><path d="m104.826 136.384c-1.095-1.267-.956-3.183.312-4.279 1.268-1.095 3.183-.955 4.279.312 1.095 1.268.956 3.184-.312 4.279-1.268 1.096-3.183.956-4.279-.312z" fill="#fff" opacity=".3"/><path d="m122.481 162.447c.372-3.449-2.122-6.546-5.571-6.918s-6.546 2.123-6.918 5.572 2.122 6.546 5.571 6.918 6.546-2.123 6.918-5.572z" fill="#49647a"/><path d="m114.484 161.248c-1.095-1.268-.955-3.184.312-4.279 1.268-1.096 3.184-.956 4.279.312 1.096 1.267.956 3.183-.312 4.278-1.268 1.096-3.183.956-4.279-.311z" fill="#fff" opacity=".3"/><path d="m79.5608 123.824c.2564-3.46-2.3403-6.472-5.7999-6.729-3.4596-.256-6.472 2.341-6.7283 5.801-.2564 3.459 2.3403 6.472 5.7999 6.728 3.4596.257 6.472-2.34 6.7283-5.8z" fill="#49647a"/><path d="m76.6822 121.913c.5768-1.573-.2307-3.316-1.8037-3.893s-3.3158.231-3.8926 1.804c-.5769 1.573.2307 3.315 1.8037 3.892s3.3158-.23 3.8926-1.803z" fill="#fff" opacity=".3"/><path d="m86.9912 126.537c3.8967 0 7.0556-3.159 7.0556-7.056 0-3.896-3.1589-7.055-7.0556-7.055-3.8968 0-7.0557 3.159-7.0557 7.055 0 3.897 3.1589 7.056 7.0557 7.056z" fill="#49647a"/><path d="m90.9995 116.818c.0757-1.88-1.3874-3.466-3.2679-3.542-1.8805-.075-3.4662 1.388-3.5419 3.268-.0756 1.881 1.3875 3.467 3.2679 3.542 1.8805.076 3.4663-1.387 3.5419-3.268z" fill="#fff" opacity=".3"/><path d="m96.6612 136.386c4.0918-.865 6.7078-4.883 5.8428-8.975-.865-4.091-4.883-6.707-8.9745-5.842-4.0916.865-6.7073 4.883-5.8425 8.974.8648 4.092 4.8827 6.707 8.9742 5.843z" fill="#6b8ea6"/><path d="m99.3708 126.237c.1418-2.015-1.3765-3.763-3.3911-3.904-2.0147-.142-3.7629 1.376-3.9046 3.39-.1418 2.015 1.3765 3.763 3.3912 3.905 2.0146.142 3.7628-1.377 3.9045-3.391z" fill="#fff" opacity=".3"/><path d="m63.2413 157.906c3.0413 0 5.5069-2.465 5.5069-5.507 0-3.041-2.4656-5.506-5.5069-5.506-3.0414 0-5.5069 2.465-5.5069 5.506 0 3.042 2.4655 5.507 5.5069 5.507z" fill="#6b8ea6"/><path d="m61.698 151.955c-.9603-1.111-.8379-2.791.2734-3.751s2.7909-.838 3.7512.273c.9603 1.112.8378 2.791-.2734 3.751-1.1116.961-2.7909.838-3.7512-.273z" fill="#fff" opacity=".3"/><path d="m111.441 154.374c3.856-1.618 5.671-6.055 4.054-9.911-1.617-3.857-6.054-5.672-9.911-4.055-3.856 1.617-5.6715 6.054-4.054 9.911 1.617 3.856 6.054 5.672 9.911 4.055z" fill="#6b8ea6"/><path d="m106.384 146.792c-1.32-1.528-1.152-3.837.376-5.158 1.528-1.32 3.838-1.152 5.158.376 1.321 1.528 1.152 3.838-.376 5.158-1.528 1.321-3.838 1.152-5.158-.376z" fill="#fff" opacity=".3"/><path d="m84.8125 143.306c3.6876-1.973 5.0778-6.561 3.1052-10.249-1.9725-3.688-6.561-5.078-10.2486-3.105-3.6875 1.972-5.0778 6.561-3.1052 10.248 1.9726 3.688 6.561 5.078 10.2486 3.106z" fill="#49647a"/><path d="m79.1067 136.019c-1.3205-1.528-1.152-3.838.3761-5.158 1.5281-1.321 3.8374-1.153 5.158.376 1.3205 1.528 1.1522 3.837-.3761 5.158-1.5284 1.32-3.8375 1.152-5.158-.376z" fill="#fff" opacity=".3"/><path d="m102.73 168.112c4.11-.773 6.815-4.732 6.042-8.841-.773-4.11-4.732-6.815-8.842-6.042s-6.8149 4.732-6.0417 8.842c.7733 4.11 4.7318 6.814 8.8417 6.041z" fill="#49647a"/><path d="m105.611 157.717c.023-2.02-1.595-3.676-3.614-3.699-2.0199-.023-3.6759 1.595-3.6991 3.614-.0232 2.02 1.5951 3.676 3.6151 3.699 2.019.023 3.675-1.595 3.698-3.614z" fill="#fff" opacity=".3"/><path d="m78.2411 150.528c2.607-1.827 3.2388-5.422 1.4112-8.029-1.8275-2.607-5.4225-3.239-8.0295-1.412-2.607 1.828-3.2389 5.423-1.4113 8.03s5.4225 3.239 8.0296 1.411z" fill="#6b8ea6"/><path d="m73.3318 145.347c-1.0052-1.164-.8771-2.922.2862-3.927 1.1636-1.006 2.9218-.877 3.9271.286 1.0055 1.164.8771 2.922-.2862 3.927-1.1636 1.006-2.9218.877-3.9271-.286z" fill="#fff" opacity=".3"/><path d="m88.3874 159.454c4.0924-.861 6.7119-4.876 5.8508-8.969-.861-4.092-4.8766-6.712-8.9689-5.851-4.0924.861-6.7119 4.877-5.8509 8.969.8611 4.093 4.8766 6.712 8.969 5.851z" fill="#6b8ea6"/><path d="m91.1072 149.179c.0741-2.018-1.5019-3.715-3.5203-3.789-2.0183-.074-3.7145 1.502-3.7886 3.52-.0742 2.018 1.5019 3.715 3.5202 3.789 2.0184.074 3.7146-1.502 3.7887-3.52z" fill="#fff" opacity=".3"/><path d="m92.463 164.584c.1424-3.419-2.5134-6.305-5.9318-6.448-3.4184-.142-6.305 2.514-6.4473 5.932-.1423 3.419 2.5134 6.305 5.9318 6.448 3.4184.142 6.305-2.514 6.4473-5.932z" fill="#49647a"/><path d="m89.7994 162.108c.1281-1.648-1.1036-3.087-2.7511-3.215s-3.0868 1.104-3.2149 2.751c-.128 1.647 1.1037 3.087 2.7511 3.215 1.6475.128 3.0868-1.104 3.2149-2.751z" fill="#fff" opacity=".3"/><path d="m39.4789 169.912c.4518-.883.7747-1.832.9554-2.808-2.857 1.895-5.7138 3.791-8.5706 5.686.0062-4.22-3.7623-7.756-3.7263-11.976-.459.679-.9182 1.357-1.3774 2.036-.6521-2.579-.2435-5.41 1.1116-7.699-.8427.779-1.5686 1.683-2.1463 2.675.36-5.06 4.5894-8.816 8.0179-12.556.2667-.29.5426-.61.5935-1.002.1129-.872-1.0063-1.47-1.8543-1.238-.8483.231-1.454.952-2.0642 1.584-3.3958 3.521-8.6129 5.18-13.4182 4.268 1.0912-.921 2.1821-1.841 3.2733-2.762-.9645.291-1.9293.581-2.8938.872 3.9019-4.253-.4816-12.125 3.262-16.518-.705.631-1.4099 1.262-2.1148 1.893 1.1723-2.676 3.0637-5.033 5.4226-6.757-.3871.132-.7742.263-1.1611.395 1.5349-1.93 3.9975-3.086 6.4627-3.035-.3181-.388-.6365-.776-.9546-1.164 2.4391-.361 4.9707-.717 7.3352-.018 2.3648.698 4.5161 2.767 4.4703 5.232-.0263 1.413-.714 2.982.0984 4.139.7499 1.068 2.4957 1.023 3.4534.137.9578-.886 1.225-2.32 1.0641-3.615.0433 1.367.5997 2.813 1.7795 3.506 1.1797.693 3.001.266 3.4265-1.034.4694-1.435-.8242-2.796-1.2215-4.252-.6102-2.238 1.1788-4.647 3.4226-5.236 2.2435-.589 4.6682.313 6.4547 1.792 1.7868 1.48 3.0556 3.476 4.2938 5.437-.4459-.363-1.0219-.564-1.5973-.556 1.3021 1.396 2.3291 3.047 3.0052 4.833-.343-.333-.8053-.54-1.2818-.574.254 1.961 1.2889 3.81 2.828 5.052-1.4198.089-2.8398.178-4.2596.268 1.4223 1.57 2.7669 3.341 3.1503 5.425.6854 3.727-1.8202 7.221-4.2271 10.148-2.4069 2.928-5.012 6.293-4.563 10.056-1.0086-1.313-1.4328-3.059-1.139-4.688-.3308.702-.6619 1.405-.9928 2.107-1.0179-1.054-1.5617-2.55-1.4582-4.012-.1711.362-.5695.602-.9688.586-.7157-1.713-.8488-3.663-.3724-5.457.3006-1.132.8107-2.428.1357-3.385-.8576-1.216-2.9693-.602-3.6403.726-.6707 1.328-.3628 2.918-.0396 4.371.4657 2.094.9312 4.187 1.3969 6.281-.3549-.405-.71-.81-1.0649-1.215.4499 1.728.5387 3.549.2587 5.313-.4482-.912-1.0205-1.762-1.6966-2.519-.0466 3.995-3.6222 6.927-6.8678 9.258z" fill="#b4ba42"/><path d="m38.2075 134.433c-.5172-.21-.9897-.509-1.3335-.927-.0939-.115.015-.304.1628-.223.8495.464 1.5835.913 2.4881 1.166 1.8937-.065 3.7065-.555 5.3412-2.218.0124-.34.026-.679.0271-1.025.0003-.116.1773-.12.1799-.003.0073.312-.0057.618-.0065.927.0746.021.1349.098.0885.182-.0272.049-.0625.089-.0911.137-.0025.203.002.407-.0042.608.0506-.058.1538-.041.168.057.4445 3.133 4.1911 2.811 6.1934 3.763.0246.012.0472.028.0715.04 1.2063-.236 2.3699-.522 3.5635-.897.1199-.037.1793.129.0831.194-.8463.579-1.8971.943-2.9524 1.085.8534.525 1.6251 1.198 2.276 1.945.1476.17.274.354.41.531.735.246 1.3593.83 2.1533 1.003 1.2227.266 2.3756-.109 3.5881-.127.1283-.002.2069.201.0735.259-.9397.409-2.1358.502-3.1458.389-.4739-.052-.934-.16-1.3726-.347-.2861-.122-.5417-.3-.7954-.48 1.5612 2.402 2.2206 5.379 2.2155 8.203-.0003.147-.2395.196-.265.039-.3961-2.434-.6597-4.944-1.8688-7.147-1.5201-2.769-3.7082-3.84-6.326-4.738 1.025 1.524 1.4896 3.749 1.3097 5.492-.0178.173-.2474.179-.27.005-.1374-1.056-.2401-2.111-.5404-3.138-.2584-.882-.6939-1.682-1.0202-2.533-.2531-.084-.5042-.167-.7646-.251-1.4885-.477-2.6976-1.212-2.813-2.71-.1037 2.082-.4006 4.103-.8839 6.084.5981 2.517 1.3661 4.788.1301 7.25-.0546.109-.2243.04-.1968-.075.3311-1.402.5811-2.681.3435-4.121-.1323-.802-.3051-1.597-.4498-2.397-.6001 2.256-1.4283 4.465-2.5059 6.652-.7324 1.486-1.4846 2.927-2.2045 4.376-.4012 3.421.964 6.733 1.4461 10.111.0155.109-.1541.126-.1847.028-.6896-2.211-1.2427-4.574-1.6066-6.863-.1259-.791-.1833-1.583-.1069-2.356-.8973 1.857-1.7207 3.746-2.3527 5.784-1.1596 3.739-1.9768 7.574-3.1695 11.307-.0461.145-.2621.095-.2307-.056.6755-3.255 1.3926-6.534 2.337-9.736-1.1568 1.664-2.3676 3.323-3.6242 4.894-.0613.077-.1827-.017-.1371-.1 1.1011-2.014 2.4634-4.156 4.0715-5.814.7019-2.24 1.5346-4.434 2.5611-6.546-.8732.74-1.8151 1.396-2.6397 2.197-1.1005 1.07-1.9808 2.309-2.8913 3.539-.0687.093-.2024-.021-.1569-.115.6337-1.315 1.5035-2.433 2.5316-3.466 1.0366-1.041 2.2658-1.742 3.3873-2.648.0085-.017.0153-.034.0237-.05 1.1676-2.31 2.2763-4.518 3.2352-6.733-2.2014 2.696-6.1468 4.697-9.0059 6.042-.1182.055-.214-.101-.1043-.176 3.083-2.125 7.2835-3.891 9.5739-6.97 1.4062-3.45 2.4044-6.964 2.6244-10.955-1.1619 1.644-3.1192 2.289-5.1376 2.394-.9532.049-1.8796.004-2.7952-.066-1.4257.57-2.5395 1.812-3.8532 2.623-.1013.063-.2172-.081-.131-.165.8811-.868 1.8929-1.681 2.9106-2.386.0721-.05.1481-.094.2222-.142-2.0817-.184-4.127-.401-6.308.135-.1495.037-.266-.19-.1119-.261 2.766-1.261 5.7274-.609 8.5664-.48z" fill="#000" opacity=".21"/><path d="m145.414 156.786c5.543-.046 10.001-4.576 9.956-10.119l-.704-86.4502-20.074.1634.703 86.4498c.045 5.543 4.576 10.001 10.119 9.956z" fill="#b6bff0"/><path d="m145.396 154.762c4.649-.038 8.388-3.838 8.35-8.487l-.482-59.1715-16.836.137.481 59.1715c.038 4.649 3.838 8.387 8.487 8.35z" fill="#e2798b"/><path d="m134.04 62.3273 21.208-.1726c1.113-.009 2.016-.9271 2.007-2.0401s-.927-2.0162-2.04-2.0071l-21.208.1726c-1.113.009-2.016.9271-2.007 2.0401.009 1.1129.927 2.0161 2.04 2.0071z" fill="#d0d8f7"/><path d="m141.718 54.2594c.872-.8725.872-2.287 0-3.1594-.873-.8725-2.287-.8725-3.16 0-.872.8724-.872 2.2869 0 3.1594.873.8724 2.287.8724 3.16 0z" fill="#fff"/><path d="m143.729 45.8298c-.004-.4546.361-.8261.816-.8298.454-.0037.826.3618.83.8164.003.4545-.362.826-.817.8297-.454.0036-.826-.3618-.829-.8163z" fill="#fff"/><path d="m149.106 67.8355c1.194-1.1939 1.194-3.1295 0-4.3234-1.194-1.1938-3.129-1.1938-4.323 0-1.194 1.1939-1.194 3.1295 0 4.3234s3.129 1.1939 4.323 0z" fill="#fff"/><path d="m145.599 81.876c1.01-1.0102 1.01-2.648 0-3.6582-1.011-1.0102-2.648-1.0102-3.659 0-1.01 1.0102-1.01 2.648 0 3.6582 1.011 1.0101 2.648 1.0101 3.659 0z" fill="#fff"/><path d="m153.818 76.1578c.102-.376-.12-.7636-.496-.8657s-.763.1199-.866.4959c-.102.376.12.7635.496.8657.376.1021.764-.1199.866-.4959z" fill="#fff"/></svg>