<svg fill="none" height="340" viewBox="0 0 386 340" width="386" xmlns="http://www.w3.org/2000/svg" xmlns:xlink="http://www.w3.org/1999/xlink"><clipPath id="a"><path d="m0 0h52.1102v51.9326h-52.1102z" transform="matrix(-1 0 0 1 351.262 198.113)"/></clipPath><path d="m334.754 236.767c-16.567 44.525-57.214 78.107-102.823 92.27-68.63 21.312-165.6649 8.73-208.759-54.548-41.7232-61.265-22.10207-144.435 19.2964-200.8016 29.0791-39.5928 74.1586-68.43359 123.1696-73.087335 114.504-10.872765 205.458 128.288935 170.474 232.331935-.432 1.287-.885 2.566-1.358 3.835z" fill="#f5dbda"/><path d="m266.965 315.549c-30.161-1.83-58.089-20.236-75.104-45.216-25.604-37.589-35.792-98.592-5.186-136.297 29.634-36.5055 83.891-39.9379 125.832-25.268 29.46 10.304 55.316 32.264 67.166 61.051 27.686 67.255-40.328 147.866-110.122 145.847-.863-.026-1.726-.064-2.586-.117z" fill="#f9ecec"/><path d="m376.151 339.999h-370.69758c-2.76657 0-5.005178-2.233-5.005178-4.987 0-2.755 2.238608-4.989 5.005178-4.989h370.69758c2.767 0 5.005 2.234 5.005 4.989.001 2.754-2.238 4.987-5.005 4.987z" fill="#b4ba42"/><path d="m212.24 88.3427-7.356-1.7455c-5.637-1.3375-9.615-6.3569-9.615-12.1315v-36.4032h-44.914v36.4032c0 5.7746-3.978 10.794-9.615 12.1315l-7.356 1.7455c-36.1307 8.5732-61.6291 40.7453-61.6291 77.7603l3.2438 69.655 46.9103 70.871h101.806l47.409-72.364 2.745-68.163c0-37.014-25.499-69.1865-61.629-77.7593z" fill="#b6bff0"/><path d="m273.114 169.794-11.115-11.076c9.729-9.696 22.545-36.384 20.271-59.2779-1.232-12.3991-6.704-21.9065-16.266-28.2599-31.804-21.1238-71.06 10.9258-71.455 11.2495l-10.062-12.0339c1.974-1.6371 48.777-39.7979 90.237-12.2504 13.476 8.9543 21.496 22.6998 23.189 39.7495 2.634 26.5191-10.82 57.9701-24.799 71.8991z" fill="#b6bff0"/><path d="m238.967 120.86c-19.64 4.407-34.848 19.575-52.925 28.402-21.305 10.402-46.019 11.656-69.624 9.296-13.171-1.317-26.4576-3.797-38.7951-8.445-1.3205 5.613-2.0311 11.44-2.0311 17.403l3.0905 66.366 44.6957 67.525h96.998l45.171-68.947 2.615-64.944c0-17.898-6.267-34.601-16.932-47.787-4.113-.117-8.236.227-12.263 1.131z" fill="#de5f5f"/><path d="m69.0117 206.662s98.0633 22.136 205.8573 0l-7.423 91.4c-1.472 18.131-16.629 32.121-34.882 32.195l-118.622.485c-18.0318.074-33.1934-13.467-35.0896-31.338z" fill="#cb8e61"/><path d="m65.8325 208.048c.0288-2.261 2.069-4.094 4.2638-4.667 2.1948-.574 4.5128-.18 6.7488.206 63.1959 10.912 128.4719 13.688 191.2689.691 4.64-.96 10.699-1.387 12.868 2.811 1.449 2.804.089 6.408-2.321 8.452-2.41 2.043-5.606 2.867-8.706 3.5-10.01 2.045-20.241 2.733-30.436 3.416-55.591 3.724-112.327 7.35-166.2502-6.621-3.2692-.847-6.9272-2.094-8.2688-5.184.9597-.254.8201-1.615.8325-2.604z" fill="#f9edae"/><path d="m72.385 215.52c4.1107-2.451 7.7025-5.855 11.1972-9.191.5143-.491 1.0247-.974 1.535-1.457-.9266-.149-1.852-.304-2.7773-.456-.1036.099-.2088.197-.3128.296-3.8839 3.708-7.8851 7.513-12.5037 9.83.9237.395 1.8971.707 2.8616.978z" fill="#eedcd2"/><path d="m115.055 209.016c-1.041-.119-2.085-.229-3.126-.354-5.93 4.673-12.5761 8.513-19.5677 11.301 1.3532.251 2.7103.477 4.0661.708 6.6856-3.015 13.0026-6.963 18.6276-11.655z" fill="#eedcd2"/><path d="m268.115 204.209c-1.002.208-2.011.376-3.013.576-.989 1.389-1.961 2.792-2.912 4.21-2.531 3.777-5.15 7.681-8.432 10.83-.596.571-1.222 1.113-1.864 1.637 1.248-.111 2.495-.232 3.74-.362 3.299-3.253 5.91-7.112 8.423-10.861 1.157-1.727 2.318-3.455 3.544-5.127.244-.332.489-.625.733-.942-.072.013-.149.024-.219.039z" fill="#eedcd2"/><path d="m134.525 219.644c2.974-2.419 6.01-4.916 8.073-8.101-.867-.06-1.734-.115-2.6-.18-1.823 2.406-4.3 4.439-6.894 6.547-2.447 1.992-4.93 4.033-6.849 6.452.922.074 1.846.13 2.769.197 1.595-1.723 3.516-3.3 5.501-4.915z" fill="#eedcd2"/><path d="m239.472 219.328c3.638-3.306 7.401-6.727 10.31-10.849.244-.346.476-.71.694-1.083-1.026.165-2.052.337-3.079.493-2.696 3.614-6.107 6.757-9.438 9.785-1.733 1.576-3.524 3.204-5.211 4.896-.089.09-.177.191-.268.285 1.149-.076 2.295-.152 3.442-.228 1.175-1.121 2.37-2.227 3.55-3.299z" fill="#eedcd2"/><path d="m227.382 211.78c.413-.482.843-.981 1.277-1.481-1.082.115-2.164.223-3.247.329-4.039 4.706-8.455 9.449-13.287 13.493 1.222-.07 2.443-.14 3.664-.214 4.179-3.766 8.035-7.966 11.593-12.127z" fill="#eedcd2"/><path d="m206.032 212.129c-.857.047-1.714.08-2.571.122-2.907 5.236-8.248 9.196-13.686 12.957 1.373-.052 2.746-.11 4.119-.168 4.903-3.557 9.611-7.625 12.138-12.911z" fill="#eedcd2"/><path d="m176.087 212.832c-1.082-.008-2.164.009-3.248-.006-4.932 4.629-10.558 9.367-16.796 12.884 1.434.019 2.869.01 4.304.017 5.881-3.801 11.135-8.477 15.74-12.895z" fill="#eedcd2"/><path d="m190.742 330.085c-4.008-4.873-9.871-7.889-14.192-12.49-11.284-12.012-11.366-30.338-21.071-43.399-18.525-24.931-52.257-36.07-82.9077-36.307l6.5276 61.517c1.8962 17.871 17.0578 31.412 35.0901 31.338l76.785-.314c-.087-.109-.143-.238-.232-.345z" fill="#cb8e61" opacity=".58"/><path d="m182.783 293.319c-27.113-.237-55.125-.514-82.598 1.955l-3.5225.324c-5.9761.56-12.0728 1.078-18.1107.986l.2993 2.819c.0048.045.0215.085.0267.13 6.0598.065 12.1227-.431 18.0639-.986l3.5113-.324c27.321-2.458 55.27-2.192 82.302-1.943 19.383.191 39.421.376 59.118-.44 8.406-.346 17.225-.913 25.945-2.368l.247-3.042c-8.806 1.521-17.771 2.101-26.32 2.449-19.627.81-39.625.62-58.962.44z" fill="#cb8e61"/><path d="m71.1643 226.953c32.2457 8.705 66.0257 8.552 98.7717 8.248l36.949-.318c13.069-.115 26.579-.231 39.758-2.429 3.836-.642 7.695-1.469 11.427-2.267 4.952-1.058 10.021-2.13 15.115-2.787l.244-3.005c-5.414.662-10.765 1.781-15.986 2.901-3.697.792-7.521 1.607-11.287 2.238-12.954 2.157-26.347 2.273-39.294 2.388l-36.95.318c-32.904.303-66.887.473-99.0819-8.439z" fill="#cb8e61"/><path d="m264.927 308.158c-19.31.891-39.274 1.809-58.908 2.04-13.215.157-26.667 0-39.672-.138-27.497-.31-55.746-.575-83.6458 1.954.5232.989 1.1933 1.877 1.8047 2.807 27.2511-2.367 54.8851-2.114 81.8131-1.801 13.028.145 26.515.295 39.735.139 19.219-.225 38.715-1.11 57.615-1.986.496-.963.851-2 1.258-3.015z" fill="#cb8e61"/><path d="m193.931 275.205c-11.909.052-24.223.104-36.317 1.116-5.066.422-10.19 1.018-15.147 1.59-5.559.654-11.316 1.319-16.98 1.741-16.353 1.192-32.824.369-48.9899-2.42l.3226 3.038c16.1505 2.715 32.5803 3.553 48.8883 2.332 5.727-.422 11.514-1.093 17.108-1.747 4.927-.572 10.028-1.168 15.042-1.584 11.978-1.001 24.234-1.053 36.085-1.105l75.144-.319.241-2.964z" fill="#cb8e61"/><path d="m74.925 246.427c7.5153 1.585 15.2918 3.215 23.1434 4.094 9.4656 1.065 18.9706 1.001 28.1396.966 24.455-.11 48.916-.266 73.371-.463 23.864-.2 48.502-.461 72.248-6.907l.254-3.123c-23.687 6.624-48.503 6.869-72.525 7.069-24.455.196-48.905.353-73.36.463-9.111.04-18.512.087-27.7972-.943-7.7125-.867-15.4133-2.487-22.859-4.048l-2.6755-.563.3282 3.09z" fill="#cb8e61"/><path d="m139.409 268.523c7.347-.191 14.989-.376 22.366-.336 5.35.035 10.701.191 16.057.353 14.601.422 29.684.879 44.413-1.312 3.894-.579 7.8-1.348 11.583-2.094 3.952-.775 8.038-1.579 12.077-2.163 8.085-1.162 16.316-1.43 24.461-.889l.24-2.95c-8.387-.556-16.83-.283-25.125.912-4.114.59-8.24 1.4-12.227 2.186-3.749.735-7.625 1.498-11.45 2.071-14.462 2.146-29.423 1.7-43.884 1.278-5.374-.162-10.754-.318-16.122-.353-7.422-.035-15.082.15-22.464.335-21.516.541-43.6719 1.027-64.5303-4.302l.3334 3.143c20.943 5.144 42.9529 4.657 64.2719 4.121z" fill="#cb8e61"/><path d="m192.409 15.998h-40.345c-.346 0-.626.2796-.626.6243v52.5454c0 .3446.28.6242.626.6242h40.345c.345 0 .626-.2796.626-.6242v-52.5454c0-.3451-.281-.6243-.626-.6243z" fill="#cb8e61"/><path d="m200.461 44.4023h-55.173c-.164 0-.298.1336-.298.2967v7.613c0 .1631.134.2967.298.2967h55.173c.164 0 .298-.1336.298-.2967v-7.613c0-.1631-.134-.2967-.298-.2967z" fill="#dce2fd"/><g fill="#b83535"><path d="m214.081 198.108c1.504 0 2.724-1.215 2.724-2.714s-1.22-2.714-2.724-2.714-2.724 1.215-2.724 2.714 1.22 2.714 2.724 2.714z"/><path d="m221.79 185.708c2.564-.415 4.306-2.823 3.89-5.379s-2.833-4.292-5.398-3.877c-2.564.415-4.306 2.823-3.89 5.379.417 2.556 2.833 4.292 5.398 3.877z"/><path d="m194.892 169.975c2.256 0 4.085-1.823 4.085-4.071 0-2.249-1.829-4.072-4.085-4.072s-4.085 1.823-4.085 4.072c0 2.248 1.829 4.071 4.085 4.071z"/><path d="m183.008 204.522c1.846 0 3.342-1.492 3.342-3.331 0-1.84-1.496-3.332-3.342-3.332s-3.343 1.492-3.343 3.332c0 1.839 1.497 3.331 3.343 3.331z"/><path d="m245.549 157.481c6.721-1.581 10.882-8.293 9.295-14.991s-8.321-10.845-15.042-9.264c-6.721 1.582-10.883 8.294-9.296 14.991 1.587 6.698 8.322 10.846 15.043 9.264z"/><path d="m246.393 194.654c2.119 0 3.838-1.713 3.838-3.825 0-2.113-1.719-3.825-3.838-3.825-2.12 0-3.838 1.712-3.838 3.825 0 2.112 1.718 3.825 3.838 3.825z"/><path d="m172.484 182.067c0-.954-.775-1.727-1.733-1.727-.957 0-1.733.773-1.733 1.727s.775 1.728 1.733 1.728 1.733-.774 1.733-1.728z"/><path d="m157.643 197.397c2.927-.689 4.74-3.613 4.049-6.531s-3.625-4.724-6.553-4.035-4.741 3.613-4.049 6.53c.691 2.918 3.625 4.725 6.553 4.036z"/><path d="m135.342 198.847c2.052 0 3.714-1.658 3.714-3.702s-1.662-3.702-3.714-3.702c-2.051 0-3.714 1.658-3.714 3.702s1.663 3.702 3.714 3.702z"/><path d="m171.246 161.216c0-.613-.498-1.111-1.114-1.111-.615 0-1.114.498-1.114 1.111s.498 1.111 1.114 1.111 1.114-.497 1.114-1.111z"/><path d="m105.021 193.749c1.073-2.581-.157-5.541-2.747-6.61-2.5899-1.069-5.5593.157-6.6322 2.738-1.0728 2.581.1571 5.541 2.7472 6.61 2.59 1.069 5.56-.157 6.632-2.738z"/><path d="m88.4204 177.132c1.7094 0 3.0952-1.381 3.0952-3.084 0-1.704-1.3858-3.085-3.0952-3.085-1.7095 0-3.0952 1.381-3.0952 3.085 0 1.703 1.3857 3.084 3.0952 3.084z"/><path d="m119.246 166.394c0-1.022-.832-1.851-1.858-1.851-1.025 0-1.857.828-1.857 1.851 0 1.022.832 1.851 1.857 1.851 1.026 0 1.858-.829 1.858-1.851z"/><path d="m127.171 179.35c3.692 0 6.685-2.982 6.685-6.662s-2.993-6.663-6.685-6.663c-3.693 0-6.686 2.983-6.686 6.663s2.993 6.662 6.686 6.662z"/><path d="m117.515 200.95c0-.886-.72-1.604-1.609-1.604s-1.609.718-1.609 1.604c0 .885.72 1.604 1.609 1.604.889-.001 1.609-.719 1.609-1.604z"/><path d="m208.385 147.279c0-.409-.333-.74-.743-.74s-.743.331-.743.74.333.741.743.741.743-.332.743-.741z"/><path d="m215.567 159.61c2.051 0 3.714-1.657 3.714-3.701 0-2.045-1.663-3.702-3.714-3.702-2.052 0-3.714 1.657-3.714 3.702 0 2.044 1.662 3.701 3.714 3.701z"/></g><path d="m170.235 109.93c-5.068-6.599-13.086-11.0769-22.488-12.2337-10.227-1.2587-20.703 1.5122-29.656 6.5957-20.2843 11.518-40.4519 44.361-26.4081 67.044 4.7281 7.636 13.0691 11.692 21.6841 13.311 29.854 5.612 56.424-24.337 61.963-51.125 1.881-9.098-.269-17.307-5.095-23.592z" fill="#fff" opacity=".44"/><path d="m95.6315 252.947c-.2971.284-.5556.58-.7876.852-2.1483 2.528-3.8377 5.375-5.0223 8.468l-.5989 1.562 1.6772-.037c2.9782-.07 5.9268 1.225 7.8858 3.459 1.8083 2.062 2.7073 4.849 2.4683 7.571-7.1158 2.137-14.7568 2.952-22.1466 2.356l-.5551-.045-.3748.413c-2.0224 2.24-3.5812 4.941-4.511 7.807-.3621 1.123-.636 2.281-.9066 3.438-.5381 2.3-1.0487 4.474-2.2645 6.279-1.9347 2.886-5.4267 4.403-9.2453 5.695.0132-.173.0481-.346.1025-.511l-2.1361-.713c-.3393 1.01-.2954 2.153.1211 3.135l.4049.947.9832-.319c4.6765-1.518 9.0904-3.189 11.6425-6.984 1.4441-2.145 2.0251-4.622 2.5875-7.018.2569-1.096.5128-2.197.858-3.258.7754-2.396 2.043-4.661 3.6817-6.584 7.7377.55 15.7227-.384 23.1266-2.708l.665-.209.111-.687c.57-3.582-.519-7.351-2.916-10.082-2.0225-2.31-4.9092-3.797-7.9534-4.151 1.0382-2.3 2.3903-4.439 4.0321-6.371.3368-.391.7052-.798 1.1191-1.081.5323-.356 1.2195-.545 1.9447-.745l9.6285-2.646c3.035-.835 6.173-1.699 9.288-1.446.403.034.851.093 1.104.28.22.166.403.52.584.9 1.931 4.034 3.08 8.339 3.411 12.793l.115.479c-2.687 2.605-5.536 5.177-8.689 7.218l-.81.515c-1.344.84-2.735 1.709-3.829 2.996-2.6 3.023-2.713 7.239-2.611 11.3l.273 10.281c.15 5.814.321 12.403-2.31 17.936l-.357.744.609.561c.572.529.836 1.422.639 2.175l-.434 1.654 1.695-.26c3.194-.489 6.384-1.211 9.481-2.144 1.748-.527 3.754-1.203 5.428-2.522 3.619-2.878 4.51-7.62 5.314-11.836l.14-.739c1.552-8.082 4.529-13.493 8.848-16.078.523 3.215 2.449 5.991 4.319 8.692.385.556.769 1.11 1.137 1.664 1.354 2.04 4.235 7.17 1.728 10.76l1.851 1.284c3.295-4.721-.091-10.863-1.7-13.285-.375-.565-.766-1.13-1.161-1.699-2.009-2.899-4.086-5.896-4.059-9.178l.015-1.728-1.591.691c-5.821 2.525-9.731 8.734-11.6 18.453l-.144.745c-.763 4.016-1.544 8.173-4.497 10.492-1.364 1.077-3.132 1.666-4.682 2.134-2.552.769-5.169 1.389-7.797 1.849-.091-.77-.38-1.515-.84-2.145 2.543-5.85 2.372-12.439 2.22-18.279l-.272-10.282c-.096-3.772-.013-7.36 2.069-9.78.883-1.035 2.064-1.77 3.32-2.559l.833-.528c3.871-2.511 7.187-5.711 10.399-8.808l-.89-.934.086-.006c-.352-4.733-1.571-9.309-3.626-13.596-.293-.612-.633-1.251-1.26-1.726-.716-.535-1.553-.664-2.279-.724-3.512-.283-6.997.674-10.071 1.519l-9.6265 2.648c-.8267.227-1.765.485-2.5975 1.043-.2913.197-.5561.416-.7945.643z" fill="#a8542e"/><path d="m161.734 284.712c4.001-6.605 5.952-14.424 5.522-22.127-.029-.518-.074-1.055-.331-1.506-.383-.672-1.171-1.022-1.939-1.134-3.761-.548-6.506 3.333-8.278 6.684-1.559 2.947-3.118 5.894-4.676 8.841-1.709 3.232-3.596 6.647-6.828 8.371-.274-.735-.548-1.47-.822-2.205 4.509-2.297 7.292-7.567 6.641-12.571-2.855 1.555-5.71 3.111-8.565 4.666 4.894-6.05 15.073-7.401 17.524-14.779.253-.761.404-1.586.211-2.364-.369-1.485-1.93-2.43-3.457-2.578-1.528-.149-3.04.329-4.5.8-5.16 1.664-10.319 3.328-15.479 4.993-.478-.774.459-1.638 1.274-2.046 8.791-4.41 19.068-5.811 28.724-3.913.819-1.3-.569-2.842-1.812-3.748-4.667-3.405-9.333-6.81-13.999-10.215-2.63-1.918-5.412-3.9-8.645-4.307-1.934-.243-4.582-.413-4.852-2.337 6.531-1.513 13.008 2.425 18.245 6.598s10.613 8.985 17.286 9.635c8.48.827 15.866-5.272 23.865-8.196 4.073-1.489 8.443-2.165 12.776-1.978.389.017.799.047 1.12.268.318.219.492.588.638.946 1.447 3.54 1.494 7.627.127 11.199-.946-3.308-2.217-7.008-5.36-8.431-1.372-.62-2.931-.703-4.431-.561-6.324.602-11.629 4.881-17.625 6.975-3.154 1.102-6.594 1.638-9.316 3.57-3.771 2.677-5.369 7.476-6.022 12.044-.653 4.567-.608 9.287-2.118 13.647-.856 2.467-2.412 4.942-4.898 5.759z" fill="#a8542e"/><path d="m116.049 257.29c8.01-1.032 13.666-8.34 12.634-16.323-1.032-7.984-8.363-13.619-16.373-12.587s-13.6665 8.34-12.6342 16.323c1.0322 7.983 8.3622 13.618 16.3732 12.587z" fill="#6f7bbd"/><path d="m118.28 254.453c3.897-.186 6.904-3.484 6.718-7.367s-3.495-6.881-7.391-6.695c-3.897.185-6.904 3.483-6.718 7.366s3.495 6.881 7.391 6.696z" fill="#fff" opacity=".3"/><path d="m118.002 298.927c4.695-6.55 3.173-15.652-3.399-20.331s-15.7051-3.163-20.4 3.387c-4.6949 6.549-3.1733 15.652 3.3986 20.331 6.5714 4.679 15.7054 3.162 20.4004-3.387z" fill="#6f7bbd"/><path d="m116.643 296.596c.878-3.787-1.491-7.567-5.291-8.442-3.801-.875-7.593 1.486-8.471 5.273-.878 3.788 1.491 7.568 5.291 8.443 3.801.875 7.593-1.486 8.471-5.274z" fill="#fff" opacity=".3"/><path d="m113.066 327.165c4.581-4.872 4.332-12.523-.557-17.089s-12.5666-4.317-17.1481.555c-4.5814 4.872-4.3321 12.524.5569 17.089 4.8892 4.566 12.5662 4.318 17.1482-.555z" fill="#6f7bbd"/><path d="m107.094 316.822c3.234-.105 5.941 2.422 6.046 5.646.105 3.223-2.431 5.92-5.666 6.025-3.234.105-5.941-2.422-6.046-5.646-.105-3.223 2.432-5.921 5.666-6.025z" fill="#fff" opacity=".3"/><path d="m67.1712 303.646c.2589-6.672-4.9583-12.29-11.6529-12.549-6.6947-.259-12.3316 4.94-12.5905 11.612-.2589 6.671 4.9582 12.29 11.6529 12.549 6.6946.258 12.3316-4.94 12.5905-11.612z" fill="#6f7bbd"/><path d="m58.033 301.181c3.234-.105 5.9409 2.423 6.0461 5.646s-2.431 5.921-5.6656 6.026c-3.234.105-5.9409-2.423-6.0461-5.647-.1047-3.223 2.4316-5.92 5.6656-6.025z" fill="#fff" opacity=".3"/><path d="m173.521 293.936c4.737-4.722 4.737-12.377 0-17.098-4.738-4.722-12.419-4.722-17.157 0-4.737 4.721-4.737 12.376 0 17.098 4.738 4.721 12.419 4.721 17.157 0z" fill="#6f7bbd"/><path d="m167.853 283.372c3.234-.105 5.941 2.423 6.046 5.647.106 3.223-2.431 5.92-5.665 6.025s-5.941-2.423-6.046-5.646c-.105-3.224 2.431-5.921 5.665-6.026z" fill="#fff" opacity=".3"/><path d="m166.026 317.212c3.699-6.532 1.384-14.816-5.17-18.502-6.555-3.686-14.867-1.38-18.566 5.152s-1.384 14.816 5.17 18.502c6.555 3.687 14.867 1.38 18.566-5.152z" fill="#6f7bbd"/><path d="m158.373 321.466c3.609-.428 6.186-3.692 5.755-7.288-.43-3.597-3.705-6.166-7.315-5.737-3.609.428-6.186 3.692-5.755 7.289.431 3.596 3.706 6.165 7.315 5.736z" fill="#fff" opacity=".3"/><path d="m142.093 319.593c4.62-6.603 2.994-15.688-3.631-20.292s-15.741-2.984-20.361 3.619-2.994 15.687 3.631 20.291 15.741 2.984 20.361-3.618z" fill="#49647a"/><path d="m133.777 322.845c3.9 0 7.062-3.152 7.062-7.039s-3.162-7.038-7.062-7.038c-3.901 0-7.063 3.151-7.063 7.038s3.162 7.039 7.063 7.039z" fill="#fff" opacity=".3"/><path d="m141.454 242.228c3.938-4.344 3.597-11.046-.761-14.971-4.359-3.924-11.084-3.584-15.022.759-3.938 4.344-3.597 11.046.762 14.971 4.358 3.924 11.083 3.584 15.021-.759z" fill="#49647a"/><path d="m137.712 243.44c2.722-.795 4.283-3.638 3.486-6.351-.797-2.714-3.651-4.269-6.373-3.475-2.723.795-4.283 3.638-3.486 6.351.797 2.714 3.65 4.269 6.373 3.475z" fill="#fff" opacity=".3"/><path d="m96.9685 318.827c5.4415-5.948 5.0155-15.167-.9535-20.59-5.9685-5.424-15.2185-4.998-20.6605.95-5.4419 5.948-5.0151 15.167.9535 20.59 5.9685 5.423 15.2185 4.998 20.6605-.95z" fill="#49647a"/><path d="m95.9624 317.129c1.937-3.374.7627-7.674-2.6231-9.605-3.3857-1.93-7.7006-.76-9.6377 2.615-1.937 3.374-.7626 7.674 2.6231 9.604 3.3857 1.931 7.7007.76 9.6377-2.614z" fill="#fff" opacity=".3"/><path d="m145.718 291.51c5.711-5.691 5.711-14.919 0-20.61-5.711-5.692-14.97-5.692-20.681 0-5.711 5.691-5.711 14.919 0 20.61 5.711 5.692 14.97 5.692 20.681 0z" fill="#6f7bbd"/><path d="m145.269 289.35c1.937-3.374.763-7.674-2.623-9.605-3.386-1.93-7.701-.76-9.638 2.614s-.762 7.675 2.623 9.605c3.386 1.931 7.701.76 9.638-2.614z" fill="#fff" opacity=".3"/><path d="m86.9386 290.557c4.6198-6.602 2.9941-15.687-3.631-20.291-6.6252-4.604-15.741-2.984-20.3607 3.619-4.6198 6.602-2.9942 15.687 3.631 20.291s15.741 2.984 20.3607-3.619z" fill="#6f7bbd"/><path d="m78.6222 293.815c3.9006 0 7.0627-3.151 7.0627-7.038s-3.1621-7.039-7.0627-7.039-7.0626 3.152-7.0626 7.039 3.162 7.038 7.0626 7.038z" fill="#fff" opacity=".3"/><path d="m135.103 270.065c5.21-3.255 6.785-10.103 3.519-15.295-3.267-5.191-10.138-6.761-15.348-3.506-5.209 3.255-6.784 10.103-3.518 15.295 3.267 5.192 10.138 6.761 15.347 3.506z" fill="#49647a"/><path d="m131.896 258.841c2.968-.096 5.453 2.224 5.549 5.182.097 2.958-2.231 5.434-5.199 5.53-2.969.097-5.453-2.223-5.55-5.182-.096-2.958 2.232-5.434 5.2-5.53z" fill="#fff" opacity=".3"/><path d="m116.187 280.748c5.464-5.927 5.071-15.146-.876-20.592-5.948-5.445-15.198-5.054-20.6622.873-5.4637 5.928-5.0715 15.147.876 20.592 5.9472 5.445 15.1982 5.054 20.6622-.873z" fill="#49647a"/><path d="m109.181 282.552c3.9 0 7.063-3.152 7.063-7.039s-3.163-7.038-7.063-7.038c-3.901 0-7.063 3.151-7.063 7.038s3.162 7.039 7.063 7.039z" fill="#fff" opacity=".3"/><path d="m98.9782 258.848c2.0028-6.275-1.478-12.98-7.7748-14.976-6.2969-1.996-13.0251 1.473-15.028 7.748s1.478 12.981 7.7748 14.977 13.0251-1.473 15.028-7.749z" fill="#6f7bbd"/><path d="m95.1037 262.827c2.1007-2.394 1.8556-6.033-.5472-8.126-2.4029-2.094-6.0537-1.85-8.1543.545-2.1007 2.395-1.8557 6.033.5472 8.127 2.4029 2.093 6.0537 1.849 8.1543-.546z" fill="#fff" opacity=".3"/><path d="m136.118 178.441c.777 1.745 1.81 3.377 3.056 4.829.623-6.57 1.247-13.14 1.871-19.709 6.33 5.117 16.216 3.757 22.509 8.919-.461-1.508-.922-3.016-1.383-4.525 4.664 2.146 8.419 6.184 10.211 10.983-.145-2.204-.623-4.385-1.409-6.449 7.161 6.664 7.664 17.539 9.115 27.196.113.752.257 1.551.784 2.101 1.172 1.225 3.43.274 4.112-1.276.682-1.549.336-3.328.127-5.007-1.161-9.343 2.684-19.159 9.89-25.246.057 2.748.114 5.495.172 8.242.735-1.795 1.47-3.591 2.205-5.386 1.647 10.987 18.791 13.956 20.841 24.875-.092-1.819-.183-3.637-.275-5.457 2.595 4.994 3.838 10.678 3.561 16.294.272-.738.545-1.477.817-2.215 1.034 4.633-.221 9.718-3.292 13.345.97-.006 1.939-.012 2.909-.019-2.421 4.087-4.962 8.306-8.883 10.999-3.921 2.694-9.641 3.409-13.287.356-2.09-1.75-3.611-4.678-6.335-4.863-2.515-.17-4.567 2.497-4.4 5.004.167 2.506 1.996 4.641 4.135 5.968-2.106-1.591-4.952-2.507-7.425-1.581-2.474.926-4.045 4.169-2.61 6.38 1.584 2.439 5.2 2.15 7.869 3.319 4.101 1.795 5.546 7.389 3.705 11.459-1.84 4.07-6.141 6.607-10.532 7.49s-8.929.365-13.379-.156c1.088-.227 2.089-.846 2.776-1.717-3.678.259-7.406-.203-10.908-1.352.916-.111 1.789-.552 2.419-1.224-3.253-1.994-7.287-2.683-11.021-1.883 1.591-2.233 3.181-4.466 4.771-6.699-4.086.227-8.377.097-11.972-1.853-6.43-3.485-8.632-11.464-10.105-18.61-1.473-7.145-3.361-15.117-9.558-19.001 3.197.08 6.334 1.559 8.424 3.971-.653-1.345-1.306-2.691-1.958-4.036 2.819-.248 5.725.749 7.794 2.673-.334-.693-.212-1.58.298-2.158 3.441 1.002 6.531 3.163 8.646 6.048 1.334 1.82 2.661 4.152 4.917 4.3 2.868.189 4.512-3.714 3.332-6.325-1.18-2.612-3.942-4.076-6.515-5.351-3.71-1.838-7.419-3.675-11.129-5.513 1.039-.041 2.078-.082 3.118-.123-3.141-1.419-5.984-3.49-8.292-6.043 1.913.432 3.885.604 5.844.51-5.943-4.906-6.002-13.805-5.56-21.484z" fill="#b4ba42"/><path d="m190.939 219.494c.943-.52 1.967-.865 3.012-.873.285-.003.437.39.136.513-1.729.709-3.295 1.264-4.773 2.312-2.203 2.913-3.669 6.219-3.156 10.678.494.429.986.86 1.506 1.281.173.141-.036.41-.215.274-.477-.367-.921-.757-1.384-1.133-.121.088-.31.084-.381-.087-.041-.1-.058-.201-.095-.302-.3-.249-.613-.49-.907-.742.025.146-.125.28-.291.182-5.243-3.127-9.311 2.87-13.172 4.714-.047.022-.099.037-.146.059-1.112 2.089-2.095 4.178-2.983 6.417-.089.224-.41.113-.392-.111.159-1.967.889-3.98 1.957-5.731-1.824.643-3.772.982-5.685 1.052-.433.016-.863-.017-1.295-.029-1.261.802-2.897 1.029-4.121 2.009-1.884 1.507-2.721 3.687-4.167 5.523-.153.194-.553.067-.478-.204.527-1.901 1.841-3.803 3.236-5.179.654-.646 1.375-1.203 2.189-1.633.531-.28 1.108-.448 1.686-.61-5.503-.571-10.773-3.187-15.008-6.614-.22-.178-.003-.596.263-.444 4.137 2.355 8.225 4.998 13.002 5.855 6.005 1.078 10.27-.901 14.798-3.731-3.533-.311-7.439-2.309-9.837-4.688-.238-.236.032-.587.321-.41 1.753 1.073 3.462 2.196 5.367 2.989 1.64.682 3.369.998 5.044 1.54.433-.278.863-.552 1.305-.841 2.525-1.65 5.097-2.57 7.486-.929-3-2.675-5.675-5.567-8.061-8.687-4.507-2.152-8.85-3.752-11.046-8.582-.097-.214.212-.385.353-.203 1.703 2.192 3.32 4.114 5.77 5.501 1.366.773 2.769 1.477 4.146 2.228-2.658-3.628-4.969-7.541-6.945-11.801-1.342-2.895-2.592-5.765-3.894-8.596-4.65-4.741-11.281-6.707-16.94-10.075-.182-.108-.001-.382.184-.309 4.156 1.643 8.377 3.677 12.257 5.903 1.34.768 2.598 1.64 3.667 2.691-1.699-3.59-3.535-7.109-5.827-10.522-4.206-6.261-8.973-12.126-13.13-18.43-.161-.244.176-.506.365-.277 4.066 4.951 8.12 9.993 11.781 15.282-1.094-3.745-2.114-7.565-2.947-11.348-.041-.185.248-.252.317-.083 1.687 4.085 3.248 8.717 3.785 13.13 2.512 3.762 4.793 7.663 6.718 11.756-.05-2.202.109-4.405-.093-6.61-.27-2.942-1.061-5.759-1.802-8.61-.055-.215.277-.278.364-.096 1.204 2.54 1.827 5.195 2.129 7.984.305 2.812-.136 5.499-.138 8.275.015.032.033.063.047.096 2.05 4.542 4.018 8.873 6.18 12.991-1.376-6.559.413-14.884 1.866-20.791.061-.244.411-.199.392.057-.555 7.185-3.005 15.609-1.163 22.764 3.472 6.28 7.537 12.029 13.263 17.188-1.058-3.729.351-7.438 2.646-10.586 1.083-1.487 2.276-2.818 3.494-4.103.874-2.824.363-5.995.741-8.942.029-.227.384-.227.407.005.232 2.368.225 4.867.047 7.243-.012.168-.039.336-.057.504 2.804-2.893 5.614-5.691 7.458-9.604.127-.268.61-.167.528.149-1.466 5.667-6.043 9.308-9.684 13.401z" fill="#000" opacity=".21"/><path d="m324.387 281.669c7.603.039 13.799-6.072 13.838-13.649l.614-118.17-27.534-.142-.614 118.17c-.039 7.577 6.093 13.752 13.696 13.791z" fill="#b6bff0"/><path d="m319.208 278.908c3.741 1.745 6.806 1.675 10.576-.007 3.155-1.408 6.355-5.881 6.357-6.139s.666-86.15.666-86.15l-23.092-.19-.667 86.15c-.002.259 3.029 4.875 6.16 6.336z" fill="#f9edae"/><path d="m309.669 152.557 29.088-.236c1.527-.012 2.766-1.267 2.753-2.788-.012-1.522-1.271-2.756-2.798-2.744l-29.088.236c-1.526.012-2.765 1.267-2.753 2.789.013 1.521 1.272 2.756 2.798 2.743z" fill="#d0d8f7"/><path d="m318.03 142.422c1.692 0 3.064-1.367 3.064-3.054 0-1.686-1.372-3.054-3.064-3.054s-3.064 1.368-3.064 3.054c0 1.687 1.372 3.054 3.064 3.054z" fill="#fff"/><path d="m322.953 130.001c-.005-.621.496-1.129 1.12-1.134.623-.005 1.133.495 1.138 1.116s-.496 1.129-1.12 1.134c-.623.005-1.133-.494-1.138-1.116z" fill="#fff"/><path d="m330.329 160.086c1.638-1.632 1.638-4.278 0-5.91-1.637-1.632-4.292-1.632-5.93 0-1.637 1.632-1.637 4.278 0 5.91 1.638 1.631 4.293 1.631 5.93 0z" fill="#fff"/><path d="m326.524 177.279c.284-1.932-1.057-3.728-2.995-4.012-1.939-.284-3.741 1.052-4.026 2.985-.285 1.932 1.056 3.728 2.995 4.012 1.938.284 3.741-1.053 4.026-2.985z" fill="#fff"/><path d="m334.903 171.216c-.004-.532.426-.968.96-.972.535-.004.971.424.976.957.004.532-.426.967-.96.972-.535.004-.971-.424-.976-.957z" fill="#fff"/><g clip-path="url(#a)"><path d="m320.483 224.08-20.352-20.283c-1.306-1.301-1.306-3.407 0-4.708 1.305-1.301 3.418-1.301 4.724 0l20.352 20.283 20.352-20.283c1.305-1.301 3.418-1.301 4.724 0 1.305 1.301 1.305 3.407 0 4.708l-20.352 20.283 20.352 20.282c1.302 1.298 1.302 3.41 0 4.708-1.306 1.301-3.419 1.301-4.724 0l-20.352-20.283-20.352 20.283c-1.305 1.301-3.419 1.301-4.724 0s-1.306-3.407 0-4.708z" fill="#ff7976"/></g></svg>