<svg fill="none" height="196" viewBox="0 0 198 196" width="198" xmlns="http://www.w3.org/2000/svg"><path d="m192.846 137.046c-9.544 25.772-32.96 45.21-59.235 53.408-39.5367 12.336-95.4363 5.053-120.262-31.573-24.036-35.462-12.732694-83.6025 11.1162-116.229 16.752-22.9172 42.7216-39.61098 70.9561-42.304662 65.9637-6.293448 118.3607 74.256362 98.2067 134.478662-.249.745-.51 1.485-.782 2.22z" fill="#e3f0c9"/><path d="m53.3657 49.8507v-17.3468h-12.7201v17.3468c0 12.9103-3.3206 25.6035-9.6426 36.86-3.7346 6.6496-5.6964 14.1473-5.6964 21.7743v57.112c0 4.598 3.7269 8.325 8.3242 8.325h26.7497c4.5973 0 8.3242-3.727 8.3242-8.325v-57.112c0-7.627-1.9616-15.1247-5.6964-21.7743-6.322-11.2565-9.6426-23.9499-9.6426-36.86z" fill="#b6bff0"/><path d="m33.0043 89.2346c-.1576.2931-.2947.5952-.4564.886-3.439 6.1804-5.2452 13.1494-5.2452 20.2374v53.082c0 4.273 3.4317 7.736 7.665 7.736h24.631c4.2332 0 7.6649-3.463 7.6649-7.736v-53.082c0-7.088-1.8064-14.057-5.2451-20.2374-.1718-.3086-.3175-.6291-.4845-.9405-8.7752.7637-19.3029-3.1963-28.5297.0545z" fill="#e2798b" opacity=".64"/><path d="m49.5979 25.2715h-5.2456c-2.0983 0-3.7996 1.701-3.7996 3.7996v18.3984h12.8449v-18.3984c0-2.0986-1.7011-3.7996-3.7997-3.7996z" fill="#e2798b"/><path d="m68.7064 115.371h-43.4603v17.584h43.4603z" fill="#fff"/><path d="m47.4421 136.633c9.551 0 17.2936-5.694 17.2936-12.72 0-7.025-7.7426-12.72-17.2936-12.72s-17.2937 5.695-17.2937 12.72c0 7.026 7.7427 12.72 17.2937 12.72z" fill="#fff"/><path d="m47.4431 137.007c-9.7418 0-17.6677-5.874-17.6677-13.094 0-7.221 7.9259-13.095 17.6677-13.095 9.7419 0 17.6678 5.874 17.6678 13.095 0 7.22-7.9259 13.094-17.6678 13.094zm0-25.441c-9.3296 0-16.9195 5.539-16.9195 12.346 0 6.808 7.5899 12.346 16.9195 12.346 9.3297 0 16.9194-5.538 16.9194-12.346.0002-6.807-7.5897-12.346-16.9194-12.346z" fill="#3c251d"/><path d="m53.2728 31.1953h-12.7201v.3741h12.7201z" fill="#3c251d"/><path d="m52.0249 40.7337c-.1031 0-.187-.0832-.187-.187v-7.5452c0-.1038.0839-.187.187-.187s.1871.0832.1871.187v7.5452c0 .1038-.084.187-.1871.187z" fill="#3c251d"/><path d="m50.3101 40.7337c-.1031 0-.1871-.0832-.1871-.187v-7.5452c0-.1038.084-.187.1871-.187s.187.0832.187.187v7.5452c0 .1038-.0839.187-.187.187z" fill="#3c251d"/><path d="m48.5953 40.7337c-.1031 0-.1871-.0832-.1871-.187v-7.5452c0-.1038.084-.187.1871-.187s.187.0832.187.187v7.5452c0 .1038-.0839.187-.187.187z" fill="#3c251d"/><path d="m46.8804 40.7337c-.1031 0-.187-.0832-.187-.187v-7.5452c0-.1038.0839-.187.187-.187s.1871.0832.1871.187v7.5452c0 .1038-.084.187-.1871.187z" fill="#3c251d"/><path d="m45.1656 40.7337c-.1032 0-.1871-.0832-.1871-.187v-7.5452c0-.1038.0839-.187.1871-.187.1031 0 .187.0832.187.187v7.5452c0 .1038-.0839.187-.187.187z" fill="#3c251d"/><path d="m43.4507 40.7337c-.1031 0-.187-.0832-.187-.187v-7.5452c0-.1038.0839-.187.187-.187s.1871.0832.1871.187v7.5452c0 .1038-.084.187-.1871.187z" fill="#3c251d"/><path d="m41.7671 40.7337c-.1031 0-.187-.0832-.187-.187v-7.5452c0-.1038.0839-.187.187-.187s.1871.0832.1871.187v7.5452c0 .1038-.084.187-.1871.187z" fill="#3c251d"/><path d="m39.8344 82.0115c-.1847 0-.3727-.0335-.5554-.1067-.7674-.3068-1.1406-1.178-.8337-1.9451 3.8463-9.6162 4.3783-28.3513 4.3835-28.5399.0212-.8258.6444-1.4994 1.5352-1.457.8257.0219 1.4781.7088 1.4562 1.5359-.0205.7893-.5524 19.4646-4.5954 29.5717-.2345.586-.7964.9411-1.3904.9411z" fill="#fff"/><path d="m32.3554 102.589c-.0381 0-.076-.002-.1141-.005-.8241-.061-1.4416-.78-1.3796-1.604.5144-6.8192 4.7103-15.4007 4.8884-15.7632.3648-.7409 1.2626-1.0433 2.0037-.6809.7409.3655 1.0464 1.2626.6809 2.0035-.0408.0849-4.1183 8.4293-4.5889 14.6656-.0588.786-.7151 1.384-1.4904 1.384z" fill="#fff"/><path d="m120.529 106.725c0-21.2402-11.531-36.1319-15.506-39.6392-.707-.6232-1.122-1.6379-1.122-2.7202v-32.7659c0-1.8437-1.193-3.338-2.664-3.338h-9.2376c-1.472 0-2.665 1.4943-2.665 3.338v32.7659c0 1.0823-.4147 2.097-1.1211 2.7202-3.9754 3.5073-15.5063 18.399-15.5063 39.6392l1.3328 63.968c.0473 1.8 1.2259 3.228 2.6637 3.228h39.8585c1.438 0 2.616-1.428 2.663-3.228l1.333-63.968z" fill="#999924"/><path d="m103.903 65.0517v-33.0415c0-2.0702-1.193-3.7485-2.665-3.7485h-9.2371c-1.4717 0-2.665 1.6783-2.665 3.7485v33.0415z" fill="#f2d171"/><path d="m101.45 39.5524h-9.6629c-1.9708 0-3.5683-1.5976-3.5683-3.5683v-10.4158c0-1.9707 1.5975-3.5683 3.5683-3.5683h9.6629c1.971 0 3.568 1.5976 3.568 3.5683v10.4158c0 1.9707-1.597 3.5683-3.568 3.5683z" fill="#f2d171"/><path d="m109.973 72.9759c-1.976-2.8428-3.787-4.8651-4.949-5.8897-.707-.6232-1.121-1.638-1.121-2.7202v-5.2039h-14.5673v5.2039c0 1.0822-.4146 2.097-1.1211 2.7202-1.1614 1.0248-2.9735 3.0469-4.949 5.8897z" fill="#3c251d"/><path d="m103.903 73.7355c0 4.0145-3.255 7.2689-7.2691 7.2689-4.0143 0-7.2687-3.2544-7.2687-7.2689s3.2544-7.2687 7.2687-7.2687c4.0141-.0002 7.2691 3.2542 7.2691 7.2687z" fill="#f2d171"/><g fill="#3c251d"><path d="m96.7626 79.8553c-.5928 0-1.0751-.5746-1.0751-1.2804s.4823-1.28 1.0751-1.28c.5929 0 1.0752.5742 1.0752 1.28s-.4823 1.2804-1.0752 1.2804zm0-2.3566c-.4805 0-.8713.4827-.8713 1.0762s.3908 1.0767.8713 1.0767c.4806 0 .8714-.483.8714-1.0767s-.3906-1.0762-.8714-1.0762z"/><path d="m96.7626 75.3573c-.5928 0-1.0751-.5746-1.0751-1.2804s.4823-1.28 1.0751-1.28c.5929 0 1.0752.5742 1.0752 1.28s-.4823 1.2804-1.0752 1.2804zm0-2.3567c-.4805 0-.8713.4828-.8713 1.0763s.3908 1.0766.8713 1.0766c.4806 0 .8714-.4829.8714-1.0766 0-.5935-.3906-1.0763-.8714-1.0763z"/><path d="m99.0497 75.3573c-.5928 0-1.0751-.5746-1.0751-1.2804s.4823-1.28 1.0751-1.28c.5929 0 1.0753.5742 1.0753 1.28s-.4824 1.2804-1.0753 1.2804zm0-2.3567c-.4805 0-.8713.4828-.8713 1.0763s.3908 1.0766.8713 1.0766c.4806 0 .8714-.4829.8714-1.0766 0-.5935-.3906-1.0763-.8714-1.0763z"/><path d="m94.507 75.3573c-.5929 0-1.0754-.5746-1.0754-1.2804s.4827-1.28 1.0754-1.28c.5926 0 1.0751.5742 1.0751 1.28-.0002.7058-.4822 1.2804-1.0751 1.2804zm0-2.3567c-.4806 0-.8718.4828-.8718 1.0763s.391 1.0766.8718 1.0766c.4805 0 .8713-.4829.8713-1.0766 0-.5935-.3908-1.0763-.8713-1.0763z"/><path d="m97.9911 77.6541c-.5928 0-1.0751-.5741-1.0751-1.2799s.4823-1.2804 1.0751-1.2804c.5929 0 1.0752.5746 1.0752 1.2804-.0002.7058-.4823 1.2799-1.0752 1.2799zm0-2.3566c-.4805 0-.8713.4829-.8713 1.0767 0 .5937.3908 1.0762.8713 1.0762.4806 0 .8714-.4825.8714-1.0762 0-.5938-.3908-1.0767-.8714-1.0767z"/><path d="m95.5832 77.6541c-.5929 0-1.0754-.5741-1.0754-1.2799s.4825-1.2804 1.0754-1.2804c.5928 0 1.0751.5746 1.0751 1.2804-.0002.7058-.4823 1.2799-1.0751 1.2799zm0-2.3566c-.4806 0-.8718.4829-.8718 1.0767 0 .5937.391 1.0762.8718 1.0762.4805 0 .8713-.4825.8713-1.0762 0-.5938-.3908-1.0767-.8713-1.0767z"/><path d="m96.9139 72.6849h-.2383c-.0294 0-.0578-.0127-.0771-.0355-.8948-1.0384.5475-2.9421.6096-3.0229.0176-.0227.0438-.0369.0728-.0393.0251-.0056.0565.0076.0779.0275l.6129.5789c.0285.0271.0388.069.0266.1063-.0127.0378-.0462.0644-.0855.0687-.2304.026-.4794.2049-.6667.4799-.3163.4641-.4015 1.0865-.2336 1.7082.0084.0307.0019.0633-.0174.0887-.0195.0247-.0494.0395-.0812.0395zm-.1902-.2038h.0605c-.1389-.6362-.0345-1.2669.2934-1.7474.1739-.2556.3918-.4372.6179-.5207l-.3923-.3709c-.266.3788-1.2082 1.8353-.5795 2.639z"/><path d="m98.6513 72.0856c-.1563 0-.312-.0529-.434-.1751-.1909-.1908-.208-.5374-.0498-.9394-.5729.0803-1.1797.3895-1.1891.3943-.0486.0262-.1115.0075-.1368-.0438-.026-.0498-.0065-.1115.0434-.1368.0433-.0228.7348-.3747 1.3813-.4269.2371-.4447.6671-.8774 1.1312-.8396.056.0037.0987.0522.0947.1083-.0037.0536-.0481.0951-.1014.0951-.0092 0-.0266-.0009-.0406-.0013-.3163 0-.6377.2905-.8471.6334.242.0123.4643.0816.6266.2444.3382.3382.2356.6807.0449.8718-.1338.1335-.329.2156-.5233.2156zm-.2542-1.1331-.0033.0066c-.1591.3508-.1722.6676-.0326.8074.1885.1881.4986.1305.6693-.0406.1688-.1688.152-.3872-.0449-.5836-.1385-.139-.3414-.1898-.5649-.1898-.008 0-.0159 0-.0236 0z"/><path d="m94.9277 72.4834c-.134 0-.2562-.0425-.3638-.126-.545-.426-.1814-1.1896-.0056-1.49-.516-.1306-2.2293-.6506-2.0893-1.7646.0593-.4722.3883-.7325.9259-.7325.5794 0 1.2671.2908 1.6365.5515.0139-.1959.0653-.4772.2355-.661.1688-.1819.4166-.2319.7232-.1389.4127.1233.6979.4269.7833.8323.1003.4767-.0919 1.009-.4908 1.3691l-.0234.674c.0358.2729-.2029.6914-.4557.9779-.2843.3227-.6038.5082-.8758.5082zm-1.5325-3.9095c-.4342 0-.6775.1866-.7237.5542-.138 1.0981 2.0479 1.5684 2.0698 1.5727.0337.0071.0612.0307.0741.0625.0126.0313.0083.0676-.0112.0955-.0064.0097-.6373.9293-.1142 1.3375.0713.0556.1492.0831.2379.0831.2108 0 .481-.1642.7232-.4389.2546-.2888.4288-.6474.4054-.8344l.0242-.7344c.0011-.0285.014-.0554.0359-.074.3661-.312.5458-.7838.458-1.2016-.0704-.3354-.2987-.5766-.6422-.6797-.23-.0685-.4007-.0425-.516.0827-.1806.1946-.1933.5916-.1834.7282.0032.0425-.0204.0826-.0593.1002-.039.0179-.0843.0084-.1148-.0215-.2474-.2514-1.0367-.6321-1.6637-.6321z"/><path d="m96.1307 70.6176c-.0299 0-.0593-.0131-.0797-.0382-.5841-.7305-2.5834-1.1211-2.6031-1.1252-.0554-.0103-.0915-.0635-.0808-.1189.0103-.0556.0636-.0939.119-.0808.085.0164 2.0931.4087 2.7242 1.1976.035.0442.0279.1082-.0159.1432-.0189.015-.0414.0223-.0637.0223z"/><path d="m116.955 109.27h-41.3183v24.79h41.3183z"/></g><path d="m115.255 132.684h-37.7942c-.2678 0-.4862-.218-.4862-.486v-21.145c0-.268.2184-.487.4862-.487h37.7942c.267 0 .486.219.486.487v21.145c0 .268-.219.486-.486.486zm-37.3081-.972h36.8221v-20.173h-36.8221z" fill="#f2d171"/><path d="m106.99 117.899h-22.1173c-.5373 0-.9723-.434-.9723-.972 0-.537.4348-.972.9723-.972h22.1173c.537 0 .972.435.972.972s-.435.972-.972.972z" fill="#f2d171"/><path d="m102.859 123.122h-14.3398c-.5375 0-.9723-.435-.9723-.972s.4348-.972.9723-.972h14.3398c.537 0 .972.435.972.972s-.435.972-.972.972z" fill="#f2d171"/><path d="m91.5951 37.0032c-.5374 0-.9721-.4348-.9721-.9723v-11.2598c0-.5375.4349-.9723.9721-.9723.5375 0 .9723.4348.9723.9723v11.2598c0 .5375-.4348.9723-.9723.9723z" fill="#fff"/><path d="m91.8392 55.9613c-.5372 0-.972-.4349-.972-.9721v-13.6107c0-.5374.4348-.9723.972-.9723.5375 0 .9723.4349.9723.9723v13.6107c0 .5372-.4348.9721-.9723.9721z" fill="#fff"/><path d="m79.8901 102.586c-.0189 0-.0399 0-.0588-.002-.5356-.032-.9438-.493-.9115-1.029.6113-10.0273 4.8837-19.6238 5.066-20.0264.2184-.4898.7975-.7121 1.2856-.4881.4898.2203.7081.7955.488 1.2856-.0436.0949-4.3102 9.6839-4.899 19.3469-.0324.517-.4595.913-.9703.913z" fill="#fff"/><path d="m78.9578 168.976c-.5278 0-.9607-.421-.9721-.951l-.6476-29.003c-.0114-.535.414-.981.9513-.993h.0208c.5278 0 .9609.422.9723.952l.6474 29.002c.0113.536-.414.982-.9513.993-.0056 0-.0133 0-.0208 0z" fill="#fff"/><path d="m150.606 61.9492.399-27.6672c.013-.9218-.74-1.6799-1.681-1.6936l-6.126-.0882c-.941-.0135-1.715.7224-1.728 1.6444l-.397 27.5508c-.011.7187-.486 1.3631-1.191 1.5647-7.999 2.2894-13.897 9.4505-14.021 18.0372l-1.302 90.4157c-.013.922.738 1.681 1.681 1.694l35.611.513c.942.014 1.716-.723 1.729-1.645l1.303-90.4153c.122-8.4648-5.407-15.7048-13.161-18.3219-.684-.2308-1.126-.8804-1.116-1.5886z" fill="#999924"/><path d="m132.813 84.8368c-1.799-.444-3.542-1.0823-5.277-1.7372-.005.1374-.02.2717-.022.4096l-1.246 86.4748c-.013.882.674 1.608 1.534 1.62l32.536.469c.861.012 1.568-.693 1.581-1.575l1.246-86.4753c.004-.2997-.013-.5936-.023-.8897-10.204.772-20.435 4.1442-30.329 1.7038z" fill="#b64959" opacity=".67"/><path d="m147.812 25.4128-3.281-.0474c-1.014-.0147-1.847.7952-1.862 1.8088l-.087 6.0197c-.014 1.0135.795 1.8469 1.809 1.8616l3.281.0473c1.014.0147 1.847-.7952 1.862-1.8087l.086-6.0197c.015-1.0136-.795-1.8469-1.808-1.8616z" fill="#d9a27f"/><path d="m148.12 39.7059-4.289-.0618c-2.149-.0309-3.865-1.7983-3.834-3.9473.03-2.149 1.797-3.866 3.946-3.8351l4.289.0619c2.149.0309 3.866 1.7982 3.835 3.9472-.031 2.1488-1.798 3.866-3.947 3.8351z" fill="#49647a"/><path d="m150.742 52.5597.009-.6379.239-16.5718c.011-.762-.744-1.3904-1.685-1.4041l-6.125-.0883c-.941-.0134-1.714.5931-1.725 1.3551l-.238 16.5-.01.7096z" fill="#49647a"/><path d="m127.53 92.1176-.823 57.1464 35.792.515.823-57.146z" fill="#fff"/><path d="m134 95.2129 1.986.0159 1.951 6.3892h.026l1.69-6.3524 2.162.021-2.922 9.6474-1.902-.021z" fill="#202646"/><path d="m142.748 95.293 2.136.021-.09 9.674-2.136-.021z" fill="#202646"/><path d="m146.824 95.3359 2.902.0264 4.058 6.7587h.026l.064-6.7219 2.136.021-.09 9.6739-2.793-.026-4.167-6.9274h-.026l-.064 6.8854-2.136-.016z" fill="#202646"/><path d="m163.069 110.228c-2.575-.245-5.167-.2-7.636.523-3.468 1.015-6.665 3.595-7.533 7.104-1.088 4.389 1.426 9.676-1.369 13.231-1.691 2.15-4.726 2.695-7.46 2.599-2.733-.096-5.496-.671-8.177-.128-1.445.292-2.785.907-3.986 1.745l-.201 13.965 35.792.516z" fill="#de5f5f"/><path d="m133.879 112.606c1.839-.943 4.177-1.012 5.979-.082 3.111 1.605 4.921 5.642 4.672 9.06-.298 4.081-3.97 7.143-7.984 5.601-3.157-1.212-5.031-4.753-5.555-7.962-.421-2.578.471-5.379 2.888-6.617z" fill="#de5f5f"/><path d="m141.184 87.344c.108-.0513.214-.1044.319-.1598 5.997-3.1687 9.457-18.2797.945-20.6536-1.548-.4317-3.239-.1194-4.67.613-5.204 2.6637-12.521 14.0399-6.821 19.1358 2.625 2.3479 7.117 2.5396 10.227 1.0646z" fill="#fff" opacity=".3"/></svg>