<svg width="330" height="288" viewBox="0 0 330 288" fill="none" xmlns="http://www.w3.org/2000/svg">
<path d="M286.823 200.162C272.865 237.802 238.619 266.193 200.193 278.166C142.372 296.183 60.6196 285.546 24.3127 232.052C-10.8395 180.259 5.69137 109.947 40.5699 62.295C65.0692 28.8234 103.049 4.44154 144.342 0.507302C240.811 -8.68455 317.441 108.962 287.967 196.919C287.603 198.008 287.221 199.088 286.823 200.162Z" fill="#E1D3EC"/>
<path d="M229.713 266.766C204.301 265.219 180.772 249.658 166.436 228.54C144.865 196.763 136.281 145.191 162.068 113.315C187.034 82.4535 232.746 79.5518 268.082 91.9535C292.902 100.665 314.686 119.23 324.67 143.566C347.995 200.423 290.693 268.571 231.891 266.864C231.164 266.842 230.437 266.81 229.713 266.766Z" fill="#F8F0FF"/>
<path d="M70.2646 253.292C72.5118 244.866 69.8571 236.841 64.3371 235.369C58.8152 233.896 52.5187 239.535 50.2718 247.961C48.0246 256.389 50.6789 264.414 56.1993 265.886C61.7208 267.358 68.0174 261.72 70.2646 253.292Z" fill="#E2798B"/>
<g opacity="0.25">
<path d="M60.9781 260.787C55.4577 259.316 52.8034 251.29 55.0506 242.863C55.6585 240.586 56.5691 238.521 57.6726 236.736C54.4427 238.847 51.6232 242.891 50.2718 247.958C48.0246 256.386 50.6789 264.411 56.1993 265.883C60.2279 266.958 64.6631 264.235 67.643 259.416C65.5008 260.816 63.1794 261.374 60.9781 260.787Z" fill="black"/>
</g>
<g opacity="0.58">
<path d="M68.8913 246.038C69.3338 242.945 68.0678 240.256 66.0613 240.034C64.0551 239.811 62.0683 242.137 61.6253 245.231C61.1824 248.325 62.4502 251.014 64.4568 251.237C66.463 251.458 68.4484 249.132 68.8913 246.038Z" fill="white"/>
</g>
<path d="M80.036 167.896C82.2832 159.469 79.6286 151.445 74.1071 149.972C68.5867 148.499 62.2902 154.139 60.0433 162.565C57.7961 170.993 60.4504 179.018 65.9705 180.49C71.4909 181.962 77.7888 176.324 80.036 167.896Z" fill="#E2798B"/>
<g opacity="0.25">
<path d="M70.7492 175.388C65.2284 173.917 62.5746 165.891 64.8217 157.465C65.4296 155.187 66.3402 153.123 67.4437 151.338C64.2124 153.448 61.3946 157.493 60.0433 162.56C57.7961 170.988 60.4504 179.012 65.9705 180.485C69.999 181.559 74.4342 178.837 77.4141 174.018C75.272 175.417 72.9505 175.975 70.7492 175.388Z" fill="black"/>
</g>
<g opacity="0.58">
<path d="M78.6623 160.64C79.1049 157.547 77.8371 154.859 75.8309 154.636C73.8247 154.412 71.8393 156.739 71.3964 159.833C70.9535 162.927 72.2202 165.615 74.2264 165.838C76.234 166.06 78.2194 163.733 78.6623 160.64Z" fill="white"/>
</g>
<path d="M81.4469 262.743C83.6941 254.317 81.0395 246.292 75.5194 244.82C69.999 243.347 63.701 248.986 61.4542 257.412C59.2066 265.84 61.8609 273.865 67.3813 275.338C72.9032 276.809 79.1993 271.171 81.4469 262.743Z" fill="#49647A"/>
<g opacity="0.25">
<path d="M72.1615 270.24C66.6396 268.769 63.9854 260.743 66.2326 252.316C66.8405 250.039 67.751 247.974 68.8546 246.189C65.6247 248.3 62.8051 252.344 61.4542 257.412C59.2066 265.84 61.8609 273.864 67.3813 275.337C71.4098 276.411 75.845 273.688 78.8249 268.869C76.6828 270.269 74.3625 270.827 72.1615 270.24Z" fill="black"/>
</g>
<g opacity="0.58">
<path d="M80.0734 255.487C80.5159 252.395 79.2496 249.707 77.2434 249.484C75.2372 249.26 73.2504 251.587 72.8075 254.681C72.3646 257.774 73.6323 260.463 75.6385 260.686C77.6451 260.908 79.6305 258.581 80.0734 255.487Z" fill="white"/>
</g>
<path d="M106.059 213.51C108.306 205.082 105.652 197.058 100.132 195.585C94.6096 194.114 88.3131 199.751 86.0663 208.178C83.8191 216.606 86.4733 224.63 91.9934 226.103C97.5138 227.574 103.811 221.937 106.059 213.51Z" fill="#49647A"/>
<g opacity="0.25">
<path d="M96.7722 221C91.2517 219.529 88.5971 211.504 90.8447 203.076C91.4526 200.798 92.3631 198.734 93.4667 196.949C90.2364 199.061 87.4172 203.104 86.0663 208.171C83.8191 216.599 86.4733 224.624 91.9934 226.096C96.0219 227.17 100.457 224.448 103.437 219.63C101.295 221.03 98.9731 221.587 96.7722 221Z" fill="black"/>
</g>
<g opacity="0.58">
<path d="M104.683 206.255C105.126 203.161 103.86 200.473 101.852 200.249C99.8462 200.026 97.8604 202.354 97.4179 205.446C96.975 208.54 98.2417 211.228 100.249 211.452C102.255 211.675 104.241 209.347 104.683 206.255Z" fill="white"/>
</g>
<path d="M95.9607 183.864C98.2079 175.436 95.5536 167.412 90.0332 165.941C84.5128 164.468 78.2152 170.106 75.968 178.534C73.7211 186.96 76.375 194.986 81.8955 196.457C87.417 197.93 93.7135 192.291 95.9607 183.864Z" fill="#49647A"/>
<g opacity="0.25">
<path d="M86.6753 191.367C81.1538 189.894 78.5006 181.87 80.7468 173.441C81.3546 171.164 82.2648 169.101 83.3687 167.314C80.1385 169.426 77.3193 173.47 75.968 178.538C73.7211 186.965 76.375 194.99 81.8955 196.462C85.9254 197.536 90.3592 194.815 93.3391 189.996C91.1966 191.395 88.8763 191.954 86.6753 191.367Z" fill="black"/>
</g>
<g opacity="0.58">
<path d="M94.5873 176.613C95.0316 173.52 93.7639 170.831 91.7573 170.608C89.7508 170.386 87.7643 172.713 87.321 175.807C86.8785 178.899 88.1462 181.588 90.1524 181.811C92.159 182.034 94.1444 179.707 94.5873 176.613Z" fill="white"/>
</g>
<path d="M93.2649 158.519C95.5117 150.092 92.8578 142.066 87.3374 140.595C81.8159 139.122 75.519 144.761 73.2722 153.188C71.0253 161.614 73.6792 169.64 79.1997 171.112C84.7201 172.584 91.0177 166.947 93.2649 158.519Z" fill="#49647A"/>
<g opacity="0.25">
<path d="M83.9784 166.019C78.458 164.547 75.8038 156.522 78.051 148.096C78.6592 145.817 79.5694 143.754 80.6729 141.969C77.4427 144.079 74.6235 148.123 73.2722 153.191C71.0253 161.617 73.6792 169.643 79.1997 171.114C83.2282 172.189 87.6634 169.468 90.6433 164.649C88.5012 166.048 86.1794 166.606 83.9784 166.019Z" fill="black"/>
</g>
<g opacity="0.58">
<path d="M91.892 151.266C92.3349 148.173 91.0682 145.485 89.0617 145.263C87.054 145.039 85.0686 147.366 84.6257 150.46C84.1832 153.552 85.4506 156.242 87.4571 156.464C89.4637 156.687 91.4487 154.36 91.892 151.266Z" fill="white"/>
</g>
<path d="M106.998 189.364C109.245 180.936 106.591 172.911 101.07 171.439C95.5486 169.967 89.2521 175.605 87.0052 184.031C84.758 192.459 87.4123 200.484 92.9324 201.956C98.4542 203.428 104.75 197.79 106.998 189.364Z" fill="#49647A"/>
<g opacity="0.25">
<path d="M97.7115 196.865C92.1907 195.394 89.5365 187.369 91.784 178.941C92.3919 176.664 93.3025 174.599 94.406 172.814C91.1758 174.926 88.3566 178.969 87.0052 184.037C84.758 192.465 87.4123 200.489 92.9324 201.962C96.9609 203.036 101.396 200.313 104.376 195.494C102.234 196.895 99.9124 197.452 97.7115 196.865Z" fill="black"/>
</g>
<g opacity="0.58">
<path d="M105.625 182.118C106.068 179.024 104.801 176.336 102.795 176.112C100.787 175.889 98.8017 178.216 98.3587 181.309C97.9158 184.403 99.1836 187.092 101.19 187.315C103.196 187.538 105.182 185.21 105.625 182.118Z" fill="white"/>
</g>
<path d="M60.0959 233.876C61.359 225.247 57.8003 217.581 52.1461 216.753C46.4933 215.924 40.8864 222.25 39.6233 230.88C38.3602 239.509 41.9189 247.175 47.5717 248.003C53.2263 248.83 58.8331 242.506 60.0959 233.876Z" fill="#49647A"/>
<g opacity="0.25">
<path d="M51.734 242.392C46.0798 241.564 42.5211 233.898 43.7842 225.269C44.126 222.936 44.793 220.78 45.6835 218.881C42.718 221.348 40.3829 225.69 39.6233 230.88C38.3602 239.509 41.9189 247.175 47.5717 248.003C51.6974 248.608 55.7898 245.392 58.1966 240.264C56.2288 241.901 53.988 242.721 51.734 242.392Z" fill="black"/>
</g>
<g opacity="0.58">
<path d="M57.8975 226.831C57.9821 223.708 56.4138 221.182 54.3947 221.191C52.3774 221.2 50.6714 223.741 50.5868 226.865C50.5021 229.988 52.0704 232.513 54.0895 232.503C56.1086 232.495 57.8129 229.955 57.8975 226.831Z" fill="white"/>
</g>
<path d="M45.8258 186.741C47.0889 178.112 43.5287 170.446 37.876 169.618C32.2228 168.791 26.6163 175.115 25.3518 183.745C24.0887 192.374 27.6485 200.042 33.3016 200.868C38.9558 201.697 44.563 195.371 45.8258 186.741Z" fill="#49647A"/>
<g opacity="0.25">
<path d="M37.4639 195.258C31.8097 194.429 28.251 186.763 29.5141 178.134C29.8558 175.802 30.5225 173.647 31.4134 171.746C28.4475 174.215 26.1124 178.557 25.3518 183.745C24.0887 192.375 27.6485 200.042 33.3016 200.869C37.4277 201.473 41.519 198.259 43.9265 193.129C41.959 194.766 39.7175 195.588 37.4639 195.258Z" fill="black"/>
</g>
<g opacity="0.58">
<path d="M43.628 179.693C43.7126 176.569 42.1443 174.044 40.1252 174.053C38.1061 174.063 36.4019 176.602 36.3172 179.726C36.2326 182.85 37.8009 185.375 39.8197 185.366C41.8391 185.356 43.5433 182.816 43.628 179.693Z" fill="white"/>
</g>
<path d="M34.6161 172.153C38.4517 164.32 37.4005 155.933 32.2692 153.421C27.1378 150.908 19.8687 155.222 16.0335 163.053C12.1975 170.887 13.2491 179.273 18.38 181.787C23.5113 184.299 30.7801 179.986 34.6161 172.153Z" fill="#E2798B"/>
<g opacity="0.25">
<path d="M24.0544 177.711C18.9231 175.198 17.8719 166.811 21.7079 158.978C22.744 156.861 24.0368 155.011 25.4642 153.475C21.8872 154.921 18.3385 158.342 16.0325 163.052C12.1966 170.885 13.2481 179.272 18.379 181.785C22.1243 183.619 27.0013 181.806 30.8573 177.655C28.485 178.615 26.1008 178.712 24.0544 177.711Z" fill="black"/>
</g>
<g opacity="0.58">
<path d="M34.6711 164.764C35.7051 161.816 34.9817 158.933 33.0558 158.326C31.1314 157.719 28.7322 159.617 27.6993 162.566C26.6664 165.516 27.3898 168.399 29.3142 169.006C31.2404 169.613 33.6383 167.715 34.6711 164.764Z" fill="white"/>
</g>
<path d="M69.714 207.348C70.9771 198.719 67.4184 191.053 61.7656 190.225C56.1114 189.398 50.5046 195.723 49.2415 204.352C47.9783 212.982 51.5374 220.648 57.1913 221.476C62.8444 222.303 68.4509 215.978 69.714 207.348Z" fill="#49647A"/>
<g opacity="0.25">
<path d="M61.3502 215.869C55.6974 215.041 52.1373 207.375 53.4004 198.745C53.7421 196.413 54.4088 194.256 55.3011 192.357C52.3341 194.825 49.9991 199.167 49.2395 204.356C47.9764 212.986 51.5355 220.652 57.1893 221.48C61.314 222.084 65.4067 218.871 67.8128 213.741C65.8453 215.378 63.6046 216.198 61.3502 215.869Z" fill="black"/>
</g>
<g opacity="0.58">
<path d="M67.5143 200.304C67.5975 197.18 66.0307 194.655 64.0119 194.664C61.9932 194.673 60.2872 197.213 60.204 200.337C60.1193 203.461 61.6865 205.986 63.7053 205.977C65.7244 205.967 67.4301 203.427 67.5143 200.304Z" fill="white"/>
</g>
<path d="M97.6459 239.747C99.8931 231.321 97.2389 223.295 91.7184 221.824C86.1969 220.351 79.9 225.99 77.6532 234.416C75.406 242.844 78.0602 250.869 83.5807 252.34C89.1022 253.813 95.3984 248.175 97.6459 239.747Z" fill="#6F7BBD"/>
<g opacity="0.25">
<path d="M88.3595 247.246C82.839 245.773 80.1848 237.749 82.432 229.322C83.0399 227.045 83.9504 224.98 85.0539 223.195C81.8237 225.306 79.0045 229.35 77.6532 234.417C75.406 242.845 78.0602 250.87 83.5807 252.341C87.6088 253.416 92.0444 250.694 95.0243 245.875C92.8822 247.275 90.5604 247.833 88.3595 247.246Z" fill="black"/>
</g>
<g opacity="0.58">
<path d="M96.2731 232.491C96.7156 229.399 95.4493 226.709 93.4427 226.487C91.4365 226.264 89.4501 228.591 89.0068 231.684C88.5635 234.778 89.8317 237.467 91.8382 237.688C93.8448 237.912 95.8302 235.585 96.2731 232.491Z" fill="white"/>
</g>
<path d="M88.7854 209.401C90.5215 200.853 87.3906 193.002 81.792 191.865C76.192 190.728 70.2455 196.734 68.5082 205.281C66.7725 213.827 69.903 221.678 75.5019 222.816C81.1016 223.954 87.0478 217.948 88.7854 209.401Z" fill="#6F7BBD"/>
<g opacity="0.25">
<path d="M79.9669 217.442C74.3669 216.304 71.2364 208.453 72.9725 199.906C73.4427 197.595 74.2267 195.481 75.2219 193.633C72.1229 195.934 69.5522 200.141 68.5082 205.28C66.7725 213.826 69.903 221.677 75.5019 222.815C79.5875 223.645 83.852 220.663 86.5374 215.673C84.4821 217.199 82.1983 217.896 79.9669 217.442Z" fill="black"/>
</g>
<g opacity="0.58">
<path d="M86.9782 202.244C87.2342 199.13 85.8087 196.522 83.7921 196.419C81.7755 196.318 79.9332 198.76 79.6768 201.874C79.4203 204.989 80.8477 207.596 82.8629 207.698C84.8791 207.801 86.7218 205.358 86.9782 202.244Z" fill="white"/>
</g>
<path d="M74.0515 152.963C75.7876 144.416 72.6568 136.565 67.0581 135.427C61.4581 134.291 55.5116 140.297 53.7744 148.844C52.0386 157.39 55.1691 165.241 60.7677 166.378C66.3681 167.517 72.3143 161.51 74.0515 152.963Z" fill="#6F7BBD"/>
<g opacity="0.25">
<path d="M65.233 161.009C59.633 159.871 56.5025 152.019 58.2386 143.472C58.7088 141.162 59.4928 139.047 60.488 137.199C57.389 139.5 54.8183 143.707 53.7744 148.847C52.0386 157.393 55.1691 165.244 60.7677 166.381C64.8533 167.212 69.1178 164.229 71.8032 159.239C69.7482 160.765 67.4645 161.462 65.233 161.009Z" fill="black"/>
</g>
<g opacity="0.58">
<path d="M72.2443 145.806C72.5007 142.692 71.0748 140.084 69.0582 139.982C67.0416 139.88 65.1993 142.322 64.9429 145.436C64.6865 148.552 66.1138 151.158 68.129 151.261C70.1459 151.361 71.9882 148.92 72.2443 145.806Z" fill="white"/>
</g>
<path d="M56.8187 164.703C59.9772 156.574 58.2209 148.307 52.8952 146.237C47.5692 144.168 40.6917 149.08 37.5317 157.209C34.3733 165.338 36.1291 173.607 41.4552 175.676C46.7813 177.746 53.6602 172.834 56.8187 164.703Z" fill="#6F7BBD"/>
<g opacity="0.25">
<path d="M46.7676 171.136C41.4415 169.067 39.6856 160.798 42.8441 152.669C43.698 150.473 44.8302 148.521 46.1242 146.867C42.6809 148.612 39.4346 152.321 37.5342 157.209C34.3757 165.338 36.1316 173.607 41.4576 175.676C45.3438 177.187 50.0508 174.968 53.5425 170.506C51.2591 171.662 48.891 171.961 46.7676 171.136Z" fill="black"/>
</g>
<g opacity="0.58">
<path d="M56.2516 157.34C57.032 154.313 56.0683 151.503 54.098 151.061C52.1277 150.618 49.8988 152.713 49.1187 155.739C48.3384 158.766 49.3034 161.577 51.2734 162.019C53.2427 162.46 55.4716 160.366 56.2516 157.34Z" fill="white"/>
</g>
<path d="M75.2684 186.157C77.0046 177.61 73.8737 169.758 68.2751 168.621C62.675 167.483 56.7289 173.489 54.9913 182.036C53.2551 190.583 56.386 198.435 61.9846 199.572C67.5847 200.711 73.5312 194.703 75.2684 186.157Z" fill="#6F7BBD"/>
<g opacity="0.25">
<path d="M66.4503 194.197C60.8503 193.059 57.7194 185.209 59.4556 176.662C59.9257 174.351 60.7097 172.236 61.7049 170.389C58.606 172.69 56.0356 176.895 54.9913 182.035C53.2551 190.582 56.386 198.433 61.9846 199.571C66.0702 200.401 70.3351 197.417 73.0201 192.429C70.9652 193.954 68.6814 194.651 66.4503 194.197Z" fill="black"/>
</g>
<g opacity="0.58">
<path d="M73.4616 178.998C73.718 175.884 72.2917 173.278 70.2755 173.175C68.2589 173.072 66.4169 175.514 66.1602 178.629C65.9037 181.744 67.3311 184.352 69.3463 184.453C71.3629 184.555 73.2052 182.114 73.4616 178.998Z" fill="white"/>
</g>
<path d="M125.572 173.557C126.089 164.85 121.883 157.518 116.179 157.18C110.476 156.842 105.434 163.625 104.917 172.332C104.402 181.038 108.606 188.371 114.31 188.709C120.014 189.047 125.056 182.262 125.572 173.557Z" fill="#6F7BBD"/>
<g opacity="0.25">
<path d="M117.974 182.761C112.27 182.423 108.064 175.092 108.581 166.385C108.72 164.032 109.199 161.827 109.924 159.857C107.182 162.572 105.228 167.099 104.917 172.334C104.401 181.04 108.607 188.372 114.31 188.71C118.472 188.956 122.274 185.403 124.229 180.086C122.411 181.885 120.249 182.897 117.974 182.761Z" fill="black"/>
</g>
<g opacity="0.58">
<path d="M122.776 166.722C122.592 163.602 120.813 161.221 118.803 161.404C116.792 161.587 115.312 164.263 115.496 167.383C115.68 170.503 117.461 172.884 119.471 172.701C121.481 172.519 122.962 169.84 122.776 166.722Z" fill="white"/>
</g>
<path d="M78.7357 235.33C80.9829 226.902 78.3287 218.878 72.8086 217.405C67.2867 215.934 60.9902 221.572 58.743 230C56.4958 238.426 59.1504 246.451 64.6705 247.923C70.1905 249.396 76.4885 243.757 78.7357 235.33Z" fill="#E2798B"/>
<g opacity="0.25">
<path d="M69.4493 242.823C63.9288 241.351 61.2746 233.326 63.5218 224.898C64.1296 222.621 65.0402 220.556 66.1437 218.771C62.9135 220.883 60.0943 224.927 58.743 229.995C56.4958 238.422 59.1504 246.446 64.6705 247.919C68.699 248.993 73.1342 246.272 76.1141 241.453C73.972 242.852 71.6502 243.41 69.4493 242.823Z" fill="black"/>
</g>
<g opacity="0.58">
<path d="M77.3621 228.075C77.8051 224.981 76.5384 222.293 74.5311 222.069C72.5249 221.846 70.5395 224.174 70.0966 227.267C69.6537 230.36 70.9204 233.049 72.9276 233.272C74.9338 233.495 76.9192 231.168 77.3621 228.075Z" fill="white"/>
</g>
<path d="M63.7893 184.683C66.0365 176.256 63.3823 168.23 57.8618 166.759C52.3399 165.286 46.0438 170.924 43.7966 179.352C41.5497 187.779 44.2036 195.805 49.7241 197.276C55.2442 198.749 61.5421 193.111 63.7893 184.683Z" fill="#E2798B"/>
<g opacity="0.25">
<path d="M54.5025 192.179C48.9821 190.707 46.3278 182.682 48.575 174.256C49.1833 171.977 50.0935 169.914 51.197 168.129C47.9671 170.239 45.1479 174.284 43.7966 179.351C41.5497 187.778 44.2036 195.803 49.7241 197.275C53.7526 198.349 58.1878 195.628 61.1677 190.809C59.0256 192.208 56.7038 192.766 54.5025 192.179Z" fill="black"/>
</g>
<g opacity="0.58">
<path d="M62.4166 177.431C62.8595 174.337 61.5932 171.649 59.5852 171.427C57.579 171.204 55.5936 173.53 55.1507 176.624C54.7081 179.716 55.9741 182.406 57.9821 182.628C59.9883 182.851 61.9737 180.524 62.4166 177.431Z" fill="white"/>
</g>
<path d="M51.1393 212.537C53.6454 204.184 51.2401 196.08 45.7681 194.439C40.296 192.797 33.8266 198.238 31.3202 206.593C28.8155 214.946 31.2194 223.049 36.6914 224.691C42.1649 226.333 48.6328 220.892 51.1393 212.537Z" fill="#E2798B"/>
<g opacity="0.25">
<path d="M41.6262 219.747C36.1542 218.105 33.7485 210.001 36.2546 201.648C36.932 199.39 37.9057 197.355 39.0641 195.604C35.7701 197.615 32.8282 201.57 31.3202 206.594C28.8155 214.947 31.2194 223.05 36.6914 224.692C40.6859 225.891 45.2029 223.306 48.3298 218.583C46.1461 219.915 43.8085 220.4 41.6262 219.747Z" fill="black"/>
</g>
<g opacity="0.58">
<path d="M49.9914 205.243C50.5297 202.164 49.3451 199.439 47.3465 199.153C45.3478 198.868 43.2918 201.133 42.7538 204.212C42.2144 207.289 43.399 210.016 45.3973 210.301C47.3963 210.585 49.4517 208.321 49.9914 205.243Z" fill="white"/>
</g>
<path d="M120.509 205.911C122.756 197.483 120.104 189.459 114.582 187.988C109.061 186.515 102.765 192.153 100.518 200.581C98.2704 209.007 100.924 217.031 106.445 218.504C111.966 219.977 118.262 214.338 120.509 205.911Z" fill="#E2798B"/>
<g opacity="0.25">
<path d="M111.224 213.411C105.704 211.939 103.049 203.914 105.297 195.486C105.903 193.208 106.814 191.144 107.919 189.359C104.687 191.471 101.869 195.515 100.518 200.583C98.2709 209.009 100.924 217.034 106.446 218.506C110.474 219.581 114.908 216.859 117.889 212.041C115.747 213.44 113.425 213.998 111.224 213.411Z" fill="black"/>
</g>
<g opacity="0.58">
<path d="M119.137 198.665C119.58 195.571 118.312 192.882 116.306 192.659C114.3 192.437 112.315 194.764 111.872 197.857C111.428 200.95 112.695 203.639 114.701 203.862C116.707 204.085 118.694 201.758 119.137 198.665Z" fill="white"/>
</g>
<path d="M110.894 157.974C110.443 149.264 105.45 142.443 99.7433 142.74C94.0382 143.036 89.7791 150.337 90.2306 159.047C90.6835 167.756 95.6764 174.577 101.381 174.281C107.088 173.984 111.347 166.684 110.894 157.974Z" fill="#E2798B"/>
<g opacity="0.25">
<path d="M104.363 167.959C98.656 168.256 93.6649 161.435 93.2123 152.724C93.0897 150.37 93.3224 148.126 93.8234 146.088C91.398 149.089 89.9595 153.805 90.2303 159.043C90.6832 167.752 95.6761 174.573 101.381 174.277C105.544 174.06 108.929 170.108 110.283 164.605C108.674 166.597 106.637 167.841 104.363 167.959Z" fill="black"/>
</g>
<g opacity="0.58">
<path d="M107.358 151.49C106.829 148.411 104.797 146.242 102.818 146.646C100.841 147.052 99.666 149.875 100.196 152.955C100.725 156.035 102.757 158.205 104.736 157.799C106.713 157.395 107.888 154.57 107.358 151.49Z" fill="white"/>
</g>
<path d="M49.0566 151.845C54.2445 144.835 54.7276 136.397 50.1346 132.996C45.5412 129.597 37.6122 132.526 32.4246 139.536C27.2366 146.548 26.7535 154.986 31.3465 158.385C35.9399 161.783 43.8686 158.856 49.0566 151.845Z" fill="#E2798B"/>
<g opacity="0.25">
<path d="M37.6643 155.402C33.0724 152.004 33.554 143.565 38.742 136.555C40.1446 134.66 41.7506 133.074 43.434 131.82C39.6537 132.595 35.5448 135.321 32.4251 139.536C27.2371 146.547 26.754 154.985 31.347 158.384C34.6988 160.864 39.824 159.963 44.3668 156.579C41.8586 157.093 39.4959 156.757 37.6643 155.402Z" fill="black"/>
</g>
<g opacity="0.58">
<path d="M50.4457 144.592C51.995 141.878 51.805 138.912 50.0204 137.967C48.2373 137.021 45.5346 138.456 43.9853 141.169C42.436 143.883 42.6257 146.849 44.4103 147.794C46.1938 148.739 48.8965 147.305 50.4457 144.592Z" fill="white"/>
</g>
<path d="M0 81.2178C2.78228 78.8534 5.93717 76.1726 9.7541 74.6573C14.0272 72.9613 18.4814 73.1783 21.6697 75.2383C23.1824 76.2145 24.3985 77.7308 25.0972 79.4559C25.4938 79.3433 25.9062 79.2565 26.3334 79.1962C29.2469 78.7924 32.201 79.7761 34.0436 81.7637C35.2522 83.067 36.0075 84.5973 36.3873 86.2033C38.5541 85.9579 40.7293 86.3747 42.4962 87.4359C45.1756 89.0465 47.0226 91.8554 47.7789 95.0605C49.2063 95.5554 50.6476 96.5765 52.0441 98.0935C55.3629 101.693 57.6087 106.342 58.3704 111.176L56.5303 111.467C55.8248 106.99 53.7462 102.688 50.6742 99.3563C49.9863 98.6074 49.1051 97.8015 48.1218 97.2503C48.2598 99.0578 48.0626 100.928 47.4848 102.731C46.6076 105.499 44.2281 107.968 41.5631 107.124C40.6095 106.823 39.8675 106.158 39.4145 105.202C38.7349 103.761 38.7614 101.672 39.4812 99.8788C40.6719 97.0764 42.7139 95.0881 45.0429 94.7625C45.2821 94.7284 45.5256 94.7123 45.7695 94.7094C45.0361 92.3137 43.5721 90.2558 41.5383 89.0329C40.1382 88.1905 38.4032 87.8576 36.6634 88.0452C36.8506 90.8207 36.067 93.6586 34.7071 95.8498C33.7829 97.3389 32.7041 98.1247 31.5013 98.1853C30.5997 98.2276 29.7651 97.8525 29.1465 97.1241C28.2589 96.0783 27.8791 94.3769 28.1965 92.8918C28.7445 90.3351 30.6058 88.2016 33.3059 87.0281C33.7076 86.8546 34.115 86.7064 34.531 86.5834C34.2021 85.2324 33.5821 84.0037 32.679 83.0293C31.2656 81.5055 28.875 80.7251 26.5894 81.0407C26.2512 81.088 25.927 81.1562 25.6147 81.2469C25.9597 83.1649 25.6165 85.0309 24.6388 86.5257C24.4305 86.8452 24.1278 87.2505 23.6483 87.5123C23.1125 87.8067 22.4798 87.8433 21.8673 87.6167C21.1651 87.3581 20.5916 86.7954 20.3309 86.1114C19.982 85.1847 20.1003 84.0916 20.682 82.9554C21.2784 81.787 22.2119 80.8377 23.3807 80.1735C22.8295 78.7917 21.8612 77.5784 20.6594 76.8009C17.9761 75.0676 14.1567 74.913 10.443 76.3874C6.9105 77.7904 3.87898 80.364 1.20537 82.6366L0 81.2178ZM23.852 82.0793C23.2068 82.5355 22.6896 83.1175 22.3396 83.8018C22.1495 84.1805 21.8576 84.8899 22.0714 85.449C22.1388 85.6258 22.3195 85.8001 22.5107 85.8697C22.5688 85.8916 22.6767 85.9199 22.7517 85.8798C22.8815 85.8088 23.0293 85.5828 23.077 85.5079C23.7128 84.5428 23.9779 83.3467 23.852 82.0793ZM34.7978 88.4487C34.545 88.5344 34.2936 88.6302 34.0454 88.7374C31.9029 89.6659 30.4336 91.3314 30.0162 93.2809C29.8218 94.1858 30.0585 95.3205 30.567 95.9183C30.8123 96.2074 31.0863 96.3412 31.4091 96.3251C32.1005 96.2913 32.7228 95.5138 33.1237 94.8679C34.3542 92.8825 34.9047 90.6005 34.7978 88.4487ZM46.1869 96.5926C45.8947 96.5639 45.5977 96.5643 45.3018 96.6069C42.8402 96.952 41.5304 99.7095 41.2088 100.573C40.6884 101.867 40.6443 103.444 41.0987 104.405C41.3289 104.894 41.6646 105.203 42.1236 105.349C43.716 105.852 45.1985 103.755 45.7114 102.165C46.2996 100.32 46.4398 98.403 46.1869 96.5926Z" fill="#999924"/>
<path d="M72.4046 107.533C63.1013 91.4453 48.3278 81.3124 45.6782 81.8062C45.6782 81.8062 49.2757 77.5718 52.918 77.99C56.5599 78.4082 72.046 102.665 74.044 107.502C76.0419 112.338 72.4046 107.533 72.4046 107.533Z" fill="#A8542E"/>
<path d="M108.408 197.206C108.316 194.811 107.874 192.43 107.101 190.162C103.323 197.532 99.5458 204.901 95.7684 212.271C90.7927 203.374 78.6752 200.381 73.7626 191.449C73.5977 193.421 73.4327 195.393 73.2677 197.365C68.8454 192.703 66.3601 186.257 66.5075 179.833C65.6528 182.469 65.1934 185.233 65.1482 188.004C59.9251 176.919 64.3937 164.008 67.196 152.079C67.4141 151.151 67.6171 150.151 67.2613 149.266C66.4684 147.296 63.4035 147.359 61.8908 148.85C60.3781 150.34 59.9538 152.574 59.4159 154.628C56.4241 166.058 47.3959 175.72 36.1954 179.48C37.4055 176.25 38.6155 173.021 39.8255 169.792C38.1371 171.545 36.449 173.297 34.7605 175.049C37.9524 161.479 19.4135 150.078 22.1065 136.399C21.3677 138.562 20.6286 140.725 19.8898 142.888C19.1955 135.864 20.3937 128.663 23.3244 122.243C22.6649 122.978 22.005 123.713 21.3455 124.448C22.2977 118.568 26.1175 113.222 31.3714 110.416C30.2425 109.974 29.1131 109.533 27.9842 109.091C32.6955 105.448 37.6077 101.706 43.4147 100.382C49.2213 99.0579 56.1989 100.873 59.0167 106.12C60.632 109.128 61.0383 113.246 64.1172 114.723C66.9593 116.086 70.5833 113.927 71.5531 110.928C72.5232 107.929 71.391 104.593 69.5218 102.056C71.2296 104.885 74.1101 107.271 77.4142 107.337C80.7187 107.403 84.0507 104.35 83.4099 101.108C82.703 97.5315 78.3685 96.1935 75.8108 93.5955C71.8802 89.6028 72.8011 82.4128 76.8307 78.5202C80.8607 74.6276 87.0346 73.6621 92.5468 74.6663C98.0593 75.6701 103.091 78.3753 108.019 81.0429C106.649 80.8044 105.199 81.0626 103.996 81.7587C108.389 83.1602 112.505 85.4254 116.04 88.387C114.924 88.0919 113.705 88.2027 112.661 88.694C115.514 92.525 119.88 95.1961 124.59 95.9919C121.705 97.8586 118.82 99.7253 115.934 101.592C120.787 103.219 125.712 105.359 128.983 109.296C134.834 116.337 133.685 126.659 132.075 135.671C130.466 144.683 128.956 154.851 134.35 162.248C130.674 160.674 127.716 157.498 126.409 153.718C126.542 155.588 126.675 157.459 126.808 159.33C123.418 158.313 120.504 155.804 118.994 152.603C119.061 153.566 118.506 154.544 117.645 154.981C114.113 152.219 111.527 148.269 110.41 143.926C109.706 141.187 109.249 137.854 106.696 136.636C103.451 135.089 99.7284 138.877 99.8851 142.468C100.042 146.059 102.571 149.045 104.969 151.723C108.425 155.583 111.88 159.442 115.336 163.302C114.11 162.869 112.883 162.436 111.657 162.003C114.647 165.11 116.987 168.841 118.481 172.887C116.46 171.497 114.249 170.383 111.929 169.586C116.555 178.058 112.489 188.459 108.408 197.206Z" fill="#B4BA42"/>
<g opacity="0.21">
<path d="M63.7925 123.971C62.4548 124.139 61.1056 124.068 59.8874 123.594C59.5549 123.464 59.5607 122.937 59.9677 122.932C62.306 122.906 64.3828 122.985 66.5866 122.446C70.4993 120.072 73.7385 116.896 75.2157 111.46C74.8406 110.73 74.469 110.001 74.0613 109.269C73.925 109.025 74.2937 108.808 74.4368 109.05C74.8216 109.699 75.1558 110.358 75.5195 111.012C75.7002 110.966 75.9186 111.057 75.9204 111.289C75.9215 111.426 75.8946 111.551 75.8914 111.686C76.1249 112.115 76.3759 112.54 76.6004 112.971C76.6384 112.789 76.8758 112.702 77.0222 112.893C81.6618 118.966 89.1734 113.859 94.5159 113.498C94.5815 113.493 94.6479 113.5 94.7132 113.496C96.9765 111.575 99.0889 109.596 101.16 107.397C101.368 107.176 101.69 107.454 101.565 107.707C100.466 109.926 98.6832 111.935 96.6283 113.482C99.0458 113.578 101.467 114.084 103.721 114.888C104.232 115.07 104.716 115.308 105.213 115.522C107.051 115.171 109.057 115.663 110.933 115.089C113.823 114.204 115.808 112.051 118.342 110.579C118.61 110.423 119.015 110.757 118.802 111.038C117.307 113.011 114.896 114.619 112.636 115.577C111.576 116.027 110.479 116.343 109.334 116.467C108.587 116.547 107.839 116.476 107.091 116.397C113.22 119.612 118.127 125.102 121.455 131.058C121.628 131.367 121.182 131.754 120.943 131.453C117.23 126.793 113.709 121.818 108.557 118.607C102.081 114.57 96.2065 114.902 89.6306 116.104C93.5914 118.102 97.2007 122.241 98.8812 126.124C99.0483 126.51 98.5717 126.794 98.3185 126.454C96.7811 124.391 95.3175 122.29 93.4719 120.484C91.8839 118.929 90.0219 117.76 88.3277 116.353C87.6958 116.476 87.0682 116.596 86.4212 116.729C82.7212 117.483 79.3059 117.364 77.2922 114.345C79.5347 118.854 81.2985 123.463 82.6219 128.205C86.8573 132.801 91.1595 136.677 91.4672 143.325C91.4808 143.619 91.0422 143.675 90.9629 143.398C90.0036 140.054 89.0181 137.064 86.8161 134.313C85.5885 132.779 84.2855 131.309 83.0354 129.795C84.4376 135.256 85.3041 140.888 85.6197 146.769C85.8345 150.766 85.9532 154.69 86.1494 158.593C89.3484 166.275 96.1387 171.636 101.148 178.183C101.31 178.394 100.972 178.63 100.791 178.459C96.7262 174.619 92.7669 170.294 89.2942 165.902C88.095 164.386 87.0381 162.786 86.2849 161.067C86.5901 166.039 87.0883 170.992 88.1656 176.031C90.142 185.277 92.9552 194.322 94.8548 203.596C94.9287 203.955 94.4151 204.106 94.3029 203.751C91.8785 196.096 89.5126 188.341 87.7173 180.48C87.2475 185.352 86.6579 190.278 85.8682 195.074C85.8298 195.309 85.4626 195.253 85.4601 195.024C85.3995 189.481 85.7369 183.358 87.1647 177.965C85.9941 172.416 85.1563 166.811 84.8217 161.149C83.8566 163.739 82.6477 166.234 81.8583 168.898C80.805 172.452 80.4155 176.103 79.9511 179.769C79.916 180.046 79.5 179.965 79.4842 179.712C79.2654 176.194 79.775 172.81 80.72 169.419C81.6729 166.001 83.4342 163.072 84.7252 159.837C84.7234 159.792 84.7173 159.748 84.7155 159.703C84.4448 153.458 84.1704 147.497 83.5715 141.696C82.1223 149.979 76.1765 158.857 71.7431 165.069C71.5598 165.326 71.1732 165.111 71.3152 164.822C75.2978 156.702 82.0588 148.016 83.2437 138.823C82.1277 129.894 80.0759 121.31 75.8214 112.644C75.3176 117.481 71.9568 121.152 67.8289 123.76C65.8794 124.991 63.875 125.99 61.8631 126.925C59.5341 129.813 58.6558 133.745 56.8469 137.006C56.7074 137.257 56.2946 137.093 56.376 136.812C57.2069 133.944 58.3757 131.034 59.6865 128.346C59.7794 128.155 59.8877 127.973 59.9878 127.785C55.3851 129.858 50.82 131.819 46.8604 135.526C46.5889 135.781 46.0743 135.439 46.3156 135.109C50.6511 129.182 57.6606 127.056 63.7925 123.971Z" fill="black"/>
</g>
<path d="M188.028 133.947H226.228H236.296H274.496C324.458 217.782 274.496 278.752 274.496 278.752C274.844 278.752 264.202 278.752 251.538 278.752C251.538 278.752 229.174 278.752 210.986 278.752C198.322 278.752 187.68 278.752 188.028 278.752C188.028 278.752 138.067 217.782 188.028 133.947Z" fill="#CF936D"/>
<g opacity="0.62">
<path d="M196.352 227.201C197.31 244.611 200.987 261.882 205.048 278.752C203.843 278.752 202.684 278.752 201.566 278.752C197.544 261.982 193.929 244.805 192.97 227.386C191.22 195.572 198.242 164.293 205.611 133.947H209.097C201.716 164.303 194.613 195.591 196.352 227.201Z" fill="#CF936D"/>
</g>
<g opacity="0.62">
<path d="M265.324 176.417L265.169 174.057C264.583 164.994 263.423 147.057 258.391 133.947H262.069C266.816 147.181 267.919 164.097 268.549 173.838L268.703 176.185C271.146 211.847 263.913 244.714 255.18 278.752C254.169 278.752 253.146 278.752 252.102 278.752C252.102 278.752 251.948 278.752 251.683 278.752C260.441 244.687 267.752 211.852 265.324 176.417Z" fill="#CF936D"/>
</g>
<g opacity="0.62">
<path d="M226.82 133.947H230.207L231.107 278.752C229.995 278.752 228.864 278.752 227.719 278.752L226.82 133.947Z" fill="#CF936D"/>
</g>
<g opacity="0.28">
<path d="M170.04 176.217C177.648 172.23 186.429 170.449 194.963 171.485C210.28 173.345 223.638 183.584 232.441 196.257C241.244 208.93 246.073 223.901 250.038 238.813C253.508 251.862 256.415 265.323 255.959 278.751C254.523 278.751 253.046 278.751 251.538 278.751C251.538 278.751 229.174 278.751 210.985 278.751C198.322 278.751 187.68 278.751 188.028 278.751C188.028 278.751 154.244 237.502 170.04 176.217Z" fill="#CF936D"/>
</g>
<path d="M182.102 144.109H280.613V133.101H182.102V144.109Z" fill="#B07769"/>
<path d="M182.102 280.027H280.613V269.019H182.102V280.027Z" fill="#B07769"/>
<path d="M191.204 274.2C191.204 272.856 192.294 271.766 193.638 271.766C194.983 271.766 196.073 272.856 196.073 274.2C196.073 275.545 194.983 276.635 193.638 276.635C192.294 276.634 191.204 275.545 191.204 274.2Z" fill="#82584F"/>
<path d="M212.479 274.2C212.479 272.856 213.569 271.766 214.914 271.766C216.258 271.766 217.348 272.856 217.348 274.2C217.348 275.545 216.258 276.635 214.914 276.635C213.569 276.634 212.479 275.545 212.479 274.2Z" fill="#82584F"/>
<path d="M239.366 274.2C239.366 272.856 240.456 271.766 241.8 271.766C243.145 271.766 244.235 272.856 244.235 274.2C244.235 275.545 243.145 276.635 241.8 276.635C240.456 276.634 239.366 275.545 239.366 274.2Z" fill="#82584F"/>
<path d="M263.5 274.2C263.5 272.856 264.59 271.766 265.934 271.766C267.279 271.766 268.369 272.856 268.369 274.2C268.369 275.545 267.279 276.635 265.934 276.635C264.59 276.634 263.5 275.545 263.5 274.2Z" fill="#82584F"/>
<path d="M194.521 139.593C194.521 138.248 195.61 137.158 196.955 137.158C198.299 137.158 199.39 138.248 199.39 139.593C199.39 140.937 198.3 142.027 196.955 142.027C195.61 142.027 194.521 140.937 194.521 139.593Z" fill="#82584F"/>
<path d="M215.797 139.593C215.797 138.248 216.887 137.158 218.231 137.158C219.576 137.158 220.666 138.248 220.666 139.593C220.666 140.937 219.576 142.027 218.231 142.027C216.887 142.027 215.797 140.937 215.797 139.593Z" fill="#82584F"/>
<path d="M242.683 139.593C242.683 138.248 243.772 137.158 245.117 137.158C246.462 137.158 247.551 138.248 247.551 139.593C247.551 140.937 246.462 142.027 245.117 142.027C243.772 142.027 242.683 140.937 242.683 139.593Z" fill="#82584F"/>
<path d="M266.816 139.593C266.816 138.248 267.906 137.158 269.251 137.158C270.596 137.158 271.686 138.248 271.686 139.593C271.686 140.937 270.596 142.027 269.251 142.027C267.906 142.027 266.816 140.937 266.816 139.593Z" fill="#82584F"/>
<path d="M321.7 287.438H9.38429C7.05353 287.438 5.16748 285.55 5.16748 283.221C5.16748 280.892 7.05353 279.004 9.38429 279.004H321.7C324.031 279.004 325.917 280.892 325.917 283.221C325.917 285.549 324.03 287.438 321.7 287.438Z" fill="#B4BA42"/>
<path d="M240.378 218.631L249.823 182.936H276.465L285.909 218.631C287.279 223.81 284.852 229.244 280.08 231.68L265.764 238.987V273.041C274.014 273.897 278.43 279.023 278.43 279.023H246.838C246.838 279.023 252.351 274.118 260.523 273.103V238.986L246.207 231.68C241.435 229.244 239.008 223.81 240.378 218.631Z" fill="#B6BFF0"/>
<path d="M242.251 218.763L247.573 198.649C256.408 203.871 268.142 195.659 279.148 197.969L284.649 218.763C285.926 223.586 283.665 228.646 279.222 230.914L265.89 237.718H261.01L247.679 230.914C243.236 228.646 240.975 223.586 242.251 218.763Z" fill="#DE5F5F"/>
<g opacity="0.45">
<path d="M276.913 233.391L266.051 238.935H260.608L246.393 231.68C241.621 229.244 239.194 223.81 240.564 218.631L246.93 194.568C248.365 205.296 254.153 230.224 276.913 233.391Z" fill="#5D66CF"/>
</g>
<path d="M278.866 210.05C278.948 210.05 279.033 210.04 279.117 210.021C279.716 209.882 280.087 209.284 279.948 208.687L274.856 186.838C274.717 186.242 274.12 185.873 273.521 186.009C272.922 186.147 272.551 186.745 272.69 187.342L277.783 209.191C277.902 209.704 278.36 210.05 278.866 210.05Z" fill="white"/>
<path d="M165.538 10.7598H159.496C151.242 10.7598 144.551 17.4508 144.551 25.7049H180.483C180.483 17.4512 173.792 10.7598 165.538 10.7598Z" fill="#B6BFF0"/>
<path d="M180.483 22.5234H144.551V37.4685H180.483V22.5234Z" fill="#6F7BBD"/>
<path d="M108.841 60.8601V193.291C108.841 194.801 109.399 196.259 110.406 197.384L157.375 242.387L158.132 241.782L211.335 197.433C212.486 196.283 213.132 194.723 213.132 193.096V60.8605C213.132 45.2763 200.498 32.6426 184.914 32.6426H137.059C121.475 32.6422 108.841 45.2759 108.841 60.8601Z" fill="#B6BFF0"/>
<path d="M109.171 195.225C109.434 196.016 109.84 196.757 110.406 197.388L157.676 242.939L211.335 197.437C211.966 196.806 212.428 196.046 212.732 195.225L109.171 195.225Z" fill="#B6BFF0"/>
<path d="M204.252 203.174H116.33V210.589H204.252V203.174Z" fill="#6F7BBD"/>
<path d="M123.612 210.004H117.155V281.836H123.612V210.004Z" fill="#6F7BBD"/>
<path d="M203.143 210.004H196.686V281.836H203.143V210.004Z" fill="#6F7BBD"/>
<path d="M202.706 251.164H119.777V254.493H202.706V251.164Z" fill="#6F7BBD"/>
<path d="M213.181 60.8396H108.46C107.055 60.8396 105.916 59.702 105.916 58.2958C105.916 56.8896 107.055 55.752 108.46 55.752H213.181C214.586 55.752 215.725 56.8899 215.725 58.2958C215.725 59.702 214.586 60.8396 213.181 60.8396Z" fill="#DCE2FD"/>
<path d="M213.181 196.513H108.46C107.055 196.513 105.916 195.375 105.916 193.97C105.916 192.563 107.055 191.426 108.46 191.426H213.181C214.586 191.426 215.725 192.563 215.725 193.97C215.725 195.375 214.586 196.513 213.181 196.513Z" fill="#DCE2FD"/>
<path d="M116.091 67.3569C117.145 67.3569 117.999 66.5027 117.999 65.449C117.999 64.3953 117.145 63.541 116.091 63.541C115.037 63.541 114.183 64.3953 114.183 65.449C114.183 66.5027 115.037 67.3569 116.091 67.3569Z" fill="#6F7BBD"/>
<path d="M127.221 67.3569C128.275 67.3569 129.129 66.5027 129.129 65.449C129.129 64.3953 128.275 63.541 127.221 63.541C126.167 63.541 125.313 64.3953 125.313 65.449C125.313 66.5027 126.167 67.3569 127.221 67.3569Z" fill="#6F7BBD"/>
<path d="M139.622 65.449C139.622 64.3953 138.768 63.541 137.714 63.541C136.66 63.541 135.806 64.3953 135.806 65.449C135.806 66.5027 136.66 67.3569 137.714 67.3569C138.768 67.3569 139.622 66.5027 139.622 65.449Z" fill="#6F7BBD"/>
<path d="M148.844 67.3569C149.898 67.3569 150.752 66.5027 150.752 65.449C150.752 64.3953 149.898 63.541 148.844 63.541C147.79 63.541 146.936 64.3953 146.936 65.449C146.936 66.5027 147.79 67.3569 148.844 67.3569Z" fill="#6F7BBD"/>
<path d="M160.29 67.3569C161.344 67.3569 162.198 66.5027 162.198 65.449C162.198 64.3953 161.344 63.541 160.29 63.541C159.237 63.541 158.382 64.3953 158.382 65.449C158.382 66.5027 159.237 67.3569 160.29 67.3569Z" fill="#6F7BBD"/>
<path d="M171.42 67.3569C172.473 67.3569 173.328 66.5027 173.328 65.449C173.328 64.3953 172.473 63.541 171.42 63.541C170.366 63.541 169.512 64.3953 169.512 65.449C169.512 66.5027 170.366 67.3569 171.42 67.3569Z" fill="#6F7BBD"/>
<path d="M183.504 67.3569C184.558 67.3569 185.412 66.5027 185.412 65.449C185.412 64.3953 184.558 63.541 183.504 63.541C182.45 63.541 181.596 64.3953 181.596 65.449C181.596 66.5027 182.45 67.3569 183.504 67.3569Z" fill="#6F7BBD"/>
<path d="M196.54 65.449C196.54 64.3953 195.686 63.541 194.632 63.541C193.578 63.541 192.724 64.3953 192.724 65.449C192.724 66.5027 193.578 67.3569 194.632 67.3569C195.686 67.3569 196.54 66.5027 196.54 65.449Z" fill="#6F7BBD"/>
<path d="M205.922 67.3569C206.976 67.3569 207.83 66.5027 207.83 65.449C207.83 64.3953 206.976 63.541 205.922 63.541C204.868 63.541 204.014 64.3953 204.014 65.449C204.014 66.5027 204.868 67.3569 205.922 67.3569Z" fill="#6F7BBD"/>
<path d="M200.355 53.2085C201.409 53.2085 202.263 52.3542 202.263 51.3005C202.263 50.2468 201.409 49.3926 200.355 49.3926C199.301 49.3926 198.447 50.2468 198.447 51.3005C198.447 52.3542 199.301 53.2085 200.355 53.2085Z" fill="#6F7BBD"/>
<path d="M190.498 51.3005C190.498 50.2468 189.643 49.3926 188.59 49.3926C187.536 49.3926 186.682 50.2468 186.682 51.3005C186.682 52.3542 187.536 53.2085 188.59 53.2085C189.644 53.2085 190.498 52.3542 190.498 51.3005Z" fill="#6F7BBD"/>
<path d="M179.052 51.3005C179.052 50.2468 178.197 49.3926 177.144 49.3926C176.09 49.3926 175.236 50.2468 175.236 51.3005C175.236 52.3542 176.09 53.2085 177.144 53.2085C178.197 53.2085 179.052 52.3542 179.052 51.3005Z" fill="#6F7BBD"/>
<path d="M165.378 53.2085C166.431 53.2085 167.286 52.3542 167.286 51.3005C167.286 50.2468 166.431 49.3926 165.378 49.3926C164.324 49.3926 163.47 50.2468 163.47 51.3005C163.47 52.3542 164.324 53.2085 165.378 53.2085Z" fill="#6F7BBD"/>
<path d="M157.111 51.3005C157.111 50.2468 156.257 49.3926 155.203 49.3926C154.149 49.3926 153.295 50.2468 153.295 51.3005C153.295 52.3542 154.149 53.2085 155.203 53.2085C156.257 53.2085 157.111 52.3542 157.111 51.3005Z" fill="#6F7BBD"/>
<path d="M143.438 53.2085C144.491 53.2085 145.346 52.3542 145.346 51.3005C145.346 50.2468 144.491 49.3926 143.438 49.3926C142.384 49.3926 141.53 50.2468 141.53 51.3005C141.53 52.3542 142.384 53.2085 143.438 53.2085Z" fill="#6F7BBD"/>
<path d="M133.262 53.2085C134.316 53.2085 135.17 52.3542 135.17 51.3005C135.17 50.2468 134.316 49.3926 133.262 49.3926C132.209 49.3926 131.354 50.2468 131.354 51.3005C131.354 52.3542 132.209 53.2085 133.262 53.2085Z" fill="#6F7BBD"/>
<path d="M121.497 53.2085C122.551 53.2085 123.405 52.3542 123.405 51.3005C123.405 50.2468 122.551 49.3926 121.497 49.3926C120.443 49.3926 119.589 50.2468 119.589 51.3005C119.589 52.3542 120.443 53.2085 121.497 53.2085Z" fill="#6F7BBD"/>
<path d="M116.091 187.824C117.145 187.824 117.999 186.97 117.999 185.916C117.999 184.862 117.145 184.008 116.091 184.008C115.037 184.008 114.183 184.862 114.183 185.916C114.183 186.97 115.037 187.824 116.091 187.824Z" fill="#6F7BBD"/>
<path d="M127.221 187.824C128.275 187.824 129.129 186.97 129.129 185.916C129.129 184.862 128.275 184.008 127.221 184.008C126.167 184.008 125.313 184.862 125.313 185.916C125.313 186.97 126.167 187.824 127.221 187.824Z" fill="#6F7BBD"/>
<path d="M139.622 185.916C139.622 184.862 138.768 184.008 137.714 184.008C136.66 184.008 135.806 184.862 135.806 185.916C135.806 186.969 136.66 187.824 137.714 187.824C138.768 187.824 139.622 186.969 139.622 185.916Z" fill="#6F7BBD"/>
<path d="M148.844 187.824C149.898 187.824 150.752 186.97 150.752 185.916C150.752 184.862 149.898 184.008 148.844 184.008C147.79 184.008 146.936 184.862 146.936 185.916C146.936 186.97 147.79 187.824 148.844 187.824Z" fill="#6F7BBD"/>
<path d="M160.29 187.824C161.344 187.824 162.198 186.97 162.198 185.916C162.198 184.862 161.344 184.008 160.29 184.008C159.237 184.008 158.382 184.862 158.382 185.916C158.382 186.97 159.237 187.824 160.29 187.824Z" fill="#6F7BBD"/>
<path d="M171.42 187.824C172.473 187.824 173.328 186.97 173.328 185.916C173.328 184.862 172.473 184.008 171.42 184.008C170.366 184.008 169.512 184.862 169.512 185.916C169.512 186.97 170.366 187.824 171.42 187.824Z" fill="#6F7BBD"/>
<path d="M183.504 187.824C184.558 187.824 185.412 186.97 185.412 185.916C185.412 184.862 184.558 184.008 183.504 184.008C182.45 184.008 181.596 184.862 181.596 185.916C181.596 186.97 182.45 187.824 183.504 187.824Z" fill="#6F7BBD"/>
<path d="M196.54 185.916C196.54 184.862 195.686 184.008 194.632 184.008C193.578 184.008 192.724 184.862 192.724 185.916C192.724 186.969 193.578 187.824 194.632 187.824C195.686 187.824 196.54 186.969 196.54 185.916Z" fill="#6F7BBD"/>
<path d="M205.922 187.824C206.976 187.824 207.83 186.97 207.83 185.916C207.83 184.862 206.976 184.008 205.922 184.008C204.868 184.008 204.014 184.862 204.014 185.916C204.014 186.97 204.868 187.824 205.922 187.824Z" fill="#6F7BBD"/>
<path d="M192.83 110.963V94.7598H128.386V107.93C150.453 108.431 172.487 121.6 192.83 110.963Z" fill="#DCE2FD"/>
<path d="M192.83 114.616V110.964C172.487 121.602 150.453 108.433 128.386 107.932V110.613C149.122 112.261 169.975 126.166 192.83 114.616Z" fill="#B83535"/>
<path d="M128.386 110.613V123.005C150.35 122.878 172.24 137.742 192.83 129.532V114.617C169.975 126.167 149.122 112.262 128.386 110.613Z" fill="#DE5F5F"/>
<path d="M128.386 123.003V171.075H192.83V129.53C172.24 137.739 150.35 122.875 128.386 123.003Z" fill="#E2798B"/>
<path d="M192.831 172.345H128.387C127.684 172.345 127.115 171.776 127.115 171.072V94.7565C127.115 94.0535 127.684 93.4844 128.387 93.4844H192.831C193.534 93.4844 194.104 94.0532 194.104 94.7565V171.072C194.103 171.776 193.534 172.345 192.831 172.345ZM129.659 169.801H191.559V96.0285H129.659V169.801Z" fill="#6F7BBD"/>
<path d="M184.828 160.286C184.828 159.189 183.938 158.299 182.84 158.299C181.742 158.299 180.853 159.189 180.853 160.286C180.853 161.384 181.742 162.274 182.84 162.274C183.938 162.274 184.828 161.384 184.828 160.286Z" fill="#B83535"/>
<path d="M181.012 152.898C181.012 152.283 180.514 151.785 179.899 151.785C179.284 151.785 178.786 152.283 178.786 152.898C178.786 153.513 179.284 154.011 179.899 154.011C180.513 154.011 181.012 153.513 181.012 152.898Z" fill="#B83535"/>
<path d="M161.159 160.394C162.184 159.37 162.184 157.709 161.159 156.684C160.135 155.66 158.474 155.66 157.449 156.684C156.425 157.709 156.425 159.37 157.449 160.394C158.474 161.419 160.135 161.419 161.159 160.394Z" fill="#B83535"/>
<path d="M159.947 146.86C160.518 146.86 160.98 146.397 160.98 145.827C160.98 145.256 160.518 144.793 159.947 144.793C159.376 144.793 158.913 145.256 158.913 145.827C158.913 146.397 159.376 146.86 159.947 146.86Z" fill="#B83535"/>
<path d="M169.882 154.012C169.882 153.573 169.526 153.217 169.087 153.217C168.648 153.217 168.292 153.573 168.292 154.012C168.292 154.451 168.648 154.807 169.087 154.807C169.526 154.807 169.882 154.451 169.882 154.012Z" fill="#B83535"/>
<path d="M146.829 130.954C146.829 130.164 146.189 129.523 145.398 129.523C144.608 129.523 143.967 130.164 143.967 130.954C143.967 131.744 144.608 132.385 145.398 132.385C146.189 132.385 146.829 131.744 146.829 130.954Z" fill="#B83535"/>
<path d="M139.834 150.351C140.537 150.351 141.106 149.781 141.106 149.079C141.106 148.376 140.537 147.807 139.834 147.807C139.132 147.807 138.562 148.376 138.562 149.079C138.562 149.781 139.132 150.351 139.834 150.351Z" fill="#B83535"/>
<path d="M147.943 162.677C147.943 161.842 147.266 161.166 146.432 161.166C145.598 161.166 144.922 161.842 144.922 162.677C144.922 163.511 145.598 164.187 146.432 164.187C147.267 164.187 147.943 163.511 147.943 162.677Z" fill="#B83535"/>
<path d="M150.486 152.255C151.539 152.255 152.394 151.401 152.394 150.347C152.394 149.294 151.539 148.439 150.486 148.439C149.432 148.439 148.578 149.294 148.578 150.347C148.578 151.401 149.432 152.255 150.486 152.255Z" fill="#B83535"/>
<path d="M138.244 137.796C138.244 136.567 137.248 135.57 136.019 135.57C134.789 135.57 133.792 136.567 133.792 137.796C133.792 139.026 134.789 140.022 136.019 140.022C137.248 140.022 138.244 139.026 138.244 137.796Z" fill="#B83535"/>
<path d="M184.51 139.464C184.51 139.068 184.19 138.748 183.795 138.748C183.399 138.748 183.079 139.068 183.079 139.464C183.079 139.859 183.399 140.179 183.795 140.179C184.19 140.179 184.51 139.859 184.51 139.464Z" fill="#B83535"/>
<path d="M170.36 166.412C171.414 166.412 172.268 165.557 172.268 164.504C172.268 163.45 171.414 162.596 170.36 162.596C169.306 162.596 168.452 163.45 168.452 164.504C168.452 165.557 169.306 166.412 170.36 166.412Z" fill="#B83535"/>
<path d="M134.905 166.73C136.486 166.73 137.767 165.448 137.767 163.868C137.767 162.287 136.486 161.006 134.905 161.006C133.325 161.006 132.043 162.287 132.043 163.868C132.043 165.448 133.325 166.73 134.905 166.73Z" fill="#B83535"/>
<path d="M139.118 158.779C139.777 158.779 140.311 158.246 140.311 157.587C140.311 156.928 139.777 156.395 139.118 156.395C138.46 156.395 137.926 156.928 137.926 157.587C137.926 158.246 138.46 158.779 139.118 158.779Z" fill="#B83535"/>
<path d="M173.379 135.25C175.223 135.25 176.718 133.755 176.718 131.911C176.718 130.067 175.223 128.572 173.379 128.572C171.535 128.572 170.041 130.067 170.041 131.911C170.041 133.755 171.535 135.25 173.379 135.25Z" fill="#DE5F5F"/>
<path d="M167.817 135.247C167.817 134.457 167.176 133.816 166.386 133.816C165.596 133.816 164.955 134.457 164.955 135.247C164.955 136.037 165.596 136.678 166.386 136.678C167.176 136.678 167.817 136.037 167.817 135.247Z" fill="#DE5F5F"/>
<path d="M161.456 129.287C161.456 128.365 160.708 127.617 159.786 127.617C158.864 127.617 158.117 128.365 158.117 129.287C158.117 130.209 158.864 130.956 159.786 130.956C160.708 130.956 161.456 130.209 161.456 129.287Z" fill="#DE5F5F"/>
<path d="M140.55 125.869C142.262 125.869 143.65 124.481 143.65 122.768C143.65 121.056 142.262 119.668 140.55 119.668C138.838 119.668 137.45 121.056 137.45 122.768C137.45 124.481 138.838 125.869 140.55 125.869Z" fill="#DE5F5F"/>
<path d="M138.084 127.3C138.084 126.334 137.301 125.551 136.335 125.551C135.369 125.551 134.586 126.334 134.586 127.3C134.586 128.266 135.369 129.049 136.335 129.049C137.301 129.049 138.084 128.266 138.084 127.3Z" fill="#DE5F5F"/>
<path d="M156.21 135.005C156.21 134.522 155.818 134.131 155.336 134.131C154.853 134.131 154.461 134.522 154.461 135.005C154.461 135.488 154.853 135.88 155.336 135.88C155.819 135.88 156.21 135.488 156.21 135.005Z" fill="#DE5F5F"/>
<path d="M162.887 139.141C162.887 137.868 161.855 136.836 160.582 136.836C159.309 136.836 158.276 137.868 158.276 139.141C158.276 140.414 159.309 141.447 160.582 141.447C161.855 141.447 162.887 140.414 162.887 139.141Z" fill="#DE5F5F"/>
<path d="M170.678 145.266C170.678 144.74 170.251 144.312 169.724 144.312C169.197 144.312 168.77 144.74 168.77 145.266C168.77 145.793 169.197 146.22 169.724 146.22C170.251 146.22 170.678 145.793 170.678 145.266Z" fill="#DE5F5F"/>
<path d="M178.787 140.654C178.787 140.039 178.289 139.541 177.674 139.541C177.059 139.541 176.561 140.039 176.561 140.654C176.561 141.269 177.059 141.767 177.674 141.767C178.289 141.767 178.787 141.269 178.787 140.654Z" fill="#DE5F5F"/>
<path d="M185.782 135.09C187.186 135.09 188.325 133.951 188.325 132.546C188.325 131.141 187.186 130.002 185.782 130.002C184.377 130.002 183.238 131.141 183.238 132.546C183.238 133.951 184.377 135.09 185.782 135.09Z" fill="#DE5F5F"/>
<path d="M147.544 142.085C148.115 142.085 148.578 141.622 148.578 141.051C148.578 140.48 148.115 140.018 147.544 140.018C146.973 140.018 146.511 140.48 146.511 141.051C146.511 141.622 146.973 142.085 147.544 142.085Z" fill="#DE5F5F"/>
<path d="M157.093 129.395C158.93 128.961 160.068 127.12 159.634 125.283C159.2 123.446 157.359 122.308 155.522 122.742C153.685 123.176 152.547 125.017 152.981 126.854C153.415 128.691 155.256 129.829 157.093 129.395Z" fill="#DE5F5F"/>
<path d="M142.853 137.793C142.853 137.617 142.711 137.475 142.535 137.475C142.36 137.475 142.217 137.617 142.217 137.793C142.217 137.968 142.36 138.111 142.535 138.111C142.711 138.111 142.853 137.968 142.853 137.793Z" fill="#DE5F5F"/>
<path d="M153.189 159.099C154.242 159.099 155.097 158.245 155.097 157.191C155.097 156.137 154.242 155.283 153.189 155.283C152.135 155.283 151.281 156.137 151.281 157.191C151.281 158.245 152.135 159.099 153.189 159.099Z" fill="#DE5F5F"/>
<path d="M164.558 150.353C165.48 150.353 166.227 149.605 166.227 148.683C166.227 147.761 165.48 147.014 164.558 147.014C163.636 147.014 162.888 147.761 162.888 148.683C162.888 149.605 163.636 150.353 164.558 150.353Z" fill="#DE5F5F"/>
<path d="M181.648 147.414C181.648 146.667 181.043 146.062 180.297 146.062C179.551 146.062 178.946 146.667 178.946 147.414C178.946 148.16 179.551 148.765 180.297 148.765C181.043 148.765 181.648 148.16 181.648 147.414Z" fill="#DE5F5F"/>
<path d="M175.607 161.161C176.397 161.161 177.038 160.52 177.038 159.73C177.038 158.939 176.397 158.299 175.607 158.299C174.816 158.299 174.176 158.939 174.176 159.73C174.176 160.52 174.816 161.161 175.607 161.161Z" fill="#DE5F5F"/>
<path d="M170.407 81.1766C170.284 77.0892 166.87 73.8762 162.783 73.9995C158.696 74.1229 155.483 77.5364 155.606 81.6234C155.729 85.7108 159.143 88.9242 163.23 88.8005C167.317 88.6774 170.531 85.264 170.407 81.1766Z" fill="#F0F0F0"/>
<path d="M163.255 89.6301C158.719 89.7671 154.917 86.1876 154.78 81.6497C154.643 77.113 158.222 73.3107 162.758 73.1737C167.295 73.0367 171.098 76.6163 171.235 81.153C171.371 85.6909 167.792 89.4935 163.255 89.6301ZM162.807 74.8288C159.183 74.9382 156.325 77.9759 156.434 81.5999C156.543 85.225 159.58 88.0848 163.204 87.9754C166.828 87.866 169.689 84.8283 169.58 81.2032C169.47 77.5789 166.432 74.7194 162.807 74.8288Z" fill="#3C251D"/>
<path d="M161.777 82.5754L163.394 83.6879L166.262 77.4434L161.777 82.5754Z" fill="#E2798B"/>
<path d="M116.514 130.372C115.109 130.372 113.97 129.234 113.97 127.828V77.3758C113.97 75.9696 115.109 74.832 116.514 74.832C117.919 74.832 119.058 75.9696 119.058 77.3758V127.828C119.058 129.235 117.919 130.372 116.514 130.372Z" fill="#F0F0F0"/>
<path d="M116.409 172.772C115.004 172.772 113.865 171.635 113.865 170.228V139.702C113.865 138.296 115.004 137.158 116.409 137.158C117.814 137.158 118.953 138.296 118.953 139.702V170.228C118.953 171.634 117.814 172.772 116.409 172.772Z" fill="#F0F0F0"/>
</svg>
