<svg fill="none" height="340" viewBox="0 0 384 340" width="384" xmlns="http://www.w3.org/2000/svg"><path d="m333.017 236.345c-16.481 44.445-56.917 77.967-102.29 92.105-68.274 21.274-164.8048 8.714-207.6752-54.451-41.5068-61.155-21.98741-144.177 19.1962-200.4431 28.9282-39.5221 73.774-68.31147 122.531-72.956906 113.909-10.853294 204.391 128.059006 169.589 231.917006-.43 1.285-.88 2.562-1.351 3.829z" fill="#f5dbda"/><path d="m265.583 314.988c-30.006-1.827-57.789-20.2-74.715-45.136-25.471-37.521-35.607-98.416-5.159-136.053 29.48-36.4407 83.456-39.8669 125.179-25.223 29.307 10.286 55.029 32.206 66.818 60.942 27.541 67.135-40.119 147.602-109.551 145.586-.86-.025-1.717-.064-2.572-.116z" fill="#f9ecec"/><path d="m180.524 183.228c41.847 0 75.77-33.923 75.77-75.77s-33.923-75.7705-75.77-75.7705-75.77 33.9235-75.77 75.7705 33.923 75.77 75.77 75.77z" fill="#dce2fd"/><path d="m144.503 176.012c-37.803-19.862-52.3966-66.776-32.535-104.5765 19.861-37.8007 66.774-52.3973 104.576-32.5352 37.801 19.8613 52.397 66.7757 32.535 104.5767-19.861 37.801-66.775 52.397-104.576 32.535zm70.485-134.1488c-36.168-19.0031-81.053-5.0399-100.057 31.1292-19.004 36.1686-5.039 81.0536 31.129 100.0566 36.169 19.004 81.053 5.04 100.057-31.129 19.003-36.169 5.04-81.0527-31.129-100.0568z" fill="#999924"/><path d="m131.855 78.0921c9.008 3.7356 6.542 32.9749-9.811 27.2189-16.353-5.7563-.86-31.6442 9.811-27.2189z" fill="#6f7bbd"/><path d="m131.037 96.4156c1.134-2.5305.002-5.5007-2.529-6.6343-2.53-1.1335-5.501-.0011-6.634 2.5294-1.134 2.5305-.001 5.5008 2.529 6.6343 2.531 1.134 5.501.0011 6.634-2.5294z" fill="#d5e06f"/><path d="m130.338 82.1817c.287-.5453.077-1.2201-.469-1.5065-.545-.2867-1.22-.0769-1.506.4689-.287.5453-.077 1.22.469 1.5064.545.2863 1.219.0765 1.506-.4688z" fill="#b6bff0"/><path d="m124.793 86.4376c.233-.4432.062-.9911-.381-1.224s-.991-.0624-1.224.3808-.062.9911.381 1.224.991.0624 1.224-.3808z" fill="#b6bff0"/><path d="m134.128 89.0568c.179-.3411.048-.7625-.293-.9415-.341-.1791-.762-.0479-.941.2927s-.048.7624.293.9415c.34.1795.762.0483.941-.2927z" fill="#b6bff0"/><path d="m121.442 93.4175c.501-.9547.134-2.135-.82-2.6363-.955-.5018-2.135-.1343-2.637.82-.501.9548-.134 2.1351.82 2.6364.955.5017 2.135.1342 2.637-.8201z" fill="#b6bff0"/><path d="m127.15 104.136c.215-.409.058-.915-.352-1.13-.409-.215-.915-.057-1.13.352-.214.409-.057.915.352 1.13s.915.058 1.13-.352z" fill="#b6bff0"/><path d="m187.353 120.841c-6.384 6.851-31.865-5.18-21.198-17.961 10.666-12.7824 28.76 9.844 21.198 17.961z" fill="#6f7bbd"/><path d="m170.957 113.766c1.776 1.984 4.824 2.153 6.808.376 1.984-1.775 2.153-4.823.377-6.807-1.776-1.985-4.824-2.154-6.808-.377-1.984 1.775-2.152 4.823-.377 6.808z" fill="#d5e06f"/><path d="m184.183 118.099c.395.441 1.072.478 1.513.083.441-.394.479-1.071.084-1.512-.395-.442-1.072-.479-1.513-.084s-.478 1.072-.084 1.513z" fill="#b6bff0"/><path d="m182.215 111.684c.321.358.871.388 1.229.067.358-.32.389-.87.068-1.229-.32-.358-.871-.389-1.229-.068s-.389.871-.068 1.23z" fill="#b6bff0"/><path d="m176.726 119.206c.247.276.67.299.946.053.275-.247.299-.67.052-.946s-.67-.299-.946-.053c-.275.247-.298.671-.052.946z" fill="#b6bff0"/><path d="m177.06 106.325c.691.771 1.876.837 2.648.146.771-.69.837-1.876.146-2.647-.69-.772-1.876-.838-2.647-.147-.772.691-.838 1.876-.147 2.648z" fill="#b6bff0"/><path d="m165.499 107.865c.296.331.803.359 1.134.063s.359-.804.063-1.135-.804-.359-1.135-.063c-.33.296-.358.804-.062 1.135z" fill="#b6bff0"/><path d="m233.746 90.8442c5.261.259 9.333 15.5778-.031 15.6288-9.365.051-6.202-15.9356.031-15.6288z" fill="#b6bff0"/><path d="m236.652 100.457c.209-1.4827-.824-2.8545-2.307-3.063-1.483-.2086-2.855.8244-3.063 2.3073-.209 1.4827.824 2.8547 2.307 3.0637s2.855-.824 3.063-2.308z" fill="#999924"/><path d="m233.718 93.1985c.047-.3295-.183-.6342-.513-.6808-.329-.0466-.634.1833-.68.5128-.047.3295.183.6342.512.6808.33.0466.635-.1833.681-.5128z" fill="#6f7bbd"/><path d="m231.674 96.3743c.037-.268-.149-.5155-.417-.5531s-.515.1487-.553.4167.149.5154.417.553c.267.0376.515-.1487.553-.4166z" fill="#6f7bbd"/><path d="m236.898 96.0056c.029-.206-.114-.3966-.32-.4257s-.397.1145-.426.3205.115.3967.321.4257c.206.0291.396-.1145.425-.3205z" fill="#6f7bbd"/><path d="m231.241 100.534c.081-.577-.321-1.1103-.897-1.1915-.577-.0812-1.111.3205-1.192.8975s.321 1.11.897 1.191c.577.081 1.111-.321 1.192-.897z" fill="#6f7bbd"/><path d="m236.098 104.945c.035-.247-.138-.476-.385-.511s-.475.138-.51.385.137.475.384.51c.248.035.476-.137.511-.384z" fill="#6f7bbd"/><path d="m242.79 127.557c-3.245 7.572-30.961 3.115-26.039-10.711 4.922-13.827 29.884 1.741 26.039 10.711z" fill="#b6bff0"/><path d="m225.208 125.276c2.361 1.319 5.2.734 6.341-1.308s.152-4.767-2.209-6.087c-2.361-1.319-5.2-.734-6.341 1.308s-.153 4.767 2.209 6.087z" fill="#999924"/><path d="m238.881 125.909c.524.294 1.155.164 1.409-.29.253-.454.033-1.06-.492-1.353-.524-.293-1.155-.163-1.409.291-.253.454-.033 1.059.492 1.352z" fill="#6f7bbd"/><path d="m234.683 120.73c.426.238.938.133 1.144-.236s.028-.861-.398-1.099-.939-.132-1.145.236c-.206.369-.028.861.399 1.099z" fill="#6f7bbd"/><path d="m232.501 128.678c.327.183.722.101.88-.182.159-.284.021-.662-.306-.845-.328-.184-.723-.102-.881.181-.159.284-.022.662.307.846z" fill="#6f7bbd"/><path d="m227.978 117.255c.918.513 2.022.286 2.466-.508s.06-1.854-.859-2.367c-.918-.513-2.022-.286-2.466.508s-.059 1.854.859 2.367z" fill="#6f7bbd"/><path d="m218.025 121.399c.394.22.867.122 1.057-.218s.025-.794-.368-1.015c-.394-.22-.867-.122-1.057.218-.19.341-.025.795.368 1.015z" fill="#6f7bbd"/><path d="m163.481 92.1122c1.486-9.4994-26.089-10.1631-26.258-1.7453-.17 8.4186 24.755 11.3531 26.258 1.7453z" fill="#b6bff0"/><path d="m160.153 93.1985c.376-.7158.101-1.6014-.615-1.9775-.716-.376-1.601-.1008-1.977.6155-.376.7158-.101 1.6013.615 1.9774.717.376 1.601.1004 1.977-.6154z" fill="#6f7bbd"/><path d="m155.022 95.4664c.215-.409.058-.915-.351-1.1299-.409-.215-.915-.0577-1.13.3517s-.058.9149.351 1.1299.915.0573 1.13-.3517z" fill="#6f7bbd"/><path d="m152.439 88.9912c.305-.5795.082-1.2962-.498-1.6009-.579-.3047-1.296-.0816-1.601.4979-.304.5795-.081 1.2962.498 1.6009.58.3047 1.297.0816 1.601-.4979z" fill="#6f7bbd"/><path d="m147.585 94.6339c.484-.9205.13-2.0586-.791-2.5424s-2.059-.1295-2.542.7911c-.484.9205-.13 2.0586.791 2.5423.92.4834 2.059.1296 2.542-.791z" fill="#6f7bbd"/><path d="m144.417 87.7678c.125-.2385.034-.5338-.205-.659-.238-.1252-.534-.0338-.659.2051-.125.2385-.034.5338.205.659.239.1257.534.0338.659-.2051z" fill="#6f7bbd"/><path d="m158.006 88.294c.197-.3748.053-.8389-.322-1.0359s-.839-.053-1.036.3223c-.197.3752-.053.8389.322 1.0359s.839.053 1.036-.3223z" fill="#6f7bbd"/><path d="m145.391 112.147c-2.273 4.36 10.984 9.19 12.442 5.137 1.458-4.052-10.143-9.548-12.442-5.137z" fill="#6f7bbd"/><path d="m147.183 112.162c-.299.286-.31.76-.025 1.059s.759.311 1.059.025c.299-.286.311-.76.025-1.059-.285-.299-.76-.31-1.059-.025z" fill="#b6bff0"/><path d="m150.04 111.901c-.171.164-.178.435-.015.606.164.171.434.177.605.014.171-.164.178-.435.015-.605-.163-.171-.434-.177-.605-.015z" fill="#b6bff0"/><path d="m150.233 115.465c-.243.231-.252.615-.02.857.231.242.615.251.857.02s.251-.615.02-.857c-.231-.243-.615-.252-.857-.02z" fill="#b6bff0"/><path d="m153.507 113.524c-.385.367-.399.977-.032 1.362s.977.399 1.362.032c.384-.368.399-.977.032-1.362s-.977-.399-1.362-.032z" fill="#b6bff0"/><path d="m153.92 117.368c-.1.095-.103.253-.009.353.096.099.253.103.353.008.1-.096.103-.253.009-.353-.096-.1-.254-.103-.353-.008z" fill="#b6bff0"/><path d="m147.421 114.892c-.156.149-.162.398-.013.554.15.157.398.163.555.014.157-.15.163-.398.013-.555-.149-.157-.398-.163-.555-.013z" fill="#b6bff0"/><path d="m143.318 118.411c5.995-1.437-.342-17.949-5.375-15.995-5.032 1.955-.688 17.449 5.375 15.995z" fill="#b6bff0"/><path d="m141.864 116.698c.517.048.974-.331 1.023-.847.048-.517-.332-.974-.848-1.023-.516-.048-.974.332-1.022.848-.048.517.331.974.847 1.022z" fill="#6f7bbd"/><path d="m139.267 114.211c.295.028.556-.189.584-.484.027-.295-.189-.556-.484-.584s-.557.189-.584.484c-.028.295.189.557.484.584z" fill="#6f7bbd"/><path d="m142.478 111.099c.418.039.789-.268.828-.686s-.268-.789-.686-.828-.789.268-.828.686.268.789.686.828z" fill="#6f7bbd"/><path d="m137.946 109.598c.664.062 1.252-.425 1.314-1.089s-.425-1.252-1.089-1.314-1.252.425-1.314 1.089.426 1.252 1.089 1.314z" fill="#6f7bbd"/><path d="m141.242 106.043c.172.016.324-.11.34-.282s-.11-.324-.282-.34-.324.11-.34.282c-.016.171.11.324.282.34z" fill="#6f7bbd"/><path d="m144.249 114.228c.27.025.51-.174.535-.444.026-.271-.173-.511-.444-.536-.27-.025-.51.174-.535.444-.025.271.174.511.444.536z" fill="#6f7bbd"/><path d="m208.65 87.4668c-8.228-7.8293 6.688-38.5794 22.054-25.4803 15.366 13.0995-12.306 34.7562-22.054 25.4803z" fill="#6f7bbd"/><path d="m226.893 73.6539c.865-3.1114-.955-6.335-4.067-7.2002-3.111-.8652-6.335.9557-7.2 4.067-.865 3.1114.956 6.335 4.067 7.2002s6.335-.9557 7.2-4.067z" fill="#d5e06f"/><path d="m212.01 83.662c-.54.4731-.595 1.2941-.121 1.8338.473.5398 1.294.5941 1.833.121.54-.4731.594-1.294.121-1.8338s-1.294-.5941-1.833-.121z" fill="#b6bff0"/><path d="m219.817 81.3557c-.438.3842-.483 1.0513-.098 1.4898.384.4385 1.051.4825 1.489.0983.439-.3842.483-1.0513.099-1.4898-.384-.4389-1.052-.4829-1.49-.0983z" fill="#b6bff0"/><path d="m210.763 74.5996c-.337.2957-.371.8085-.075 1.1462.295.3372.808.3713 1.146.0756.337-.2957.371-.8086.075-1.1462-.295-.3372-.808-.3709-1.146-.0756z" fill="#b6bff0"/><path d="m226.381 75.1693c-.945.8278-1.04 2.2646-.212 3.209.828.9445 2.265 1.0394 3.209.2116.945-.8278 1.04-2.2646.212-3.2091s-2.264-1.0393-3.209-.2115z" fill="#b6bff0"/><path d="m224.66 61.1303c-.404.3547-.445.9705-.09 1.3752.354.4047.97.4454 1.375.0907.405-.3548.445-.9706.091-1.3753-.355-.4047-.971-.4453-1.376-.0906z" fill="#b6bff0"/><path d="m187.357 62.9842c2.008-12.8329-35.245-13.7299-35.474-2.3573-.229 11.3721 33.443 15.3368 35.474 2.3573z" fill="#6f7bbd"/><path d="m182.863 64.4515c.508-.9671.136-2.1633-.831-2.6714-.968-.5081-2.164-.1359-2.672.8312-.508.9672-.136 2.1633.831 2.6715.968.5081 2.164.1359 2.672-.8313z" fill="#b6bff0"/><path d="m175.932 67.5138c.29-.5526.078-1.2359-.475-1.5265-.552-.2902-1.236-.0778-1.526.4748-.291.5526-.078 1.2363.474 1.5265.553.2906 1.237.0778 1.527-.4748z" fill="#b6bff0"/><path d="m172.442 58.7666c.412-.783.11-1.7514-.672-2.1625-.783-.4115-1.752-.1103-2.163.6727-.412.7829-.11 1.7513.673 2.1624.783.4116 1.751.1107 2.162-.6726z" fill="#b6bff0"/><path d="m165.883 66.3853c.654-1.2436.175-2.7813-1.068-3.4347-1.244-.6534-2.781-.1748-3.435 1.0684-.653 1.2436-.175 2.7813 1.069 3.4347 1.243.6539 2.781.1752 3.434-1.0684z" fill="#b6bff0"/><path d="m161.604 57.1109c.169-.3223.045-.721-.277-.8906-.323-.1693-.721-.0453-.891.2769-.169.3222-.045.721.277.8906.322.1697.721.0457.891-.2769z" fill="#b6bff0"/><path d="m179.962 57.8211c.266-.5069.071-1.133-.436-1.3992-.506-.2663-1.133-.0714-1.399.4355-.266.5064-.071 1.133.435 1.3992.507.2663 1.134.0714 1.4-.4355z" fill="#b6bff0"/><path d="m194.367 75.6323c-6.223-6.6207-22.719 13.5645-16.537 18.5754 6.181 5.0108 22.832-11.879 16.537-18.5754z" fill="#6f7bbd"/><path d="m193.245 78.7441c-.316-.6961-1.136-1.0043-1.832-.6884-.696.3158-1.004 1.1359-.688 1.8321.315.6961 1.136 1.0043 1.832.6885s1.004-1.136.688-1.8322z" fill="#b6bff0"/><path d="m191.961 83.8902c-.181-.3979-.65-.574-1.047-.3936-.398.1803-.574.6491-.394 1.047s.649.574 1.047.3936c.398-.1803.574-.6491.394-1.047z" fill="#b6bff0"/><path d="m185.631 82.058c-.256-.5632-.92-.8129-1.483-.5573s-.813.9197-.557 1.483c.255.5633.919.8128 1.483.5573.563-.2556.812-.9197.557-1.483z" fill="#b6bff0"/><path d="m187.024 88.9527c-.406-.8949-1.461-1.2911-2.355-.8851-.895.406-1.292 1.4608-.886 2.3552.406.8949 1.461 1.2911 2.356.8851s1.291-1.4603.885-2.3552z" fill="#b6bff0"/><path d="m180.065 87.3313c-.105-.232-.379-.3346-.611-.2295-.232.1052-.334.3787-.229.6107.105.2321.379.3346.611.2295s.334-.3786.229-.6107z" fill="#b6bff0"/><path d="m188.339 77.5037c-.165-.3645-.595-.526-.959-.3607-.365.1654-.526.5949-.361.9595.165.3645.595.5261.959.3607.365-.1654.527-.5949.361-.9595z" fill="#b6bff0"/><path d="m206.274 77.2066c5.538-6.2203-14.232-19.6386-18.304-13.5876-4.072 6.0506 12.702 19.8788 18.304 13.5876z" fill="#b6bff0"/><path d="m203.339 76.4392c.609-.3449.824-1.1188.479-1.7286-.345-.6099-1.119-.8245-1.729-.4796-.609.3449-.824 1.1189-.479 1.7287.345.6095 1.119.8244 1.729.4795z" fill="#6f7bbd"/><path d="m198.542 75.6837c.348-.197.471-.6393.274-.9876s-.64-.471-.988-.274c-.348.1971-.471.6394-.274.9877s.639.471.988.2739z" fill="#6f7bbd"/><path d="m199.699 69.7527c.493-.2791.667-.9056.388-1.3992s-.906-.6676-1.4-.3881c-.493.2791-.667.9056-.388 1.3993.28.4936.906.6675 1.4.388z" fill="#6f7bbd"/><path d="m193.516 71.5856c.784-.4436 1.06-1.4385.616-2.2223-.443-.7838-1.438-1.0599-2.222-.6167-.784.4436-1.06 1.4385-.617 2.2223.444.7838 1.439 1.0598 2.223.6167z" fill="#6f7bbd"/><path d="m194.429 65.1014c.203-.115.275-.3731.16-.5761-.115-.2034-.373-.2748-.576-.1598-.203.1149-.275.373-.16.576s.372.2749.576.1599z" fill="#6f7bbd"/><path d="m204.078 71.8564c.319-.1808.431-.5859.251-.9056-.181-.3192-.586-.4321-.906-.2513-.319.1808-.431.5859-.251.9056.181.3197.586.4321.906.2513z" fill="#6f7bbd"/><path d="m208.218 122.149c12.354 2.721 15.459-33.4391 4.418-34.3434-11.042-.9043-16.914 31.5904-4.418 34.3434z" fill="#b6bff0"/><path d="m208.058 117.968c1.064 0 1.927-.862 1.927-1.926s-.863-1.927-1.927-1.927-1.926.863-1.926 1.927.862 1.926 1.926 1.926z" fill="#6f7bbd"/><path d="m204.498 110.769c.519.315 1.197.149 1.512-.37.316-.52.15-1.197-.37-1.513-.52-.315-1.197-.149-1.512.37-.316.521-.15 1.198.37 1.513z" fill="#6f7bbd"/><path d="m213.212 107.903c.736.447 1.696.212 2.142-.524.447-.737.212-1.696-.524-2.143-.736-.446-1.696-.212-2.143.525-.447.736-.211 1.695.525 2.142z" fill="#6f7bbd"/><path d="m206.197 101.072c1.17.71 2.694.337 3.403-.833.709-1.1693.337-2.6928-.833-3.4027-1.17-.7098-2.693-.3367-3.403.833-.709 1.1701-.336 2.6937.833 3.4027z" fill="#6f7bbd"/><path d="m215.468 97.4684c.304.1842.698.0872.882-.2158.184-.3034.087-.6984-.216-.8821-.303-.1838-.698-.0872-.882.2158-.183.303-.087.6979.216.8821z" fill="#6f7bbd"/><path d="m213.68 115.269c.477.289 1.097.137 1.387-.34.289-.476.137-1.097-.34-1.386-.476-.289-1.097-.137-1.386.339-.289.477-.137 1.098.339 1.387z" fill="#6f7bbd"/><path d="m180.556 148.37c9.296 1.124 14.582 28.802-2.03 27.71-16.612-1.091-8.984-29.041 2.03-27.71z" fill="#6f7bbd"/><path d="m184.494 165.783c.558-2.604-1.101-5.167-3.704-5.724-2.604-.557-5.167 1.101-5.724 3.705-.558 2.603 1.101 5.166 3.705 5.723 2.603.558 5.166-1.101 5.723-3.704z" fill="#d5e06f"/><path d="m180.208 152.54c.124-.579-.245-1.148-.823-1.272-.579-.124-1.148.245-1.272.824-.124.578.245 1.148.823 1.271.579.124 1.148-.244 1.272-.823z" fill="#b6bff0"/><path d="m176.183 157.91c.1-.47-.199-.933-.669-1.033-.47-.101-.933.199-1.034.669-.1.47.199.933.669 1.033.47.101.933-.199 1.034-.669z" fill="#b6bff0"/><path d="m185.494 157.919c.078-.361-.153-.717-.514-.795-.362-.077-.718.153-.795.515-.077.361.153.717.514.795.362.077.718-.153.795-.515z" fill="#b6bff0"/><path d="m174.89 165.234c.217-1.012-.428-2.009-1.441-2.225-1.012-.217-2.009.428-2.225 1.44-.217 1.013.428 2.009 1.44 2.226 1.013.217 2.009-.428 2.226-1.441z" fill="#b6bff0"/><path d="m182.945 173.671c.093-.434-.184-.861-.618-.954-.433-.093-.861.184-.954.618-.092.433.184.861.618.954.434.092.861-.184.954-.618z" fill="#b6bff0"/><path d="m206.692 154.07c4.994 9.474 30.066-8.284 24.616-15.916-5.451-7.632-29.666 6.334-24.616 15.916z" fill="#6f7bbd"/><path d="m208.942 150.884c.141.889.976 1.497 1.865 1.356.89-.14 1.497-.975 1.357-1.865s-.975-1.497-1.865-1.357c-.89.141-1.497.976-1.357 1.866z" fill="#b6bff0"/><path d="m212.014 145.447c.08.508.557.855 1.065.775.509-.081.856-.558.776-1.066-.081-.509-.558-.856-1.066-.775-.508.08-.856.557-.775 1.066z" fill="#b6bff0"/><path d="m218.632 149.513c.113.72.789 1.212 1.509 1.098.721-.114 1.212-.79 1.099-1.51-.114-.72-.79-1.212-1.51-1.098-.72.113-1.212.789-1.098 1.51z" fill="#b6bff0"/><path d="m219.214 141.245c.181 1.144 1.255 1.924 2.399 1.744s1.925-1.254 1.744-2.398c-.18-1.144-1.254-1.925-2.398-1.745-1.144.181-1.925 1.255-1.745 2.399z" fill="#b6bff0"/><path d="m226.612 145.265c.047.297.325.499.622.452.297-.046.499-.325.452-.621-.046-.297-.325-.5-.622-.453-.296.047-.499.326-.452.622z" fill="#b6bff0"/><path d="m214.126 153.841c.073.466.511.784.977.711.466-.074.784-.511.71-.977-.073-.466-.511-.784-.976-.711-.466.074-.785.511-.711.977z" fill="#b6bff0"/><path d="m195.829 149.161c7.375 1.311 8.339-20.16 1.784-20.428s-9.245 19.101-1.784 20.428z" fill="#6f7bbd"/><path d="m195.034 146.549c.552.304 1.246.104 1.55-.448.305-.552.105-1.246-.447-1.55-.552-.305-1.246-.105-1.55.447-.305.552-.105 1.246.447 1.551z" fill="#b6bff0"/><path d="m193.352 142.514c.316.174.712.059.886-.256s.06-.712-.255-.886c-.316-.174-.712-.059-.886.256s-.06.712.255.886z" fill="#b6bff0"/><path d="m198.439 140.609c.447.247 1.009.085 1.255-.362.247-.446.085-1.008-.362-1.255-.446-.246-1.008-.084-1.255.362-.246.447-.084 1.009.362 1.255z" fill="#b6bff0"/><path d="m194.122 136.736c.709.391 1.602.134 1.994-.575.392-.71.134-1.602-.576-1.993-.709-.392-1.601-.135-1.993.575-.391.709-.134 1.602.575 1.993z" fill="#b6bff0"/><path d="m199.522 134.377c.183.102.415.035.516-.149.102-.184.035-.415-.149-.516-.184-.102-.415-.035-.516.149-.102.183-.035.415.149.516z" fill="#b6bff0"/><path d="m198.894 144.955c.289.159.652.054.812-.234.159-.289.055-.653-.234-.812-.289-.16-.653-.055-.812.234-.16.289-.055.652.234.812z" fill="#b6bff0"/><path d="m187.182 153.984c-.597 6.841 19.083 5.973 18.795-.033s-18.19-6.886-18.795.033z" fill="#b6bff0"/><path d="m189.5 153.046c-.234.528.006 1.145.534 1.379.528.233 1.145-.006 1.379-.535.233-.528-.006-1.145-.534-1.379-.529-.233-1.146.006-1.379.535z" fill="#6f7bbd"/><path d="m193.044 151.183c-.133.302.004.655.306.788s.655-.004.788-.306c.133-.301-.004-.654-.306-.788-.302-.133-.654.004-.788.306z" fill="#6f7bbd"/><path d="m195.199 155.673c-.189.428.005.928.433 1.116.428.189.927-.005 1.116-.432.189-.428-.005-.928-.432-1.117-.428-.189-.928.005-1.117.433z" fill="#6f7bbd"/><path d="m198.386 151.417c-.3.68.008 1.473.688 1.773.679.3 1.473-.007 1.773-.687.3-.679-.008-1.473-.687-1.773-.68-.3-1.474.008-1.774.687z" fill="#6f7bbd"/><path d="m200.975 156.151c-.078.175.002.381.178.459.175.077.381-.003.458-.178.078-.176-.002-.381-.177-.459-.176-.077-.381.002-.459.178z" fill="#6f7bbd"/><path d="m191.269 156.444c-.123.277.002.6.279.722s.6-.003.723-.28c.122-.277-.003-.6-.28-.722s-.6.003-.722.28z" fill="#6f7bbd"/><path d="m163.757 125.227c-9.509 4.286 6.25 29.723 13.996 24.883 7.746-4.842-4.378-29.218-13.996-24.883z" fill="#b6bff0"/><path d="m166.718 127.605c-.873.083-1.514.858-1.43 1.732.083.874.858 1.514 1.732 1.431.873-.084 1.514-.859 1.43-1.732-.083-.873-.858-1.514-1.732-1.431z" fill="#6f7bbd"/><path d="m171.822 130.916c-.499.048-.865.491-.818.99.048.499.491.865.99.818.499-.048.865-.491.817-.99-.047-.499-.49-.865-.989-.818z" fill="#6f7bbd"/><path d="m167.473 137.109c-.707.068-1.226.695-1.158 1.403.067.706.694 1.225 1.402 1.158.707-.068 1.225-.695 1.158-1.402-.068-.707-.695-1.226-1.402-1.159z" fill="#6f7bbd"/><path d="m175.475 138.166c-1.123.106-1.947 1.103-1.84 2.227.107 1.123 1.104 1.946 2.227 1.839s1.947-1.104 1.84-2.227-1.104-1.947-2.227-1.839z" fill="#6f7bbd"/><path d="m171.123 145.116c-.291.027-.505.286-.477.577s.286.505.577.477.505-.286.477-.577c-.027-.291-.286-.505-.577-.477z" fill="#6f7bbd"/><path d="m163.535 132.465c-.458.043-.794.449-.75.907.044.457.45.793.907.75.458-.044.794-.45.75-.908-.044-.457-.45-.793-.907-.749z" fill="#6f7bbd"/><path d="m254.946 195.044 20.96-79.224h59.131l20.961 79.224c3.042 11.495-2.346 23.555-12.937 28.96l-31.773 16.217v75.582c18.309 1.898 28.111 13.276 28.111 13.276h-70.116s12.235-10.888 30.373-13.139v-75.718l-31.773-16.217c-10.592-5.406-15.979-17.466-12.937-28.961z" fill="#b6bff0"/><path d="m259.106 195.335 11.811-44.642c19.608 11.59 45.653-6.636 70.078-1.509l12.211 46.151c2.832 10.705-2.185 21.935-12.047 26.968l-29.587 15.102h-10.832l-29.587-15.102c-9.863-5.033-14.88-16.263-12.047-26.968z" fill="#de5f5f"/><path d="m336.03 227.805-24.108 12.304h-12.081l-31.548-16.102c-10.591-5.405-15.979-17.466-12.937-28.961l14.13-53.405c3.184 23.808 16.031 79.135 66.544 86.164z" fill="#5d66cf" opacity=".45"/><path d="m340.365 175.998c.183 0 .371-.022.559-.065 1.329-.308 2.152-1.635 1.844-2.959l-11.303-48.492c-.308-1.324-1.632-2.143-2.961-1.842-1.329.309-2.153 1.636-1.845 2.96l11.303 48.491c.265 1.139 1.281 1.907 2.403 1.907z" fill="#fff"/><path d="m176.718 251.906 14.623-16.994h.021v-6.022c0-3.067 2.486-5.552 5.552-5.552h72.972c3.067 0 5.553 2.486 5.553 5.552v6.022h.021l14.624 16.994c1.364 1.586 2.115 3.609 2.115 5.7v57.021c0 1.591-.435 3.152-1.257 4.515l-3.864 6.405c-2.598 4.304-7.257 6.934-12.285 6.934h-82.785c-5.027 0-9.687-2.63-12.284-6.934l-3.865-6.405c-.822-1.363-1.256-2.924-1.256-4.515v-57.021c0-2.091.75-4.114 2.115-5.7z" fill="#f2d171"/><path d="m191.362 234.912v-11.574h84.077v11.574" fill="#633925" opacity=".27"/><path d="m192.879 220.564h81.596v-25.793c0-.267-.217-.484-.484-.484h-80.627c-.268 0-.485.217-.485.484z" fill="#fff"/><g fill="#b6bff0"><path d="m266.843 198.43h2.717c.068 0 .123.055.123.123v27.216c0 .067-.055.123-.123.123h-2.717c-.068 0-.123-.056-.123-.123v-27.216c0-.068.055-.123.123-.123z"/><path d="m260.025 198.43h2.717c.068 0 .123.055.123.123v27.216c0 .067-.055.123-.123.123h-2.717c-.068 0-.124-.056-.124-.123v-27.216c0-.068.056-.123.124-.123z"/><path d="m253.212 198.43h2.717c.068 0 .124.055.124.123v27.216c0 .067-.056.123-.124.123h-2.717c-.068 0-.123-.056-.123-.123v-27.216c0-.068.055-.123.123-.123z"/><path d="m246.39 198.43h2.717c.068 0 .123.055.123.123v27.216c0 .067-.055.123-.123.123h-2.717c-.068 0-.123-.056-.123-.123v-27.216c0-.068.056-.123.123-.123z"/><path d="m239.58 198.43h2.716c.068 0 .124.055.124.123v27.216c0 .067-.056.123-.124.123h-2.716c-.068 0-.124-.056-.124-.123v-27.216c0-.068.056-.123.124-.123z"/><path d="m232.76 198.43h2.717c.068 0 .123.055.123.123v27.216c0 .067-.055.123-.123.123h-2.717c-.068 0-.123-.056-.123-.123v-27.216c0-.068.055-.123.123-.123z"/><path d="m225.947 198.43h2.716c.068 0 .124.055.124.123v27.216c0 .067-.056.123-.124.123h-2.716c-.068 0-.124-.056-.124-.123v-27.216c0-.068.056-.123.124-.123z"/><path d="m219.126 198.43h2.717c.068 0 .124.055.124.123v27.216c0 .067-.056.123-.124.123h-2.717c-.068 0-.123-.056-.123-.123v-27.216c0-.068.055-.123.123-.123z"/><path d="m211.426 198.43h2.717c.068 0 .123.055.123.123v27.216c0 .067-.055.123-.123.123h-2.717c-.068 0-.123-.056-.123-.123v-27.216c0-.068.055-.123.123-.123z"/><path d="m204.605 198.43h2.717c.068 0 .123.055.123.123v27.216c0 .067-.055.123-.123.123h-2.717c-.068 0-.124-.056-.124-.123v-27.216c0-.068.056-.123.124-.123z"/><path d="m197.794 198.43h2.717c.068 0 .124.055.124.123v27.216c0 .067-.056.123-.124.123h-2.717c-.068 0-.123-.056-.123-.123v-27.216c0-.068.056-.123.123-.123z"/></g><path d="m276.846 219.18h-86.337v11.064h86.337z" fill="#6f7bbd"/><path d="m260.767 260.808c-3.981-6.362-10.998-10.626-19.055-10.626h-16.151c-8.058 0-15.075 4.264-19.056 10.626h-27.218v43.033h108.698v-43.033z" fill="#f9edae"/><path d="m287.985 305.114h-108.698c-.705 0-1.275-.573-1.275-1.275v-43.033c0-.702.57-1.275 1.275-1.275h26.522c4.447-6.669 11.779-10.629 19.751-10.629h16.149c7.972 0 15.303 3.96 19.751 10.629h26.525c.705 0 1.275.573 1.275 1.275v43.033c-.001.702-.571 1.275-1.275 1.275zm-107.424-2.55h106.148v-40.483h-25.944c-.439 0-.847-.224-1.081-.598-3.932-6.28-10.651-10.031-17.975-10.031h-16.15c-7.324 0-14.043 3.751-17.975 10.031-.234.374-.642.598-1.081.598h-25.942z" fill="#6f7bbd"/><path d="m237.103 272.93s-1.937-4.875 1.291-9.222l-2.066-1.317s-2.97 7.246-.129 10.539z" fill="#52413f"/><path d="m241.206 269.63c-.751 0-1.616-.405-1.915-1.166-.199-.503-.219-1.373.94-2.571-1.919-.371-4.098.03-4.126.032-.189.036-.371-.076-.409-.242-.037-.168.082-.334.269-.368.129-.028 2.669-.483 4.821.058.618-.529 1.459-1.112 2.593-1.746.162-.09.374-.047.476.102.1.146.05.338-.112.429-.951.532-1.672 1.017-2.219 1.452.194.076.381.163.56.263.998.559 1.462 1.342 1.27 2.149-.191.803-1.014 1.488-1.918 1.595-.075.01-.151.013-.23.013zm-.232-3.547c-1.245 1.175-1.136 1.912-1.034 2.17.206.519.893.817 1.406.744.616-.073 1.2-.558 1.33-1.107s-.2-1.064-.958-1.486c-.23-.128-.481-.233-.744-.321z" fill="#52413f"/><path d="m231.938 265.908c.766 1.337-.875 5.931-3.319 5.223-2.444-.709-1.406-4.274-1.406-4.274s-7.764 1.03-8.677-2.533c-.912-3.563 6.136-3.425 8.047-2.607 0 0-1.651-3.276 1.547-3.454s4.651 3.035 3.059 5.588z" fill="#9ab52c"/><path d="m225.726 263.77c-.021-.02-.035-.047-.038-.076-.006-.069.05-.131.127-.136.192-.016 4.757-.357 7.141 1.034 2.41 1.405 2.359 2.894 2.356 2.957-.005.069-.07.122-.146.119-.077-.003-.138-.062-.134-.132.001-.013.033-1.412-2.227-2.732-2.305-1.345-6.92-.999-6.966-.996-.044.003-.085-.011-.113-.038z" fill="#52413f"/><path d="m224.878 260.136c.653-1.045-2.21-2.626-2.835-1.29-.622 1.336 1.886 2.81 2.835 1.29z" fill="#9ab52c"/><path d="m240.404 293.464c0-2.433-1.67-4.405-3.73-4.405s-3.732 1.972-3.732 4.405 1.671 4.406 3.732 4.406c2.06 0 3.73-1.973 3.73-4.406z" fill="#49647a"/><path d="m240.404 276.701c0-2.434-1.67-4.406-3.73-4.406s-3.732 1.972-3.732 4.406c0 2.433 1.671 4.405 3.732 4.405 2.06 0 3.73-1.972 3.73-4.405z" fill="#49647a"/><path d="m249.202 276.701c0-2.434-1.671-4.406-3.731-4.406s-3.73 1.972-3.73 4.406c0 2.433 1.671 4.405 3.73 4.405 2.06 0 3.731-1.972 3.731-4.405z" fill="#49647a"/><path d="m231.411 276.701c0-2.434-1.671-4.406-3.732-4.406-2.059 0-3.73 1.972-3.73 4.406 0 2.433 1.671 4.405 3.73 4.405 2.061 0 3.732-1.972 3.732-4.405z" fill="#49647a"/><path d="m245.189 285.171c0-2.433-1.67-4.405-3.73-4.405s-3.73 1.972-3.73 4.405c0 2.434 1.67 4.406 3.73 4.406s3.73-1.972 3.73-4.406z" fill="#49647a"/><path d="m235.428 285.171c0-2.433-1.67-4.405-3.73-4.405s-3.73 1.972-3.73 4.405c0 2.434 1.67 4.406 3.73 4.406s3.73-1.972 3.73-4.406z" fill="#49647a"/><path d="m226.149 276.331c.599 0 1.084-.502 1.084-1.122s-.485-1.123-1.084-1.123-1.085.503-1.085 1.123.486 1.122 1.085 1.122z" fill="#fff"/><path d="m234.949 276.331c.598 0 1.084-.502 1.084-1.122s-.486-1.123-1.084-1.123c-.599 0-1.085.503-1.085 1.123s.486 1.122 1.085 1.122z" fill="#fff"/><path d="m245.028 275.204c0-.62-.486-1.124-1.084-1.124-.599 0-1.085.503-1.085 1.124 0 .62.486 1.123 1.085 1.123.598-.001 1.084-.504 1.084-1.123z" fill="#fff"/><path d="m240.944 283.959c0-.62-.486-1.123-1.084-1.123-.599 0-1.085.503-1.085 1.123s.486 1.123 1.085 1.123c.598 0 1.084-.503 1.084-1.123z" fill="#fff"/><path d="m231.125 283.959c0-.62-.486-1.123-1.085-1.123-.598 0-1.084.503-1.084 1.123s.486 1.123 1.084 1.123c.599 0 1.085-.503 1.085-1.123z" fill="#fff"/><path d="m235.272 292.972c.599 0 1.084-.503 1.084-1.123s-.485-1.122-1.084-1.122-1.084.502-1.084 1.122.485 1.123 1.084 1.123z" fill="#fff"/><path d="m374.2 339.395h-368.77396c-2.75221 0-4.978774-2.229-4.978774-4.978 0-2.75 2.226984-4.979 4.978774-4.979h368.77396c2.753 0 4.979 2.229 4.979 4.979 0 2.749-2.227 4.978-4.979 4.978z" fill="#b4ba42"/><path d="m67.6015 321.299h-27.9794v11.813h27.9794z" fill="#3c251d"/><path d="m212.192 321.299h-27.979v11.813h27.979z" fill="#3c251d"/><path d="m167.196 269.122c17.18-5.572 28.225-18.975 24.67-29.936-3.556-10.962-20.365-15.331-37.544-9.759-17.18 5.572-28.225 18.975-24.67 29.936 3.555 10.962 20.364 15.331 37.544 9.759z" fill="#b6bff0"/><path d="m150.851 272.7c-7.945 0-15.849-2.542-20.551-10.82-7.464-13.135 10.519-26.425 11.288-26.985.369-.266.888-.185 1.157.181.269.372.188.89-.183 1.159-.176.13-17.553 12.98-10.82 24.829 11.37 20.003 43.483 3.85 43.805 3.678.41-.203.909-.045 1.117.36.209.408.047.907-.361 1.117-.206.107-12.878 6.481-25.452 6.481z" fill="#6f7bbd"/><path d="m132.473 264.41s-2.176-1.554-7.046-.829c-4.871.725-11.71 4.456-11.71 4.456l-1.14-3.73s14.508-2.383 16.063-9.223z" fill="#6f7bbd"/><path d="m124.709 264.401c.55-2.34-.901-4.683-3.241-5.233s-4.683.902-5.233 3.242.901 4.682 3.241 5.232 4.683-.901 5.233-3.241z" fill="#6f7bbd"/><path d="m174.725 184.321-83.0316 21.064 4.8379 19.07 83.0317-21.064z" fill="#6f7bbd"/><path d="m94.8203 220.713 8.2897-2.625 2.488 8.29-5.389 7.461z" fill="#6f7bbd"/><path d="m94.9604 127.311-31.503 7.047s-20.3109 25.286-9.1195 52.643c11.1918 27.358 25.6999 32.747 25.6999 32.747l14.9222-3.317 21.554 55.13s-70.555-5.633-90.7774-93.265c-12.4354-53.887 23.2127-91.6072 23.2127-91.6072l31.9171-10.3626z" fill="#fff"/><path d="m91.0535 21.5766-19.5535 4.9605 11.0762 43.6608 19.5538-4.9605z" fill="#b6bff0"/><path d="m138.718 128.511-10.751 2.727 6.09 24.007 10.751-2.728z" fill="#b6bff0"/><path d="m121.807 136.858-10.751 2.728 6.09 24.007 10.751-2.728z" fill="#b6bff0"/><path d="m103.157 137.532-10.7517 2.728 6.0902 24.006 10.7515-2.727z" fill="#b6bff0"/><path d="m100.461 58.0234-19.8878 5.0463-2.4423 5.9652 3.2283 12.723 27.3208-6.9323-3.228-12.7226z" fill="#6f7bbd"/><path d="m105.707 63.188-27.3213 6.9311 17.6676 69.6429 27.3217-6.931z" fill="#fff"/><path d="m92.1207 17.8439-23.4039 5.9373 1.4015 5.5244 23.4038-5.9373z" fill="#6f7bbd"/><path d="m141.693 126.757-52.6344 13.352 3.4315 13.527 52.6339-13.353z" fill="#6f7bbd"/><path d="m79.8984 76.463 12.5735-2.7638 14.3701 57.6168-12.2974 3.179z" fill="#b6bff0"/><path d="m85.3526 103.437c6.0323-1.932 9.3564-8.3881 7.4246-14.4204s-8.388-9.3564-14.4202-7.4246c-6.0323 1.9318-9.3564 8.388-7.4246 14.4203 1.9318 6.0327 8.3879 9.3567 14.4202 7.4247z" fill="#b6bff0"/><path d="m81.8327 105.199c-7.0096 0-12.7106-5.7031-12.7106-12.711s5.701-12.7107 12.7106-12.7107 12.7123 5.7028 12.7123 12.7107-5.7027 12.711-12.7123 12.711zm0-22.9344c-5.6382 0-10.2234 4.5856-10.2234 10.2234s4.5856 10.223 10.2234 10.223c5.6382 0 10.2251-4.5852 10.2251-10.223s-4.5869-10.2234-10.2251-10.2234z" fill="#6f7bbd"/><path d="m75.4074 120.819c3.0905 0 5.5959-2.506 5.5959-5.596 0-3.091-2.5054-5.596-5.5959-5.596s-5.5959 2.505-5.5959 5.596c0 3.09 2.5054 5.596 5.5959 5.596z" fill="#b6bff0"/><path d="m84.5949 225.963c-4.0565 0-7.5177 2.503-8.9545 6.044l-37.2634 66.91h55.89v-63.282c0-5.342-4.3304-9.672-9.6721-9.672z" fill="#fff"/><path d="m84.5275 241.438c3.0906 0 5.5959-2.505 5.5959-5.596s-2.5053-5.596-5.5959-5.596c-3.0905 0-5.5959 2.505-5.5959 5.596s2.5054 5.596 5.5959 5.596z" fill="#b6bff0"/><path d="m216.41 297.258h-181.1414v29.845h181.1414z" fill="#fff"/><path d="m216.41 316.445h-181.1414v10.751h181.1414z" fill="#3c251d"/></svg>