<svg fill="none" height="196" viewBox="0 0 198 196" width="198" xmlns="http://www.w3.org/2000/svg"><path d="m192.846 137.046c-9.544 25.772-32.96 45.21-59.235 53.408-39.5367 12.336-95.4363 5.053-120.262-31.573-24.036-35.462-12.732694-83.6025 11.1162-116.229 16.752-22.9172 42.7216-39.61098 70.9561-42.304662 65.9637-6.293448 118.3607 74.256362 98.2067 134.478662-.249.745-.51 1.485-.782 2.22z" fill="#f5d6db"/><path d="m148.233 123.461c.188.18.351.367.498.54 1.357 1.602 2.424 3.406 3.172 5.366l.378.99-1.06-.023c-1.881-.044-3.743.776-4.98 2.192-1.142 1.307-1.71 3.073-1.559 4.798 4.494 1.354 9.32 1.871 13.987 1.493l.351-.028.236.261c1.277 1.42 2.262 3.132 2.85 4.948.228.712.401 1.446.572 2.18.34 1.457.663 2.835 1.431 3.979 1.222 1.829 3.427 2.791 5.839 3.609-.008-.11-.03-.219-.065-.324l1.349-.452c.215.641.187 1.365-.076 1.987l-.256.601-.621-.202c-2.953-.962-5.741-2.022-7.353-4.427-.912-1.359-1.279-2.929-1.634-4.447-.162-.695-.324-1.393-.542-2.065-.489-1.519-1.29-2.954-2.325-4.173-4.887.349-9.93-.243-14.607-1.716l-.42-.133-.07-.435c-.361-2.27.328-4.659 1.841-6.389 1.278-1.464 3.101-2.407 5.024-2.631-.656-1.458-1.51-2.813-2.547-4.038-.213-.248-.445-.505-.707-.685-.336-.226-.77-.345-1.228-.472l-6.081-1.677c-1.917-.529-3.9-1.077-5.867-.916-.255.021-.537.058-.697.177-.139.105-.254.33-.369.57-1.22 2.557-1.945 5.285-2.154 8.108l-.073.303c1.697 1.651 3.497 3.281 5.488 4.575l.512.326c.849.533 1.727 1.083 2.418 1.899 1.642 1.916 1.714 4.588 1.649 7.162l-.172 6.516c-.095 3.684-.203 7.86 1.459 11.366l.225.473-.385.355c-.361.335-.528.901-.404 1.378l.274 1.049-1.07-.165c-2.017-.31-4.032-.767-5.988-1.359-1.104-.334-2.371-.762-3.428-1.598-2.286-1.824-2.849-4.829-3.356-7.501l-.089-.468c-.98-5.122-2.861-8.551-5.588-10.19-.331 2.038-1.547 3.797-2.729 5.509-.243.353-.485.704-.717 1.055-.856 1.292-2.675 4.544-1.092 6.819l-1.169.813c-2.081-2.991.057-6.884 1.074-8.419.237-.358.484-.716.733-1.076 1.269-1.838 2.58-3.737 2.563-5.817l-.009-1.095 1.005.437c3.676 1.601 6.146 5.536 7.326 11.696l.091.471c.482 2.546.975 5.18 2.841 6.65.861.682 1.978 1.055 2.957 1.352 1.612.488 3.265.881 4.925 1.172.057-.488.24-.96.53-1.36-1.606-3.707-1.498-7.883-1.403-11.584l.172-6.516c.061-2.391.009-4.665-1.306-6.198-.558-.656-1.304-1.122-2.097-1.622l-.526-.335c-2.445-1.591-4.54-3.619-6.568-5.582l.561-.592-.054-.004c.223-3 .993-5.899 2.29-8.616.186-.389.4-.793.796-1.094.452-.339.981-.421 1.44-.459 2.218-.18 4.419.427 6.36.963l6.081 1.678c.522.144 1.114.307 1.64.661.186.122.353.261.503.406z" fill="#a8542e"/><path d="m106.483 143.594c-2.527-4.186-3.759-9.142-3.487-14.023.018-.329.046-.669.209-.955.242-.426.739-.648 1.224-.719 2.376-.346 4.11 2.113 5.229 4.237.984 1.868 1.969 3.735 2.953 5.603 1.08 2.048 2.272 4.213 4.313 5.305.173-.466.346-.932.519-1.397-2.847-1.456-4.606-4.796-4.194-7.967 1.803.985 3.606 1.971 5.41 2.956-3.092-3.834-9.521-4.69-11.069-9.366-.16-.482-.255-1.005-.133-1.498.233-.941 1.219-1.54 2.184-1.634.964-.094 1.919.209 2.841.507 3.259 1.055 6.518 2.11 9.777 3.165.302-.491-.29-1.038-.805-1.297-5.552-2.795-12.043-3.683-18.142-2.48-.517-.824.36-1.801 1.145-2.375 2.947-2.158 5.895-4.316 8.842-6.474 1.661-1.216 3.418-2.472 5.46-2.729 1.222-.155 2.894-.262 3.064-1.482-4.125-.958-8.216 1.537-11.523 4.182-3.308 2.644-6.704 5.694-10.9182 6.106-5.356.524-10.0207-3.341-15.0733-5.194-2.5723-.944-5.332-1.372-8.0694-1.254-.2456.011-.505.03-.7071.17-.201.139-.3107.373-.4029.599-.914 2.244-.9434 4.834-.0805 7.098.5981-2.097 1.4007-4.441 3.3858-5.343.866-.393 1.8513-.446 2.7982-.356 3.9946.382 7.3453 3.093 11.1322 4.42 1.9921.699 4.1649 1.038 5.8845 2.263 2.3817 1.696 3.3907 4.738 3.8037 7.632.412 2.895.383 5.886 1.338 8.65.539 1.563 1.522 3.132 3.092 3.65z" fill="#a8542e"/><path d="m139.919 125.601c4.743-1.878 7.066-7.245 5.189-11.989-1.878-4.743-7.245-7.066-11.989-5.188-4.743 1.878-7.066 7.245-5.188 11.988s7.245 7.066 11.988 5.189z" fill="#e2798b"/><path d="m137.217 123.178c1.798-1.684 1.889-4.507.205-6.305-1.685-1.797-4.508-1.889-6.306-.205-1.797 1.685-1.889 4.508-.204 6.306 1.684 1.797 4.507 1.889 6.305.204z" fill="#fff" opacity=".3"/><path d="m148.15 153.762c3.607-3.607 3.607-9.456 0-13.063s-9.455-3.607-13.062 0-3.607 9.456 0 13.063 9.455 3.607 13.062 0z" fill="#e2798b"/><path d="m140.548 154.41c2.362-.699 3.71-3.181 3.011-5.543-.699-2.363-3.181-3.711-5.543-3.012-2.363.699-3.711 3.181-3.012 5.544.699 2.362 3.181 3.71 5.544 3.011z" fill="#fff" opacity=".3"/><path d="m144.119 172.774c4.173-.704 6.985-4.658 6.281-8.831s-4.658-6.985-8.831-6.28c-4.173.704-6.984 4.657-6.28 8.83s4.657 6.985 8.83 6.281z" fill="#e2798b"/><path d="m143.308 170.446c1.537-1.346 1.692-3.684.346-5.221-1.346-1.538-3.684-1.693-5.222-.346-1.537 1.346-1.692 3.684-.346 5.221 1.347 1.538 3.684 1.693 5.222.346z" fill="#fff" opacity=".3"/><path d="m174.977 162.883c4.18-.656 7.038-4.576 6.383-8.756-.655-4.181-4.575-7.038-8.755-6.383-4.181.655-7.039 4.575-6.384 8.755.655 4.181 4.575 7.039 8.756 6.384z" fill="#e2798b"/><path d="m171.859 161.426c2.043 0 3.7-1.656 3.7-3.7s-1.657-3.701-3.7-3.701c-2.044 0-3.701 1.657-3.701 3.701s1.657 3.7 3.701 3.7z" fill="#fff" opacity=".3"/><path d="m105.74 151.573c4.173-.704 6.985-4.658 6.281-8.831s-4.658-6.985-8.831-6.281c-4.1724.704-6.9844 4.658-6.2802 8.831.7041 4.173 4.6582 6.985 8.8302 6.281z" fill="#e2798b"/><path d="m104.931 149.241c1.538-1.346 1.692-3.684.346-5.222-1.346-1.537-3.684-1.692-5.222-.346-1.5371 1.347-1.692 3.685-.3457 5.222 1.3467 1.538 3.6847 1.693 5.2217.346z" fill="#fff" opacity=".3"/><path d="m118.009 165.392c2.974-3.708 2.379-9.125-1.329-12.099s-9.125-2.379-12.099 1.329c-2.975 3.708-2.38 9.125 1.328 12.099 3.709 2.974 9.126 2.379 12.1-1.329z" fill="#e2798b"/><path d="m113.111 163.728c.558-2.226-.795-4.484-3.022-5.042s-4.484.795-5.042 3.022.795 4.484 3.022 5.042 4.484-.795 5.042-3.022z" fill="#fff" opacity=".3"/><path d="m133.021 166.916c3.607-3.607 3.607-9.455 0-13.062s-9.455-3.607-13.062 0-3.607 9.455 0 13.062 9.455 3.607 13.062 0z" fill="#dc3c5e"/><path d="m127.973 165.582c1.266-2.114.578-4.853-1.535-6.119-2.114-1.266-4.854-.578-6.119 1.536-1.266 2.114-.578 4.853 1.536 6.119 2.113 1.265 4.853.578 6.118-1.536z" fill="#fff" opacity=".3"/><path d="m130.516 114.699c1.364-3.45-.327-7.352-3.777-8.716s-7.352.327-8.716 3.776c-1.364 3.45.326 7.353 3.776 8.717s7.353-.327 8.717-3.777z" fill="#dc3c5e"/><path d="m125.43 115.839c.833-1.587.222-3.548-1.365-4.38s-3.548-.221-4.38 1.366c-.832 1.586-.221 3.547 1.365 4.38 1.587.832 3.548.221 4.38-1.366z" fill="#fff" opacity=".3"/><path d="m160.793 165.512c3.607-3.607 3.607-9.456 0-13.063s-9.456-3.607-13.063 0-3.607 9.456 0 13.063 9.456 3.607 13.063 0z" fill="#dc3c5e"/><path d="m155.743 164.176c1.266-2.114.578-4.854-1.536-6.119-2.114-1.266-4.853-.578-6.119 1.536-1.265 2.113-.578 4.853 1.536 6.118 2.114 1.266 4.853.578 6.119-1.535z" fill="#fff" opacity=".3"/><path d="m126.388 150.026c4.773-1.798 7.185-7.126 5.386-11.9-1.798-4.774-7.126-7.185-11.9-5.387-4.774 1.799-7.185 7.127-5.387 11.901 1.799 4.773 7.127 7.185 11.901 5.386z" fill="#e2798b"/><path d="m124.6 146.57c1.266-2.114.578-4.853-1.535-6.119-2.114-1.265-4.854-.578-6.119 1.536-1.266 2.114-.578 4.853 1.536 6.119 2.113 1.265 4.853.578 6.118-1.536z" fill="#fff" opacity=".3"/><path d="m164.466 150.689c4.798-1.734 7.282-7.028 5.549-11.826-1.734-4.798-7.028-7.282-11.826-5.548-4.798 1.733-7.282 7.027-5.548 11.825 1.733 4.798 7.027 7.282 11.825 5.549z" fill="#e2798b"/><path d="m162.125 148.057c1.742-1.742 1.742-4.567 0-6.309s-4.567-1.742-6.309 0-1.742 4.567 0 6.309 4.567 1.742 6.309 0z" fill="#fff" opacity=".3"/><path d="m134.017 129.142c.43-3.86-2.351-7.338-6.211-7.768s-7.338 2.351-7.768 6.211 2.351 7.338 6.211 7.768 7.338-2.351 7.768-6.211z" fill="#dc3c5e"/><path d="m127.987 132.57c1.089-1.527.733-3.648-.795-4.737-1.527-1.088-3.648-.732-4.737.796-1.088 1.527-.732 3.648.795 4.736 1.528 1.089 3.649.733 4.737-.795z" fill="#fff" opacity=".3"/><path d="m148.554 141.381c3.608-3.607 3.608-9.455 0-13.063-3.607-3.607-9.455-3.607-13.062 0-3.607 3.608-3.607 9.456 0 13.063s9.455 3.607 13.062 0z" fill="#dc3c5e"/><path d="m142.413 141.299c1.942-1.516 2.286-4.319.77-6.261s-4.32-2.286-6.261-.77c-1.942 1.516-2.287 4.32-.77 6.261 1.516 1.942 4.319 2.286 6.261.77z" fill="#fff" opacity=".3"/><path d="m157.143 131.424c3.583-2.14 4.752-6.779 2.612-10.363-2.14-3.583-6.78-4.752-10.363-2.612s-4.753 6.78-2.612 10.363c2.14 3.583 6.78 4.753 10.363 2.612z" fill="#e2798b"/><path d="m153.844 129.954c1.471-1.379 1.546-3.688.167-5.159-1.378-1.471-3.688-1.546-5.158-.168-1.471 1.379-1.546 3.688-.168 5.159s3.688 1.546 5.159.168z" fill="#fff" opacity=".3"/><path d="m33.4765 158.855c.5588-1.166 1.2876-2.25 2.1564-3.207.2902 4.457.5802 8.914.8704 13.371 4.3691-3.337 11.0077-2.221 15.3531-5.589-.3409 1.011-.6819 2.023-1.0228 3.034 3.1878-1.359 5.7992-4.017 7.1028-7.228-.142 1.488-.5068 2.954-1.0784 4.335 4.9606-4.367 5.5159-11.714 6.6855-18.218.0911-.507.2048-1.045.5706-1.406.8147-.806 2.3181-.118 2.7472.944.4292 1.062.1607 2.258-.0136 3.39-.9687 6.298 1.4287 13.015 6.1665 17.276.093-1.858.1863-3.715.2793-5.573.4601 1.23.9202 2.459 1.3801 3.688 1.3284-7.401 12.9468-9.07 14.5454-16.417-.0978 1.229-.1955 2.458-.2932 3.686 1.8485-3.327 2.799-7.147 2.7242-10.953.1688.505.3379 1.011.5067 1.516.789-3.114.0442-6.579-1.9548-9.094.6534.023 1.307.047 1.9605.07-1.5509-2.812-3.1804-5.717-5.7704-7.616-2.59-1.9-6.4322-2.497-8.9512-.504-1.444 1.142-2.5278 3.093-4.3679 3.164-1.6985.065-3.0296-1.78-2.8669-3.472.1626-1.692 1.4378-3.1 2.9066-3.955-1.4516 1.034-3.3886 1.598-5.0379.922-1.6496-.676-2.6445-2.901-1.6325-4.368 1.1163-1.619 3.5482-1.352 5.371-2.09 2.801-1.133 3.886-4.889 2.7258-7.679s-4.0089-4.591-6.9521-5.275c-2.9433-.685-6.0134-.424-9.0235-.16.7288.175 1.3912.614 1.8372 1.216-2.4746-.248-4.997-.009-7.381.699.6153.093 1.1947.409 1.6063.876-2.233 1.285-4.9662 1.671-7.4677 1.056 1.028 1.542 2.0557 3.084 3.0835 4.626-2.7504-.234-5.6462-.231-8.1088 1.017-4.4044 2.231-6.0478 7.585-7.1825 12.39-1.1349 4.805-2.5667 10.161-6.8215 12.666 2.157.009 4.3013-.929 5.7585-2.52-.4668.897-.9335 1.795-1.4004 2.692 1.896.223 3.8753-.394 5.3087-1.655-.2393.463-.1745 1.065.1578 1.466 2.3401-.609 4.4662-2.01 5.9499-3.92.9358-1.205 1.8762-2.756 3.4006-2.812 1.9371-.071 2.968 2.602 2.1209 4.345-.8474 1.744-2.7388 2.68-4.4993 3.491-2.5376 1.17-5.0748 2.34-7.6123 3.509.6996.049 1.3995.097 2.0993.146-2.146.897-4.1034 2.242-5.7103 3.924 1.2982-.255 2.6311-.332 3.95-.23-4.1048 3.203-4.3214 9.222-4.1758 14.426z" fill="#999924"/><path d="m71.2511 132.168c.6259.37 1.309.624 2.0136.651.1923.007.3024-.255.1018-.345-1.1517-.514-2.1962-.92-3.1717-1.659-1.4276-2.014-2.3501-4.28-1.9163-7.286.3419-.281.6822-.563 1.0408-.837.1198-.092-.0162-.278-.1387-.189-.3297.239-.6362.493-.9563.739-.0796-.062-.2072-.063-.2579.051-.0299.068-.0433.135-.0706.203-.2074.162-.423.319-.6263.484.0202-.098-.0786-.192-.1922-.129-3.5975 2.011-6.2208-2.126-8.7873-3.45-.0315-.016-.0658-.027-.0973-.043-.7083-1.436-1.3296-2.868-1.8836-4.4-.0555-.154-.2743-.085-.2667.066.0684 1.334.5202 2.711 1.2055 3.916-1.2169-.47-2.5237-.738-3.8117-.824-.2918-.019-.5824-.005-.8738-.006-.8348-.567-1.933-.753-2.7386-1.44-1.2406-1.057-1.7617-2.548-2.7001-3.819-.0993-.135-.3712-.056-.3261.128.3173 1.297 1.1654 2.61 2.0788 3.568.4284.45.9031.842 1.4438 1.148.3523.2.7378.326 1.1247.446-3.7219.278-7.3271 1.943-10.2504 4.178-.1516.116-.014.403.1687.305 2.8362-1.511 5.6448-3.218 8.8825-3.703 4.0705-.61 6.9066.813 9.9035 2.817-2.3885.141-5.0616 1.415-6.7254 2.977-.1653.155.0096.398.2079.284 1.203-.691 2.3776-1.418 3.6782-1.916 1.1191-.429 2.2911-.609 3.4313-.942.2862.196.5712.39.863.594 1.6696 1.166 3.3854 1.839 5.0289.777-2.0759 1.751-3.9367 3.654-5.6079 5.717-3.0811 1.367-6.0409 2.364-7.6179 5.588-.0698.142.1354.264.234.144 1.1915-1.45 2.3201-2.718 3.9993-3.608.9362-.496 1.8961-.944 2.8393-1.425-1.8642 2.402-3.4999 5.003-4.9166 7.846-.9629 1.933-1.8624 3.849-2.7962 5.739-3.2293 3.116-7.739 4.314-11.6213 6.481-.125.069-.0087.258.1175.213 2.8348-1.03 5.7212-2.322 8.3812-3.751.9185-.494 1.7843-1.059 2.5256-1.748-1.2164 2.395-2.5246 4.74-4.1375 7.003-2.9598 4.152-6.2904 8.026-9.2181 12.208-.1135.162.1083.347.2401.195 2.8402-3.269 5.6733-6.6 8.2464-10.105-.8115 2.512-1.5756 5.076-2.2123 7.618-.0313.125.1622.176.2126.063 1.2179-2.73 2.3631-5.833 2.812-8.808 1.7686-2.495 3.3841-5.089 4.7633-7.82-.0774 1.489-.0136 2.982-.1939 4.47-.2405 1.985-.8299 3.875-1.386 5.789-.0419.144.1813.194.2432.072.8622-1.694 1.3353-3.479 1.5943-5.359.2611-1.896.017-3.723.0713-5.601.0105-.022.0229-.042.0333-.064 1.4723-3.033 2.8856-5.924 4.4251-8.667-1.0577 4.41-.0177 10.078.8451 14.103.0357.166.273.142.2648-.031-.2311-4.872-1.7158-10.62-.332-15.424 2.4659-4.18 5.321-7.988 9.2835-11.365-.7872 2.502.0893 5.039 1.5734 7.214.7009 1.027 1.4789 1.951 2.2741 2.845.5339 1.928.1259 4.062.3223 6.064.0152.154.2547.161.2745.005.2034-1.598.2487-3.289.1761-4.9-.0052-.114-.0196-.227-.0291-.342 1.8337 2.013 3.6728 3.961 4.838 6.645.0799.184.4078.125.3592-.09-.8756-3.863-3.8889-6.417-6.2627-9.258z" fill="#000" opacity=".21"/><path d="m129.53 79.6764-14.202-53.6764h-40.0628l-14.2018 53.6764c-2.0607 7.7885 1.5892 15.9593 8.7651 19.6219l21.5274 10.9877h.0002v51.209c-12.4049 1.286-19.0463 8.995-19.0463 8.995h47.5062s-8.29-7.377-20.5787-8.902v-51.302l21.5277-10.9877c7.176-3.6626 10.826-11.8336 8.765-19.6219z" fill="#b6bff0"/><path d="m126.712 79.8732-8.003-30.247c-13.285 7.8526-30.9313-4.4954-47.4801-1.0218l-8.2731 31.2688c-1.919 7.2524 1.4801 14.8613 8.1622 18.2715l20.0462 10.2313h7.3391l20.0467-10.2313c6.682-3.41 10.081-11.0191 8.162-18.2715z" fill="#de5f5f"/><path d="m74.5938 101.87 16.3335 8.336h8.1853l21.3754-10.9095c7.176-3.6627 10.826-11.8336 8.765-19.6221l-9.573-36.1842c-2.158 16.1307-10.862 53.617-45.0862 58.3798z" fill="#5d66cf" opacity=".45"/><g fill="#fff"><path d="m71.6562 66.7702c-.1239 0-.2512-.0146-.3784-.0441-.9005-.2088-1.4584-1.1077-1.2497-2.0051l7.6582-32.8546c.2088-.8973 1.1061-1.452 2.0068-1.248.9005.2087 1.4584 1.1076 1.2497 2.0051l-7.6582 32.8546c-.1795.7717-.8681 1.2921-1.6284 1.2921z"/><path d="m85.4733 67.221c-.3737-.4735-.8821-.8222-1.5198-1.049-.6427-.2267-1.2507-.3413-1.8238-.3413-.334 0-.6777.0399-1.0364.1196-.3537.0772-.6876.2018-1.0016.3686-.319.1695-.573.3913-.7722.6653-.1945.2765-.2941.613-.2941 1.0066 0 .633.2342 1.1162.7076 1.4502.4735.3363 1.0713.623 1.7939.8595.7176.2367 1.4948.4735 2.322.71.8272.2367 1.5994.573 2.322 1.0066.7176.4335 1.3156 1.0166 1.7889 1.7442.4735.7299.7126 1.7066.7126 2.93 0 1.1661-.2192 2.1801-.6527 3.0496-.4336.867-1.0216 1.587-1.7589 2.1601-.7426.5731-1.5997.9966-2.5764 1.2731-.9766.274-2.0082.4135-3.0895.4135-1.3653 0-2.626-.2067-3.7921-.6229-1.1611-.4136-2.2474-1.0839-3.254-2.0107l3.2839-3.61c.4735.6303 1.0713 1.1186 1.7939 1.4649.7176.3439 1.4649.5158 2.2324.5158.3737 0 .7525-.0424 1.1412-.1322.3836-.0896.7275-.2217 1.0315-.3986.309-.1794.5531-.4062.7426-.6826.1894-.2741.279-.6005.279-.9767 0-.6304-.2391-1.1286-.7226-1.4925-.4834-.3663-1.0912-.6776-1.8188-.9343-.7325-.2541-1.5198-.5108-2.3669-.7673-.8521-.2567-1.6394-.603-2.3719-1.0364-.7276-.4335-1.3354-1.0066-1.8188-1.7166-.4835-.71-.7226-1.6469-.7226-2.8104 0-1.1262.2191-2.1129.6627-2.96.4435-.8471 1.0363-1.5597 1.7789-2.1302.7375-.573 1.5896-1.0016 2.5563-1.288.9667-.2865 1.9634-.4286 2.9899-.4286 1.1859 0 2.327.1669 3.4333.5032 1.1062.334 2.1028.897 2.9898 1.6867z"/><path d="m90.9805 72.5778c0-1.6767.284-3.1967.8421-4.557.5631-1.3603 1.3503-2.5188 2.3569-3.4782 1.0017-.9567 2.1975-1.6892 3.5778-2.2024s2.8897-.7699 4.5297-.7699c1.634 0 3.144.2567 4.524.7699 1.385.5132 2.577 1.2457 3.583 2.2024 1.007.9594 1.789 2.1179 2.352 3.4782s.842 2.8801.842 4.557-.279 3.1967-.842 4.557c-.563 1.3629-1.345 2.5214-2.352 3.4781s-2.198 1.6917-3.583 2.2051c-1.38.5132-2.89.7699-4.524.7699-1.64 0-3.1494-.2567-4.5297-.7699s-2.5764-1.2484-3.5778-2.2051c-1.0066-.9567-1.7938-2.1152-2.3569-3.4781-.5581-1.3605-.8421-2.8801-.8421-4.557zm4.7937 0c0 .9866.1545 1.8911.4585 2.7082.309.8198.7475 1.5298 1.3204 2.1302.5681.6031 1.2557 1.0713 2.0529 1.4053.802.3363 1.694.5032 2.681.5032s1.878-.1669 2.676-.5032c.802-.334 1.485-.8022 2.058-1.4053.573-.6004 1.011-1.3106 1.315-2.1302.309-.8171.459-1.7216.459-2.7082 0-.9667-.15-1.8637-.459-2.6933-.304-.8272-.742-1.5421-1.315-2.1452-.573-.6004-1.256-1.0688-2.058-1.4052-.797-.3339-1.689-.5032-2.676-.5032s-1.879.1695-2.681.5032c-.7972.3364-1.4848.8048-2.0529 1.4052-.5731.6031-1.0116 1.318-1.3204 2.1452-.304.8296-.4585 1.7266-.4585 2.6933z"/><path d="m113.822 84.6457 4.41-3.9566c.224-.2042.449-.4335.673-.69.224-.2567.334-.5555.334-.8971 0-.3862-.14-.6876-.414-.907-.279-.2191-.603-.3289-.976-.3289-.449 0-.803.1395-1.052.4185-.249.2767-.393.618-.423 1.024l-2.407-.1744c.035-.5881.154-1.0989.368-1.5322.215-.4309.499-.7922.853-1.0813.348-.289.767-.5032 1.24-.6477.474-.1445.992-.2168 1.545-.2168.513 0 .997.0723 1.445.2168.449.1445.837.3563 1.171.6404.329.284.588.6377.778 1.0662.184.426.279.9244.279 1.4899 0 .3637-.04.6926-.115.984-.075.2941-.179.5631-.309.8023-.134.2417-.294.4634-.473.6652-.185.2042-.379.4013-.593.5931l-3.449 2.9649h5.033v2.1153h-7.918z"/><path d="m140.906 35.6104-.236.8159-8.684-2.5132-1.082 2.0013 4.596 7.4816-.724.4446-4.852-7.8993 1.641-3.0351z"/></g><path d="m141.713 33.056c-1.638.0475-2.927 1.4137-2.88 3.0513.048 1.6376 1.414 2.9267 3.052 2.8792 1.637-.0475 2.927-1.4137 2.879-3.0515-.047-1.6374-1.414-2.9266-3.051-2.879z" fill="#e2798b"/><path d="m130.271 36.9964c1.638-.0357 2.937-1.3926 2.902-3.0307-.036-1.6382-1.393-2.9372-3.031-2.9015-1.638.0358-2.937 1.3927-2.902 3.0308.036 1.6381 1.393 2.9371 3.031 2.9014z" fill="#b6bff0"/><path d="m139.014 46.0128c.499-1.5606-.361-3.2304-1.922-3.7294-1.561-.4991-3.23.3614-3.729 1.9221-.499 1.5606.361 3.2303 1.922 3.7294 1.56.4991 3.23-.3615 3.729-1.9221z" fill="#6f7bbd"/><path d="m48.8371 74.691-.9684-.4105 4.3678-10.3073-2.3016-1.625-9.8759 4.5503-.4399-.9561 10.4269-4.8037 3.4905 2.4645z" fill="#fff"/><path d="m50.5356 78.5557c1.5578-1.2998 1.7671-3.6164.4673-5.1743s-3.6164-1.7671-5.1743-.4673-1.7671 3.6164-.4673 5.1743 3.6164 1.7671 5.1743.4673z" fill="#e2798b"/><path d="m54.7172 64.583c1.5579-1.2998 1.7671-3.6164.4673-5.1742-1.2998-1.5579-3.6164-1.7671-5.1743-.4674-1.5578 1.2998-1.7671 3.6164-.4673 5.1743s3.6164 1.7671 5.1743.4673z" fill="#b6bff0"/><path d="m41.207 68.9816c.8248-1.8539-.0094-4.0254-1.8633-4.8502-1.854-.8248-4.0255.0094-4.8503 1.8634-.8248 1.8539.0095 4.0254 1.8634 4.8502s4.0254-.0095 4.8502-1.8634z" fill="#6f7bbd"/><path d="m142.632 81.8457 1.029.2198-2.34 10.9476 2.568 1.16 8.837-6.3361.613.8556-9.33 6.6894-3.894-1.7598z" fill="#fff"/><path d="m139.405 81.0747c.204 2.0189 2.005 3.4907 4.023 3.2879 2.019-.2031 3.491-2.0044 3.288-4.023-.203-2.0189-2.004-3.4908-4.023-3.2877-2.019.2029-3.49 2.0042-3.288 4.0228z" fill="#e2798b"/><path d="m137.945 95.5866c.203 2.0189 2.004 3.4908 4.023 3.2877 2.018-.2031 3.49-2.0042 3.287-4.023-.203-2.0189-2.004-3.4908-4.023-3.2876-2.019.2031-3.491 2.0043-3.287 4.0229z" fill="#b6bff0"/><path d="m151.14 87.198c.203 2.0189 2.004 3.4907 4.023 3.2876s3.49-2.0043 3.287-4.023c-.203-2.0189-2.004-3.4907-4.023-3.2876-2.018.2031-3.49 2.0041-3.287 4.023z" fill="#6f7bbd"/></svg>