<svg fill="none" height="300" viewBox="0 0 340 300" width="340" xmlns="http://www.w3.org/2000/svg"><path d="m294.364 208.911c-14.569 39.286-50.312 68.918-90.417 81.415-60.35 18.804-145.6764 7.703-183.5708-48.13-36.6891-54.058-19.435504-127.442 16.9684-177.1779 25.5704-34.9347 65.2114-60.3824 108.3084-64.488622 100.688-9.593658 180.668 113.195522 149.905 204.997522-.381 1.136-.779 2.264-1.194 3.384z" fill="#f5dbda"/><path d="m234.756 278.424c-26.522-1.615-51.08-17.856-66.042-39.897-22.515-33.166-31.474-86.992-4.56-120.261 26.058-32.2112 73.769-35.2398 110.649-22.296 25.906 9.092 48.642 28.468 59.063 53.869 24.344 59.342-35.462 130.469-96.836 128.687-.759-.022-1.517-.056-2.274-.102z" fill="#f9ecec"/><path d="m330.765 300h-325.97029c-2.43267 0-4.401155-1.971-4.401155-4.402 0-2.43 1.968485-4.401 4.401155-4.401h325.97029c2.433 0 4.402 1.971 4.402 4.401 0 2.431-1.969 4.402-4.402 4.402z" fill="#b4ba42"/><path d="m256.681 204.547c.35.335.655.685.928 1.008 2.532 2.99 4.524 6.357 5.92 10.016l.706 1.848-1.978-.044c-3.511-.083-6.987 1.449-9.296 4.091-2.131 2.439-3.191 5.736-2.909 8.956 8.387 2.527 17.395 3.492 26.106 2.786l.654-.053.442.488c2.383 2.65 4.221 5.845 5.317 9.234.427 1.329.75 2.698 1.069 4.068.635 2.721 1.237 5.292 2.67 7.427 2.281 3.414 6.397 5.209 10.899 6.736-.016-.205-.057-.409-.122-.605l2.518-.842c.4 1.195.348 2.547-.142 3.708l-.477 1.121-1.159-.377c-5.513-1.796-10.716-3.773-13.724-8.262-1.703-2.536-2.388-5.467-3.05-8.301-.303-1.297-.605-2.598-1.011-3.854-.914-2.834-2.409-5.513-4.34-7.788-9.122.651-18.534-.454-27.263-3.203l-.783-.248-.131-.812c-.673-4.237.612-8.695 3.437-11.925 2.384-2.732 5.787-4.492 9.375-4.91-1.223-2.721-2.817-5.25-4.753-7.536-.397-.463-.831-.943-1.319-1.278-.628-.422-1.438-.645-2.293-.881l-11.35-3.13c-3.577-.988-7.277-2.01-10.948-1.711-.477.04-1.004.11-1.302.331-.26.196-.475.615-.689 1.064-2.276 4.773-3.63 9.865-4.02 15.133l-.136.566c3.167 3.082 6.527 6.124 10.243 8.538l.955.609c1.585.994 3.223 2.022 4.513 3.545 3.064 3.575 3.199 8.562 3.078 13.365l-.321 12.162c-.178 6.876-.379 14.671 2.722 21.214l.421.882-.718.663c-.675.625-.986 1.682-.754 2.573l.512 1.956-1.998-.308c-3.765-.578-7.526-1.431-11.175-2.535-2.062-.624-4.426-1.423-6.399-2.982-4.267-3.405-5.317-9.015-6.265-14l-.165-.874c-1.829-9.561-5.339-15.96-10.429-19.018-.618 3.803-2.888 7.087-5.093 10.281-.454.658-.906 1.314-1.34 1.969-1.596 2.412-4.991 8.481-2.037 12.727l-2.181 1.518c-3.886-5.583.106-12.848 2.003-15.713.443-.668.904-1.337 1.368-2.009 2.369-3.43 4.817-6.975 4.785-10.857l-.018-2.044 1.877.817c6.861 2.987 11.47 10.332 13.673 21.828l.169.88c.901 4.751 1.821 9.668 5.302 12.41 1.608 1.274 3.692 1.971 5.519 2.524 3.01.91 6.094 1.644 9.192 2.187.107-.91.448-1.791.99-2.537-2.998-6.918-2.797-14.713-2.618-21.621l.321-12.161c.113-4.462.015-8.707-2.439-11.568-1.041-1.224-2.432-2.093-3.913-3.027l-.982-.625c-4.564-2.971-8.473-6.755-12.259-10.418l1.048-1.105-.101-.007c.416-5.599 1.853-11.011 4.275-16.082.346-.725.746-1.48 1.485-2.041.843-.633 1.831-.786 2.687-.858 4.14-.334 8.248.798 11.871 1.798l11.349 3.132c.974.269 2.08.573 3.061 1.233.347.229.658.488.94.758z" fill="#a8542e"/><path d="m178.756 242.125c-4.716-7.813-7.016-17.061-6.509-26.173.034-.612.087-1.247.39-1.781.452-.795 1.38-1.209 2.286-1.341 4.434-.648 7.669 3.942 9.758 7.907 1.837 3.486 3.675 6.971 5.512 10.457 2.015 3.822 4.24 7.862 8.049 9.901.323-.869.646-1.739.969-2.608-5.314-2.717-8.596-8.95-7.828-14.869 3.366 1.839 6.731 3.679 10.097 5.518-5.771-7.156-17.769-8.754-20.659-17.481-.298-.9-.475-1.875-.247-2.796.435-1.756 2.274-2.874 4.075-3.049 1.801-.176 3.582.389 5.304.946 6.082 1.969 12.165 3.937 18.247 5.906.564-.915-.542-1.938-1.502-2.421-10.363-5.216-22.478-6.872-33.86-4.628-.965-1.537.672-3.361 2.136-4.433 5.501-4.028 11.002-8.055 16.503-12.083 3.099-2.269 6.379-4.613 10.19-5.094 2.28-.288 5.402-.488 5.719-2.765-7.698-1.789-15.334 2.869-21.507 7.805-6.173 4.935-12.511 10.628-20.377 11.397-9.997.978-18.703-6.236-28.133-9.695-4.801-1.761-9.951-2.561-15.06-2.34-.459.02-.943.057-1.32.318-.375.259-.58.696-.752 1.118-1.706 4.187-1.761 9.022-.15 13.247 1.116-3.914 2.614-8.289 6.319-9.972 1.616-.734 3.455-.832 5.222-.664 7.456.712 13.71 5.773 20.777 8.25 3.718 1.303 7.774 1.937 10.983 4.222 4.445 3.166 6.329 8.843 7.099 14.246.769 5.403.715 10.985 2.497 16.143 1.007 2.918 2.841 5.846 5.772 6.812z" fill="#a8542e"/><path d="m241.167 208.542c8.853-3.505 13.188-13.522 9.684-22.374-3.505-8.853-13.522-13.188-22.375-9.684-8.852 3.505-13.188 13.522-9.683 22.375 3.505 8.852 13.522 13.188 22.374 9.683z" fill="#e2798b"/><path d="m236.119 204.018c3.355-3.144 3.527-8.413.382-11.768-3.144-3.355-8.412-3.527-11.768-.382-3.355 3.144-3.526 8.412-.382 11.768 3.144 3.355 8.413 3.526 11.768.382z" fill="#fff" opacity=".3"/><path d="m256.53 261.092c6.732-6.732 6.732-17.647 0-24.379-6.732-6.733-17.647-6.733-24.379 0-6.733 6.732-6.733 17.647 0 24.379 6.732 6.732 17.647 6.732 24.379 0z" fill="#e2798b"/><path d="m242.335 262.307c4.409-1.305 6.925-5.937 5.62-10.346s-5.937-6.926-10.346-5.621-6.925 5.937-5.62 10.346 5.937 6.926 10.346 5.621z" fill="#fff" opacity=".3"/><path d="m249.004 296.584c7.788-1.314 13.036-8.693 11.722-16.482-1.314-7.788-8.693-13.036-16.482-11.722-7.788 1.314-13.036 8.693-11.722 16.482 1.314 7.788 8.693 13.036 16.482 11.722z" fill="#e2798b"/><path d="m247.491 292.24c2.869-2.513 3.159-6.876.646-9.746-2.513-2.869-6.876-3.158-9.746-.646-2.87 2.513-3.159 6.877-.646 9.746 2.513 2.87 6.876 3.159 9.746.646z" fill="#fff" opacity=".3"/><path d="m306.596 278.114c7.803-1.223 13.137-8.539 11.914-16.342-1.223-7.802-8.539-13.136-16.341-11.913-7.803 1.222-13.137 8.538-11.914 16.341 1.222 7.802 8.539 13.136 16.341 11.914z" fill="#e2798b"/><path d="m300.779 275.409c3.814 0 6.906-3.093 6.906-6.907s-3.092-6.906-6.906-6.906c-3.815 0-6.907 3.092-6.907 6.906s3.092 6.907 6.907 6.907z" fill="#fff" opacity=".3"/><path d="m177.374 257.016c7.788-1.315 13.036-8.694 11.722-16.482s-8.693-13.036-16.481-11.722c-7.789 1.314-13.037 8.693-11.723 16.481 1.315 7.789 8.694 13.037 16.482 11.723z" fill="#e2798b"/><path d="m175.866 252.668c2.87-2.513 3.159-6.877.646-9.746-2.513-2.87-6.876-3.159-9.746-.646-2.869 2.513-3.159 6.876-.646 9.746 2.513 2.869 6.876 3.159 9.746.646z" fill="#fff" opacity=".3"/><path d="m200.272 282.803c5.551-6.921 4.44-17.031-2.48-22.582-6.921-5.551-17.032-4.441-22.583 2.48s-4.44 17.031 2.48 22.582c6.921 5.551 17.032 4.441 22.583-2.48z" fill="#e2798b"/><path d="m191.129 279.704c1.041-4.156-1.484-8.369-5.64-9.41-4.156-1.042-8.369 1.484-9.41 5.64-1.042 4.156 1.484 8.369 5.64 9.41s8.369-1.484 9.41-5.64z" fill="#fff" opacity=".3"/><path d="m228.291 285.655c6.732-6.733 6.732-17.648 0-24.38s-17.647-6.732-24.38 0c-6.732 6.732-6.732 17.647 0 24.38 6.733 6.732 17.648 6.732 24.38 0z" fill="#dc3c5e"/><path d="m218.869 283.158c2.362-3.945 1.079-9.058-2.866-11.42-3.946-2.362-9.059-1.078-11.421 2.867s-1.078 9.058 2.867 11.42 9.058 1.078 11.42-2.867z" fill="#fff" opacity=".3"/><path d="m223.618 188.196c2.546-6.438-.61-13.722-7.048-16.268-6.439-2.546-13.723.61-16.269 7.048-2.546 6.439.61 13.723 7.049 16.269s13.722-.61 16.268-7.049z" fill="#dc3c5e"/><path d="m214.122 190.325c1.554-2.961.413-6.621-2.548-8.175-2.961-1.553-6.621-.412-8.175 2.549s-.413 6.621 2.549 8.175c2.961 1.553 6.621.412 8.174-2.549z" fill="#fff" opacity=".3"/><path d="m280.12 283.028c6.732-6.733 6.732-17.648 0-24.38s-17.647-6.732-24.38 0c-6.732 6.732-6.732 17.647 0 24.38 6.733 6.732 17.648 6.732 24.38 0z" fill="#dc3c5e"/><path d="m270.698 280.531c2.362-3.945 1.079-9.058-2.866-11.42s-9.058-1.078-11.42 2.867-1.079 9.058 2.866 11.42 9.058 1.079 11.42-2.867z" fill="#fff" opacity=".3"/><path d="m215.908 254.127c8.91-3.357 13.411-13.301 10.054-22.21-3.357-8.91-13.301-13.411-22.211-10.054-8.909 3.357-13.41 13.301-10.053 22.211 3.357 8.909 13.301 13.41 22.21 10.053z" fill="#e2798b"/><path d="m212.574 247.674c2.362-3.945 1.079-9.058-2.866-11.42-3.946-2.362-9.058-1.079-11.42 2.866-2.362 3.946-1.079 9.058 2.866 11.42s9.058 1.079 11.42-2.866z" fill="#fff" opacity=".3"/><path d="m286.979 255.362c8.954-3.235 13.59-13.117 10.355-22.071-3.235-8.955-13.117-13.591-22.071-10.356s-13.591 13.117-10.355 22.071c3.235 8.955 13.116 13.591 22.071 10.356z" fill="#e2798b"/><path d="m282.61 250.453c3.251-3.251 3.251-8.522 0-11.774-3.251-3.251-8.523-3.251-11.774 0-3.251 3.252-3.251 8.523 0 11.774 3.251 3.252 8.523 3.252 11.774 0z" fill="#fff" opacity=".3"/><path d="m230.152 215.15c.802-7.204-4.387-13.695-11.592-14.498-7.204-.802-13.695 4.388-14.498 11.592-.802 7.205 4.388 13.696 11.592 14.498 7.205.802 13.696-4.387 14.498-11.592z" fill="#dc3c5e"/><path d="m218.893 221.548c2.032-2.852 1.368-6.81-1.483-8.841-2.851-2.032-6.809-1.367-8.841 1.484-2.031 2.851-1.367 6.809 1.484 8.841 2.851 2.031 6.809 1.367 8.84-1.484z" fill="#fff" opacity=".3"/><path d="m257.281 237.989c6.732-6.733 6.732-17.648 0-24.38s-17.647-6.732-24.379 0c-6.733 6.732-6.733 17.647 0 24.38 6.732 6.732 17.647 6.732 24.379 0z" fill="#dc3c5e"/><path d="m245.816 237.83c3.624-2.83 4.267-8.062 1.437-11.685-2.83-3.624-8.062-4.267-11.686-1.437s-4.267 8.062-1.437 11.685c2.83 3.624 8.062 4.267 11.686 1.437z" fill="#fff" opacity=".3"/><path d="m273.316 219.41c6.688-3.994 8.871-12.654 4.876-19.341-3.994-6.688-12.654-8.871-19.341-4.876-6.688 3.995-8.871 12.654-4.876 19.342 3.995 6.687 12.654 8.87 19.341 4.875z" fill="#e2798b"/><path d="m267.155 216.66c2.746-2.572 2.886-6.883.313-9.628-2.572-2.745-6.883-2.885-9.628-.313-2.745 2.573-2.885 6.883-.313 9.628 2.572 2.746 6.883 2.886 9.628.313z" fill="#fff" opacity=".3"/><path d="m42.5003 270.605c1.0428-2.175 2.403-4.198 4.0246-5.984.5416 8.319 1.0828 16.637 1.6245 24.955 8.1544-6.228 20.5446-4.146 28.6548-10.431-.6363 1.888-1.2727 3.775-1.909 5.663 5.9497-2.538 10.8236-7.498 13.2567-13.491-.265 2.777-.9459 5.514-2.0127 8.091 9.2583-8.15 10.2947-21.863 12.4777-34.003.17-.944.3823-1.949 1.065-2.624 1.5201-1.503 4.3261-.219 5.1271 1.763s.3 4.215-.025 6.328c-1.808 11.754 2.666 24.289 11.509 32.242.173-3.467.348-6.933.521-10.4.859 2.294 1.718 4.588 2.576 6.882 2.479-13.812 24.164-16.927 27.147-30.639-.182 2.293-.365 4.586-.547 6.879 3.45-6.209 5.224-13.34 5.084-20.442.316.942.631 1.885.946 2.828 1.473-5.812.083-12.279-3.648-16.973 1.219.044 2.439.088 3.659.132-2.895-5.25-5.936-10.671-10.77-14.216-4.834-3.546-12.005-4.66-16.706-.941-2.695 2.133-4.718 5.774-8.153 5.906-3.17.122-5.654-3.321-5.35-6.479.303-3.158 2.683-5.787 5.425-7.383-2.71 1.93-6.325 2.982-9.403 1.721-3.079-1.261-4.936-5.413-3.047-8.152 2.083-3.021 6.622-2.524 10.024-3.9 5.228-2.116 7.253-9.125 5.088-14.333-2.166-5.207-7.482-8.568-12.976-9.846-5.493-1.277-11.2229-.791-16.841-.298 1.3603.327 2.5966 1.146 3.4291 2.27-4.6187-.462-9.3264-.016-13.7759 1.305 1.1484.174 2.2298.764 2.9979 1.635-4.1676 2.398-9.2687 3.118-13.9376 1.97 1.9188 2.878 3.8368 5.757 5.7551 8.635-5.1333-.438-10.538-.432-15.1342 1.897-8.2203 4.164-11.2875 14.157-13.4053 23.125-2.1183 8.968-4.7905 18.965-12.7316 23.639 4.0258.017 8.0279-1.734 10.7477-4.702-.8714 1.674-1.7424 3.349-2.6138 5.024 3.5388.416 7.2329-.735 9.9081-3.088-.4466.863-.3257 1.987.2946 2.736 4.3674-1.138 8.3355-3.753 11.1047-7.318 1.7466-2.248 3.5017-5.143 6.3468-5.247 3.6155-.133 5.5395 4.856 3.9584 8.11-1.5814 3.254-5.1116 5-8.3973 6.515-4.7362 2.183-9.4716 4.366-14.2075 6.549 1.3056.091 2.612.181 3.918.272-4.0052 1.675-7.6585 4.185-10.6575 7.324 2.423-.475 4.9106-.62 7.3721-.429-7.6611 5.977-8.0653 17.212-7.7935 26.923z" fill="#999924"/><path d="m113.003 220.802c1.168.691 2.443 1.164 3.758 1.214.359.013.564-.476.19-.644-2.15-.959-4.099-1.717-5.92-3.096-2.664-3.758-4.386-7.987-3.576-13.599.638-.524 1.273-1.049 1.943-1.562.223-.171-.031-.518-.259-.353-.616.447-1.188.922-1.785 1.38-.149-.115-.387-.118-.482.096-.055.125-.08.251-.131.378-.387.302-.79.595-1.169.903.037-.183-.147-.359-.359-.24-6.7144 3.754-11.6104-3.968-16.4004-6.439-.0588-.031-.1229-.051-.1816-.081-1.3221-2.68-2.4817-5.353-3.5156-8.212-.1036-.287-.512-.159-.4978.124.1277 2.49.971 5.058 2.25 7.309-2.2713-.878-4.7103-1.379-7.1142-1.538-.5446-.036-1.087-.01-1.6309-.011-1.5579-1.06-3.6076-1.407-5.1112-2.688-2.3155-1.973-3.288-4.756-5.0394-7.128-.1853-.252-.6929-.105-.6087.239.5922 2.42 2.1752 4.87 3.8798 6.659.7996.84 1.6856 1.571 2.6947 2.143.6577.373 1.3771.607 2.0991.833-6.9465.518-13.6751 3.626-19.1311 7.797-.283.216-.0262.752.3148.57 5.2935-2.82 10.5354-6.007 16.5783-6.912 7.5971-1.139 12.8902 1.518 18.4836 5.258-4.4577.262-9.4469 2.641-12.5522 5.555-.3084.29.018.743.3882.53 2.2451-1.29 4.4374-2.645 6.8649-3.576 2.0886-.801 4.2761-1.136 6.4041-1.758.5341.366 1.066.728 1.6107 1.11 3.1161 2.176 6.3179 3.432 9.3859 1.45-3.875 3.267-7.3474 6.819-10.4666 10.67-5.7506 2.551-11.2747 4.411-14.2179 10.428-.1303.267.2527.493.4368.269 2.2238-2.705 4.3301-5.072 7.4642-6.733 1.7473-.926 3.5388-1.762 5.2992-2.66-3.4793 4.482-6.5322 9.338-9.1763 14.645-1.7971 3.606-3.4759 7.183-5.2187 10.709-6.0272 5.816-14.444 8.053-21.69 12.096-.2332.131-.0161.483.2194.398 5.2909-1.921 10.678-4.333 15.6425-7.001 1.7144-.921 3.3303-1.975 4.7138-3.262-2.2702 4.47-4.7119 8.846-7.7221 13.07-5.5241 7.75-11.7404 14.98-17.2046 22.786-.2119.303.2021.647.4481.364 5.301-6.101 10.5885-12.318 15.391-18.861-1.5145 4.688-2.9406 9.474-4.1291 14.22-.0584.232.3029.327.3968.117 2.2732-5.096 4.4105-10.887 5.2483-16.439 3.301-4.658 6.3161-9.499 8.8903-14.596-.1445 2.778-.0255 5.566-.362 8.342-.4488 3.705-1.5489 7.233-2.5869 10.805-.0782.27.3384.362.4541.134 1.6091-3.162 2.4922-6.492 2.9754-10.002.4874-3.539.0318-6.949.1332-10.453.0195-.04.0427-.079.0622-.119 2.7478-5.661 5.3856-11.057 8.2588-16.176-1.9741 8.231-.0329 18.809 1.5774 26.321.0666.31.5094.266.4941-.058-.4312-9.093-3.2023-19.82-.6195-28.786 4.6022-7.802 9.9309-14.909 17.3261-21.213-1.469 4.67.167 9.405 2.937 13.465 1.308 1.917 2.76 3.642 4.244 5.31.997 3.598.235 7.582.602 11.317.028.288.475.301.512.009.38-2.981.464-6.137.329-9.144-.01-.213-.037-.425-.054-.638 3.422 3.756 6.854 7.392 9.029 12.401.149.344.761.234.671-.168-1.635-7.209-7.259-11.976-11.689-17.278z" fill="#000" opacity=".21"/><path d="m221.773 122.827-26.506-100.1805h-74.773l-26.5059 100.1805c-3.8461 14.537 2.966 29.787 16.3589 36.622l40.178 20.507h.001v95.576c-23.153 2.401-35.548 16.788-35.548 16.788h88.665s-15.472-13.767-38.408-16.614v-95.75l40.179-20.507c13.393-6.835 20.205-22.086 16.359-36.622z" fill="#b6bff0"/><path d="m216.515 123.197-14.936-56.4526c-24.795 14.6559-57.73-8.3902-88.616-1.9071l-15.4409 58.3597c-3.5815 13.536 2.7629 27.737 15.2339 34.102l37.414 19.096h13.698l37.414-19.096c12.471-6.365 18.815-20.566 15.233-34.102z" fill="#de5f5f"/><path d="m119.238 164.252 30.485 15.559h15.277l39.895-20.362c13.393-6.836 20.205-22.086 16.359-36.622l-17.868-67.534c-4.027 30.106-20.272 100.07-84.148 108.959z" fill="#5d66cf" opacity=".45"/><g fill="#fff"><path d="m113.757 98.7416c-.231 0-.469-.0273-.706-.0824-1.681-.3896-2.722-2.0673-2.333-3.7424l14.294-61.3192c.389-1.6747 2.064-2.7101 3.745-2.3294 1.681.3897 2.722 2.0673 2.332 3.7424l-14.293 61.3193c-.335 1.4403-1.62 2.4117-3.039 2.4117z"/><path d="m141.566 103.304c-.644-.817-1.521-1.418-2.622-1.809-1.108-.391-2.157-.589-3.146-.589-.576 0-1.169.069-1.787.206-.611.133-1.187.348-1.728.636-.55.292-.989.675-1.332 1.148-.336.477-.508 1.057-.508 1.736 0 1.092.404 1.926 1.221 2.502.817.58 1.848 1.074 3.094 1.482 1.238.409 2.579.817 4.006 1.225 1.427.409 2.759.989 4.006 1.737 1.237.747 2.269 1.753 3.085 3.008.817 1.26 1.23 2.944 1.23 5.055 0 2.011-.378 3.76-1.126 5.26-.748 1.496-1.763 2.738-3.034 3.727-1.281.988-2.76 1.719-4.445 2.196-1.685.472-3.464.713-5.329.713-2.355 0-4.53-.357-6.542-1.075-2.003-.713-3.876-1.869-5.613-3.468l5.665-6.227c.817 1.087 1.848 1.929 3.094 2.527 1.238.593 2.527.889 3.851.889.645 0 1.298-.073 1.969-.228.662-.154 1.255-.382 1.779-.687.533-.31.954-.701 1.281-1.178.327-.473.482-1.036.482-1.685 0-1.087-.413-1.946-1.247-2.574-.834-.632-1.882-1.169-3.137-1.612-1.264-.438-2.622-.881-4.083-1.323-1.47-.443-2.828-1.041-4.092-1.788-1.255-.748-2.304-1.737-3.138-2.961-.833-1.225-1.246-2.841-1.246-4.849 0-1.942.378-3.644 1.143-5.106.765-1.4608 1.788-2.6901 3.069-3.6742 1.272-.9885 2.742-1.7278 4.41-2.2219 1.667-.4941 3.386-.7393 5.157-.7393 2.046 0 4.014.2879 5.923.8681 1.908.5761 3.627 1.5474 5.157 2.9095z"/><path d="m151.064 112.543c0-2.892.49-5.515 1.453-7.861.972-2.347 2.329-4.345 4.066-6 1.728-1.6503 3.791-2.914 6.172-3.7992 2.381-.8853 4.985-1.3281 7.813-1.3281 2.819 0 5.424.4428 7.805 1.3281 2.389.8852 4.444 2.1489 6.18 3.7992 1.737 1.655 3.086 3.653 4.057 6 .972 2.346 1.453 4.968 1.453 7.861s-.481 5.514-1.453 7.861c-.971 2.351-2.32 4.349-4.057 6-1.736 1.65-3.791 2.918-6.18 3.803-2.381.886-4.986 1.329-7.805 1.329-2.828 0-5.432-.443-7.813-1.329-2.381-.885-4.445-2.153-6.172-3.803-1.737-1.651-3.094-3.649-4.066-6-.963-2.347-1.453-4.968-1.453-7.861zm8.27 0c0 1.702.266 3.262.791 4.672.533 1.414 1.289 2.639 2.277 3.674.98 1.041 2.167 1.848 3.542 2.424 1.384.581 2.922.868 4.624.868s3.241-.287 4.616-.868c1.384-.576 2.562-1.383 3.55-2.424.989-1.035 1.746-2.261 2.27-3.674.533-1.41.791-2.97.791-4.672 0-1.668-.258-3.215-.791-4.646-.524-1.427-1.281-2.66-2.27-3.701-.988-1.035-2.166-1.843-3.55-2.424-1.375-.576-2.914-.868-4.616-.868s-3.24.293-4.624.868c-1.375.581-2.562 1.389-3.542 2.424-.988 1.041-1.745 2.274-2.277 3.701-.525 1.431-.791 2.978-.791 4.646z"/><path d="m190.468 133.363 7.607-6.826c.387-.352.774-.748 1.16-1.19.387-.443.576-.958.576-1.547 0-.667-.24-1.187-.713-1.565-.481-.378-1.04-.568-1.685-.568-.774 0-1.384.241-1.813.723-.43.477-.679 1.066-.731 1.766l-4.152-.301c.06-1.014.267-1.896.636-2.643.37-.743.859-1.367 1.47-1.865.602-.499 1.324-.868 2.14-1.118.817-.249 1.711-.374 2.665-.374.885 0 1.719.125 2.493.374.774.25 1.444.615 2.02 1.105.568.49 1.015 1.1 1.341 1.839.318.735.481 1.595.481 2.57 0 .628-.069 1.195-.197 1.698-.129.507-.31.971-.533 1.384-.232.417-.508.799-.817 1.147-.318.353-.653.693-1.023 1.023l-5.948 5.115h8.681v3.649h-13.658z"/><path d="m237.189 48.7741-.408 1.4074-14.979-4.3353-1.866 3.4523 7.927 12.9059-1.249.767-8.37-13.6265 2.831-5.2355z"/></g><path d="m238.58 44.3694c-2.825.082-5.048 2.4386-4.966 5.2636.081 2.8249 2.438 5.0487 5.263 4.9667 2.825-.0819 5.049-2.4386 4.967-5.2639-.082-2.8246-2.438-5.0484-5.264-4.9664z" fill="#e2798b"/><path d="m218.844 51.1646c2.825-.0616 5.066-2.4024 5.005-5.2282-.062-2.8258-2.403-5.0666-5.229-5.005-2.825.0616-5.066 2.4023-5.005 5.2282.062 2.8258 2.403 5.0666 5.229 5.005z" fill="#b6bff0"/><path d="m233.925 66.7177c.861-2.6921-.624-5.5724-3.316-6.4333s-5.572.6236-6.433 3.3157.624 5.5724 3.316 6.4333 5.572-.6235 6.433-3.3157z" fill="#6f7bbd"/><path d="m78.367 116.189-1.6705-.709 7.5345-17.7798-3.9703-2.8032-17.0362 7.849-.7587-1.649 17.9865-8.2865 6.0213 4.2515z" fill="#fff"/><path d="m81.2971 122.854c2.6874-2.242 3.0483-6.239.8061-8.926-2.2421-2.687-6.2384-3.048-8.9257-.806-2.6874 2.242-3.0483 6.238-.8062 8.926 2.2422 2.687 6.2384 3.048 8.9258.806z" fill="#e2798b"/><path d="m88.51 98.7521c2.6873-2.2421 3.0483-6.2383.8061-8.9257s-6.2384-3.0483-8.9257-.8061c-2.6874 2.2421-3.0483 6.2383-.8062 8.9257 2.2422 2.687 6.2384 3.048 8.9258.8061z" fill="#b6bff0"/><path d="m65.2052 106.34c1.4228-3.198-.0163-6.9437-3.2144-8.3665-3.198-1.4228-6.944.0164-8.3667 3.2145-1.4228 3.198.0163 6.944 3.2143 8.367 3.1981 1.422 6.944-.017 8.3668-3.215z" fill="#6f7bbd"/><path d="m240.167 128.533 1.774.379-4.035 18.885 4.429 2.001 15.244-10.93 1.057 1.476-16.094 11.54-6.717-3.036z" fill="#fff"/><path d="m234.602 127.202c.35 3.483 3.457 6.022 6.939 5.672 3.483-.351 6.022-3.458 5.672-6.94-.351-3.483-3.458-6.022-6.94-5.671-3.482.35-6.021 3.457-5.671 6.939z" fill="#e2798b"/><path d="m232.08 152.234c.351 3.482 3.457 6.021 6.94 5.671s6.022-3.457 5.671-6.94c-.35-3.482-3.457-6.021-6.94-5.671-3.482.35-6.021 3.458-5.671 6.94z" fill="#b6bff0"/><path d="m254.843 137.765c.35 3.483 3.457 6.022 6.94 5.671 3.482-.35 6.021-3.457 5.671-6.939-.351-3.483-3.457-6.022-6.94-5.672-3.483.351-6.021 3.457-5.671 6.94z" fill="#6f7bbd"/></svg>