<svg width="330" height="292" viewBox="0 0 330 292" fill="none" xmlns="http://www.w3.org/2000/svg">
<path d="M286.187 203.109C272.023 241.304 237.273 270.112 198.281 282.262C139.608 300.544 56.6519 289.751 19.8103 235.469C-15.8597 182.913 0.914519 111.566 36.3071 63.2122C61.1675 29.2477 99.7068 4.5069 141.607 0.514751C239.498 -8.81224 317.256 110.566 287.348 199.818C286.978 200.923 286.591 202.019 286.187 203.109Z" fill="#E1D3EC"/>
<path d="M228.236 270.691C202.45 269.121 178.574 253.331 164.027 231.902C142.139 199.657 133.428 147.326 159.594 114.981C184.928 83.6645 231.314 80.7202 267.17 93.3044C292.356 102.144 314.461 120.982 324.592 145.677C348.26 203.371 290.115 272.522 230.446 270.79C229.708 270.769 228.971 270.735 228.236 270.691Z" fill="#F8F0FF"/>
<path d="M321.578 291.667H4.66181C2.29657 291.667 0.382812 289.751 0.382812 287.388C0.382812 285.025 2.29657 283.109 4.66181 283.109H321.578C323.943 283.109 325.856 285.025 325.856 287.388C325.856 289.751 323.943 291.667 321.578 291.667Z" fill="#B4BA42"/>
<path d="M267.082 231.947H207.611V224.017H263.117V37.6771H146.159V70.3859H138.229V33.7126C138.229 31.5211 140.003 29.748 142.194 29.748H267.082C269.273 29.748 271.046 31.5214 271.046 33.7126V227.982C271.046 230.174 269.273 231.947 267.082 231.947Z" fill="#DE5F5F"/>
<path d="M267.084 233.927H205.631V222.033H261.136V39.6576H148.143V72.3664H136.249V33.7108C136.249 30.4313 138.917 27.7637 142.196 27.7637H267.084C270.363 27.7637 273.031 30.4313 273.031 33.7108V227.981C273.031 231.26 270.363 233.927 267.084 233.927ZM209.596 229.963H267.084C268.175 229.963 269.066 229.072 269.066 227.981V33.7108C269.066 32.619 268.175 31.7285 267.084 31.7285H142.196C141.104 31.7285 140.214 32.619 140.214 33.7108V68.4019H144.178V35.693H265.101V225.998H209.596L209.596 229.963Z" fill="#B6BFF0"/>
<path d="M180.788 61.1367H105.586C104.456 61.1367 103.54 62.0526 103.54 63.1822V84.2642H182.834V63.1822C182.834 62.0526 181.918 61.1367 180.788 61.1367Z" fill="#B6BFF0"/>
<path d="M182.832 86.4017H103.541C102.358 86.4017 101.401 85.4446 101.401 84.2623C101.401 83.0801 102.358 82.123 103.541 82.123H182.832C184.015 82.123 184.972 83.0797 184.972 84.2623C184.972 85.445 184.015 86.4017 182.832 86.4017Z" fill="#6F7BBD"/>
<path d="M98.2439 128.217H138.816H149.509H190.08C243.144 217.255 190.08 282.011 190.08 282.011C190.449 282.011 179.147 282.011 165.697 282.011C165.697 282.011 141.945 282.011 122.627 282.011C109.177 282.011 97.8749 282.011 98.2439 282.011C98.2439 282.011 45.1805 217.255 98.2439 128.217Z" fill="#CF936D"/>
<g opacity="0.62">
<path d="M107.085 227.259C108.103 245.751 112.008 264.094 116.321 282.011C115.041 282.011 113.81 282.011 112.622 282.011C108.351 264.199 104.511 245.957 103.493 227.456C101.634 193.667 109.092 160.446 116.918 128.217H120.621C112.782 160.457 105.238 193.687 107.085 227.259Z" fill="#CF936D"/>
</g>
<g opacity="0.62">
<path d="M180.34 173.323L180.175 170.816C179.553 161.191 178.32 142.14 172.976 128.217H176.883C181.925 142.272 183.096 160.238 183.765 170.584L183.929 173.077C186.524 210.952 178.841 245.86 169.567 282.011C168.493 282.011 167.406 282.011 166.297 282.011C166.297 282.011 166.134 282.011 165.852 282.011C175.153 245.83 182.918 210.958 180.34 173.323Z" fill="#CF936D"/>
</g>
<g opacity="0.62">
<path d="M139.445 128.217H143.043L143.998 282.011C142.817 282.011 141.616 282.011 140.4 282.011L139.445 128.217Z" fill="#CF936D"/>
</g>
<g opacity="0.28">
<path d="M79.1398 173.109C87.2206 168.874 96.546 166.983 105.61 168.083C121.879 170.059 136.065 180.933 145.415 194.393C154.765 207.852 159.894 223.753 164.105 239.591C167.79 253.45 170.878 267.746 170.394 282.008C168.869 282.008 167.3 282.008 165.698 282.008C165.698 282.008 141.946 282.008 122.628 282.008C109.178 282.008 97.8759 282.008 98.2448 282.008C98.2448 282.008 62.3636 238.199 79.1398 173.109Z" fill="#CF936D"/>
</g>
<path d="M91.9474 139.014H196.575V127.322L91.9474 127.322V139.014Z" fill="#B07769"/>
<path d="M110.296 134.633C110.524 133.224 109.567 131.895 108.157 131.667C106.748 131.438 105.419 132.395 105.191 133.805C104.962 135.215 105.919 136.543 107.329 136.772C108.739 137 110.067 136.043 110.296 134.633Z" fill="#82584F"/>
<path d="M132.892 134.633C133.121 133.224 132.164 131.895 130.754 131.667C129.344 131.438 128.016 132.395 127.787 133.805C127.559 135.215 128.516 136.543 129.926 136.772C131.335 137 132.664 136.043 132.892 134.633Z" fill="#82584F"/>
<path d="M161.448 134.633C161.677 133.224 160.719 131.895 159.31 131.667C157.9 131.438 156.572 132.395 156.343 133.805C156.114 135.215 157.072 136.543 158.481 136.772C159.891 137 161.219 136.043 161.448 134.633Z" fill="#82584F"/>
<path d="M187.081 134.633C187.31 133.224 186.352 131.895 184.943 131.667C183.533 131.438 182.205 132.395 181.976 133.805C181.747 135.215 182.704 136.543 184.114 136.772C185.524 137 186.852 136.043 187.081 134.633Z" fill="#82584F"/>
<path d="M203.664 226.84C206.349 209.926 205.767 189.197 197.215 165.805C188.889 168.335 180.563 175.104 172.236 175.104C142.801 177.781 115.463 167.873 88.5785 173.337C79.571 203.202 83.3394 228.303 89.3872 245.978C126.875 232.566 170.214 257.663 203.664 226.84Z" fill="#DE5F5F"/>
<path d="M89.3877 245.978C95.4783 263.778 103.882 274.047 103.882 274.047C103.558 274.047 113.473 274.047 125.271 274.047C142.218 274.047 163.054 274.047 163.054 274.047C174.853 274.047 184.767 274.047 184.444 274.047C184.444 274.047 199.001 256.221 203.665 226.84C170.214 257.663 126.875 232.566 89.3877 245.978Z" fill="#BF4040"/>
<path d="M172.237 175.107C180.563 175.107 188.889 168.337 197.215 165.807C194.086 157.248 189.932 148.347 184.443 139.137H148.853H139.473H103.881C96.7632 151.081 91.8424 162.519 88.5791 173.34C115.464 167.876 142.801 177.783 172.237 175.107Z" fill="#763424"/>
<path d="M91.9474 283.363H196.575V271.671H91.9474V283.363Z" fill="#B07769"/>
<path d="M104.203 279.764C105.631 279.764 106.789 278.606 106.789 277.178C106.789 275.75 105.631 274.592 104.203 274.592C102.775 274.592 101.617 275.75 101.617 277.178C101.617 278.606 102.775 279.764 104.203 279.764Z" fill="#82584F"/>
<path d="M126.8 279.764C128.228 279.764 129.386 278.606 129.386 277.178C129.386 275.75 128.228 274.592 126.8 274.592C125.372 274.592 124.214 275.75 124.214 277.178C124.214 278.606 125.372 279.764 126.8 279.764Z" fill="#82584F"/>
<path d="M155.353 279.764C156.782 279.764 157.939 278.606 157.939 277.178C157.939 275.75 156.782 274.592 155.353 274.592C153.925 274.592 152.768 275.75 152.768 277.178C152.768 278.606 153.925 279.764 155.353 279.764Z" fill="#82584F"/>
<path d="M180.987 279.764C182.415 279.764 183.573 278.606 183.573 277.178C183.573 275.75 182.415 274.592 180.987 274.592C179.559 274.592 178.401 275.75 178.401 277.178C178.401 278.606 179.559 279.764 180.987 279.764Z" fill="#82584F"/>
<path d="M199.033 170.81C198.497 169.15 197.975 167.494 197.358 165.805C189.032 168.335 180.706 175.104 172.379 175.104C142.944 177.78 115.606 167.873 88.7214 173.338C87.9718 175.823 87.3436 178.261 86.7676 180.678C123.637 175.605 171.34 198.752 199.033 170.81Z" fill="#49647A"/>
<path d="M86.7669 180.682C85.6804 185.239 84.8588 189.686 84.3135 193.991C86.7733 193.753 89.0928 192.424 89.7369 190.092C92.1638 194.582 97.8442 197.031 102.775 195.712C106.822 194.63 111.647 191.556 114.549 194.577C115.625 195.695 115.951 197.358 116.951 198.546C118.969 200.944 122.789 200.51 125.694 199.332C128.599 198.154 131.533 196.409 134.633 196.87C139.397 197.578 143.726 203.297 147.9 200.895C149.919 199.732 150.893 196.913 153.186 196.499C156.122 195.968 157.8 199.6 158.985 202.339C160.17 205.077 163.944 207.74 165.679 205.312C165.812 200.866 169.779 197.522 174.184 198.14C176.666 198.489 179.148 198.838 181.63 199.186C182.455 199.303 183.375 199.397 184.049 198.906C185.05 198.177 184.91 196.666 185.376 195.518C186.34 193.148 189.65 192.845 192.08 193.647C194.511 194.449 196.806 195.968 199.365 195.888C201.298 195.827 202.859 194.938 204.236 193.636C203.295 186.392 201.594 178.758 199.033 170.814C171.339 198.757 123.637 175.61 86.7669 180.682Z" fill="#6F7BBD"/>
<path d="M153.465 206.892C154.761 206.892 155.812 205.841 155.812 204.546C155.812 203.25 154.761 202.199 153.465 202.199C152.17 202.199 151.119 203.25 151.119 204.546C151.119 205.841 152.17 206.892 153.465 206.892Z" fill="#6F7BBD"/>
<path d="M146.319 204.328C148.734 204.328 150.692 202.37 150.692 199.955C150.692 197.54 148.734 195.582 146.319 195.582C143.904 195.582 141.946 197.54 141.946 199.955C141.946 202.37 143.904 204.328 146.319 204.328Z" fill="#6F7BBD"/>
<path d="M173.944 207.102C176.182 207.102 177.997 205.288 177.997 203.049C177.997 200.811 176.182 198.996 173.944 198.996C171.705 198.996 169.891 200.811 169.891 203.049C169.891 205.288 171.705 207.102 173.944 207.102Z" fill="#6F7BBD"/>
<path d="M191.861 198.569C192.686 198.569 193.355 197.9 193.355 197.075C193.355 196.251 192.686 195.582 191.861 195.582C191.037 195.582 190.368 196.251 190.368 197.075C190.368 197.9 191.037 198.569 191.861 198.569Z" fill="#6F7BBD"/>
<path d="M189.517 204.756C189.517 203.578 188.561 202.623 187.383 202.623C186.205 202.623 185.25 203.578 185.25 204.756C185.25 205.934 186.205 206.89 187.383 206.89C188.561 206.89 189.517 205.934 189.517 204.756Z" fill="#6F7BBD"/>
<path d="M178.849 214.142C179.321 214.142 179.703 213.76 179.703 213.289C179.703 212.818 179.321 212.436 178.849 212.436C178.378 212.436 177.996 212.818 177.996 213.289C177.996 213.76 178.378 214.142 178.849 214.142Z" fill="#6F7BBD"/>
<path d="M135.974 206.467C137.387 206.467 138.534 205.321 138.534 203.907C138.534 202.494 137.387 201.348 135.974 201.348C134.56 201.348 133.414 202.494 133.414 203.907C133.414 205.321 134.56 206.467 135.974 206.467Z" fill="#6F7BBD"/>
<path d="M131.067 203.047C133.776 203.047 135.973 200.851 135.973 198.141C135.973 195.431 133.776 193.234 131.067 193.234C128.357 193.234 126.16 195.431 126.16 198.141C126.16 200.851 128.357 203.047 131.067 203.047Z" fill="#6F7BBD"/>
<path d="M121.895 209.876C123.191 209.876 124.241 208.826 124.241 207.53C124.241 206.234 123.191 205.184 121.895 205.184C120.599 205.184 119.549 206.234 119.549 207.53C119.549 208.826 120.599 209.876 121.895 209.876Z" fill="#6F7BBD"/>
<path d="M116.466 198.002C117.39 195.771 116.33 193.213 114.099 192.289C111.868 191.364 109.31 192.424 108.385 194.655C107.461 196.886 108.521 199.445 110.752 200.369C112.983 201.293 115.541 200.233 116.466 198.002Z" fill="#6F7BBD"/>
<path d="M105.894 206.465C105.894 205.404 105.035 204.545 103.975 204.545C102.914 204.545 102.055 205.404 102.055 206.465C102.055 207.525 102.914 208.385 103.975 208.385C105.035 208.385 105.894 207.525 105.894 206.465Z" fill="#6F7BBD"/>
<path d="M99.8165 202.406C102.585 202.406 104.829 200.162 104.829 197.394C104.829 194.625 102.585 192.381 99.8165 192.381C97.048 192.381 94.8037 194.625 94.8037 197.394C94.8037 200.162 97.048 202.406 99.8165 202.406Z" fill="#6F7BBD"/>
<path d="M91.6037 199.745C91.6037 198.743 90.792 197.932 89.7906 197.932C88.7893 197.932 87.9775 198.743 87.9775 199.745C87.9775 200.746 88.7893 201.558 89.7906 201.558C90.792 201.558 91.6037 200.746 91.6037 199.745Z" fill="#6F7BBD"/>
<path d="M199.328 201.45C199.328 200.566 198.612 199.85 197.728 199.85C196.844 199.85 196.128 200.566 196.128 201.45C196.128 202.333 196.844 203.05 197.728 203.05C198.612 203.05 199.328 202.333 199.328 201.45Z" fill="#6F7BBD"/>
<path d="M132.182 189.432C134.533 188.877 135.988 186.522 135.433 184.172C134.878 181.821 132.523 180.366 130.173 180.921C127.822 181.476 126.367 183.831 126.922 186.181C127.477 188.532 129.832 189.987 132.182 189.432Z" fill="#49647A"/>
<path d="M125.733 180.973C125.733 179.618 124.635 178.52 123.28 178.52C121.925 178.52 120.827 179.618 120.827 180.973C120.827 182.327 121.925 183.426 123.28 183.426C124.635 183.426 125.733 182.327 125.733 180.973Z" fill="#49647A"/>
<path d="M142.798 175.401C144.288 175.049 145.211 173.555 144.859 172.065C144.507 170.574 143.014 169.651 141.523 170.003C140.033 170.355 139.11 171.849 139.461 173.339C139.813 174.83 141.307 175.753 142.798 175.401Z" fill="#49647A"/>
<path d="M150.958 178.795C152.582 177.17 152.582 174.537 150.958 172.912C149.333 171.288 146.7 171.288 145.075 172.912C143.451 174.537 143.451 177.17 145.075 178.795C146.7 180.419 149.333 180.419 150.958 178.795Z" fill="#49647A"/>
<path d="M158.404 187.738C160.468 187.25 161.745 185.182 161.258 183.119C160.771 181.055 158.703 179.777 156.639 180.264C154.575 180.751 153.297 182.819 153.785 184.883C154.272 186.947 156.34 188.225 158.404 187.738Z" fill="#49647A"/>
<path d="M146.426 188.865C146.426 188.217 145.901 187.691 145.253 187.691C144.605 187.691 144.08 188.217 144.08 188.865C144.08 189.512 144.605 190.038 145.253 190.038C145.901 190.038 146.426 189.512 146.426 188.865Z" fill="#49647A"/>
<path d="M146.532 197.506C147.18 197.506 147.705 196.981 147.705 196.333C147.705 195.685 147.18 195.16 146.532 195.16C145.884 195.16 145.358 195.685 145.358 196.333C145.358 196.981 145.884 197.506 146.532 197.506Z" fill="#49647A"/>
<path d="M178.423 187.05C180.19 187.05 181.623 185.617 181.623 183.85C181.623 182.083 180.19 180.65 178.423 180.65C176.656 180.65 175.224 182.083 175.224 183.85C175.224 185.617 176.656 187.05 178.423 187.05Z" fill="#49647A"/>
<path d="M174.157 190.038C174.157 188.742 173.106 187.691 171.81 187.691C170.514 187.691 169.464 188.742 169.464 190.038C169.464 191.333 170.514 192.384 171.81 192.384C173.106 192.384 174.157 191.334 174.157 190.038Z" fill="#49647A"/>
<path d="M191.754 182.356C193.816 182.356 195.487 180.685 195.487 178.624C195.487 176.562 193.816 174.891 191.754 174.891C189.693 174.891 188.021 176.562 188.021 178.624C188.021 180.685 189.693 182.356 191.754 182.356Z" fill="#49647A"/>
<path d="M189.302 187.049C190.244 187.049 191.008 186.285 191.008 185.343C191.008 184.401 190.244 183.637 189.302 183.637C188.36 183.637 187.596 184.401 187.596 185.343C187.596 186.285 188.36 187.049 189.302 187.049Z" fill="#49647A"/>
<path d="M197.409 188.33C197.409 187.741 196.932 187.264 196.343 187.264C195.754 187.264 195.276 187.741 195.276 188.33C195.276 188.919 195.754 189.397 196.343 189.397C196.932 189.397 197.409 188.919 197.409 188.33Z" fill="#49647A"/>
<path d="M178.956 178.52C181.961 178.52 184.396 176.085 184.396 173.08C184.396 170.076 181.961 167.641 178.956 167.641C175.952 167.641 173.517 170.076 173.517 173.08C173.517 176.085 175.952 178.52 178.956 178.52Z" fill="#49647A"/>
<path d="M171.064 178.52C173.597 178.52 175.65 176.467 175.65 173.934C175.65 171.401 173.597 169.348 171.064 169.348C168.531 169.348 166.478 171.401 166.478 173.934C166.478 176.467 168.531 178.52 171.064 178.52Z" fill="#49647A"/>
<path d="M161.567 178.73C162.983 177.314 162.983 175.018 161.567 173.602C160.151 172.186 157.855 172.186 156.439 173.602C155.023 175.018 155.023 177.314 156.439 178.73C157.855 180.146 160.151 180.146 161.567 178.73Z" fill="#49647A"/>
<path d="M121.361 176.173C123.894 176.173 125.947 174.119 125.947 171.586C125.947 169.053 123.894 167 121.361 167C118.828 167 116.774 169.053 116.774 171.586C116.774 174.119 118.828 176.173 121.361 176.173Z" fill="#49647A"/>
<path d="M115.273 172.756C116.981 171.048 116.981 168.28 115.273 166.572C113.566 164.864 110.797 164.864 109.089 166.572C107.381 168.28 107.381 171.048 109.089 172.756C110.797 174.464 113.565 174.464 115.273 172.756Z" fill="#49647A"/>
<path d="M103.977 182.783C107.511 182.783 110.376 179.918 110.376 176.384C110.376 172.849 107.511 169.984 103.977 169.984C100.442 169.984 97.5771 172.849 97.5771 176.384C97.5771 179.918 100.442 182.783 103.977 182.783Z" fill="#49647A"/>
<path d="M120.188 185.664C120.188 184.309 119.09 183.211 117.735 183.211C116.38 183.211 115.282 184.309 115.282 185.664C115.282 187.019 116.38 188.117 117.735 188.117C119.09 188.117 120.188 187.019 120.188 185.664Z" fill="#49647A"/>
<path d="M111.442 189.611C111.442 188.786 110.773 188.117 109.948 188.117C109.124 188.117 108.455 188.786 108.455 189.611C108.455 190.436 109.124 191.104 109.948 191.104C110.773 191.104 111.442 190.435 111.442 189.611Z" fill="#49647A"/>
<path d="M95.3369 174.676C96.9275 174.676 98.2169 173.386 98.2169 171.796C98.2169 170.205 96.9275 168.916 95.3369 168.916C93.7464 168.916 92.457 170.205 92.457 171.796C92.457 173.386 93.7464 174.676 95.3369 174.676Z" fill="#49647A"/>
<path d="M97.0433 190.04C98.9873 190.04 100.563 188.464 100.563 186.52C100.563 184.576 98.9873 183 97.0433 183C95.0993 183 93.5234 184.576 93.5234 186.52C93.5234 188.464 95.0993 190.04 97.0433 190.04Z" fill="#49647A"/>
<path d="M169.658 100.223C169.658 98.0885 167.128 91.3262 166.622 91.3262C166.085 91.3262 163.587 98.0885 163.587 100.223C163.587 102.357 164.946 104.088 166.622 104.088C168.299 104.088 169.658 102.357 169.658 100.223Z" fill="#DE5F5F"/>
<path d="M152.314 100.223C152.314 98.0885 149.785 91.3262 149.279 91.3262C148.741 91.3262 146.243 98.0885 146.243 100.223C146.243 102.357 147.602 104.088 149.279 104.088C150.955 104.087 152.314 102.357 152.314 100.223Z" fill="#DE5F5F"/>
<path d="M136.827 100.223C136.827 98.0885 134.297 91.3262 133.791 91.3262C133.254 91.3262 130.756 98.0885 130.756 100.223C130.756 102.357 132.115 104.088 133.791 104.088C135.468 104.087 136.827 102.357 136.827 100.223Z" fill="#DE5F5F"/>
<path d="M118.243 100.223C118.243 98.0885 115.713 91.3262 115.207 91.3262C114.67 91.3262 112.172 98.0885 112.172 100.223C112.172 102.357 113.531 104.088 115.207 104.088C116.884 104.087 118.243 102.357 118.243 100.223Z" fill="#DE5F5F"/>
<path d="M128.154 115.336C128.154 113.202 125.624 106.439 125.118 106.439C124.581 106.439 122.083 113.202 122.083 115.336C122.083 117.471 123.442 119.201 125.118 119.201C126.795 119.201 128.154 117.471 128.154 115.336Z" fill="#DE5F5F"/>
<path d="M145.375 115.336C145.375 113.202 142.845 106.439 142.339 106.439C141.802 106.439 139.304 113.202 139.304 115.336C139.304 117.471 140.663 119.201 142.339 119.201C144.016 119.201 145.375 117.471 145.375 115.336Z" fill="#DE5F5F"/>
<path d="M161.978 115.336C161.978 113.202 159.449 106.439 158.943 106.439C158.405 106.439 155.907 113.202 155.907 115.336C155.907 117.471 157.266 119.201 158.943 119.201C160.619 119.201 161.978 117.471 161.978 115.336Z" fill="#DE5F5F"/>
<path d="M115.684 73.265C115.007 73.265 114.347 72.9475 113.929 72.3541C113.252 71.3891 113.482 70.0558 114.452 69.375C115.191 68.8528 121.827 64.2812 126.335 64.2812H151.118C152.301 64.2812 153.257 65.2379 153.257 66.4205C153.257 67.6032 152.3 68.5599 151.118 68.5599H126.335C123.949 68.5599 119.29 71.209 116.908 72.8764C116.537 73.1394 116.106 73.265 115.684 73.265Z" fill="white"/>
<path d="M252.546 204.525H219.507V283.819H252.546V204.525Z" fill="#6F7BBD"/>
<path d="M242.44 232.913C246.375 228.977 246.375 222.597 242.44 218.662C238.505 214.726 232.124 214.726 228.189 218.662C224.254 222.597 224.254 228.977 228.189 232.913C232.124 236.848 238.505 236.848 242.44 232.913Z" fill="#B6BFF0"/>
<path d="M238.878 229.354C240.845 227.386 240.845 224.196 238.878 222.228C236.91 220.261 233.72 220.261 231.752 222.228C229.785 224.196 229.785 227.386 231.752 229.354C233.72 231.321 236.91 231.321 238.878 229.354Z" fill="#6F7BBD"/>
<path d="M242.439 271.415C246.374 267.479 246.374 261.099 242.439 257.164C238.504 253.228 232.123 253.228 228.188 257.164C224.253 261.099 224.253 267.479 228.188 271.415C232.123 275.35 238.504 275.35 242.439 271.415Z" fill="#B6BFF0"/>
<path d="M235.323 269.325C238.105 269.325 240.361 267.069 240.361 264.287C240.361 261.504 238.105 259.248 235.323 259.248C232.54 259.248 230.284 261.504 230.284 264.287C230.284 267.069 232.54 269.325 235.323 269.325Z" fill="#6F7BBD"/>
<path d="M42.6141 187.447H67.7567H74.3832H99.5258C132.409 242.625 99.5258 282.754 99.5258 282.754C99.7544 282.754 92.7507 282.754 84.4156 282.754C84.4156 282.754 69.6962 282.754 57.7247 282.754C49.3896 282.754 42.3855 282.754 42.6145 282.754C42.6145 282.754 9.73014 242.625 42.6141 187.447Z" fill="#CF936D"/>
<g opacity="0.62">
<path d="M48.0918 248.825C48.7223 260.284 51.1424 271.651 53.8153 282.754C53.0217 282.754 52.2591 282.754 51.5231 282.754C48.8759 271.716 46.4971 260.411 45.8658 248.946C44.7139 228.007 49.3354 207.42 54.1854 187.447H56.4802C51.6219 207.427 46.947 228.02 48.0918 248.825Z" fill="#CF936D"/>
</g>
<g opacity="0.62">
<path d="M93.4886 215.4L93.3864 213.846C93.0004 207.881 92.2371 196.076 88.925 187.447H91.3459C94.4702 196.157 95.1965 207.291 95.6109 213.703L95.7127 215.247C97.3207 238.718 92.5599 260.352 86.8122 282.754C86.1465 282.754 85.4733 282.754 84.786 282.754C84.786 282.754 84.6846 282.754 84.5098 282.754C90.2741 260.333 95.0863 238.722 93.4886 215.4Z" fill="#CF936D"/>
</g>
<g opacity="0.62">
<path d="M68.1445 187.447H70.3743L70.9658 282.754C70.2342 282.754 69.4899 282.754 68.736 282.754L68.1445 187.447Z" fill="#CF936D"/>
</g>
<g opacity="0.28">
<path d="M30.7741 215.27C35.782 212.646 41.5607 211.474 47.1779 212.156C57.2598 213.38 66.0513 220.119 71.8452 228.46C77.6391 236.801 80.818 246.654 83.4277 256.469C85.7112 265.058 87.6245 273.917 87.3244 282.755C86.3795 282.755 85.4076 282.755 84.4146 282.755C84.4146 282.755 69.6953 282.755 57.7238 282.755C49.3887 282.755 42.3846 282.755 42.6135 282.755C42.6135 282.755 20.3777 255.607 30.7741 215.27Z" fill="#CF936D"/>
</g>
<path d="M38.7133 194.131H103.552V186.885H38.7133V194.131Z" fill="#B07769"/>
<path d="M38.7133 283.598H103.552V276.352H38.7133V283.598Z" fill="#B07769"/>
<path d="M46.3074 281.357C47.1923 281.357 47.9097 280.64 47.9097 279.755C47.9097 278.87 47.1923 278.152 46.3074 278.152C45.4225 278.152 44.7051 278.87 44.7051 279.755C44.7051 280.64 45.4225 281.357 46.3074 281.357Z" fill="#82584F"/>
<path d="M60.3093 281.357C61.1943 281.357 61.9116 280.64 61.9116 279.755C61.9116 278.87 61.1943 278.152 60.3093 278.152C59.4244 278.152 58.707 278.87 58.707 279.755C58.707 280.64 59.4244 281.357 60.3093 281.357Z" fill="#82584F"/>
<path d="M78.0046 281.357C78.8895 281.357 79.6069 280.64 79.6069 279.755C79.6069 278.87 78.8895 278.152 78.0046 278.152C77.1197 278.152 76.4023 278.87 76.4023 279.755C76.4023 280.64 77.1197 281.357 78.0046 281.357Z" fill="#82584F"/>
<path d="M93.8903 281.357C94.7753 281.357 95.4927 280.64 95.4927 279.755C95.4927 278.87 94.7753 278.152 93.8903 278.152C93.0054 278.152 92.2881 278.87 92.2881 279.755C92.2881 280.64 93.0054 281.357 93.8903 281.357Z" fill="#82584F"/>
<path d="M48.4881 192.763C49.373 192.763 50.0904 192.046 50.0904 191.161C50.0904 190.276 49.373 189.559 48.4881 189.559C47.6031 189.559 46.8857 190.276 46.8857 191.161C46.8857 192.046 47.6031 192.763 48.4881 192.763Z" fill="#82584F"/>
<path d="M62.4929 192.763C63.3779 192.763 64.0952 192.046 64.0952 191.161C64.0952 190.276 63.3779 189.559 62.4929 189.559C61.608 189.559 60.8906 190.276 60.8906 191.161C60.8906 192.046 61.608 192.763 62.4929 192.763Z" fill="#82584F"/>
<path d="M78.585 191.161C78.585 190.276 79.3025 189.559 80.1873 189.559C81.0721 189.559 81.7896 190.276 81.7896 191.161C81.7896 192.046 81.0721 192.763 80.1873 192.763C79.3025 192.764 78.585 192.046 78.585 191.161Z" fill="#82584F"/>
<path d="M96.073 192.763C96.9579 192.763 97.6753 192.046 97.6753 191.161C97.6753 190.276 96.9579 189.559 96.073 189.559C95.1881 189.559 94.4707 190.276 94.4707 191.161C94.4707 192.046 95.1881 192.763 96.073 192.763Z" fill="#82584F"/>
<path d="M263.214 222.622C263.449 222.888 263.649 223.161 263.828 223.413C265.489 225.745 266.734 228.318 267.527 231.067L267.927 232.455L266.49 232.302C263.939 232.028 261.315 232.93 259.473 234.713C257.772 236.359 256.799 238.694 256.807 241.056C262.759 243.408 269.258 244.661 275.644 244.68L276.123 244.682L276.415 245.064C277.989 247.139 279.131 249.577 279.723 252.113C279.952 253.106 280.103 254.123 280.252 255.139C280.548 257.159 280.829 259.068 281.742 260.71C283.194 263.335 286.081 264.893 289.265 266.28C289.267 266.13 289.249 265.978 289.214 265.832L291.099 265.373C291.317 266.267 291.197 267.249 290.769 268.064L290.353 268.85L289.532 268.505C285.628 266.86 281.961 265.103 280.045 261.651C278.961 259.7 278.641 257.525 278.332 255.421C278.19 254.458 278.051 253.492 277.831 252.553C277.339 250.434 276.415 248.392 275.147 246.618C268.466 246.534 261.681 245.154 255.494 242.619L254.939 242.391L254.893 241.792C254.663 238.666 255.87 235.498 258.124 233.319C260.027 231.476 262.613 230.403 265.25 230.318C264.526 228.261 263.52 226.322 262.25 224.54C261.99 224.179 261.703 223.802 261.368 223.529C260.937 223.184 260.36 222.972 259.752 222.747L251.68 219.775C249.136 218.837 246.505 217.867 243.813 217.86C243.464 217.859 243.076 217.878 242.846 218.021C242.644 218.148 242.462 218.44 242.279 218.754C240.33 222.09 239.033 225.714 238.427 229.526L238.293 229.93C240.411 232.367 242.671 234.787 245.229 236.772L245.887 237.274C246.98 238.094 248.11 238.943 248.957 240.13C250.969 242.921 250.762 246.56 250.38 250.05L249.403 258.884C248.854 263.88 248.23 269.543 250.089 274.497L250.341 275.164L249.778 275.603C249.248 276.017 248.957 276.767 249.072 277.43L249.324 278.886L247.889 278.54C245.182 277.889 242.497 277.037 239.907 276.011C238.444 275.43 236.772 274.704 235.431 273.448C232.532 270.708 232.11 266.56 231.725 262.872L231.658 262.225C230.911 255.153 228.747 250.279 225.227 247.741C224.545 250.472 222.692 252.724 220.891 254.915C220.521 255.366 220.151 255.816 219.796 256.267C218.486 257.926 215.643 262.136 217.534 265.408L215.854 266.38C213.366 262.077 216.716 257.032 218.273 255.062C218.635 254.603 219.012 254.144 219.392 253.683C221.326 251.331 223.325 248.9 223.539 246.071L223.651 244.582L224.967 245.291C229.78 247.886 232.687 253.515 233.588 262.019L233.657 262.671C234.022 266.184 234.392 269.821 236.758 272.03C237.851 273.056 239.326 273.691 240.623 274.205C242.758 275.052 244.958 275.775 247.181 276.359C247.315 275.703 247.617 275.083 248.057 274.573C246.297 269.352 246.92 263.69 247.472 258.671L248.45 249.837C248.805 246.595 248.993 243.499 247.381 241.265C246.698 240.31 245.738 239.592 244.717 238.822L244.04 238.307C240.899 235.865 238.284 232.871 235.751 229.973L236.582 229.232L236.509 229.221C237.154 225.17 238.531 221.318 240.604 217.774C240.9 217.267 241.238 216.741 241.81 216.378C242.463 215.969 243.192 215.918 243.819 215.918C246.854 215.927 249.775 217.003 252.352 217.952L260.423 220.926C261.116 221.181 261.903 221.471 262.577 222.011C262.815 222.202 263.026 222.409 263.214 222.622Z" fill="#A8542E"/>
<path d="M204.185 245.222C201.229 239.246 200.119 232.371 201.045 225.768C201.108 225.325 201.185 224.866 201.438 224.496C201.816 223.944 202.517 223.7 203.184 223.659C206.452 223.459 208.527 226.998 209.806 230.012C210.931 232.662 212.055 235.312 213.18 237.963C214.414 240.869 215.786 243.946 218.435 245.663C218.724 245.05 219.012 244.437 219.3 243.824C215.597 241.521 213.589 236.782 214.51 232.519C216.848 234.065 219.186 235.609 221.524 237.154C217.76 231.591 209.122 229.694 207.551 223.164C207.389 222.49 207.32 221.77 207.542 221.113C207.966 219.861 209.373 219.159 210.695 219.142C212.017 219.124 213.28 219.644 214.499 220.155C218.808 221.96 223.116 223.765 227.424 225.571C227.89 224.939 227.148 224.126 226.478 223.716C219.252 219.284 210.533 217.338 202.108 218.277C201.5 217.098 202.803 215.871 203.935 215.179C208.186 212.583 212.437 209.987 216.688 207.391C219.083 205.929 221.615 204.423 224.419 204.305C226.097 204.235 228.382 204.28 228.753 202.642C223.257 200.869 217.413 203.793 212.617 207.009C207.82 210.225 202.858 213.983 197.084 214.062C189.746 214.163 183.848 208.378 177.194 205.284C173.806 203.708 170.105 202.811 166.372 202.66C166.037 202.646 165.683 202.643 165.392 202.81C165.103 202.976 164.927 203.281 164.776 203.578C163.279 206.522 162.943 210.039 163.858 213.213C164.909 210.433 166.268 207.339 169.068 206.339C170.29 205.904 171.635 205.945 172.911 206.176C178.295 207.149 182.539 211.216 187.533 213.452C190.161 214.628 193.075 215.337 195.271 217.198C198.314 219.774 199.339 224.023 199.569 228.003C199.799 231.984 199.419 236.045 200.4 239.909C200.954 242.095 202.11 244.34 204.185 245.222Z" fill="#A8542E"/>
<path d="M255.865 222.458C261.321 218.143 262.246 210.222 257.931 204.766C253.617 199.309 245.695 198.384 240.239 202.699C234.783 207.014 233.857 214.935 238.172 220.391C242.487 225.848 250.408 226.773 255.865 222.458Z" fill="#6F7BBD"/>
<g opacity="0.3">
<path d="M248.295 221.053C250.93 218.969 251.377 215.143 249.293 212.508C247.209 209.873 243.383 209.426 240.748 211.51C238.113 213.594 237.666 217.419 239.75 220.055C241.834 222.69 245.659 223.137 248.295 221.053Z" fill="white"/>
</g>
<path d="M259.361 264.083C264.817 259.768 265.742 251.847 261.428 246.391C257.113 240.934 249.191 240.009 243.735 244.324C238.279 248.639 237.353 256.56 241.668 262.016C245.983 267.473 253.904 268.398 259.361 264.083Z" fill="#6F7BBD"/>
<g opacity="0.3">
<path d="M251.791 262.672C254.426 260.588 254.873 256.762 252.789 254.127C250.705 251.492 246.879 251.045 244.244 253.129C241.609 255.213 241.162 259.039 243.246 261.674C245.33 264.309 249.156 264.756 251.791 262.672Z" fill="white"/>
</g>
<path d="M261.53 278.942C261.644 273.173 257.06 268.403 251.291 268.289C245.521 268.175 240.752 272.759 240.638 278.528C240.523 284.298 245.108 289.067 250.877 289.181C256.646 289.296 261.416 284.711 261.53 278.942Z" fill="#6F7BBD"/>
<g opacity="0.3">
<path d="M252.957 283.424C253.83 280.777 252.393 277.924 249.747 277.051C247.1 276.177 244.247 277.615 243.373 280.261C242.5 282.907 243.937 285.761 246.584 286.634C249.23 287.508 252.084 286.07 252.957 283.424Z" fill="white"/>
</g>
<path d="M300.845 277.051C305.372 273.471 306.139 266.9 302.56 262.374C298.98 257.848 292.409 257.08 287.883 260.66C283.357 264.239 282.589 270.81 286.169 275.336C289.748 279.863 296.319 280.63 300.845 277.051Z" fill="#6F7BBD"/>
<g opacity="0.3">
<path d="M291.998 266.87C289.23 266.547 286.724 268.529 286.401 271.297C286.078 274.065 288.059 276.571 290.827 276.895C293.595 277.218 296.102 275.236 296.425 272.468C296.748 269.7 294.766 267.194 291.998 266.87Z" fill="white"/>
</g>
<path d="M205.602 255.111C210.883 252.787 213.281 246.621 210.956 241.34C208.632 236.058 202.466 233.66 197.184 235.985C191.903 238.309 189.505 244.475 191.83 249.757C194.154 255.038 200.32 257.436 205.602 255.111Z" fill="#6F7BBD"/>
<g opacity="0.3">
<path d="M199.029 243.62C196.262 243.297 193.755 245.279 193.432 248.047C193.109 250.815 195.091 253.321 197.859 253.645C200.626 253.968 203.133 251.986 203.456 249.218C203.78 246.45 201.797 243.944 199.029 243.62Z" fill="white"/>
</g>
<path d="M216.135 277.3C221.219 273.279 222.081 265.898 218.06 260.814C214.04 255.729 206.659 254.867 201.574 258.888C196.49 262.909 195.628 270.29 199.648 275.374C203.669 280.458 211.05 281.321 216.135 277.3Z" fill="#6F7BBD"/>
<g opacity="0.3">
<path d="M206.837 276.987C209.88 276.253 211.753 273.191 211.019 270.148C210.285 267.105 207.223 265.233 204.18 265.966C201.137 266.7 199.265 269.762 199.999 272.805C200.732 275.848 203.794 277.72 206.837 276.987Z" fill="white"/>
</g>
<path d="M239.339 278.197C243.655 272.742 242.732 264.821 237.277 260.504C231.822 256.188 223.901 257.111 219.585 262.566C215.269 268.021 216.192 275.942 221.647 280.259C227.102 284.575 235.023 283.652 239.339 278.197Z" fill="#49647A"/>
<g opacity="0.3">
<path d="M229.728 278.834C232.363 276.75 232.81 272.925 230.726 270.289C228.643 267.654 224.817 267.207 222.182 269.291C219.546 271.375 219.1 275.201 221.183 277.836C223.267 280.471 227.093 280.918 229.728 278.834Z" fill="white"/>
</g>
<path d="M233.012 195.514C227.987 194.927 223.438 198.525 222.851 203.55C222.264 208.575 225.862 213.124 230.887 213.711C235.911 214.298 240.461 210.7 241.048 205.675C241.635 200.65 238.037 196.101 233.012 195.514Z" fill="#49647A"/>
<g opacity="0.3">
<path d="M229.896 202.907C227.469 202.624 225.272 204.362 224.988 206.788C224.705 209.215 226.443 211.412 228.869 211.695C231.296 211.979 233.493 210.241 233.776 207.814C234.06 205.388 232.322 203.191 229.896 202.907Z" fill="white"/>
</g>
<path d="M275.196 281.501C280.652 277.186 281.577 269.265 277.262 263.809C272.948 258.352 265.026 257.427 259.57 261.742C254.114 266.057 253.188 273.978 257.503 279.434C261.818 284.891 269.739 285.816 275.196 281.501Z" fill="#49647A"/>
<g opacity="0.3">
<path d="M267.626 280.084C270.261 278 270.708 274.175 268.624 271.539C266.54 268.904 262.714 268.457 260.079 270.541C257.444 272.625 256.997 276.451 259.081 279.086C261.165 281.721 264.99 282.168 267.626 280.084Z" fill="white"/>
</g>
<path d="M233.167 255.102C239.232 251.696 241.388 244.018 237.983 237.953C234.577 231.888 226.899 229.732 220.834 233.138C214.769 236.544 212.613 244.221 216.019 250.286C219.425 256.351 227.102 258.507 233.167 255.102Z" fill="#6F7BBD"/>
<g opacity="0.3">
<path d="M229.322 249.618C230.36 246.423 228.611 242.991 225.416 241.953C222.221 240.915 218.789 242.664 217.751 245.859C216.713 249.054 218.461 252.486 221.657 253.524C224.852 254.562 228.284 252.814 229.322 249.618Z" fill="white"/>
</g>
<path d="M286.734 259.208C292.19 254.893 293.115 246.972 288.801 241.516C284.486 236.059 276.565 235.134 271.108 239.449C265.652 243.764 264.726 251.685 269.041 257.141C273.356 262.598 281.277 263.523 286.734 259.208Z" fill="#6F7BBD"/>
<g opacity="0.3">
<path d="M281.167 254.806C282.205 251.611 280.456 248.179 277.261 247.141C274.065 246.102 270.634 247.851 269.595 251.046C268.557 254.242 270.306 257.674 273.501 258.712C276.697 259.75 280.128 258.001 281.167 254.806Z" fill="white"/>
</g>
<path d="M238.187 235.466C242.901 233.052 244.766 227.274 242.352 222.559C239.938 217.845 234.159 215.981 229.445 218.395C224.731 220.809 222.866 226.587 225.28 231.301C227.694 236.015 233.473 237.88 238.187 235.466Z" fill="#49647A"/>
<g opacity="0.3">
<path d="M231.666 225.088C229.126 224.792 226.825 226.611 226.529 229.151C226.232 231.692 228.051 233.992 230.592 234.289C233.132 234.585 235.432 232.766 235.729 230.226C236.026 227.685 234.207 225.385 231.666 225.088Z" fill="white"/>
</g>
<path d="M260.486 247.865C266.274 244.006 267.837 236.186 263.977 230.398C260.118 224.611 252.298 223.047 246.51 226.907C240.723 230.766 239.16 238.586 243.019 244.374C246.878 250.161 254.699 251.724 260.486 247.865Z" fill="#49647A"/>
<g opacity="0.3">
<path d="M253.75 245.899C256.385 243.815 256.832 239.989 254.748 237.354C252.664 234.719 248.838 234.272 246.203 236.356C243.568 238.44 243.121 242.265 245.205 244.9C247.289 247.536 251.115 247.983 253.75 245.899Z" fill="white"/>
</g>
<path d="M270.21 235.524C275.898 235.341 280.361 230.581 280.178 224.892C279.995 219.204 275.235 214.741 269.546 214.924C263.858 215.107 259.395 219.867 259.578 225.556C259.761 231.245 264.521 235.708 270.21 235.524Z" fill="#6F7BBD"/>
<g opacity="0.3">
<path d="M270.118 232.148C272.274 230.443 272.64 227.313 270.935 225.157C269.23 223.001 266.1 222.636 263.944 224.341C261.788 226.046 261.422 229.176 263.127 231.332C264.832 233.488 267.962 233.853 270.118 232.148Z" fill="white"/>
</g>
<path d="M230.905 169.308C230.297 170.551 229.507 171.706 228.569 172.724C228.295 167.947 228.021 163.17 227.747 158.393C223.038 161.931 215.936 160.681 211.252 164.253C211.626 163.172 212 162.091 212.373 161.011C208.947 162.441 206.127 165.267 204.704 168.696C204.869 167.103 205.272 165.535 205.895 164.06C200.545 168.697 199.889 176.564 198.582 183.522C198.48 184.064 198.353 184.64 197.959 185.024C197.079 185.88 195.474 185.13 195.023 183.989C194.572 182.848 194.87 181.569 195.066 180.358C196.157 173.619 193.644 166.403 188.603 161.799C188.488 163.788 188.373 165.777 188.258 167.766C187.775 166.445 187.292 165.125 186.81 163.804C185.325 171.722 172.864 173.413 171.091 181.271C171.206 179.955 171.32 178.64 171.435 177.324C169.427 180.873 168.378 184.959 168.426 189.036C168.249 188.493 168.073 187.951 167.896 187.408C167.024 190.738 167.794 194.456 169.914 197.167C169.214 197.136 168.514 197.106 167.815 197.075C169.453 200.101 171.174 203.227 173.933 205.283C176.692 207.34 180.803 208.012 183.519 205.898C185.075 204.685 186.252 202.604 188.224 202.544C190.045 202.488 191.455 204.475 191.267 206.287C191.079 208.098 189.701 209.596 188.12 210.501C189.684 209.405 191.764 208.817 193.525 209.555C195.286 210.292 196.334 212.684 195.238 214.247C194.028 215.972 191.425 215.667 189.466 216.442C186.456 217.633 185.262 221.647 186.482 224.646C187.702 227.645 190.739 229.598 193.886 230.356C197.034 231.114 200.325 230.86 203.552 230.602C202.773 230.407 202.067 229.932 201.594 229.283C204.243 229.569 206.947 229.334 209.507 228.595C208.849 228.49 208.231 228.147 207.794 227.643C210.197 226.286 213.128 225.895 215.803 226.575C214.714 224.914 213.626 223.253 212.538 221.593C215.482 221.867 218.585 221.887 221.233 220.571C225.97 218.218 227.775 212.495 229.031 207.356C230.287 202.218 231.865 196.492 236.444 193.844C234.134 193.816 231.828 194.804 230.254 196.495C230.762 195.538 231.269 194.58 231.777 193.623C229.748 193.368 227.622 194.013 226.076 195.351C226.336 194.858 226.271 194.212 225.919 193.78C223.407 194.413 221.117 195.897 219.512 197.93C218.499 199.213 217.479 200.867 215.845 200.914C213.769 200.974 212.687 198.102 213.609 196.241C214.532 194.381 216.566 193.394 218.459 192.539C221.187 191.307 223.915 190.075 226.643 188.843C225.894 188.785 225.145 188.727 224.396 188.67C226.702 187.726 228.81 186.301 230.546 184.513C229.152 184.775 227.724 184.847 226.312 184.726C230.736 181.33 231.018 174.883 230.905 169.308Z" fill="#B4BA42"/>
<g opacity="0.21">
<path d="M190.213 197.584C189.546 197.182 188.816 196.904 188.062 196.87C187.856 196.861 187.735 197.141 187.95 197.239C189.179 197.799 190.295 198.243 191.334 199.042C192.847 201.211 193.816 203.647 193.326 206.864C192.958 207.162 192.591 207.461 192.204 207.752C192.075 207.849 192.219 208.05 192.352 207.956C192.706 207.702 193.037 207.432 193.382 207.172C193.467 207.238 193.603 207.241 193.659 207.119C193.691 207.047 193.706 206.975 193.736 206.902C193.959 206.73 194.191 206.564 194.411 206.389C194.389 206.494 194.494 206.596 194.616 206.529C198.487 204.404 201.263 208.858 204.001 210.298C204.035 210.315 204.072 210.327 204.105 210.345C204.852 211.889 205.506 213.428 206.087 215.075C206.145 215.24 206.38 215.168 206.373 215.006C206.311 213.576 205.838 212.098 205.114 210.8C206.414 211.314 207.812 211.612 209.191 211.715C209.503 211.738 209.815 211.725 210.127 211.728C211.016 212.344 212.191 212.552 213.049 213.294C214.369 214.437 214.915 216.039 215.91 217.408C216.015 217.553 216.307 217.471 216.26 217.274C215.931 215.882 215.033 214.468 214.062 213.434C213.607 212.948 213.102 212.525 212.525 212.192C212.149 211.975 211.737 211.837 211.324 211.704C215.314 211.438 219.19 209.684 222.34 207.314C222.504 207.191 222.359 206.883 222.162 206.985C219.111 208.58 216.088 210.386 212.615 210.879C208.249 211.499 205.223 209.951 202.029 207.779C204.589 207.648 207.463 206.305 209.259 204.646C209.437 204.481 209.252 204.22 209.038 204.34C207.744 205.07 206.479 205.839 205.082 206.362C203.88 206.813 202.622 206.995 201.398 207.343C201.093 207.13 200.79 206.92 200.478 206.699C198.699 205.436 196.867 204.7 195.097 205.825C197.336 203.967 199.345 201.943 201.153 199.746C204.465 198.307 207.645 197.265 209.36 193.824C209.436 193.671 209.218 193.539 209.111 193.667C207.822 195.211 206.603 196.56 204.796 197.499C203.789 198.023 202.757 198.495 201.743 199.003C203.76 196.445 205.534 193.671 207.075 190.637C208.123 188.575 209.102 186.53 210.118 184.513C213.604 181.201 218.445 179.955 222.622 177.666C222.757 177.592 222.634 177.389 222.498 177.437C219.453 178.516 216.349 179.876 213.488 181.385C212.5 181.907 211.567 182.505 210.768 183.237C212.091 180.681 213.512 178.18 215.258 175.769C218.464 171.345 222.064 167.223 225.235 162.766C225.358 162.594 225.122 162.394 224.98 162.556C221.91 166.034 218.847 169.579 216.061 173.314C216.951 170.629 217.791 167.888 218.494 165.17C218.529 165.037 218.322 164.981 218.267 165.101C216.939 168.016 215.687 171.33 215.181 174.514C213.265 177.173 211.513 179.938 210.013 182.852C210.109 181.258 210.053 179.658 210.258 178.065C210.532 175.941 211.18 173.921 211.791 171.875C211.837 171.72 211.598 171.666 211.531 171.795C210.593 173.603 210.072 175.511 209.779 177.524C209.483 179.553 209.729 181.512 209.656 183.523C209.644 183.546 209.631 183.568 209.619 183.592C208.017 186.829 206.479 189.914 204.807 192.84C205.976 188.124 204.909 182.044 204.018 177.724C203.982 177.546 203.727 177.569 203.735 177.755C203.942 182.977 205.484 189.147 203.962 194.282C201.286 198.739 198.195 202.796 193.922 206.381C194.786 203.707 193.868 200.982 192.296 198.64C191.553 197.533 190.728 196.537 189.883 195.573C189.327 193.503 189.782 191.22 189.589 189.074C189.574 188.908 189.317 188.899 189.294 189.066C189.063 190.776 189.001 192.587 189.065 194.314C189.07 194.436 189.084 194.558 189.094 194.681C187.146 192.51 185.192 190.407 183.966 187.522C183.882 187.324 183.53 187.384 183.58 187.615C184.487 191.759 187.694 194.521 190.213 197.584Z" fill="black"/>
</g>
</svg>
