<svg width="130" height="270" viewBox="0 0 130 270" fill="none" xmlns="http://www.w3.org/2000/svg">
<path d="M128.851 100.181L102.345 0H27.5721L1.06619 100.181C-2.77988 114.717 4.03224 129.967 17.4252 136.803L57.6036 157.31H57.604V252.886C34.4516 255.286 22.0562 269.674 22.0562 269.674H110.721C110.721 269.674 95.2491 255.906 72.3134 253.059V157.31L112.492 136.803C125.885 129.967 132.697 114.717 128.851 100.181Z" fill="#B6BFF0"/>
<path d="M123.593 100.55L108.657 44.098C83.8622 58.7538 50.9275 35.7077 20.041 42.1908L4.60021 100.55C1.01877 114.086 7.36264 128.287 19.834 134.652L57.2481 153.749H70.9458L108.36 134.652C120.831 128.288 127.175 114.086 123.593 100.55Z" fill="#DE5F5F"/>
<g opacity="0.45">
<path d="M26.3164 141.605L56.8012 157.164H72.0781L111.973 136.803C125.366 129.966 132.178 114.717 128.332 100.18L110.464 32.6465C106.437 62.7525 90.1923 132.717 26.3164 141.605Z" fill="#5D66CF"/>
</g>
<path d="M20.8352 76.0951C20.6039 76.0951 20.3662 76.0678 20.1289 76.0128C18.4482 75.6231 17.4069 73.9454 17.7965 72.2704L32.0897 10.9511C32.4793 9.2764 34.154 8.24104 35.8351 8.62172C37.5157 9.01138 38.5571 10.6891 38.1674 12.3641L23.8742 73.6834C23.5392 75.1238 22.2542 76.0951 20.8352 76.0951Z" fill="white"/>
</svg>
