<?xml version="1.0" encoding="UTF-8"?>
<svg xmlns="http://www.w3.org/2000/svg" viewBox="0 0 100 100" preserveAspectRatio="xMidYMid meet">
  <path d="M82.76,37.68L82.63,37.76L82.34,37.77L82.06,37.67L81.80,37.79L81.89,38.17L81.69,38.22L81.50,38.35L81.48,38.62L81.34,38.62L81.30,38.81L81.13,38.92L81.09,39.08L81.35,39.11L81.85,39.03L81.97,38.94L82.22,39.05L82.31,39.21L82.20,39.38L82.00,39.51L81.85,39.68L81.51,39.76L81.59,40.18L81.50,40.30L81.11,40.59L80.95,40.95L80.56,41.29L80.31,41.38L80.15,41.50L80.16,41.66L80.01,41.68L79.83,41.89L79.98,42.06L79.89,42.16L79.63,42.27L79.44,42.55L79.17,42.62L79.00,42.73L78.68,42.82L78.53,42.79L78.19,43.18L78.10,43.23L78.31,43.60L78.28,43.97L78.17,44.16L78.12,44.46L78.27,44.58L78.06,44.91L77.85,44.97L77.83,45.07L77.51,45.32L77.12,45.52L76.73,45.94L76.38,46.27L76.06,46.50L75.95,46.63L76.13,46.81L76.25,46.93L75.96,47.28L75.86,47.55L75.70,47.72L75.78,47.94L75.64,48.18L75.87,48.25L76.34,48.65L76.02,49.17L76.01,49.35L75.90,49.45L76.04,49.78L75.89,49.91L75.80,49.82L75.43,49.90L75.23,50.07L75.07,50.10L74.97,50.30L75.16,50.40L74.92,50.92L75.11,50.82L75.51,50.85L75.56,50.74L75.83,50.73L76.06,50.84L76.38,50.67L76.45,50.48L76.79,50.20L77.06,50.12L77.28,49.85L77.26,49.73L77.00,49.81L76.80,49.52L76.86,49.28L77.06,48.83L77.24,48.66L77.51,48.63L77.59,48.79L77.82,48.91L77.96,48.74L78.34,48.60L78.44,48.41L78.64,48.29L78.85,48.39L79.14,48.31L79.45,48.28L80.04,48.26L80.49,48.40L80.60,48.53L80.36,48.77L80.45,48.99L80.69,49.16L80.76,49.30L80.99,49.47L80.92,49.75L80.82,49.80L80.58,50.23L80.64,50.43L80.50,50.63L80.53,50.86L80.65,50.95L81.21,51.02L81.12,51.27L81.17,51.38L81.04,51.70L81.15,51.78L81.39,51.57L81.57,51.72L81.79,52.14L81.93,52.19L82.04,52.39L82.01,52.58L82.14,52.64L82.19,52.94L82.03,53.01L81.91,53.19L81.93,53.32L81.84,53.47L81.57,53.56L81.49,53.68L81.19,53.72L81.05,53.69L80.68,53.78L80.58,53.98L80.64,54.05L80.57,54.34L80.61,54.86L80.87,55.20L81.27,55.34L81.24,55.45L81.46,55.61L81.67,55.54L81.90,55.68L81.81,55.82L81.74,56.16L81.86,56.30L81.84,56.73L81.93,56.87L81.89,56.99L82.19,57.06L82.20,57.24L82.56,57.33L82.65,57.67L82.91,57.77L83.12,57.92L83.00,58.16L82.97,58.36L82.81,58.47L82.79,58.66L82.65,58.69L82.71,59.00L82.80,59.15L82.81,59.38L82.60,59.55L82.34,59.83L82.23,59.68L82.03,59.78L81.66,59.85L81.59,60.13L81.43,60.21L81.19,60.23L81.12,60.35L81.19,60.53L80.88,60.63L80.64,60.43L80.34,60.32L80.15,60.54L79.96,60.46L79.75,60.51L79.70,60.66L79.42,60.80L79.40,60.88L79.63,61.17L79.61,61.36L79.70,61.65L80.06,61.65L80.18,61.71L80.23,61.88L80.14,61.94L80.31,62.14L80.24,62.41L80.23,62.77L80.36,62.79L80.60,63.05L80.98,63.30L81.32,63.35L81.45,63.19L81.71,63.35L81.94,63.41L82.01,63.67L81.89,63.90L82.06,64.16L82.05,64.36L82.18,64.58L82.33,64.63L82.41,64.94L82.29,64.95L82.05,64.84L81.80,64.87L81.61,65.05L81.55,65.20L81.64,65.47L81.55,65.56L81.44,65.80L81.44,65.99L81.31,66.12L81.06,66.21L80.92,66.41L80.99,66.74L81.10,66.91L81.27,67.01L81.30,67.15L81.47,67.28L81.47,67.37L81.18,67.46L81.20,67.91L81.14,68.03L81.38,68.13L81.40,68.29L81.63,68.52L81.60,68.65L81.85,68.81L81.87,69.09L81.95,69.24L82.15,69.36L82.36,69.27L82.64,69.42L82.84,69.58L82.96,69.53L83.25,69.74L83.36,69.89L83.48,69.84L83.55,69.99L83.77,70.16L84.17,70.11L84.29,70.38L84.49,70.32L84.74,70.39L84.77,70.29L84.97,70.31L85.27,70.13L85.61,70.10L85.75,70.04L86.00,70.08L86.20,69.80L86.47,69.84L86.38,70.04L86.35,70.23L86.40,70.38L86.68,70.72L86.66,70.89L86.57,71.13L86.34,71.23L86.37,71.54L86.25,71.76L85.97,71.96L85.88,71.94L85.72,72.12L85.63,72.35L85.63,72.51L85.31,72.66L85.20,72.85L85.36,73.42L85.44,73.57L85.17,73.77L85.07,73.93L84.97,73.84L84.65,74.09L84.65,74.18L84.40,74.25L84.30,74.20L84.15,74.31L84.07,74.46L83.88,74.55L83.80,74.47L83.52,74.52L83.40,74.78L83.27,74.95L83.19,74.83L82.95,74.87L82.82,75.04L82.71,75.50L82.71,75.78L82.57,75.67L82.34,75.76L82.27,75.89L81.99,75.86L81.72,75.91L81.57,76.02L81.48,76.19L81.59,76.31L81.54,76.50L81.45,76.54L81.38,76.82L81.26,76.88L81.17,77.04L80.94,77.02L80.95,77.18L80.73,77.15L80.44,77.23L80.33,77.09L80.11,77.26L80.10,77.42L79.98,77.63L79.95,77.85L79.75,77.90L79.66,78.11L79.11,78.50L79.13,78.63L79.36,78.63L79.49,78.53L79.63,78.62L79.74,78.49L79.87,78.61L79.82,78.72L79.64,78.88L79.69,79.19L79.50,79.40L79.35,79.63L79.17,79.39L78.93,79.37L78.52,79.72L78.28,79.68L77.92,79.74L77.67,79.86L77.61,80.02L77.65,80.32L77.43,80.30L77.33,80.16L77.05,80.02L76.82,80.08L76.60,80.06L76.41,80.15L76.28,80.32L76.21,80.59L76.26,80.91L75.99,80.80L76.09,80.72L76.05,80.43L75.72,80.34L75.42,80.43L75.37,80.27L75.25,80.18L74.81,80.14L74.68,79.99L74.54,80.09L74.65,80.36L74.35,80.52L74.26,80.73L74.07,80.71L73.90,80.43L73.97,80.15L73.69,80.05L73.75,79.92L73.38,79.86L73.33,79.76L73.17,79.80L73.02,79.45L72.89,79.37L72.70,79.38L72.54,79.61L72.33,79.49L72.08,79.13L71.93,79.27L71.56,79.15L71.14,79.13L70.96,79.18L70.80,79.11L70.85,78.96L71.02,78.82L70.97,78.58L70.84,78.45L70.96,78.17L70.69,77.73L70.51,77.71L70.24,77.92L70.01,78.01L69.71,77.96L69.65,78.01L68.78,78.00L68.65,77.87L68.69,77.75L68.36,77.30L68.31,77.07L68.07,77.00L67.90,77.13L67.62,77.26L67.52,77.57L67.69,77.70L67.56,77.97L67.41,78.00L67.08,77.83L66.64,77.80L66.27,77.84L65.76,77.70L65.60,77.59L65.57,77.43L65.77,77.31L65.73,77.02L65.60,76.90L65.29,76.79L64.95,76.77L64.53,76.86L64.40,76.81L63.38,76.74L62.95,76.62L62.69,76.45L62.62,76.27L62.77,76.04L62.52,75.83L62.22,75.80L61.92,75.85L61.63,75.97L61.22,76.19L60.85,76.48L60.48,76.92L60.00,77.17L60.01,77.31L59.79,77.39L59.58,77.39L59.19,77.75L58.89,78.10L58.57,78.56L58.28,78.51L58.04,78.38L57.74,78.44L57.46,78.57L56.92,78.97L56.77,79.13L56.34,79.58L56.10,79.94L55.78,80.51L55.65,80.81L55.45,81.57L55.43,81.86L55.56,81.98L55.45,82.75L55.42,83.12L55.42,83.78L55.40,84.29L55.41,84.80L55.46,85.10L55.49,85.53L55.54,85.65L55.74,85.78L55.87,85.77L56.08,85.87L55.98,85.96L56.05,86.19L56.18,86.23L56.21,86.41L56.32,86.64L55.97,86.61L55.73,86.73L55.49,86.44L55.43,86.27L55.24,86.34L55.08,86.27L54.95,86.34L54.81,86.19L54.65,86.42L54.25,86.36L54.10,86.41L53.92,86.60L53.82,86.80L53.64,86.86L53.51,86.73L53.26,86.78L52.98,86.94L52.86,87.09L52.97,87.55L52.56,87.49L52.34,87.39L52.18,87.42L52.09,87.62L51.82,87.53L51.70,87.56L51.60,87.38L51.37,87.20L51.39,87.09L50.81,86.91L50.53,86.70L50.43,86.76L50.19,86.61L50.12,86.69L49.82,86.82L49.52,86.75L49.34,86.86L49.25,87.15L49.07,87.23L49.03,87.34L48.63,87.41L48.38,87.35L48.21,87.06L48.20,86.75L48.09,86.69L48.04,86.46L47.92,86.53L47.71,86.50L47.68,86.40L47.47,86.33L47.43,86.23L47.16,86.11L46.89,86.14L46.68,86.08L46.65,85.85L46.71,85.53L46.84,85.39L47.05,85.30L46.96,85.23L46.64,85.14L46.72,84.94L46.36,84.81L46.22,84.86L46.05,84.75L45.84,84.78L45.71,84.72L45.55,84.53L45.46,84.51L45.14,84.61L45.00,84.55L44.93,84.77L44.98,84.90L44.84,85.03L44.73,85.01L44.60,84.80L44.56,84.52L44.38,84.36L44.40,84.23L44.16,84.09L44.18,83.93L43.96,83.85L43.65,83.95L43.48,83.93L43.32,83.82L43.24,83.88L42.87,83.97L42.68,83.80L42.65,83.55L42.51,83.38L42.26,83.28L41.68,83.24L41.52,83.06L41.28,83.21L40.85,82.87L40.47,82.72L40.37,82.77L40.04,82.64L39.84,82.52L39.51,82.74L39.59,82.88L39.59,83.07L39.42,83.28L39.46,83.46L39.67,83.99L39.59,84.18L39.17,84.09L39.03,84.13L38.65,84.06L38.57,84.16L38.30,84.08L38.02,84.17L37.80,84.11L37.73,83.95L37.51,83.86L37.29,84.03L37.25,84.24L37.07,84.32L36.89,84.12L36.85,83.93L36.62,83.91L36.49,83.80L36.28,83.73L36.18,83.84L36.02,83.87L35.85,83.98L35.71,83.92L35.42,84.11L35.27,84.06L35.04,84.23L34.71,84.14L34.65,83.91L34.42,83.87L34.04,83.14L33.92,83.26L33.52,83.04L33.26,82.77L33.01,82.64L32.96,82.76L32.79,82.77L32.65,82.98L32.49,83.12L32.37,83.04L32.14,83.15L31.70,82.87L31.60,83.00L31.61,83.12L31.47,83.18L31.43,83.33L31.30,83.28L31.31,83.05L31.15,83.08L31.07,82.80L30.77,82.58L30.57,82.30L30.44,82.35L30.26,82.23L30.20,82.03L30.26,81.93L30.09,81.50L29.84,81.53L29.70,81.65L29.33,81.66L29.10,81.55L28.78,81.63L28.42,81.40L28.38,81.29L27.87,81.17L27.67,80.97L27.53,81.08L27.31,80.84L27.22,80.87L26.90,80.65L26.77,80.77L26.66,80.75L26.53,80.59L26.36,80.52L26.43,80.28L26.55,80.04L26.27,80.10L26.11,80.30L26.15,80.41L26.05,80.91L25.48,80.74L25.27,80.40L25.28,80.30L25.65,79.95L25.65,79.74L25.73,79.64L25.74,79.46L25.86,79.34L25.87,78.74L25.66,78.54L25.49,78.61L25.11,78.45L25.05,78.35L24.65,78.40L24.70,78.51L24.56,78.76L24.36,78.75L24.21,78.43L24.26,78.28L23.97,78.14L23.79,78.17L23.55,78.33L23.36,77.86L23.17,77.79L23.15,77.57L23.33,77.55L24.15,77.24L24.41,77.00L24.66,76.50L24.76,76.39L24.92,76.07L25.14,75.65L25.35,75.19L25.47,74.76L25.51,74.32L25.68,73.42L25.92,72.37L26.17,71.00L26.31,70.27L26.57,68.44L26.73,67.00L26.74,66.55L26.70,66.24L26.91,65.96L27.07,65.51L27.06,65.34L27.15,65.14L27.34,65.11L27.48,65.27L27.89,65.33L27.98,65.27L28.31,65.25L28.26,64.99L28.05,64.68L27.71,64.35L27.64,64.33L27.32,64.03L27.22,64.20L27.26,64.32L26.95,64.67L26.84,64.95L26.78,65.32L26.67,65.41L26.74,64.64L26.92,63.27L27.06,61.96L27.15,60.82L27.34,58.98L27.36,58.41L27.35,57.89L27.42,57.59L27.38,57.32L27.51,56.92L27.76,56.63L27.82,56.43L28.02,56.45L28.16,56.68L28.16,56.92L28.39,57.10L28.60,57.38L28.87,57.58L29.11,57.86L29.51,58.21L29.74,58.50L29.98,59.06L30.09,59.46L30.15,60.03L30.55,61.10L30.74,61.38L31.04,61.71L31.16,61.46L30.86,61.14L30.75,60.82L30.65,60.64L30.63,60.23L30.51,59.74L30.41,59.12L30.31,58.70L30.20,58.30L30.05,57.94L29.75,57.42L29.44,57.04L28.88,56.57L28.67,56.48L28.47,56.28L28.47,56.09L28.36,55.95L28.10,55.87L27.90,55.69L27.65,55.61L27.37,55.37L27.03,55.13L26.84,55.04L26.80,54.31L27.03,54.17L27.14,54.23L27.54,54.08L27.38,53.72L27.40,53.53L27.59,53.58L27.75,53.43L27.93,53.03L27.91,52.81L28.00,52.68L27.76,52.29L28.00,52.25L28.07,52.09L27.99,51.72L27.83,51.68L27.75,51.29L27.66,51.21L27.56,50.97L27.27,50.85L27.23,50.72L27.04,50.79L26.93,50.60L27.09,50.32L27.10,50.14L27.28,50.04L27.47,49.84L27.49,49.75L27.68,49.68L27.56,49.20L27.31,49.11L27.07,49.15L27.12,49.30L27.05,49.41L27.04,49.62L26.54,49.21L26.12,48.90L25.97,48.83L25.75,48.91L25.56,48.85L25.31,48.89L25.17,48.52L25.07,48.36L24.86,48.25L24.76,48.28L24.34,48.21L23.69,47.84L23.37,47.61L23.23,47.44L22.99,47.41L22.94,47.14L22.70,46.32L22.47,46.07L22.14,45.52L21.97,45.51L21.86,45.24L21.26,44.64L20.80,44.30L20.71,43.61L20.93,43.59L21.05,43.30L21.35,43.01L21.55,42.46L21.87,42.26L21.71,41.95L21.52,41.83L21.39,41.63L20.98,41.48L20.70,41.45L20.55,41.36L20.31,41.34L20.23,41.27L20.23,41.07L20.63,40.93L20.68,40.52L20.54,40.29L20.60,40.22L20.61,39.95L20.49,39.83L20.10,40.07L19.94,40.22L19.73,40.26L19.47,40.07L19.27,39.86L19.08,39.82L18.79,40.02L18.70,39.95L18.31,39.79L18.38,39.36L18.26,39.07L18.01,38.92L18.17,38.84L18.51,38.55L18.73,38.43L18.68,38.21L18.54,38.26L18.41,38.12L18.47,37.96L18.39,37.81L18.79,37.75L18.63,37.60L18.28,37.45L18.11,37.49L18.05,37.59L17.71,37.55L17.71,37.41L17.38,37.33L17.39,37.43L17.19,37.75L16.96,37.66L16.50,37.77L16.43,37.84L16.07,37.72L16.08,37.59L15.89,37.38L15.64,37.29L15.67,37.13L15.84,37.10L15.98,37.31L16.27,37.25L16.36,37.18L16.65,37.36L16.84,37.21L16.96,36.97L16.97,36.81L16.68,36.62L16.70,36.40L16.43,36.55L16.19,36.61L16.05,36.56L15.81,36.71L15.77,36.92L15.48,36.78L15.39,36.94L15.03,37.07L14.88,36.90L14.42,37.08L14.24,37.04L14.17,37.40L14.28,37.75L14.43,37.88L14.19,37.96L14.04,37.67L14.04,37.44L14.16,37.24L14.13,36.94L14.00,36.68L13.76,36.53L13.66,36.35L13.67,36.13L13.79,35.95L13.95,35.97L14.20,35.72L14.22,35.55L13.99,35.42L13.88,35.44L13.90,35.76L13.61,36.09L13.62,36.31L13.25,35.98L13.14,35.77L12.78,35.69L12.73,35.50L12.47,35.76L12.18,35.75L12.03,35.82L11.73,35.49L11.58,35.22L11.52,34.98L11.60,34.76L11.48,34.65L11.46,34.46L11.56,34.34L11.45,34.46L11.43,34.60L11.56,34.79L11.46,35.17L11.29,35.11L10.93,35.11L10.60,35.00L10.51,35.03L10.14,34.76L9.97,34.90L9.71,34.93L9.57,34.84L9.37,34.85L9.03,34.44L8.81,34.01L8.51,33.80L8.45,34.03L8.52,34.29L8.10,34.37L7.90,34.19L7.53,34.19L7.28,34.34L7.21,34.08L7.06,34.22L7.18,34.43L7.31,34.50L7.15,34.81L6.93,34.88L6.58,34.90L6.38,34.81L5.95,34.85L5.84,34.60L6.04,34.51L6.03,34.26L5.92,33.89L5.78,33.59L5.55,33.24L5.34,33.05L4.97,32.83L4.76,32.75L4.60,32.88L4.25,32.72L4.15,32.59L4.02,32.67L3.70,32.61L3.59,32.27L3.87,32.29L3.93,32.20L4.22,32.22L4.50,32.09L4.68,32.13L4.82,32.03L5.12,32.04L5.26,31.92L5.51,31.92L5.87,31.81L6.32,32.02L6.47,31.87L6.48,31.65L6.56,31.59L6.55,31.39L6.40,31.32L6.42,31.17L6.35,31.00L6.16,30.89L5.92,30.90L5.86,30.78L5.28,30.58L5.02,30.65L4.90,31.03L4.67,31.26L4.68,30.87L4.61,30.63L4.74,30.55L4.66,30.38L4.48,30.44L4.32,30.36L4.59,30.11L4.50,29.79L4.68,29.61L4.73,29.74L4.68,30.03L4.80,30.13L4.91,30.03L5.02,30.16L5.33,30.05L5.54,30.06L5.62,30.20L5.81,30.22L6.12,30.12L6.32,30.01L6.56,30.02L6.63,30.18L6.88,30.02L6.50,29.84L6.18,29.84L6.26,29.63L5.92,29.56L5.87,29.73L5.42,29.72L5.41,29.51L5.68,29.11L5.54,29.04L5.47,29.17L5.31,29.15L4.99,29.25L4.78,29.43L4.70,29.38L4.31,29.61L4.18,29.62L3.84,29.44L3.73,29.47L3.65,29.67L3.21,29.70L3.23,29.38L3.29,29.28L3.20,29.12L3.20,28.97L3.06,28.89L3.17,28.54L3.30,28.33L3.18,28.02L3.31,27.85L3.28,27.75L3.49,27.50L3.67,27.38L3.82,27.40L4.18,27.29L4.30,27.32L4.43,27.14L4.61,27.10L4.65,26.86L4.90,26.75L5.02,26.88L5.49,26.74L5.58,26.55L5.72,26.54L6.04,26.34L6.26,26.39L6.56,26.60L6.88,26.61L6.97,26.40L7.13,26.25L7.65,26.17L7.99,26.22L8.02,26.08L8.16,25.99L8.37,26.00L8.49,25.86L8.60,25.93L8.55,26.08L8.58,26.35L8.71,26.57L9.02,26.46L9.11,26.68L9.41,26.82L9.34,26.61L9.41,26.49L9.35,26.25L9.57,26.10L9.80,26.10L9.94,26.03L10.16,26.04L10.36,26.21L10.65,26.17L10.76,26.39L10.65,26.51L10.81,26.40L11.17,26.41L11.15,25.95L11.35,25.85L11.38,25.65L11.16,25.43L11.20,25.26L11.48,25.12L11.44,24.93L11.56,24.86L11.93,24.92L12.18,25.18L12.40,25.14L12.50,25.00L12.67,24.96L12.90,24.79L13.31,24.81L13.42,24.60L13.59,24.51L13.70,24.82L13.94,24.64L14.23,24.52L14.43,24.50L14.50,24.89L14.70,25.00L14.97,24.94L15.02,25.15L14.76,25.27L14.99,25.47L15.39,25.50L15.53,25.60L15.43,25.91L15.56,26.04L15.79,26.14L15.86,26.36L16.02,26.37L16.22,26.59L16.29,26.99L16.26,27.14L16.53,27.23L16.58,27.37L16.93,27.51L16.92,27.73L17.07,27.99L17.23,27.94L17.19,27.75L17.53,27.80L17.52,27.68L17.70,27.55L18.00,27.21L18.43,27.00L18.58,26.86L18.61,26.60L18.83,26.58L18.99,26.68L19.33,26.54L19.64,26.37L19.78,26.50L19.65,26.76L19.49,26.89L19.66,26.97L19.74,26.85L19.98,26.66L20.37,27.29L20.57,27.31L20.69,27.19L20.63,27.04L20.92,27.04L20.80,26.78L21.00,26.70L21.25,26.70L21.37,26.82L21.54,26.86L21.52,26.99L21.65,27.20L21.70,27.41L21.93,27.71L22.09,27.67L22.00,27.56L21.80,27.14L21.68,27.01L21.57,26.75L21.57,26.58L21.77,26.50L21.94,26.25L22.16,26.17L22.37,26.21L22.47,26.13L22.75,26.17L22.84,26.30L22.66,26.43L22.60,26.62L22.78,26.92L23.25,27.05L24.01,26.98L24.61,26.83L24.79,26.78L24.98,26.91L25.24,26.90L25.46,26.82L25.80,26.59L25.18,26.25L25.03,26.20L24.87,25.82L24.68,25.77L24.59,25.61L24.62,25.12L24.59,24.94L24.38,24.78L24.50,24.70L24.57,24.51L24.62,24.19L24.74,24.10L24.79,23.88L24.67,23.79L24.68,23.20L24.46,23.00L24.35,22.45L24.37,22.15L24.45,21.94L24.37,21.32L24.49,20.96L24.30,20.98L24.20,21.15L24.05,20.88L23.98,20.65L23.67,20.08L23.59,20.06L23.31,19.71L23.03,19.62L22.92,19.34L22.90,18.84L22.78,18.67L22.73,18.29L22.53,18.20L22.51,18.00L22.69,17.89L22.80,17.69L22.78,17.24L22.68,16.94L22.44,16.79L22.10,16.70L22.17,16.52L22.09,16.41L22.13,16.21L22.30,16.21L22.52,16.40L22.69,16.30L22.81,16.34L22.93,16.55L23.25,16.64L23.63,16.65L23.84,16.71L23.93,16.86L24.20,16.83L24.25,16.97L24.95,16.87L25.18,16.75L25.28,16.49L25.38,16.54L25.61,16.42L25.96,16.39L26.42,16.52L26.64,16.50L26.61,16.65L26.83,16.91L26.89,17.34L26.73,17.30L26.65,17.49L26.45,17.58L26.36,17.88L26.38,18.01L26.74,18.57L27.14,19.04L27.30,19.28L27.34,19.43L27.23,19.56L27.33,19.68L27.63,19.78L27.90,19.46L28.22,19.45L28.50,19.38L28.83,19.40L29.26,19.65L29.59,19.76L30.28,19.87L30.78,19.87L31.11,19.93L31.41,19.87L31.67,19.88L32.09,19.98L32.34,19.98L32.70,20.10L33.09,20.33L33.60,20.49L33.98,20.45L34.47,20.34L35.11,20.07L35.60,19.69L35.85,19.41L35.98,19.32L36.28,19.23L36.58,19.09L37.10,19.06L37.37,18.96L37.38,18.87L36.93,18.84L36.83,18.91L36.56,18.84L36.40,18.86L35.92,18.74L35.71,18.56L35.69,18.37L35.57,18.33L35.61,18.04L35.82,17.58L36.02,17.24L36.14,16.95L36.21,16.59L36.39,16.39L36.78,16.23L37.00,16.10L37.25,16.05L37.48,15.92L37.55,15.82L38.01,15.60L38.60,15.25L38.94,15.01L39.40,14.87L39.83,14.79L39.91,14.81L40.40,14.76L40.67,14.62L40.95,14.57L41.32,14.46L41.55,14.33L41.93,14.37L42.50,14.17L43.17,13.81L43.44,13.60L44.01,13.10L44.34,12.92L44.83,12.49L45.02,11.89L45.22,11.61L45.46,11.48L45.78,11.76L45.99,11.72L46.29,11.87L46.36,11.79L46.22,11.49L45.95,11.48L45.76,11.20L45.75,11.08L45.46,11.04L45.39,10.83L45.47,10.17L45.61,10.09L45.89,10.08L46.08,10.15L45.97,9.96L45.67,9.89L45.51,9.71L45.60,9.26L45.65,8.57L45.70,8.37L45.93,8.39L45.68,8.12L45.65,8.03L45.64,7.34L45.54,6.80L45.76,6.46L45.83,6.19L45.84,5.90L45.66,5.31L45.69,5.13L46.08,5.07L46.25,4.94L46.42,4.71L46.66,4.50L47.01,4.33L47.36,4.25L47.61,4.14L47.74,4.16L47.91,4.05L48.78,3.91L48.93,3.83L49.21,3.85L49.40,3.70L49.75,3.72L49.76,3.56L49.94,3.58L50.21,3.48L50.76,3.34L51.12,3.41L51.31,3.36L52.13,3.04L52.24,3.27L52.33,3.76L52.31,3.86L52.54,4.02L52.70,4.42L52.42,4.68L52.54,4.74L52.55,5.23L52.72,5.70L53.28,5.70L53.40,6.00L53.70,6.30L53.73,6.47L53.91,6.63L54.15,6.57L54.29,6.77L54.48,6.85L54.64,6.77L54.74,6.39L54.96,6.31L55.31,6.10L55.57,6.02L55.75,6.09L55.90,5.88L56.17,6.00L56.49,6.46L56.57,6.67L56.79,6.67L56.89,6.79L56.91,7.00L56.77,7.20L56.86,7.54L56.97,7.66L57.04,7.98L57.00,8.16L57.07,8.46L57.58,8.70L57.67,8.81L58.05,8.66L58.33,8.40L58.63,8.51L58.48,8.74L58.65,8.77L58.96,8.72L59.07,8.82L59.22,8.75L59.46,9.08L59.60,9.18L59.66,9.79L59.56,9.97L59.66,10.32L59.91,10.63L60.05,10.54L60.08,10.24L60.15,10.17L60.86,10.16L61.11,10.37L61.23,10.38L61.63,10.17L61.80,10.19L62.03,10.10L62.09,10.24L62.66,10.67L62.67,10.91L63.23,10.92L63.33,11.07L63.11,11.27L62.91,11.60L62.84,11.87L62.87,12.00L62.69,12.25L63.16,12.25L63.16,12.50L63.36,12.79L63.30,12.97L63.00,13.12L62.93,13.08L62.75,13.36L62.90,13.67L62.78,13.76L62.99,13.78L63.16,13.87L63.15,13.98L63.40,13.96L63.90,13.85L64.18,14.02L64.38,14.01L64.83,14.16L65.06,14.06L65.25,14.07L65.46,13.87L65.68,13.75L66.35,13.59L66.52,13.04L66.41,12.89L66.53,12.63L66.86,12.48L66.94,12.24L67.35,12.00L67.40,12.07L67.72,12.09L67.82,12.26L67.66,12.36L67.65,12.61L67.53,12.58L67.38,13.09L67.46,13.19L67.30,13.41L67.32,13.60L67.12,13.85L67.13,13.96L67.52,14.07L67.58,14.20L67.79,14.43L67.54,14.90L67.64,15.10L67.64,15.35L67.56,15.56L68.06,15.62L68.23,15.48L68.52,15.50L68.59,15.66L68.95,15.86L69.13,15.83L69.29,16.05L69.37,16.31L69.63,16.39L69.64,16.52L69.92,16.51L70.15,16.59L70.31,16.49L70.74,16.89L70.59,17.07L70.61,17.29L70.82,17.16L71.16,17.26L71.41,17.49L71.48,17.90L71.63,18.01L71.52,18.22L71.67,18.41L72.14,18.24L72.24,18.10L72.49,18.18L72.64,18.12L72.78,17.95L72.96,17.88L73.21,18.01L73.42,17.96L73.70,17.78L73.83,17.89L74.12,17.98L74.11,18.20L74.33,18.40L74.50,18.42L74.81,18.38L75.02,18.47L75.09,18.86L75.39,18.82L75.58,18.72L75.72,18.74L76.03,18.64L76.25,18.35L76.92,18.29L77.07,18.35L77.19,18.58L77.30,18.58L77.64,18.78L77.93,18.70L78.01,18.63L78.35,18.75L78.91,19.18L78.82,19.34L78.97,19.47L79.13,19.50L79.01,19.89L79.19,20.03L79.14,20.11L79.34,20.30L79.48,20.36L79.62,20.70L79.78,20.88L79.85,21.13L80.02,21.08L80.10,21.23L79.96,21.40L80.14,21.64L80.45,21.59L80.79,21.75L80.96,21.49L80.90,21.28L80.79,21.18L80.94,21.07L81.13,21.18L81.46,21.07L81.62,21.26L81.72,21.19L81.88,21.34L82.12,21.38L82.08,21.57L82.20,21.88L82.26,22.13L82.58,21.86L82.94,22.05L83.12,21.95L83.27,22.02L83.53,21.96L83.78,22.09L83.89,22.08L84.10,21.82L84.32,21.81L84.34,21.55L84.87,21.44L84.93,21.61L85.19,21.58L85.18,21.85L85.34,22.05L85.43,22.28L85.70,22.45L85.90,22.41L86.11,22.54L86.14,22.69L86.40,22.78L86.62,22.70L86.79,22.79L87.03,22.76L87.20,22.58L87.70,22.89L87.85,22.76L88.02,22.82L88.14,22.66L88.33,22.80L88.44,22.97L88.55,22.94L88.90,23.08L89.19,23.32L89.51,23.43L90.06,23.45L90.13,23.54L89.88,23.64L89.51,24.25L89.41,24.47L89.22,25.05L88.97,25.26L88.77,25.28L88.73,25.46L88.61,25.55L88.37,25.58L88.33,25.91L87.85,26.47L87.51,26.68L87.43,26.91L87.27,27.16L87.24,27.29L87.29,27.84L87.20,28.03L87.03,28.15L87.00,28.47L86.81,28.97L86.78,29.25L86.87,29.64L86.79,29.81L86.59,29.89L86.36,30.72L86.21,30.86L86.09,31.12L85.91,31.35L85.88,31.59L85.75,31.72L85.77,31.85L85.70,32.09L85.71,32.58L85.94,32.84L86.05,33.15L85.79,33.54L85.79,33.83L85.61,34.04L85.66,34.31L85.44,34.94L85.45,35.12L85.56,35.39L85.52,35.56L85.33,35.75L85.38,36.14L85.68,36.42L85.85,36.79L85.80,36.96L85.28,37.28L85.40,37.52L85.28,37.56L85.28,37.75L85.15,37.89L84.80,37.73L84.72,37.86L84.90,37.95L84.70,38.24L84.44,38.37L84.15,38.28L83.77,38.34L83.54,38.46L83.45,38.30L83.27,38.34L83.03,38.25L83.14,37.79L82.95,37.80L82.76,37.68Z M48.21,86.30L48.21,86.46L48.35,86.52L48.56,86.51L48.39,86.25L48.21,86.30Z M68.62,75.82L68.63,76.07L68.52,76.37L68.56,76.64L68.78,76.64L68.87,76.70L69.00,77.32L69.27,77.28L69.44,77.32L69.60,77.21L69.80,76.98L70.04,76.81L70.01,76.51L69.88,76.44L69.50,76.75L69.21,76.10L68.96,76.08L68.84,76.14L68.75,75.92L68.62,75.82Z M19.71,45.35L19.50,45.55L19.30,45.48L19.12,45.33L19.08,45.19L19.26,45.12L19.61,45.25L19.71,45.35Z M20.42,43.01L20.25,42.87L19.98,42.92L19.73,42.65L19.79,42.42L19.89,42.26L20.07,42.28L20.28,42.46L20.23,42.77L20.69,43.02L20.76,43.17L20.75,43.38L20.62,43.42L20.57,43.22L20.42,43.01Z M1.01,28.67L1.00,28.32L1.25,28.23L1.42,28.38L1.27,28.54L1.01,28.67Z M12.24,36.55L12.11,36.48L11.97,36.55L11.67,36.35L11.74,36.22L12.19,36.33L12.24,36.55Z M13.76,39.00L14.02,39.05L14.13,39.35L14.44,39.49L14.67,39.53L14.56,39.76L14.42,39.80L13.99,39.72L13.94,39.63L13.75,39.70L13.58,39.69L13.39,39.49L13.46,39.42L13.32,39.13L13.31,38.95L13.59,38.87L13.76,39.00Z M25.21,50.17L25.40,49.99L25.59,49.98L25.56,50.21L25.72,50.24L25.99,50.20L26.28,50.39L26.48,50.40L26.59,50.65L26.58,50.78L26.39,50.82L26.05,50.69L25.81,50.49L25.34,50.25L25.04,50.32L24.87,50.25L24.67,49.91L25.00,49.71L25.15,49.75L25.25,49.95L25.00,50.05L25.21,50.17Z M26.75,53.69L26.65,53.38L26.47,53.17L26.08,52.92L25.83,52.61L25.78,52.42L25.84,52.23L25.66,51.75L25.94,51.82L25.94,51.89L26.38,52.29L26.77,52.29L26.85,52.38L26.81,52.61L26.89,52.74L26.86,52.90L26.93,53.04L27.17,53.29L27.04,53.65L27.12,53.85L26.88,54.12L26.78,53.93L26.75,53.69Z M78.12,81.03L78.25,80.92L78.35,80.75L78.48,80.77L78.35,81.02L78.12,81.03Z M77.86,81.25L77.77,81.06L78.02,81.05L77.86,81.25Z M76.84,80.99L76.88,81.19L76.60,81.34L76.31,81.17L76.40,81.10L76.56,81.17L76.84,80.99Z M97.95,92.21L97.97,92.56L97.89,92.79L97.99,93.10L97.93,93.81L97.75,93.95L97.84,94.13L97.73,94.36L97.63,94.31L97.51,94.50L97.18,94.62L97.24,94.87L97.39,94.66L97.55,94.76L97.70,94.74L97.54,95.10L97.28,95.23L97.16,95.48L97.10,95.71L97.17,95.85L96.97,96.10L96.76,96.23L96.77,96.48L96.93,96.56L96.72,96.95L96.46,96.96L96.38,96.78L96.25,96.78L96.08,96.66L95.88,96.65L95.96,96.39L95.91,96.22L95.76,96.23L95.52,95.98L95.41,96.02L95.21,95.82L94.99,95.75L94.74,95.74L94.69,95.60L94.49,95.63L94.44,95.44L94.27,95.35L94.19,95.23L94.06,95.23L93.93,94.98L93.76,94.79L93.85,94.65L93.88,94.42L94.07,94.42L94.26,94.26L94.39,94.26L94.46,94.05L94.70,93.92L94.69,93.84L94.20,93.77L94.01,93.61L93.75,93.63L93.82,93.40L93.74,93.34L93.40,93.51L93.16,93.28L93.34,93.15L93.46,93.00L93.32,92.78L93.53,92.77L93.73,92.67L93.82,92.48L93.86,92.13L93.78,91.97L93.94,91.90L93.79,91.57L93.52,91.61L93.37,91.74L93.06,91.76L92.86,91.71L92.68,91.80L92.72,91.55L92.57,91.30L92.69,91.12L92.89,91.15L93.03,91.05L92.96,90.75L93.19,90.58L93.27,90.59L93.53,90.45L93.52,90.24L93.39,90.23L93.32,89.92L93.14,89.80L92.98,89.82L92.90,89.67L92.74,89.65L92.44,89.33L92.52,89.26L92.44,89.02L92.46,88.85L92.33,88.56L92.69,88.39L93.18,88.30L93.19,88.16L92.99,87.92L92.84,87.93L92.75,87.83L92.77,87.57L92.69,87.47L92.52,87.44L92.33,87.63L92.26,87.49L92.41,87.16L92.64,87.11L92.64,86.82L92.74,86.78L92.96,86.83L93.09,86.24L93.02,86.08L93.02,85.88L93.23,85.77L93.32,85.78L93.39,85.48L93.63,85.33L93.66,85.45L93.84,85.45L93.95,85.34L93.98,85.06L94.42,84.92L94.47,84.76L94.61,84.78L94.71,84.69L94.87,84.72L95.33,84.66L95.67,84.42L95.62,84.27L95.83,83.94L96.09,83.78L96.38,83.73L96.58,83.84L96.73,83.74L97.22,84.33L97.42,84.10L97.41,83.92L97.57,83.73L97.51,83.45L97.53,83.11L97.34,82.83L97.48,82.44L97.41,82.15L97.58,82.02L97.66,81.71L97.54,81.24L97.66,81.12L98.02,81.12L98.36,81.31L98.28,81.53L98.37,81.75L98.39,82.10L98.48,82.49L98.54,83.16L98.41,83.40L98.24,84.34L98.43,84.81L98.70,85.19L98.78,85.37L98.83,85.79L98.80,86.12L98.88,86.44L98.89,86.70L98.82,87.14L98.85,87.52L99.00,88.13L98.95,88.57L98.99,88.95L98.98,89.47L98.93,89.84L98.80,90.01L98.38,90.72L98.21,90.94L98.02,91.27L98.04,91.54L97.91,92.05L97.95,92.21Z" fill="#FAF6EC" stroke="#310E31" stroke-width="0.3" stroke-opacity="0.55" />
</svg>
